<svg xmlns="http://www.w3.org/2000/svg" xmlns:xlink="http://www.w3.org/1999/xlink" viewBox="0 0 156.01 126.17"><defs><style>.cls-1{fill:none;}.cls-2{fill:url(#未命名的渐变_127);}.cls-27,.cls-3{fill:#cecece;}.cls-4{fill:#b0b0b1;}.cls-5{fill:url(#未命名的渐变_119);}.cls-6{fill:url(#未命名的渐变_119-2);}.cls-7{fill:url(#未命名的渐变_119-3);}.cls-8{fill:url(#未命名的渐变_119-4);}.cls-9{fill:url(#未命名的渐变_119-5);}.cls-10{fill:url(#未命名的渐变_119-6);}.cls-11{fill:url(#未命名的渐变_119-7);}.cls-12{fill:url(#未命名的渐变_119-8);}.cls-13{fill:url(#未命名的渐变_119-9);}.cls-14{fill:url(#未命名的渐变_119-10);}.cls-15{fill:url(#未命名的渐变_119-11);}.cls-16{fill:url(#未命名的渐变_119-12);}.cls-17{fill:url(#未命名的渐变_119-13);}.cls-18{fill:url(#未命名的渐变_119-14);}.cls-19{fill:url(#未命名的渐变_127-2);}.cls-20{fill:#7a7a7a;}.cls-21{fill:url(#未命名的渐变_127-3);}.cls-22{fill:url(#未命名的渐变_127-4);}.cls-23{clip-path:url(#clip-path);}.cls-24{fill:url(#未命名的渐变_127-5);}.cls-25{fill:#aaa;}.cls-26{fill:#373332;}.cls-27{stroke:#515151;}.cls-27,.cls-28{stroke-miterlimit:10;stroke-width:0.1px;}.cls-28{fill:#b1bcbc;stroke:#657a7a;}.cls-29{fill:#515151;}.cls-30{fill:#bcbcbc;}</style><linearGradient id="未命名的渐变_127" x1="87.15" y1="23.84" x2="87.15" y2="30.47" gradientUnits="userSpaceOnUse"><stop offset="0" stop-color="#808484"/><stop offset="0.15" stop-color="#bfc1c1"/><stop offset="0.29" stop-color="#f6f6f6"/><stop offset="0.45" stop-color="#d3d3d3"/><stop offset="0.68" stop-color="#999"/><stop offset="1" stop-color="#666"/></linearGradient><linearGradient id="未命名的渐变_119" x1="48.01" y1="3.31" x2="48.01" y2="11.88" gradientUnits="userSpaceOnUse"><stop offset="0" stop-color="#808484"/><stop offset="0.04" stop-color="#878b8b"/><stop offset="0.09" stop-color="#9c9f9f"/><stop offset="0.16" stop-color="#bdbfbf"/><stop offset="0.23" stop-color="#ebebeb"/><stop offset="0.25" stop-color="#f6f6f6"/><stop offset="0.34" stop-color="#dbdbdb"/><stop offset="0.47" stop-color="#b7b7b7"/><stop offset="0.58" stop-color="#a1a1a1"/><stop offset="0.65" stop-color="#999"/><stop offset="0.74" stop-color="#888"/><stop offset="0.9" stop-color="#6f6f6f"/><stop offset="1" stop-color="#666"/></linearGradient><linearGradient id="未命名的渐变_119-2" x1="50.31" y1="5.3" x2="50.31" y2="9.99" xlink:href="#未命名的渐变_119"/><linearGradient id="未命名的渐变_119-3" x1="86.39" y1="3.31" x2="86.39" y2="11.88" xlink:href="#未命名的渐变_119"/><linearGradient id="未命名的渐变_119-4" x1="88.69" y1="5.3" x2="88.69" y2="9.99" xlink:href="#未命名的渐变_119"/><linearGradient id="未命名的渐变_119-5" x1="124.87" y1="3.31" x2="124.87" y2="11.88" xlink:href="#未命名的渐变_119"/><linearGradient id="未命名的渐变_119-6" x1="127.17" y1="5.3" x2="127.17" y2="9.99" xlink:href="#未命名的渐变_119"/><linearGradient id="未命名的渐变_119-7" x1="1049.13" y1="3.31" x2="1049.13" y2="11.88" gradientTransform="matrix(1, 0, 0, -1, -897.2, 15.29)" xlink:href="#未命名的渐变_119"/><linearGradient id="未命名的渐变_119-8" x1="1051.42" y1="5.3" x2="1051.42" y2="9.99" gradientTransform="matrix(1, 0, 0, -1, -901.79, 15.29)" xlink:href="#未命名的渐变_119"/><linearGradient id="未命名的渐变_119-9" x1="1087.61" y1="3.31" x2="1087.61" y2="11.88" gradientTransform="matrix(1, 0, 0, -1, -974.17, 15.29)" xlink:href="#未命名的渐变_119"/><linearGradient id="未命名的渐变_119-10" x1="1089.91" y1="5.3" x2="1089.91" y2="9.99" gradientTransform="matrix(1, 0, 0, -1, -978.75, 15.29)" xlink:href="#未命名的渐变_119"/><linearGradient id="未命名的渐变_119-11" x1="1125.99" y1="3.31" x2="1125.99" y2="11.88" gradientTransform="matrix(1, 0, 0, -1, -1050.92, 15.29)" xlink:href="#未命名的渐变_119"/><linearGradient id="未命名的渐变_119-12" x1="1128.28" y1="5.3" x2="1128.28" y2="9.99" gradientTransform="matrix(1, 0, 0, -1, -1055.51, 15.29)" xlink:href="#未命名的渐变_119"/><linearGradient id="未命名的渐变_119-13" x1="1164.56" y1="3.31" x2="1164.56" y2="11.88" gradientTransform="matrix(1, 0, 0, -1, -1128.07, 15.29)" xlink:href="#未命名的渐变_119"/><linearGradient id="未命名的渐变_119-14" x1="1166.86" y1="5.3" x2="1166.86" y2="9.99" gradientTransform="matrix(1, 0, 0, -1, -1132.65, 15.29)" xlink:href="#未命名的渐变_119"/><linearGradient id="未命名的渐变_127-2" x1="51.73" y1="23.86" x2="51.73" y2="32.89" xlink:href="#未命名的渐变_127"/><linearGradient id="未命名的渐变_127-3" x1="90.3" y1="23.86" x2="90.3" y2="32.89" xlink:href="#未命名的渐变_127"/><linearGradient id="未命名的渐变_127-4" x1="128.68" y1="23.86" x2="128.68" y2="32.89" xlink:href="#未命名的渐变_127"/><clipPath id="clip-path"><rect class="cls-1" x="6.01" y="23.84" width="20.58" height="9.17"/></clipPath><linearGradient id="未命名的渐变_127-5" x1="13.3" y1="23.86" x2="13.3" y2="32.89" xlink:href="#未命名的渐变_127"/></defs><title>Additive injection system（添加剂注入系统）</title><g id="图层_2" data-name="图层 2"><g id="图层_14" data-name="图层 14"><g id="Additive_injection_system_添加剂注入系统_" data-name="Additive injection system（添加剂注入系统）"><rect class="cls-2" x="18.29" y="23.84" width="137.71" height="6.63"/><rect class="cls-3" x="6.01" y="17.62" width="150" height="6.22"/><rect class="cls-4" x="6.01" y="21.5" width="150" height="1.2"/><polygon class="cls-3" points="31.68 0 31.68 15.06 14.26 15.06 14.26 0 12.2 0 12.2 17.62 14.26 17.62 31.68 17.62 33.74 17.62 33.74 0 31.68 0"/><polygon class="cls-3" points="70.25 0 70.25 15.06 52.83 15.06 52.83 0 50.77 0 50.77 17.62 52.83 17.62 70.25 17.62 72.31 17.62 72.31 0 70.25 0"/><polygon class="cls-3" points="70.45 0 70.45 15.06 53.03 15.06 53.03 0 50.98 0 50.98 17.62 53.03 17.62 70.45 17.62 72.51 17.62 72.51 0 70.45 0"/><polygon class="cls-3" points="108.63 0 108.63 15.06 91.21 15.06 91.21 0 89.15 0 89.15 17.62 91.21 17.62 108.63 17.62 110.69 17.62 110.69 0 108.63 0"/><polygon class="cls-3" points="147.11 0 147.11 15.06 129.69 15.06 129.69 0 127.64 0 127.64 17.62 129.69 17.62 147.11 17.62 149.17 17.62 149.17 0 147.11 0"/><rect class="cls-5" x="46.19" y="3.29" width="3.65" height="8.71"/><rect class="cls-6" x="49.84" y="5.3" width="0.94" height="4.68"/><rect class="cls-7" x="84.57" y="3.29" width="3.65" height="8.71"/><rect class="cls-8" x="88.22" y="5.3" width="0.94" height="4.68"/><rect class="cls-9" x="123.05" y="3.29" width="3.65" height="8.71"/><rect class="cls-10" x="126.7" y="5.3" width="0.94" height="4.68"/><rect class="cls-11" x="150.1" y="3.29" width="3.65" height="8.71" transform="translate(303.86 15.29) rotate(180)"/><rect class="cls-12" x="149.17" y="5.3" width="0.94" height="4.68" transform="translate(299.27 15.29) rotate(180)"/><rect class="cls-13" x="111.62" y="3.29" width="3.65" height="8.71" transform="translate(226.89 15.29) rotate(180)"/><rect class="cls-14" x="110.69" y="5.3" width="0.94" height="4.68" transform="translate(222.31 15.29) rotate(180)"/><rect class="cls-15" x="73.24" y="3.29" width="3.65" height="8.71" transform="translate(150.14 15.29) rotate(180)"/><rect class="cls-16" x="72.31" y="5.3" width="0.94" height="4.68" transform="translate(145.55 15.29) rotate(180)"/><rect class="cls-17" x="34.67" y="3.29" width="3.65" height="8.71" transform="translate(73 15.29) rotate(180)"/><rect class="cls-18" x="33.74" y="5.3" width="0.94" height="4.68" transform="translate(68.41 15.29) rotate(180)"/><rect class="cls-19" x="38.32" y="23.84" width="26.82" height="9.17"/><rect class="cls-20" x="38.32" y="30.35" width="26.82" height="2.66"/><rect class="cls-20" x="61.69" y="23.84" width="2.36" height="6.63"/><rect class="cls-20" x="39.66" y="23.84" width="4.72" height="6.63"/><rect class="cls-21" x="76.89" y="23.84" width="26.82" height="9.17"/><rect class="cls-20" x="76.89" y="30.35" width="26.82" height="2.66"/><rect class="cls-20" x="100.27" y="23.84" width="2.36" height="6.63"/><rect class="cls-20" x="78.23" y="23.84" width="4.72" height="6.63"/><rect class="cls-22" x="115.27" y="23.84" width="26.82" height="9.17"/><rect class="cls-20" x="115.27" y="30.35" width="26.82" height="2.66"/><rect class="cls-20" x="138.64" y="23.84" width="2.36" height="6.63"/><rect class="cls-20" x="116.61" y="23.84" width="4.72" height="6.63"/><g class="cls-23"><rect class="cls-24" y="23.84" width="26.59" height="9.17"/><rect class="cls-20" y="30.35" width="26.59" height="2.66"/><rect class="cls-20" x="23.18" y="23.84" width="2.34" height="6.63"/><rect class="cls-20" x="1.33" y="23.84" width="4.68" height="6.63"/></g><rect class="cls-3" x="6.01" y="33.01" width="150" height="38.68"/><rect class="cls-4" x="6.01" y="52.85" width="150" height="4.65"/><rect class="cls-3" x="6.01" y="115.09" width="150" height="4.65"/><rect class="cls-25" x="11.27" y="34.52" width="11.7" height="16.53"/><rect class="cls-26" x="12.15" y="36.56" width="9.94" height="12.45"/><rect class="cls-27" x="13.3" y="38.63" width="7.63" height="1.91"/><rect class="cls-28" x="13.3" y="42.4" width="2.07" height="2.07"/><rect class="cls-28" x="16.08" y="42.4" width="2.07" height="2.07"/><rect class="cls-28" x="18.86" y="42.4" width="2.07" height="2.07"/><rect class="cls-28" x="13.3" y="45.67" width="2.07" height="2.07"/><rect class="cls-28" x="16.08" y="45.67" width="2.07" height="2.07"/><rect class="cls-28" x="18.86" y="45.67" width="2.07" height="2.07"/><rect class="cls-25" x="53.44" y="34.52" width="11.7" height="16.53"/><rect class="cls-26" x="54.32" y="36.56" width="9.94" height="12.45"/><rect class="cls-27" x="55.48" y="38.63" width="7.63" height="1.91"/><rect class="cls-28" x="55.48" y="42.4" width="2.07" height="2.07"/><rect class="cls-28" x="58.25" y="42.4" width="2.07" height="2.07"/><rect class="cls-28" x="61.03" y="42.4" width="2.07" height="2.07"/><rect class="cls-28" x="55.48" y="45.67" width="2.07" height="2.07"/><rect class="cls-28" x="58.25" y="45.67" width="2.07" height="2.07"/><rect class="cls-28" x="61.03" y="45.67" width="2.07" height="2.07"/><rect class="cls-25" x="95.61" y="34.52" width="11.7" height="16.53"/><rect class="cls-26" x="96.49" y="36.56" width="9.94" height="12.45"/><rect class="cls-27" x="97.65" y="38.63" width="7.63" height="1.91"/><rect class="cls-28" x="97.65" y="42.4" width="2.07" height="2.07"/><rect class="cls-28" x="100.42" y="42.4" width="2.07" height="2.07"/><rect class="cls-28" x="103.2" y="42.4" width="2.07" height="2.07"/><rect class="cls-28" x="97.65" y="45.67" width="2.07" height="2.07"/><rect class="cls-28" x="100.42" y="45.67" width="2.07" height="2.07"/><rect class="cls-28" x="103.2" y="45.67" width="2.07" height="2.07"/><rect class="cls-25" x="137.78" y="34.52" width="11.7" height="16.53"/><rect class="cls-26" x="138.66" y="36.56" width="9.94" height="12.45"/><rect class="cls-27" x="139.82" y="38.63" width="7.63" height="1.91"/><rect class="cls-28" x="139.82" y="42.4" width="2.07" height="2.07"/><rect class="cls-28" x="142.59" y="42.4" width="2.07" height="2.07"/><rect class="cls-28" x="145.37" y="42.4" width="2.07" height="2.07"/><rect class="cls-28" x="139.82" y="45.67" width="2.07" height="2.07"/><rect class="cls-28" x="142.59" y="45.67" width="2.07" height="2.07"/><rect class="cls-28" x="145.37" y="45.67" width="2.07" height="2.07"/><rect class="cls-3" x="151.74" y="71.06" width="4.27" height="55.11"/><path class="cls-29" d="M26.89,98.61h1.6a.31.31,0,0,1,.31.31v13.39a0,0,0,0,1,0,0H26.57a0,0,0,0,1,0,0V98.93a.31.31,0,0,1,.31-.31Z"/><polygon class="cls-29" points="29.79 115.09 25.58 115.09 26.57 112.32 28.8 112.32 29.79 115.09"/><rect class="cls-30" x="26.57" y="112.01" width="2.22" height="0.3"/><path class="cls-29" d="M80.21,98.61h1.6a.31.31,0,0,1,.31.31v13.39a0,0,0,0,1,0,0H79.9a0,0,0,0,1,0,0V98.93A.31.31,0,0,1,80.21,98.61Z"/><polygon class="cls-29" points="83.11 115.09 78.9 115.09 79.9 112.32 82.12 112.32 83.11 115.09"/><rect class="cls-30" x="79.9" y="112.01" width="2.22" height="0.3"/><path class="cls-29" d="M133.53,98.61h1.6a.31.31,0,0,1,.31.31v13.39a0,0,0,0,1,0,0h-2.22a0,0,0,0,1,0,0V98.93a.31.31,0,0,1,.31-.31Z"/><polygon class="cls-29" points="136.44 115.09 132.22 115.09 133.22 112.32 135.44 112.32 136.44 115.09"/><rect class="cls-30" x="133.22" y="112.01" width="2.22" height="0.3"/></g></g></g></svg>