<svg xmlns="http://www.w3.org/2000/svg" xmlns:xlink="http://www.w3.org/1999/xlink" viewBox="0 0 43.28 150"><defs><style>.cls-1{fill:url(#未命名的渐变_132);}.cls-2{fill:url(#未命名的渐变_132-2);}.cls-3{fill:url(#未命名的渐变_132-3);}.cls-4{opacity:0.2;fill:url(#未命名的渐变_79);}.cls-5{fill:url(#未命名的渐变_132-4);}.cls-6{fill:url(#未命名的渐变_162);}.cls-7{fill:url(#未命名的渐变_20);}.cls-8{fill:url(#未命名的渐变_19);}.cls-9{fill:url(#未命名的渐变_323);}.cls-10{fill:url(#未命名的渐变_165);}.cls-11,.cls-13,.cls-14,.cls-15{stroke:#505458;stroke-miterlimit:10;stroke-width:0.08px;}.cls-11{fill:url(#未命名的渐变_303);}.cls-12{fill:#505458;}.cls-13{fill:url(#未命名的渐变_303-2);}.cls-14{fill:url(#未命名的渐变_303-3);}.cls-15{fill:url(#未命名的渐变_303-4);}.cls-16{fill:url(#未命名的渐变_241);}.cls-17{fill:#a3b372;}.cls-18{fill:#646e46;}.cls-19{fill:#fff;opacity:0.1;}</style><linearGradient id="未命名的渐变_132" x1="21.91" y1="-235.36" x2="21.91" y2="-216.89" gradientTransform="matrix(1, 0, 0, -2.73, 0, -493.23)" gradientUnits="userSpaceOnUse"><stop offset="0" stop-color="#a9b1bb"/><stop offset="0.06" stop-color="#5d6166"/><stop offset="0.78" stop-color="#e2eaf2"/><stop offset="0.93" stop-color="#9ba1ab"/><stop offset="1" stop-color="#767b82"/></linearGradient><linearGradient id="未命名的渐变_132-2" x1="14.28" y1="63" x2="29" y2="63" gradientTransform="matrix(1, 0, 0, 1, 0, 0)" xlink:href="#未命名的渐变_132"/><linearGradient id="未命名的渐变_132-3" x1="70.24" y1="-310.36" x2="70.24" y2="-330.74" gradientTransform="matrix(1, 0, 0, 1, -48.62, 412.03)" xlink:href="#未命名的渐变_132"/><linearGradient id="未命名的渐变_79" x1="72.21" y1="-320.55" x2="66.6" y2="-320.55" gradientTransform="matrix(1, 0, 0, 1, -47.8, 411.2)" gradientUnits="userSpaceOnUse"><stop offset="0" stop-color="#9ba1ab" stop-opacity="0"/><stop offset="1" stop-color="#2e3033"/></linearGradient><linearGradient id="未命名的渐变_132-4" x1="65.39" y1="-310.39" x2="65.39" y2="-330.77" gradientTransform="matrix(0, 1, -1, 0, -297.36, 21.24)" xlink:href="#未命名的渐变_132"/><linearGradient id="未命名的渐变_162" x1="9.93" y1="98.26" x2="33.34" y2="98.26" gradientTransform="translate(-76.62 119.9) rotate(-90)" gradientUnits="userSpaceOnUse"><stop offset="0" stop-color="#a9b1bb"/><stop offset="1" stop-color="#e2eaf2"/></linearGradient><linearGradient id="未命名的渐变_20" x1="21.59" y1="9.51" x2="21.59" y2="13.44" gradientUnits="userSpaceOnUse"><stop offset="0" stop-color="#767b82"/><stop offset="0.07" stop-color="#9ba1ab"/><stop offset="0.22" stop-color="#e2eaf2"/><stop offset="0.94" stop-color="#5d6166"/><stop offset="1" stop-color="#a9b1bb"/></linearGradient><linearGradient id="未命名的渐变_19" x1="24.22" y1="24.22" x2="15.72" y2="15.72" gradientUnits="userSpaceOnUse"><stop offset="0" stop-color="#e6f1ff" stop-opacity="0"/><stop offset="0.26" stop-color="#e6f1ff" stop-opacity="0.01"/><stop offset="0.4" stop-color="#e6f1ff" stop-opacity="0.04"/><stop offset="0.51" stop-color="#e7f1ff" stop-opacity="0.09"/><stop offset="0.6" stop-color="#e7f2ff" stop-opacity="0.17"/><stop offset="0.69" stop-color="#e8f2ff" stop-opacity="0.26"/><stop offset="0.76" stop-color="#e9f2ff" stop-opacity="0.38"/><stop offset="0.83" stop-color="#eaf3ff" stop-opacity="0.53"/><stop offset="0.9" stop-color="#ecf3ff" stop-opacity="0.69"/><stop offset="0.96" stop-color="#edf4ff" stop-opacity="0.87"/><stop offset="1" stop-color="#eef4ff"/></linearGradient><linearGradient id="未命名的渐变_323" x1="21.64" y1="43.28" x2="21.64" gradientUnits="userSpaceOnUse"><stop offset="0" stop-color="#5c6066"/><stop offset="1" stop-color="#f5faff"/></linearGradient><linearGradient id="未命名的渐变_165" x1="21.64" y1="43.28" x2="21.64" gradientUnits="userSpaceOnUse"><stop offset="0" stop-color="#8a9099"/><stop offset="1" stop-color="#f5faff"/></linearGradient><linearGradient id="未命名的渐变_303" x1="1015.9" y1="-449.06" x2="1015.9" y2="-447.6" gradientTransform="translate(-1033.63 -379.83) rotate(45)" gradientUnits="userSpaceOnUse"><stop offset="0" stop-color="#9ba1ab"/><stop offset="0" stop-color="#abb1ba"/><stop offset="0.09" stop-color="#abb1ba"/><stop offset="0.46" stop-color="#f5faff"/><stop offset="1" stop-color="#a9b1bb"/></linearGradient><linearGradient id="未命名的渐变_303-2" x1="1044.32" y1="-477.48" x2="1044.32" y2="-476.01" xlink:href="#未命名的渐变_303"/><linearGradient id="未命名的渐变_303-3" x1="1015.9" y1="-449.06" x2="1015.9" y2="-447.6" gradientTransform="translate(-379.5 1076.97) rotate(-45)" xlink:href="#未命名的渐变_303"/><linearGradient id="未命名的渐变_303-4" x1="1044.32" y1="-477.48" x2="1044.32" y2="-476.01" gradientTransform="translate(-379.5 1076.97) rotate(-45)" xlink:href="#未命名的渐变_303"/><linearGradient id="未命名的渐变_241" x1="21.64" y1="35.53" x2="21.64" y2="7.75" gradientUnits="userSpaceOnUse"><stop offset="0" stop-color="#494a4d"/><stop offset="1" stop-color="#17181a"/></linearGradient></defs><title>Vortex meter(涡流计)</title><g id="图层_2" data-name="图层 2"><g id="图层_16" data-name="图层 16"><g id="Vortex_meter_涡流计_" data-name="Vortex meter(涡流计)"><rect class="cls-1" x="5.2" y="99.52" width="33.41" height="50.48"/><rect class="cls-2" x="14.28" y="37.31" width="14.73" height="51.38"/><rect class="cls-3" x="17.99" y="81.29" width="7.26" height="20.39" transform="translate(113.11 69.85) rotate(90)"/><rect class="cls-4" x="18.82" y="80.46" width="5.61" height="20.39" transform="translate(112.28 69.03) rotate(90)"/><polygon class="cls-5" points="11.49 87.85 14.3 85.48 29 85.39 31.78 87.85 11.49 87.85"/><rect class="cls-6" x="18.5" y="86.55" width="6.29" height="23.41" transform="translate(119.9 76.62) rotate(90)"/><polygon class="cls-7" points="39.59 9.51 36 9.51 0 9.51 0 13.44 36 13.44 39.59 13.44 43.19 13.44 43.19 9.51 39.59 9.51"/><polygon class="cls-8" points="13.14 24.99 13.14 18.3 30.14 18.3 13.14 24.99"/><path class="cls-9" d="M43.21,19.9A21.64,21.64,0,0,0,23.58.09C22.94,0,22.29,0,21.64,0s-1,0-1.55.06A21.64,21.64,0,0,0,.07,19.9C0,20.48,0,21.06,0,21.65s0,1.16.07,1.73a21.64,21.64,0,0,0,20,19.85c.51,0,1,.05,1.55.05s1.3,0,1.94-.08A21.64,21.64,0,0,0,43.21,23.38c0-.57.07-1.15.07-1.73S43.26,20.48,43.21,19.9ZM21.64,37.36A15.72,15.72,0,1,1,37.36,21.65,15.73,15.73,0,0,1,21.64,37.36Z"/><path class="cls-10" d="M43.21,19.9H39.86A18.34,18.34,0,0,0,23.58,3.44V.09C22.94,0,22.29,0,21.64,0s-1,0-1.55.06V3.41A18.33,18.33,0,0,0,3.42,19.9H.07C0,20.48,0,21.06,0,21.65s0,1.16.07,1.73H3.42a18.34,18.34,0,0,0,16.67,16.5v3.35c.51,0,1,.05,1.55.05s1.3,0,1.94-.08V39.84A18.33,18.33,0,0,0,39.86,23.38h3.35c0-.57.07-1.15.07-1.73S43.26,20.48,43.21,19.9Z"/><circle class="cls-11" cx="1.74" cy="21.51" r="0.73"/><path class="cls-12" d="M1.47,21.15l.28.29L2,21.15l.06.06-.29.29.29.28-.06,0-.28-.28-.31.31-.06-.06.31-.31-.28-.29Z"/><circle class="cls-13" cx="41.93" cy="21.51" r="0.73"/><path class="cls-12" d="M41.66,21.15l.28.29.29-.29.06.06L42,21.5l.29.28-.06,0L42,21.55l-.31.31-.06-.06.31-.31-.28-.29Z"/><circle class="cls-14" cx="21.84" cy="41.6" r="0.73"/><path class="cls-12" d="M21.48,41.88l.29-.29-.29-.28.06-.06.29.28.28-.28.05,0-.28.28.31.31-.06.06-.31-.31-.29.29Z"/><circle class="cls-15" cx="21.84" cy="1.41" r="0.73"/><path class="cls-12" d="M21.48,1.69l.29-.29-.29-.28.06-.06.29.28.28-.28.05.05-.28.28.31.32-.06.06-.31-.32-.29.29Z"/><path class="cls-16" d="M35.53,21.65A13.89,13.89,0,1,1,21.64,7.75,13.9,13.9,0,0,1,35.53,21.65Z"/><rect class="cls-17" x="12.37" y="15.06" width="18.54" height="13.16"/><path class="cls-18" d="M30.64,15.33V28h-18V15.33h18m.54-.54H12.1v13.7H31.18V14.79Z"/><path class="cls-19" d="M31.5,11.85c-.19.42-.37.84-.58,1.25A38.17,38.17,0,0,1,13.1,30.92c-.31.15-.63.3-1,.44l-.28.14A13.89,13.89,0,1,1,31.5,11.85Z"/><path class="cls-19" d="M30.92,13.1A38.17,38.17,0,0,1,13.1,30.92c-4.94-5.25-5.1-13.27-.28-18.1S25.68,8.15,30.92,13.1Z"/></g></g></g></svg>