<svg xmlns="http://www.w3.org/2000/svg" xmlns:xlink="http://www.w3.org/1999/xlink" viewBox="0 0 38.72 150.24"><defs><style>.cls-1{opacity:0.3;fill:url(#未命名的渐变_46);}.cls-2,.cls-6{fill:none;stroke-miterlimit:10;}.cls-2{stroke:url(#未命名的渐变_173);}.cls-3,.cls-4{opacity:0.2;}.cls-3{fill:url(#未命名的渐变_94);}.cls-4{fill:url(#未命名的渐变_46-2);}.cls-5{opacity:0.6;}.cls-6{stroke:#606060;stroke-width:0.25px;}</style><linearGradient id="未命名的渐变_46" x1="7.18" y1="73.96" x2="35.13" y2="73.96" gradientUnits="userSpaceOnUse"><stop offset="0" stop-color="#a9b1bb"/><stop offset="0.06" stop-color="#5d6166"/><stop offset="0.84" stop-color="#e2eaf2"/><stop offset="0.93" stop-color="#9ba1ab"/><stop offset="1" stop-color="#767b82"/></linearGradient><linearGradient id="未命名的渐变_173" x1="17.82" y1="148.18" x2="17.82" gradientUnits="userSpaceOnUse"><stop offset="0" stop-color="#898f99"/><stop offset="0.12" stop-color="#b9c0cc"/><stop offset="0.22" stop-color="#eef7ff" stop-opacity="0"/><stop offset="0.94" stop-color="#5e6266"/><stop offset="1" stop-color="#e6f1ff"/></linearGradient><linearGradient id="未命名的渐变_94" x1="3.59" y1="148.96" x2="38.72" y2="148.96" gradientUnits="userSpaceOnUse"><stop offset="0" stop-color="#5d6166"/><stop offset="0.5" stop-color="#e2eaf2"/><stop offset="0.53" stop-color="#767b82"/><stop offset="1" stop-color="#e2eaf2"/></linearGradient><linearGradient id="未命名的渐变_46-2" x1="2.33" y1="8.15" x2="8.73" y2="1.75" xlink:href="#未命名的渐变_46"/></defs><title>Graduated cylinder（量筒）</title><g id="图层_2" data-name="图层 2"><g id="图层_21" data-name="图层 21"><g id="Graduated_cylinder_量筒_" data-name="Graduated cylinder（量筒）"><rect class="cls-1" x="7.18" y="0.24" width="27.95" height="147.44"/><polyline class="cls-2" points="35.13 0.24 35.13 147.68 7.18 147.68 7.18 12.56 0.44 0.24"/><rect class="cls-3" x="3.59" y="147.68" width="35.12" height="2.56"/><polygon class="cls-4" points="7.23 13.05 0.44 0.24 7.23 0.24 7.23 13.05"/><g class="cls-5"><line class="cls-6" x1="7.23" y1="136.38" x2="35.13" y2="136.38"/><line class="cls-6" x1="7.23" y1="123.6" x2="35.13" y2="123.6"/><line class="cls-6" x1="7.23" y1="135.11" x2="12.37" y2="135.11"/><line class="cls-6" x1="7.23" y1="133.83" x2="12.37" y2="133.83"/><line class="cls-6" x1="7.23" y1="132.55" x2="12.37" y2="132.55"/><line class="cls-6" x1="7.23" y1="131.27" x2="12.37" y2="131.27"/><line class="cls-6" x1="7.23" y1="129.99" x2="13.91" y2="129.99"/><line class="cls-6" x1="7.23" y1="128.71" x2="12.37" y2="128.71"/><line class="cls-6" x1="7.23" y1="127.44" x2="12.37" y2="127.44"/><line class="cls-6" x1="7.23" y1="126.16" x2="12.37" y2="126.16"/><line class="cls-6" x1="7.23" y1="124.88" x2="12.37" y2="124.88"/><line class="cls-6" x1="7.23" y1="123.6" x2="21.15" y2="123.6"/><line class="cls-6" x1="7.23" y1="110.82" x2="21.15" y2="110.82"/><line class="cls-6" x1="7.23" y1="122.32" x2="12.37" y2="122.32"/><line class="cls-6" x1="7.23" y1="121.04" x2="12.37" y2="121.04"/><line class="cls-6" x1="7.23" y1="119.77" x2="12.37" y2="119.77"/><line class="cls-6" x1="7.23" y1="118.49" x2="12.37" y2="118.49"/><line class="cls-6" x1="7.23" y1="117.21" x2="13.91" y2="117.21"/><line class="cls-6" x1="7.23" y1="115.93" x2="12.37" y2="115.93"/><line class="cls-6" x1="7.23" y1="114.65" x2="12.37" y2="114.65"/><line class="cls-6" x1="7.23" y1="113.37" x2="12.37" y2="113.37"/><line class="cls-6" x1="7.23" y1="112.1" x2="12.37" y2="112.1"/><line class="cls-6" x1="7.23" y1="110.82" x2="35.13" y2="110.82"/><line class="cls-6" x1="7.23" y1="98.03" x2="35.13" y2="98.03"/><line class="cls-6" x1="7.23" y1="109.54" x2="12.37" y2="109.54"/><line class="cls-6" x1="7.23" y1="108.26" x2="12.37" y2="108.26"/><line class="cls-6" x1="7.23" y1="106.98" x2="12.37" y2="106.98"/><line class="cls-6" x1="7.23" y1="105.7" x2="12.37" y2="105.7"/><line class="cls-6" x1="7.23" y1="104.43" x2="13.91" y2="104.43"/><line class="cls-6" x1="7.23" y1="103.15" x2="12.37" y2="103.15"/><line class="cls-6" x1="7.23" y1="101.87" x2="12.37" y2="101.87"/><line class="cls-6" x1="7.23" y1="100.59" x2="12.37" y2="100.59"/><line class="cls-6" x1="7.23" y1="99.31" x2="12.37" y2="99.31"/><line class="cls-6" x1="7.23" y1="98.03" x2="21.15" y2="98.03"/><line class="cls-6" x1="7.23" y1="85.25" x2="21.15" y2="85.25"/><line class="cls-6" x1="7.23" y1="96.76" x2="12.37" y2="96.76"/><line class="cls-6" x1="7.23" y1="95.48" x2="12.37" y2="95.48"/><line class="cls-6" x1="7.23" y1="94.2" x2="12.37" y2="94.2"/><line class="cls-6" x1="7.23" y1="92.92" x2="12.37" y2="92.92"/><line class="cls-6" x1="7.23" y1="91.64" x2="13.91" y2="91.64"/><line class="cls-6" x1="7.23" y1="90.36" x2="12.37" y2="90.36"/><line class="cls-6" x1="7.23" y1="89.09" x2="12.37" y2="89.09"/><line class="cls-6" x1="7.23" y1="87.81" x2="12.37" y2="87.81"/><line class="cls-6" x1="7.23" y1="86.53" x2="12.37" y2="86.53"/><line class="cls-6" x1="7.23" y1="85.25" x2="35.13" y2="85.25"/><line class="cls-6" x1="7.23" y1="72.47" x2="35.13" y2="72.47"/><line class="cls-6" x1="7.23" y1="83.97" x2="12.37" y2="83.97"/><line class="cls-6" x1="7.23" y1="82.69" x2="12.37" y2="82.69"/><line class="cls-6" x1="7.23" y1="81.42" x2="12.37" y2="81.42"/><line class="cls-6" x1="7.23" y1="80.14" x2="12.37" y2="80.14"/><line class="cls-6" x1="7.23" y1="78.86" x2="13.91" y2="78.86"/><line class="cls-6" x1="7.23" y1="77.58" x2="12.37" y2="77.58"/><line class="cls-6" x1="7.23" y1="76.3" x2="12.37" y2="76.3"/><line class="cls-6" x1="7.23" y1="75.02" x2="12.37" y2="75.02"/><line class="cls-6" x1="7.23" y1="73.75" x2="12.37" y2="73.75"/><line class="cls-6" x1="7.23" y1="72.47" x2="21.15" y2="72.47"/><line class="cls-6" x1="7.23" y1="71.19" x2="12.37" y2="71.19"/><line class="cls-6" x1="7.23" y1="69.91" x2="12.37" y2="69.91"/><line class="cls-6" x1="7.23" y1="68.63" x2="12.37" y2="68.63"/><line class="cls-6" x1="7.23" y1="67.35" x2="12.37" y2="67.35"/><line class="cls-6" x1="7.23" y1="66.08" x2="13.91" y2="66.08"/><line class="cls-6" x1="7.23" y1="64.8" x2="12.37" y2="64.8"/><line class="cls-6" x1="7.23" y1="63.52" x2="12.37" y2="63.52"/><line class="cls-6" x1="7.23" y1="62.24" x2="12.37" y2="62.24"/><line class="cls-6" x1="7.23" y1="60.96" x2="12.37" y2="60.96"/><line class="cls-6" x1="7.23" y1="59.52" x2="35.13" y2="59.52"/><line class="cls-6" x1="7.23" y1="46.74" x2="35.13" y2="46.74"/><line class="cls-6" x1="7.23" y1="58.25" x2="12.37" y2="58.25"/><line class="cls-6" x1="7.23" y1="56.97" x2="12.37" y2="56.97"/><line class="cls-6" x1="7.23" y1="55.69" x2="12.37" y2="55.69"/><line class="cls-6" x1="7.23" y1="54.41" x2="12.37" y2="54.41"/><line class="cls-6" x1="7.23" y1="53.13" x2="13.91" y2="53.13"/><line class="cls-6" x1="7.23" y1="51.85" x2="12.37" y2="51.85"/><line class="cls-6" x1="7.23" y1="50.58" x2="12.37" y2="50.58"/><line class="cls-6" x1="7.23" y1="49.3" x2="12.37" y2="49.3"/><line class="cls-6" x1="7.23" y1="48.02" x2="12.37" y2="48.02"/><line class="cls-6" x1="7.23" y1="46.74" x2="21.15" y2="46.74"/><line class="cls-6" x1="7.23" y1="33.96" x2="21.15" y2="33.96"/><line class="cls-6" x1="7.23" y1="45.46" x2="12.37" y2="45.46"/><line class="cls-6" x1="7.23" y1="44.18" x2="12.37" y2="44.18"/><line class="cls-6" x1="7.23" y1="42.91" x2="12.37" y2="42.91"/><line class="cls-6" x1="7.23" y1="41.63" x2="12.37" y2="41.63"/><line class="cls-6" x1="7.23" y1="40.35" x2="13.91" y2="40.35"/><line class="cls-6" x1="7.23" y1="39.07" x2="12.37" y2="39.07"/><line class="cls-6" x1="7.23" y1="37.79" x2="12.37" y2="37.79"/><line class="cls-6" x1="7.23" y1="36.51" x2="12.37" y2="36.51"/><line class="cls-6" x1="7.23" y1="35.24" x2="12.37" y2="35.24"/><line class="cls-6" x1="7.23" y1="33.96" x2="35.13" y2="33.96"/><line class="cls-6" x1="7.23" y1="21.17" x2="35.13" y2="21.17"/><line class="cls-6" x1="7.23" y1="32.68" x2="12.37" y2="32.68"/><line class="cls-6" x1="7.23" y1="31.4" x2="12.37" y2="31.4"/><line class="cls-6" x1="7.23" y1="30.12" x2="12.37" y2="30.12"/><line class="cls-6" x1="7.23" y1="28.84" x2="12.37" y2="28.84"/><line class="cls-6" x1="7.23" y1="27.57" x2="13.91" y2="27.57"/><line class="cls-6" x1="7.23" y1="26.29" x2="12.37" y2="26.29"/><line class="cls-6" x1="7.23" y1="25.01" x2="12.37" y2="25.01"/><line class="cls-6" x1="7.23" y1="23.73" x2="12.37" y2="23.73"/><line class="cls-6" x1="7.23" y1="22.45" x2="12.37" y2="22.45"/></g><g class="cls-5"><path d="M18,132.56l-.75.14v-.46l.91-.19h.4v3.06H18Z"/><path d="M20.67,135.15a1.29,1.29,0,0,1-.45-.07.79.79,0,0,1-.34-.24,1.53,1.53,0,0,1-.22-.48,3.46,3.46,0,0,1-.07-.78,3.31,3.31,0,0,1,.07-.77,1.5,1.5,0,0,1,.22-.49.71.71,0,0,1,.34-.24,1.29,1.29,0,0,1,.45-.07,1.23,1.23,0,0,1,.44.07.69.69,0,0,1,.35.24,1.31,1.31,0,0,1,.21.49,3.25,3.25,0,0,1,.08.77,3.4,3.4,0,0,1-.08.78,1.34,1.34,0,0,1-.21.48.76.76,0,0,1-.35.24A1.23,1.23,0,0,1,20.67,135.15Zm0-.48a.61.61,0,0,0,.24,0,.44.44,0,0,0,.16-.17,1.56,1.56,0,0,0,.1-.34,4.87,4.87,0,0,0,0-1.08,1.75,1.75,0,0,0-.1-.34.44.44,0,0,0-.16-.17.6.6,0,0,0-.24-.05.54.54,0,0,0-.24.05.38.38,0,0,0-.16.17,1.28,1.28,0,0,0-.09.34,4.87,4.87,0,0,0,0,1.08,1.18,1.18,0,0,0,.09.34.38.38,0,0,0,.16.17A.55.55,0,0,0,20.67,134.67Z"/><path d="M23.24,135.15a1.23,1.23,0,0,1-.44-.07.69.69,0,0,1-.34-.24,1.19,1.19,0,0,1-.22-.48,2.92,2.92,0,0,1-.08-.78,2.8,2.8,0,0,1,.08-.77,1.17,1.17,0,0,1,.22-.49.63.63,0,0,1,.34-.24,1.23,1.23,0,0,1,.44-.07,1.33,1.33,0,0,1,.45.07.71.71,0,0,1,.34.24,1.5,1.5,0,0,1,.22.49,3.31,3.31,0,0,1,.07.77,3.46,3.46,0,0,1-.07.78,1.53,1.53,0,0,1-.22.48.79.79,0,0,1-.34.24A1.33,1.33,0,0,1,23.24,135.15Zm0-.48a.61.61,0,0,0,.24,0,.38.38,0,0,0,.16-.17.91.91,0,0,0,.1-.34,4.88,4.88,0,0,0,0-1.08,1,1,0,0,0-.1-.34.38.38,0,0,0-.16-.17.6.6,0,0,0-.48,0,.44.44,0,0,0-.16.17,1.28,1.28,0,0,0-.09.34,4.87,4.87,0,0,0,0,1.08,1.18,1.18,0,0,0,.09.34.44.44,0,0,0,.16.17A.61.61,0,0,0,23.24,134.67Z"/><path d="M17,121.8c.29-.23.53-.42.72-.59a4.32,4.32,0,0,0,.43-.43,1.35,1.35,0,0,0,.23-.34.71.71,0,0,0,.06-.28.53.53,0,0,0,0-.23.44.44,0,0,0-.12-.15.48.48,0,0,0-.18-.07.86.86,0,0,0-.23,0,1.83,1.83,0,0,0-.32,0,1.59,1.59,0,0,0-.35.08v-.47l.36-.07a2.75,2.75,0,0,1,.41,0,1.25,1.25,0,0,1,.76.21.78.78,0,0,1,.28.65,1.36,1.36,0,0,1-.05.36,1,1,0,0,1-.18.35,2.24,2.24,0,0,1-.34.39q-.23.21-.57.48l-.19.15v0h1.42v.46H17Z"/><path d="M20.67,122.36a1.58,1.58,0,0,1-.45-.06.81.81,0,0,1-.34-.25,1.34,1.34,0,0,1-.22-.48,3.35,3.35,0,0,1-.07-.78,3.31,3.31,0,0,1,.07-.77,1.53,1.53,0,0,1,.22-.48.81.81,0,0,1,.34-.25,1.58,1.58,0,0,1,.45-.06,1.51,1.51,0,0,1,.44.06.78.78,0,0,1,.35.25,1.34,1.34,0,0,1,.21.48,3.79,3.79,0,0,1,0,1.55,1.19,1.19,0,0,1-.21.48.78.78,0,0,1-.35.25A1.51,1.51,0,0,1,20.67,122.36Zm0-.47a.6.6,0,0,0,.24,0,.38.38,0,0,0,.16-.17,1.45,1.45,0,0,0,.1-.33,4,4,0,0,0,0-.55,4.06,4.06,0,0,0,0-.54,1.45,1.45,0,0,0-.1-.33.38.38,0,0,0-.16-.17.6.6,0,0,0-.24,0,.54.54,0,0,0-.24,0,.33.33,0,0,0-.16.17,1.1,1.1,0,0,0-.09.33,4.06,4.06,0,0,0,0,.54,4,4,0,0,0,0,.55,1.1,1.1,0,0,0,.09.33.33.33,0,0,0,.16.17A.54.54,0,0,0,20.67,121.89Z"/><path d="M23.24,122.36a1.51,1.51,0,0,1-.44-.06.71.71,0,0,1-.34-.25,1.07,1.07,0,0,1-.22-.48,2.83,2.83,0,0,1-.08-.78,2.8,2.8,0,0,1,.08-.77,1.19,1.19,0,0,1,.22-.48.71.71,0,0,1,.34-.25,1.51,1.51,0,0,1,.44-.06,1.63,1.63,0,0,1,.45.06.81.81,0,0,1,.34.25,1.53,1.53,0,0,1,.22.48,3.31,3.31,0,0,1,.07.77,3.35,3.35,0,0,1-.07.78,1.34,1.34,0,0,1-.22.48.81.81,0,0,1-.34.25A1.63,1.63,0,0,1,23.24,122.36Zm0-.47a.6.6,0,0,0,.24,0,.33.33,0,0,0,.16-.17.86.86,0,0,0,.1-.33,4,4,0,0,0,0-.55,4.06,4.06,0,0,0,0-.54.86.86,0,0,0-.1-.33.33.33,0,0,0-.16-.17.6.6,0,0,0-.48,0,.38.38,0,0,0-.16.17,1.1,1.1,0,0,0-.09.33,4.06,4.06,0,0,0,0,.54,4,4,0,0,0,0,.55,1.1,1.1,0,0,0,.09.33.38.38,0,0,0,.16.17A.6.6,0,0,0,23.24,121.89Z"/><path d="M17.81,109.58h-.38l-.32,0v-.47l.33,0,.34,0,.28,0a.72.72,0,0,0,.22-.08.34.34,0,0,0,.15-.14.41.41,0,0,0,.06-.23.37.37,0,0,0-.21-.37,1.31,1.31,0,0,0-.58-.1h-.24v-.43h.23a1.16,1.16,0,0,0,.54-.1.37.37,0,0,0,.2-.35.35.35,0,0,0-.15-.32.91.91,0,0,0-.44-.08,1.62,1.62,0,0,0-.3,0l-.3.06v-.45l.29-.06a2.31,2.31,0,0,1,.37,0,2,2,0,0,1,.45,0,.94.94,0,0,1,.34.14.64.64,0,0,1,.21.25.89.89,0,0,1,.08.38.71.71,0,0,1-.13.43.82.82,0,0,1-.38.25v0a.67.67,0,0,1,.58.72C19.05,109.28,18.64,109.58,17.81,109.58Z"/><path d="M20.67,109.58a1.29,1.29,0,0,1-.45-.07.71.71,0,0,1-.34-.24,1.53,1.53,0,0,1-.22-.48,3.4,3.4,0,0,1-.07-.78,3.31,3.31,0,0,1,.07-.77,1.43,1.43,0,0,1,.22-.48.81.81,0,0,1,.34-.25,1.29,1.29,0,0,1,.45-.07,1.23,1.23,0,0,1,.44.07.78.78,0,0,1,.35.25,1.26,1.26,0,0,1,.21.48,3.25,3.25,0,0,1,.08.77,3.34,3.34,0,0,1-.08.78,1.34,1.34,0,0,1-.21.48.69.69,0,0,1-.35.24A1.23,1.23,0,0,1,20.67,109.58Zm0-.47a.6.6,0,0,0,.24,0,.38.38,0,0,0,.16-.17,1.45,1.45,0,0,0,.1-.33,4.22,4.22,0,0,0,0-.55,4,4,0,0,0,0-.54,1.45,1.45,0,0,0-.1-.33.33.33,0,0,0-.16-.17.47.47,0,0,0-.24,0,.43.43,0,0,0-.24,0,.3.3,0,0,0-.16.17,1.1,1.1,0,0,0-.09.33,4,4,0,0,0,0,.54,4.22,4.22,0,0,0,0,.55,1.1,1.1,0,0,0,.09.33.33.33,0,0,0,.16.17A.54.54,0,0,0,20.67,109.11Z"/><path d="M23.24,109.58a1.23,1.23,0,0,1-.44-.07.63.63,0,0,1-.34-.24,1.19,1.19,0,0,1-.22-.48,2.88,2.88,0,0,1-.08-.78,2.8,2.8,0,0,1,.08-.77,1.13,1.13,0,0,1,.22-.48.71.71,0,0,1,.34-.25,1.23,1.23,0,0,1,.44-.07,1.33,1.33,0,0,1,.45.07.81.81,0,0,1,.34.25,1.43,1.43,0,0,1,.22.48,3.31,3.31,0,0,1,.07.77,3.4,3.4,0,0,1-.07.78,1.53,1.53,0,0,1-.22.48.71.71,0,0,1-.34.24A1.33,1.33,0,0,1,23.24,109.58Zm0-.47a.6.6,0,0,0,.24,0,.33.33,0,0,0,.16-.17.86.86,0,0,0,.1-.33,4.22,4.22,0,0,0,0-.55,4,4,0,0,0,0-.54.86.86,0,0,0-.1-.33.3.3,0,0,0-.16-.17.6.6,0,0,0-.48,0,.33.33,0,0,0-.16.17,1.1,1.1,0,0,0-.09.33,4,4,0,0,0,0,.54,4.22,4.22,0,0,0,0,.55,1.1,1.1,0,0,0,.09.33.38.38,0,0,0,.16.17A.6.6,0,0,0,23.24,109.11Z"/><path d="M19.2,96.07h-.34v.69h-.54v-.69H16.94v-.56l1.27-1.81h.65v1.9h.34Zm-.88-.47V94.28h0l-.89,1.29v0Z"/><path d="M20.67,96.8a1.29,1.29,0,0,1-.45-.07.79.79,0,0,1-.34-.24,1.53,1.53,0,0,1-.22-.48,3.46,3.46,0,0,1-.07-.78,3.31,3.31,0,0,1,.07-.77,1.5,1.5,0,0,1,.22-.49.79.79,0,0,1,.34-.24,1.29,1.29,0,0,1,.45-.07,1.23,1.23,0,0,1,.44.07.76.76,0,0,1,.35.24,1.31,1.31,0,0,1,.21.49,3.25,3.25,0,0,1,.08.77,3.4,3.4,0,0,1-.08.78,1.34,1.34,0,0,1-.21.48.76.76,0,0,1-.35.24A1.23,1.23,0,0,1,20.67,96.8Zm0-.48a.61.61,0,0,0,.24,0,.44.44,0,0,0,.16-.17,1.56,1.56,0,0,0,.1-.34,4.88,4.88,0,0,0,0-1.08,1.75,1.75,0,0,0-.1-.34.44.44,0,0,0-.16-.17.6.6,0,0,0-.24-.05.54.54,0,0,0-.24.05.38.38,0,0,0-.16.17,1.28,1.28,0,0,0-.09.34,4.88,4.88,0,0,0,0,1.08,1.18,1.18,0,0,0,.09.34.38.38,0,0,0,.16.17A.55.55,0,0,0,20.67,96.32Z"/><path d="M23.24,96.8a1.23,1.23,0,0,1-.44-.07.69.69,0,0,1-.34-.24,1.19,1.19,0,0,1-.22-.48,2.92,2.92,0,0,1-.08-.78,2.8,2.8,0,0,1,.08-.77,1.17,1.17,0,0,1,.22-.49.69.69,0,0,1,.34-.24,1.23,1.23,0,0,1,.44-.07,1.33,1.33,0,0,1,.45.07A.79.79,0,0,1,24,94a1.5,1.5,0,0,1,.22.49,3.31,3.31,0,0,1,.07.77,3.46,3.46,0,0,1-.07.78,1.53,1.53,0,0,1-.22.48.79.79,0,0,1-.34.24A1.33,1.33,0,0,1,23.24,96.8Zm0-.48a.61.61,0,0,0,.24,0,.38.38,0,0,0,.16-.17.91.91,0,0,0,.1-.34,4.87,4.87,0,0,0,0-1.08,1,1,0,0,0-.1-.34.38.38,0,0,0-.16-.17.6.6,0,0,0-.48,0,.44.44,0,0,0-.16.17,1.28,1.28,0,0,0-.09.34,4.87,4.87,0,0,0,0,1.08,1.18,1.18,0,0,0,.09.34.44.44,0,0,0,.16.17A.61.61,0,0,0,23.24,96.32Z"/><path d="M17.83,84l-.35,0-.3,0v-.48l.3.06h.31l.3,0a.67.67,0,0,0,.24-.09.44.44,0,0,0,.16-.17.6.6,0,0,0,.05-.26.46.46,0,0,0-.18-.41,1,1,0,0,0-.57-.12l-.3,0-.32,0,.21-1.63h1.53v.47H17.82l-.1.7.15,0h.18a1.2,1.2,0,0,1,.79.23.88.88,0,0,1,.27.71.9.9,0,0,1-.34.77A1.61,1.61,0,0,1,17.83,84Z"/><path d="M20.67,84a1.57,1.57,0,0,1-.45-.07.81.81,0,0,1-.34-.25,1.34,1.34,0,0,1-.22-.48,3.35,3.35,0,0,1-.07-.78,3.31,3.31,0,0,1,.07-.77,1.53,1.53,0,0,1,.22-.48.81.81,0,0,1,.34-.25,1.58,1.58,0,0,1,.45-.06,1.51,1.51,0,0,1,.44.06.78.78,0,0,1,.35.25,1.34,1.34,0,0,1,.21.48,3.79,3.79,0,0,1,0,1.55,1.19,1.19,0,0,1-.21.48.78.78,0,0,1-.35.25A1.5,1.5,0,0,1,20.67,84Zm0-.48a.6.6,0,0,0,.24-.05.38.38,0,0,0,.16-.17,1.45,1.45,0,0,0,.1-.33,4,4,0,0,0,0-.55,4.16,4.16,0,0,0,0-.54,1.45,1.45,0,0,0-.1-.33.38.38,0,0,0-.16-.17.6.6,0,0,0-.24-.05.54.54,0,0,0-.24.05.33.33,0,0,0-.16.17,1.1,1.1,0,0,0-.09.33,4.16,4.16,0,0,0,0,.54,4,4,0,0,0,0,.55,1.1,1.1,0,0,0,.09.33.33.33,0,0,0,.16.17A.54.54,0,0,0,20.67,83.54Z"/><path d="M23.24,84A1.5,1.5,0,0,1,22.8,84a.71.71,0,0,1-.34-.25,1.07,1.07,0,0,1-.22-.48,2.83,2.83,0,0,1-.08-.78,2.8,2.8,0,0,1,.08-.77,1.19,1.19,0,0,1,.22-.48.71.71,0,0,1,.34-.25,1.51,1.51,0,0,1,.44-.06,1.63,1.63,0,0,1,.45.06.81.81,0,0,1,.34.25,1.53,1.53,0,0,1,.22.48,3.31,3.31,0,0,1,.07.77,3.35,3.35,0,0,1-.07.78,1.34,1.34,0,0,1-.22.48.81.81,0,0,1-.34.25A1.63,1.63,0,0,1,23.24,84Zm0-.48a.6.6,0,0,0,.24-.05.33.33,0,0,0,.16-.17.86.86,0,0,0,.1-.33,4,4,0,0,0,0-.55,4.16,4.16,0,0,0,0-.54.86.86,0,0,0-.1-.33.33.33,0,0,0-.16-.17.6.6,0,0,0-.48,0,.38.38,0,0,0-.16.17,1.1,1.1,0,0,0-.09.33,4.16,4.16,0,0,0,0,.54,4,4,0,0,0,0,.55,1.1,1.1,0,0,0,.09.33.38.38,0,0,0,.16.17A.6.6,0,0,0,23.24,83.54Z"/><path d="M18.1,71.23a1.42,1.42,0,0,1-.42-.06.79.79,0,0,1-.34-.2,1.11,1.11,0,0,1-.23-.37A2,2,0,0,1,17,70a2.8,2.8,0,0,1,.1-.79,1.67,1.67,0,0,1,.31-.61,1.32,1.32,0,0,1,.54-.38,2,2,0,0,1,.78-.14v.48a1.29,1.29,0,0,0-.82.23.88.88,0,0,0-.34.62h0a.71.71,0,0,1,.26-.15,1,1,0,0,1,.35-.06.93.93,0,0,1,.68.25,1,1,0,0,1,.25.73,1.32,1.32,0,0,1-.07.42.78.78,0,0,1-.19.33.91.91,0,0,1-.33.22A1.33,1.33,0,0,1,18.1,71.23Zm0-.44a.54.54,0,0,0,.41-.15.65.65,0,0,0,.14-.45.53.53,0,0,0-.14-.42.46.46,0,0,0-.37-.14.59.59,0,0,0-.44.14.55.55,0,0,0-.13.38.74.74,0,0,0,.13.48A.51.51,0,0,0,18.09,70.79Z"/><path d="M20.67,71.23a1.29,1.29,0,0,1-.45-.07.71.71,0,0,1-.34-.24,1.53,1.53,0,0,1-.22-.48,3.4,3.4,0,0,1-.07-.78,3.31,3.31,0,0,1,.07-.77,1.53,1.53,0,0,1,.22-.48.81.81,0,0,1,.34-.25,1.57,1.57,0,0,1,.45-.07,1.5,1.5,0,0,1,.44.07.78.78,0,0,1,.35.25,1.34,1.34,0,0,1,.21.48,3.25,3.25,0,0,1,.08.77,3.34,3.34,0,0,1-.08.78,1.34,1.34,0,0,1-.21.48.69.69,0,0,1-.35.24A1.23,1.23,0,0,1,20.67,71.23Zm0-.47a.6.6,0,0,0,.24-.05.38.38,0,0,0,.16-.17,1.45,1.45,0,0,0,.1-.33,4.22,4.22,0,0,0,0-.55,4,4,0,0,0,0-.54,1.45,1.45,0,0,0-.1-.33.38.38,0,0,0-.16-.17.47.47,0,0,0-.24-.05.43.43,0,0,0-.24.05.33.33,0,0,0-.16.17,1.1,1.1,0,0,0-.09.33,4,4,0,0,0,0,.54,4.22,4.22,0,0,0,0,.55,1.1,1.1,0,0,0,.09.33.33.33,0,0,0,.16.17A.54.54,0,0,0,20.67,70.76Z"/><path d="M23.24,71.23a1.23,1.23,0,0,1-.44-.07.63.63,0,0,1-.34-.24,1.19,1.19,0,0,1-.22-.48,2.88,2.88,0,0,1-.08-.78,2.8,2.8,0,0,1,.08-.77,1.19,1.19,0,0,1,.22-.48.71.71,0,0,1,.34-.25,1.5,1.5,0,0,1,.44-.07,1.63,1.63,0,0,1,.45.07.81.81,0,0,1,.34.25,1.53,1.53,0,0,1,.22.48,3.31,3.31,0,0,1,.07.77,3.4,3.4,0,0,1-.07.78,1.53,1.53,0,0,1-.22.48.71.71,0,0,1-.34.24A1.33,1.33,0,0,1,23.24,71.23Zm0-.47a.6.6,0,0,0,.24-.05.33.33,0,0,0,.16-.17.86.86,0,0,0,.1-.33,4.22,4.22,0,0,0,0-.55,4,4,0,0,0,0-.54.86.86,0,0,0-.1-.33.33.33,0,0,0-.16-.17.6.6,0,0,0-.48,0,.38.38,0,0,0-.16.17,1.1,1.1,0,0,0-.09.33,4,4,0,0,0,0,.54,4.22,4.22,0,0,0,0,.55,1.1,1.1,0,0,0,.09.33.38.38,0,0,0,.16.17A.6.6,0,0,0,23.24,70.76Z"/><path d="M18.58,55.67H17.05v-.48h2v.54l-1.15,2.52h-.58Z"/><path d="M20.67,58.29a1.29,1.29,0,0,1-.45-.07.71.71,0,0,1-.34-.24,1.53,1.53,0,0,1-.22-.48,3.46,3.46,0,0,1-.07-.78,3.31,3.31,0,0,1,.07-.77,1.5,1.5,0,0,1,.22-.49.79.79,0,0,1,.34-.24,1.29,1.29,0,0,1,.45-.07,1.23,1.23,0,0,1,.44.07.76.76,0,0,1,.35.24,1.31,1.31,0,0,1,.21.49,3.25,3.25,0,0,1,.08.77,3.4,3.4,0,0,1-.08.78,1.34,1.34,0,0,1-.21.48.69.69,0,0,1-.35.24A1.23,1.23,0,0,1,20.67,58.29Zm0-.47a.6.6,0,0,0,.24,0,.44.44,0,0,0,.16-.17,1.41,1.41,0,0,0,.1-.34,4.87,4.87,0,0,0,0-1.08,1.45,1.45,0,0,0-.1-.33.41.41,0,0,0-.16-.18.61.61,0,0,0-.24,0,.55.55,0,0,0-.24,0,.36.36,0,0,0-.16.18,1.1,1.1,0,0,0-.09.33,4.88,4.88,0,0,0,0,1.08,1.09,1.09,0,0,0,.09.34.38.38,0,0,0,.16.17A.54.54,0,0,0,20.67,57.82Z"/><path d="M23.24,58.29a1.23,1.23,0,0,1-.44-.07.63.63,0,0,1-.34-.24,1.19,1.19,0,0,1-.22-.48,2.92,2.92,0,0,1-.08-.78,2.8,2.8,0,0,1,.08-.77,1.17,1.17,0,0,1,.22-.49.69.69,0,0,1,.34-.24,1.23,1.23,0,0,1,.44-.07,1.33,1.33,0,0,1,.45.07.79.79,0,0,1,.34.24,1.5,1.5,0,0,1,.22.49,3.31,3.31,0,0,1,.07.77,3.46,3.46,0,0,1-.07.78A1.53,1.53,0,0,1,24,58a.71.71,0,0,1-.34.24A1.33,1.33,0,0,1,23.24,58.29Zm0-.47a.6.6,0,0,0,.24,0,.38.38,0,0,0,.16-.17.86.86,0,0,0,.1-.34,4.87,4.87,0,0,0,0-1.08.86.86,0,0,0-.1-.33.36.36,0,0,0-.16-.18.74.74,0,0,0-.48,0,.41.41,0,0,0-.16.18,1.1,1.1,0,0,0-.09.33,4.87,4.87,0,0,0,0,1.08,1.09,1.09,0,0,0,.09.34.44.44,0,0,0,.16.17A.6.6,0,0,0,23.24,57.82Z"/><path d="M18.1,45.51a1.35,1.35,0,0,1-.81-.21.74.74,0,0,1-.28-.64,1,1,0,0,1,0-.31.78.78,0,0,1,.12-.22.46.46,0,0,1,.17-.14l.18-.1h0l-.17-.11a.58.58,0,0,1-.13-.14.56.56,0,0,1-.09-.19,1,1,0,0,1,0-.26.76.76,0,0,1,.25-.6,1.37,1.37,0,0,1,1.49,0,.76.76,0,0,1,.25.6.83.83,0,0,1-.11.45.85.85,0,0,1-.33.25h0l.21.1a.55.55,0,0,1,.17.14,1.13,1.13,0,0,1,.11.22,1,1,0,0,1,.05.31.74.74,0,0,1-.29.64A1.33,1.33,0,0,1,18.1,45.51Zm0-.44a.63.63,0,0,0,.43-.12.4.4,0,0,0,.14-.34.46.46,0,0,0-.15-.38.64.64,0,0,0-.42-.13.67.67,0,0,0-.43.13.46.46,0,0,0-.15.38.43.43,0,0,0,.14.34A.64.64,0,0,0,18.1,45.07Zm0-1.38a.46.46,0,0,0,.38-.14.44.44,0,0,0,.12-.32.38.38,0,0,0-.13-.32.51.51,0,0,0-.37-.12c-.34,0-.51.15-.51.44a.48.48,0,0,0,.11.32A.51.51,0,0,0,18.1,43.69Z"/><path d="M20.67,45.51a1.57,1.57,0,0,1-.45-.07.81.81,0,0,1-.34-.25,1.34,1.34,0,0,1-.22-.48,3.31,3.31,0,0,1-.07-.77,3.4,3.4,0,0,1,.07-.78,1.53,1.53,0,0,1,.22-.48.71.71,0,0,1,.34-.24,1.29,1.29,0,0,1,.45-.07,1.23,1.23,0,0,1,.44.07.69.69,0,0,1,.35.24,1.34,1.34,0,0,1,.21.48,3.34,3.34,0,0,1,.08.78,3.25,3.25,0,0,1-.08.77,1.19,1.19,0,0,1-.21.48.78.78,0,0,1-.35.25A1.5,1.5,0,0,1,20.67,45.51Zm0-.48a.47.47,0,0,0,.24-.05.33.33,0,0,0,.16-.17,1.45,1.45,0,0,0,.1-.33,4.87,4.87,0,0,0,0-1.08,1.56,1.56,0,0,0-.1-.34.38.38,0,0,0-.16-.17.6.6,0,0,0-.24,0,.54.54,0,0,0-.24,0,.33.33,0,0,0-.16.17,1.18,1.18,0,0,0-.09.34,4.88,4.88,0,0,0,0,1.08,1.1,1.1,0,0,0,.09.33.3.3,0,0,0,.16.17A.43.43,0,0,0,20.67,45Z"/><path d="M23.24,45.51a1.5,1.5,0,0,1-.44-.07.71.71,0,0,1-.34-.25,1.07,1.07,0,0,1-.22-.48,2.8,2.8,0,0,1-.08-.77,2.88,2.88,0,0,1,.08-.78,1.19,1.19,0,0,1,.22-.48.63.63,0,0,1,.34-.24,1.23,1.23,0,0,1,.44-.07,1.33,1.33,0,0,1,.45.07.71.71,0,0,1,.34.24,1.53,1.53,0,0,1,.22.48,3.4,3.4,0,0,1,.07.78,3.31,3.31,0,0,1-.07.77,1.34,1.34,0,0,1-.22.48.81.81,0,0,1-.34.25A1.63,1.63,0,0,1,23.24,45.51Zm0-.48a.47.47,0,0,0,.24-.05.3.3,0,0,0,.16-.17.86.86,0,0,0,.1-.33,4.87,4.87,0,0,0,0-1.08.91.91,0,0,0-.1-.34.33.33,0,0,0-.16-.17.6.6,0,0,0-.48,0,.38.38,0,0,0-.16.17,1.18,1.18,0,0,0-.09.34,4.87,4.87,0,0,0,0,1.08,1.1,1.1,0,0,0,.09.33A.33.33,0,0,0,23,45,.47.47,0,0,0,23.24,45Z"/><path d="M17.43,32.25a1.4,1.4,0,0,0,.82-.21.81.81,0,0,0,.34-.62h0a.89.89,0,0,1-.24.14,1,1,0,0,1-.35.06,1,1,0,0,1-.71-.24,1,1,0,0,1-.25-.73,1.42,1.42,0,0,1,.06-.42.86.86,0,0,1,.19-.34,1,1,0,0,1,.33-.23,1.32,1.32,0,0,1,.47-.08,1.16,1.16,0,0,1,.42.07.83.83,0,0,1,.34.2.94.94,0,0,1,.23.39,2,2,0,0,1,.08.6,3.26,3.26,0,0,1-.09.8,1.55,1.55,0,0,1-.29.59,1.3,1.3,0,0,1-.54.37,2.06,2.06,0,0,1-.8.13Zm.63-1a.56.56,0,0,0,.44-.14.6.6,0,0,0,.13-.38.74.74,0,0,0-.14-.48.46.46,0,0,0-.4-.18.5.5,0,0,0-.41.16.67.67,0,0,0-.14.46.57.57,0,0,0,.14.42A.5.5,0,0,0,18.06,31.21Z"/><path d="M20.67,32.72a1.29,1.29,0,0,1-.45-.07.71.71,0,0,1-.34-.24,1.53,1.53,0,0,1-.22-.48,3.35,3.35,0,0,1-.07-.78,3.31,3.31,0,0,1,.07-.77,1.53,1.53,0,0,1,.22-.48.81.81,0,0,1,.34-.25,1.57,1.57,0,0,1,.45-.07,1.5,1.5,0,0,1,.44.07.78.78,0,0,1,.35.25,1.34,1.34,0,0,1,.21.48,3.79,3.79,0,0,1,0,1.55,1.34,1.34,0,0,1-.21.48.69.69,0,0,1-.35.24A1.23,1.23,0,0,1,20.67,32.72Zm0-.47a.6.6,0,0,0,.24,0,.38.38,0,0,0,.16-.17,1.45,1.45,0,0,0,.1-.33,4.22,4.22,0,0,0,0-.55,4,4,0,0,0,0-.54,1.45,1.45,0,0,0-.1-.33.38.38,0,0,0-.16-.17.47.47,0,0,0-.24-.05.43.43,0,0,0-.24.05.33.33,0,0,0-.16.17,1.1,1.1,0,0,0-.09.33,4,4,0,0,0,0,.54,4.22,4.22,0,0,0,0,.55,1.1,1.1,0,0,0,.09.33.33.33,0,0,0,.16.17A.54.54,0,0,0,20.67,32.25Z"/><path d="M23.24,32.72a1.23,1.23,0,0,1-.44-.07.63.63,0,0,1-.34-.24,1.19,1.19,0,0,1-.22-.48,2.83,2.83,0,0,1-.08-.78,2.8,2.8,0,0,1,.08-.77,1.19,1.19,0,0,1,.22-.48.71.71,0,0,1,.34-.25,1.5,1.5,0,0,1,.44-.07,1.63,1.63,0,0,1,.45.07.81.81,0,0,1,.34.25,1.53,1.53,0,0,1,.22.48,3.31,3.31,0,0,1,.07.77,3.35,3.35,0,0,1-.07.78,1.53,1.53,0,0,1-.22.48.71.71,0,0,1-.34.24A1.33,1.33,0,0,1,23.24,32.72Zm0-.47a.6.6,0,0,0,.24,0,.33.33,0,0,0,.16-.17.86.86,0,0,0,.1-.33,4.22,4.22,0,0,0,0-.55,4,4,0,0,0,0-.54.86.86,0,0,0-.1-.33.33.33,0,0,0-.16-.17.6.6,0,0,0-.48,0,.38.38,0,0,0-.16.17,1.1,1.1,0,0,0-.09.33,4,4,0,0,0,0,.54,4.22,4.22,0,0,0,0,.55,1.1,1.1,0,0,0,.09.33.38.38,0,0,0,.16.17A.6.6,0,0,0,23.24,32.25Z"/><path d="M18,17.15l-.75.15v-.47l.91-.18h.4V19.7H18Z"/><path d="M20.67,19.74a1.58,1.58,0,0,1-.45-.06.81.81,0,0,1-.34-.25,1.43,1.43,0,0,1-.22-.48,3.35,3.35,0,0,1-.07-.78,3.31,3.31,0,0,1,.07-.77,1.53,1.53,0,0,1,.22-.48.81.81,0,0,1,.34-.25,1.57,1.57,0,0,1,.45-.07,1.5,1.5,0,0,1,.44.07.78.78,0,0,1,.35.25,1.34,1.34,0,0,1,.21.48,3.79,3.79,0,0,1,0,1.55,1.26,1.26,0,0,1-.21.48.78.78,0,0,1-.35.25A1.51,1.51,0,0,1,20.67,19.74Zm0-.47a.6.6,0,0,0,.24-.05.38.38,0,0,0,.16-.17,1.45,1.45,0,0,0,.1-.33,4.11,4.11,0,0,0,0-.55,4,4,0,0,0,0-.54,1.45,1.45,0,0,0-.1-.33.38.38,0,0,0-.16-.17.6.6,0,0,0-.24-.05.54.54,0,0,0-.24.05.33.33,0,0,0-.16.17,1.1,1.1,0,0,0-.09.33,4,4,0,0,0,0,.54,4.11,4.11,0,0,0,0,.55,1.1,1.1,0,0,0,.09.33.33.33,0,0,0,.16.17A.54.54,0,0,0,20.67,19.27Z"/><path d="M23.24,19.74a1.51,1.51,0,0,1-.44-.06.71.71,0,0,1-.34-.25,1.13,1.13,0,0,1-.22-.48,2.83,2.83,0,0,1-.08-.78,2.8,2.8,0,0,1,.08-.77,1.19,1.19,0,0,1,.22-.48.71.71,0,0,1,.34-.25,1.5,1.5,0,0,1,.44-.07,1.63,1.63,0,0,1,.45.07.81.81,0,0,1,.34.25,1.53,1.53,0,0,1,.22.48,3.31,3.31,0,0,1,.07.77,3.35,3.35,0,0,1-.07.78,1.43,1.43,0,0,1-.22.48.81.81,0,0,1-.34.25A1.63,1.63,0,0,1,23.24,19.74Zm0-.47a.6.6,0,0,0,.24-.05.33.33,0,0,0,.16-.17.86.86,0,0,0,.1-.33,4.11,4.11,0,0,0,0-.55,4,4,0,0,0,0-.54.86.86,0,0,0-.1-.33.33.33,0,0,0-.16-.17.6.6,0,0,0-.48,0,.38.38,0,0,0-.16.17,1.1,1.1,0,0,0-.09.33,4,4,0,0,0,0,.54,4.11,4.11,0,0,0,0,.55,1.1,1.1,0,0,0,.09.33.38.38,0,0,0,.16.17A.6.6,0,0,0,23.24,19.27Z"/><path d="M25.81,19.74a1.51,1.51,0,0,1-.44-.06.76.76,0,0,1-.34-.25,1.13,1.13,0,0,1-.22-.48,3.79,3.79,0,0,1,0-1.55,1.19,1.19,0,0,1,.22-.48.76.76,0,0,1,.34-.25,1.5,1.5,0,0,1,.44-.07,1.52,1.52,0,0,1,.45.07.76.76,0,0,1,.34.25,1.34,1.34,0,0,1,.22.48,3.79,3.79,0,0,1,0,1.55,1.26,1.26,0,0,1-.22.48.76.76,0,0,1-.34.25A1.53,1.53,0,0,1,25.81,19.74Zm0-.47a.54.54,0,0,0,.24-.05.4.4,0,0,0,.17-.17,1.1,1.1,0,0,0,.09-.33,4.11,4.11,0,0,0,0-.55,4,4,0,0,0,0-.54,1.1,1.1,0,0,0-.09-.33.4.4,0,0,0-.17-.17.54.54,0,0,0-.24-.05.6.6,0,0,0-.24.05.38.38,0,0,0-.16.17,1.1,1.1,0,0,0-.09.33,4,4,0,0,0,0,.54,4.11,4.11,0,0,0,0,.55,1.1,1.1,0,0,0,.09.33.38.38,0,0,0,.16.17A.6.6,0,0,0,25.81,19.27Z"/></g></g></g></g></svg>