<svg xmlns="http://www.w3.org/2000/svg" xmlns:xlink="http://www.w3.org/1999/xlink" viewBox="0 0 28.7 150"><defs><style>.cls-1{fill:url(#未命名的渐变_60);}.cls-2{fill:url(#未命名的渐变_60-2);}.cls-3{fill:url(#未命名的渐变_60-3);}.cls-4{fill:url(#未命名的渐变_60-4);}.cls-5{fill:url(#未命名的渐变_60-5);}.cls-6{fill:url(#未命名的渐变_60-6);}.cls-7{fill:url(#未命名的渐变_60-7);}.cls-8{fill:url(#未命名的渐变_60-8);}.cls-9{fill:url(#未命名的渐变_397);}.cls-10{opacity:0.2;fill:url(#未命名的渐变_376);}.cls-11{opacity:0.3;}.cls-12{fill:url(#未命名的渐变_397-2);}.cls-13{fill:url(#未命名的渐变_397-3);}.cls-14{opacity:0.4;fill:url(#未命名的渐变_108);}</style><linearGradient id="未命名的渐变_60" x1="1035.65" y1="-42.93" x2="1036.58" y2="-42.93" gradientTransform="matrix(0.63, 0, 0, 0.51, -621.65, 26)" gradientUnits="userSpaceOnUse"><stop offset="0" stop-color="#a9b1bb"/><stop offset="0.06" stop-color="#5d6166"/><stop offset="0.78" stop-color="#eef7ff"/><stop offset="0.93" stop-color="#9ba1ab"/><stop offset="1" stop-color="#767b82"/></linearGradient><linearGradient id="未命名的渐变_60-2" x1="990.84" y1="-42.94" x2="991.77" y2="-42.94" xlink:href="#未命名的渐变_60"/><linearGradient id="未命名的渐变_60-3" x1="1000.42" y1="-42.94" x2="1001.35" y2="-42.94" xlink:href="#未命名的渐变_60"/><linearGradient id="未命名的渐变_60-4" x1="1010.24" y1="-42.94" x2="1011.16" y2="-42.94" xlink:href="#未命名的渐变_60"/><linearGradient id="未命名的渐变_60-5" x1="1020.05" y1="-42.93" x2="1020.98" y2="-42.93" xlink:href="#未命名的渐变_60"/><linearGradient id="未命名的渐变_60-6" x1="1028.37" y1="-42.93" x2="1029.3" y2="-42.93" xlink:href="#未命名的渐变_60"/><linearGradient id="未命名的渐变_60-7" x1="-187.11" y1="-318.28" x2="-186.19" y2="-318.28" gradientTransform="matrix(0.63, 0, 0, 0.93, 131.41, 300.63)" xlink:href="#未命名的渐变_60"/><linearGradient id="未命名的渐变_60-8" x1="-185.09" y1="-318.28" x2="-184.17" y2="-318.28" gradientTransform="matrix(0.63, 0, 0, 0.93, 130.18, 297.31)" xlink:href="#未命名的渐变_60"/><linearGradient id="未命名的渐变_397" x1="102.7" y1="-666.69" x2="74" y2="-666.69" gradientTransform="matrix(1, 0, 0, -1, -74, -582.38)" gradientUnits="userSpaceOnUse"><stop offset="0" stop-color="#767b82"/><stop offset="0.07" stop-color="#9ba1ab"/><stop offset="0.22" stop-color="#e2eaf2"/><stop offset="0.28" stop-color="#d1d8e0"/><stop offset="0.49" stop-color="#a1a7ae"/><stop offset="0.67" stop-color="#7e8489"/><stop offset="0.81" stop-color="#696e73"/><stop offset="0.91" stop-color="#61666b"/><stop offset="1" stop-color="#a9b1bb"/></linearGradient><linearGradient id="未命名的渐变_376" x1="14.35" y1="18.63" x2="14.35" y2="38.91" gradientUnits="userSpaceOnUse"><stop offset="0" stop-color="#2e3033"/><stop offset="1" stop-color="#9ba1ab" stop-opacity="0"/></linearGradient><linearGradient id="未命名的渐变_397-2" x1="28.7" y1="16.12" x2="0" y2="16.12" gradientTransform="matrix(1, 0, 0, 1, 0, 0)" xlink:href="#未命名的渐变_397"/><linearGradient id="未命名的渐变_397-3" x1="28.7" y1="11.05" x2="0" y2="11.05" gradientTransform="matrix(1, 0, 0, -1, 0, 22.14)" xlink:href="#未命名的渐变_397"/><linearGradient id="未命名的渐变_108" x1="14.35" y1="8.54" x2="14.35" y2="13.57" gradientTransform="matrix(1, 0, 0, -1, 0, 22.14)" xlink:href="#未命名的渐变_376"/></defs><title>Chemical processing tower(化学处理塔)</title><g id="图层_2" data-name="图层 2"><g id="图层_16" data-name="图层 16"><g id="Chemical_processing_tower_化学处理塔_" data-name="Chemical processing tower(化学处理塔)"><path class="cls-1" d="M28.41,0h0a.29.29,0,0,1,.29.29V8.57a0,0,0,0,1,0,0h-.58a0,0,0,0,1,0,0V.29A.29.29,0,0,1,28.41,0Z"/><path class="cls-2" d="M.29,0h0A.29.29,0,0,1,.58.29V8.57a0,0,0,0,1,0,0H0a0,0,0,0,1,0,0V.29A.29.29,0,0,1,.29,0Z"/><path class="cls-3" d="M6.24,0h.13a.23.23,0,0,1,.23.23V8.57a0,0,0,0,1,0,0H6a0,0,0,0,1,0,0V.23A.23.23,0,0,1,6.24,0Z"/><path class="cls-4" d="M12.4,0h.13a.23.23,0,0,1,.23.23V8.57a0,0,0,0,1,0,0h-.58a0,0,0,0,1,0,0V.23A.23.23,0,0,1,12.4,0Z"/><path class="cls-5" d="M18.56,0h.13a.23.23,0,0,1,.23.23V8.57a0,0,0,0,1,0,0h-.58a0,0,0,0,1,0,0V.23A.23.23,0,0,1,18.56,0Z"/><path class="cls-6" d="M23.78,0h.13a.23.23,0,0,1,.23.23V8.57a0,0,0,0,1,0,0h-.58a0,0,0,0,1,0,0V.23A.23.23,0,0,1,23.78,0Z"/><rect class="cls-7" x="14.06" y="-10.73" width="0.58" height="28.7" rx="0.29" transform="translate(10.73 17.97) rotate(-90)"/><rect class="cls-8" x="14.06" y="-14.06" width="0.58" height="28.7" rx="0.29" transform="translate(14.06 14.64) rotate(-90)"/><rect class="cls-9" y="18.63" width="28.7" height="131.37"/><rect class="cls-10" y="18.63" width="28.7" height="20.28"/><rect class="cls-11" y="53.84" width="28.7" height="0.51"/><rect class="cls-11" y="91.18" width="28.7" height="0.51"/><rect class="cls-11" y="133.29" width="28.7" height="16.71"/><polygon class="cls-12" points="25.62 13.6 3.08 13.6 0 18.63 28.7 18.63 25.62 13.6"/><polygon class="cls-13" points="25.62 13.6 3.08 13.6 0 8.57 28.7 8.57 25.62 13.6"/><polygon class="cls-14" points="25.62 13.6 3.08 13.6 0 8.57 28.7 8.57 25.62 13.6"/></g></g></g></svg>