<svg xmlns="http://www.w3.org/2000/svg" xmlns:xlink="http://www.w3.org/1999/xlink" viewBox="0 0 23.11 150"><defs><style>.cls-1{fill:url(#未命名的渐变_397);}.cls-2{fill:url(#未命名的渐变_19);}.cls-3{fill:url(#未命名的渐变_9);}.cls-4,.cls-7,.cls-8,.cls-9{opacity:0.2;}.cls-4{fill:url(#未命名的渐变_376);}.cls-5{fill:url(#未命名的渐变_397-2);}.cls-6{fill:url(#未命名的渐变_9-2);}.cls-7{fill:url(#未命名的渐变_376-2);}.cls-8{fill:url(#未命名的渐变_376-3);}.cls-9{fill:url(#未命名的渐变_376-4);}.cls-10{fill:url(#未命名的渐变_30);}.cls-11{fill:url(#未命名的渐变_32);}</style><linearGradient id="未命名的渐变_397" x1="94.75" y1="144.14" x2="76.36" y2="144.14" gradientTransform="translate(-74 -76)" gradientUnits="userSpaceOnUse"><stop offset="0" stop-color="#767b82"/><stop offset="0.07" stop-color="#9ba1ab"/><stop offset="0.22" stop-color="#e2eaf2"/><stop offset="0.28" stop-color="#d1d8e0"/><stop offset="0.49" stop-color="#a1a7ae"/><stop offset="0.67" stop-color="#7e8489"/><stop offset="0.81" stop-color="#696e73"/><stop offset="0.91" stop-color="#61666b"/><stop offset="1" stop-color="#a9b1bb"/></linearGradient><linearGradient id="未命名的渐变_19" x1="92.93" y1="194.53" x2="78.23" y2="194.53" gradientTransform="matrix(1, 0, 0, -1, -74, 217.62)" gradientUnits="userSpaceOnUse"><stop offset="0" stop-color="#767b82"/><stop offset="0.07" stop-color="#9ba1ab"/><stop offset="0.25" stop-color="#e2eaf2"/><stop offset="0.31" stop-color="#d1d8e0"/><stop offset="0.51" stop-color="#a1a7ae"/><stop offset="0.68" stop-color="#7e8489"/><stop offset="0.82" stop-color="#696e73"/><stop offset="0.91" stop-color="#61666b"/><stop offset="1" stop-color="#a9b1bb"/></linearGradient><linearGradient id="未命名的渐变_9" x1="3.05" y1="96.18" x2="19.29" y2="102.09" gradientTransform="matrix(1, 0, 0, -1, 0, 141.62)" gradientUnits="userSpaceOnUse"><stop offset="0" stop-color="#a9b1bb"/><stop offset="0.09" stop-color="#61666b"/><stop offset="0.19" stop-color="#696e73"/><stop offset="0.33" stop-color="#7e8489"/><stop offset="0.51" stop-color="#a1a7ae"/><stop offset="0.72" stop-color="#d1d8e0"/><stop offset="0.78" stop-color="#e2eaf2"/><stop offset="0.93" stop-color="#9ba1ab"/><stop offset="1" stop-color="#767b82"/></linearGradient><linearGradient id="未命名的渐变_376" x1="11.55" y1="43.56" x2="11.55" y2="51.31" gradientUnits="userSpaceOnUse"><stop offset="0" stop-color="#2e3033"/><stop offset="1" stop-color="#9ba1ab" stop-opacity="0"/></linearGradient><linearGradient id="未命名的渐变_397-2" x1="97.07" y1="196.44" x2="74.03" y2="196.44" xlink:href="#未命名的渐变_397"/><linearGradient id="未命名的渐变_9-2" x1="1.02" y1="43.05" x2="21.37" y2="50.46" xlink:href="#未命名的渐变_9"/><linearGradient id="未命名的渐变_376-2" x1="11.55" y1="95.86" x2="11.55" y2="103.61" xlink:href="#未命名的渐变_376"/><linearGradient id="未命名的渐变_376-3" x1="11.55" y1="62.86" x2="11.55" y2="70.61" gradientTransform="matrix(1, 0, 0, -1, 0, 207.93)" xlink:href="#未命名的渐变_376"/><linearGradient id="未命名的渐变_376-4" x1="11.58" y1="5.72" x2="11.58" y2="13.47" xlink:href="#未命名的渐变_376"/><linearGradient id="未命名的渐变_30" x1="15.67" y1="0.79" x2="7.49" y2="8.97" gradientUnits="userSpaceOnUse"><stop offset="0" stop-color="#767b82"/><stop offset="0.07" stop-color="#9ba1ab"/><stop offset="0.26" stop-color="#e2eaf2"/><stop offset="0.32" stop-color="#d1d8e0"/><stop offset="0.51" stop-color="#a1a7ae"/><stop offset="0.68" stop-color="#7e8489"/><stop offset="0.82" stop-color="#696e73"/><stop offset="0.91" stop-color="#61666b"/><stop offset="1" stop-color="#a9b1bb"/></linearGradient><linearGradient id="未命名的渐变_32" x1="17.45" y1="94.99" x2="5.66" y2="106.78" gradientTransform="matrix(1, 0, 0, -1, 0, 246.23)" gradientUnits="userSpaceOnUse"><stop offset="0" stop-color="#767b82"/><stop offset="0.07" stop-color="#9ba1ab"/><stop offset="0.22" stop-color="#e2eaf2"/><stop offset="0.29" stop-color="#d1d8e0"/><stop offset="0.49" stop-color="#a1a7ae"/><stop offset="0.67" stop-color="#7e8489"/><stop offset="0.81" stop-color="#696e73"/><stop offset="0.91" stop-color="#61666b"/><stop offset="1" stop-color="#a9b1bb"/></linearGradient></defs><title>Diegster3(沼气池3)</title><g id="图层_2" data-name="图层 2"><g id="图层_16" data-name="图层 16"><g id="Diegster3_沼气池3_" data-name="Diegster3(沼气池3)"><polyline class="cls-1" points="20.75 43.51 20.75 92.77 2.36 92.77 2.36 43.51"/><polyline class="cls-2" points="18.93 40.46 18.93 5.72 4.23 5.72 4.23 40.46"/><polygon class="cls-3" points="18.93 40.46 4.23 40.46 2.36 43.56 20.75 43.56 18.93 40.46"/><rect class="cls-4" x="2.33" y="43.56" width="18.44" height="7.75"/><polyline class="cls-5" points="23.07 95.82 23.07 145.07 0.03 145.07 0.03 95.82"/><polygon class="cls-6" points="20.79 92.77 2.38 92.77 0.03 95.86 23.07 95.86 20.79 92.77"/><rect class="cls-7" y="95.86" width="23.11" height="7.75"/><rect class="cls-8" y="137.32" width="23.11" height="7.75"/><rect class="cls-9" x="4.23" y="5.72" width="14.7" height="7.75"/><path class="cls-10" d="M18.93,5.72A7.22,7.22,0,0,0,11.58,0,7.21,7.21,0,0,0,4.23,5.72Z"/><path class="cls-11" d="M23.07,145.07S21.47,150,11.55,150,0,145.07,0,145.07Z"/></g></g></g></svg>