<svg xmlns="http://www.w3.org/2000/svg" xmlns:xlink="http://www.w3.org/1999/xlink" viewBox="0 0 32 150"><defs><style>.cls-1{opacity:0.5;}.cls-2,.cls-3,.cls-4,.cls-48,.cls-49,.cls-5,.cls-50,.cls-51,.cls-52,.cls-53,.cls-54,.cls-55,.cls-6,.cls-7,.cls-8,.cls-9{fill:none;stroke-linecap:round;stroke-miterlimit:10;stroke-width:0.25px;}.cls-2{stroke:url(#未命名的渐变_397);}.cls-3{stroke:url(#未命名的渐变_397-2);}.cls-4{stroke:url(#未命名的渐变_397-3);}.cls-5{stroke:url(#未命名的渐变_397-4);}.cls-6{stroke:url(#未命名的渐变_397-5);}.cls-7{stroke:url(#未命名的渐变_397-6);}.cls-8{stroke:url(#未命名的渐变_397-7);}.cls-9{stroke:url(#未命名的渐变_397-8);}.cls-10{fill:url(#未命名的渐变_397-9);}.cls-11{fill:url(#未命名的渐变_397-10);}.cls-12,.cls-41,.cls-42,.cls-43,.cls-44{opacity:0.4;}.cls-12{fill:url(#未命名的渐变_376);}.cls-13{fill:url(#未命名的渐变_62);}.cls-14{fill:url(#未命名的渐变_62-2);}.cls-15{fill:url(#未命名的渐变_62-3);}.cls-16{fill:url(#未命名的渐变_62-4);}.cls-17{fill:url(#未命名的渐变_62-5);}.cls-18{fill:url(#未命名的渐变_62-6);}.cls-19{fill:url(#未命名的渐变_306);}.cls-20{fill:url(#未命名的渐变_62-7);}.cls-21{fill:url(#未命名的渐变_62-8);}.cls-22{fill:url(#未命名的渐变_62-9);}.cls-23{fill:url(#未命名的渐变_62-10);}.cls-24{fill:url(#未命名的渐变_62-11);}.cls-25{fill:url(#未命名的渐变_62-12);}.cls-26{fill:url(#未命名的渐变_306-2);}.cls-27{fill:url(#未命名的渐变_62-13);}.cls-28{fill:url(#未命名的渐变_62-14);}.cls-29{fill:url(#未命名的渐变_62-15);}.cls-30{fill:url(#未命名的渐变_62-16);}.cls-31{fill:url(#未命名的渐变_62-17);}.cls-32{fill:url(#未命名的渐变_62-18);}.cls-33{fill:url(#未命名的渐变_306-3);}.cls-34{fill:url(#未命名的渐变_62-19);}.cls-35{fill:url(#未命名的渐变_62-20);}.cls-36{fill:url(#未命名的渐变_62-21);}.cls-37{fill:url(#未命名的渐变_62-22);}.cls-38{fill:url(#未命名的渐变_62-23);}.cls-39{fill:url(#未命名的渐变_62-24);}.cls-40{fill:url(#未命名的渐变_306-4);}.cls-41{fill:url(#未命名的渐变_376-2);}.cls-42{fill:url(#未命名的渐变_376-3);}.cls-43{fill:url(#未命名的渐变_376-4);}.cls-44{fill:url(#未命名的渐变_376-5);}.cls-45{fill:url(#未命名的渐变_306-5);}.cls-46{fill:url(#未命名的渐变_6);}.cls-47{fill:url(#未命名的渐变_306-6);}.cls-48{stroke:url(#未命名的渐变_397-11);}.cls-49{stroke:url(#未命名的渐变_397-12);}.cls-50{stroke:url(#未命名的渐变_397-13);}.cls-51{stroke:url(#未命名的渐变_397-14);}.cls-52{stroke:url(#未命名的渐变_397-15);}.cls-53{stroke:url(#未命名的渐变_397-16);}.cls-54{stroke:url(#未命名的渐变_397-17);}.cls-55{stroke:url(#未命名的渐变_397-18);}.cls-56{fill:url(#未命名的渐变_62-25);}.cls-57{fill:url(#未命名的渐变_62-26);}.cls-58{fill:url(#未命名的渐变_62-27);}.cls-59{fill:url(#未命名的渐变_62-28);}.cls-60{fill:url(#未命名的渐变_62-29);}.cls-61{fill:url(#未命名的渐变_62-30);}.cls-62{fill:url(#未命名的渐变_306-7);}.cls-63{fill:url(#未命名的渐变_306-8);}</style><linearGradient id="未命名的渐变_397" x1="8.1" y1="117.85" x2="27.91" y2="117.85" gradientUnits="userSpaceOnUse"><stop offset="0" stop-color="#767b82"/><stop offset="0.07" stop-color="#9ba1ab"/><stop offset="0.22" stop-color="#e2eaf2"/><stop offset="0.28" stop-color="#d1d8e0"/><stop offset="0.49" stop-color="#a1a7ae"/><stop offset="0.67" stop-color="#7e8489"/><stop offset="0.81" stop-color="#696e73"/><stop offset="0.91" stop-color="#61666b"/><stop offset="1" stop-color="#a9b1bb"/></linearGradient><linearGradient id="未命名的渐变_397-2" x1="0.7" y1="117.85" x2="20.51" y2="117.85" gradientTransform="matrix(-1, 0, 0, 1, 28.61, 0)" xlink:href="#未命名的渐变_397"/><linearGradient id="未命名的渐变_397-3" x1="8.1" y1="88.68" x2="27.91" y2="88.68" xlink:href="#未命名的渐变_397"/><linearGradient id="未命名的渐变_397-4" x1="0.7" y1="88.68" x2="20.51" y2="88.68" gradientTransform="matrix(-1, 0, 0, 1, 28.61, 0)" xlink:href="#未命名的渐变_397"/><linearGradient id="未命名的渐变_397-5" x1="8.1" y1="59.51" x2="27.91" y2="59.51" xlink:href="#未命名的渐变_397"/><linearGradient id="未命名的渐变_397-6" x1="0.7" y1="59.51" x2="20.51" y2="59.51" gradientTransform="matrix(-1, 0, 0, 1, 28.61, 0)" xlink:href="#未命名的渐变_397"/><linearGradient id="未命名的渐变_397-7" x1="8.1" y1="23.01" x2="27.91" y2="23.01" xlink:href="#未命名的渐变_397"/><linearGradient id="未命名的渐变_397-8" x1="0.7" y1="23.01" x2="20.51" y2="23.01" gradientTransform="matrix(-1, 0, 0, 1, 28.61, 0)" xlink:href="#未命名的渐变_397"/><linearGradient id="未命名的渐变_397-9" x1="98.9" y1="164.73" x2="85.14" y2="164.73" gradientTransform="translate(-74 -76)" xlink:href="#未命名的渐变_397"/><linearGradient id="未命名的渐变_397-10" x1="94.55" y1="89.8" x2="89.49" y2="89.8" gradientTransform="translate(-74 -76)" xlink:href="#未命名的渐变_397"/><linearGradient id="未命名的渐变_376" x1="18.02" y1="27.51" x2="18.02" y2="37.17" gradientUnits="userSpaceOnUse"><stop offset="0" stop-color="#2e3033"/><stop offset="1" stop-color="#9ba1ab" stop-opacity="0"/></linearGradient><linearGradient id="未命名的渐变_62" x1="920.28" y1="-361.25" x2="921.25" y2="-361.25" gradientTransform="matrix(0.63, 0, 0, 0.51, -546.51, 223.79)" gradientUnits="userSpaceOnUse"><stop offset="0" stop-color="#a9b1bb"/><stop offset="0.06" stop-color="#5d6166"/><stop offset="0.78" stop-color="#eef7ff"/><stop offset="0.93" stop-color="#9ba1ab"/><stop offset="1" stop-color="#767b82"/></linearGradient><linearGradient id="未命名的渐变_62-2" x1="878.4" y1="-361.25" x2="879.37" y2="-361.25" xlink:href="#未命名的渐变_62"/><linearGradient id="未命名的渐变_62-3" x1="884.97" y1="-361.25" x2="885.94" y2="-361.25" xlink:href="#未命名的渐变_62"/><linearGradient id="未命名的渐变_62-4" x1="914.4" y1="-361.25" x2="915.37" y2="-361.25" xlink:href="#未命名的渐变_62"/><linearGradient id="未命名的渐变_62-5" x1="593.54" y1="-130.52" x2="594.51" y2="-130.52" gradientTransform="matrix(0.63, 0, 0, 0.93, -354.62, 162.26)" xlink:href="#未命名的渐变_62"/><linearGradient id="未命名的渐变_62-6" x1="595.59" y1="-130.4" x2="596.56" y2="-130.4" gradientTransform="matrix(0.63, 0, 0, 0.93, -355.92, 158.69)" xlink:href="#未命名的渐变_62"/><linearGradient id="未命名的渐变_306" x1="18.04" y1="43.83" x2="18.04" y2="46.01" gradientUnits="userSpaceOnUse"><stop offset="0.02" stop-color="#767b82"/><stop offset="0.04" stop-color="#d7dce0"/><stop offset="0.09" stop-color="#9ba1ab"/><stop offset="0.92" stop-color="#9ba1ab"/><stop offset="1" stop-color="#767b82"/></linearGradient><linearGradient id="未命名的渐变_62-7" x1="920.28" y1="-303.55" x2="921.25" y2="-303.55" xlink:href="#未命名的渐变_62"/><linearGradient id="未命名的渐变_62-8" x1="878.4" y1="-303.55" x2="879.37" y2="-303.55" xlink:href="#未命名的渐变_62"/><linearGradient id="未命名的渐变_62-9" x1="884.97" y1="-303.55" x2="885.94" y2="-303.55" xlink:href="#未命名的渐变_62"/><linearGradient id="未命名的渐变_62-10" x1="914.4" y1="-303.55" x2="915.37" y2="-303.55" xlink:href="#未命名的渐变_62"/><linearGradient id="未命名的渐变_62-11" x1="547.03" y1="-130.52" x2="548" y2="-130.52" gradientTransform="matrix(0.63, 0, 0, 0.93, -325.45, 191.43)" xlink:href="#未命名的渐变_62"/><linearGradient id="未命名的渐变_62-12" x1="549.1" y1="-130.4" x2="550.06" y2="-130.4" gradientTransform="matrix(0.63, 0, 0, 0.93, -326.75, 187.86)" xlink:href="#未命名的渐变_62"/><linearGradient id="未命名的渐变_306-2" x1="18.04" y1="73" x2="18.04" y2="75.18" xlink:href="#未命名的渐变_306"/><linearGradient id="未命名的渐变_62-13" x1="920.28" y1="-245.85" x2="921.25" y2="-245.85" xlink:href="#未命名的渐变_62"/><linearGradient id="未命名的渐变_62-14" x1="878.4" y1="-245.85" x2="879.37" y2="-245.85" xlink:href="#未命名的渐变_62"/><linearGradient id="未命名的渐变_62-15" x1="884.97" y1="-245.85" x2="885.94" y2="-245.85" xlink:href="#未命名的渐变_62"/><linearGradient id="未命名的渐变_62-16" x1="914.4" y1="-245.85" x2="915.37" y2="-245.85" xlink:href="#未命名的渐变_62"/><linearGradient id="未命名的渐变_62-17" x1="500.52" y1="-130.52" x2="501.49" y2="-130.52" gradientTransform="matrix(0.63, 0, 0, 0.93, -296.28, 220.6)" xlink:href="#未命名的渐变_62"/><linearGradient id="未命名的渐变_62-18" x1="502.61" y1="-130.4" x2="503.57" y2="-130.4" gradientTransform="matrix(0.63, 0, 0, 0.93, -297.58, 217.03)" xlink:href="#未命名的渐变_62"/><linearGradient id="未命名的渐变_306-3" x1="18.04" y1="102.17" x2="18.04" y2="104.35" xlink:href="#未命名的渐变_306"/><linearGradient id="未命名的渐变_62-19" x1="920.28" y1="-188.15" x2="921.25" y2="-188.15" xlink:href="#未命名的渐变_62"/><linearGradient id="未命名的渐变_62-20" x1="871.09" y1="-188.15" x2="872.05" y2="-188.15" xlink:href="#未命名的渐变_62"/><linearGradient id="未命名的渐变_62-21" x1="884.97" y1="-188.15" x2="885.94" y2="-188.15" xlink:href="#未命名的渐变_62"/><linearGradient id="未命名的渐变_62-22" x1="914.4" y1="-188.15" x2="915.37" y2="-188.15" xlink:href="#未命名的渐变_62"/><linearGradient id="未命名的渐变_62-23" x1="454.02" y1="-132.99" x2="454.98" y2="-132.99" gradientTransform="matrix(0.63, 0, 0, 0.93, -269.42, 252.07)" xlink:href="#未命名的渐变_62"/><linearGradient id="未命名的渐变_62-24" x1="456.11" y1="-132.86" x2="457.08" y2="-132.86" gradientTransform="matrix(0.63, 0, 0, 0.93, -270.71, 248.48)" xlink:href="#未命名的渐变_62"/><linearGradient id="未命名的渐变_306-4" x1="15.74" y1="131.34" x2="15.74" y2="133.52" xlink:href="#未命名的渐变_306"/><linearGradient id="未命名的渐变_376-2" x1="18.02" y1="133.52" x2="18.02" y2="136.74" xlink:href="#未命名的渐变_376"/><linearGradient id="未命名的渐变_376-3" x1="18.02" y1="104.35" x2="18.02" y2="107.57" xlink:href="#未命名的渐变_376"/><linearGradient id="未命名的渐变_376-4" x1="18.02" y1="75.18" x2="18.02" y2="78.4" xlink:href="#未命名的渐变_376"/><linearGradient id="未命名的渐变_376-5" x1="18.02" y1="46.01" x2="18.02" y2="49.23" xlink:href="#未命名的渐变_376"/><linearGradient id="未命名的渐变_306-5" x1="4.01" y1="75.04" x2="6.28" y2="75.04" xlink:href="#未命名的渐变_306"/><linearGradient id="未命名的渐变_6" x1="29.73" y1="75.04" x2="32" y2="75.04" gradientUnits="userSpaceOnUse"><stop offset="0" stop-color="#767b82"/><stop offset="0.08" stop-color="#9ba1ab"/><stop offset="0.91" stop-color="#9ba1ab"/><stop offset="0.96" stop-color="#d7dce0"/><stop offset="0.98" stop-color="#767b82"/></linearGradient><linearGradient id="未命名的渐变_306-6" x1="18.04" y1="0" x2="18.04" y2="2.18" xlink:href="#未命名的渐变_306"/><linearGradient id="未命名的渐变_397-11" x1="6.15" y1="23.01" x2="29.86" y2="23.01" xlink:href="#未命名的渐变_397"/><linearGradient id="未命名的渐变_397-12" x1="-1.25" y1="23.01" x2="22.46" y2="23.01" gradientTransform="matrix(-1, 0, 0, 1, 28.61, 0)" xlink:href="#未命名的渐变_397"/><linearGradient id="未命名的渐变_397-13" x1="6.15" y1="59.51" x2="29.86" y2="59.51" xlink:href="#未命名的渐变_397"/><linearGradient id="未命名的渐变_397-14" x1="-1.25" y1="59.51" x2="22.46" y2="59.51" gradientTransform="matrix(-1, 0, 0, 1, 28.61, 0)" xlink:href="#未命名的渐变_397"/><linearGradient id="未命名的渐变_397-15" x1="6.15" y1="88.68" x2="29.86" y2="88.68" xlink:href="#未命名的渐变_397"/><linearGradient id="未命名的渐变_397-16" x1="-1.25" y1="88.68" x2="22.46" y2="88.68" gradientTransform="matrix(-1, 0, 0, 1, 28.61, 0)" xlink:href="#未命名的渐变_397"/><linearGradient id="未命名的渐变_397-17" x1="6.15" y1="117.85" x2="29.86" y2="117.85" xlink:href="#未命名的渐变_397"/><linearGradient id="未命名的渐变_397-18" x1="-1.25" y1="117.85" x2="22.46" y2="117.85" gradientTransform="matrix(-1, 0, 0, 1, 28.61, 0)" xlink:href="#未命名的渐变_397"/><linearGradient id="未命名的渐变_62-25" x1="910" y1="-191.46" x2="910.76" y2="-191.46" gradientTransform="matrix(0.63, 0.41, 0, 0.51, -546.51, -135.54)" xlink:href="#未命名的渐变_62"/><linearGradient id="未命名的渐变_62-26" x1="871.14" y1="-191.54" x2="871.99" y2="-191.54" gradientTransform="matrix(0.63, 0.41, 0, 0.51, -546.51, -135.54)" xlink:href="#未命名的渐变_62"/><linearGradient id="未命名的渐变_62-27" x1="882.07" y1="-191.46" x2="882.84" y2="-191.46" gradientTransform="matrix(0.63, 0.41, 0, 0.51, -546.51, -135.54)" xlink:href="#未命名的渐变_62"/><linearGradient id="未命名的渐变_62-28" x1="905.35" y1="-191.46" x2="906.11" y2="-191.46" gradientTransform="matrix(0.63, 0.41, 0, 0.51, -546.51, -135.54)" xlink:href="#未命名的渐变_62"/><linearGradient id="未命名的渐变_62-29" x1="456.69" y1="-136.49" x2="457.65" y2="-136.49" gradientTransform="matrix(0, -0.63, 0.93, 0.62, 139.75, 507.01)" xlink:href="#未命名的渐变_62"/><linearGradient id="未命名的渐变_62-30" x1="458.78" y1="-136.39" x2="459.75" y2="-136.39" gradientTransform="matrix(0, -0.63, 0.93, 0.62, 139.75, 504.95)" xlink:href="#未命名的渐变_62"/><linearGradient id="未命名的渐变_306-7" x1="12.45" y1="132.73" x2="12.45" y2="150" xlink:href="#未命名的渐变_306"/><linearGradient id="未命名的渐变_306-8" x1="2.05" y1="132.73" x2="2.05" y2="134.92" xlink:href="#未命名的渐变_306"/></defs><title>Distillation column 2(蒸馏塔2)</title><g id="图层_2" data-name="图层 2"><g id="图层_16" data-name="图层 16"><g id="Distillation_column_2_蒸馏塔2_" data-name="Distillation column 2(蒸馏塔2)"><g class="cls-1"><line class="cls-2" x1="8.22" y1="104.35" x2="27.79" y2="131.34"/><line class="cls-3" x1="27.79" y1="104.35" x2="8.22" y2="131.34"/></g><g class="cls-1"><line class="cls-4" x1="8.22" y1="75.18" x2="27.79" y2="102.17"/><line class="cls-5" x1="27.79" y1="75.18" x2="8.22" y2="102.17"/></g><g class="cls-1"><line class="cls-6" x1="8.22" y1="46.01" x2="27.79" y2="73"/><line class="cls-7" x1="27.79" y1="46.01" x2="8.22" y2="73"/></g><g class="cls-1"><line class="cls-8" x1="8.22" y1="2.18" x2="27.79" y2="43.83"/><line class="cls-9" x1="27.79" y1="2.18" x2="8.22" y2="43.83"/></g><polyline class="cls-10" points="24.9 27.46 24.9 150 11.14 150 11.14 27.46"/><polyline class="cls-11" points="20.55 0.08 20.55 27.51 15.49 27.51 15.49 0.08"/><rect class="cls-12" x="11.12" y="27.51" width="13.8" height="9.65"/><rect class="cls-13" x="30.87" y="36.69" width="0.61" height="8.93" rx="0.24"/><rect class="cls-14" x="4.59" y="36.69" width="0.61" height="8.93" rx="0.24"/><rect class="cls-15" x="8.72" y="36.69" width="0.61" height="8.93" rx="0.24"/><rect class="cls-16" x="27.18" y="36.69" width="0.61" height="8.93" rx="0.24"/><rect class="cls-17" x="17.64" y="27.11" width="0.61" height="26.7" rx="0.3" transform="translate(-22.52 58.41) rotate(-90)"/><rect class="cls-18" x="17.75" y="23.58" width="0.61" height="26.83" rx="0.3" transform="translate(-18.95 55.05) rotate(-90)"/><rect class="cls-19" x="4.59" y="43.83" width="26.88" height="2.18"/><rect class="cls-20" x="30.87" y="65.86" width="0.61" height="8.93" rx="0.24"/><rect class="cls-21" x="4.59" y="65.86" width="0.61" height="8.93" rx="0.24"/><rect class="cls-22" x="8.72" y="65.86" width="0.61" height="8.93" rx="0.24"/><rect class="cls-23" x="27.18" y="65.86" width="0.61" height="8.93" rx="0.24"/><rect class="cls-24" x="17.64" y="56.28" width="0.61" height="26.7" rx="0.3" transform="translate(-51.69 87.58) rotate(-90)"/><rect class="cls-25" x="17.75" y="52.75" width="0.61" height="26.83" rx="0.3" transform="translate(-48.11 84.22) rotate(-90)"/><rect class="cls-26" x="4.59" y="73" width="26.88" height="2.18"/><rect class="cls-27" x="30.87" y="95.03" width="0.61" height="8.93" rx="0.24"/><rect class="cls-28" x="4.59" y="95.03" width="0.61" height="8.93" rx="0.24"/><rect class="cls-29" x="8.72" y="95.03" width="0.61" height="8.93" rx="0.24"/><rect class="cls-30" x="27.18" y="95.03" width="0.61" height="8.93" rx="0.24"/><rect class="cls-31" x="17.64" y="85.45" width="0.61" height="26.7" rx="0.3" transform="translate(-80.86 116.75) rotate(-90)"/><rect class="cls-32" x="17.75" y="81.92" width="0.61" height="26.83" rx="0.3" transform="translate(-77.28 113.39) rotate(-90)"/><rect class="cls-33" x="4.59" y="102.17" width="26.88" height="2.18"/><rect class="cls-34" x="30.87" y="124.2" width="0.61" height="8.93" rx="0.24"/><rect class="cls-35" x="0.01" y="124.2" width="0.61" height="8.93" rx="0.24"/><rect class="cls-36" x="8.72" y="124.2" width="0.61" height="8.93" rx="0.24"/><rect class="cls-37" x="27.18" y="124.2" width="0.61" height="8.93" rx="0.24"/><rect class="cls-38" x="15.33" y="112.34" width="0.61" height="31.26" rx="0.3" transform="translate(-112.33 143.61) rotate(-90)"/><rect class="cls-39" x="15.46" y="108.8" width="0.61" height="31.41" rx="0.3" transform="translate(-108.74 140.27) rotate(-90)"/><rect class="cls-40" x="0.01" y="131.34" width="31.47" height="2.18"/><rect class="cls-41" x="11.14" y="133.52" width="13.75" height="3.22"/><rect class="cls-42" x="11.14" y="104.35" width="13.75" height="3.22"/><rect class="cls-43" x="11.14" y="75.18" width="13.75" height="3.22"/><rect class="cls-44" x="11.14" y="46.01" width="13.75" height="3.22"/><rect class="cls-45" x="4.01" y="0.08" width="2.27" height="149.92"/><rect class="cls-46" x="29.73" y="0.08" width="2.27" height="149.92"/><rect class="cls-47" x="4.59" width="26.88" height="2.18"/><line class="cls-48" x1="6.28" y1="2.18" x2="29.73" y2="43.83"/><line class="cls-49" x1="29.73" y1="2.18" x2="6.28" y2="43.83"/><line class="cls-50" x1="6.28" y1="46.01" x2="29.73" y2="73"/><line class="cls-51" x1="29.73" y1="46.01" x2="6.28" y2="73"/><line class="cls-52" x1="6.28" y1="75.18" x2="29.73" y2="102.17"/><line class="cls-53" x1="29.73" y1="75.18" x2="6.28" y2="102.17"/><line class="cls-54" x1="6.28" y1="104.35" x2="29.73" y2="131.34"/><line class="cls-55" x1="29.73" y1="104.35" x2="6.28" y2="131.34"/><path class="cls-56" d="M24.69,149.44l-.06,0a.47.47,0,0,1-.21-.35v-8.51c0-.12.09-.15.21-.07l.06,0a.48.48,0,0,1,.21.35v8.51C24.9,149.48,24.8,149.52,24.69,149.44Z"/><path class="cls-57" d="M.34,133.31l-.07,0a.45.45,0,0,1-.23-.35v-8.51c0-.11.1-.14.23-.07l.07,0a.47.47,0,0,1,.23.35v8.51C.57,133.36.47,133.39.34,133.31Z"/><path class="cls-58" d="M7.16,137.86l0,0a.49.49,0,0,1-.21-.35V129c0-.12.09-.15.21-.07l0,0a.5.5,0,0,1,.22.35v8.51C7.38,137.91,7.28,137.94,7.16,137.86Z"/><path class="cls-59" d="M21.77,147.51l-.06,0a.48.48,0,0,1-.21-.35v-8.51c0-.11.1-.14.21-.07l.06,0a.47.47,0,0,1,.21.35v8.51C22,147.56,21.89,147.59,21.77,147.51Z"/><path class="cls-60" d="M24.74,144.27v.07c0,.15-.13.19-.27.09l-24.2-16A.64.64,0,0,1,0,128v-.06c0-.15.12-.19.26-.09l24.2,16A.62.62,0,0,1,24.74,144.27Z"/><path class="cls-61" d="M24.89,140.91V141c0,.15-.12.19-.27.09L.32,125a.59.59,0,0,1-.27-.44v-.07c0-.15.12-.19.27-.09l24.3,16.05A.62.62,0,0,1,24.89,140.91Z"/><polygon class="cls-62" points="24.9 148.58 24.9 150 23.77 150 0.92 134.92 0 134.31 0 132.74 0.92 132.74 4.09 134.83 24.9 148.58"/><rect class="cls-63" y="132.73" width="4.09" height="2.18"/></g></g></g></svg>