<svg xmlns="http://www.w3.org/2000/svg" xmlns:xlink="http://www.w3.org/1999/xlink" viewBox="0 0 44.45 150"><defs><style>.cls-1{fill:url(#未命名的渐变_397);}.cls-2,.cls-21{opacity:0.2;}.cls-2{fill:url(#未命名的渐变_138);}.cls-3{fill:url(#未命名的渐变_137);}.cls-4{fill:url(#未命名的渐变_137-2);}.cls-5{fill:url(#未命名的渐变_137-3);}.cls-6{fill:url(#未命名的渐变_137-4);}.cls-7{fill:url(#未命名的渐变_137-5);}.cls-8{fill:url(#未命名的渐变_137-6);}.cls-9{fill:url(#未命名的渐变_137-7);}.cls-10,.cls-19{fill:none;stroke:#000;stroke-miterlimit:10;opacity:0.3;}.cls-10{stroke-width:0.31px;}.cls-11{fill:url(#未命名的渐变_137-8);}.cls-12{fill:url(#未命名的渐变_137-9);}.cls-13{fill:url(#未命名的渐变_137-10);}.cls-14{fill:url(#未命名的渐变_137-11);}.cls-15{fill:url(#未命名的渐变_137-12);}.cls-16{fill:url(#未命名的渐变_137-13);}.cls-17{fill:url(#未命名的渐变_137-14);}.cls-18{fill:url(#未命名的渐变_137-15);}.cls-19{stroke-width:0.16px;}.cls-20{fill:url(#未命名的渐变_137-16);}.cls-21{fill:url(#未命名的渐变_108);}</style><linearGradient id="未命名的渐变_397" x1="113.45" y1="-665.02" x2="82.83" y2="-665.02" gradientTransform="translate(-74 740.95)" gradientUnits="userSpaceOnUse"><stop offset="0" stop-color="#767b82"/><stop offset="0.07" stop-color="#9ba1ab"/><stop offset="0.22" stop-color="#e2eaf2"/><stop offset="0.28" stop-color="#d1d8e0"/><stop offset="0.49" stop-color="#a1a7ae"/><stop offset="0.67" stop-color="#7e8489"/><stop offset="0.81" stop-color="#696e73"/><stop offset="0.91" stop-color="#61666b"/><stop offset="1" stop-color="#a9b1bb"/></linearGradient><linearGradient id="未命名的渐变_138" x1="24.14" y1="125.43" x2="24.14" y2="148.7" gradientTransform="matrix(1, 0, 0, -1, 0, 158.57)" gradientUnits="userSpaceOnUse"><stop offset="0" stop-color="#9ba1ab" stop-opacity="0"/><stop offset="1" stop-color="#2e3033"/></linearGradient><linearGradient id="未命名的渐变_137" x1="5.42" y1="152.75" x2="7.68" y2="152.75" gradientTransform="matrix(1, 0, 0, -1, 0, 158.57)" gradientUnits="userSpaceOnUse"><stop offset="0" stop-color="#a9b1bb"/><stop offset="0.09" stop-color="#61666b"/><stop offset="0.19" stop-color="#696e73"/><stop offset="0.33" stop-color="#7e8489"/><stop offset="0.51" stop-color="#a1a7ae"/><stop offset="0.72" stop-color="#d1d8e0"/><stop offset="0.78" stop-color="#e2eaf2"/><stop offset="0.93" stop-color="#9ba1ab"/><stop offset="1" stop-color="#767b82"/></linearGradient><linearGradient id="未命名的渐变_137-2" x1="12.53" y1="152.75" x2="14.79" y2="152.75" xlink:href="#未命名的渐变_137"/><linearGradient id="未命名的渐变_137-3" x1="19.64" y1="152.75" x2="21.9" y2="152.75" xlink:href="#未命名的渐变_137"/><linearGradient id="未命名的渐变_137-4" x1="26.75" y1="152.75" x2="29.01" y2="152.75" xlink:href="#未命名的渐变_137"/><linearGradient id="未命名的渐变_137-5" x1="33.86" y1="152.75" x2="36.11" y2="152.75" xlink:href="#未命名的渐变_137"/><linearGradient id="未命名的渐变_137-6" x1="40.96" y1="152.75" x2="43.22" y2="152.75" xlink:href="#未命名的渐变_137"/><linearGradient id="未命名的渐变_137-7" x1="3.83" y1="152.75" x2="44.45" y2="152.75" xlink:href="#未命名的渐变_137"/><linearGradient id="未命名的渐变_137-8" x1="5.42" y1="14.3" x2="7.68" y2="14.3" xlink:href="#未命名的渐变_137"/><linearGradient id="未命名的渐变_137-9" x1="12.53" y1="14.3" x2="14.79" y2="14.3" xlink:href="#未命名的渐变_137"/><linearGradient id="未命名的渐变_137-10" x1="19.64" y1="14.3" x2="21.9" y2="14.3" xlink:href="#未命名的渐变_137"/><linearGradient id="未命名的渐变_137-11" x1="26.75" y1="14.3" x2="29.01" y2="14.3" xlink:href="#未命名的渐变_137"/><linearGradient id="未命名的渐变_137-12" x1="33.86" y1="14.3" x2="36.11" y2="14.3" xlink:href="#未命名的渐变_137"/><linearGradient id="未命名的渐变_137-13" x1="40.96" y1="14.3" x2="43.22" y2="14.3" xlink:href="#未命名的渐变_137"/><linearGradient id="未命名的渐变_137-14" x1="3.83" y1="12.62" x2="44.45" y2="12.62" xlink:href="#未命名的渐变_137"/><linearGradient id="未命名的渐变_137-15" x1="-43.18" y1="92.29" x2="-16.71" y2="92.29" gradientTransform="matrix(0, 1, 1, 0, -90.57, 105.12)" xlink:href="#未命名的渐变_137"/><linearGradient id="未命名的渐变_137-16" x1="-41.63" y1="98.11" x2="-18.27" y2="98.11" gradientTransform="matrix(0, 1, 1, 0, -90.57, 105.12)" xlink:href="#未命名的渐变_137"/><linearGradient id="未命名的渐变_108" x1="-29.95" y1="94.01" x2="-29.95" y2="102.21" gradientTransform="matrix(0, 1, 1, 0, -90.57, 105.12)" gradientUnits="userSpaceOnUse"><stop offset="0" stop-color="#2e3033"/><stop offset="1" stop-color="#9ba1ab" stop-opacity="0"/></linearGradient></defs><title>Gas processor(气体处理器)</title><g id="图层_2" data-name="图层 2"><g id="图层_16" data-name="图层 16"><g id="Gas_processor_气体处理器_" data-name="Gas processor(气体处理器)"><rect class="cls-1" x="8.83" y="9.88" width="30.62" height="132.11"/><rect class="cls-2" x="8.83" y="9.88" width="30.62" height="23.26"/><rect class="cls-3" x="5.42" width="2.26" height="11.65"/><rect class="cls-4" x="12.53" width="2.26" height="11.65"/><rect class="cls-5" x="19.64" width="2.26" height="11.65"/><rect class="cls-6" x="26.75" width="2.26" height="11.65"/><rect class="cls-7" x="33.86" width="2.26" height="11.65"/><rect class="cls-8" x="40.96" width="2.26" height="11.65"/><rect class="cls-9" x="3.83" y="1.78" width="40.61" height="8.1"/><line class="cls-10" x1="3.83" y1="5.83" x2="44.45" y2="5.83"/><rect class="cls-11" x="5.42" y="140.12" width="2.26" height="8.3"/><rect class="cls-12" x="12.53" y="140.12" width="2.26" height="8.3"/><rect class="cls-13" x="19.64" y="140.12" width="2.26" height="8.3"/><rect class="cls-14" x="26.75" y="140.12" width="2.26" height="8.3"/><rect class="cls-15" x="33.86" y="140.12" width="2.26" height="8.3"/><rect class="cls-16" x="40.96" y="140.12" width="2.26" height="8.3"/><rect class="cls-17" x="3.83" y="141.9" width="40.61" height="8.1"/><line class="cls-10" x1="3.83" y1="145.95" x2="44.45" y2="145.95"/><rect class="cls-18" y="61.94" width="3.45" height="26.47"/><line class="cls-19" x1="1.72" y1="61.94" x2="1.72" y2="88.41"/><path class="cls-20" d="M3.45,86.86H8.9a24,24,0,0,0,2.74-11.69A23.93,23.93,0,0,0,8.9,63.49H3.45Z"/><path class="cls-21" d="M3.45,86.86H8.9a24,24,0,0,0,2.74-11.69A23.93,23.93,0,0,0,8.9,63.49H3.45Z"/></g></g></g></svg>