<svg xmlns="http://www.w3.org/2000/svg" xmlns:xlink="http://www.w3.org/1999/xlink" viewBox="0 0 43.43 150"><defs><style>.cls-1{fill:url(#未命名的渐变_79);}.cls-2{fill:url(#未命名的渐变_397);}.cls-3{fill:url(#未命名的渐变_397-2);}.cls-4{fill:url(#未命名的渐变_397-3);}.cls-5{fill:url(#未命名的渐变_306);}.cls-6{opacity:0.6;}.cls-7{fill:url(#未命名的渐变_306-2);}.cls-8{fill:url(#未命名的渐变_306-3);}.cls-9{fill:url(#未命名的渐变_306-4);}.cls-10{fill:url(#未命名的渐变_397-4);}.cls-11,.cls-12,.cls-58,.cls-59{opacity:0.4;}.cls-11{fill:url(#未命名的渐变_376);}.cls-12{fill:url(#未命名的渐变_376-2);}.cls-13,.cls-14{fill:#5c6066;stroke-miterlimit:10;stroke-width:0.58px;}.cls-13{stroke:url(#未命名的渐变_39);}.cls-14{stroke:url(#未命名的渐变_39-2);}.cls-15{fill:url(#未命名的渐变_62);}.cls-16{fill:url(#未命名的渐变_62-2);}.cls-17{fill:url(#未命名的渐变_62-3);}.cls-18{fill:url(#未命名的渐变_62-4);}.cls-19{fill:url(#未命名的渐变_62-5);}.cls-20{fill:url(#未命名的渐变_62-6);}.cls-21{fill:url(#未命名的渐变_62-7);}.cls-22{fill:url(#未命名的渐变_62-8);}.cls-23{fill:url(#未命名的渐变_62-9);}.cls-24{fill:url(#未命名的渐变_62-10);}.cls-25{fill:url(#未命名的渐变_62-11);}.cls-26{fill:url(#未命名的渐变_62-12);}.cls-27{fill:url(#未命名的渐变_62-13);}.cls-28{fill:url(#未命名的渐变_62-14);}.cls-29{fill:url(#未命名的渐变_62-15);}.cls-30{fill:url(#未命名的渐变_62-16);}.cls-31{fill:url(#未命名的渐变_62-17);}.cls-32{fill:url(#未命名的渐变_62-18);}.cls-33{fill:url(#未命名的渐变_62-19);}.cls-34{fill:url(#未命名的渐变_62-20);}.cls-35{fill:url(#未命名的渐变_62-21);}.cls-36{fill:url(#未命名的渐变_62-22);}.cls-37{fill:url(#未命名的渐变_62-23);}.cls-38{fill:url(#未命名的渐变_62-24);}.cls-39{fill:url(#未命名的渐变_62-25);}.cls-40{fill:url(#未命名的渐变_62-26);}.cls-41{fill:url(#未命名的渐变_62-27);}.cls-42{fill:url(#未命名的渐变_62-28);}.cls-43{fill:url(#未命名的渐变_62-29);}.cls-44{fill:url(#未命名的渐变_62-30);}.cls-45{fill:url(#未命名的渐变_62-31);}.cls-46{fill:url(#未命名的渐变_62-32);}.cls-47{fill:url(#未命名的渐变_62-33);}.cls-48{fill:url(#未命名的渐变_62-34);}.cls-49{fill:url(#未命名的渐变_62-35);}.cls-50{fill:url(#未命名的渐变_62-36);}.cls-51{fill:url(#未命名的渐变_306-5);}.cls-52{fill:url(#未命名的渐变_306-6);}.cls-53{fill:url(#未命名的渐变_306-7);}.cls-54{fill:url(#未命名的渐变_306-8);}.cls-55{fill:url(#未命名的渐变_306-9);}.cls-56{fill:url(#未命名的渐变_306-10);}.cls-57{fill:url(#未命名的渐变_306-11);}.cls-59{fill:url(#未命名的渐变_376-3);}.cls-60{fill:url(#未命名的渐变_306-12);}.cls-61{fill:url(#未命名的渐变_306-13);}.cls-62{fill:url(#未命名的渐变_306-14);}.cls-63{fill:url(#未命名的渐变_306-15);}.cls-64{fill:url(#未命名的渐变_306-16);}.cls-65{fill:url(#未命名的渐变_306-17);}.cls-66{fill:url(#未命名的渐变_306-18);}.cls-67{fill:url(#未命名的渐变_59);}.cls-68{fill:url(#未命名的渐变_397-5);}.cls-69{fill:url(#未命名的渐变_397-6);}.cls-70{fill:url(#未命名的渐变_397-7);}</style><linearGradient id="未命名的渐变_79" x1="30.54" y1="6.25" x2="17.51" y2="6.25" gradientUnits="userSpaceOnUse"><stop offset="0" stop-color="#939699"/><stop offset="1" stop-color="#5c6166"/><stop offset="1" stop-color="#8a9099"/></linearGradient><linearGradient id="未命名的渐变_397" x1="54.11" y1="-22.15" x2="51.91" y2="-22.15" gradientTransform="translate(-37.18 31.55)" gradientUnits="userSpaceOnUse"><stop offset="0" stop-color="#767b82"/><stop offset="0.07" stop-color="#9ba1ab"/><stop offset="0.22" stop-color="#e2eaf2"/><stop offset="0.28" stop-color="#d1d8e0"/><stop offset="0.49" stop-color="#a1a7ae"/><stop offset="0.67" stop-color="#7e8489"/><stop offset="0.81" stop-color="#696e73"/><stop offset="0.91" stop-color="#61666b"/><stop offset="1" stop-color="#a9b1bb"/></linearGradient><linearGradient id="未命名的渐变_397-2" x1="46.19" y1="-19.35" x2="43.99" y2="-19.35" gradientTransform="translate(-17.89 26.45)" xlink:href="#未命名的渐变_397"/><linearGradient id="未命名的渐变_397-3" x1="39.53" y1="78" x2="37.34" y2="78" gradientTransform="matrix(1, 0, 0, 1, 0, 0)" xlink:href="#未命名的渐变_397"/><linearGradient id="未命名的渐变_306" x1="-533.2" y1="606.46" x2="-533.2" y2="612.86" gradientTransform="matrix(0.58, 1, 1, 0, -287.86, 630.12)" gradientUnits="userSpaceOnUse"><stop offset="0.02" stop-color="#767b82"/><stop offset="0.04" stop-color="#d7dce0"/><stop offset="0.09" stop-color="#9ba1ab"/><stop offset="0.92" stop-color="#9ba1ab"/><stop offset="1" stop-color="#767b82"/></linearGradient><linearGradient id="未命名的渐变_306-2" x1="-533.2" y1="225.44" x2="-533.2" y2="231.84" gradientTransform="matrix(-0.58, 1, -1, 0, -49.73, 630.12)" xlink:href="#未命名的渐变_306"/><linearGradient id="未命名的渐变_306-3" x1="-580.75" y1="634.28" x2="-580.75" y2="640.68" xlink:href="#未命名的渐变_306"/><linearGradient id="未命名的渐变_306-4" x1="-580.75" y1="253.26" x2="-580.75" y2="259.66" gradientTransform="matrix(-0.58, 1, -1, 0, -49.73, 630.12)" xlink:href="#未命名的渐变_306"/><linearGradient id="未命名的渐变_397-4" x1="107.54" y1="157.84" x2="83.86" y2="157.84" gradientTransform="translate(-74 -76)" xlink:href="#未命名的渐变_397"/><linearGradient id="未命名的渐变_376" x1="21.72" y1="41.08" x2="21.72" y2="49.35" gradientUnits="userSpaceOnUse"><stop offset="0" stop-color="#2e3033"/><stop offset="1" stop-color="#9ba1ab" stop-opacity="0"/></linearGradient><linearGradient id="未命名的渐变_376-2" x1="21.72" y1="13.67" x2="21.72" y2="21.83" xlink:href="#未命名的渐变_376"/><linearGradient id="未命名的渐变_39" x1="21.72" y1="36.1" x2="21.72" y2="27.11" gradientUnits="userSpaceOnUse"><stop offset="0" stop-color="#dce1e6"/><stop offset="1" stop-color="#5c6066"/></linearGradient><linearGradient id="未命名的渐变_39-2" x1="21.72" y1="77.21" x2="21.72" y2="68.22" xlink:href="#未命名的渐变_39"/><linearGradient id="未命名的渐变_62" x1="1114.45" y1="-87.19" x2="1115.41" y2="-87.19" gradientTransform="matrix(0.63, 0, 0, 0.51, -693.42, 124.89)" gradientUnits="userSpaceOnUse"><stop offset="0" stop-color="#a9b1bb"/><stop offset="0.06" stop-color="#5d6166"/><stop offset="0.78" stop-color="#eef7ff"/><stop offset="0.93" stop-color="#9ba1ab"/><stop offset="1" stop-color="#767b82"/></linearGradient><linearGradient id="未命名的渐变_62-2" x1="1123.2" y1="-87.19" x2="1124.16" y2="-87.19" xlink:href="#未命名的渐变_62"/><linearGradient id="未命名的渐变_62-3" x1="-84.79" y1="82.2" x2="-83.83" y2="82.2" gradientTransform="matrix(0.63, 0, 0, 0.93, 61.68, -58.1)" xlink:href="#未命名的渐变_62"/><linearGradient id="未命名的渐变_62-4" x1="-90.95" y1="82.2" x2="-89.99" y2="82.2" gradientTransform="matrix(0.63, 0, 0, 0.93, 65.55, -54.23)" xlink:href="#未命名的渐变_62"/><linearGradient id="未命名的渐变_62-5" x1="-97.12" y1="82.2" x2="-96.15" y2="82.2" gradientTransform="matrix(0.63, 0, 0, 0.93, 69.41, -50.37)" xlink:href="#未命名的渐变_62"/><linearGradient id="未命名的渐变_62-6" x1="-103.28" y1="82.2" x2="-102.31" y2="82.2" gradientTransform="matrix(0.63, 0, 0, 0.93, 73.28, -46.5)" xlink:href="#未命名的渐变_62"/><linearGradient id="未命名的渐变_62-7" x1="-109.44" y1="82.2" x2="-108.47" y2="82.2" gradientTransform="matrix(0.63, 0, 0, 0.93, 77.14, -42.64)" xlink:href="#未命名的渐变_62"/><linearGradient id="未命名的渐变_62-8" x1="-115.6" y1="82.2" x2="-114.64" y2="82.2" gradientTransform="matrix(0.63, 0, 0, 0.93, 81, -38.78)" xlink:href="#未命名的渐变_62"/><linearGradient id="未命名的渐变_62-9" x1="-121.76" y1="82.2" x2="-120.8" y2="82.2" gradientTransform="matrix(0.63, 0, 0, 0.93, 84.87, -34.91)" xlink:href="#未命名的渐变_62"/><linearGradient id="未命名的渐变_62-10" x1="-127.92" y1="82.2" x2="-126.96" y2="82.2" gradientTransform="matrix(0.63, 0, 0, 0.93, 88.73, -31.05)" xlink:href="#未命名的渐变_62"/><linearGradient id="未命名的渐变_62-11" x1="-134.08" y1="82.2" x2="-133.12" y2="82.2" gradientTransform="matrix(0.63, 0, 0, 0.93, 92.6, -27.18)" xlink:href="#未命名的渐变_62"/><linearGradient id="未命名的渐变_62-12" x1="-140.24" y1="82.2" x2="-139.28" y2="82.2" gradientTransform="matrix(0.63, 0, 0, 0.93, 96.46, -23.32)" xlink:href="#未命名的渐变_62"/><linearGradient id="未命名的渐变_62-13" x1="-146.41" y1="82.2" x2="-145.44" y2="82.2" gradientTransform="matrix(0.63, 0, 0, 0.93, 100.33, -19.45)" xlink:href="#未命名的渐变_62"/><linearGradient id="未命名的渐变_62-14" x1="-152.57" y1="82.2" x2="-151.6" y2="82.2" gradientTransform="matrix(0.63, 0, 0, 0.93, 104.19, -15.59)" xlink:href="#未命名的渐变_62"/><linearGradient id="未命名的渐变_62-15" x1="-158.73" y1="82.2" x2="-157.76" y2="82.2" gradientTransform="matrix(0.63, 0, 0, 0.93, 108.05, -11.73)" xlink:href="#未命名的渐变_62"/><linearGradient id="未命名的渐变_62-16" x1="-164.89" y1="82.2" x2="-163.93" y2="82.2" gradientTransform="matrix(0.63, 0, 0, 0.93, 111.92, -7.86)" xlink:href="#未命名的渐变_62"/><linearGradient id="未命名的渐变_62-17" x1="-171.05" y1="82.2" x2="-170.09" y2="82.2" gradientTransform="matrix(0.63, 0, 0, 0.93, 115.78, -4)" xlink:href="#未命名的渐变_62"/><linearGradient id="未命名的渐变_62-18" x1="-177.21" y1="82.2" x2="-176.25" y2="82.2" gradientTransform="matrix(0.63, 0, 0, 0.93, 119.65, -0.13)" xlink:href="#未命名的渐变_62"/><linearGradient id="未命名的渐变_62-19" x1="-183.37" y1="82.2" x2="-182.41" y2="82.2" gradientTransform="matrix(0.63, 0, 0, 0.93, 123.51, 3.73)" xlink:href="#未命名的渐变_62"/><linearGradient id="未命名的渐变_62-20" x1="-189.53" y1="82.2" x2="-188.57" y2="82.2" gradientTransform="matrix(0.63, 0, 0, 0.93, 127.38, 7.6)" xlink:href="#未命名的渐变_62"/><linearGradient id="未命名的渐变_62-21" x1="-195.7" y1="82.2" x2="-194.73" y2="82.2" gradientTransform="matrix(0.63, 0, 0, 0.93, 131.24, 11.46)" xlink:href="#未命名的渐变_62"/><linearGradient id="未命名的渐变_62-22" x1="-201.86" y1="82.2" x2="-200.89" y2="82.2" gradientTransform="matrix(0.63, 0, 0, 0.93, 135.11, 15.32)" xlink:href="#未命名的渐变_62"/><linearGradient id="未命名的渐变_62-23" x1="-208.02" y1="82.2" x2="-207.05" y2="82.2" gradientTransform="matrix(0.63, 0, 0, 0.93, 138.97, 19.19)" xlink:href="#未命名的渐变_62"/><linearGradient id="未命名的渐变_62-24" x1="-214.18" y1="82.2" x2="-213.22" y2="82.2" gradientTransform="matrix(0.63, 0, 0, 0.93, 142.83, 23.05)" xlink:href="#未命名的渐变_62"/><linearGradient id="未命名的渐变_62-25" x1="-220.34" y1="82.2" x2="-219.38" y2="82.2" gradientTransform="matrix(0.63, 0, 0, 0.93, 146.7, 26.92)" xlink:href="#未命名的渐变_62"/><linearGradient id="未命名的渐变_62-26" x1="-226.5" y1="82.2" x2="-225.54" y2="82.2" gradientTransform="matrix(0.63, 0, 0, 0.93, 150.56, 30.78)" xlink:href="#未命名的渐变_62"/><linearGradient id="未命名的渐变_62-27" x1="-232.66" y1="82.2" x2="-231.7" y2="82.2" gradientTransform="matrix(0.63, 0, 0, 0.93, 154.43, 34.65)" xlink:href="#未命名的渐变_62"/><linearGradient id="未命名的渐变_62-28" x1="-238.83" y1="82.2" x2="-237.86" y2="82.2" gradientTransform="matrix(0.63, 0, 0, 0.93, 158.29, 38.51)" xlink:href="#未命名的渐变_62"/><linearGradient id="未命名的渐变_62-29" x1="-244.99" y1="82.2" x2="-244.02" y2="82.2" gradientTransform="matrix(0.63, 0, 0, 0.93, 162.16, 42.38)" xlink:href="#未命名的渐变_62"/><linearGradient id="未命名的渐变_62-30" x1="-251.15" y1="82.2" x2="-250.18" y2="82.2" gradientTransform="matrix(0.63, 0, 0, 0.93, 166.02, 46.24)" xlink:href="#未命名的渐变_62"/><linearGradient id="未命名的渐变_62-31" x1="-257.31" y1="82.2" x2="-256.35" y2="82.2" gradientTransform="matrix(0.63, 0, 0, 0.93, 169.88, 50.1)" xlink:href="#未命名的渐变_62"/><linearGradient id="未命名的渐变_62-32" x1="-263.47" y1="82.2" x2="-262.51" y2="82.2" gradientTransform="matrix(0.63, 0, 0, 0.93, 173.75, 53.97)" xlink:href="#未命名的渐变_62"/><linearGradient id="未命名的渐变_62-33" x1="-269.63" y1="82.2" x2="-268.67" y2="82.2" gradientTransform="matrix(0.63, 0, 0, 0.93, 177.61, 57.83)" xlink:href="#未命名的渐变_62"/><linearGradient id="未命名的渐变_62-34" x1="-275.79" y1="82.2" x2="-274.83" y2="82.2" gradientTransform="matrix(0.63, 0, 0, 0.93, 181.48, 61.7)" xlink:href="#未命名的渐变_62"/><linearGradient id="未命名的渐变_62-35" x1="-281.95" y1="82.2" x2="-280.99" y2="82.2" gradientTransform="matrix(0.63, 0, 0, 0.93, 185.34, 65.56)" xlink:href="#未命名的渐变_62"/><linearGradient id="未命名的渐变_62-36" x1="-82.66" y1="82.23" x2="-81.7" y2="82.23" gradientTransform="matrix(0.63, 0, 0, 0.93, 60.39, -61.58)" xlink:href="#未命名的渐变_62"/><linearGradient id="未命名的渐变_306-5" x1="-103.97" y1="-7" x2="-102.94" y2="-7" gradientTransform="matrix(1.79, 0, 0, 1.11, 206.65, 39.94)" xlink:href="#未命名的渐变_306"/><linearGradient id="未命名的渐变_306-6" x1="-100.76" y1="-7" x2="-99.73" y2="-7" gradientTransform="matrix(1.79, 0, 0, 1.11, 200.91, 34.2)" xlink:href="#未命名的渐变_306"/><linearGradient id="未命名的渐变_306-7" x1="12.45" y1="-213.74" x2="13.48" y2="-213.74" gradientTransform="matrix(1.79, 0, 0, 0.47, -22.25, 132.67)" xlink:href="#未命名的渐变_306"/><linearGradient id="未命名的渐变_306-8" x1="16.5" y1="-213.74" x2="17.53" y2="-213.74" gradientTransform="matrix(1.79, 0, 0, 0.47, -22.25, 132.67)" xlink:href="#未命名的渐变_306"/><linearGradient id="未命名的渐变_306-9" x1="31.64" y1="-213.74" x2="32.67" y2="-213.74" gradientTransform="matrix(1.79, 0, 0, 0.47, -22.25, 132.67)" xlink:href="#未命名的渐变_306"/><linearGradient id="未命名的渐变_306-10" x1="35.71" y1="-213.74" x2="36.74" y2="-213.74" gradientTransform="matrix(1.79, 0, 0, 0.47, -22.25, 132.67)" xlink:href="#未命名的渐变_306"/><linearGradient id="未命名的渐变_306-11" x1="21.72" y1="37.67" x2="21.72" y2="41.08" gradientTransform="matrix(1, 0, 0, 1, 0, 0)" xlink:href="#未命名的渐变_306"/><linearGradient id="未命名的渐变_376-3" x1="21.72" y1="88.64" x2="21.72" y2="96.9" xlink:href="#未命名的渐变_376"/><linearGradient id="未命名的渐变_306-12" x1="-130.57" y1="-7" x2="-129.54" y2="-7" gradientTransform="matrix(1.79, 0, 0, 1.11, 254.2, 87.49)" xlink:href="#未命名的渐变_306"/><linearGradient id="未命名的渐变_306-13" x1="-127.36" y1="-7" x2="-126.33" y2="-7" gradientTransform="matrix(1.79, 0, 0, 1.11, 248.47, 81.76)" xlink:href="#未命名的渐变_306"/><linearGradient id="未命名的渐变_306-14" x1="12.45" y1="-113.17" x2="13.48" y2="-113.17" gradientTransform="matrix(1.79, 0, 0, 0.47, -22.25, 132.67)" xlink:href="#未命名的渐变_306"/><linearGradient id="未命名的渐变_306-15" x1="16.5" y1="-113.17" x2="17.53" y2="-113.17" gradientTransform="matrix(1.79, 0, 0, 0.47, -22.25, 132.67)" xlink:href="#未命名的渐变_306"/><linearGradient id="未命名的渐变_306-16" x1="31.64" y1="-113.17" x2="32.67" y2="-113.17" gradientTransform="matrix(1.79, 0, 0, 0.47, -22.25, 132.67)" xlink:href="#未命名的渐变_306"/><linearGradient id="未命名的渐变_306-17" x1="35.71" y1="-113.17" x2="36.74" y2="-113.17" gradientTransform="matrix(1.79, 0, 0, 0.47, -22.25, 132.67)" xlink:href="#未命名的渐变_306"/><linearGradient id="未命名的渐变_306-18" x1="21.72" y1="85.23" x2="21.72" y2="88.64" gradientTransform="matrix(1, 0, 0, 1, 0, 0)" xlink:href="#未命名的渐变_306"/><linearGradient id="未命名的渐变_59" x1="34.81" y1="11.74" x2="8.62" y2="11.74" gradientUnits="userSpaceOnUse"><stop offset="0" stop-color="#d7dce0"/><stop offset="1" stop-color="#8a9099"/></linearGradient><linearGradient id="未命名的渐变_397-5" x1="4.03" y1="77.45" x2="1.84" y2="77.45" gradientTransform="matrix(1, 0, 0, 1, 0, 0)" xlink:href="#未命名的渐变_397"/><linearGradient id="未命名的渐变_397-6" x1="47.28" y1="-33.63" x2="45.09" y2="-33.63" gradientTransform="translate(-33.26 39.63)" xlink:href="#未命名的渐变_397"/><linearGradient id="未命名的渐变_397-7" x1="61.21" y1="-28" x2="59.02" y2="-28" xlink:href="#未命名的渐变_397"/></defs><title>Process column 4(工艺塔4)</title><g id="图层_2" data-name="图层 2"><g id="图层_16" data-name="图层 16"><g id="Process_column_4_工艺塔4_" data-name="Process column 4(工艺塔4)"><rect class="cls-1" x="17.51" y="2.7" width="13.03" height="7.1"/><rect class="cls-2" x="14.73" y="5.85" width="2.19" height="7.1" rx="1.1"/><rect class="cls-3" x="26.11" y="-5.23" width="2.19" height="24.65" rx="1.1" transform="translate(20.11 34.3) rotate(-90)"/><rect class="cls-4" x="37.34" y="6" width="2.19" height="144" rx="1.09"/><polygon class="cls-5" points="17.94 105.22 5.4 88.64 1.84 88.64 14.38 105.22 17.94 105.22"/><polygon class="cls-6" points="17.94 105.22 5.4 88.64 1.84 88.64 14.38 105.22 17.94 105.22"/><polygon class="cls-7" points="25.49 105.22 38.03 88.64 41.59 88.64 29.05 105.22 25.49 105.22"/><polygon class="cls-6" points="25.49 105.22 38.03 88.64 41.59 88.64 29.05 105.22 25.49 105.22"/><polygon class="cls-8" points="17.94 57.66 5.4 41.08 1.84 41.08 14.38 57.66 17.94 57.66"/><polygon class="cls-6" points="17.94 57.66 5.4 41.08 1.84 41.08 14.38 57.66 17.94 57.66"/><polygon class="cls-9" points="25.49 57.66 38.03 41.08 41.59 41.08 29.05 57.66 25.49 57.66"/><polygon class="cls-6" points="25.49 57.66 38.03 41.08 41.59 41.08 29.05 57.66 25.49 57.66"/><polyline class="cls-10" points="33.54 13.67 33.54 150 9.86 150 9.86 13.67"/><rect class="cls-11" x="9.89" y="41.08" width="23.65" height="8.27"/><rect class="cls-12" x="9.89" y="13.67" width="23.65" height="8.15"/><circle class="cls-13" cx="21.72" cy="31.61" r="4.2"/><circle class="cls-14" cx="21.72" cy="72.71" r="4.2"/><rect class="cls-15" x="5.78" y="14.85" width="0.6" height="131.91" rx="0.28"/><rect class="cls-16" x="11.26" y="14.85" width="0.6" height="131.91" rx="0.28"/><rect class="cls-17" x="8.5" y="15.59" width="0.6" height="6.05" rx="0.3" transform="translate(-9.81 27.42) rotate(-90)"/><rect class="cls-18" x="8.5" y="19.45" width="0.6" height="6.05" rx="0.3" transform="translate(-13.67 31.28) rotate(-90)"/><rect class="cls-19" x="8.5" y="23.32" width="0.6" height="6.05" rx="0.3" transform="translate(-17.54 35.15) rotate(-90)"/><rect class="cls-20" x="8.5" y="27.18" width="0.6" height="6.05" rx="0.3" transform="translate(-21.4 39.01) rotate(-90)"/><rect class="cls-21" x="8.5" y="31.04" width="0.6" height="6.05" rx="0.3" transform="translate(-25.27 42.87) rotate(-90)"/><rect class="cls-22" x="8.5" y="34.91" width="0.6" height="6.05" rx="0.3" transform="translate(-29.13 46.74) rotate(-90)"/><rect class="cls-23" x="8.5" y="38.77" width="0.6" height="6.05" rx="0.3" transform="matrix(0, -1, 1, 0, -32.99, 50.6)"/><rect class="cls-24" x="8.5" y="42.64" width="0.6" height="6.05" rx="0.3" transform="translate(-36.86 54.47) rotate(-90)"/><rect class="cls-25" x="8.5" y="46.5" width="0.6" height="6.05" rx="0.3" transform="matrix(0, -1, 1, 0, -40.72, 58.33)"/><rect class="cls-26" x="8.5" y="50.37" width="0.6" height="6.05" rx="0.3" transform="matrix(0, -1, 1, 0, -44.59, 62.2)"/><rect class="cls-27" x="8.5" y="54.23" width="0.6" height="6.05" rx="0.3" transform="matrix(0, -1, 1, 0, -48.45, 66.06)"/><rect class="cls-28" x="8.5" y="58.09" width="0.6" height="6.05" rx="0.3" transform="translate(-52.32 69.93) rotate(-90)"/><rect class="cls-29" x="8.5" y="61.96" width="0.6" height="6.05" rx="0.3" transform="translate(-56.18 73.79) rotate(-90)"/><rect class="cls-30" x="8.5" y="65.82" width="0.6" height="6.05" rx="0.3" transform="translate(-60.04 77.65) rotate(-90)"/><rect class="cls-31" x="8.5" y="69.69" width="0.6" height="6.05" rx="0.3" transform="translate(-63.91 81.52) rotate(-90)"/><rect class="cls-32" x="8.5" y="73.55" width="0.6" height="6.05" rx="0.3" transform="matrix(0, -1, 1, 0, -67.77, 85.38)"/><rect class="cls-33" x="8.5" y="77.42" width="0.6" height="6.05" rx="0.3" transform="translate(-71.64 89.25) rotate(-90)"/><rect class="cls-34" x="8.5" y="81.28" width="0.6" height="6.05" rx="0.3" transform="matrix(0, -1, 1, 0, -75.5, 93.11)"/><rect class="cls-35" x="8.5" y="85.14" width="0.6" height="6.05" rx="0.3" transform="translate(-79.37 96.98) rotate(-90)"/><rect class="cls-36" x="8.5" y="89.01" width="0.6" height="6.05" rx="0.3" transform="translate(-83.23 100.84) rotate(-90)"/><rect class="cls-37" x="8.5" y="92.87" width="0.6" height="6.05" rx="0.3" transform="translate(-87.1 104.7) rotate(-90)"/><rect class="cls-38" x="8.5" y="96.74" width="0.6" height="6.05" rx="0.3" transform="translate(-90.96 108.57) rotate(-90)"/><rect class="cls-39" x="8.5" y="100.6" width="0.6" height="6.05" rx="0.3" transform="translate(-94.82 112.43) rotate(-90)"/><rect class="cls-40" x="8.5" y="104.47" width="0.6" height="6.05" rx="0.3" transform="translate(-98.69 116.3) rotate(-90)"/><rect class="cls-41" x="8.5" y="108.33" width="0.6" height="6.05" rx="0.3" transform="translate(-102.55 120.16) rotate(-90)"/><rect class="cls-42" x="8.5" y="112.19" width="0.6" height="6.05" rx="0.3" transform="translate(-106.42 124.03) rotate(-90)"/><rect class="cls-43" x="8.5" y="116.06" width="0.6" height="6.05" rx="0.3" transform="matrix(0, -1, 1, 0, -110.28, 127.89)"/><rect class="cls-44" x="8.5" y="119.92" width="0.6" height="6.05" rx="0.3" transform="translate(-114.15 131.75) rotate(-90)"/><rect class="cls-45" x="8.5" y="123.79" width="0.6" height="6.05" rx="0.3" transform="matrix(0, -1, 1, 0, -118.01, 135.62)"/><rect class="cls-46" x="8.5" y="127.65" width="0.6" height="6.05" rx="0.3" transform="translate(-121.87 139.48) rotate(-90)"/><rect class="cls-47" x="8.5" y="131.52" width="0.6" height="6.05" rx="0.3" transform="matrix(0, -1, 1, 0, -125.74, 143.35)"/><rect class="cls-48" x="8.5" y="135.38" width="0.6" height="6.05" rx="0.3" transform="translate(-129.6 147.21) rotate(-90)"/><rect class="cls-49" x="8.5" y="139.24" width="0.6" height="6.05" rx="0.3" transform="translate(-133.47 151.08) rotate(-90)"/><rect class="cls-50" x="8.53" y="12.11" width="0.6" height="6.08" rx="0.3" transform="translate(-6.33 23.98) rotate(-90)"/><rect class="cls-51" x="20.8" y="10.49" width="1.84" height="43.43" transform="translate(-10.49 53.92) rotate(-90)"/><rect class="cls-52" x="20.8" y="4.75" width="1.84" height="43.43" transform="translate(-4.75 48.18) rotate(-90)"/><rect class="cls-53" y="25.55" width="1.84" height="12.13"/><rect class="cls-54" x="7.25" y="25.55" width="1.84" height="12.13"/><rect class="cls-55" x="34.31" y="25.55" width="1.84" height="12.13"/><rect class="cls-56" x="41.59" y="25.55" width="1.84" height="12.13"/><rect class="cls-57" y="37.67" width="43.43" height="3.41"/><rect class="cls-58" x="20.09" y="41.08" width="3.26" height="11.12"/><rect class="cls-59" x="9.89" y="88.64" width="23.65" height="8.27"/><rect class="cls-60" x="20.8" y="58.04" width="1.84" height="43.43" transform="translate(-58.04 101.48) rotate(-90)"/><rect class="cls-61" x="20.8" y="52.3" width="1.84" height="43.43" transform="translate(-52.3 95.74) rotate(-90)"/><rect class="cls-62" y="73.1" width="1.84" height="12.13"/><rect class="cls-63" x="7.25" y="73.1" width="1.84" height="12.13"/><rect class="cls-64" x="34.31" y="73.1" width="1.84" height="12.13"/><rect class="cls-65" x="41.59" y="73.1" width="1.84" height="12.13"/><rect class="cls-66" y="85.23" width="43.43" height="3.41"/><rect class="cls-58" x="20.09" y="88.64" width="3.26" height="11.12"/><rect class="cls-67" x="8.62" y="9.8" width="26.19" height="3.87"/><rect class="cls-68" x="1.84" y="4.9" width="2.19" height="145.1" rx="1.1"/><rect class="cls-69" x="11.83" y="-5.09" width="2.19" height="22.17" rx="1.1" transform="translate(6.93 18.93) rotate(-90)"/><rect class="cls-70" x="21.83" width="2.19" height="7.1" rx="1.1"/></g></g></g></svg>