<svg xmlns="http://www.w3.org/2000/svg" xmlns:xlink="http://www.w3.org/1999/xlink" viewBox="0 0 28.42 150"><defs><style>.cls-1{fill:url(#未命名的渐变_397);}.cls-2{fill:url(#未命名的渐变_397-2);}.cls-3,.cls-36,.cls-37,.cls-38,.cls-39{opacity:0.4;}.cls-3{fill:url(#未命名的渐变_376);}.cls-4{fill:#5c6066;stroke-miterlimit:10;stroke-width:0.61px;stroke:url(#未命名的渐变_39);}.cls-5{fill:url(#未命名的渐变_60);}.cls-6{fill:url(#未命名的渐变_60-2);}.cls-7{fill:url(#未命名的渐变_60-3);}.cls-8{fill:url(#未命名的渐变_60-4);}.cls-9{fill:url(#未命名的渐变_60-5);}.cls-10{fill:url(#未命名的渐变_60-6);}.cls-11{fill:url(#未命名的渐变_60-7);}.cls-12{fill:url(#未命名的渐变_60-8);}.cls-13{fill:url(#未命名的渐变_60-9);}.cls-14{fill:url(#未命名的渐变_60-10);}.cls-15{fill:url(#未命名的渐变_60-11);}.cls-16{fill:url(#未命名的渐变_60-12);}.cls-17{fill:url(#未命名的渐变_60-13);}.cls-18{fill:url(#未命名的渐变_60-14);}.cls-19{fill:url(#未命名的渐变_60-15);}.cls-20{fill:url(#未命名的渐变_60-16);}.cls-21{fill:url(#未命名的渐变_60-17);}.cls-22{fill:url(#未命名的渐变_60-18);}.cls-23{fill:url(#未命名的渐变_60-19);}.cls-24{fill:url(#未命名的渐变_60-20);}.cls-25{fill:url(#未命名的渐变_60-21);}.cls-26{fill:url(#未命名的渐变_60-22);}.cls-27{fill:url(#未命名的渐变_60-23);}.cls-28{fill:url(#未命名的渐变_60-24);}.cls-29{fill:url(#未命名的渐变_60-25);}.cls-30{fill:url(#未命名的渐变_60-26);}.cls-31{fill:url(#未命名的渐变_60-27);}.cls-32{fill:url(#未命名的渐变_60-28);}.cls-33{fill:url(#未命名的渐变_60-29);}.cls-34{fill:url(#未命名的渐变_60-30);}.cls-35{fill:url(#未命名的渐变_60-31);}.cls-36{fill:url(#未命名的渐变_376-2);}.cls-37{fill:url(#未命名的渐变_376-3);}.cls-38{fill:url(#未命名的渐变_376-4);}.cls-39{fill:url(#未命名的渐变_376-5);}.cls-40{fill:url(#未命名的渐变_60-32);}.cls-41{fill:url(#未命名的渐变_60-33);}.cls-42{fill:url(#未命名的渐变_60-34);}.cls-43{fill:url(#未命名的渐变_60-35);}.cls-44{fill:url(#未命名的渐变_60-36);}.cls-45{fill:url(#未命名的渐变_60-37);}.cls-46{fill:url(#未命名的渐变_60-38);}.cls-47{fill:url(#未命名的渐变_306);}.cls-48{fill:url(#未命名的渐变_60-39);}.cls-49{fill:url(#未命名的渐变_60-40);}.cls-50{fill:url(#未命名的渐变_60-41);}.cls-51{fill:url(#未命名的渐变_60-42);}.cls-52{fill:url(#未命名的渐变_60-43);}.cls-53{fill:url(#未命名的渐变_60-44);}.cls-54{fill:url(#未命名的渐变_60-45);}.cls-55{fill:url(#未命名的渐变_306-2);}.cls-56{fill:url(#未命名的渐变_60-46);}.cls-57{fill:url(#未命名的渐变_60-47);}.cls-58{fill:url(#未命名的渐变_60-48);}.cls-59{fill:url(#未命名的渐变_60-49);}.cls-60{fill:url(#未命名的渐变_60-50);}.cls-61{fill:url(#未命名的渐变_60-51);}.cls-62{fill:url(#未命名的渐变_60-52);}.cls-63{fill:url(#未命名的渐变_306-3);}.cls-64{fill:url(#未命名的渐变_60-53);}.cls-65{fill:url(#未命名的渐变_60-54);}.cls-66{fill:url(#未命名的渐变_60-55);}.cls-67{fill:url(#未命名的渐变_60-56);}.cls-68{fill:url(#未命名的渐变_60-57);}.cls-69{fill:url(#未命名的渐变_60-58);}.cls-70{fill:url(#未命名的渐变_60-59);}.cls-71{fill:url(#未命名的渐变_306-4);}.cls-72{fill:url(#未命名的渐变_60-60);}.cls-73{fill:url(#未命名的渐变_60-61);}</style><linearGradient id="未命名的渐变_397" x1="100.08" y1="153.07" x2="78.4" y2="153.07" gradientTransform="translate(-74 -76)" gradientUnits="userSpaceOnUse"><stop offset="0" stop-color="#767b82"/><stop offset="0.07" stop-color="#9ba1ab"/><stop offset="0.22" stop-color="#e2eaf2"/><stop offset="0.28" stop-color="#d1d8e0"/><stop offset="0.49" stop-color="#a1a7ae"/><stop offset="0.67" stop-color="#7e8489"/><stop offset="0.81" stop-color="#696e73"/><stop offset="0.91" stop-color="#61666b"/><stop offset="1" stop-color="#a9b1bb"/></linearGradient><linearGradient id="未命名的渐变_397-2" x1="20.77" y1="-1.49" x2="9.74" y2="9.53" gradientTransform="matrix(1, 0, 0, 1, 0, 0)" xlink:href="#未命名的渐变_397"/><linearGradient id="未命名的渐变_376" x1="15.24" y1="4.19" x2="15.24" y2="13.04" gradientUnits="userSpaceOnUse"><stop offset="0" stop-color="#2e3033"/><stop offset="1" stop-color="#9ba1ab" stop-opacity="0"/></linearGradient><linearGradient id="未命名的渐变_39" x1="15.24" y1="103.35" x2="15.24" y2="93.94" gradientUnits="userSpaceOnUse"><stop offset="0" stop-color="#dce1e6"/><stop offset="1" stop-color="#5c6066"/></linearGradient><linearGradient id="未命名的渐变_60" x1="2062.66" y1="-279.03" x2="2063.63" y2="-279.03" gradientTransform="matrix(0.63, 0, 0, 0.93, -1293.68, 335.21)" gradientUnits="userSpaceOnUse"><stop offset="0" stop-color="#a9b1bb"/><stop offset="0.06" stop-color="#5d6166"/><stop offset="0.78" stop-color="#eef7ff"/><stop offset="0.93" stop-color="#9ba1ab"/><stop offset="1" stop-color="#767b82"/></linearGradient><linearGradient id="未命名的渐变_60-2" x1="2066.66" y1="-279.03" x2="2067.62" y2="-279.03" xlink:href="#未命名的渐变_60"/><linearGradient id="未命名的渐变_60-3" x1="1828.71" y1="-43713.4" x2="1829.68" y2="-43713.4" gradientTransform="translate(-1144.19 706.97) scale(0.63 0.02)" xlink:href="#未命名的渐变_60"/><linearGradient id="未命名的渐变_60-4" x1="1836.61" y1="-43713.43" x2="1837.58" y2="-43713.43" gradientTransform="translate(-1149.15 711.93) scale(0.63 0.02)" xlink:href="#未命名的渐变_60"/><linearGradient id="未命名的渐变_60-5" x1="1844.9" y1="-43713.47" x2="1845.87" y2="-43713.47" gradientTransform="translate(-1154.34 717.13) scale(0.63 0.02)" xlink:href="#未命名的渐变_60"/><linearGradient id="未命名的渐变_60-6" x1="1853.19" y1="-43713.51" x2="1854.15" y2="-43713.51" gradientTransform="translate(-1159.54 722.33) scale(0.63 0.02)" xlink:href="#未命名的渐变_60"/><linearGradient id="未命名的渐变_60-7" x1="1861.47" y1="-43713.54" x2="1862.44" y2="-43713.54" gradientTransform="translate(-1164.74 727.53) scale(0.63 0.02)" xlink:href="#未命名的渐变_60"/><linearGradient id="未命名的渐变_60-8" x1="1869.76" y1="-43713.58" x2="1870.73" y2="-43713.58" gradientTransform="translate(-1169.94 732.73) scale(0.63 0.02)" xlink:href="#未命名的渐变_60"/><linearGradient id="未命名的渐变_60-9" x1="1878.05" y1="-43713.62" x2="1879.02" y2="-43713.62" gradientTransform="translate(-1175.14 737.92) scale(0.63 0.02)" xlink:href="#未命名的渐变_60"/><linearGradient id="未命名的渐变_60-10" x1="1886.34" y1="-43713.66" x2="1887.31" y2="-43713.66" gradientTransform="translate(-1180.34 743.12) scale(0.63 0.02)" xlink:href="#未命名的渐变_60"/><linearGradient id="未命名的渐变_60-11" x1="1894.63" y1="-43713.69" x2="1895.59" y2="-43713.69" gradientTransform="translate(-1185.53 748.32) scale(0.63 0.02)" xlink:href="#未命名的渐变_60"/><linearGradient id="未命名的渐变_60-12" x1="1902.91" y1="-43713.73" x2="1903.88" y2="-43713.73" gradientTransform="translate(-1190.73 753.52) scale(0.63 0.02)" xlink:href="#未命名的渐变_60"/><linearGradient id="未命名的渐变_60-13" x1="1911.2" y1="-43713.77" x2="1912.17" y2="-43713.77" gradientTransform="translate(-1195.93 758.72) scale(0.63 0.02)" xlink:href="#未命名的渐变_60"/><linearGradient id="未命名的渐变_60-14" x1="1919.49" y1="-43713.81" x2="1920.46" y2="-43713.81" gradientTransform="translate(-1201.13 763.92) scale(0.63 0.02)" xlink:href="#未命名的渐变_60"/><linearGradient id="未命名的渐变_60-15" x1="1927.78" y1="-43713.85" x2="1928.75" y2="-43713.85" gradientTransform="translate(-1206.32 769.12) scale(0.63 0.02)" xlink:href="#未命名的渐变_60"/><linearGradient id="未命名的渐变_60-16" x1="1936.06" y1="-43713.88" x2="1937.03" y2="-43713.88" gradientTransform="translate(-1211.52 774.31) scale(0.63 0.02)" xlink:href="#未命名的渐变_60"/><linearGradient id="未命名的渐变_60-17" x1="1944.35" y1="-43713.92" x2="1945.32" y2="-43713.92" gradientTransform="translate(-1216.72 779.52) scale(0.63 0.02)" xlink:href="#未命名的渐变_60"/><linearGradient id="未命名的渐变_60-18" x1="1952.64" y1="-43713.96" x2="1953.61" y2="-43713.96" gradientTransform="translate(-1221.92 784.71) scale(0.63 0.02)" xlink:href="#未命名的渐变_60"/><linearGradient id="未命名的渐变_60-19" x1="1960.93" y1="-43714" x2="1961.9" y2="-43714" gradientTransform="translate(-1227.12 789.91) scale(0.63 0.02)" xlink:href="#未命名的渐变_60"/><linearGradient id="未命名的渐变_60-20" x1="1969.22" y1="-43714.03" x2="1970.18" y2="-43714.03" gradientTransform="translate(-1232.32 795.11) scale(0.63 0.02)" xlink:href="#未命名的渐变_60"/><linearGradient id="未命名的渐变_60-21" x1="1977.5" y1="-43714.07" x2="1978.47" y2="-43714.07" gradientTransform="translate(-1237.51 800.31) scale(0.63 0.02)" xlink:href="#未命名的渐变_60"/><linearGradient id="未命名的渐变_60-22" x1="1985.79" y1="-43714.11" x2="1986.76" y2="-43714.11" gradientTransform="translate(-1242.71 805.51) scale(0.63 0.02)" xlink:href="#未命名的渐变_60"/><linearGradient id="未命名的渐变_60-23" x1="1994.08" y1="-43714.15" x2="1995.05" y2="-43714.15" gradientTransform="translate(-1247.91 810.7) scale(0.63 0.02)" xlink:href="#未命名的渐变_60"/><linearGradient id="未命名的渐变_60-24" x1="2002.37" y1="-43714.18" x2="2003.34" y2="-43714.18" gradientTransform="translate(-1253.11 815.9) scale(0.63 0.02)" xlink:href="#未命名的渐变_60"/><linearGradient id="未命名的渐变_60-25" x1="2010.66" y1="-43714.22" x2="2011.62" y2="-43714.22" gradientTransform="translate(-1258.31 821.1) scale(0.63 0.02)" xlink:href="#未命名的渐变_60"/><linearGradient id="未命名的渐变_60-26" x1="2019" y1="-43714.26" x2="2019.97" y2="-43714.26" gradientTransform="translate(-1263.54 826.34) scale(0.63 0.02)" xlink:href="#未命名的渐变_60"/><linearGradient id="未命名的渐变_60-27" x1="2027.35" y1="-43714.3" x2="2028.32" y2="-43714.3" gradientTransform="translate(-1268.78 831.57) scale(0.63 0.02)" xlink:href="#未命名的渐变_60"/><linearGradient id="未命名的渐变_60-28" x1="2035.69" y1="-43714.34" x2="2036.66" y2="-43714.34" gradientTransform="translate(-1274.01 836.81) scale(0.63 0.02)" xlink:href="#未命名的渐变_60"/><linearGradient id="未命名的渐变_60-29" x1="2044.04" y1="-43714.37" x2="2045.01" y2="-43714.37" gradientTransform="translate(-1279.24 842.04) scale(0.63 0.02)" xlink:href="#未命名的渐变_60"/><linearGradient id="未命名的渐变_60-30" x1="2052.39" y1="-43714.41" x2="2053.35" y2="-43714.41" gradientTransform="translate(-1284.48 847.28) scale(0.63 0.02)" xlink:href="#未命名的渐变_60"/><linearGradient id="未命名的渐变_60-31" x1="2060.73" y1="-43714.45" x2="2061.7" y2="-43714.45" gradientTransform="translate(-1289.71 852.51) scale(0.63 0.02)" xlink:href="#未命名的渐变_60"/><linearGradient id="未命名的渐变_376-2" x1="15.24" y1="52.73" x2="15.24" y2="55.95" xlink:href="#未命名的渐变_376"/><linearGradient id="未命名的渐变_376-3" x1="15.24" y1="112.51" x2="15.24" y2="115.73" xlink:href="#未命名的渐变_376"/><linearGradient id="未命名的渐变_376-4" x1="15.24" y1="138.42" x2="15.24" y2="141.64" xlink:href="#未命名的渐变_376"/><linearGradient id="未命名的渐变_376-5" x1="15.24" y1="16.34" x2="15.24" y2="19.56" xlink:href="#未命名的渐变_376"/><linearGradient id="未命名的渐变_60-32" x1="678.94" y1="162.55" x2="679.88" y2="162.55" gradientTransform="matrix(0.63, 0, 0, 0.51, -398.14, -70.58)" xlink:href="#未命名的渐变_60"/><linearGradient id="未命名的渐变_60-33" x1="637.92" y1="162.55" x2="638.87" y2="162.55" gradientTransform="matrix(0.63, 0, 0, 0.51, -398.14, -70.58)" xlink:href="#未命名的渐变_60"/><linearGradient id="未命名的渐变_60-34" x1="644.36" y1="162.55" x2="645.31" y2="162.55" gradientTransform="matrix(0.63, 0, 0, 0.51, -398.14, -70.58)" xlink:href="#未命名的渐变_60"/><linearGradient id="未命名的渐变_60-35" x1="673.18" y1="162.55" x2="674.13" y2="162.55" gradientTransform="matrix(0.63, 0, 0, 0.51, -398.14, -70.58)" xlink:href="#未命名的渐变_60"/><linearGradient id="未命名的渐变_60-36" x1="658.41" y1="162.55" x2="659.35" y2="162.55" gradientTransform="matrix(0.63, 0, 0, 0.51, -398.14, -70.58)" xlink:href="#未命名的渐变_60"/><linearGradient id="未命名的渐变_60-37" x1="89.68" y1="-1155.55" x2="90.63" y2="-1155.55" gradientTransform="matrix(0.63, 0, 0, 0.93, -41.38, 1089.25)" xlink:href="#未命名的渐变_60"/><linearGradient id="未命名的渐变_60-38" x1="91.91" y1="-1155.44" x2="92.86" y2="-1155.44" gradientTransform="matrix(0.63, 0, 0, 0.93, -42.7, 1085.75)" xlink:href="#未命名的渐变_60"/><linearGradient id="未命名的渐变_306" x1="15.26" y1="14.2" x2="15.26" y2="16.34" gradientUnits="userSpaceOnUse"><stop offset="0.02" stop-color="#767b82"/><stop offset="0.04" stop-color="#d7dce0"/><stop offset="0.09" stop-color="#9ba1ab"/><stop offset="0.92" stop-color="#9ba1ab"/><stop offset="1" stop-color="#767b82"/></linearGradient><linearGradient id="未命名的渐变_60-39" x1="678.94" y1="234.54" x2="679.88" y2="234.54" gradientTransform="matrix(0.63, 0, 0, 0.51, -398.14, -70.58)" xlink:href="#未命名的渐变_60"/><linearGradient id="未命名的渐变_60-40" x1="637.92" y1="234.54" x2="638.87" y2="234.54" gradientTransform="matrix(0.63, 0, 0, 0.51, -398.14, -70.58)" xlink:href="#未命名的渐变_60"/><linearGradient id="未命名的渐变_60-41" x1="644.36" y1="234.54" x2="645.31" y2="234.54" gradientTransform="matrix(0.63, 0, 0, 0.51, -398.14, -70.58)" xlink:href="#未命名的渐变_60"/><linearGradient id="未命名的渐变_60-42" x1="673.18" y1="234.54" x2="674.13" y2="234.54" gradientTransform="matrix(0.63, 0, 0, 0.51, -398.14, -70.58)" xlink:href="#未命名的渐变_60"/><linearGradient id="未命名的渐变_60-43" x1="658.41" y1="234.54" x2="659.35" y2="234.54" gradientTransform="matrix(0.63, 0, 0, 0.51, -398.14, -70.58)" xlink:href="#未命名的渐变_60"/><linearGradient id="未命名的渐变_60-44" x1="31.66" y1="-1155.55" x2="32.61" y2="-1155.55" gradientTransform="matrix(0.63, 0, 0, 0.93, -4.99, 1125.64)" xlink:href="#未命名的渐变_60"/><linearGradient id="未命名的渐变_60-45" x1="33.91" y1="-1155.44" x2="34.85" y2="-1155.44" gradientTransform="matrix(0.63, 0, 0, 0.93, -6.31, 1122.14)" xlink:href="#未命名的渐变_60"/><linearGradient id="未命名的渐变_306-2" x1="15.26" y1="50.59" x2="15.26" y2="52.73" xlink:href="#未命名的渐变_306"/><linearGradient id="未命名的渐变_60-46" x1="678.94" y1="352.79" x2="679.88" y2="352.79" gradientTransform="matrix(0.63, 0, 0, 0.51, -398.14, -70.58)" xlink:href="#未命名的渐变_60"/><linearGradient id="未命名的渐变_60-47" x1="637.92" y1="352.79" x2="638.87" y2="352.79" gradientTransform="matrix(0.63, 0, 0, 0.51, -398.14, -70.58)" xlink:href="#未命名的渐变_60"/><linearGradient id="未命名的渐变_60-48" x1="644.36" y1="352.79" x2="645.31" y2="352.79" gradientTransform="matrix(0.63, 0, 0, 0.51, -398.14, -70.58)" xlink:href="#未命名的渐变_60"/><linearGradient id="未命名的渐变_60-49" x1="673.18" y1="352.79" x2="674.13" y2="352.79" gradientTransform="matrix(0.63, 0, 0, 0.51, -398.14, -70.58)" xlink:href="#未命名的渐变_60"/><linearGradient id="未命名的渐变_60-50" x1="658.41" y1="352.79" x2="659.35" y2="352.79" gradientTransform="matrix(0.63, 0, 0, 0.51, -398.14, -70.58)" xlink:href="#未命名的渐变_60"/><linearGradient id="未命名的渐变_60-51" x1="-63.65" y1="-1155.56" x2="-62.71" y2="-1155.56" gradientTransform="matrix(0.63, 0, 0, 0.93, 54.79, 1185.42)" xlink:href="#未命名的渐变_60"/><linearGradient id="未命名的渐变_60-52" x1="-61.37" y1="-1155.44" x2="-60.43" y2="-1155.44" gradientTransform="matrix(0.63, 0, 0, 0.93, 53.47, 1181.92)" xlink:href="#未命名的渐变_60"/><linearGradient id="未命名的渐变_306-3" x1="15.26" y1="110.37" x2="15.26" y2="112.51" xlink:href="#未命名的渐变_306"/><linearGradient id="未命名的渐变_60-53" x1="678.94" y1="404.06" x2="679.88" y2="404.06" gradientTransform="matrix(0.63, 0, 0, 0.51, -398.14, -70.58)" xlink:href="#未命名的渐变_60"/><linearGradient id="未命名的渐变_60-54" x1="637.92" y1="404.05" x2="638.87" y2="404.05" gradientTransform="matrix(0.63, 0, 0, 0.51, -398.14, -70.58)" xlink:href="#未命名的渐变_60"/><linearGradient id="未命名的渐变_60-55" x1="644.36" y1="404.05" x2="645.31" y2="404.05" gradientTransform="matrix(0.63, 0, 0, 0.51, -398.14, -70.58)" xlink:href="#未命名的渐变_60"/><linearGradient id="未命名的渐变_60-56" x1="673.18" y1="404.06" x2="674.13" y2="404.06" gradientTransform="matrix(0.63, 0, 0, 0.51, -398.14, -70.58)" xlink:href="#未命名的渐变_60"/><linearGradient id="未命名的渐变_60-57" x1="658.41" y1="404.05" x2="659.35" y2="404.05" gradientTransform="matrix(0.63, 0, 0, 0.51, -398.14, -70.58)" xlink:href="#未命名的渐变_60"/><linearGradient id="未命名的渐变_60-58" x1="-104.98" y1="-1155.56" x2="-104.03" y2="-1155.56" gradientTransform="matrix(0.63, 0, 0, 0.93, 80.7, 1211.34)" xlink:href="#未命名的渐变_60"/><linearGradient id="未命名的渐变_60-59" x1="-102.68" y1="-1155.44" x2="-101.74" y2="-1155.44" gradientTransform="matrix(0.63, 0, 0, 0.93, 79.39, 1207.84)" xlink:href="#未命名的渐变_60"/><linearGradient id="未命名的渐变_306-4" x1="15.26" y1="136.29" x2="15.26" y2="138.42" xlink:href="#未命名的渐变_306"/><linearGradient id="未命名的渐变_60-60" x1="953.26" y1="-268.37" x2="953.97" y2="-268.37" gradientTransform="matrix(2.46, 0, 0, 0.93, -2332.13, 335.22)" xlink:href="#未命名的渐变_60"/><linearGradient id="未命名的渐变_60-61" x1="958.54" y1="-268.37" x2="959.25" y2="-268.37" gradientTransform="matrix(2.46, 0, 0, 0.93, -2332.13, 335.22)" xlink:href="#未命名的渐变_60"/></defs><title>Refinery tower(炼油塔)</title><g id="图层_2" data-name="图层 2"><g id="图层_16" data-name="图层 16"><g id="Refinery_tower_炼油塔_" data-name="Refinery tower(炼油塔)"><polyline class="cls-1" points="26.08 4.14 26.08 150 4.4 150 4.4 4.14"/><path class="cls-2" d="M26.11,4.19S24.6.07,15.25.07,4.4,4.19,4.4,4.19Z"/><rect class="cls-3" x="4.37" y="4.19" width="21.75" height="8.85"/><circle class="cls-4" cx="15.24" cy="98.65" r="4.4"/><rect class="cls-5" width="0.61" height="149.61" rx="0.3"/><rect class="cls-6" x="2.51" width="0.61" height="149.61" rx="0.3"/><rect class="cls-7" x="2.59" y="-2.59" width="0.61" height="5.79" rx="0.3" transform="translate(3.2 -2.59) rotate(90.01)"/><rect class="cls-8" x="2.59" y="2.36" width="0.61" height="5.79" rx="0.3" transform="translate(8.15 2.36) rotate(90.01)"/><rect class="cls-9" x="2.59" y="7.56" width="0.61" height="5.79" rx="0.3" transform="translate(13.35 7.56) rotate(90.01)"/><rect class="cls-10" x="2.59" y="12.76" width="0.61" height="5.79" rx="0.3" transform="translate(18.55 12.76) rotate(90.01)"/><rect class="cls-11" x="2.59" y="17.96" width="0.61" height="5.79" rx="0.3" transform="translate(23.75 17.96) rotate(90.01)"/><rect class="cls-12" x="2.59" y="23.16" width="0.61" height="5.79" rx="0.3" transform="translate(28.94 23.16) rotate(90.01)"/><rect class="cls-13" x="2.59" y="28.35" width="0.61" height="5.79" rx="0.3" transform="translate(34.14 28.36) rotate(90.01)"/><rect class="cls-14" x="2.59" y="33.55" width="0.61" height="5.79" rx="0.3" transform="translate(39.34 33.56) rotate(90.01)"/><rect class="cls-15" x="2.59" y="38.75" width="0.61" height="5.79" rx="0.3" transform="translate(44.54 38.76) rotate(90.01)"/><rect class="cls-16" x="2.59" y="43.95" width="0.61" height="5.79" rx="0.3" transform="translate(49.74 43.95) rotate(90.01)"/><rect class="cls-17" x="2.59" y="49.15" width="0.61" height="5.79" rx="0.3" transform="translate(54.93 49.15) rotate(90.01)"/><rect class="cls-18" x="2.59" y="54.34" width="0.61" height="5.79" rx="0.3" transform="translate(60.13 54.35) rotate(90.01)"/><rect class="cls-19" x="2.59" y="59.54" width="0.61" height="5.79" rx="0.3" transform="translate(65.33 59.55) rotate(90.01)"/><rect class="cls-20" x="2.59" y="64.74" width="0.61" height="5.79" rx="0.3" transform="translate(70.53 64.75) rotate(90.01)"/><rect class="cls-21" x="2.59" y="69.94" width="0.61" height="5.79" rx="0.3" transform="translate(75.73 69.95) rotate(90.01)"/><rect class="cls-22" x="2.59" y="75.14" width="0.61" height="5.79" rx="0.3" transform="translate(80.92 75.15) rotate(90.01)"/><rect class="cls-23" x="2.59" y="80.33" width="0.61" height="5.79" rx="0.3" transform="translate(86.12 80.34) rotate(90.01)"/><rect class="cls-24" x="2.59" y="85.53" width="0.61" height="5.79" rx="0.3" transform="translate(91.32 85.54) rotate(90.01)"/><rect class="cls-25" x="2.59" y="90.73" width="0.61" height="5.79" rx="0.3" transform="translate(96.52 90.74) rotate(90.01)"/><rect class="cls-26" x="2.59" y="95.93" width="0.61" height="5.79" rx="0.3" transform="translate(101.72 95.94) rotate(90.01)"/><rect class="cls-27" x="2.59" y="101.13" width="0.61" height="5.79" rx="0.3" transform="translate(106.92 101.14) rotate(90.01)"/><rect class="cls-28" x="2.59" y="106.32" width="0.61" height="5.79" rx="0.3" transform="translate(112.11 106.34) rotate(90.01)"/><rect class="cls-29" x="2.59" y="111.52" width="0.61" height="5.79" rx="0.3" transform="translate(117.31 111.54) rotate(90.01)"/><rect class="cls-30" x="2.59" y="116.76" width="0.61" height="5.79" rx="0.3" transform="translate(122.55 116.77) rotate(90.01)"/><rect class="cls-31" x="2.59" y="121.99" width="0.61" height="5.79" rx="0.3" transform="translate(127.78 122.01) rotate(90.01)"/><rect class="cls-32" x="2.59" y="127.23" width="0.61" height="5.79" rx="0.3" transform="translate(133.01 127.24) rotate(90.01)"/><rect class="cls-33" x="2.59" y="132.46" width="0.61" height="5.79" rx="0.3" transform="translate(138.25 132.48) rotate(90.01)"/><rect class="cls-34" x="2.59" y="137.7" width="0.61" height="5.79" rx="0.3" transform="translate(143.48 137.71) rotate(90.01)"/><rect class="cls-35" x="2.59" y="142.93" width="0.61" height="5.79" rx="0.3" transform="translate(148.72 142.95) rotate(90.01)"/><rect class="cls-36" x="4.4" y="52.73" width="21.68" height="3.22"/><rect class="cls-37" x="4.4" y="112.51" width="21.68" height="3.22"/><rect class="cls-38" x="4.4" y="138.42" width="21.68" height="3.22"/><rect class="cls-39" x="4.4" y="16.34" width="21.68" height="3.22"/><rect class="cls-40" x="27.82" y="7.21" width="0.59" height="8.75" rx="0.23"/><rect class="cls-41" x="2.09" y="7.21" width="0.59" height="8.75" rx="0.23"/><rect class="cls-42" x="6.13" y="7.21" width="0.59" height="8.75" rx="0.23"/><rect class="cls-43" x="24.21" y="7.21" width="0.59" height="8.75" rx="0.23"/><rect class="cls-44" x="14.95" y="7.21" width="0.59" height="8.75" rx="0.23"/><rect class="cls-45" x="14.87" y="-2.17" width="0.59" height="26.15" rx="0.3" transform="translate(4.27 26.07) rotate(-90)"/><rect class="cls-46" x="14.98" y="-5.63" width="0.59" height="26.27" rx="0.3" transform="translate(7.76 22.78) rotate(-90)"/><rect class="cls-47" x="2.09" y="14.2" width="26.33" height="2.13"/><rect class="cls-48" x="27.82" y="43.6" width="0.59" height="8.75" rx="0.23"/><rect class="cls-49" x="2.09" y="43.6" width="0.59" height="8.75" rx="0.23"/><rect class="cls-50" x="6.13" y="43.6" width="0.59" height="8.75" rx="0.23"/><rect class="cls-51" x="24.21" y="43.6" width="0.59" height="8.75" rx="0.23"/><rect class="cls-52" x="14.95" y="43.6" width="0.59" height="8.75" rx="0.23"/><rect class="cls-53" x="14.87" y="34.22" width="0.59" height="26.15" rx="0.3" transform="translate(-32.12 62.46) rotate(-90)"/><rect class="cls-54" x="14.98" y="30.76" width="0.59" height="26.27" rx="0.3" transform="translate(-28.63 59.17) rotate(-90)"/><rect class="cls-55" x="2.09" y="50.59" width="26.33" height="2.13"/><rect class="cls-56" x="27.82" y="103.38" width="0.59" height="8.75" rx="0.23"/><rect class="cls-57" x="2.09" y="103.38" width="0.59" height="8.75" rx="0.23"/><rect class="cls-58" x="6.13" y="103.38" width="0.59" height="8.75" rx="0.23"/><rect class="cls-59" x="24.21" y="103.38" width="0.59" height="8.75" rx="0.23"/><rect class="cls-60" x="14.95" y="103.38" width="0.59" height="8.75" rx="0.23"/><rect class="cls-61" x="14.87" y="94" width="0.59" height="26.15" rx="0.3" transform="translate(-91.9 122.24) rotate(-90)"/><rect class="cls-62" x="14.98" y="90.54" width="0.59" height="26.27" rx="0.3" transform="translate(-88.41 118.95) rotate(-90)"/><rect class="cls-63" x="2.09" y="110.37" width="26.33" height="2.13"/><rect class="cls-64" x="27.82" y="129.3" width="0.59" height="8.75" rx="0.23"/><rect class="cls-65" x="2.09" y="129.3" width="0.59" height="8.75" rx="0.23"/><rect class="cls-66" x="6.13" y="129.3" width="0.59" height="8.75" rx="0.23"/><rect class="cls-67" x="24.21" y="129.3" width="0.59" height="8.75" rx="0.23"/><rect class="cls-68" x="14.95" y="129.3" width="0.59" height="8.75" rx="0.23"/><rect class="cls-69" x="14.87" y="119.91" width="0.59" height="26.15" rx="0.3" transform="translate(-117.82 148.16) rotate(-90)"/><rect class="cls-70" x="14.98" y="116.46" width="0.59" height="26.27" rx="0.3" transform="translate(-114.32 144.87) rotate(-90)"/><rect class="cls-71" x="2.09" y="136.29" width="26.33" height="2.13"/><rect class="cls-72" x="8.6" y="24.79" width="1.74" height="119.95" rx="0.87"/><rect class="cls-73" x="21.57" y="56.19" width="1.74" height="57.14" rx="0.87"/></g></g></g></svg>