<svg xmlns="http://www.w3.org/2000/svg" xmlns:xlink="http://www.w3.org/1999/xlink" viewBox="0 0 24.8 150"><defs><style>.cls-1{fill:url(#未命名的渐变_62);}.cls-2{fill:url(#未命名的渐变_62-2);}.cls-3{fill:url(#未命名的渐变_62-3);}.cls-4{fill:url(#未命名的渐变_62-4);}.cls-5{fill:url(#未命名的渐变_62-5);}.cls-6{fill:url(#未命名的渐变_62-6);}.cls-7{fill:url(#未命名的渐变_62-7);}.cls-8{fill:url(#未命名的渐变_62-8);}.cls-9{fill:url(#未命名的渐变_62-9);}.cls-10{fill:url(#未命名的渐变_62-10);}.cls-11{fill:url(#未命名的渐变_62-11);}.cls-12{fill:url(#未命名的渐变_62-12);}.cls-13{fill:url(#未命名的渐变_62-13);}.cls-14{fill:url(#未命名的渐变_62-14);}.cls-15{fill:url(#未命名的渐变_62-15);}.cls-16{fill:url(#未命名的渐变_62-16);}.cls-17{fill:url(#未命名的渐变_62-17);}.cls-18{fill:url(#未命名的渐变_62-18);}.cls-19{fill:url(#未命名的渐变_62-19);}.cls-20{fill:url(#未命名的渐变_62-20);}.cls-21{fill:url(#未命名的渐变_62-21);}.cls-22{fill:url(#未命名的渐变_62-22);}.cls-23{fill:url(#未命名的渐变_62-23);}.cls-24{fill:url(#未命名的渐变_62-24);}.cls-25{fill:url(#未命名的渐变_62-25);}.cls-26{fill:url(#未命名的渐变_62-26);}.cls-27{fill:url(#未命名的渐变_62-27);}.cls-28{fill:url(#未命名的渐变_62-28);}.cls-29{fill:url(#未命名的渐变_62-29);}.cls-30{fill:url(#未命名的渐变_62-30);}.cls-31{fill:url(#未命名的渐变_62-31);}.cls-32{fill:url(#未命名的渐变_62-32);}.cls-33{fill:url(#未命名的渐变_62-33);}.cls-34{fill:url(#未命名的渐变_62-34);}.cls-35{fill:url(#未命名的渐变_62-35);}.cls-36{fill:url(#未命名的渐变_62-36);}.cls-37{fill:url(#未命名的渐变_62-37);}.cls-38{fill:url(#未命名的渐变_62-38);}.cls-39{fill:url(#未命名的渐变_62-39);}.cls-40{fill:url(#未命名的渐变_62-40);}.cls-41{fill:url(#未命名的渐变_62-41);}.cls-42{fill:url(#未命名的渐变_62-42);}.cls-43{fill:url(#未命名的渐变_62-43);}.cls-44{fill:url(#未命名的渐变_62-44);}.cls-45{fill:url(#未命名的渐变_62-45);}.cls-46{fill:url(#未命名的渐变_62-46);}.cls-47{fill:url(#未命名的渐变_62-47);}.cls-48{fill:url(#未命名的渐变_62-48);}.cls-49{fill:url(#未命名的渐变_62-49);}.cls-50{fill:url(#未命名的渐变_62-50);}.cls-51{fill:url(#未命名的渐变_62-51);}.cls-52{fill:url(#未命名的渐变_62-52);}.cls-53{fill:url(#未命名的渐变_62-53);}.cls-54{fill:url(#未命名的渐变_62-54);}.cls-55{fill:url(#未命名的渐变_62-55);}.cls-56{fill:url(#未命名的渐变_62-56);}.cls-57{fill:url(#未命名的渐变_62-57);}.cls-58{fill:url(#未命名的渐变_62-58);}.cls-59{fill:url(#未命名的渐变_62-59);}.cls-60{fill:url(#未命名的渐变_62-60);}.cls-61{fill:url(#未命名的渐变_62-61);}.cls-62{fill:url(#未命名的渐变_62-62);}.cls-63{fill:url(#未命名的渐变_62-63);}.cls-64{fill:url(#未命名的渐变_62-64);}.cls-65{fill:url(#未命名的渐变_62-65);}.cls-66{fill:url(#未命名的渐变_62-66);}.cls-67{fill:url(#未命名的渐变_62-67);}.cls-68{fill:url(#未命名的渐变_62-68);}.cls-69{fill:url(#未命名的渐变_62-69);}.cls-70{fill:url(#未命名的渐变_62-70);}.cls-71{fill:url(#未命名的渐变_62-71);}.cls-72{fill:url(#未命名的渐变_62-72);}.cls-73{fill:url(#未命名的渐变_62-73);}.cls-74{fill:url(#未命名的渐变_62-74);}.cls-75{fill:url(#未命名的渐变_62-75);}.cls-76{fill:url(#未命名的渐变_62-76);}.cls-77{fill:url(#未命名的渐变_62-77);}.cls-78{fill:url(#未命名的渐变_62-78);}.cls-79{fill:url(#未命名的渐变_62-79);}.cls-80{fill:url(#未命名的渐变_62-80);}.cls-81{fill:url(#未命名的渐变_62-81);}.cls-82{fill:url(#未命名的渐变_62-82);}.cls-83{fill:url(#未命名的渐变_62-83);}.cls-84{fill:url(#未命名的渐变_62-84);}.cls-85{fill:url(#未命名的渐变_62-85);}.cls-86{fill:url(#未命名的渐变_62-86);}.cls-87{fill:url(#未命名的渐变_62-87);}.cls-88{fill:url(#未命名的渐变_62-88);}.cls-89{fill:url(#未命名的渐变_62-89);}.cls-90{fill:url(#未命名的渐变_62-90);}.cls-91{fill:url(#未命名的渐变_62-91);}.cls-92{fill:url(#未命名的渐变_62-92);}.cls-93{fill:url(#未命名的渐变_62-93);}.cls-94{fill:url(#未命名的渐变_62-94);}.cls-95{fill:url(#未命名的渐变_62-95);}.cls-96{fill:url(#未命名的渐变_62-96);}.cls-97{fill:url(#未命名的渐变_62-97);}.cls-98{fill:url(#未命名的渐变_62-98);}.cls-99{fill:url(#未命名的渐变_62-99);}.cls-100{fill:url(#未命名的渐变_62-100);}.cls-101{fill:url(#未命名的渐变_62-101);}.cls-102{fill:url(#未命名的渐变_62-102);}.cls-103{fill:url(#未命名的渐变_62-103);}.cls-104{fill:url(#未命名的渐变_62-104);}.cls-105{fill:url(#未命名的渐变_62-105);}.cls-106{fill:url(#未命名的渐变_62-106);}.cls-107{fill:url(#未命名的渐变_62-107);}.cls-108{fill:url(#未命名的渐变_62-108);}.cls-109{fill:url(#未命名的渐变_62-109);}.cls-110{fill:url(#未命名的渐变_62-110);}.cls-111{fill:url(#未命名的渐变_62-111);}.cls-112{fill:url(#未命名的渐变_62-112);}.cls-113{fill:url(#未命名的渐变_62-113);}.cls-114{fill:url(#未命名的渐变_306);}.cls-115{fill:url(#未命名的渐变_306-2);}.cls-116{fill:url(#未命名的渐变_306-3);}.cls-117{fill:url(#未命名的渐变_306-4);}.cls-118{fill:url(#未命名的渐变_306-5);}.cls-119{fill:url(#未命名的渐变_306-6);}.cls-120{fill:url(#未命名的渐变_306-7);}.cls-121{fill:url(#未命名的渐变_85);}.cls-122{opacity:0.4;}.cls-123{fill:url(#未命名的渐变_85-2);}.cls-124{fill:url(#未命名的渐变_85-3);}.cls-125,.cls-129,.cls-138,.cls-144{opacity:0.2;}.cls-125{fill:url(#未命名的渐变_376);}.cls-126{fill:url(#未命名的渐变_82);}.cls-127{fill:url(#未命名的渐变_82-2);}.cls-128{fill:url(#未命名的渐变_85-4);}.cls-129{fill:url(#未命名的渐变_376-2);}.cls-130{fill:url(#未命名的渐变_82-3);}.cls-131{fill:url(#未命名的渐变_82-4);}.cls-132{fill:url(#未命名的渐变_85-5);}.cls-133{fill:url(#未命名的渐变_85-6);}.cls-134{fill:url(#未命名的渐变_94);}.cls-135{fill:url(#未命名的渐变_94-2);}.cls-136{fill:url(#未命名的渐变_94-3);}.cls-137{fill:url(#未命名的渐变_94-4);}.cls-138{fill:url(#未命名的渐变_376-3);}.cls-139{fill:url(#未命名的渐变_85-7);}.cls-140{fill:url(#未命名的渐变_85-8);}.cls-141{fill:url(#未命名的渐变_85-9);}.cls-142{fill:url(#未命名的渐变_92);}.cls-143{fill:url(#未命名的渐变_94-5);}.cls-144{fill:url(#未命名的渐变_376-4);}.cls-145{fill:url(#未命名的渐变_82-5);}.cls-146{fill:url(#未命名的渐变_94-6);}.cls-147{fill:url(#未命名的渐变_94-7);}.cls-148{fill:url(#未命名的渐变_94-8);}.cls-149{fill:url(#未命名的渐变_94-9);}.cls-150{fill:#666b71;}</style><linearGradient id="未命名的渐变_62" x1="665.48" y1="103.92" x2="666.44" y2="103.92" gradientTransform="matrix(0.63, 0, 0, 0.51, -398.81, 26.01)" gradientUnits="userSpaceOnUse"><stop offset="0" stop-color="#a9b1bb"/><stop offset="0.06" stop-color="#5d6166"/><stop offset="0.78" stop-color="#eef7ff"/><stop offset="0.93" stop-color="#9ba1ab"/><stop offset="1" stop-color="#767b82"/></linearGradient><linearGradient id="未命名的渐变_62-2" x1="674.23" y1="103.92" x2="675.19" y2="103.92" xlink:href="#未命名的渐变_62"/><linearGradient id="未命名的渐变_62-3" x1="379.72" y1="-951.24" x2="380.69" y2="-951.24" gradientTransform="matrix(0.63, 0, 0, 0.93, -216.72, 910.87)" xlink:href="#未命名的渐变_62"/><linearGradient id="未命名的渐变_62-4" x1="354.44" y1="-951.24" x2="355.41" y2="-951.24" gradientTransform="matrix(0.63, 0, 0, 0.93, -200.87, 926.73)" xlink:href="#未命名的渐变_62"/><linearGradient id="未命名的渐变_62-5" x1="329.16" y1="-951.24" x2="330.13" y2="-951.24" gradientTransform="matrix(0.63, 0, 0, 0.93, -185.01, 942.58)" xlink:href="#未命名的渐变_62"/><linearGradient id="未命名的渐变_62-6" x1="301.94" y1="-951.24" x2="302.91" y2="-951.24" gradientTransform="matrix(0.63, 0, 0, 0.93, -167.94, 959.66)" xlink:href="#未命名的渐变_62"/><linearGradient id="未命名的渐变_62-7" x1="274.72" y1="-951.24" x2="275.68" y2="-951.24" gradientTransform="matrix(0.63, 0, 0, 0.93, -150.87, 976.73)" xlink:href="#未命名的渐变_62"/><linearGradient id="未命名的渐变_62-8" x1="247.49" y1="-951.24" x2="248.46" y2="-951.24" gradientTransform="matrix(0.63, 0, 0, 0.93, -133.79, 993.81)" xlink:href="#未命名的渐变_62"/><linearGradient id="未命名的渐变_62-9" x1="220.27" y1="-951.24" x2="221.23" y2="-951.24" gradientTransform="matrix(0.63, 0, 0, 0.93, -116.72, 1010.88)" xlink:href="#未命名的渐变_62"/><linearGradient id="未命名的渐变_62-10" x1="193.05" y1="-951.24" x2="194.01" y2="-951.24" gradientTransform="matrix(0.63, 0, 0, 0.93, -99.64, 1027.95)" xlink:href="#未命名的渐变_62"/><linearGradient id="未命名的渐变_62-11" x1="15.75" y1="72.73" x2="16.34" y2="72.73" gradientTransform="matrix(1, 0, 0, -1, 2.96, 80.56)" xlink:href="#未命名的渐变_62"/><linearGradient id="未命名的渐变_62-12" x1="16.46" y1="72.86" x2="17.04" y2="72.86" gradientTransform="matrix(1, -0.02, -0.02, -1, 3.43, 80.92)" xlink:href="#未命名的渐变_62"/><linearGradient id="未命名的渐变_62-13" x1="17.16" y1="72.99" x2="17.75" y2="72.99" gradientTransform="matrix(1, -0.03, -0.03, -1, 3.91, 81.29)" xlink:href="#未命名的渐变_62"/><linearGradient id="未命名的渐变_62-14" x1="17.87" y1="73.12" x2="18.45" y2="73.12" gradientTransform="matrix(1, -0.05, -0.05, -1, 4.39, 81.67)" xlink:href="#未命名的渐变_62"/><linearGradient id="未命名的渐变_62-15" x1="18.57" y1="73.25" x2="19.16" y2="73.25" gradientTransform="matrix(1, -0.06, -0.06, -1, 4.88, 82.04)" xlink:href="#未命名的渐变_62"/><linearGradient id="未命名的渐变_62-16" x1="19.28" y1="73.38" x2="19.86" y2="73.38" gradientTransform="matrix(1, -0.08, -0.08, -1, 5.38, 82.42)" xlink:href="#未命名的渐变_62"/><linearGradient id="未命名的渐变_62-17" x1="19.98" y1="73.51" x2="20.57" y2="73.51" gradientTransform="matrix(1, -0.1, -0.1, -1, 5.88, 82.81)" xlink:href="#未命名的渐变_62"/><linearGradient id="未命名的渐变_62-18" x1="20.69" y1="73.64" x2="21.27" y2="73.64" gradientTransform="matrix(0.99, -0.11, -0.11, -0.99, 6.4, 83.19)" xlink:href="#未命名的渐变_62"/><linearGradient id="未命名的渐变_62-19" x1="21.39" y1="73.77" x2="21.98" y2="73.77" gradientTransform="matrix(0.99, -0.13, -0.13, -0.99, 6.92, 83.58)" xlink:href="#未命名的渐变_62"/><linearGradient id="未命名的渐变_62-20" x1="22.1" y1="73.9" x2="22.68" y2="73.9" gradientTransform="matrix(0.99, -0.14, -0.14, -0.99, 7.46, 83.97)" xlink:href="#未命名的渐变_62"/><linearGradient id="未命名的渐变_62-21" x1="22.8" y1="74.03" x2="23.38" y2="74.03" gradientTransform="matrix(0.99, -0.16, -0.16, -0.99, 8, 84.36)" xlink:href="#未命名的渐变_62"/><linearGradient id="未命名的渐变_62-22" x1="23.5" y1="74.16" x2="24.09" y2="74.16" gradientTransform="matrix(0.98, -0.18, -0.18, -0.98, 8.54, 84.76)" xlink:href="#未命名的渐变_62"/><linearGradient id="未命名的渐变_62-23" x1="24.21" y1="74.3" x2="24.79" y2="74.3" gradientTransform="matrix(0.98, -0.19, -0.19, -0.98, 9.1, 85.15)" xlink:href="#未命名的渐变_62"/><linearGradient id="未命名的渐变_62-24" x1="24.91" y1="74.43" x2="25.5" y2="74.43" gradientTransform="matrix(0.98, -0.21, -0.21, -0.98, 9.67, 85.55)" xlink:href="#未命名的渐变_62"/><linearGradient id="未命名的渐变_62-25" x1="25.62" y1="74.56" x2="26.2" y2="74.56" gradientTransform="matrix(0.98, -0.22, -0.22, -0.98, 10.24, 85.95)" xlink:href="#未命名的渐变_62"/><linearGradient id="未命名的渐变_62-26" x1="26.32" y1="74.69" x2="26.91" y2="74.69" gradientTransform="matrix(0.97, -0.24, -0.24, -0.97, 10.83, 86.35)" xlink:href="#未命名的渐变_62"/><linearGradient id="未命名的渐变_62-27" x1="27.03" y1="74.82" x2="27.61" y2="74.82" gradientTransform="matrix(0.97, -0.25, -0.25, -0.97, 11.42, 86.75)" xlink:href="#未命名的渐变_62"/><linearGradient id="未命名的渐变_62-28" x1="27.73" y1="74.95" x2="28.32" y2="74.95" gradientTransform="matrix(0.96, -0.27, -0.27, -0.96, 12.02, 87.15)" xlink:href="#未命名的渐变_62"/><linearGradient id="未命名的渐变_62-29" x1="28.44" y1="75.08" x2="29.02" y2="75.08" gradientTransform="matrix(0.96, -0.28, -0.28, -0.96, 12.63, 87.55)" xlink:href="#未命名的渐变_62"/><linearGradient id="未命名的渐变_62-30" x1="29.14" y1="75.21" x2="29.73" y2="75.21" gradientTransform="matrix(0.95, -0.3, -0.3, -0.95, 13.25, 87.95)" xlink:href="#未命名的渐变_62"/><linearGradient id="未命名的渐变_62-31" x1="29.85" y1="75.34" x2="30.43" y2="75.34" gradientTransform="matrix(0.95, -0.31, -0.31, -0.95, 13.88, 88.36)" xlink:href="#未命名的渐变_62"/><linearGradient id="未命名的渐变_62-32" x1="30.55" y1="75.47" x2="31.14" y2="75.47" gradientTransform="matrix(0.94, -0.33, -0.33, -0.94, 14.52, 88.76)" xlink:href="#未命名的渐变_62"/><linearGradient id="未命名的渐变_62-33" x1="31.26" y1="75.6" x2="31.84" y2="75.6" gradientTransform="matrix(0.94, -0.34, -0.34, -0.94, 15.17, 89.16)" xlink:href="#未命名的渐变_62"/><linearGradient id="未命名的渐变_62-34" x1="31.96" y1="75.73" x2="32.55" y2="75.73" gradientTransform="matrix(0.93, -0.36, -0.36, -0.93, 15.83, 89.56)" xlink:href="#未命名的渐变_62"/><linearGradient id="未命名的渐变_62-35" x1="32.67" y1="75.86" x2="33.25" y2="75.86" gradientTransform="matrix(0.93, -0.37, -0.37, -0.93, 16.5, 89.96)" xlink:href="#未命名的渐变_62"/><linearGradient id="未命名的渐变_62-36" x1="33.37" y1="75.99" x2="33.95" y2="75.99" gradientTransform="matrix(0.92, -0.39, -0.39, -0.92, 17.17, 90.36)" xlink:href="#未命名的渐变_62"/><linearGradient id="未命名的渐变_62-37" x1="34.07" y1="76.12" x2="34.66" y2="76.12" gradientTransform="matrix(0.92, -0.4, -0.4, -0.92, 17.86, 90.76)" xlink:href="#未命名的渐变_62"/><linearGradient id="未命名的渐变_62-38" x1="34.78" y1="76.25" x2="35.36" y2="76.25" gradientTransform="matrix(0.91, -0.41, -0.41, -0.91, 18.56, 91.15)" xlink:href="#未命名的渐变_62"/><linearGradient id="未命名的渐变_62-39" x1="35.48" y1="76.38" x2="36.07" y2="76.38" gradientTransform="matrix(0.9, -0.43, -0.43, -0.9, 19.27, 91.55)" xlink:href="#未命名的渐变_62"/><linearGradient id="未命名的渐变_62-40" x1="36.19" y1="76.51" x2="36.77" y2="76.51" gradientTransform="matrix(0.9, -0.44, -0.44, -0.9, 19.98, 91.94)" xlink:href="#未命名的渐变_62"/><linearGradient id="未命名的渐变_62-41" x1="36.89" y1="76.64" x2="37.48" y2="76.64" gradientTransform="matrix(0.89, -0.46, -0.46, -0.89, 20.71, 92.33)" xlink:href="#未命名的渐变_62"/><linearGradient id="未命名的渐变_62-42" x1="37.6" y1="76.77" x2="38.18" y2="76.77" gradientTransform="matrix(0.88, -0.47, -0.47, -0.88, 21.45, 92.72)" xlink:href="#未命名的渐变_62"/><linearGradient id="未命名的渐变_62-43" x1="38.3" y1="76.9" x2="38.89" y2="76.9" gradientTransform="matrix(0.88, -0.48, -0.48, -0.88, 22.2, 93.1)" xlink:href="#未命名的渐变_62"/><linearGradient id="未命名的渐变_62-44" x1="39.01" y1="77.04" x2="39.59" y2="77.04" gradientTransform="matrix(0.87, -0.5, -0.5, -0.87, 22.96, 93.48)" xlink:href="#未命名的渐变_62"/><linearGradient id="未命名的渐变_62-45" x1="39.71" y1="77.17" x2="40.3" y2="77.17" gradientTransform="matrix(0.86, -0.51, -0.51, -0.86, 23.73, 93.86)" xlink:href="#未命名的渐变_62"/><linearGradient id="未命名的渐变_62-46" x1="40.42" y1="77.3" x2="41" y2="77.3" gradientTransform="matrix(0.85, -0.52, -0.52, -0.85, 24.52, 94.24)" xlink:href="#未命名的渐变_62"/><linearGradient id="未命名的渐变_62-47" x1="41.12" y1="77.43" x2="41.71" y2="77.43" gradientTransform="matrix(0.84, -0.54, -0.54, -0.84, 25.31, 94.61)" xlink:href="#未命名的渐变_62"/><linearGradient id="未命名的渐变_62-48" x1="41.83" y1="77.56" x2="42.41" y2="77.56" gradientTransform="matrix(0.84, -0.55, -0.55, -0.84, 26.12, 94.97)" xlink:href="#未命名的渐变_62"/><linearGradient id="未命名的渐变_62-49" x1="42.53" y1="77.69" x2="43.12" y2="77.69" gradientTransform="matrix(0.83, -0.56, -0.56, -0.83, 26.93, 95.34)" xlink:href="#未命名的渐变_62"/><linearGradient id="未命名的渐变_62-50" x1="43.24" y1="77.82" x2="43.82" y2="77.82" gradientTransform="matrix(0.82, -0.57, -0.57, -0.82, 27.76, 95.7)" xlink:href="#未命名的渐变_62"/><linearGradient id="未命名的渐变_62-51" x1="43.94" y1="77.95" x2="44.52" y2="77.95" gradientTransform="matrix(0.81, -0.59, -0.59, -0.81, 28.6, 96.05)" xlink:href="#未命名的渐变_62"/><linearGradient id="未命名的渐变_62-52" x1="44.65" y1="78.08" x2="45.23" y2="78.08" gradientTransform="matrix(0.8, -0.6, -0.6, -0.8, 29.45, 96.4)" xlink:href="#未命名的渐变_62"/><linearGradient id="未命名的渐变_62-53" x1="45.35" y1="78.21" x2="45.93" y2="78.21" gradientTransform="matrix(0.79, -0.61, -0.61, -0.79, 30.32, 96.74)" xlink:href="#未命名的渐变_62"/><linearGradient id="未命名的渐变_62-54" x1="46.05" y1="78.34" x2="46.64" y2="78.34" gradientTransform="matrix(0.78, -0.62, -0.62, -0.78, 31.19, 97.08)" xlink:href="#未命名的渐变_62"/><linearGradient id="未命名的渐变_62-55" x1="46.76" y1="78.47" x2="47.34" y2="78.47" gradientTransform="matrix(0.77, -0.63, -0.63, -0.77, 32.08, 97.41)" xlink:href="#未命名的渐变_62"/><linearGradient id="未命名的渐变_62-56" x1="47.46" y1="78.6" x2="48.05" y2="78.6" gradientTransform="matrix(0.76, -0.65, -0.65, -0.76, 32.98, 97.73)" xlink:href="#未命名的渐变_62"/><linearGradient id="未命名的渐变_62-57" x1="48.17" y1="78.73" x2="48.75" y2="78.73" gradientTransform="matrix(0.75, -0.66, -0.66, -0.75, 33.89, 98.05)" xlink:href="#未命名的渐变_62"/><linearGradient id="未命名的渐变_62-58" x1="48.87" y1="78.86" x2="49.46" y2="78.86" gradientTransform="matrix(0.74, -0.67, -0.67, -0.74, 34.82, 98.36)" xlink:href="#未命名的渐变_62"/><linearGradient id="未命名的渐变_62-59" x1="49.58" y1="78.99" x2="50.16" y2="78.99" gradientTransform="matrix(0.73, -0.68, -0.68, -0.73, 35.76, 98.66)" xlink:href="#未命名的渐变_62"/><linearGradient id="未命名的渐变_62-60" x1="50.28" y1="79.12" x2="50.87" y2="79.12" gradientTransform="matrix(0.72, -0.69, -0.69, -0.72, 36.71, 98.96)" xlink:href="#未命名的渐变_62"/><linearGradient id="未命名的渐变_62-61" x1="50.99" y1="79.25" x2="51.57" y2="79.25" gradientTransform="matrix(0.71, -0.7, -0.7, -0.71, 37.67, 99.25)" xlink:href="#未命名的渐变_62"/><linearGradient id="未命名的渐变_62-62" x1="51.69" y1="79.38" x2="52.28" y2="79.38" gradientTransform="matrix(0.7, -0.71, -0.71, -0.7, 38.65, 99.53)" xlink:href="#未命名的渐变_62"/><linearGradient id="未命名的渐变_62-63" x1="52.4" y1="79.51" x2="52.98" y2="79.51" gradientTransform="matrix(0.69, -0.72, -0.72, -0.69, 39.64, 99.8)" xlink:href="#未命名的渐变_62"/><linearGradient id="未命名的渐变_62-64" x1="53.1" y1="79.64" x2="53.69" y2="79.64" gradientTransform="matrix(0.68, -0.73, -0.73, -0.68, 40.64, 100.06)" xlink:href="#未命名的渐变_62"/><linearGradient id="未命名的渐变_62-65" x1="53.81" y1="79.78" x2="54.39" y2="79.78" gradientTransform="matrix(0.67, -0.74, -0.74, -0.67, 41.66, 100.31)" xlink:href="#未命名的渐变_62"/><linearGradient id="未命名的渐变_62-66" x1="54.51" y1="79.91" x2="55.1" y2="79.91" gradientTransform="matrix(0.66, -0.75, -0.75, -0.66, 42.69, 100.55)" xlink:href="#未命名的渐变_62"/><linearGradient id="未命名的渐变_62-67" x1="55.22" y1="80.04" x2="55.8" y2="80.04" gradientTransform="matrix(0.65, -0.76, -0.76, -0.65, 43.73, 100.78)" xlink:href="#未命名的渐变_62"/><linearGradient id="未命名的渐变_62-68" x1="55.92" y1="80.17" x2="56.5" y2="80.17" gradientTransform="matrix(0.63, -0.77, -0.77, -0.63, 44.79, 101)" xlink:href="#未命名的渐变_62"/><linearGradient id="未命名的渐变_62-69" x1="56.62" y1="80.3" x2="57.21" y2="80.3" gradientTransform="matrix(0.62, -0.78, -0.78, -0.62, 45.86, 101.21)" xlink:href="#未命名的渐变_62"/><linearGradient id="未命名的渐变_62-70" x1="57.33" y1="80.43" x2="57.91" y2="80.43" gradientTransform="matrix(0.61, -0.79, -0.79, -0.61, 46.95, 101.41)" xlink:href="#未命名的渐变_62"/><linearGradient id="未命名的渐变_62-71" x1="58.03" y1="80.56" x2="58.62" y2="80.56" gradientTransform="matrix(0.6, -0.8, -0.8, -0.6, 48.05, 101.59)" xlink:href="#未命名的渐变_62"/><linearGradient id="未命名的渐变_62-72" x1="58.74" y1="80.69" x2="59.32" y2="80.69" gradientTransform="matrix(0.59, -0.81, -0.81, -0.59, 49.16, 101.77)" xlink:href="#未命名的渐变_62"/><linearGradient id="未命名的渐变_62-73" x1="59.44" y1="80.82" x2="60.03" y2="80.82" gradientTransform="matrix(0.57, -0.82, -0.82, -0.57, 50.29, 101.93)" xlink:href="#未命名的渐变_62"/><linearGradient id="未命名的渐变_62-74" x1="60.15" y1="80.95" x2="60.73" y2="80.95" gradientTransform="matrix(0.56, -0.83, -0.83, -0.56, 51.43, 102.08)" xlink:href="#未命名的渐变_62"/><linearGradient id="未命名的渐变_62-75" x1="60.85" y1="81.08" x2="61.44" y2="81.08" gradientTransform="matrix(0.55, -0.84, -0.84, -0.55, 52.58, 102.21)" xlink:href="#未命名的渐变_62"/><linearGradient id="未命名的渐变_62-76" x1="61.56" y1="81.21" x2="62.14" y2="81.21" gradientTransform="matrix(0.54, -0.84, -0.84, -0.54, 53.75, 102.33)" xlink:href="#未命名的渐变_62"/><linearGradient id="未命名的渐变_62-77" x1="62.26" y1="81.34" x2="62.85" y2="81.34" gradientTransform="matrix(0.52, -0.85, -0.85, -0.52, 54.93, 102.43)" xlink:href="#未命名的渐变_62"/><linearGradient id="未命名的渐变_62-78" x1="62.97" y1="81.47" x2="63.55" y2="81.47" gradientTransform="matrix(0.51, -0.86, -0.86, -0.51, 56.13, 102.52)" xlink:href="#未命名的渐变_62"/><linearGradient id="未命名的渐变_62-79" x1="63.67" y1="81.6" x2="64.26" y2="81.6" gradientTransform="matrix(0.5, -0.87, -0.87, -0.5, 57.33, 102.6)" xlink:href="#未命名的渐变_62"/><linearGradient id="未命名的渐变_62-80" x1="64.38" y1="81.73" x2="64.96" y2="81.73" gradientTransform="matrix(0.48, -0.88, -0.88, -0.48, 58.56, 102.66)" xlink:href="#未命名的渐变_62"/><linearGradient id="未命名的渐变_62-81" x1="65.08" y1="81.86" x2="65.67" y2="81.86" gradientTransform="matrix(0.47, -0.88, -0.88, -0.47, 59.79, 102.7)" xlink:href="#未命名的渐变_62"/><linearGradient id="未命名的渐变_62-82" x1="65.79" y1="81.99" x2="66.37" y2="81.99" gradientTransform="matrix(0.46, -0.89, -0.89, -0.46, 61.04, 102.72)" xlink:href="#未命名的渐变_62"/><linearGradient id="未命名的渐变_62-83" x1="66.49" y1="82.12" x2="67.07" y2="82.12" gradientTransform="matrix(0.44, -0.9, -0.9, -0.44, 62.31, 102.73)" xlink:href="#未命名的渐变_62"/><linearGradient id="未命名的渐变_62-84" x1="67.19" y1="82.25" x2="67.78" y2="82.25" gradientTransform="matrix(0.43, -0.9, -0.9, -0.43, 63.58, 102.72)" xlink:href="#未命名的渐变_62"/><linearGradient id="未命名的渐变_62-85" x1="67.9" y1="82.38" x2="68.48" y2="82.38" gradientTransform="matrix(0.41, -0.91, -0.91, -0.41, 64.87, 102.69)" xlink:href="#未命名的渐变_62"/><linearGradient id="未命名的渐变_62-86" x1="68.6" y1="82.52" x2="69.19" y2="82.52" gradientTransform="matrix(0.4, -0.92, -0.92, -0.4, 66.17, 102.65)" xlink:href="#未命名的渐变_62"/><linearGradient id="未命名的渐变_62-87" x1="69.31" y1="82.65" x2="69.89" y2="82.65" gradientTransform="matrix(0.39, -0.92, -0.92, -0.39, 67.49, 102.58)" xlink:href="#未命名的渐变_62"/><linearGradient id="未命名的渐变_62-88" x1="70.01" y1="82.78" x2="70.6" y2="82.78" gradientTransform="matrix(0.37, -0.93, -0.93, -0.37, 68.81, 102.5)" xlink:href="#未命名的渐变_62"/><linearGradient id="未命名的渐变_62-89" x1="70.72" y1="82.91" x2="71.3" y2="82.91" gradientTransform="matrix(0.36, -0.93, -0.93, -0.36, 70.15, 102.39)" xlink:href="#未命名的渐变_62"/><linearGradient id="未命名的渐变_62-90" x1="71.42" y1="83.04" x2="72.01" y2="83.04" gradientTransform="matrix(0.34, -0.94, -0.94, -0.34, 71.5, 102.27)" xlink:href="#未命名的渐变_62"/><linearGradient id="未命名的渐变_62-91" x1="72.13" y1="83.17" x2="72.71" y2="83.17" gradientTransform="matrix(0.33, -0.94, -0.94, -0.33, 72.87, 102.12)" xlink:href="#未命名的渐变_62"/><linearGradient id="未命名的渐变_62-92" x1="72.83" y1="83.3" x2="73.42" y2="83.3" gradientTransform="matrix(0.31, -0.95, -0.95, -0.31, 74.24, 101.95)" xlink:href="#未命名的渐变_62"/><linearGradient id="未命名的渐变_62-93" x1="73.54" y1="83.43" x2="74.12" y2="83.43" gradientTransform="matrix(0.3, -0.95, -0.95, -0.3, 75.63, 101.76)" xlink:href="#未命名的渐变_62"/><linearGradient id="未命名的渐变_62-94" x1="74.24" y1="83.56" x2="74.83" y2="83.56" gradientTransform="matrix(0.28, -0.96, -0.96, -0.28, 77.02, 101.55)" xlink:href="#未命名的渐变_62"/><linearGradient id="未命名的渐变_62-95" x1="74.95" y1="83.69" x2="75.53" y2="83.69" gradientTransform="matrix(0.27, -0.96, -0.96, -0.27, 78.43, 101.31)" xlink:href="#未命名的渐变_62"/><linearGradient id="未命名的渐变_62-96" x1="75.65" y1="83.82" x2="76.24" y2="83.82" gradientTransform="matrix(0.25, -0.97, -0.97, -0.25, 79.84, 101.06)" xlink:href="#未命名的渐变_62"/><linearGradient id="未命名的渐变_62-97" x1="76.36" y1="83.95" x2="76.94" y2="83.95" gradientTransform="matrix(0.24, -0.97, -0.97, -0.24, 81.27, 100.78)" xlink:href="#未命名的渐变_62"/><linearGradient id="未命名的渐变_62-98" x1="77.06" y1="84.08" x2="77.64" y2="84.08" gradientTransform="matrix(0.22, -0.98, -0.98, -0.22, 82.7, 100.47)" xlink:href="#未命名的渐变_62"/><linearGradient id="未命名的渐变_62-99" x1="77.76" y1="84.21" x2="78.35" y2="84.21" gradientTransform="matrix(0.21, -0.98, -0.98, -0.21, 84.14, 100.14)" xlink:href="#未命名的渐变_62"/><linearGradient id="未命名的渐变_62-100" x1="78.47" y1="84.34" x2="79.05" y2="84.34" gradientTransform="matrix(0.19, -0.98, -0.98, -0.19, 85.6, 99.79)" xlink:href="#未命名的渐变_62"/><linearGradient id="未命名的渐变_62-101" x1="79.17" y1="84.47" x2="79.76" y2="84.47" gradientTransform="matrix(0.18, -0.98, -0.98, -0.18, 87.05, 99.42)" xlink:href="#未命名的渐变_62"/><linearGradient id="未命名的渐变_62-102" x1="79.88" y1="84.6" x2="80.46" y2="84.6" gradientTransform="matrix(0.16, -0.99, -0.99, -0.16, 88.52, 99.01)" xlink:href="#未命名的渐变_62"/><linearGradient id="未命名的渐变_62-103" x1="80.58" y1="84.73" x2="81.17" y2="84.73" gradientTransform="matrix(0.14, -0.99, -0.99, -0.14, 89.99, 98.59)" xlink:href="#未命名的渐变_62"/><linearGradient id="未命名的渐变_62-104" x1="81.29" y1="84.86" x2="81.87" y2="84.86" gradientTransform="matrix(0.13, -0.99, -0.99, -0.13, 91.47, 98.13)" xlink:href="#未命名的渐变_62"/><linearGradient id="未命名的渐变_62-105" x1="81.99" y1="84.99" x2="82.58" y2="84.99" gradientTransform="matrix(0.11, -0.99, -0.99, -0.11, 92.96, 97.66)" xlink:href="#未命名的渐变_62"/><linearGradient id="未命名的渐变_62-106" x1="82.7" y1="85.12" x2="83.28" y2="85.12" gradientTransform="matrix(0.1, -1, -1, -0.1, 94.45, 97.15)" xlink:href="#未命名的渐变_62"/><linearGradient id="未命名的渐变_62-107" x1="83.4" y1="85.26" x2="83.99" y2="85.26" gradientTransform="matrix(0.08, -1, -1, -0.08, 95.94, 96.62)" xlink:href="#未命名的渐变_62"/><linearGradient id="未命名的渐变_62-108" x1="84.11" y1="85.39" x2="84.69" y2="85.39" gradientTransform="matrix(0.06, -1, -1, -0.06, 97.44, 96.07)" xlink:href="#未命名的渐变_62"/><linearGradient id="未命名的渐变_62-109" x1="84.81" y1="85.52" x2="85.4" y2="85.52" gradientTransform="matrix(0.05, -1, -1, -0.05, 98.94, 95.48)" xlink:href="#未命名的渐变_62"/><linearGradient id="未命名的渐变_62-110" x1="85.52" y1="85.65" x2="86.1" y2="85.65" gradientTransform="matrix(0.03, -1, -1, -0.03, 100.44, 94.88)" xlink:href="#未命名的渐变_62"/><linearGradient id="未命名的渐变_62-111" x1="86.22" y1="85.78" x2="86.81" y2="85.78" gradientTransform="matrix(0.02, -1, -1, -0.02, 101.95, 94.24)" xlink:href="#未命名的渐变_62"/><linearGradient id="未命名的渐变_62-112" x1="86.93" y1="85.91" x2="87.51" y2="85.91" gradientTransform="matrix(0, -1, -1, 0, 103.45, 93.58)" xlink:href="#未命名的渐变_62"/><linearGradient id="未命名的渐变_62-113" x1="400.91" y1="-951.21" x2="401.88" y2="-951.21" gradientTransform="matrix(0.63, 0, 0, 0.93, -230.07, 895.5)" xlink:href="#未命名的渐变_62"/><linearGradient id="未命名的渐变_306" x1="541.33" y1="-923.5" x2="541.76" y2="-923.5" gradientTransform="matrix(1.79, 0, 0, 1.11, -947.64, 1113.35)" gradientUnits="userSpaceOnUse"><stop offset="0.02" stop-color="#767b82"/><stop offset="0.04" stop-color="#d7dce0"/><stop offset="0.09" stop-color="#9ba1ab"/><stop offset="0.92" stop-color="#9ba1ab"/><stop offset="1" stop-color="#767b82"/></linearGradient><linearGradient id="未命名的渐变_306-2" x1="542.65" y1="-923.5" x2="543.07" y2="-923.5" gradientTransform="matrix(1.79, 0, 0, 1.11, -950, 1110.99)" xlink:href="#未命名的渐变_306"/><linearGradient id="未命名的渐变_306-3" x1="370.25" y1="138.87" x2="370.67" y2="138.87" gradientTransform="matrix(1.79, 0, 0, 0.47, -644.97, 27.24)" xlink:href="#未命名的渐变_306"/><linearGradient id="未命名的渐变_306-4" x1="371.32" y1="138.87" x2="371.74" y2="138.87" gradientTransform="matrix(1.79, 0, 0, 0.47, -644.97, 27.24)" xlink:href="#未命名的渐变_306"/><linearGradient id="未命名的渐变_306-5" x1="372.76" y1="138.87" x2="373.18" y2="138.87" gradientTransform="matrix(1.79, 0, 0, 0.47, -644.97, 27.24)" xlink:href="#未命名的渐变_306"/><linearGradient id="未命名的渐变_306-6" x1="373.84" y1="138.87" x2="374.26" y2="138.87" gradientTransform="matrix(1.79, 0, 0, 0.47, -644.97, 27.24)" xlink:href="#未命名的渐变_306"/><linearGradient id="未命名的渐变_306-7" x1="18.48" y1="95.92" x2="18.48" y2="98.66" gradientTransform="matrix(1, 0, 0, 1, 0, 0)" xlink:href="#未命名的渐变_306"/><linearGradient id="未命名的渐变_85" x1="87.47" y1="-679.57" x2="80.3" y2="-679.57" gradientTransform="matrix(1, 0, 0, -1, -74, -582.38)" gradientUnits="userSpaceOnUse"><stop offset="0" stop-color="#767b82"/><stop offset="0.07" stop-color="#9ba1ab"/><stop offset="0.25" stop-color="#e2eaf2"/><stop offset="0.31" stop-color="#d1d8e0"/><stop offset="0.51" stop-color="#a1a7ae"/><stop offset="0.68" stop-color="#7e8489"/><stop offset="0.82" stop-color="#696e73"/><stop offset="0.91" stop-color="#61666b"/><stop offset="1" stop-color="#a9b1bb"/></linearGradient><linearGradient id="未命名的渐变_85-2" x1="87.47" y1="-706.45" x2="80.3" y2="-706.45" xlink:href="#未命名的渐变_85"/><linearGradient id="未命名的渐变_85-3" x1="89.67" y1="-719.36" x2="78.11" y2="-719.36" xlink:href="#未命名的渐变_85"/><linearGradient id="未命名的渐变_376" x1="9.89" y1="126.21" x2="9.89" y2="132.31" gradientUnits="userSpaceOnUse"><stop offset="0" stop-color="#2e3033"/><stop offset="1" stop-color="#9ba1ab" stop-opacity="0"/></linearGradient><linearGradient id="未命名的渐变_82" x1="12.82" y1="123.17" x2="6.95" y2="129.05" gradientUnits="userSpaceOnUse"><stop offset="0" stop-color="#767b82"/><stop offset="0.07" stop-color="#9ba1ab"/><stop offset="0.26" stop-color="#e2eaf2"/><stop offset="0.32" stop-color="#d1d8e0"/><stop offset="0.51" stop-color="#a1a7ae"/><stop offset="0.68" stop-color="#7e8489"/><stop offset="0.82" stop-color="#696e73"/><stop offset="0.91" stop-color="#61666b"/><stop offset="1" stop-color="#a9b1bb"/></linearGradient><linearGradient id="未命名的渐变_82-2" x1="12.82" y1="106.89" x2="6.95" y2="112.77" gradientTransform="matrix(1, 0, 0, -1, 0, 257.67)" xlink:href="#未命名的渐变_82"/><linearGradient id="未命名的渐变_85-4" x1="89.67" y1="-693.43" x2="78.11" y2="-693.43" xlink:href="#未命名的渐变_85"/><linearGradient id="未命名的渐变_376-2" x1="9.89" y1="100.29" x2="9.89" y2="106.38" xlink:href="#未命名的渐变_376"/><linearGradient id="未命名的渐变_82-3" x1="12.82" y1="97.25" x2="6.95" y2="103.13" xlink:href="#未命名的渐变_82"/><linearGradient id="未命名的渐变_82-4" x1="12.82" y1="132.81" x2="6.95" y2="138.69" gradientTransform="matrix(1, 0, 0, -1, 0, 257.67)" xlink:href="#未命名的渐变_82"/><linearGradient id="未命名的渐变_85-5" x1="89.67" y1="-661.57" x2="78.11" y2="-661.57" xlink:href="#未命名的渐变_85"/><linearGradient id="未命名的渐变_85-6" x1="86.78" y1="-643.64" x2="81" y2="-649.42" xlink:href="#未命名的渐变_85"/><linearGradient id="未命名的渐变_94" x1="6.24" y1="59.94" x2="13.53" y2="59.94" gradientUnits="userSpaceOnUse"><stop offset="0" stop-color="#a9b1bb"/><stop offset="0.09" stop-color="#61666b"/><stop offset="0.17" stop-color="#696e73"/><stop offset="0.28" stop-color="#7e8489"/><stop offset="0.42" stop-color="#a1a7ae"/><stop offset="0.58" stop-color="#d1d8e0"/><stop offset="0.63" stop-color="#e2eaf2"/><stop offset="0.93" stop-color="#9ba1ab"/><stop offset="1" stop-color="#767b82"/></linearGradient><linearGradient id="未命名的渐变_94-2" x1="7.52" y1="43.82" x2="12.26" y2="43.82" xlink:href="#未命名的渐变_94"/><linearGradient id="未命名的渐变_94-3" x1="0" y1="80.09" x2="2.37" y2="80.09" xlink:href="#未命名的渐变_94"/><linearGradient id="未命名的渐变_94-4" x1="17.06" y1="45.43" x2="19.42" y2="45.43" xlink:href="#未命名的渐变_94"/><linearGradient id="未命名的渐变_376-3" x1="9.89" y1="64.15" x2="9.89" y2="70.25" xlink:href="#未命名的渐变_376"/><linearGradient id="未命名的渐变_85-7" x1="88.7" y1="-598.88" x2="79.07" y2="-598.88" xlink:href="#未命名的渐变_85"/><linearGradient id="未命名的渐变_85-8" x1="86.44" y1="-584.81" x2="81.33" y2="-589.92" xlink:href="#未命名的渐变_85"/><linearGradient id="未命名的渐变_85-9" x1="86.29" y1="-594.73" x2="81.48" y2="-599.55" gradientTransform="translate(-74 597.14)" xlink:href="#未命名的渐变_85"/><linearGradient id="未命名的渐变_92" x1="93.01" y1="-640.75" x2="87.99" y2="-635.74" gradientTransform="matrix(-1, 0, 0, 1, 100.39, 666.17)" gradientUnits="userSpaceOnUse"><stop offset="0" stop-color="#a9b1bb"/><stop offset="0.09" stop-color="#61666b"/><stop offset="0.18" stop-color="#696e73"/><stop offset="0.32" stop-color="#7e8489"/><stop offset="0.49" stop-color="#a1a7ae"/><stop offset="0.69" stop-color="#d1d8e0"/><stop offset="0.75" stop-color="#e2eaf2"/><stop offset="0.93" stop-color="#9ba1ab"/><stop offset="1" stop-color="#767b82"/></linearGradient><linearGradient id="未命名的渐变_94-5" x1="6.85" y1="2.18" x2="12.92" y2="2.18" xlink:href="#未命名的渐变_94"/><linearGradient id="未命名的渐变_376-4" x1="9.89" y1="5.28" x2="9.89" y2="12.74" xlink:href="#未命名的渐变_376"/><linearGradient id="未命名的渐变_82-5" x1="12.82" y1="160.41" x2="6.95" y2="166.29" gradientTransform="matrix(1, 0, 0, -1, 0, 257.67)" xlink:href="#未命名的渐变_82"/><linearGradient id="未命名的渐变_94-6" x1="6.28" y1="30.28" x2="13.49" y2="30.28" xlink:href="#未命名的渐变_94"/><linearGradient id="未命名的渐变_94-7" x1="24.45" y1="-89.5" x2="26.82" y2="-89.5" gradientTransform="matrix(0, 1, 0.28, 0, 29.26, -14.27)" xlink:href="#未命名的渐变_94"/><linearGradient id="未命名的渐变_94-8" x1="36.18" y1="-47.7" x2="38.55" y2="-47.7" gradientTransform="matrix(0, 1, 0.28, 0, 29.26, -14.27)" xlink:href="#未命名的渐变_94"/><linearGradient id="未命名的渐变_94-9" x1="15.67" y1="68.79" x2="21.03" y2="68.79" xlink:href="#未命名的渐变_94"/></defs><title>Two-stage chiller(两级冷却器)</title><g id="图层_2" data-name="图层 2"><g id="图层_16" data-name="图层 16"><g id="Two-stage_chiller_两级冷却器_" data-name="Two-stage chiller(两级冷却器)"><rect class="cls-1" x="18.71" y="7.54" width="0.6" height="142" rx="0.3"/><rect class="cls-2" x="24.2" y="7.54" width="0.6" height="142" rx="0.3"/><rect class="cls-3" x="21.43" y="20.16" width="0.6" height="6.05" rx="0.3" transform="translate(-1.45 44.92) rotate(-90)"/><rect class="cls-4" x="21.43" y="36.02" width="0.6" height="6.05" rx="0.3" transform="translate(-17.31 60.78) rotate(-90)"/><rect class="cls-5" x="21.43" y="51.87" width="0.6" height="6.05" rx="0.3" transform="translate(-33.16 76.63) rotate(-90)"/><rect class="cls-6" x="21.43" y="68.94" width="0.6" height="6.05" rx="0.3" transform="translate(-50.24 93.71) rotate(-90)"/><rect class="cls-7" x="21.43" y="86.02" width="0.6" height="6.05" rx="0.3" transform="translate(-67.31 110.78) rotate(-90)"/><rect class="cls-8" x="21.43" y="103.09" width="0.6" height="6.05" rx="0.3" transform="translate(-84.39 127.86) rotate(-90)"/><rect class="cls-9" x="21.43" y="120.17" width="0.6" height="6.05" rx="0.3" transform="translate(-101.46 144.93) rotate(-90)"/><rect class="cls-10" x="21.43" y="137.24" width="0.6" height="6.05" rx="0.3" transform="translate(-118.53 162) rotate(-90)"/><circle class="cls-11" cx="19.01" cy="7.83" r="0.29"/><circle class="cls-12" cx="19.01" cy="7.8" r="0.29"/><circle class="cls-13" cx="19.01" cy="7.78" r="0.29"/><circle class="cls-14" cx="19.01" cy="7.76" r="0.29"/><circle class="cls-15" cx="19.01" cy="7.73" r="0.29"/><circle class="cls-16" cx="19.01" cy="7.71" r="0.29"/><circle class="cls-17" cx="19" cy="7.69" r="0.29"/><circle class="cls-18" cx="19" cy="7.66" r="0.29"/><circle class="cls-19" cx="19" cy="7.64" r="0.29"/><circle class="cls-20" cx="19" cy="7.62" r="0.29"/><circle class="cls-21" cx="18.99" cy="7.59" r="0.29"/><circle class="cls-22" cx="18.99" cy="7.57" r="0.29"/><circle class="cls-23" cx="18.98" cy="7.55" r="0.29"/><circle class="cls-24" cx="18.98" cy="7.52" r="0.29"/><circle class="cls-25" cx="18.97" cy="7.5" r="0.29"/><circle class="cls-26" cx="18.97" cy="7.48" r="0.29"/><circle class="cls-27" cx="18.96" cy="7.46" r="0.29"/><circle class="cls-28" cx="18.96" cy="7.43" r="0.29"/><circle class="cls-29" cx="18.95" cy="7.41" r="0.29"/><circle class="cls-30" cx="18.94" cy="7.39" r="0.29"/><circle class="cls-31" cx="18.94" cy="7.37" r="0.29"/><circle class="cls-32" cx="18.93" cy="7.35" r="0.29"/><circle class="cls-33" cx="18.92" cy="7.33" r="0.29"/><circle class="cls-34" cx="18.91" cy="7.3" r="0.29"/><circle class="cls-35" cx="18.91" cy="7.28" r="0.29"/><circle class="cls-36" cx="18.9" cy="7.26" r="0.29"/><circle class="cls-37" cx="18.89" cy="7.24" r="0.29"/><circle class="cls-38" cx="18.88" cy="7.22" r="0.29"/><circle class="cls-39" cx="18.87" cy="7.2" r="0.29"/><circle class="cls-40" cx="18.86" cy="7.18" r="0.29"/><circle class="cls-41" cx="18.85" cy="7.16" r="0.29"/><circle class="cls-42" cx="18.84" cy="7.14" r="0.29"/><circle class="cls-43" cx="18.83" cy="7.12" r="0.29"/><circle class="cls-44" cx="18.82" cy="7.1" r="0.29"/><circle class="cls-45" cx="18.81" cy="7.08" r="0.29"/><circle class="cls-46" cx="18.79" cy="7.06" r="0.29"/><circle class="cls-47" cx="18.78" cy="7.04" r="0.29"/><circle class="cls-48" cx="18.77" cy="7.02" r="0.29"/><circle class="cls-49" cx="18.76" cy="7.01" r="0.29"/><circle class="cls-50" cx="18.75" cy="6.99" r="0.29"/><circle class="cls-51" cx="18.73" cy="6.97" r="0.29"/><circle class="cls-52" cx="18.72" cy="6.95" r="0.29"/><circle class="cls-53" cx="18.71" cy="6.93" r="0.29"/><circle class="cls-54" cx="18.69" cy="6.92" r="0.29"/><circle class="cls-55" cx="18.68" cy="6.9" r="0.29"/><circle class="cls-56" cx="18.66" cy="6.88" r="0.29"/><circle class="cls-57" cx="18.65" cy="6.86" r="0.29"/><circle class="cls-58" cx="18.63" cy="6.85" r="0.29"/><circle class="cls-59" cx="18.62" cy="6.83" r="0.29"/><circle class="cls-60" cx="18.6" cy="6.82" r="0.29"/><circle class="cls-61" cx="18.59" cy="6.8" r="0.29"/><circle class="cls-62" cx="18.57" cy="6.78" r="0.29"/><circle class="cls-63" cx="18.56" cy="6.77" r="0.29"/><circle class="cls-64" cx="18.54" cy="6.75" r="0.29"/><circle class="cls-65" cx="18.52" cy="6.74" r="0.29"/><circle class="cls-66" cx="18.51" cy="6.72" r="0.29"/><circle class="cls-67" cx="18.49" cy="6.71" r="0.29"/><circle class="cls-68" cx="18.47" cy="6.69" r="0.29"/><circle class="cls-69" cx="18.46" cy="6.68" r="0.29"/><circle class="cls-70" cx="18.44" cy="6.67" r="0.29"/><circle class="cls-71" cx="18.42" cy="6.65" r="0.29"/><circle class="cls-72" cx="18.4" cy="6.64" r="0.29"/><circle class="cls-73" cx="18.38" cy="6.63" r="0.29"/><circle class="cls-74" cx="18.37" cy="6.61" r="0.29"/><circle class="cls-75" cx="18.35" cy="6.6" r="0.29"/><circle class="cls-76" cx="18.33" cy="6.59" r="0.29"/><circle class="cls-77" cx="18.31" cy="6.58" r="0.29"/><circle class="cls-78" cx="18.29" cy="6.57" r="0.29"/><circle class="cls-79" cx="18.27" cy="6.55" r="0.29"/><circle class="cls-80" cx="18.25" cy="6.54" r="0.29"/><circle class="cls-81" cx="18.23" cy="6.53" r="0.29"/><circle class="cls-82" cx="18.21" cy="6.52" r="0.29"/><circle class="cls-83" cx="18.19" cy="6.51" r="0.29"/><circle class="cls-84" cx="18.17" cy="6.5" r="0.29"/><circle class="cls-85" cx="18.15" cy="6.49" r="0.29"/><circle class="cls-86" cx="18.13" cy="6.48" r="0.29"/><circle class="cls-87" cx="18.11" cy="6.48" r="0.29"/><circle class="cls-88" cx="18.09" cy="6.47" r="0.29"/><circle class="cls-89" cx="18.07" cy="6.46" r="0.29"/><circle class="cls-90" cx="18.05" cy="6.45" r="0.29"/><circle class="cls-91" cx="18.03" cy="6.44" r="0.29"/><circle class="cls-92" cx="18" cy="6.44" r="0.29"/><circle class="cls-93" cx="17.98" cy="6.43" r="0.29"/><circle class="cls-94" cx="17.96" cy="6.42" r="0.29"/><circle class="cls-95" cx="17.94" cy="6.42" r="0.29"/><circle class="cls-96" cx="17.92" cy="6.41" r="0.29"/><circle class="cls-97" cx="17.89" cy="6.4" r="0.29"/><circle class="cls-98" cx="17.87" cy="6.4" r="0.29"/><circle class="cls-99" cx="17.85" cy="6.39" r="0.29"/><circle class="cls-100" cx="17.83" cy="6.39" r="0.29"/><circle class="cls-101" cx="17.8" cy="6.38" r="0.29"/><circle class="cls-102" cx="17.78" cy="6.38" r="0.29"/><circle class="cls-103" cx="17.76" cy="6.38" r="0.29"/><circle class="cls-104" cx="17.73" cy="6.37" r="0.29"/><circle class="cls-105" cx="17.71" cy="6.37" r="0.29"/><circle class="cls-106" cx="17.69" cy="6.37" r="0.29"/><circle class="cls-107" cx="17.66" cy="6.37" r="0.29"/><circle class="cls-108" cx="17.64" cy="6.37" r="0.29"/><circle class="cls-109" cx="17.62" cy="6.36" r="0.29"/><circle class="cls-110" cx="17.59" cy="6.36" r="0.29"/><circle class="cls-111" cx="17.57" cy="6.36" r="0.29"/><circle class="cls-112" cx="17.54" cy="6.36" r="0.29"/><rect class="cls-113" x="21.46" y="4.8" width="0.6" height="6.08" rx="0.3" transform="translate(13.92 29.6) rotate(-90)"/><rect class="cls-114" x="20.08" y="89.02" width="0.76" height="7.17" transform="translate(-72.15 113.07) rotate(-90)"/><rect class="cls-115" x="20.08" y="86.67" width="0.76" height="7.17" transform="translate(-69.8 110.71) rotate(-90)"/><rect class="cls-116" x="16.87" y="89.87" width="0.76" height="6.05"/><rect class="cls-117" x="18.78" y="89.87" width="0.76" height="6.05"/><rect class="cls-118" x="21.36" y="89.87" width="0.76" height="6.05"/><rect class="cls-119" x="23.29" y="89.87" width="0.76" height="6.05"/><rect class="cls-120" x="12.93" y="95.92" width="11.11" height="2.73"/><polyline class="cls-121" points="13.47 98.66 13.47 95.72 6.3 95.72 6.3 98.66"/><polyline class="cls-122" points="13.47 98.66 13.47 95.72 6.3 95.72 6.3 98.66"/><polyline class="cls-123" points="13.47 125.54 13.47 122.61 6.3 122.61 6.3 125.54"/><polyline class="cls-122" points="13.47 125.54 13.47 122.61 6.3 122.61 6.3 125.54"/><polyline class="cls-124" points="15.67 147.75 15.67 126.21 4.11 126.21 4.11 147.75"/><rect class="cls-125" x="4.11" y="126.21" width="11.56" height="6.1"/><path class="cls-126" d="M15.67,126.21S14.86,124,9.88,124s-5.77,2.25-5.77,2.25Z"/><path class="cls-127" d="M15.67,147.75S14.86,150,9.88,150s-5.77-2.25-5.77-2.25Z"/><polyline class="cls-128" points="15.67 121.83 15.67 100.28 4.11 100.28 4.11 121.83"/><rect class="cls-129" x="4.11" y="100.29" width="11.56" height="6.1"/><path class="cls-130" d="M15.67,100.29S14.86,98,9.88,98s-5.77,2.25-5.77,2.25Z"/><path class="cls-131" d="M15.67,121.83s-.81,2.25-5.79,2.25-5.77-2.25-5.77-2.25Z"/><rect class="cls-132" x="4.11" y="64.15" width="11.56" height="30.08"/><polygon class="cls-133" points="15.67 64.15 13.53 62.22 6.24 62.22 4.11 64.15 15.67 64.15"/><rect class="cls-134" x="6.24" y="57.67" width="7.29" height="4.55"/><rect class="cls-135" x="7.52" y="29.98" width="4.74" height="27.68"/><rect class="cls-136" y="10.18" width="2.37" height="139.82" rx="1.18"/><rect class="cls-137" x="17.06" y="21.94" width="2.37" height="46.98" rx="1.18"/><rect class="cls-138" x="4.11" y="64.15" width="11.56" height="6.1"/><rect class="cls-139" x="5.07" y="5.28" width="9.63" height="22.45"/><polygon class="cls-140" points="14.7 5.28 12.92 2.92 6.85 2.92 5.07 5.28 14.7 5.28"/><polygon class="cls-141" points="14.7 0 12.92 1.5 6.85 1.5 5.07 0 14.7 0"/><polygon class="cls-142" points="5.07 27.72 6.85 29.89 12.92 29.89 14.7 27.72 5.07 27.72"/><polygon class="cls-122" points="5.07 27.72 6.85 29.89 12.92 29.89 14.7 27.72 5.07 27.72"/><rect class="cls-143" x="6.85" y="1.45" width="6.08" height="1.46"/><rect class="cls-144" x="5.07" y="5.28" width="9.63" height="7.46"/><path class="cls-145" d="M15.67,94.23s-.81,2.25-5.79,2.25-5.77-2.25-5.77-2.25Z"/><rect class="cls-146" x="6.28" y="29.89" width="7.21" height="0.78"/><path class="cls-147" d="M6.06,12.55H1.46A1.35,1.35,0,0,1,0,11.36H0a1.34,1.34,0,0,1,1.46-1.18h4.6a1.35,1.35,0,0,1,1.46,1.18h0A1.36,1.36,0,0,1,6.06,12.55Z"/><path class="cls-148" d="M18,24.28h-4.6a1.34,1.34,0,0,1-1.46-1.19h0a1.34,1.34,0,0,1,1.46-1.18H18a1.34,1.34,0,0,1,1.45,1.18h0A1.34,1.34,0,0,1,18,24.28Z"/><rect class="cls-149" x="15.67" y="66.87" width="5.36" height="3.85"/><rect class="cls-150" x="13.49" y="68.18" width="2.16" height="1.94"/></g></g></g></svg>