<svg xmlns="http://www.w3.org/2000/svg" xmlns:xlink="http://www.w3.org/1999/xlink" viewBox="0 0 42.89 150"><defs><style>.cls-1{fill:url(#未命名的渐变_184);}.cls-2,.cls-5{fill:none;stroke-miterlimit:10;stroke-width:0.5px;}.cls-2{stroke:url(#未命名的渐变_184-2);}.cls-3{fill:url(#未命名的渐变_184-3);}.cls-4{fill:url(#未命名的渐变_184-4);}.cls-5{stroke:url(#未命名的渐变_184-5);}.cls-6{fill:url(#未命名的渐变_184-6);}.cls-7{fill:url(#未命名的渐变_220);}.cls-8{fill:url(#未命名的渐变_184-7);}.cls-9{fill:url(#未命名的渐变_184-8);}.cls-10{fill:url(#未命名的渐变_184-9);}.cls-11{fill:url(#未命名的渐变_200);}.cls-12{fill:url(#未命名的渐变_203);}.cls-13{fill:url(#未命名的渐变_203-2);}.cls-14{fill:url(#未命名的渐变_184-10);}.cls-15{fill:url(#未命名的渐变_184-11);}.cls-16{fill:url(#未命名的渐变_184-12);}</style><linearGradient id="未命名的渐变_184" x1="-15.64" y1="-223.06" x2="-15.64" y2="-222.2" gradientTransform="matrix(1, 0, 0, -2.73, 43.49, -535.7)" gradientUnits="userSpaceOnUse"><stop offset="0" stop-color="#767b82"/><stop offset="0.07" stop-color="#9ba1ab"/><stop offset="0.22" stop-color="#e2eaf2"/><stop offset="0.94" stop-color="#5d6166"/><stop offset="1" stop-color="#a9b1bb"/></linearGradient><linearGradient id="未命名的渐变_184-2" x1="22.43" y1="72.72" x2="35.63" y2="72.72" gradientTransform="matrix(1, 0, 0, 1, 0, 0)" xlink:href="#未命名的渐变_184"/><linearGradient id="未命名的渐变_184-3" x1="-12.62" y1="-223.56" x2="-12.62" y2="-221.7" gradientTransform="matrix(1, 0, 0, -2.73, 37.45, -535.71)" xlink:href="#未命名的渐变_184"/><linearGradient id="未命名的渐变_184-4" x1="-15.64" y1="-203.35" x2="-15.64" y2="-202.49" gradientTransform="matrix(1, 0, 0, -2.73, 43.49, -427.96)" xlink:href="#未命名的渐变_184"/><linearGradient id="未命名的渐变_184-5" x1="22.43" y1="126.6" x2="35.63" y2="126.6" gradientTransform="matrix(1, 0, 0, 1, 0, 0)" xlink:href="#未命名的渐变_184"/><linearGradient id="未命名的渐变_184-6" x1="-12.62" y1="-203.85" x2="-12.62" y2="-201.98" gradientTransform="matrix(1, 0, 0, -2.73, 37.45, -427.96)" xlink:href="#未命名的渐变_184"/><linearGradient id="未命名的渐变_220" x1="45.69" y1="-228.69" x2="45.69" y2="-217.26" gradientTransform="matrix(1, 0, 0, -2.73, -24.25, -596.41)" gradientUnits="userSpaceOnUse"><stop offset="0" stop-color="#767b82"/><stop offset="0.04" stop-color="#e7f0ff"/><stop offset="0.91" stop-color="#b9c0cc"/><stop offset="0.96" stop-color="#d7dce0"/><stop offset="1" stop-color="#a2a9b3"/></linearGradient><linearGradient id="未命名的渐变_184-7" x1="-29.31" y1="-223.75" x2="-29.31" y2="-222.2" gradientTransform="matrix(1, 0, 0, -2.73, 50.75, -521.41)" xlink:href="#未命名的渐变_184"/><linearGradient id="未命名的渐变_184-8" x1="7.84" y1="-230.82" x2="7.84" y2="-215.13" gradientTransform="matrix(1, 0, 0, -2.73, 13.67, -558.56)" xlink:href="#未命名的渐变_184"/><linearGradient id="未命名的渐变_184-9" x1="29.34" y1="-225.32" x2="29.34" y2="-220.63" gradientTransform="matrix(1, 0, 0, -1.44, -7.89, -292.44)" xlink:href="#未命名的渐变_184"/><linearGradient id="未命名的渐变_200" x1="29.34" y1="-224.72" x2="29.34" y2="-221.23" gradientTransform="matrix(1, 0, 0, -0.72, -7.89, -132.22)" gradientUnits="userSpaceOnUse"><stop offset="0" stop-color="#767b82"/><stop offset="0.05" stop-color="#9ba1ab"/><stop offset="0.22" stop-color="#a7adb3"/><stop offset="0.96" stop-color="#5d6166"/><stop offset="1" stop-color="#a9b1bb"/></linearGradient><linearGradient id="未命名的渐变_203" x1="29.36" y1="-221.38" x2="29.36" y2="-218.75" gradientTransform="matrix(1, 0, 0, -0.48, -10.33, -76.02)" gradientUnits="userSpaceOnUse"><stop offset="0" stop-color="#767b82"/><stop offset="0.07" stop-color="#5b5f66"/><stop offset="0.95" stop-color="#5d6166"/><stop offset="1" stop-color="#a9b1bb"/></linearGradient><linearGradient id="未命名的渐变_203-2" x1="29.36" y1="-235.99" x2="29.36" y2="-233.37" gradientTransform="matrix(1, 0, 0, -0.49, -5.35, -84.52)" xlink:href="#未命名的渐变_203"/><linearGradient id="未命名的渐变_184-10" x1="31.58" y1="-218.91" x2="31.58" y2="-218.13" gradientTransform="matrix(1, 0, 0, -2.73, -22.31, -570.12)" xlink:href="#未命名的渐变_184"/><linearGradient id="未命名的渐变_184-11" x1="26.63" y1="-223.93" x2="26.63" y2="-222.87" gradientTransform="matrix(-1, 0, 0, 2.73, 31.58, 617.62)" xlink:href="#未命名的渐变_184"/><linearGradient id="未命名的渐变_184-12" x1="31.58" y1="-227.82" x2="31.58" y2="-227.04" gradientTransform="matrix(1, 0, 0, -2.73, 2.04, -594.47)" xlink:href="#未命名的渐变_184"/></defs><title>Multi-point flow meter(多点式流量计)</title><g id="图层_2" data-name="图层 2"><g id="图层_16" data-name="图层 16"><g id="Multi-point_flow_meter_多点式流量计_" data-name="Multi-point flow meter(多点式流量计)"><rect class="cls-1" x="23.56" y="71.55" width="8.58" height="2.34" transform="translate(55.7 145.45) rotate(180)"/><polygon class="cls-2" points="35.38 70.87 22.68 66.03 22.68 79.42 35.38 74.58 35.38 70.87"/><rect class="cls-3" x="23.56" y="70.18" width="2.54" height="5.09" transform="translate(49.65 145.45) rotate(180)"/><rect class="cls-4" x="23.56" y="125.42" width="8.58" height="2.34" transform="translate(55.7 253.19) rotate(180)"/><polygon class="cls-5" points="35.38 124.74 22.68 119.9 22.68 133.29 35.38 128.45 35.38 124.74"/><rect class="cls-6" x="23.56" y="124.05" width="2.54" height="5.09" transform="translate(49.65 253.19) rotate(180)"/><rect class="cls-7" x="8.47" y="-2.66" width="25.94" height="31.26" transform="translate(8.47 34.41) rotate(-90)"/><rect class="cls-8" x="-40.59" y="85.86" width="124.06" height="4.23" transform="translate(-66.53 109.41) rotate(-90)"/><rect class="cls-9" x="19.92" y="29.38" width="3.04" height="42.89" transform="translate(-29.37 72.27) rotate(-90.01)"/><rect class="cls-10" x="18.06" y="25.94" width="6.76" height="6.76" transform="translate(-7.88 50.77) rotate(-90)"/><rect class="cls-11" x="19.02" y="28.05" width="4.85" height="2.53" transform="translate(-7.88 50.76) rotate(-90)"/><rect class="cls-12" x="16.58" y="28.69" width="4.85" height="1.26" transform="translate(-10.31 48.33) rotate(-90)"/><rect class="cls-13" x="21.56" y="28.68" width="4.85" height="1.27" transform="translate(-5.33 53.3) rotate(-90)"/><rect class="cls-14" x="8.13" y="26.02" width="2.28" height="2.11" transform="translate(-17.81 36.35) rotate(-90)"/><polygon class="cls-15" points="5.08 8.53 5.81 8.53 5.81 5.63 4.09 5.63 4.09 7.48 5.08 8.53"/><rect class="cls-16" x="32.48" y="26.02" width="2.28" height="2.11" transform="translate(6.54 60.7) rotate(-90)"/></g></g></g></svg>