<svg xmlns="http://www.w3.org/2000/svg" viewBox="0 0 27.49 150"><defs><style>.cls-1{fill:#dcdcdd;}.cls-2{fill:#ccc;}.cls-3{fill:#c1c1c1;}.cls-4{fill:#c9c9c9;}</style></defs><title>Oil well（油井）</title><g id="图层_2" data-name="图层 2"><g id="图层_40" data-name="图层 40"><g id="Oil_well_油井_" data-name="Oil well（油井）"><rect class="cls-1" x="-35.2" y="85.92" width="103.54" height="2.69" transform="translate(103.84 70.7) rotate(90)"/><polygon class="cls-2" points="27.49 28.99 12.75 36.01 0 31.05 14.99 24.8 27.49 28.99"/><polygon class="cls-3" points="11.73 42.48 24.07 35.71 24.07 33.94 11.73 40.72 11.73 42.48"/><polygon class="cls-3" points="12.69 41.91 3.8 37.78 3.8 36.01 12.69 40.15 12.69 41.91"/><polygon class="cls-4" points="10.65 53.32 3.58 40.73 4.65 39.3 11.73 51.89 10.65 53.32"/><polygon class="cls-4" points="10.52 66.45 3.45 53.86 4.52 52.43 11.59 65.03 10.52 66.45"/><polygon class="cls-4" points="10.8 80.28 3.72 67.69 4.79 66.26 11.87 78.85 10.8 80.28"/><polygon class="cls-4" points="3.44 78.02 13.24 68 12.58 66.36 2.78 76.38 3.44 78.02"/><polygon class="cls-4" points="10.8 94.64 3.72 82.05 4.79 80.62 11.87 93.21 10.8 94.64"/><polygon class="cls-4" points="3.44 92.39 13.24 82.37 12.58 80.73 2.78 90.75 3.44 92.39"/><polygon class="cls-4" points="10.58 107.51 3.5 94.91 4.58 93.48 11.65 106.08 10.58 107.51"/><polygon class="cls-4" points="3.22 105.25 13.03 95.23 12.37 93.59 2.56 103.61 3.22 105.25"/><polygon class="cls-4" points="10.8 120.47 3.72 107.88 4.79 106.45 11.87 119.05 10.8 120.47"/><polygon class="cls-4" points="3.44 118.22 13.24 108.2 12.58 106.56 2.78 116.58 3.44 118.22"/><polygon class="cls-4" points="10.8 133.55 3.72 120.96 4.79 119.53 11.87 132.12 10.8 133.55"/><polygon class="cls-4" points="3.44 131.29 13.24 121.27 12.58 119.63 2.78 129.65 3.44 131.29"/><polygon class="cls-4" points="10.8 147.93 3.72 135.34 4.79 133.91 11.87 146.5 10.8 147.93"/><polygon class="cls-4" points="3.44 145.67 13.24 135.66 12.58 134.01 2.78 144.03 3.44 145.67"/><polygon class="cls-4" points="3.08 64.61 12.89 54.59 12.22 52.95 2.42 62.97 3.08 64.61"/><polygon class="cls-4" points="3.22 50.95 13.03 40.94 12.37 39.3 2.56 49.31 3.22 50.95"/><polygon class="cls-4" points="12.73 54.1 24.4 35.17 23.33 33.74 11.66 52.67 12.73 54.1"/><polygon class="cls-4" points="12.66 68.7 25.13 48.65 24.06 47.22 11.59 67.27 12.66 68.7"/><polygon class="cls-4" points="12.47 83.25 24.67 63.47 23.6 62.04 11.4 81.82 12.47 83.25"/><polygon class="cls-4" points="23.97 48.51 11.88 41.25 12.09 39.5 24.19 46.76 23.97 48.51"/><polygon class="cls-4" points="24.18 61.97 12.08 54.7 12.3 52.95 24.39 60.22 24.18 61.97"/><polygon class="cls-4" points="24.57 76.11 12.47 68.85 12.69 67.1 24.79 74.36 24.57 76.11"/><polygon class="cls-4" points="13.01 96.44 25.21 76.66 24.14 75.23 11.94 95.01 13.01 96.44"/><polygon class="cls-4" points="25.11 89.3 13.01 82.04 13.23 80.29 25.33 87.55 25.11 89.3"/><polygon class="cls-3" points="12.08 54.93 2.95 50.79 2.95 49.02 12.08 53.16 12.08 54.93"/><polygon class="cls-3" points="12.08 68.85 2.95 64.72 2.95 62.95 12.08 67.08 12.08 68.85"/><polygon class="cls-3" points="12.36 83.02 3.23 78.88 3.23 77.11 12.36 81.25 12.36 83.02"/><polygon class="cls-3" points="12.94 96 3.81 91.86 3.81 90.09 12.94 94.23 12.94 96"/><polygon class="cls-3" points="12.58 109.75 3.45 105.61 3.45 103.84 12.58 107.98 12.58 109.75"/><polygon class="cls-3" points="12.58 123.16 3.45 119.02 3.45 117.25 12.58 121.39 12.58 123.16"/><polygon class="cls-3" points="12.58 136.56 3.45 132.43 3.45 130.66 12.58 134.8 12.58 136.56"/><polygon class="cls-3" points="12.36 149.65 3.23 145.51 3.23 143.74 12.36 147.88 12.36 149.65"/><polygon class="cls-3" points="12.46 54.57 25.14 47.8 25.14 46.03 12.46 52.8 12.46 54.57"/><polygon class="cls-3" points="12.46 68.7 25.14 61.92 25.14 60.16 12.46 66.93 12.46 68.7"/><polygon class="cls-3" points="13.03 82.7 25.7 75.93 25.7 74.16 13.03 80.93 13.03 82.7"/><polygon class="cls-4" points="12.35 110.03 24.55 90.24 23.48 88.81 11.28 108.59 12.35 110.03"/><polygon class="cls-4" points="24.21 102.41 12.11 95.15 12.32 93.4 24.42 100.66 24.21 102.41"/><polygon class="cls-3" points="12.12 95.81 24.8 89.04 24.8 87.27 12.12 94.04 12.12 95.81"/><polygon class="cls-4" points="12.65 123.53 24.85 103.74 23.78 102.31 11.58 122.1 12.65 123.53"/><polygon class="cls-4" points="24.75 116.39 12.65 109.13 12.87 107.38 24.97 114.64 24.75 116.39"/><polygon class="cls-3" points="12.42 109.65 25.1 102.88 25.1 101.11 12.42 107.88 12.42 109.65"/><polygon class="cls-4" points="12.45 136.6 24.65 116.82 23.58 115.39 11.38 135.17 12.45 136.6"/><polygon class="cls-4" points="24.56 129.46 12.46 122.2 12.67 120.45 24.77 127.71 24.56 129.46"/><polygon class="cls-3" points="12.47 122.86 25.15 116.09 25.15 114.32 12.47 121.09 12.47 122.86"/><polygon class="cls-4" points="13.19 149.12 25.39 129.34 24.32 127.91 12.12 147.69 13.19 149.12"/><polygon class="cls-4" points="25.3 141.98 13.2 134.72 13.41 132.97 25.51 140.23 25.3 141.98"/><polygon class="cls-3" points="13.21 135.38 25.89 128.61 25.89 126.84 13.21 133.61 13.21 135.38"/><polygon class="cls-3" points="13.21 149.12 25.89 142.35 25.89 140.58 13.21 147.35 13.21 149.12"/><rect class="cls-1" x="-52.36" y="89.56" width="112.33" height="2.69" transform="translate(94.71 87.09) rotate(90)"/><rect class="cls-1" x="-44.22" y="92.35" width="112.61" height="2.69" transform="translate(105.78 81.61) rotate(90)"/><rect class="cls-1" x="-31.26" y="86.75" width="112.09" height="2.69" transform="translate(112.88 63.31) rotate(90)"/><polygon class="cls-1" points="12.75 38.5 0 33.73 0 30.97 12.75 35.74 12.75 38.5"/><polygon class="cls-3" points="12.75 38.5 27.49 31.73 27.49 28.97 12.75 35.74 12.75 38.5"/><rect class="cls-1" x="3.05" y="16.78" width="23.96" height="1.34" transform="translate(32.49 2.42) rotate(90)"/><polygon class="cls-2" points="20.82 2.15 13.27 5.74 6.74 3.2 14.41 0 20.82 2.15"/><polygon class="cls-3" points="13.12 8.75 19.44 5.28 19.44 4.38 13.12 7.84 13.12 8.75"/><polygon class="cls-3" points="13.12 8.53 8.57 6.41 8.57 5.5 13.12 7.62 13.12 8.53"/><polygon class="cls-4" points="12.26 14.22 8.74 7.77 9.27 7.04 12.8 13.49 12.26 14.22"/><polygon class="cls-4" points="12.26 20.98 8.74 14.53 9.27 13.8 12.8 20.25 12.26 20.98"/><polygon class="cls-4" points="12.34 28 8.81 21.55 9.35 20.82 12.88 27.27 12.34 28"/><polygon class="cls-4" points="8.38 26.79 13.27 21.66 12.94 20.82 8.05 25.95 8.38 26.79"/><polygon class="cls-4" points="8.38 19.89 13.27 14.76 12.94 13.92 8.05 19.05 8.38 19.89"/><polygon class="cls-4" points="8.38 13.39 13.27 8.26 12.94 7.42 8.05 12.55 8.38 13.39"/><polygon class="cls-4" points="13.12 15 18.94 5.31 18.4 4.58 12.59 14.27 13.12 15"/><polygon class="cls-4" points="12.85 22.26 19.07 11.99 18.53 11.26 12.32 21.53 12.85 22.26"/><polygon class="cls-4" points="12.85 29.15 18.94 19.02 18.4 18.29 12.32 28.42 12.85 29.15"/><polygon class="cls-4" points="19.24 12.14 13.21 8.42 13.32 7.53 19.35 11.24 19.24 12.14"/><polygon class="cls-4" points="19.11 18.84 13.08 15.12 13.18 14.22 19.21 17.94 19.11 18.84"/><polygon class="cls-4" points="19.24 25.65 13.21 21.93 13.32 21.04 19.35 24.76 19.24 25.65"/><polygon class="cls-3" points="12.8 15 8.24 12.88 8.24 11.98 12.8 14.1 12.8 15"/><polygon class="cls-3" points="12.98 22 8.43 19.89 8.43 18.98 12.98 21.1 12.98 22"/><polygon class="cls-3" points="12.8 28.68 8.24 26.56 8.24 25.65 12.8 27.77 12.8 28.68"/><polygon class="cls-3" points="12.8 28.68 8.24 26.56 8.24 25.65 12.8 27.77 12.8 28.68"/><polygon class="cls-3" points="12.98 15 19.3 11.54 19.3 10.63 12.98 14.1 12.98 15"/><polygon class="cls-3" points="12.98 21.89 19.3 18.43 19.3 17.52 12.98 20.99 12.98 21.89"/><polygon class="cls-3" points="13.12 28.79 19.44 25.32 19.44 24.41 13.12 27.88 13.12 28.79"/><rect class="cls-1" x="-4.46" y="17.29" width="26.27" height="1.34" transform="translate(26.63 9.29) rotate(90)"/><rect class="cls-1" x="-0.85" y="19.22" width="27.3" height="1.34" transform="translate(32.68 7.09) rotate(90)"/><rect class="cls-1" x="5.82" y="16.35" width="26.62" height="1.34" transform="translate(36.15 -2.11) rotate(90)"/><polygon class="cls-1" points="13.27 7.02 6.74 4.57 6.74 3.16 13.27 5.6 13.27 7.02"/><polygon class="cls-3" points="13.27 7.02 20.82 3.55 20.82 2.13 13.27 5.6 13.27 7.02"/></g></g></g></svg>