<svg xmlns="http://www.w3.org/2000/svg" xmlns:xlink="http://www.w3.org/1999/xlink" viewBox="0 0 150 105.38"><defs><style>.cls-1{fill:url(#未命名的渐变_105);}.cls-2{fill:url(#未命名的渐变_67);}.cls-3{fill:url(#未命名的渐变_67-2);}.cls-4{fill:url(#未命名的渐变_67-3);}.cls-5{fill:url(#未命名的渐变_67-4);}.cls-6{fill:url(#未命名的渐变_67-5);}.cls-7{fill:url(#未命名的渐变_67-6);}.cls-8{fill:url(#未命名的渐变_67-7);}.cls-9{fill:url(#未命名的渐变_67-8);}.cls-10{fill:url(#未命名的渐变_67-9);}.cls-11{fill:url(#未命名的渐变_67-10);}.cls-12{fill:url(#未命名的渐变_67-11);}.cls-13{fill:url(#未命名的渐变_105-2);}.cls-14{fill:url(#未命名的渐变_105-3);}.cls-15{fill:url(#未命名的渐变_74);}.cls-16{fill:url(#未命名的渐变_74-2);}.cls-17{fill:url(#未命名的渐变_105-4);}.cls-18{fill:url(#未命名的渐变_67-12);}.cls-19{fill:url(#未命名的渐变_67-13);}.cls-20{fill:url(#未命名的渐变_67-14);}.cls-21{fill:url(#未命名的渐变_67-15);}.cls-22{fill:url(#未命名的渐变_67-16);}.cls-23{fill:url(#未命名的渐变_67-17);}.cls-24{fill:url(#未命名的渐变_67-18);}.cls-25{fill:url(#未命名的渐变_67-19);}.cls-26{fill:url(#未命名的渐变_67-20);}.cls-27{fill:url(#未命名的渐变_67-21);}.cls-28{fill:url(#未命名的渐变_67-22);}.cls-29{fill:url(#未命名的渐变_105-5);}.cls-30{fill:url(#未命名的渐变_105-6);}.cls-31{fill:url(#未命名的渐变_74-3);}.cls-32{fill:url(#未命名的渐变_74-4);}.cls-33{fill:url(#未命名的渐变_105-7);}.cls-34{fill:url(#未命名的渐变_105-8);}.cls-35{fill:url(#未命名的渐变_105-9);}.cls-36,.cls-37{fill:#b9b8bc;}.cls-37{stroke:#565656;}.cls-37,.cls-86{stroke-miterlimit:10;}.cls-38,.cls-86{fill:#565656;}.cls-39{fill:url(#未命名的渐变_74-5);}.cls-40{fill:url(#未命名的渐变_105-10);}.cls-41{fill:url(#未命名的渐变_105-11);}.cls-42{fill:url(#未命名的渐变_105-12);}.cls-43{fill:url(#未命名的渐变_105-13);}.cls-44{fill:url(#未命名的渐变_105-14);}.cls-45{fill:url(#未命名的渐变_105-15);}.cls-46{fill:url(#未命名的渐变_105-16);}.cls-47{fill:url(#未命名的渐变_105-17);}.cls-48{fill:url(#未命名的渐变_105-18);}.cls-49{fill:url(#未命名的渐变_105-19);}.cls-50{fill:url(#未命名的渐变_105-20);}.cls-51{fill:url(#未命名的渐变_105-21);}.cls-52{fill:url(#未命名的渐变_105-22);}.cls-53{fill:url(#未命名的渐变_105-23);}.cls-54{fill:url(#未命名的渐变_105-24);}.cls-55{fill:url(#未命名的渐变_105-25);}.cls-56{fill:url(#未命名的渐变_105-26);}.cls-57{fill:url(#未命名的渐变_105-27);}.cls-58{fill:url(#未命名的渐变_105-28);}.cls-59{fill:url(#未命名的渐变_105-29);}.cls-60{fill:url(#未命名的渐变_105-30);}.cls-61{fill:url(#未命名的渐变_105-31);}.cls-62{fill:url(#未命名的渐变_105-32);}.cls-63{fill:url(#未命名的渐变_105-33);}.cls-64{fill:url(#未命名的渐变_105-34);}.cls-65{fill:url(#未命名的渐变_74-6);}.cls-66{fill:url(#未命名的渐变_74-7);}.cls-67{fill:url(#未命名的渐变_74-8);}.cls-68{fill:url(#未命名的渐变_74-9);}.cls-69{fill:url(#未命名的渐变_74-10);}.cls-70{fill:url(#未命名的渐变_74-11);}.cls-71{fill:url(#未命名的渐变_74-12);}.cls-72{fill:url(#未命名的渐变_74-13);}.cls-73{fill:url(#未命名的渐变_74-14);}.cls-74{fill:url(#未命名的渐变_74-15);}.cls-75{fill:url(#未命名的渐变_74-16);}.cls-76{fill:url(#未命名的渐变_74-17);}.cls-77{fill:url(#未命名的渐变_74-18);}.cls-78{fill:url(#未命名的渐变_105-35);}.cls-79{fill:url(#未命名的渐变_105-36);}.cls-80{fill:url(#未命名的渐变_105-37);}.cls-81{fill:url(#未命名的渐变_105-38);}.cls-82{fill:url(#未命名的渐变_105-39);}.cls-83{fill:url(#未命名的渐变_105-40);}.cls-84{fill:url(#未命名的渐变_105-41);}.cls-85{fill:url(#未命名的渐变_105-42);}.cls-86{stroke:#b9b8bc;stroke-width:0.5px;}</style><linearGradient id="未命名的渐变_105" x1="1173.45" y1="-1518.35" x2="1173.45" y2="-1530.96" gradientTransform="matrix(-1, 0, 0, 1, 1318.38, 1567.94)" gradientUnits="userSpaceOnUse"><stop offset="0" stop-color="#e2e2e2"/><stop offset="0.03" stop-color="#d0d0d0"/><stop offset="0.06" stop-color="#bcbcbc"/><stop offset="0.09" stop-color="#b5b5b5"/><stop offset="0.49" stop-color="#f6f6f6"/><stop offset="0.63" stop-color="#f3f3f3"/><stop offset="0.73" stop-color="#eaeaea"/><stop offset="0.82" stop-color="#dbdbdb"/><stop offset="0.9" stop-color="#c6c6c6"/><stop offset="0.97" stop-color="#aaa"/><stop offset="1" stop-color="#9b9b9b"/></linearGradient><linearGradient id="未命名的渐变_67" x1="162.24" y1="32.96" x2="149.64" y2="32.96" gradientTransform="matrix(0, 1, -1, 0, 174.92, -108.71)" gradientUnits="userSpaceOnUse"><stop offset="0" stop-color="#6b6b6b"/><stop offset="0.11" stop-color="#767676"/><stop offset="0.3" stop-color="#959595"/><stop offset="0.41" stop-color="#aaa"/><stop offset="0.56" stop-color="#ccc"/><stop offset="0.71" stop-color="#eaeaea"/><stop offset="0.8" stop-color="#f6f6f6"/><stop offset="0.83" stop-color="#ededed"/><stop offset="0.87" stop-color="#d4d4d4"/><stop offset="0.92" stop-color="#ababab"/><stop offset="0.98" stop-color="#737373"/><stop offset="0.99" stop-color="#666"/></linearGradient><linearGradient id="未命名的渐变_67-2" x1="150.72" y1="39.28" x2="150.07" y2="39.28" gradientTransform="matrix(0, 1, -1, 0, 174.9, -108.68)" xlink:href="#未命名的渐变_67"/><linearGradient id="未命名的渐变_67-3" x1="151.88" y1="39.28" x2="151.24" y2="39.28" gradientTransform="matrix(0, 1, -1, 0, 174.9, -108.68)" xlink:href="#未命名的渐变_67"/><linearGradient id="未命名的渐变_67-4" x1="153.05" y1="39.28" x2="152.4" y2="39.28" gradientTransform="matrix(0, 1, -1, 0, 174.91, -108.68)" xlink:href="#未命名的渐变_67"/><linearGradient id="未命名的渐变_67-5" x1="154.21" y1="39.28" x2="153.56" y2="39.28" gradientTransform="matrix(0, 1, -1, 0, 174.91, -108.68)" xlink:href="#未命名的渐变_67"/><linearGradient id="未命名的渐变_67-6" x1="155.37" y1="39.28" x2="154.73" y2="39.28" gradientTransform="translate(174.91 -108.68) rotate(90.03)" xlink:href="#未命名的渐变_67"/><linearGradient id="未命名的渐变_67-7" x1="156.54" y1="39.28" x2="155.89" y2="39.28" gradientTransform="translate(174.92 -108.68) rotate(90.03)" xlink:href="#未命名的渐变_67"/><linearGradient id="未命名的渐变_67-8" x1="157.7" y1="39.28" x2="157.05" y2="39.28" gradientTransform="matrix(0, 1, -1, 0, 174.92, -108.68)" xlink:href="#未命名的渐变_67"/><linearGradient id="未命名的渐变_67-9" x1="158.86" y1="39.28" x2="158.21" y2="39.28" gradientTransform="matrix(0, 1, -1, 0, 174.93, -108.68)" xlink:href="#未命名的渐变_67"/><linearGradient id="未命名的渐变_67-10" x1="160.02" y1="39.28" x2="159.38" y2="39.28" gradientTransform="translate(174.93 -108.68) rotate(90.03)" xlink:href="#未命名的渐变_67"/><linearGradient id="未命名的渐变_67-11" x1="161.27" y1="39.29" x2="160.62" y2="39.29" gradientTransform="matrix(0, 1, -1, 0, 174.94, -108.68)" xlink:href="#未命名的渐变_67"/><linearGradient id="未命名的渐变_105-2" x1="154.23" y1="41.6" x2="154.23" y2="40.67" gradientTransform="matrix(0.01, 1.75, -1, 0, 173.91, -229.63)" xlink:href="#未命名的渐变_105"/><linearGradient id="未命名的渐变_105-3" x1="154.66" y1="42.14" x2="154.66" y2="40.19" gradientTransform="matrix(0.01, 1.75, -1, 0, 173.91, -229.63)" xlink:href="#未命名的渐变_105"/><linearGradient id="未命名的渐变_74" x1="131.24" y1="45.54" x2="136.22" y2="45.54" gradientUnits="userSpaceOnUse"><stop offset="0" stop-color="#6b6b6b"/><stop offset="0.01" stop-color="#767676"/><stop offset="0.03" stop-color="#959595"/><stop offset="0.04" stop-color="#aaa"/><stop offset="0.37" stop-color="#ccc"/><stop offset="0.74" stop-color="#eaeaea"/><stop offset="0.94" stop-color="#f6f6f6"/><stop offset="0.95" stop-color="#ededed"/><stop offset="0.96" stop-color="#d4d4d4"/><stop offset="0.97" stop-color="#ababab"/><stop offset="0.99" stop-color="#737373"/><stop offset="0.99" stop-color="#666"/></linearGradient><linearGradient id="未命名的渐变_74-2" x1="135.45" y1="45.54" x2="132.01" y2="45.54" xlink:href="#未命名的渐变_74"/><linearGradient id="未命名的渐变_105-4" x1="1286.18" y1="-1518.31" x2="1286.18" y2="-1530.92" gradientTransform="translate(-1281.1 1567.94) rotate(0.19)" xlink:href="#未命名的渐变_105"/><linearGradient id="未命名的渐变_67-12" x1="162.28" y1="145.68" x2="149.68" y2="145.68" gradientTransform="matrix(-1, 0, 0, 1, 164.02, -98.13)" xlink:href="#未命名的渐变_67"/><linearGradient id="未命名的渐变_67-13" x1="150.75" y1="152.01" x2="150.11" y2="152.01" gradientTransform="matrix(-1, 0, 0, 1, 164.82, -109.98)" xlink:href="#未命名的渐变_67"/><linearGradient id="未命名的渐变_67-14" x1="151.92" y1="152.01" x2="151.27" y2="152.01" gradientTransform="matrix(-1, 0, 0, 1, 165.98, -108.81)" xlink:href="#未命名的渐变_67"/><linearGradient id="未命名的渐变_67-15" x1="153.08" y1="152.01" x2="152.43" y2="152.01" gradientTransform="matrix(-1, 0, 0, 1, 167.13, -107.65)" xlink:href="#未命名的渐变_67"/><linearGradient id="未命名的渐变_67-16" x1="154.24" y1="152.01" x2="153.6" y2="152.01" gradientTransform="matrix(-1, 0, 0, 1, 168.29, -106.49)" xlink:href="#未命名的渐变_67"/><linearGradient id="未命名的渐变_67-17" x1="155.41" y1="152.01" x2="154.76" y2="152.01" gradientTransform="matrix(-1, 0, 0, 1, 169.45, -105.33)" xlink:href="#未命名的渐变_67"/><linearGradient id="未命名的渐变_67-18" x1="156.57" y1="152.01" x2="155.92" y2="152.01" gradientTransform="matrix(-1, 0, 0, 1, 170.61, -104.16)" xlink:href="#未命名的渐变_67"/><linearGradient id="未命名的渐变_67-19" x1="157.73" y1="152.01" x2="157.09" y2="152.01" gradientTransform="matrix(-1, 0, 0, 1, 171.77, -103)" xlink:href="#未命名的渐变_67"/><linearGradient id="未命名的渐变_67-20" x1="158.9" y1="152" x2="158.25" y2="152" gradientTransform="matrix(-1, 0, 0, 1, 172.93, -101.84)" xlink:href="#未命名的渐变_67"/><linearGradient id="未命名的渐变_67-21" x1="160.06" y1="152" x2="159.41" y2="152" gradientTransform="matrix(-1, 0, 0, 1, 174.09, -100.67)" xlink:href="#未命名的渐变_67"/><linearGradient id="未命名的渐变_67-22" x1="161.3" y1="152.02" x2="160.66" y2="152.02" gradientTransform="matrix(-1, 0, 0, 1, 175.34, -99.44)" xlink:href="#未命名的渐变_67"/><linearGradient id="未命名的渐变_105-5" x1="154.25" y1="154.32" x2="154.25" y2="153.4" gradientTransform="matrix(-0.01, 1.75, 1, 0, -136.64, -229.63)" xlink:href="#未命名的渐变_105"/><linearGradient id="未命名的渐变_105-6" x1="154.68" y1="154.86" x2="154.68" y2="152.91" gradientTransform="matrix(-0.01, 1.75, 1, 0, -136.64, -229.63)" xlink:href="#未命名的渐变_105"/><linearGradient id="未命名的渐变_74-3" x1="30.3" y1="61.18" x2="31.4" y2="61.18" xlink:href="#未命名的渐变_74"/><linearGradient id="未命名的渐变_74-4" x1="30.7" y1="64.97" x2="30.7" y2="63.78" xlink:href="#未命名的渐变_74"/><linearGradient id="未命名的渐变_105-7" x1="72.05" y1="53.55" x2="72.05" y2="40.96" gradientTransform="matrix(1, 0, 0, 1, 0, 0)" xlink:href="#未命名的渐变_105"/><linearGradient id="未命名的渐变_105-8" x1="128.5" y1="51.53" x2="128.5" y2="42.66" gradientTransform="matrix(1, 0, 0, 1, 0, 0)" xlink:href="#未命名的渐变_105"/><linearGradient id="未命名的渐变_105-9" x1="15.77" y1="51.94" x2="15.77" y2="43.08" gradientTransform="matrix(1, 0, 0, -1, 5.73, 95.02)" xlink:href="#未命名的渐变_105"/><linearGradient id="未命名的渐变_74-5" x1="72.4" y1="73.17" x2="72.4" y2="64.97" xlink:href="#未命名的渐变_74"/><linearGradient id="未命名的渐变_105-10" x1="106.17" y1="55.51" x2="106.17" y2="39.41" gradientTransform="matrix(1, 0, 0, 1, 0, 0)" xlink:href="#未命名的渐变_105"/><linearGradient id="未命名的渐变_105-11" x1="125.87" y1="53.55" x2="125.87" y2="40.96" gradientTransform="matrix(1, 0, 0, 1, 0, 0)" xlink:href="#未命名的渐变_105"/><linearGradient id="未命名的渐变_105-12" x1="109.15" y1="57.27" x2="109.15" y2="37.65" gradientTransform="matrix(1, 0, 0, 1, 0, 0)" xlink:href="#未命名的渐变_105"/><linearGradient id="未命名的渐变_105-13" x1="110.18" y1="57.27" x2="110.18" y2="37.65" gradientTransform="matrix(1, 0, 0, 1, 0, 0)" xlink:href="#未命名的渐变_105"/><linearGradient id="未命名的渐变_105-14" x1="116.41" y1="57.27" x2="116.41" y2="37.65" gradientTransform="matrix(1, 0, 0, 1, 0, 0)" xlink:href="#未命名的渐变_105"/><linearGradient id="未命名的渐变_105-15" x1="110.18" y1="38.42" x2="110.18" y2="37.65" gradientTransform="matrix(1, 0, 0, 1, 0, 0)" xlink:href="#未命名的渐变_105"/><linearGradient id="未命名的渐变_105-16" x1="110.18" y1="39.96" x2="110.18" y2="39.19" gradientTransform="matrix(1, 0, 0, 1, 0, 0)" xlink:href="#未命名的渐变_105"/><linearGradient id="未命名的渐变_105-17" x1="110.18" y1="41.51" x2="110.18" y2="40.73" gradientTransform="matrix(1, 0, 0, 1, 0, 0)" xlink:href="#未命名的渐变_105"/><linearGradient id="未命名的渐变_105-18" x1="110.18" y1="43.05" x2="110.18" y2="42.28" gradientTransform="matrix(1, 0, 0, 1, 0, 0)" xlink:href="#未命名的渐变_105"/><linearGradient id="未命名的渐变_105-19" x1="110.18" y1="44.59" x2="110.18" y2="43.82" gradientTransform="matrix(1, 0, 0, 1, 0, 0)" xlink:href="#未命名的渐变_105"/><linearGradient id="未命名的渐变_105-20" x1="110.18" y1="46.14" x2="110.18" y2="45.36" gradientTransform="matrix(1, 0, 0, 1, 0, 0)" xlink:href="#未命名的渐变_105"/><linearGradient id="未命名的渐变_105-21" x1="110.18" y1="47.68" x2="110.18" y2="46.9" gradientTransform="matrix(1, 0, 0, 1, 0, 0)" xlink:href="#未命名的渐变_105"/><linearGradient id="未命名的渐变_105-22" x1="110.18" y1="49.22" x2="110.18" y2="48.45" gradientTransform="matrix(1, 0, 0, 1, 0, 0)" xlink:href="#未命名的渐变_105"/><linearGradient id="未命名的渐变_105-23" x1="110.18" y1="50.76" x2="110.18" y2="49.99" gradientTransform="matrix(1, 0, 0, 1, 0, 0)" xlink:href="#未命名的渐变_105"/><linearGradient id="未命名的渐变_105-24" x1="110.18" y1="52.31" x2="110.18" y2="51.53" gradientTransform="matrix(1, 0, 0, 1, 0, 0)" xlink:href="#未命名的渐变_105"/><linearGradient id="未命名的渐变_105-25" x1="110.18" y1="53.85" x2="110.18" y2="53.07" gradientTransform="matrix(1, 0, 0, 1, 0, 0)" xlink:href="#未命名的渐变_105"/><linearGradient id="未命名的渐变_105-26" x1="110.18" y1="55.39" x2="110.18" y2="54.62" gradientTransform="matrix(1, 0, 0, 1, 0, 0)" xlink:href="#未命名的渐变_105"/><linearGradient id="未命名的渐变_105-27" x1="110.18" y1="56.94" x2="110.18" y2="56.16" gradientTransform="matrix(1, 0, 0, 1, 0, 0)" xlink:href="#未命名的渐变_105"/><linearGradient id="未命名的渐变_105-28" x1="122.52" y1="42.23" x2="122.52" y2="41.38" gradientTransform="matrix(1, 0, 0, 1, 0, 0)" xlink:href="#未命名的渐变_105"/><linearGradient id="未命名的渐变_105-29" x1="122.52" y1="44.03" x2="122.52" y2="43.19" gradientTransform="matrix(1, 0, 0, 1, 0, 0)" xlink:href="#未命名的渐变_105"/><linearGradient id="未命名的渐变_105-30" x1="122.53" y1="45.84" x2="122.53" y2="44.99" gradientTransform="matrix(1, 0, 0, 1, 0, 0)" xlink:href="#未命名的渐变_105"/><linearGradient id="未命名的渐变_105-31" x1="122.53" y1="47.65" x2="122.53" y2="46.8" gradientTransform="matrix(1, 0, 0, 1, 0, 0)" xlink:href="#未命名的渐变_105"/><linearGradient id="未命名的渐变_105-32" x1="122.53" y1="49.45" x2="122.53" y2="48.61" gradientTransform="matrix(1, 0, 0, 1, 0, 0)" xlink:href="#未命名的渐变_105"/><linearGradient id="未命名的渐变_105-33" x1="122.53" y1="51.26" x2="122.53" y2="50.42" gradientTransform="matrix(1, 0, 0, 1, 0, 0)" xlink:href="#未命名的渐变_105"/><linearGradient id="未命名的渐变_105-34" x1="122.54" y1="53.07" x2="122.54" y2="52.22" gradientTransform="matrix(1, 0, 0, 1, 0, 0)" xlink:href="#未命名的渐变_105"/><linearGradient id="未命名的渐变_74-6" x1="113.3" y1="47.36" x2="108.67" y2="47.36" xlink:href="#未命名的渐变_74"/><linearGradient id="未命名的渐变_74-7" x1="111.54" y1="56.71" x2="110.18" y2="56.71" xlink:href="#未命名的渐变_74"/><linearGradient id="未命名的渐变_74-8" x1="113.88" y1="64.42" x2="108.09" y2="64.42" xlink:href="#未命名的渐变_74"/><linearGradient id="未命名的渐变_74-9" x1="118.81" y1="61.12" x2="117.04" y2="61.12" xlink:href="#未命名的渐变_74"/><linearGradient id="未命名的渐变_74-10" x1="100.34" y1="105.38" x2="100.34" y2="73.17" xlink:href="#未命名的渐变_74"/><linearGradient id="未命名的渐变_74-11" x1="130.21" y1="105.38" x2="130.21" y2="73.17" xlink:href="#未命名的渐变_74"/><linearGradient id="未命名的渐变_74-12" x1="115.23" y1="105.38" x2="115.23" y2="100.38" xlink:href="#未命名的渐变_74"/><linearGradient id="未命名的渐变_74-13" x1="14.63" y1="105.38" x2="14.63" y2="73.17" xlink:href="#未命名的渐变_74"/><linearGradient id="未命名的渐变_74-14" x1="44.5" y1="105.38" x2="44.5" y2="73.17" xlink:href="#未命名的渐变_74"/><linearGradient id="未命名的渐变_74-15" x1="29.52" y1="105.38" x2="29.52" y2="100.38" xlink:href="#未命名的渐变_74"/><linearGradient id="未命名的渐变_74-16" x1="69.95" y1="28.45" x2="69.95" y2="3" xlink:href="#未命名的渐变_74"/><linearGradient id="未命名的渐变_74-17" x1="69.74" y1="3" x2="69.74" y2="0" xlink:href="#未命名的渐变_74"/><linearGradient id="未命名的渐变_74-18" x1="30.72" y1="56.94" x2="30.72" y2="37.65" xlink:href="#未命名的渐变_74"/><linearGradient id="未命名的渐变_105-35" x1="30.72" y1="39.39" x2="30.72" y2="37.65" gradientTransform="matrix(1, 0, 0, 1, 0, 0)" xlink:href="#未命名的渐变_105"/><linearGradient id="未命名的渐变_105-36" x1="30.72" y1="42.4" x2="30.72" y2="40.65" gradientTransform="matrix(1, 0, 0, 1, 0, 0)" xlink:href="#未命名的渐变_105"/><linearGradient id="未命名的渐变_105-37" x1="30.72" y1="45.4" x2="30.72" y2="43.65" gradientTransform="matrix(1, 0, 0, 1, 0, 0)" xlink:href="#未命名的渐变_105"/><linearGradient id="未命名的渐变_105-38" x1="30.72" y1="48.4" x2="30.72" y2="46.65" gradientTransform="matrix(1, 0, 0, 1, 0, 0)" xlink:href="#未命名的渐变_105"/><linearGradient id="未命名的渐变_105-39" x1="30.72" y1="51.4" x2="30.72" y2="49.65" gradientTransform="matrix(1, 0, 0, 1, 0, 0)" xlink:href="#未命名的渐变_105"/><linearGradient id="未命名的渐变_105-40" x1="30.72" y1="54.4" x2="30.72" y2="52.65" gradientTransform="matrix(1, 0, 0, 1, 0, 0)" xlink:href="#未命名的渐变_105"/><linearGradient id="未命名的渐变_105-41" x1="30.72" y1="57.4" x2="30.72" y2="55.65" gradientTransform="matrix(1, 0, 0, 1, 0, 0)" xlink:href="#未命名的渐变_105"/><linearGradient id="未命名的渐变_105-42" x1="22.6" y1="52.65" x2="22.6" y2="42.28" gradientTransform="matrix(1, 0, 0, 1, 0, 0)" xlink:href="#未命名的渐变_105"/></defs><title>Shredder(碎纸机)</title><g id="图层_2" data-name="图层 2"><g id="图层_55" data-name="图层 55"><g id="Shredder_碎纸机_" data-name="Shredder(碎纸机)"><path class="cls-1" d="M129.64,53.55l18.37,0s2-.18,2-6.39c0-4.59-2-6.21-2-6.21L129.59,41Z"/><rect class="cls-2" x="141.51" y="40.92" width="0.76" height="12.6" transform="translate(-0.18 0.55) rotate(-0.22)"/><rect class="cls-3" x="129.59" y="41.37" width="11.89" height="0.64" transform="translate(-0.16 0.52) rotate(-0.22)"/><rect class="cls-4" x="129.6" y="42.54" width="11.89" height="0.64" transform="translate(-0.16 0.52) rotate(-0.22)"/><rect class="cls-5" x="129.6" y="43.7" width="11.89" height="0.64" transform="translate(-0.17 0.52) rotate(-0.22)"/><rect class="cls-6" x="129.61" y="44.86" width="11.89" height="0.64" transform="translate(-0.17 0.52) rotate(-0.22)"/><rect class="cls-7" x="129.61" y="46.03" width="11.89" height="0.64" transform="translate(-0.18 0.52) rotate(-0.22)"/><rect class="cls-8" x="129.62" y="47.19" width="11.89" height="0.64" transform="translate(-0.18 0.52) rotate(-0.22)"/><rect class="cls-9" x="129.62" y="48.35" width="11.89" height="0.64" transform="translate(-0.19 0.52) rotate(-0.22)"/><rect class="cls-10" x="129.62" y="49.51" width="11.89" height="0.64" transform="translate(-0.19 0.52) rotate(-0.22)"/><rect class="cls-11" x="129.63" y="50.68" width="11.89" height="0.64" transform="translate(-0.2 0.52) rotate(-0.22)"/><rect class="cls-12" x="129.62" y="51.92" width="11.89" height="0.64" transform="translate(-0.2 0.52) rotate(-0.22)"/><polygon class="cls-13" points="133.21 40.14 133.21 39.42 134.13 39.42 134.13 40.14 133.21 40.14"/><polygon class="cls-14" points="132.67 40.95 132.67 40.14 134.62 40.14 134.62 40.95 132.67 40.95"/><rect class="cls-15" x="131.24" y="43.05" width="4.98" height="4.98"/><rect class="cls-16" x="132.01" y="43.82" width="3.45" height="3.45"/><path class="cls-17" d="M20.36,54,2,53.91s-2-.18-2-6.39c0-4.58,2-6.21,2-6.21l18.37.06Z"/><rect class="cls-18" x="1.81" y="47.25" width="12.6" height="0.76" transform="translate(-39.55 55.56) rotate(-89.78)"/><rect class="cls-19" x="14.14" y="36.16" width="0.64" height="11.89" transform="translate(-27.7 56.41) rotate(-89.78)"/><rect class="cls-20" x="14.14" y="37.32" width="0.64" height="11.89" transform="translate(-28.87 57.56) rotate(-89.78)"/><rect class="cls-21" x="14.13" y="38.49" width="0.64" height="11.89" transform="translate(-30.04 58.71) rotate(-89.78)"/><rect class="cls-22" x="14.13" y="39.65" width="0.64" height="11.89" transform="translate(-31.2 59.87) rotate(-89.78)"/><rect class="cls-23" x="14.12" y="40.81" width="0.64" height="11.89" transform="translate(-32.37 61.02) rotate(-89.78)"/><rect class="cls-24" x="14.12" y="41.98" width="0.64" height="11.89" transform="translate(-33.54 62.18) rotate(-89.78)"/><rect class="cls-25" x="14.11" y="43.14" width="0.64" height="11.89" transform="translate(-34.71 63.33) rotate(-89.78)"/><rect class="cls-26" x="14.11" y="44.3" width="0.64" height="11.89" transform="translate(-35.87 64.48) rotate(-89.78)"/><rect class="cls-27" x="14.1" y="45.46" width="0.64" height="11.89" transform="translate(-37.04 65.64) rotate(-89.78)"/><rect class="cls-28" x="14.11" y="46.71" width="0.64" height="11.89" transform="translate(-38.28 66.89) rotate(-89.78)"/><polygon class="cls-29" points="16.79 40.55 16.79 39.84 15.87 39.84 15.87 40.55 16.79 40.55"/><polygon class="cls-30" points="17.33 41.36 17.33 40.55 15.38 40.55 15.38 41.36 17.33 41.36"/><rect class="cls-31" x="30.3" y="57.4" width="1.1" height="7.57"/><rect class="cls-32" x="25.61" y="63.78" width="10.19" height="1.18"/><path class="cls-33" d="M120.84,53.55H25.23l-1-2.25a10,10,0,0,1,.31-9L25.23,41h95.61Z"/><rect class="cls-34" x="127.4" y="42.66" width="2.19" height="8.87"/><rect class="cls-35" x="20.41" y="43.08" width="2.19" height="8.87" transform="translate(43.01 95.02) rotate(180)"/><rect class="cls-36" x="37.67" y="28.45" width="64.56" height="36.52"/><rect class="cls-37" x="42.56" y="32.67" width="54.78" height="28.07"/><circle class="cls-38" cx="49.46" cy="38.42" r="1.44"/><circle class="cls-38" cx="49.46" cy="43.95" r="1.44"/><circle class="cls-38" cx="49.46" cy="49.47" r="1.44"/><circle class="cls-38" cx="49.46" cy="54.99" r="1.44"/><circle class="cls-38" cx="56.29" cy="38.42" r="1.44"/><circle class="cls-38" cx="56.29" cy="43.95" r="1.44"/><circle class="cls-38" cx="56.29" cy="49.47" r="1.44"/><circle class="cls-38" cx="56.29" cy="54.99" r="1.44"/><circle class="cls-38" cx="63.12" cy="38.42" r="1.44"/><circle class="cls-38" cx="63.12" cy="43.95" r="1.44"/><circle class="cls-38" cx="63.12" cy="49.47" r="1.44"/><circle class="cls-38" cx="63.12" cy="54.99" r="1.44"/><circle class="cls-38" cx="69.95" cy="38.42" r="1.44"/><circle class="cls-38" cx="69.95" cy="43.95" r="1.44"/><circle class="cls-38" cx="69.95" cy="49.47" r="1.44"/><circle class="cls-38" cx="69.95" cy="54.99" r="1.44"/><circle class="cls-38" cx="76.78" cy="38.42" r="1.44"/><circle class="cls-38" cx="76.78" cy="43.95" r="1.44"/><circle class="cls-38" cx="76.78" cy="49.47" r="1.44"/><circle class="cls-38" cx="76.78" cy="54.99" r="1.44"/><circle class="cls-38" cx="83.61" cy="38.42" r="1.44"/><circle class="cls-38" cx="83.61" cy="43.95" r="1.44"/><circle class="cls-38" cx="83.61" cy="49.47" r="1.44"/><circle class="cls-38" cx="83.61" cy="54.99" r="1.44"/><circle class="cls-38" cx="90.44" cy="38.42" r="1.44"/><circle class="cls-38" cx="90.44" cy="43.95" r="1.44"/><circle class="cls-38" cx="90.44" cy="49.47" r="1.44"/><circle class="cls-38" cx="90.44" cy="54.99" r="1.44"/><rect class="cls-39" x="11.6" y="64.97" width="121.61" height="8.2"/><rect class="cls-40" x="104.52" y="39.41" width="3.3" height="16.1"/><rect class="cls-41" x="124.22" y="40.96" width="3.3" height="12.6"/><rect class="cls-42" x="107.5" y="37.65" width="3.3" height="19.63"/><rect class="cls-43" x="107.06" y="37.65" width="6.23" height="19.63"/><rect class="cls-44" x="113.3" y="37.65" width="6.23" height="19.63"/><rect class="cls-45" x="107.06" y="37.65" width="6.23" height="0.78"/><rect class="cls-46" x="107.06" y="39.19" width="6.23" height="0.78"/><rect class="cls-47" x="107.06" y="40.73" width="6.23" height="0.78"/><rect class="cls-48" x="107.06" y="42.28" width="6.23" height="0.78"/><rect class="cls-49" x="107.06" y="43.82" width="6.23" height="0.78"/><rect class="cls-50" x="107.06" y="45.36" width="6.23" height="0.78"/><rect class="cls-51" x="107.06" y="46.9" width="6.23" height="0.78"/><rect class="cls-52" x="107.06" y="48.45" width="6.23" height="0.78"/><rect class="cls-53" x="107.06" y="49.99" width="6.23" height="0.78"/><rect class="cls-54" x="107.06" y="51.53" width="6.23" height="0.78"/><rect class="cls-55" x="107.06" y="53.07" width="6.23" height="0.78"/><rect class="cls-56" x="107.06" y="54.62" width="6.23" height="0.78"/><rect class="cls-57" x="107.06" y="56.16" width="6.23" height="0.78"/><rect class="cls-58" x="120.83" y="41.38" width="3.38" height="0.85"/><rect class="cls-59" x="120.84" y="43.19" width="3.38" height="0.85"/><rect class="cls-60" x="120.84" y="44.99" width="3.38" height="0.85"/><rect class="cls-61" x="120.84" y="46.8" width="3.38" height="0.85"/><rect class="cls-62" x="120.84" y="48.61" width="3.38" height="0.85"/><rect class="cls-63" x="120.85" y="50.42" width="3.38" height="0.85"/><rect class="cls-64" x="120.85" y="52.22" width="3.38" height="0.85"/><rect class="cls-65" x="108.67" y="46.27" width="4.63" height="2.18"/><rect class="cls-66" x="110.18" y="48.45" width="1.36" height="16.52"/><rect class="cls-67" x="108.09" y="63.87" width="5.79" height="1.1"/><rect class="cls-68" x="117.04" y="57.27" width="1.78" height="7.69"/><rect class="cls-69" x="97.34" y="73.17" width="6" height="32.21"/><rect class="cls-70" x="127.21" y="73.17" width="6" height="32.21"/><rect class="cls-71" x="97.25" y="100.38" width="35.95" height="4.99"/><rect class="cls-72" x="11.63" y="73.17" width="6" height="32.21"/><rect class="cls-73" x="41.5" y="73.17" width="6" height="32.21"/><rect class="cls-74" x="11.54" y="100.38" width="35.95" height="4.99"/><polygon class="cls-75" points="86.98 28.45 53.3 28.45 48.03 3 91.88 3 86.98 28.45"/><rect class="cls-76" x="44" width="51.48" height="3"/><rect class="cls-77" x="26.75" y="37.65" width="7.95" height="19.29"/><rect class="cls-78" x="26.75" y="37.65" width="7.95" height="1.75"/><rect class="cls-79" x="26.75" y="40.65" width="7.95" height="1.75"/><rect class="cls-80" x="26.75" y="43.65" width="7.95" height="1.75"/><rect class="cls-81" x="26.75" y="46.65" width="7.95" height="1.75"/><rect class="cls-82" x="26.75" y="49.65" width="7.95" height="1.75"/><rect class="cls-83" x="26.75" y="52.65" width="7.95" height="1.75"/><rect class="cls-84" x="26.75" y="55.65" width="7.95" height="1.75"/><rect class="cls-85" x="21.93" y="42.28" width="1.33" height="10.38"/><circle class="cls-86" cx="116.41" cy="47.46" r="1.19"/></g></g></g></svg>