<svg xmlns="http://www.w3.org/2000/svg" xmlns:xlink="http://www.w3.org/1999/xlink" viewBox="0 0 147.38 150.07"><defs><style>.cls-1{fill:url(#未命名的渐变_74);}.cls-2{fill:url(#未命名的渐变_74-2);}.cls-3{fill:url(#未命名的渐变_74-3);}.cls-4{fill:url(#未命名的渐变_74-4);}.cls-5{fill:url(#未命名的渐变_74-5);}.cls-6{fill:url(#未命名的渐变_74-6);}.cls-7{fill:url(#未命名的渐变_74-7);}.cls-8{fill:url(#未命名的渐变_74-8);}.cls-9{fill:url(#未命名的渐变_74-9);}.cls-10{fill:url(#未命名的渐变_74-10);}.cls-11{fill:#666;stroke:#565656;stroke-miterlimit:10;stroke-width:0.5px;}.cls-12{fill:url(#未命名的渐变_74-11);}.cls-13{fill:url(#未命名的渐变_74-12);}</style><linearGradient id="未命名的渐变_74" x1="10.71" y1="134.68" x2="48.92" y2="134.68" gradientUnits="userSpaceOnUse"><stop offset="0" stop-color="#6b6b6b"/><stop offset="0.01" stop-color="#767676"/><stop offset="0.03" stop-color="#959595"/><stop offset="0.04" stop-color="#aaa"/><stop offset="0.37" stop-color="#ccc"/><stop offset="0.74" stop-color="#eaeaea"/><stop offset="0.94" stop-color="#f6f6f6"/><stop offset="0.95" stop-color="#ededed"/><stop offset="0.96" stop-color="#d4d4d4"/><stop offset="0.97" stop-color="#ababab"/><stop offset="0.99" stop-color="#737373"/><stop offset="0.99" stop-color="#666"/></linearGradient><linearGradient id="未命名的渐变_74-2" x1="142.33" y1="-2.81" x2="57.65" y2="143.86" xlink:href="#未命名的渐变_74"/><linearGradient id="未命名的渐变_74-3" x1="29.82" y1="96.25" x2="29.82" y2="87.32" xlink:href="#未命名的渐变_74"/><linearGradient id="未命名的渐变_74-4" x1="0" y1="145.61" x2="107.95" y2="145.61" xlink:href="#未命名的渐变_74"/><linearGradient id="未命名的渐变_74-5" x1="0" y1="118.69" x2="10.71" y2="118.69" xlink:href="#未命名的渐变_74"/><linearGradient id="未命名的渐变_74-6" x1="48.92" y1="118.69" x2="59.64" y2="118.69" xlink:href="#未命名的渐变_74"/><linearGradient id="未命名的渐变_74-7" x1="29.82" y1="87.32" x2="29.82" y2="62.68" xlink:href="#未命名的渐变_74"/><linearGradient id="未命名的渐变_74-8" x1="29.5" y1="103.74" x2="29.5" y2="96.25" xlink:href="#未命名的渐变_74"/><linearGradient id="未命名的渐变_74-9" x1="30.27" y1="107.72" x2="30.27" y2="103.74" xlink:href="#未命名的渐变_74"/><linearGradient id="未命名的渐变_74-10" x1="18.12" y1="121.86" x2="42.43" y2="121.86" xlink:href="#未命名的渐变_74"/><linearGradient id="未命名的渐变_74-11" x1="102.48" y1="109.33" x2="107.95" y2="109.33" xlink:href="#未命名的渐变_74"/><linearGradient id="未命名的渐变_74-12" x1="129.83" y1="14.35" x2="147.38" y2="14.35" xlink:href="#未命名的渐变_74"/></defs><title>Spiral conveyor with hopper(带料斗的螺旋输送机)</title><g id="图层_2" data-name="图层 2"><g id="图层_55" data-name="图层 55"><g id="Spiral_conveyor_with_hopper_带料斗的螺旋输送机_" data-name="Spiral conveyor with hopper(带料斗的螺旋输送机)"><rect class="cls-1" x="10.71" y="131.37" width="38.21" height="6.63"/><polygon class="cls-2" points="77.91 140.94 52.59 140.94 122.07 0.11 147.38 0.11 77.91 140.94"/><rect class="cls-3" y="87.32" width="59.64" height="8.93"/><rect class="cls-4" y="141.14" width="107.95" height="8.93"/><rect class="cls-5" y="87.32" width="10.71" height="62.75"/><rect class="cls-6" x="48.92" y="87.32" width="10.71" height="62.75"/><polygon class="cls-7" points="48.92 87.32 10.71 87.32 0 62.68 59.64 62.68 48.92 87.32"/><rect class="cls-8" x="19.44" y="96.25" width="20.11" height="7.49"/><rect class="cls-9" x="14.36" y="103.74" width="31.82" height="3.98"/><rect class="cls-10" x="18.12" y="107.72" width="24.31" height="28.29"/><line class="cls-11" x1="134.02" y1="0.11" x2="63.29" y2="140.94"/><rect class="cls-12" x="102.48" y="68.59" width="5.48" height="81.48"/><polygon class="cls-13" points="147.38 28.58 137.46 28.58 129.83 0.11 147.38 0.11 147.38 28.58"/></g></g></g></svg>