<svg xmlns="http://www.w3.org/2000/svg" xmlns:xlink="http://www.w3.org/1999/xlink" viewBox="0 0 150 146.55"><defs><style>.cls-1{fill:url(#未命名的渐变_74);}.cls-2{fill:url(#未命名的渐变_105);}.cls-3{fill:url(#未命名的渐变_105-2);}.cls-4{fill:url(#未命名的渐变_105-3);}.cls-5{fill:url(#未命名的渐变_105-4);}.cls-6{fill:url(#未命名的渐变_105-5);}.cls-7{fill:url(#未命名的渐变_105-6);}.cls-8{fill:url(#未命名的渐变_67);}.cls-9{fill:url(#未命名的渐变_67-2);}.cls-10{fill:url(#未命名的渐变_67-3);}.cls-11{fill:url(#未命名的渐变_67-4);}.cls-12{fill:url(#未命名的渐变_67-5);}.cls-13{fill:url(#未命名的渐变_67-6);}.cls-14{fill:url(#未命名的渐变_67-7);}.cls-15{fill:url(#未命名的渐变_67-8);}.cls-16{fill:url(#未命名的渐变_67-9);}.cls-17{fill:url(#未命名的渐变_67-10);}.cls-18{fill:url(#未命名的渐变_67-11);}.cls-19{fill:url(#未命名的渐变_105-7);}.cls-20{fill:url(#未命名的渐变_105-8);}.cls-21{fill:url(#未命名的渐变_74-2);}.cls-22{fill:url(#未命名的渐变_74-3);}.cls-23{fill:url(#未命名的渐变_74-4);}.cls-24{fill:url(#未命名的渐变_74-5);}.cls-25{fill:url(#未命名的渐变_74-6);}.cls-26{fill:url(#未命名的渐变_67-12);}.cls-27{fill:url(#未命名的渐变_67-13);}.cls-28{fill:url(#未命名的渐变_67-14);}.cls-29{fill:url(#未命名的渐变_67-15);}.cls-30{fill:url(#未命名的渐变_74-7);}.cls-31{fill:url(#未命名的渐变_74-8);}.cls-32{fill:url(#未命名的渐变_74-9);}</style><linearGradient id="未命名的渐变_74" x1="38.64" y1="35.59" x2="38.64" gradientUnits="userSpaceOnUse"><stop offset="0" stop-color="#6b6b6b"/><stop offset="0.01" stop-color="#767676"/><stop offset="0.03" stop-color="#959595"/><stop offset="0.04" stop-color="#aaa"/><stop offset="0.37" stop-color="#ccc"/><stop offset="0.74" stop-color="#eaeaea"/><stop offset="0.94" stop-color="#f6f6f6"/><stop offset="0.95" stop-color="#ededed"/><stop offset="0.96" stop-color="#d4d4d4"/><stop offset="0.97" stop-color="#ababab"/><stop offset="0.99" stop-color="#737373"/><stop offset="0.99" stop-color="#666"/></linearGradient><linearGradient id="未命名的渐变_105" x1="24" y1="38.51" x2="55" y2="38.51" gradientUnits="userSpaceOnUse"><stop offset="0" stop-color="#e2e2e2"/><stop offset="0.03" stop-color="#d0d0d0"/><stop offset="0.06" stop-color="#bcbcbc"/><stop offset="0.09" stop-color="#b5b5b5"/><stop offset="0.49" stop-color="#f6f6f6"/><stop offset="0.63" stop-color="#f3f3f3"/><stop offset="0.73" stop-color="#eaeaea"/><stop offset="0.82" stop-color="#dbdbdb"/><stop offset="0.9" stop-color="#c6c6c6"/><stop offset="0.97" stop-color="#aaa"/><stop offset="1" stop-color="#9b9b9b"/></linearGradient><linearGradient id="未命名的渐变_105-2" x1="29.17" y1="52.97" x2="49.61" y2="52.97" xlink:href="#未命名的渐变_105"/><linearGradient id="未命名的渐变_105-3" x1="49.61" y1="64.21" x2="50.19" y2="64.21" xlink:href="#未命名的渐变_105"/><linearGradient id="未命名的渐变_105-4" x1="24" y1="74.47" x2="55" y2="74.47" xlink:href="#未命名的渐变_105"/><linearGradient id="未命名的渐变_105-5" x1="0" y1="115.57" x2="80.38" y2="115.57" xlink:href="#未命名的渐变_105"/><linearGradient id="未命名的渐变_105-6" x1="-475.59" y1="-1274.28" x2="-475.59" y2="-1317.18" gradientTransform="matrix(0, 1, 1, 0, 1425.78, 560.01)" xlink:href="#未命名的渐变_105"/><linearGradient id="未命名的渐变_67" x1="-459.55" y1="-755.25" x2="-502.43" y2="-755.25" gradientTransform="translate(609.05 837.19) rotate(0.03)" gradientUnits="userSpaceOnUse"><stop offset="0" stop-color="#6b6b6b"/><stop offset="0.11" stop-color="#767676"/><stop offset="0.3" stop-color="#959595"/><stop offset="0.41" stop-color="#aaa"/><stop offset="0.56" stop-color="#ccc"/><stop offset="0.71" stop-color="#eaeaea"/><stop offset="0.8" stop-color="#f6f6f6"/><stop offset="0.83" stop-color="#ededed"/><stop offset="0.87" stop-color="#d4d4d4"/><stop offset="0.92" stop-color="#ababab"/><stop offset="0.98" stop-color="#737373"/><stop offset="0.99" stop-color="#666"/></linearGradient><linearGradient id="未命名的渐变_67-2" x1="-498.75" y1="-733.72" x2="-500.96" y2="-733.72" gradientTransform="translate(609.14 837.26) rotate(0.03)" xlink:href="#未命名的渐变_67"/><linearGradient id="未命名的渐变_67-3" x1="-494.8" y1="-733.72" x2="-497" y2="-733.72" gradientTransform="translate(609.14 837.24) rotate(0.03)" xlink:href="#未命名的渐变_67"/><linearGradient id="未命名的渐变_67-4" x1="-490.84" y1="-733.72" x2="-493.04" y2="-733.72" gradientTransform="matrix(1, 0, 0, 1, 609.14, 837.23)" xlink:href="#未命名的渐变_67"/><linearGradient id="未命名的渐变_67-5" x1="-486.88" y1="-733.73" x2="-489.08" y2="-733.73" gradientTransform="translate(609.14 837.21) rotate(0.03)" xlink:href="#未命名的渐变_67"/><linearGradient id="未命名的渐变_67-6" x1="-482.93" y1="-733.73" x2="-485.13" y2="-733.73" gradientTransform="translate(609.14 837.2) rotate(0.03)" xlink:href="#未命名的渐变_67"/><linearGradient id="未命名的渐变_67-7" x1="-478.97" y1="-733.73" x2="-481.17" y2="-733.73" gradientTransform="translate(609.14 837.18) rotate(0.03)" xlink:href="#未命名的渐变_67"/><linearGradient id="未命名的渐变_67-8" x1="-475.01" y1="-733.73" x2="-477.21" y2="-733.73" gradientTransform="translate(609.14 837.17) rotate(0.03)" xlink:href="#未命名的渐变_67"/><linearGradient id="未命名的渐变_67-9" x1="-471.06" y1="-733.73" x2="-473.26" y2="-733.73" gradientTransform="translate(609.14 837.15) rotate(0.03)" xlink:href="#未命名的渐变_67"/><linearGradient id="未命名的渐变_67-10" x1="-467.1" y1="-733.74" x2="-469.3" y2="-733.74" gradientTransform="translate(609.14 837.14) rotate(0.03)" xlink:href="#未命名的渐变_67"/><linearGradient id="未命名的渐变_67-11" x1="-462.86" y1="-733.69" x2="-465.06" y2="-733.69" gradientTransform="matrix(1, 0, 0, 1, 609.14, 837.12)" xlink:href="#未命名的渐变_67"/><linearGradient id="未命名的渐变_105-7" x1="-584" y1="-725.81" x2="-584" y2="-728.96" gradientTransform="matrix(1.75, -0.01, 0, 1, 1125.21, 833.6)" xlink:href="#未命名的渐变_105"/><linearGradient id="未命名的渐变_105-8" x1="-582.52" y1="-723.96" x2="-582.52" y2="-730.6" gradientTransform="matrix(1.75, -0.01, 0, 1, 1125.21, 833.6)" xlink:href="#未命名的渐变_105"/><linearGradient id="未命名的渐变_74-2" x1="60.41" y1="267.74" x2="77.36" y2="267.74" gradientTransform="translate(53.84 -158.29)" xlink:href="#未命名的渐变_74"/><linearGradient id="未命名的渐变_74-3" x1="74.75" y1="267.74" x2="63.03" y2="267.74" gradientTransform="translate(53.84 -158.29)" xlink:href="#未命名的渐变_74"/><linearGradient id="未命名的渐变_74-4" x1="17.94" y1="87.95" x2="20.3" y2="87.95" xlink:href="#未命名的渐变_74"/><linearGradient id="未命名的渐变_74-5" x1="59.88" y1="87.95" x2="62.24" y2="87.95" xlink:href="#未命名的渐变_74"/><linearGradient id="未命名的渐变_74-6" x1="35.63" y1="53.83" x2="40.19" y2="53.83" xlink:href="#未命名的渐变_74"/><linearGradient id="未命名的渐变_67-12" x1="0" y1="92.1" x2="80.38" y2="92.1" gradientTransform="matrix(1, 0, 0, 1, 0, 0)" xlink:href="#未命名的渐变_67"/><linearGradient id="未命名的渐变_67-13" x1="0" y1="95.87" x2="80.38" y2="95.87" gradientTransform="matrix(1, 0, 0, 1, 0, 0)" xlink:href="#未命名的渐变_67"/><linearGradient id="未命名的渐变_67-14" x1="0" y1="139.22" x2="80.38" y2="139.22" gradientTransform="matrix(1, 0, 0, 1, 0, 0)" xlink:href="#未命名的渐变_67"/><linearGradient id="未命名的渐变_67-15" x1="0" y1="142.99" x2="80.38" y2="142.99" gradientTransform="matrix(1, 0, 0, 1, 0, 0)" xlink:href="#未命名的渐变_67"/><linearGradient id="未命名的渐变_74-7" x1="33.89" y1="39.16" x2="41.92" y2="39.16" xlink:href="#未命名的渐变_74"/><linearGradient id="未命名的渐变_74-8" x1="33.89" y1="67.97" x2="41.92" y2="67.97" xlink:href="#未命名的渐变_74"/><linearGradient id="未命名的渐变_74-9" x1="115.19" y1="146.55" x2="115.19" y2="123.53" xlink:href="#未命名的渐变_74"/></defs><title>Vertical shaft impactor立轴冲击器)</title><g id="图层_2" data-name="图层 2"><g id="图层_55" data-name="图层 55"><g id="Vertical_shaft_impactor立轴冲击器_" data-name="Vertical shaft impactor立轴冲击器)"><polygon class="cls-1" points="48.44 35.59 29.11 35.59 11.18 0 66.11 0 48.44 35.59"/><rect class="cls-2" x="24" y="35.59" width="30.99" height="5.84"/><rect class="cls-3" x="29.17" y="41.43" width="20.44" height="23.07"/><rect class="cls-4" x="49.61" y="63.92" width="0.58" height="0.58"/><rect class="cls-5" x="24" y="64.21" width="30.99" height="20.53"/><rect class="cls-6" y="84.6" width="80.38" height="61.95"/><path class="cls-7" d="M150,123.37l-.18-62.52s-.63-6.85-21.76-6.77c-15.6.06-21.12,6.94-21.12,6.94l.18,62.51Z"/><rect class="cls-8" x="107" y="80.41" width="42.88" height="2.57" transform="translate(-0.31 0.5) rotate(-0.22)"/><rect class="cls-9" x="108.55" y="83.06" width="2.18" height="40.46" transform="translate(-0.4 0.42) rotate(-0.22)"/><rect class="cls-10" x="112.51" y="83.04" width="2.18" height="40.46" transform="translate(-0.4 0.44) rotate(-0.22)"/><rect class="cls-11" x="116.47" y="83.03" width="2.18" height="40.46" transform="translate(-0.4 0.45) rotate(-0.22)"/><rect class="cls-12" x="120.42" y="83.01" width="2.18" height="40.46" transform="translate(-0.4 0.47) rotate(-0.22)"/><rect class="cls-13" x="124.38" y="82.99" width="2.18" height="40.46" transform="translate(-0.4 0.48) rotate(-0.22)"/><rect class="cls-14" x="128.34" y="82.98" width="2.18" height="40.46" transform="translate(-0.4 0.5) rotate(-0.22)"/><rect class="cls-15" x="132.29" y="82.96" width="2.18" height="40.46" transform="translate(-0.4 0.52) rotate(-0.22)"/><rect class="cls-16" x="136.25" y="82.95" width="2.18" height="40.46" transform="translate(-0.4 0.53) rotate(-0.22)"/><rect class="cls-17" x="140.21" y="82.93" width="2.18" height="40.46" transform="translate(-0.4 0.55) rotate(-0.22)"/><rect class="cls-18" x="144.45" y="82.97" width="2.18" height="40.46" transform="translate(-0.4 0.56) rotate(-0.22)"/><polygon class="cls-19" points="104.35 111.21 101.92 111.22 101.92 108.08 104.34 108.07 104.35 111.21"/><polygon class="cls-20" points="107.11 113.05 104.36 113.06 104.34 106.43 107.09 106.42 107.11 113.05"/><rect class="cls-21" x="114.26" y="100.97" width="16.95" height="16.95" transform="translate(13.29 232.18) rotate(-90)"/><rect class="cls-22" x="116.87" y="103.58" width="11.72" height="11.72" transform="translate(13.29 232.18) rotate(-90)"/><rect class="cls-23" x="17.94" y="84.6" width="2.36" height="6.7"/><rect class="cls-24" x="59.88" y="84.6" width="2.36" height="6.7"/><rect class="cls-25" x="35.63" y="39.43" width="4.56" height="28.79"/><rect class="cls-26" y="91.3" width="80.38" height="1.6"/><rect class="cls-27" y="95.07" width="80.38" height="1.6"/><rect class="cls-28" y="138.42" width="80.38" height="1.6"/><rect class="cls-29" y="142.19" width="80.38" height="1.6"/><rect class="cls-30" x="33.89" y="38.51" width="8.03" height="1.3"/><rect class="cls-31" x="33.89" y="67.31" width="8.03" height="1.3"/><rect class="cls-32" x="80.38" y="123.53" width="69.62" height="23.02"/></g></g></g></svg>