<svg xmlns="http://www.w3.org/2000/svg" xmlns:xlink="http://www.w3.org/1999/xlink" viewBox="0 0 35.2 151"><defs><style>.cls-1,.cls-4{opacity:0.3;}.cls-1{fill:url(#未命名的渐变_108);}.cls-2,.cls-5{fill:none;stroke-miterlimit:10;}.cls-2{stroke:url(#未命名的渐变_223);}.cls-3{fill:url(#未命名的渐变_198);}.cls-4{fill:url(#未命名的渐变_108-2);}.cls-5{stroke:url(#未命名的渐变_226);}.cls-6{fill:url(#未命名的渐变_233);}</style><linearGradient id="未命名的渐变_108" x1="2.67" y1="78.58" x2="32.53" y2="78.58" gradientUnits="userSpaceOnUse"><stop offset="0" stop-color="#a9b1bb"/><stop offset="0.06" stop-color="#5d6166"/><stop offset="0.78" stop-color="#e2eaf2"/><stop offset="0.93" stop-color="#9ba1ab"/><stop offset="1" stop-color="#767b82"/></linearGradient><linearGradient id="未命名的渐变_223" x1="2.17" y1="78.58" x2="33.03" y2="78.58" gradientUnits="userSpaceOnUse"><stop offset="0" stop-color="#e6f1ff" stop-opacity="0"/><stop offset="0.04" stop-color="#5d6166"/><stop offset="0.64" stop-color="#eef7ff" stop-opacity="0"/><stop offset="0.88" stop-color="#9ba1ab"/><stop offset="1" stop-color="#767b82"/></linearGradient><linearGradient id="未命名的渐变_198" x1="17.6" y1="147.28" x2="17.6" y2="139.43" gradientUnits="userSpaceOnUse"><stop offset="0" stop-color="#acafb3"/><stop offset="0.16" stop-color="#b8bbbe" stop-opacity="0.75"/><stop offset="0.36" stop-color="#c5c8cb" stop-opacity="0.49"/><stop offset="0.55" stop-color="#d0d2d4" stop-opacity="0.28"/><stop offset="0.73" stop-color="#d7d9db" stop-opacity="0.12"/><stop offset="0.88" stop-color="#dbdde0" stop-opacity="0.03"/><stop offset="1" stop-color="#dddfe1" stop-opacity="0"/></linearGradient><linearGradient id="未命名的渐变_108-2" x1="0.5" y1="3.58" x2="34.7" y2="3.58" xlink:href="#未命名的渐变_108"/><linearGradient id="未命名的渐变_226" y1="3.58" x2="35.2" y2="3.58" gradientUnits="userSpaceOnUse"><stop offset="0" stop-color="#767b82"/><stop offset="0.12" stop-color="#9ba1ab"/><stop offset="0.36" stop-color="#eef7ff" stop-opacity="0"/><stop offset="0.94" stop-color="#5d6166"/><stop offset="1" stop-color="#e6f1ff" stop-opacity="0"/></linearGradient><linearGradient id="未命名的渐变_233" x1="7.09" y1="62.15" x2="45.69" y2="39.87" gradientUnits="userSpaceOnUse"><stop offset="0" stop-color="#fff" stop-opacity="0"/><stop offset="0.1" stop-color="#fff" stop-opacity="0.02"/><stop offset="0.22" stop-color="#fff" stop-opacity="0.09"/><stop offset="0.36" stop-color="#fff" stop-opacity="0.19"/><stop offset="0.51" stop-color="#fff" stop-opacity="0.34"/><stop offset="0.68" stop-color="#fff" stop-opacity="0.53"/><stop offset="0.84" stop-color="#fff" stop-opacity="0.76"/><stop offset="1" stop-color="#fff"/></linearGradient></defs><title>Beaker 2(烧杯)</title><g id="图层_2" data-name="图层 2"><g id="图层_21" data-name="图层 21"><g id="Beaker_2_烧杯_" data-name="Beaker 2(烧杯)"><path class="cls-1" d="M2.67,6.66H32.53a0,0,0,0,1,0,0V135.57A14.93,14.93,0,0,1,17.6,150.5h0A14.93,14.93,0,0,1,2.67,135.57V6.66a0,0,0,0,1,0,0Z"/><path class="cls-2" d="M2.67,6.66H32.53a0,0,0,0,1,0,0V135.57A14.93,14.93,0,0,1,17.6,150.5h0A14.93,14.93,0,0,1,2.67,135.57V6.66a0,0,0,0,1,0,0Z"/><ellipse class="cls-3" cx="17.6" cy="143.35" rx="11.92" ry="3.92"/><rect class="cls-4" x="0.5" y="0.5" width="34.2" height="6.16" rx="3.08"/><rect class="cls-5" x="0.5" y="0.5" width="34.2" height="6.16" rx="3.08"/><rect class="cls-6" x="25.08" y="7.75" width="2.61" height="86.53" rx="1.31"/></g></g></g></svg>