<svg xmlns="http://www.w3.org/2000/svg" xmlns:xlink="http://www.w3.org/1999/xlink" viewBox="0 0 67.63 150"><defs><style>.cls-1{fill:url(#未命名的渐变_16);}.cls-2{fill:url(#未命名的渐变_121);}.cls-3{fill:url(#未命名的渐变_16-2);}.cls-4{fill:url(#未命名的渐变_121-2);}.cls-5{fill:url(#未命名的渐变_121-3);}.cls-6{fill:url(#未命名的渐变_121-4);}.cls-7{fill:url(#未命名的渐变_121-5);}.cls-8{fill:url(#未命名的渐变_121-6);}.cls-9{fill:url(#未命名的渐变_121-7);}.cls-10{fill:url(#未命名的渐变_121-8);}.cls-11{fill:url(#未命名的渐变_121-9);}.cls-12{fill:url(#未命名的渐变_121-10);}.cls-13{fill:url(#未命名的渐变_15);}.cls-14{fill:url(#未命名的渐变_121-11);}.cls-15{fill:url(#未命名的渐变_121-12);}.cls-16{opacity:0.2;fill:url(#未命名的渐变_376);}.cls-17{fill:url(#未命名的渐变_121-13);}.cls-18{fill:url(#未命名的渐变_121-14);}.cls-19{fill:url(#未命名的渐变_121-15);}.cls-20{fill:url(#未命名的渐变_121-16);}.cls-21{fill:url(#未命名的渐变_205);}.cls-22{fill:url(#未命名的渐变_121-17);}.cls-23{fill:url(#未命名的渐变_205-2);}.cls-24{fill:url(#未命名的渐变_121-18);}.cls-25{fill:url(#未命名的渐变_15-2);}.cls-26{fill:url(#未命名的渐变_121-19);}.cls-27{fill:url(#未命名的渐变_15-3);}.cls-28{fill:url(#未命名的渐变_16-3);}.cls-29,.cls-31,.cls-34,.cls-37{fill:#8e9399;stroke-miterlimit:10;stroke-width:0.25px;}.cls-29{stroke:url(#未命名的渐变_19);}.cls-30{fill:url(#未命名的渐变_15-4);}.cls-31{stroke:url(#未命名的渐变_19-2);}.cls-32{fill:url(#未命名的渐变_16-4);}.cls-33{fill:url(#未命名的渐变_15-5);}.cls-34{stroke:url(#未命名的渐变_19-3);}.cls-35{fill:url(#未命名的渐变_16-5);}.cls-36{fill:url(#未命名的渐变_15-6);}.cls-37{stroke:url(#未命名的渐变_19-4);}.cls-38{fill:url(#未命名的渐变_15-7);}</style><linearGradient id="未命名的渐变_16" x1="168.17" y1="1019.73" x2="171.94" y2="1019.73" gradientTransform="matrix(1, 0, 0, -1, -112.98, 1066.21)" gradientUnits="userSpaceOnUse"><stop offset="0" stop-color="#767b82"/><stop offset="0.07" stop-color="#9ba1ab"/><stop offset="0.25" stop-color="#e2eaf2"/><stop offset="0.31" stop-color="#d1d8e0"/><stop offset="0.51" stop-color="#a1a7ae"/><stop offset="0.68" stop-color="#7e8489"/><stop offset="0.82" stop-color="#696e73"/><stop offset="0.91" stop-color="#61666b"/><stop offset="1" stop-color="#a9b1bb"/></linearGradient><linearGradient id="未命名的渐变_121" x1="-211.66" y1="259.55" x2="-207.89" y2="259.55" gradientTransform="matrix(0, 1, 1, 0, -211.66, 211.66)" gradientUnits="userSpaceOnUse"><stop offset="0" stop-color="#a9b1bb"/><stop offset="0.09" stop-color="#61666b"/><stop offset="0.18" stop-color="#696e73"/><stop offset="0.32" stop-color="#7e8489"/><stop offset="0.49" stop-color="#a1a7ae"/><stop offset="0.69" stop-color="#d1d8e0"/><stop offset="0.75" stop-color="#e2eaf2"/><stop offset="0.93" stop-color="#9ba1ab"/><stop offset="1" stop-color="#767b82"/></linearGradient><linearGradient id="未命名的渐变_16-2" x1="-269.12" y1="1055.78" x2="-265.34" y2="1055.78" gradientTransform="translate(-228.53 1066.21) rotate(180)" xlink:href="#未命名的渐变_16"/><linearGradient id="未命名的渐变_121-2" x1="-344.27" y1="83.7" x2="-337.91" y2="83.7" gradientTransform="matrix(1, 0, 0, -1, 398.16, 91.79)" xlink:href="#未命名的渐变_121"/><linearGradient id="未命名的渐变_121-3" x1="-325.9" y1="83.7" x2="-319.55" y2="83.7" gradientTransform="matrix(1, 0, 0, -1, 361.43, 91.79)" xlink:href="#未命名的渐变_121"/><linearGradient id="未命名的渐变_121-4" x1="38.69" y1="2.2" x2="42.24" y2="5.18" gradientTransform="matrix(1, 0, 0, 1, 0, 0)" xlink:href="#未命名的渐变_121"/><linearGradient id="未命名的渐变_121-5" x1="-382.69" y1="2.2" x2="-379.15" y2="5.18" gradientTransform="matrix(-1, 0, 0, 1, -325.61, 0)" xlink:href="#未命名的渐变_121"/><linearGradient id="未命名的渐变_121-6" x1="6.91" y1="34.07" x2="43.01" y2="34.07" gradientTransform="matrix(1, 0, 0, 1, 0, 0)" xlink:href="#未命名的渐变_121"/><linearGradient id="未命名的渐变_121-7" x1="21.5" y1="76.9" x2="28.41" y2="76.9" gradientTransform="matrix(1, 0, 0, 1, 0, 0)" xlink:href="#未命名的渐变_121"/><linearGradient id="未命名的渐变_121-8" x1="20.48" y1="75.48" x2="29.44" y2="75.48" gradientTransform="matrix(1, 0, 0, 1, 0, 0)" xlink:href="#未命名的渐变_121"/><linearGradient id="未命名的渐变_121-9" x1="20.48" y1="92.18" x2="29.44" y2="92.18" gradientTransform="matrix(1, 0, 0, 1, 0, 0)" xlink:href="#未命名的渐变_121"/><linearGradient id="未命名的渐变_121-10" x1="16.55" y1="116.82" x2="33.37" y2="116.82" gradientTransform="matrix(1, 0, 0, 1, 0, 0)" xlink:href="#未命名的渐变_121"/><linearGradient id="未命名的渐变_15" x1="16.55" y1="130.32" x2="33.37" y2="130.32" gradientUnits="userSpaceOnUse"><stop offset="0" stop-color="#7a8088"/><stop offset="0.09" stop-color="#2d2f33"/><stop offset="0.19" stop-color="#35373b"/><stop offset="0.33" stop-color="#4a4d51"/><stop offset="0.51" stop-color="#6d7176"/><stop offset="0.71" stop-color="#9da3a8"/><stop offset="0.78" stop-color="#b0b7bc"/><stop offset="0.93" stop-color="#6d7177"/><stop offset="1" stop-color="#5c6067"/></linearGradient><linearGradient id="未命名的渐变_121-11" x1="20.48" y1="80.33" x2="29.44" y2="80.33" gradientTransform="matrix(1, 0, 0, 1, 0, 0)" xlink:href="#未命名的渐变_121"/><linearGradient id="未命名的渐变_121-12" x1="6.39" y1="13.42" x2="43.53" y2="13.42" gradientTransform="matrix(1, 0, 0, 1, 0, 0)" xlink:href="#未命名的渐变_121"/><linearGradient id="未命名的渐变_376" x1="24.96" y1="55.15" x2="24.96" y2="46.11" gradientUnits="userSpaceOnUse"><stop offset="0" stop-color="#2e3033"/><stop offset="1" stop-color="#9ba1ab" stop-opacity="0"/></linearGradient><linearGradient id="未命名的渐变_121-13" x1="9.85" y1="50.06" x2="36.93" y2="65.69" gradientTransform="matrix(1, 0, 0, 1, 0, 0)" xlink:href="#未命名的渐变_121"/><linearGradient id="未命名的渐变_121-14" x1="93.84" y1="106.36" x2="97.61" y2="106.36" gradientTransform="translate(-48.5 -17.82)" xlink:href="#未命名的渐变_121"/><linearGradient id="未命名的渐变_121-15" x1="48.35" y1="83.26" x2="52.12" y2="83.26" gradientTransform="translate(-26.12 50.77)" xlink:href="#未命名的渐变_121"/><linearGradient id="未命名的渐变_121-16" x1="92.04" y1="70.06" x2="95.82" y2="70.06" gradientTransform="translate(-91.84 27.91)" xlink:href="#未命名的渐变_121"/><linearGradient id="未命名的渐变_205" x1="0.2" y1="44.72" x2="8.97" y2="44.72" gradientUnits="userSpaceOnUse"><stop offset="0" stop-color="#767b82"/><stop offset="0.02" stop-color="#9ba1ab"/><stop offset="0.98" stop-color="#9ba1ab"/><stop offset="0.99" stop-color="#d7dce0"/><stop offset="1" stop-color="#767b82"/></linearGradient><linearGradient id="未命名的渐变_121-17" x1="137.26" y1="70.06" x2="141.03" y2="70.06" gradientTransform="matrix(1, 0, 0, -1, -91.67, 168.02)" xlink:href="#未命名的渐变_121"/><linearGradient id="未命名的渐变_205-2" x1="45.42" y1="44.72" x2="54.18" y2="44.72" gradientTransform="matrix(-1, 0, 0, 1, 94.78, 0)" xlink:href="#未命名的渐变_205"/><linearGradient id="未命名的渐变_121-18" x1="2.79" y1="147.45" x2="1.38" y2="147.45" gradientTransform="matrix(1, 0, 0, 1, 0, 0)" xlink:href="#未命名的渐变_121"/><linearGradient id="未命名的渐变_15-2" x1="4.18" y1="149.16" x2="0" y2="149.16" xlink:href="#未命名的渐变_15"/><linearGradient id="未命名的渐变_121-19" x1="48.18" y1="147.45" x2="46.77" y2="147.45" gradientTransform="matrix(1, 0, 0, 1, 0, 0)" xlink:href="#未命名的渐变_121"/><linearGradient id="未命名的渐变_15-3" x1="49.56" y1="149.16" x2="45.38" y2="149.16" xlink:href="#未命名的渐变_15"/><linearGradient id="未命名的渐变_16-3" x1="58.01" y1="15.33" x2="59.37" y2="15.33" gradientTransform="translate(15.56 11.6) scale(0.75 0.83)" xlink:href="#未命名的渐变_16"/><linearGradient id="未命名的渐变_19" x1="57.08" y1="24.29" x2="57.08" y2="17.55" gradientUnits="userSpaceOnUse"><stop offset="0" stop-color="#5c6066"/><stop offset="1" stop-color="#dce1e6"/></linearGradient><linearGradient id="未命名的渐变_15-4" x1="60.05" y1="29.87" x2="61.83" y2="29.87" xlink:href="#未命名的渐变_15"/><linearGradient id="未命名的渐变_19-2" x1="64.26" y1="91.22" x2="64.26" y2="84.47" xlink:href="#未命名的渐变_19"/><linearGradient id="未命名的渐变_16-4" x1="63.65" y1="92.85" x2="64.86" y2="92.85" gradientTransform="matrix(1, 0, 0, 1, 0, 0)" xlink:href="#未命名的渐变_16"/><linearGradient id="未命名的渐变_15-5" x1="63.37" y1="96.8" x2="65.15" y2="96.8" xlink:href="#未命名的渐变_15"/><linearGradient id="未命名的渐变_19-3" x1="50.59" y1="49.48" x2="50.59" y2="42.74" xlink:href="#未命名的渐变_19"/><linearGradient id="未命名的渐变_16-5" x1="49.98" y1="51.12" x2="51.19" y2="51.12" gradientTransform="matrix(1, 0, 0, 1, 0, 0)" xlink:href="#未命名的渐变_16"/><linearGradient id="未命名的渐变_15-6" x1="49.7" y1="55.06" x2="51.47" y2="55.06" xlink:href="#未命名的渐变_15"/><linearGradient id="未命名的渐变_19-4" x1="36.88" y1="80.86" x2="36.88" y2="74.12" xlink:href="#未命名的渐变_19"/><linearGradient id="未命名的渐变_15-7" x1="35.99" y1="83.7" x2="37.77" y2="83.7" xlink:href="#未命名的渐变_15"/></defs><title>Inline mixer emulsifier 2(直列式混合乳化剂2)</title><g id="图层_2" data-name="图层 2"><g id="图层_6" data-name="图层 6"><g id="Inline_mixer_emulsifier_2_直列式混合乳化剂2_" data-name="Inline mixer emulsifier 2(直列式混合乳化剂2)"><polygon class="cls-1" points="58.96 4.42 55.18 7.08 55.18 88.54 58.96 88.54 58.96 4.42"/><polygon class="cls-2" points="43.41 3.77 52.36 3.78 55.18 0 40.59 0 43.41 3.77"/><polygon class="cls-3" points="36.82 4.43 40.59 7.1 40.59 16.43 36.82 16.43 36.82 4.43"/><rect class="cls-4" x="53.89" y="7.54" width="6.36" height="1.11" transform="translate(114.14 16.18) rotate(-180)"/><rect class="cls-5" x="35.53" y="7.54" width="6.36" height="1.11" transform="translate(77.41 16.18) rotate(-180)"/><polygon class="cls-6" points="43.41 3.77 40.59 7.1 36.82 4.43 40.59 0 43.41 3.77"/><polygon class="cls-7" points="52.36 3.77 55.18 7.1 58.96 4.43 55.19 0 52.36 3.77"/><rect class="cls-8" x="6.91" y="12.99" width="36.1" height="42.17"/><rect class="cls-9" x="21.5" y="70.93" width="6.91" height="11.94"/><rect class="cls-10" x="20.48" y="74.38" width="8.96" height="2.2"/><rect class="cls-11" x="20.48" y="82.87" width="8.96" height="18.63"/><rect class="cls-12" x="16.55" y="101.5" width="16.82" height="30.64"/><rect class="cls-13" x="16.55" y="128.5" width="16.82" height="3.64"/><rect class="cls-14" x="20.48" y="79.92" width="8.96" height="0.82"/><rect class="cls-15" x="6.39" y="12.99" width="37.14" height="0.87"/><rect class="cls-16" x="6.91" y="46.11" width="36.1" height="9.04"/><polygon class="cls-17" points="28.23 70.93 21.68 70.93 6.91 55.15 43.01 55.15 28.23 70.93"/><rect class="cls-18" x="45.34" y="70.75" width="3.77" height="35.57" transform="translate(-41.31 135.76) rotate(-90)"/><rect class="cls-19" x="22.23" y="111.99" width="3.77" height="44.06" transform="translate(-109.91 158.15) rotate(-90)"/><rect class="cls-20" x="0.2" y="49.36" width="3.77" height="97.21"/><polygon class="cls-21" points="8.97 40.08 8.97 49.36 0.2 49.36 8.97 40.08"/><rect class="cls-22" x="45.58" y="49.36" width="3.77" height="97.21" transform="translate(94.94 195.94) rotate(-180)"/><polygon class="cls-23" points="40.59 40.08 40.59 49.36 49.36 49.36 40.59 40.08"/><rect class="cls-24" x="1.38" y="146.57" width="1.41" height="1.74"/><rect class="cls-25" y="148.32" width="4.18" height="1.68"/><rect class="cls-26" x="46.77" y="146.57" width="1.41" height="1.74"/><rect class="cls-27" x="45.38" y="148.32" width="4.18" height="1.68"/><rect class="cls-28" x="58.8" y="20.69" width="1.02" height="7.15" transform="translate(-4.19 32.9) rotate(-30)"/><polygon class="cls-29" points="58.42 17.67 55.73 17.67 53.83 19.57 53.83 22.26 55.73 24.16 58.42 24.16 60.32 22.26 60.32 19.57 58.42 17.67"/><rect class="cls-30" x="60.05" y="26.91" width="1.78" height="5.93"/><polygon class="cls-31" points="65.6 84.6 62.91 84.6 61.01 86.5 61.01 89.19 62.91 91.09 65.6 91.09 67.5 89.19 67.5 86.5 65.6 84.6"/><rect class="cls-32" x="63.65" y="91.09" width="1.21" height="3.52"/><rect class="cls-33" x="63.37" y="93.83" width="1.78" height="5.93"/><polygon class="cls-34" points="51.93 42.87 49.24 42.87 47.34 44.77 47.34 47.45 49.24 49.36 51.93 49.36 53.83 47.45 53.83 44.77 51.93 42.87"/><rect class="cls-35" x="49.98" y="49.36" width="1.21" height="3.52"/><rect class="cls-36" x="49.7" y="52.1" width="1.78" height="5.93"/><polygon class="cls-37" points="38.23 74.25 35.54 74.25 33.64 76.15 33.64 78.84 35.54 80.74 38.23 80.74 40.13 78.84 40.13 76.15 38.23 74.25"/><rect class="cls-38" x="35.99" y="80.74" width="1.78" height="5.93"/></g></g></g></svg>