<svg xmlns="http://www.w3.org/2000/svg" xmlns:xlink="http://www.w3.org/1999/xlink" viewBox="0 0 40.72 150"><defs><style>.cls-1{fill:url(#未命名的渐变_121);}.cls-2{fill:url(#未命名的渐变_121-2);}.cls-3{fill:url(#未命名的渐变_121-3);}.cls-4{fill:url(#未命名的渐变_121-4);}.cls-5{fill:url(#未命名的渐变_121-5);}.cls-6{fill:url(#未命名的渐变_121-6);}.cls-7{fill:url(#未命名的渐变_121-7);}.cls-8{fill:url(#未命名的渐变_121-8);}.cls-9{fill:url(#未命名的渐变_121-9);}.cls-10{fill:url(#未命名的渐变_121-10);}</style><linearGradient id="未命名的渐变_121" x1="11.78" y1="14.3" x2="24.36" y2="14.3" gradientUnits="userSpaceOnUse"><stop offset="0" stop-color="#a9b1bb"/><stop offset="0.09" stop-color="#61666b"/><stop offset="0.18" stop-color="#696e73"/><stop offset="0.32" stop-color="#7e8489"/><stop offset="0.49" stop-color="#a1a7ae"/><stop offset="0.69" stop-color="#d1d8e0"/><stop offset="0.75" stop-color="#e2eaf2"/><stop offset="0.93" stop-color="#9ba1ab"/><stop offset="1" stop-color="#767b82"/></linearGradient><linearGradient id="未命名的渐变_121-2" x1="6.63" y1="71.42" x2="29.51" y2="71.42" xlink:href="#未命名的渐变_121"/><linearGradient id="未命名的渐变_121-3" x1="10.35" y1="5.74" x2="25.78" y2="5.74" xlink:href="#未命名的渐变_121"/><linearGradient id="未命名的渐变_121-4" x1="0" y1="31.58" x2="36.14" y2="31.58" xlink:href="#未命名的渐变_121"/><linearGradient id="未命名的渐变_121-5" x1="0" y1="105.28" x2="36.14" y2="105.28" xlink:href="#未命名的渐变_121"/><linearGradient id="未命名的渐变_121-6" x1="5.72" y1="114.7" x2="28.17" y2="117.85" xlink:href="#未命名的渐变_121"/><linearGradient id="未命名的渐变_121-7" x1="32.29" y1="52.42" x2="32.29" y2="42.13" xlink:href="#未命名的渐变_121"/><linearGradient id="未命名的渐变_121-8" x1="39.76" y1="53.1" x2="39.76" y2="41.44" xlink:href="#未命名的渐变_121"/><linearGradient id="未命名的渐变_121-9" x1="10.91" y1="135.68" x2="25.37" y2="135.68" xlink:href="#未命名的渐变_121"/><linearGradient id="未命名的渐变_121-10" x1="8.72" y1="148.08" x2="27.56" y2="148.08" xlink:href="#未命名的渐变_121"/></defs><title>Sanitary heater(卫生热水器)</title><g id="图层_2" data-name="图层 2"><g id="图层_6" data-name="图层 6"><g id="Sanitary_heater_卫生热水器_" data-name="Sanitary heater(卫生热水器)"><rect class="cls-1" x="11.78" width="12.58" height="28.6"/><rect class="cls-2" x="6.63" y="34.57" width="22.89" height="73.7"/><rect class="cls-3" x="10.35" y="1.7" width="15.43" height="8.08"/><rect class="cls-4" y="28.6" width="36.14" height="5.98"/><rect class="cls-5" y="102.29" width="36.14" height="5.98"/><polygon class="cls-6" points="25.23 125.2 10.91 125.2 6.63 108.27 29.51 108.27 25.23 125.2"/><polygon class="cls-7" points="38.8 52.42 29.21 52.42 25.79 47.27 29.21 42.13 38.8 42.13 38.8 52.42"/><rect class="cls-8" x="38.8" y="41.44" width="1.92" height="11.66"/><rect class="cls-9" x="10.91" y="125.2" width="14.46" height="20.97"/><rect class="cls-10" x="8.72" y="146.16" width="18.84" height="3.84"/></g></g></g></svg>