<svg xmlns="http://www.w3.org/2000/svg" xmlns:xlink="http://www.w3.org/1999/xlink" viewBox="0 0 150 150"><defs><style>.cls-1{fill:none;}.cls-2{clip-path:url(#clip-path);}.cls-3{fill:url(#未命名的渐变_143);}.cls-4{fill:url(#未命名的渐变_143-2);}.cls-5{fill:url(#未命名的渐变_143-3);}.cls-6{fill:url(#未命名的渐变_143-4);}.cls-7{fill:url(#未命名的渐变_143-5);}.cls-8{fill:url(#未命名的渐变_143-6);}.cls-9{fill:url(#未命名的渐变_143-7);}.cls-10{fill:url(#未命名的渐变_143-8);}.cls-11{fill:url(#未命名的渐变_143-9);}.cls-12{fill:url(#未命名的渐变_143-10);}.cls-13{fill:url(#未命名的渐变_143-11);}.cls-14{fill:url(#未命名的渐变_143-12);}.cls-15{fill:url(#未命名的渐变_143-13);}.cls-16{fill:url(#未命名的渐变_143-14);}.cls-17{fill:url(#未命名的渐变_143-15);}.cls-18{fill:url(#未命名的渐变_143-16);}.cls-19{fill:url(#未命名的渐变_143-17);}.cls-20{fill:url(#未命名的渐变_143-18);}.cls-21{fill:url(#未命名的渐变_143-19);}.cls-22{fill:url(#未命名的渐变_143-20);}.cls-23{fill:url(#未命名的渐变_143-21);}.cls-24{fill:url(#未命名的渐变_143-22);}.cls-25{fill:url(#未命名的渐变_143-23);}.cls-26{fill:url(#未命名的渐变_143-24);}.cls-27{fill:url(#未命名的渐变_143-25);}.cls-28{fill:url(#未命名的渐变_143-26);}.cls-29{fill:url(#未命名的渐变_143-27);}.cls-30{fill:url(#未命名的渐变_143-28);}.cls-31{fill:url(#未命名的渐变_143-29);}.cls-32{fill:url(#未命名的渐变_143-30);}.cls-33{fill:url(#未命名的渐变_143-31);}.cls-34{fill:url(#未命名的渐变_143-32);}.cls-35{fill:url(#未命名的渐变_143-33);}.cls-36{fill:url(#未命名的渐变_143-34);}.cls-37{fill:url(#未命名的渐变_143-35);}.cls-38{fill:url(#未命名的渐变_143-36);}.cls-39{fill:url(#未命名的渐变_143-37);}.cls-40{fill:url(#未命名的渐变_143-38);}.cls-41{fill:url(#未命名的渐变_143-39);}.cls-42{fill:url(#未命名的渐变_143-40);}.cls-43{fill:url(#未命名的渐变_143-41);}.cls-44{fill:url(#未命名的渐变_143-42);}.cls-45{fill:url(#未命名的渐变_143-43);}.cls-46{fill:url(#未命名的渐变_143-44);}.cls-47{fill:url(#未命名的渐变_143-45);}.cls-48{fill:url(#未命名的渐变_143-46);}.cls-49{fill:url(#未命名的渐变_143-47);}.cls-50{fill:url(#未命名的渐变_143-48);}.cls-51{fill:url(#未命名的渐变_143-49);}.cls-52{fill:url(#未命名的渐变_143-50);}.cls-53{fill:url(#未命名的渐变_143-51);}.cls-54{fill:url(#未命名的渐变_143-52);}.cls-55{fill:url(#未命名的渐变_143-53);}.cls-56{fill:url(#未命名的渐变_143-54);}.cls-57{fill:url(#未命名的渐变_143-55);}.cls-58{fill:url(#未命名的渐变_143-56);}.cls-59{fill:url(#未命名的渐变_143-57);}.cls-60{fill:url(#未命名的渐变_143-58);}.cls-61{fill:url(#未命名的渐变_143-59);}.cls-62{fill:url(#未命名的渐变_143-60);}.cls-63{fill:url(#未命名的渐变_143-61);}.cls-64{fill:url(#未命名的渐变_143-62);}.cls-65{fill:url(#未命名的渐变_143-63);}.cls-66{fill:url(#未命名的渐变_143-64);}.cls-67{fill:url(#未命名的渐变_143-65);}.cls-68{fill:url(#未命名的渐变_143-66);}.cls-69{fill:url(#未命名的渐变_143-67);}.cls-70{fill:url(#未命名的渐变_143-68);}.cls-71{fill:url(#未命名的渐变_143-69);}.cls-72{fill:url(#未命名的渐变_143-70);}.cls-73{fill:url(#未命名的渐变_143-71);}.cls-74{fill:url(#未命名的渐变_143-72);}.cls-75{fill:url(#未命名的渐变_143-73);}.cls-76{fill:url(#未命名的渐变_143-74);}.cls-77{fill:url(#未命名的渐变_143-75);}.cls-78{fill:url(#未命名的渐变_143-76);}.cls-79{fill:url(#未命名的渐变_143-77);}.cls-80{fill:url(#未命名的渐变_143-78);}.cls-81{fill:url(#未命名的渐变_143-79);}.cls-82{fill:url(#未命名的渐变_143-80);}.cls-83{fill:url(#未命名的渐变_143-81);}.cls-84{fill:url(#未命名的渐变_143-82);}.cls-85{fill:url(#未命名的渐变_143-83);}.cls-86{fill:url(#未命名的渐变_143-84);}.cls-87{fill:url(#未命名的渐变_143-85);}.cls-88{fill:url(#未命名的渐变_143-86);}.cls-89{fill:url(#未命名的渐变_143-87);}.cls-90{fill:url(#未命名的渐变_143-88);}.cls-91{fill:url(#未命名的渐变_143-89);}.cls-92{fill:url(#未命名的渐变_143-90);}.cls-93{fill:url(#未命名的渐变_143-91);}.cls-94{fill:url(#未命名的渐变_143-92);}.cls-95{fill:url(#未命名的渐变_143-93);}.cls-96{fill:url(#未命名的渐变_143-94);}.cls-97{fill:url(#未命名的渐变_143-95);}.cls-98{fill:url(#未命名的渐变_143-96);}.cls-99{fill:url(#未命名的渐变_143-97);}.cls-100{fill:url(#未命名的渐变_143-98);}.cls-101{clip-path:url(#clip-path-2);}.cls-102{clip-path:url(#clip-path-3);}.cls-103{fill:url(#未命名的渐变_143-99);}.cls-104{fill:url(#未命名的渐变_143-100);}.cls-105{fill:url(#未命名的渐变_143-101);}.cls-106{fill:url(#未命名的渐变_143-102);}.cls-107{fill:url(#未命名的渐变_143-103);}.cls-108{fill:url(#未命名的渐变_143-104);}.cls-109{fill:url(#未命名的渐变_143-105);}.cls-110{fill:url(#未命名的渐变_143-106);}.cls-111{fill:url(#未命名的渐变_143-107);}.cls-112{fill:url(#未命名的渐变_143-108);}.cls-113{fill:url(#未命名的渐变_143-109);}.cls-114{fill:url(#未命名的渐变_143-110);}.cls-115{fill:url(#未命名的渐变_143-111);}.cls-116{fill:url(#未命名的渐变_143-112);}.cls-117{fill:url(#未命名的渐变_143-113);}.cls-118{fill:url(#未命名的渐变_143-114);}.cls-119{fill:url(#未命名的渐变_143-115);}.cls-120{fill:url(#未命名的渐变_143-116);}.cls-121{fill:url(#未命名的渐变_143-117);}.cls-122{fill:url(#未命名的渐变_143-118);}.cls-123{fill:url(#未命名的渐变_143-119);}.cls-124{fill:url(#未命名的渐变_143-120);}.cls-125{fill:url(#未命名的渐变_143-121);}.cls-126{fill:url(#未命名的渐变_143-122);}.cls-127{fill:url(#未命名的渐变_143-123);}.cls-128{fill:url(#未命名的渐变_143-124);}.cls-129{fill:url(#未命名的渐变_143-125);}.cls-130{fill:url(#未命名的渐变_143-126);}.cls-131{fill:url(#未命名的渐变_143-127);}.cls-132{fill:url(#未命名的渐变_143-128);}.cls-133{fill:url(#未命名的渐变_143-129);}.cls-134{fill:url(#未命名的渐变_143-130);}.cls-135{fill:url(#未命名的渐变_143-131);}.cls-136{fill:url(#未命名的渐变_143-132);}.cls-137{fill:url(#未命名的渐变_143-133);}.cls-138{fill:url(#未命名的渐变_143-134);}.cls-139{fill:url(#未命名的渐变_143-135);}.cls-140{fill:url(#未命名的渐变_143-136);}.cls-141{fill:url(#未命名的渐变_143-137);}.cls-142{fill:url(#未命名的渐变_143-138);}.cls-143{fill:url(#未命名的渐变_143-139);}.cls-144{fill:url(#未命名的渐变_143-140);}.cls-145{fill:url(#未命名的渐变_143-141);}.cls-146{fill:url(#未命名的渐变_143-142);}.cls-147{fill:url(#未命名的渐变_143-143);}.cls-148{fill:url(#未命名的渐变_143-144);}.cls-149{fill:url(#未命名的渐变_143-145);}.cls-150{fill:url(#未命名的渐变_143-146);}.cls-151{fill:url(#未命名的渐变_143-147);}.cls-152{fill:url(#未命名的渐变_143-148);}.cls-153{fill:url(#未命名的渐变_143-149);}.cls-154{fill:url(#未命名的渐变_143-150);}.cls-155{fill:url(#未命名的渐变_143-151);}.cls-156{fill:url(#未命名的渐变_143-152);}.cls-157{fill:url(#未命名的渐变_143-153);}.cls-158{fill:url(#未命名的渐变_143-154);}.cls-159{fill:url(#未命名的渐变_143-155);}.cls-160{fill:url(#未命名的渐变_143-156);}.cls-161{fill:url(#未命名的渐变_143-157);}.cls-162{fill:url(#未命名的渐变_143-158);}.cls-163{fill:url(#未命名的渐变_143-159);}.cls-164{fill:url(#未命名的渐变_143-160);}.cls-165{fill:url(#未命名的渐变_143-161);}.cls-166{fill:url(#未命名的渐变_143-162);}.cls-167{fill:url(#未命名的渐变_143-163);}.cls-168{fill:url(#未命名的渐变_143-164);}.cls-169{fill:url(#未命名的渐变_143-165);}</style><clipPath id="clip-path"><rect class="cls-1" width="150" height="150"/></clipPath><linearGradient id="未命名的渐变_143" x1="541.64" y1="-14.65" x2="541.64" y2="-106.57" gradientTransform="translate(107.3 697.3) rotate(-90)" gradientUnits="userSpaceOnUse"><stop offset="0" stop-color="#b7b7b7"/><stop offset="0.03" stop-color="#9b9d9d"/><stop offset="0.07" stop-color="#878b8b"/><stop offset="0.09" stop-color="#808484"/><stop offset="0.2" stop-color="#a3a6a6"/><stop offset="0.49" stop-color="#f6f6f6"/><stop offset="0.61" stop-color="#f3f3f3"/><stop offset="0.7" stop-color="#eaeaea"/><stop offset="0.77" stop-color="#dbdbdb"/><stop offset="0.83" stop-color="#c5c5c5"/><stop offset="0.9" stop-color="#aaa"/><stop offset="0.95" stop-color="#888"/><stop offset="1" stop-color="#666"/></linearGradient><linearGradient id="未命名的渐变_143-2" x1="537.46" y1="-13.7" x2="537.46" y2="-105.63" gradientTransform="translate(106.36 691.37) rotate(-90)" xlink:href="#未命名的渐变_143"/><linearGradient id="未命名的渐变_143-3" x1="533.28" y1="-12.76" x2="533.28" y2="-104.68" gradientTransform="translate(105.42 685.45) rotate(-90)" xlink:href="#未命名的渐变_143"/><linearGradient id="未命名的渐变_143-4" x1="529.11" y1="-11.77" x2="529.11" y2="-103.7" gradientTransform="translate(102.69 679.69) rotate(-89.81)" xlink:href="#未命名的渐变_143"/><linearGradient id="未命名的渐变_143-5" x1="524.93" y1="-10.57" x2="524.93" y2="-102.49" gradientTransform="translate(92.48 674.53) rotate(-88.83)" xlink:href="#未命名的渐变_143"/><linearGradient id="未命名的渐变_143-6" x1="520.76" y1="-9.37" x2="520.76" y2="-101.29" gradientTransform="matrix(0.04, -1, 1, 0.04, 82.43, 669.2)" xlink:href="#未命名的渐变_143"/><linearGradient id="未命名的渐变_143-7" x1="516.59" y1="-8.16" x2="516.59" y2="-100.08" gradientTransform="translate(72.55 663.69) rotate(-86.85)" xlink:href="#未命名的渐变_143"/><linearGradient id="未命名的渐变_143-8" x1="512.43" y1="-6.96" x2="512.43" y2="-98.88" gradientTransform="translate(62.84 658) rotate(-85.87)" xlink:href="#未命名的渐变_143"/><linearGradient id="未命名的渐变_143-9" x1="508.27" y1="-5.76" x2="508.27" y2="-97.68" gradientTransform="translate(53.32 652.14) rotate(-84.89)" xlink:href="#未命名的渐变_143"/><linearGradient id="未命名的渐变_143-10" x1="504.11" y1="-4.56" x2="504.11" y2="-96.48" gradientTransform="translate(43.97 646.12) rotate(-83.9)" xlink:href="#未命名的渐变_143"/><linearGradient id="未命名的渐变_143-11" x1="499.97" y1="-3.36" x2="499.97" y2="-95.28" gradientTransform="translate(34.82 639.93) rotate(-82.92)" xlink:href="#未命名的渐变_143"/><linearGradient id="未命名的渐变_143-12" x1="495.82" y1="-2.16" x2="495.82" y2="-94.08" gradientTransform="translate(25.85 633.59) rotate(-81.94)" xlink:href="#未命名的渐变_143"/><linearGradient id="未命名的渐变_143-13" x1="491.68" y1="-0.96" x2="491.68" y2="-92.88" gradientTransform="translate(17.08 627.1) rotate(-80.96)" xlink:href="#未命名的渐变_143"/><linearGradient id="未命名的渐变_143-14" x1="487.54" y1="0.24" x2="487.54" y2="-91.68" gradientTransform="matrix(0.17, -0.98, 0.98, 0.17, 8.5, 620.46)" xlink:href="#未命名的渐变_143"/><linearGradient id="未命名的渐变_143-15" x1="483.41" y1="1.44" x2="483.41" y2="-90.48" gradientTransform="translate(0.12 613.67) rotate(-79)" xlink:href="#未命名的渐变_143"/><linearGradient id="未命名的渐变_143-16" x1="479.28" y1="2.63" x2="479.28" y2="-89.29" gradientTransform="translate(-8.06 606.75) rotate(-78.03)" xlink:href="#未命名的渐变_143"/><linearGradient id="未命名的渐变_143-17" x1="475.16" y1="3.83" x2="475.16" y2="-88.09" gradientTransform="translate(-16.03 599.7) rotate(-77.06)" xlink:href="#未命名的渐变_143"/><linearGradient id="未命名的渐变_143-18" x1="471.04" y1="5.02" x2="471.04" y2="-86.9" gradientTransform="translate(-23.8 592.52) rotate(-76.08)" xlink:href="#未命名的渐变_143"/><linearGradient id="未命名的渐变_143-19" x1="466.93" y1="6.21" x2="466.93" y2="-85.71" gradientTransform="translate(-31.35 585.22) rotate(-75.11)" xlink:href="#未命名的渐变_143"/><linearGradient id="未命名的渐变_143-20" x1="462.81" y1="7.4" x2="462.81" y2="-84.52" gradientTransform="translate(-38.7 577.8) rotate(-74.14)" xlink:href="#未命名的渐变_143"/><linearGradient id="未命名的渐变_143-21" x1="458.71" y1="8.59" x2="458.71" y2="-83.33" gradientTransform="translate(-45.83 570.26) rotate(-73.18)" xlink:href="#未命名的渐变_143"/><linearGradient id="未命名的渐变_143-22" x1="454.6" y1="9.78" x2="454.6" y2="-82.14" gradientTransform="translate(-52.75 562.63) rotate(-72.21)" xlink:href="#未命名的渐变_143"/><linearGradient id="未命名的渐变_143-23" x1="450.51" y1="10.96" x2="450.51" y2="-80.96" gradientTransform="translate(-59.45 554.89) rotate(-71.25)" xlink:href="#未命名的渐变_143"/><linearGradient id="未命名的渐变_143-24" x1="446.41" y1="12.15" x2="446.41" y2="-79.77" gradientTransform="translate(-65.94 547.05) rotate(-70.29)" xlink:href="#未命名的渐变_143"/><linearGradient id="未命名的渐变_143-25" x1="442.32" y1="13.33" x2="442.32" y2="-78.59" gradientTransform="translate(-72.21 539.12) rotate(-69.33)" xlink:href="#未命名的渐变_143"/><linearGradient id="未命名的渐变_143-26" x1="438.23" y1="14.51" x2="438.23" y2="-77.41" gradientTransform="translate(-78.27 531.11) rotate(-68.37)" xlink:href="#未命名的渐变_143"/><linearGradient id="未命名的渐变_143-27" x1="434.15" y1="15.68" x2="434.15" y2="-76.24" gradientTransform="translate(-84.1 523.01) rotate(-67.41)" xlink:href="#未命名的渐变_143"/><linearGradient id="未命名的渐变_143-28" x1="430.07" y1="16.86" x2="430.07" y2="-75.06" gradientTransform="translate(-89.72 514.84) rotate(-66.46)" xlink:href="#未命名的渐变_143"/><linearGradient id="未命名的渐变_143-29" x1="425.99" y1="18.03" x2="425.99" y2="-73.89" gradientTransform="translate(-95.11 506.59) rotate(-65.51)" xlink:href="#未命名的渐变_143"/><linearGradient id="未命名的渐变_143-30" x1="421.92" y1="19.2" x2="421.92" y2="-72.72" gradientTransform="translate(-100.29 498.28) rotate(-64.56)" xlink:href="#未命名的渐变_143"/><linearGradient id="未命名的渐变_143-31" x1="417.85" y1="20.37" x2="417.85" y2="-71.55" gradientTransform="translate(-105.25 489.91) rotate(-63.61)" xlink:href="#未命名的渐变_143"/><linearGradient id="未命名的渐变_143-32" x1="413.78" y1="21.54" x2="413.78" y2="-70.38" gradientTransform="translate(-109.99 481.48) rotate(-62.66)" xlink:href="#未命名的渐变_143"/><linearGradient id="未命名的渐变_143-33" x1="409.72" y1="22.7" x2="409.72" y2="-69.22" gradientTransform="translate(-114.51 473) rotate(-61.72)" xlink:href="#未命名的渐变_143"/><linearGradient id="未命名的渐变_143-34" x1="405.66" y1="23.86" x2="405.66" y2="-68.06" gradientTransform="translate(-118.81 464.47) rotate(-60.77)" xlink:href="#未命名的渐变_143"/><linearGradient id="未命名的渐变_143-35" x1="401.61" y1="25.02" x2="401.61" y2="-66.9" gradientTransform="translate(-122.9 455.9) rotate(-59.83)" xlink:href="#未命名的渐变_143"/><linearGradient id="未命名的渐变_143-36" x1="397.56" y1="26.18" x2="397.56" y2="-65.74" gradientTransform="translate(-126.76 447.29) rotate(-58.89)" xlink:href="#未命名的渐变_143"/><linearGradient id="未命名的渐变_143-37" x1="393.51" y1="27.33" x2="393.51" y2="-64.59" gradientTransform="translate(-130.41 438.65) rotate(-57.95)" xlink:href="#未命名的渐变_143"/><linearGradient id="未命名的渐变_143-38" x1="389.46" y1="28.48" x2="389.46" y2="-63.44" gradientTransform="translate(-133.85 429.98) rotate(-57.02)" xlink:href="#未命名的渐变_143"/><linearGradient id="未命名的渐变_143-39" x1="385.42" y1="29.63" x2="385.42" y2="-62.29" gradientTransform="translate(-137.07 421.28) rotate(-56.08)" xlink:href="#未命名的渐变_143"/><linearGradient id="未命名的渐变_143-40" x1="381.38" y1="30.78" x2="381.38" y2="-61.14" gradientTransform="translate(-140.07 412.57) rotate(-55.15)" xlink:href="#未命名的渐变_143"/><linearGradient id="未命名的渐变_143-41" x1="377.34" y1="31.92" x2="377.34" y2="-60" gradientTransform="translate(-142.87 403.84) rotate(-54.21)" xlink:href="#未命名的渐变_143"/><linearGradient id="未命名的渐变_143-42" x1="373.31" y1="33.07" x2="373.31" y2="-58.86" gradientTransform="translate(-145.45 395.09) rotate(-53.28)" xlink:href="#未命名的渐变_143"/><linearGradient id="未命名的渐变_143-43" x1="369.28" y1="34.2" x2="369.28" y2="-57.72" gradientTransform="translate(-147.82 386.34) rotate(-52.35)" xlink:href="#未命名的渐变_143"/><linearGradient id="未命名的渐变_143-44" x1="365.26" y1="35.34" x2="365.26" y2="-56.58" gradientTransform="translate(-149.98 377.58) rotate(-51.42)" xlink:href="#未命名的渐变_143"/><linearGradient id="未命名的渐变_143-45" x1="361.23" y1="36.47" x2="361.23" y2="-55.45" gradientTransform="translate(-151.93 368.83) rotate(-50.48)" xlink:href="#未命名的渐变_143"/><linearGradient id="未命名的渐变_143-46" x1="357.21" y1="37.61" x2="357.21" y2="-54.31" gradientTransform="translate(-153.67 360.07) rotate(-49.55)" xlink:href="#未命名的渐变_143"/><linearGradient id="未命名的渐变_143-47" x1="353.19" y1="38.73" x2="353.19" y2="-53.19" gradientTransform="translate(-155.21 351.33) rotate(-48.63)" xlink:href="#未命名的渐变_143"/><linearGradient id="未命名的渐变_143-48" x1="349.18" y1="39.86" x2="349.18" y2="-52.06" gradientTransform="matrix(0.67, -0.74, 0.74, 0.67, -156.55, 342.6)" xlink:href="#未命名的渐变_143"/><linearGradient id="未命名的渐变_143-49" x1="345.17" y1="40.98" x2="345.17" y2="-50.94" gradientTransform="translate(-157.68 333.88) rotate(-46.77)" xlink:href="#未命名的渐变_143"/><linearGradient id="未命名的渐变_143-50" x1="341.16" y1="42.1" x2="341.16" y2="-49.82" gradientTransform="translate(-158.61 325.18) rotate(-45.84)" xlink:href="#未命名的渐变_143"/><linearGradient id="未命名的渐变_143-51" x1="337.15" y1="43.22" x2="337.15" y2="-48.7" gradientTransform="translate(-159.34 316.51) rotate(-44.91)" xlink:href="#未命名的渐变_143"/><linearGradient id="未命名的渐变_143-52" x1="333.15" y1="44.33" x2="333.15" y2="-47.59" gradientTransform="translate(-159.87 307.87) rotate(-43.98)" xlink:href="#未命名的渐变_143"/><linearGradient id="未命名的渐变_143-53" x1="329.15" y1="45.45" x2="329.15" y2="-46.47" gradientTransform="translate(-160.2 299.25) rotate(-43.05)" xlink:href="#未命名的渐变_143"/><linearGradient id="未命名的渐变_143-54" x1="325.15" y1="46.55" x2="325.15" y2="-45.37" gradientTransform="translate(-160.34 290.67) rotate(-42.13)" xlink:href="#未命名的渐变_143"/><linearGradient id="未命名的渐变_143-55" x1="321.16" y1="47.66" x2="321.16" y2="-44.26" gradientTransform="translate(-160.28 282.12) rotate(-41.2)" xlink:href="#未命名的渐变_143"/><linearGradient id="未命名的渐变_143-56" x1="317.16" y1="48.76" x2="317.16" y2="-43.16" gradientTransform="translate(-160.03 273.62) rotate(-40.27)" xlink:href="#未命名的渐变_143"/><linearGradient id="未命名的渐变_143-57" x1="313.17" y1="49.86" x2="313.17" y2="-42.06" gradientTransform="translate(-159.59 265.16) rotate(-39.34)" xlink:href="#未命名的渐变_143"/><linearGradient id="未命名的渐变_143-58" x1="309.19" y1="50.96" x2="309.19" y2="-40.96" gradientTransform="translate(-158.96 256.75) rotate(-38.41)" xlink:href="#未命名的渐变_143"/><linearGradient id="未命名的渐变_143-59" x1="305.2" y1="52.05" x2="305.2" y2="-39.87" gradientTransform="translate(-158.14 248.4) rotate(-37.48)" xlink:href="#未命名的渐变_143"/><linearGradient id="未命名的渐变_143-60" x1="301.22" y1="53.14" x2="301.22" y2="-38.78" gradientTransform="translate(-157.13 240.1) rotate(-36.54)" xlink:href="#未命名的渐变_143"/><linearGradient id="未命名的渐变_143-61" x1="297.24" y1="54.23" x2="297.24" y2="-37.69" gradientTransform="translate(-155.94 231.85) rotate(-35.61)" xlink:href="#未命名的渐变_143"/><linearGradient id="未命名的渐变_143-62" x1="293.27" y1="55.32" x2="293.27" y2="-36.6" gradientTransform="translate(-154.57 223.67) rotate(-34.68)" xlink:href="#未命名的渐变_143"/><linearGradient id="未命名的渐变_143-63" x1="289.29" y1="56.4" x2="289.29" y2="-35.52" gradientTransform="translate(-153.01 215.56) rotate(-33.74)" xlink:href="#未命名的渐变_143"/><linearGradient id="未命名的渐变_143-64" x1="285.32" y1="57.48" x2="285.32" y2="-34.44" gradientTransform="translate(-151.28 207.51) rotate(-32.81)" xlink:href="#未命名的渐变_143"/><linearGradient id="未命名的渐变_143-65" x1="281.35" y1="58.55" x2="281.35" y2="-33.37" gradientTransform="translate(-149.36 199.54) rotate(-31.87)" xlink:href="#未命名的渐变_143"/><linearGradient id="未命名的渐变_143-66" x1="277.39" y1="59.62" x2="277.39" y2="-32.3" gradientTransform="translate(-147.27 191.64) rotate(-30.93)" xlink:href="#未命名的渐变_143"/><linearGradient id="未命名的渐变_143-67" x1="273.42" y1="60.69" x2="273.42" y2="-31.23" gradientTransform="translate(-145 183.83) rotate(-29.99)" xlink:href="#未命名的渐变_143"/><linearGradient id="未命名的渐变_143-68" x1="269.46" y1="61.76" x2="269.46" y2="-30.16" gradientTransform="translate(-142.57 176.09) rotate(-29.05)" xlink:href="#未命名的渐变_143"/><linearGradient id="未命名的渐变_143-69" x1="265.5" y1="62.82" x2="265.5" y2="-29.1" gradientTransform="translate(-139.96 168.44) rotate(-28.1)" xlink:href="#未命名的渐变_143"/><linearGradient id="未命名的渐变_143-70" x1="261.55" y1="63.88" x2="261.55" y2="-28.04" gradientTransform="translate(-137.18 160.89) rotate(-27.16)" xlink:href="#未命名的渐变_143"/><linearGradient id="未命名的渐变_143-71" x1="257.59" y1="64.93" x2="257.59" y2="-26.99" gradientTransform="translate(-134.23 153.43) rotate(-26.21)" xlink:href="#未命名的渐变_143"/><linearGradient id="未命名的渐变_143-72" x1="253.64" y1="65.98" x2="253.64" y2="-25.94" gradientTransform="translate(-131.12 146.06) rotate(-25.26)" xlink:href="#未命名的渐变_143"/><linearGradient id="未命名的渐变_143-73" x1="249.69" y1="67.03" x2="249.69" y2="-24.89" gradientTransform="translate(-127.84 138.79) rotate(-24.31)" xlink:href="#未命名的渐变_143"/><linearGradient id="未命名的渐变_143-74" x1="245.74" y1="68.07" x2="245.74" y2="-23.85" gradientTransform="translate(-124.4 131.63) rotate(-23.36)" xlink:href="#未命名的渐变_143"/><linearGradient id="未命名的渐变_143-75" x1="241.8" y1="69.11" x2="241.8" y2="-22.81" gradientTransform="translate(-120.8 124.58) rotate(-22.4)" xlink:href="#未命名的渐变_143"/><linearGradient id="未命名的渐变_143-76" x1="237.85" y1="70.15" x2="237.85" y2="-21.77" gradientTransform="translate(-117.05 117.64) rotate(-21.45)" xlink:href="#未命名的渐变_143"/><linearGradient id="未命名的渐变_143-77" x1="233.91" y1="71.18" x2="233.91" y2="-20.74" gradientTransform="translate(-113.14 110.81) rotate(-20.49)" xlink:href="#未命名的渐变_143"/><linearGradient id="未命名的渐变_143-78" x1="229.97" y1="72.21" x2="229.97" y2="-19.71" gradientTransform="translate(-109.08 104.1) rotate(-19.53)" xlink:href="#未命名的渐变_143"/><linearGradient id="未命名的渐变_143-79" x1="226.03" y1="73.24" x2="226.03" y2="-18.68" gradientTransform="translate(-104.87 97.51) rotate(-18.57)" xlink:href="#未命名的渐变_143"/><linearGradient id="未命名的渐变_143-80" x1="222.1" y1="74.26" x2="222.1" y2="-17.66" gradientTransform="translate(-100.51 91.05) rotate(-17.6)" xlink:href="#未命名的渐变_143"/><linearGradient id="未命名的渐变_143-81" x1="218.16" y1="75.28" x2="218.16" y2="-16.65" gradientTransform="translate(-96 84.72) rotate(-16.64)" xlink:href="#未命名的渐变_143"/><linearGradient id="未命名的渐变_143-82" x1="214.23" y1="76.29" x2="214.23" y2="-15.63" gradientTransform="translate(-91.35 78.51) rotate(-15.67)" xlink:href="#未命名的渐变_143"/><linearGradient id="未命名的渐变_143-83" x1="210.3" y1="77.3" x2="210.3" y2="-14.62" gradientTransform="matrix(0.97, -0.25, 0.25, 0.97, -86.56, 72.45)" xlink:href="#未命名的渐变_143"/><linearGradient id="未命名的渐变_143-84" x1="206.37" y1="78.3" x2="206.37" y2="-13.62" gradientTransform="translate(-81.63 66.52) rotate(-13.73)" xlink:href="#未命名的渐变_143"/><linearGradient id="未命名的渐变_143-85" x1="202.44" y1="79.3" x2="202.44" y2="-12.62" gradientTransform="matrix(0.98, -0.22, 0.22, 0.98, -76.57, 60.74)" xlink:href="#未命名的渐变_143"/><linearGradient id="未命名的渐变_143-86" x1="198.52" y1="80.3" x2="198.52" y2="-11.62" gradientTransform="translate(-71.38 55.1) rotate(-11.79)" xlink:href="#未命名的渐变_143"/><linearGradient id="未命名的渐变_143-87" x1="194.59" y1="81.29" x2="194.59" y2="-10.63" gradientTransform="matrix(0.98, -0.19, 0.19, 0.98, -66.06, 49.61)" xlink:href="#未命名的渐变_143"/><linearGradient id="未命名的渐变_143-88" x1="190.67" y1="82.28" x2="190.67" y2="-9.64" gradientTransform="translate(-60.61 44.28) rotate(-9.83)" xlink:href="#未命名的渐变_143"/><linearGradient id="未命名的渐变_143-89" x1="186.75" y1="83.26" x2="186.75" y2="-8.66" gradientTransform="translate(-55.04 39.1) rotate(-8.85)" xlink:href="#未命名的渐变_143"/><linearGradient id="未命名的渐变_143-90" x1="182.82" y1="84.24" x2="182.82" y2="-7.68" gradientTransform="translate(-49.36 34.08) rotate(-7.87)" xlink:href="#未命名的渐变_143"/><linearGradient id="未命名的渐变_143-91" x1="178.9" y1="85.22" x2="178.9" y2="-6.7" gradientTransform="translate(-43.55 29.22) rotate(-6.89)" xlink:href="#未命名的渐变_143"/><linearGradient id="未命名的渐变_143-92" x1="174.98" y1="86.19" x2="174.98" y2="-5.73" gradientTransform="translate(-37.64 24.52) rotate(-5.91)" xlink:href="#未命名的渐变_143"/><linearGradient id="未命名的渐变_143-93" x1="171.06" y1="87.16" x2="171.06" y2="-4.76" gradientTransform="translate(-31.61 20) rotate(-4.93)" xlink:href="#未命名的渐变_143"/><linearGradient id="未命名的渐变_143-94" x1="167.15" y1="88.12" x2="167.15" y2="-3.8" gradientTransform="matrix(1, -0.07, 0.07, 1, -25.48, 15.65)" xlink:href="#未命名的渐变_143"/><linearGradient id="未命名的渐变_143-95" x1="163.23" y1="89.08" x2="163.23" y2="-2.85" gradientTransform="translate(-19.25 11.47) rotate(-2.96)" xlink:href="#未命名的渐变_143"/><linearGradient id="未命名的渐变_143-96" x1="159.31" y1="90.03" x2="159.31" y2="-1.89" gradientTransform="translate(-12.93 7.46) rotate(-1.97)" xlink:href="#未命名的渐变_143"/><linearGradient id="未命名的渐变_143-97" x1="155.39" y1="90.98" x2="155.39" y2="-0.94" gradientTransform="translate(-6.51 3.64) rotate(-0.99)" xlink:href="#未命名的渐变_143"/><linearGradient id="未命名的渐变_143-98" x1="151.48" y1="91.92" x2="151.48" y2="0" gradientTransform="matrix(1, 0, 0, 1, 0, 0)" xlink:href="#未命名的渐变_143"/><clipPath id="clip-path-2"><rect class="cls-1" y="200" width="150" height="150"/></clipPath><clipPath id="clip-path-3"><polygon class="cls-1" points="105.54 193.57 45.15 193.57 45.15 253.97 75.07 279.75 105.54 253.97 105.54 193.57"/></clipPath><linearGradient id="未命名的渐变_143-99" x1="748.26" y1="715.46" x2="748.26" y2="655.89" gradientTransform="matrix(0, -1, -1, 0, 761.02, 927)" xlink:href="#未命名的渐变_143"/><linearGradient id="未命名的渐变_143-100" x1="749.44" y1="715.46" x2="749.44" y2="655.89" gradientTransform="matrix(0, -1, -1, 0, 761.02, 927)" xlink:href="#未命名的渐变_143"/><linearGradient id="未命名的渐变_143-101" x1="750.63" y1="715.46" x2="750.63" y2="655.89" gradientTransform="matrix(0, -1, -1, 0, 761.02, 927)" xlink:href="#未命名的渐变_143"/><linearGradient id="未命名的渐变_143-102" x1="751.82" y1="715.46" x2="751.82" y2="655.89" gradientTransform="matrix(0, -1, -1, 0, 761.02, 927)" xlink:href="#未命名的渐变_143"/><linearGradient id="未命名的渐变_143-103" x1="753" y1="715.46" x2="753" y2="655.89" gradientTransform="matrix(0, -1, -1, 0, 761.02, 927)" xlink:href="#未命名的渐变_143"/><linearGradient id="未命名的渐变_143-104" x1="754.19" y1="715.46" x2="754.19" y2="655.89" gradientTransform="matrix(0, -1, -1, 0, 761.02, 927)" xlink:href="#未命名的渐变_143"/><linearGradient id="未命名的渐变_143-105" x1="755.38" y1="715.46" x2="755.38" y2="655.89" gradientTransform="matrix(0, -1, -1, 0, 761.02, 927)" xlink:href="#未命名的渐变_143"/><linearGradient id="未命名的渐变_143-106" x1="756.57" y1="715.46" x2="756.57" y2="655.89" gradientTransform="matrix(0, -1, -1, 0, 761.02, 927)" xlink:href="#未命名的渐变_143"/><linearGradient id="未命名的渐变_143-107" x1="757.75" y1="715.46" x2="757.75" y2="655.89" gradientTransform="matrix(0, -1, -1, 0, 761.02, 927)" xlink:href="#未命名的渐变_143"/><linearGradient id="未命名的渐变_143-108" x1="758.94" y1="715.46" x2="758.94" y2="655.89" gradientTransform="matrix(0, -1, -1, 0, 761.02, 927)" xlink:href="#未命名的渐变_143"/><linearGradient id="未命名的渐变_143-109" x1="760.13" y1="715.46" x2="760.13" y2="655.89" gradientTransform="matrix(0, -1, -1, 0, 761.02, 927)" xlink:href="#未命名的渐变_143"/><linearGradient id="未命名的渐变_143-110" x1="761.31" y1="715.46" x2="761.31" y2="655.89" gradientTransform="matrix(0, -1, -1, 0, 761.02, 927)" xlink:href="#未命名的渐变_143"/><linearGradient id="未命名的渐变_143-111" x1="762.5" y1="715.46" x2="762.5" y2="655.89" gradientTransform="matrix(0, -1, -1, 0, 761.02, 927)" xlink:href="#未命名的渐变_143"/><linearGradient id="未命名的渐变_143-112" x1="763.69" y1="715.46" x2="763.69" y2="655.89" gradientTransform="matrix(0, -1, -1, 0, 761.02, 927)" xlink:href="#未命名的渐变_143"/><linearGradient id="未命名的渐变_143-113" x1="764.88" y1="715.46" x2="764.88" y2="655.89" gradientTransform="matrix(0, -1, -1, 0, 761.02, 927)" xlink:href="#未命名的渐变_143"/><linearGradient id="未命名的渐变_143-114" x1="766.06" y1="715.46" x2="766.06" y2="655.89" gradientTransform="matrix(0, -1, -1, 0, 761.02, 927)" xlink:href="#未命名的渐变_143"/><linearGradient id="未命名的渐变_143-115" x1="767.25" y1="715.46" x2="767.25" y2="655.89" gradientTransform="matrix(0, -1, -1, 0, 761.02, 927)" xlink:href="#未命名的渐变_143"/><linearGradient id="未命名的渐变_143-116" x1="768.44" y1="715.46" x2="768.44" y2="655.89" gradientTransform="matrix(0, -1, -1, 0, 761.02, 927)" xlink:href="#未命名的渐变_143"/><linearGradient id="未命名的渐变_143-117" x1="769.62" y1="715.46" x2="769.62" y2="655.89" gradientTransform="matrix(0, -1, -1, 0, 761.02, 927)" xlink:href="#未命名的渐变_143"/><linearGradient id="未命名的渐变_143-118" x1="770.81" y1="715.46" x2="770.81" y2="655.89" gradientTransform="matrix(0, -1, -1, 0, 761.02, 927)" xlink:href="#未命名的渐变_143"/><linearGradient id="未命名的渐变_143-119" x1="772" y1="715.46" x2="772" y2="655.89" gradientTransform="matrix(0, -1, -1, 0, 761.02, 927)" xlink:href="#未命名的渐变_143"/><linearGradient id="未命名的渐变_143-120" x1="773.18" y1="715.46" x2="773.18" y2="655.89" gradientTransform="matrix(0, -1, -1, 0, 761.02, 927)" xlink:href="#未命名的渐变_143"/><linearGradient id="未命名的渐变_143-121" x1="774.37" y1="715.46" x2="774.37" y2="655.89" gradientTransform="matrix(0, -1, -1, 0, 761.02, 927)" xlink:href="#未命名的渐变_143"/><linearGradient id="未命名的渐变_143-122" x1="775.56" y1="715.46" x2="775.56" y2="655.89" gradientTransform="matrix(0, -1, -1, 0, 761.02, 927)" xlink:href="#未命名的渐变_143"/><linearGradient id="未命名的渐变_143-123" x1="776.75" y1="715.46" x2="776.75" y2="655.89" gradientTransform="matrix(0, -1, -1, 0, 761.02, 927)" xlink:href="#未命名的渐变_143"/><linearGradient id="未命名的渐变_143-124" x1="777.93" y1="715.46" x2="777.93" y2="655.89" gradientTransform="matrix(0, -1, -1, 0, 761.02, 927)" xlink:href="#未命名的渐变_143"/><linearGradient id="未命名的渐变_143-125" x1="779.12" y1="715.46" x2="779.12" y2="655.89" gradientTransform="matrix(0, -1, -1, 0, 761.02, 927)" xlink:href="#未命名的渐变_143"/><linearGradient id="未命名的渐变_143-126" x1="780.31" y1="715.46" x2="780.31" y2="655.89" gradientTransform="matrix(0, -1, -1, 0, 761.02, 927)" xlink:href="#未命名的渐变_143"/><linearGradient id="未命名的渐变_143-127" x1="781.49" y1="715.46" x2="781.49" y2="655.89" gradientTransform="matrix(0, -1, -1, 0, 761.02, 927)" xlink:href="#未命名的渐变_143"/><linearGradient id="未命名的渐变_143-128" x1="782.68" y1="715.46" x2="782.68" y2="655.89" gradientTransform="matrix(0, -1, -1, 0, 761.02, 927)" xlink:href="#未命名的渐变_143"/><linearGradient id="未命名的渐变_143-129" x1="783.87" y1="715.46" x2="783.87" y2="655.89" gradientTransform="matrix(0, -1, -1, 0, 761.02, 927)" xlink:href="#未命名的渐变_143"/><linearGradient id="未命名的渐变_143-130" x1="785.06" y1="715.46" x2="785.06" y2="655.89" gradientTransform="matrix(0, -1, -1, 0, 761.02, 927)" xlink:href="#未命名的渐变_143"/><linearGradient id="未命名的渐变_143-131" x1="786.24" y1="715.46" x2="786.24" y2="655.89" gradientTransform="matrix(0, -1, -1, 0, 761.02, 927)" xlink:href="#未命名的渐变_143"/><linearGradient id="未命名的渐变_143-132" x1="787.43" y1="715.46" x2="787.43" y2="655.89" gradientTransform="matrix(0, -1, -1, 0, 761.02, 927)" xlink:href="#未命名的渐变_143"/><linearGradient id="未命名的渐变_143-133" x1="788.62" y1="715.46" x2="788.62" y2="655.89" gradientTransform="matrix(0, -1, -1, 0, 761.02, 927)" xlink:href="#未命名的渐变_143"/><linearGradient id="未命名的渐变_143-134" x1="789.8" y1="715.46" x2="789.8" y2="655.89" gradientTransform="matrix(0, -1, -1, 0, 761.02, 927)" xlink:href="#未命名的渐变_143"/><linearGradient id="未命名的渐变_143-135" x1="790.99" y1="715.46" x2="790.99" y2="655.89" gradientTransform="matrix(0, -1, -1, 0, 761.02, 927)" xlink:href="#未命名的渐变_143"/><linearGradient id="未命名的渐变_143-136" x1="792.18" y1="715.46" x2="792.18" y2="655.89" gradientTransform="matrix(0, -1, -1, 0, 761.02, 927)" xlink:href="#未命名的渐变_143"/><linearGradient id="未命名的渐变_143-137" x1="793.36" y1="715.46" x2="793.36" y2="655.89" gradientTransform="matrix(0, -1, -1, 0, 761.02, 927)" xlink:href="#未命名的渐变_143"/><linearGradient id="未命名的渐变_143-138" x1="794.55" y1="715.46" x2="794.55" y2="655.89" gradientTransform="matrix(0, -1, -1, 0, 761.02, 927)" xlink:href="#未命名的渐变_143"/><linearGradient id="未命名的渐变_143-139" x1="795.74" y1="715.46" x2="795.74" y2="655.89" gradientTransform="matrix(0, -1, -1, 0, 761.02, 927)" xlink:href="#未命名的渐变_143"/><linearGradient id="未命名的渐变_143-140" x1="796.93" y1="715.46" x2="796.93" y2="655.89" gradientTransform="matrix(0, -1, -1, 0, 761.02, 927)" xlink:href="#未命名的渐变_143"/><linearGradient id="未命名的渐变_143-141" x1="798.11" y1="715.46" x2="798.11" y2="655.89" gradientTransform="matrix(0, -1, -1, 0, 761.02, 927)" xlink:href="#未命名的渐变_143"/><linearGradient id="未命名的渐变_143-142" x1="799.3" y1="715.46" x2="799.3" y2="655.89" gradientTransform="matrix(0, -1, -1, 0, 761.02, 927)" xlink:href="#未命名的渐变_143"/><linearGradient id="未命名的渐变_143-143" x1="800.49" y1="715.46" x2="800.49" y2="655.89" gradientTransform="matrix(0, -1, -1, 0, 761.02, 927)" xlink:href="#未命名的渐变_143"/><linearGradient id="未命名的渐变_143-144" x1="801.67" y1="715.46" x2="801.67" y2="655.89" gradientTransform="matrix(0, -1, -1, 0, 761.02, 927)" xlink:href="#未命名的渐变_143"/><linearGradient id="未命名的渐变_143-145" x1="802.86" y1="715.46" x2="802.86" y2="655.89" gradientTransform="matrix(0, -1, -1, 0, 761.02, 927)" xlink:href="#未命名的渐变_143"/><linearGradient id="未命名的渐变_143-146" x1="804.05" y1="715.46" x2="804.05" y2="655.89" gradientTransform="matrix(0, -1, -1, 0, 761.02, 927)" xlink:href="#未命名的渐变_143"/><linearGradient id="未命名的渐变_143-147" x1="805.24" y1="715.46" x2="805.24" y2="655.89" gradientTransform="matrix(0, -1, -1, 0, 761.02, 927)" xlink:href="#未命名的渐变_143"/><linearGradient id="未命名的渐变_143-148" x1="806.42" y1="715.46" x2="806.42" y2="655.89" gradientTransform="matrix(0, -1, -1, 0, 761.02, 927)" xlink:href="#未命名的渐变_143"/><linearGradient id="未命名的渐变_143-149" x1="807.61" y1="715.46" x2="807.61" y2="655.89" gradientTransform="matrix(0, -1, -1, 0, 761.02, 927)" xlink:href="#未命名的渐变_143"/><linearGradient id="未命名的渐变_143-150" x1="808.8" y1="715.46" x2="808.8" y2="655.89" gradientTransform="matrix(0, -1, -1, 0, 761.02, 927)" xlink:href="#未命名的渐变_143"/><linearGradient id="未命名的渐变_143-151" x1="809.98" y1="715.46" x2="809.98" y2="655.89" gradientTransform="matrix(0, -1, -1, 0, 761.02, 927)" xlink:href="#未命名的渐变_143"/><linearGradient id="未命名的渐变_143-152" x1="811.17" y1="715.46" x2="811.17" y2="655.89" gradientTransform="matrix(0, -1, -1, 0, 761.02, 927)" xlink:href="#未命名的渐变_143"/><linearGradient id="未命名的渐变_143-153" x1="812.36" y1="715.46" x2="812.36" y2="655.89" gradientTransform="matrix(0, -1, -1, 0, 761.02, 927)" xlink:href="#未命名的渐变_143"/><linearGradient id="未命名的渐变_143-154" x1="813.55" y1="715.46" x2="813.55" y2="655.89" gradientTransform="matrix(0, -1, -1, 0, 761.02, 927)" xlink:href="#未命名的渐变_143"/><linearGradient id="未命名的渐变_143-155" x1="814.73" y1="715.46" x2="814.73" y2="655.89" gradientTransform="matrix(0, -1, -1, 0, 761.02, 927)" xlink:href="#未命名的渐变_143"/><linearGradient id="未命名的渐变_143-156" x1="815.92" y1="715.46" x2="815.92" y2="655.89" gradientTransform="matrix(0, -1, -1, 0, 761.02, 927)" xlink:href="#未命名的渐变_143"/><linearGradient id="未命名的渐变_143-157" x1="817.11" y1="715.46" x2="817.11" y2="655.89" gradientTransform="matrix(0, -1, -1, 0, 761.02, 927)" xlink:href="#未命名的渐变_143"/><linearGradient id="未命名的渐变_143-158" x1="818.29" y1="715.46" x2="818.29" y2="655.89" gradientTransform="matrix(0, -1, -1, 0, 761.02, 927)" xlink:href="#未命名的渐变_143"/><linearGradient id="未命名的渐变_143-159" x1="819.48" y1="715.46" x2="819.48" y2="655.89" gradientTransform="matrix(0, -1, -1, 0, 761.02, 927)" xlink:href="#未命名的渐变_143"/><linearGradient id="未命名的渐变_143-160" x1="820.67" y1="715.46" x2="820.67" y2="655.89" gradientTransform="matrix(0, -1, -1, 0, 761.02, 927)" xlink:href="#未命名的渐变_143"/><linearGradient id="未命名的渐变_143-161" x1="821.85" y1="715.46" x2="821.85" y2="655.89" gradientTransform="matrix(0, -1, -1, 0, 761.02, 927)" xlink:href="#未命名的渐变_143"/><linearGradient id="未命名的渐变_143-162" x1="823.04" y1="715.46" x2="823.04" y2="655.89" gradientTransform="matrix(0, -1, -1, 0, 761.02, 927)" xlink:href="#未命名的渐变_143"/><linearGradient id="未命名的渐变_143-163" x1="824.23" y1="715.46" x2="824.23" y2="655.89" gradientTransform="matrix(0, -1, -1, 0, 761.02, 927)" xlink:href="#未命名的渐变_143"/><linearGradient id="未命名的渐变_143-164" x1="825.42" y1="715.46" x2="825.42" y2="655.89" gradientTransform="matrix(0, -1, -1, 0, 761.02, 927)" xlink:href="#未命名的渐变_143"/><linearGradient id="未命名的渐变_143-165" x1="826.6" y1="715.46" x2="826.6" y2="655.89" gradientTransform="matrix(0, -1, -1, 0, 761.02, 927)" xlink:href="#未命名的渐变_143"/></defs><title>iot-管道(21)</title><g id="图层_2" data-name="图层 2"><g class="cls-2"><circle class="cls-3" cx="46.69" cy="155.66" r="45.96"/><circle class="cls-4" cx="46.69" cy="153.91" r="45.96"/><circle class="cls-5" cx="46.69" cy="152.16" r="45.96"/><circle class="cls-6" cx="46.69" cy="150.4" r="45.96"/><circle class="cls-7" cx="46.71" cy="148.56" r="45.96"/><circle class="cls-8" cx="46.77" cy="146.73" r="45.96"/><circle class="cls-9" cx="46.85" cy="144.9" r="45.96"/><circle class="cls-10" cx="46.97" cy="143.09" r="45.96"/><circle class="cls-11" cx="47.11" cy="141.28" r="45.96"/><circle class="cls-12" cx="47.29" cy="139.49" r="45.96"/><circle class="cls-13" cx="47.49" cy="137.7" r="45.96"/><circle class="cls-14" cx="47.73" cy="135.92" r="45.96"/><circle class="cls-15" cx="48" cy="134.15" r="45.96"/><circle class="cls-16" cx="48.29" cy="132.39" r="45.96"/><circle class="cls-17" cx="48.62" cy="130.64" r="45.96"/><circle class="cls-18" cx="48.97" cy="128.9" r="45.96"/><circle class="cls-19" cx="49.35" cy="127.18" r="45.96"/><circle class="cls-20" cx="49.76" cy="125.46" r="45.96"/><circle class="cls-21" cx="50.2" cy="123.75" r="45.96"/><circle class="cls-22" cx="50.67" cy="122.06" r="45.96"/><circle class="cls-23" cx="51.16" cy="120.37" r="45.96"/><circle class="cls-24" cx="51.68" cy="118.7" r="45.96"/><circle class="cls-25" cx="52.23" cy="117.04" r="45.96"/><circle class="cls-26" cx="52.8" cy="115.4" r="45.96"/><circle class="cls-27" cx="53.4" cy="113.76" r="45.96"/><circle class="cls-28" cx="54.03" cy="112.14" r="45.96"/><circle class="cls-29" cx="54.69" cy="110.53" r="45.96"/><circle class="cls-30" cx="55.36" cy="108.93" r="45.96"/><circle class="cls-31" cx="56.07" cy="107.35" r="45.96"/><circle class="cls-32" cx="56.8" cy="105.79" r="45.96"/><circle class="cls-33" cx="57.55" cy="104.23" r="45.96"/><circle class="cls-34" cx="58.33" cy="102.69" r="45.96"/><circle class="cls-35" cx="59.14" cy="101.17" r="45.96"/><circle class="cls-36" cx="59.97" cy="99.66" r="45.96"/><circle class="cls-37" cx="60.82" cy="98.17" r="45.96"/><circle class="cls-38" cx="61.69" cy="96.69" r="45.96"/><circle class="cls-39" cx="62.59" cy="95.22" r="45.96"/><circle class="cls-40" cx="63.52" cy="93.78" r="45.96"/><circle class="cls-41" cx="64.46" cy="92.35" r="45.96"/><circle class="cls-42" cx="65.43" cy="90.93" r="45.96"/><circle class="cls-43" cx="66.42" cy="89.53" r="45.96"/><circle class="cls-44" cx="67.43" cy="88.15" r="45.96"/><circle class="cls-45" cx="68.47" cy="86.79" r="45.96"/><circle class="cls-46" cx="69.52" cy="85.44" r="45.96"/><circle class="cls-47" cx="70.6" cy="84.12" r="45.96"/><circle class="cls-48" cx="71.7" cy="82.81" r="45.96"/><circle class="cls-49" cx="72.82" cy="81.51" r="45.96"/><circle class="cls-50" cx="73.96" cy="80.24" r="45.96"/><circle class="cls-51" cx="75.12" cy="78.99" r="45.96"/><circle class="cls-52" cx="76.3" cy="77.75" r="45.96"/><circle class="cls-53" cx="77.5" cy="76.54" r="45.96"/><circle class="cls-54" cx="78.72" cy="75.34" r="45.96"/><circle class="cls-55" cx="79.95" cy="74.16" r="45.96"/><circle class="cls-56" cx="81.21" cy="73.01" r="45.96"/><circle class="cls-57" cx="82.49" cy="71.87" r="45.96"/><circle class="cls-58" cx="83.78" cy="70.76" r="45.96"/><circle class="cls-59" cx="85.1" cy="69.66" r="45.96"/><circle class="cls-60" cx="86.43" cy="68.59" r="45.96"/><circle class="cls-61" cx="87.78" cy="67.54" r="45.96"/><circle class="cls-62" cx="89.14" cy="66.51" r="45.96"/><circle class="cls-63" cx="90.53" cy="65.5" r="45.96"/><circle class="cls-64" cx="91.93" cy="64.51" r="45.96"/><circle class="cls-65" cx="93.35" cy="63.55" r="45.96"/><circle class="cls-66" cx="94.78" cy="62.61" r="45.96"/><circle class="cls-67" cx="96.23" cy="61.69" r="45.96"/><circle class="cls-68" cx="97.7" cy="60.8" r="45.96"/><circle class="cls-69" cx="99.18" cy="59.92" r="45.96"/><circle class="cls-70" cx="100.68" cy="59.08" r="45.96"/><circle class="cls-71" cx="102.19" cy="58.25" r="45.96"/><circle class="cls-72" cx="103.72" cy="57.45" r="45.96"/><circle class="cls-73" cx="105.26" cy="56.68" r="45.96"/><circle class="cls-74" cx="106.81" cy="55.93" r="45.96"/><circle class="cls-75" cx="108.38" cy="55.2" r="45.96"/><circle class="cls-76" cx="109.97" cy="54.5" r="45.96"/><circle class="cls-77" cx="111.57" cy="53.83" r="45.96"/><circle class="cls-78" cx="113.18" cy="53.18" r="45.96"/><circle class="cls-79" cx="114.8" cy="52.56" r="45.96"/><circle class="cls-80" cx="116.44" cy="51.96" r="45.96"/><circle class="cls-81" cx="118.09" cy="51.39" r="45.96"/><circle class="cls-82" cx="119.75" cy="50.85" r="45.96"/><circle class="cls-83" cx="121.42" cy="50.33" r="45.96"/><circle class="cls-84" cx="123.11" cy="49.85" r="45.96"/><circle class="cls-85" cx="124.81" cy="49.38" r="45.96"/><circle class="cls-86" cx="126.52" cy="48.95" r="45.96"/><circle class="cls-87" cx="128.24" cy="48.55" r="45.96"/><circle class="cls-88" cx="129.97" cy="48.17" r="45.96"/><circle class="cls-89" cx="131.71" cy="47.82" r="45.96"/><circle class="cls-90" cx="133.46" cy="47.5" r="45.96"/><circle class="cls-91" cx="135.22" cy="47.21" r="45.96"/><circle class="cls-92" cx="136.99" cy="46.95" r="45.96"/><circle class="cls-93" cx="138.77" cy="46.72" r="45.96"/><circle class="cls-94" cx="140.56" cy="46.52" r="45.96"/><circle class="cls-95" cx="142.36" cy="46.35" r="45.96"/><circle class="cls-96" cx="144.17" cy="46.21" r="45.96"/><circle class="cls-97" cx="145.98" cy="46.1" r="45.96"/><circle class="cls-98" cx="147.81" cy="46.02" r="45.96"/><circle class="cls-99" cx="149.64" cy="45.98" r="45.96"/><circle class="cls-100" cx="151.48" cy="45.96" r="45.96"/></g></g><g id="图层_13" data-name="图层 13"><g class="cls-101"><g class="cls-102"><circle class="cls-103" cx="75.35" cy="178.74" r="29.79"/><circle class="cls-104" cx="75.35" cy="177.55" r="29.79"/><circle class="cls-105" cx="75.35" cy="176.37" r="29.79"/><circle class="cls-106" cx="75.35" cy="175.18" r="29.79"/><circle class="cls-107" cx="75.35" cy="173.99" r="29.79"/><circle class="cls-108" cx="75.35" cy="172.8" r="29.79"/><circle class="cls-109" cx="75.35" cy="171.62" r="29.79"/><circle class="cls-110" cx="75.35" cy="170.43" r="29.79"/><circle class="cls-111" cx="75.35" cy="169.24" r="29.79"/><circle class="cls-112" cx="75.35" cy="168.06" r="29.79"/><circle class="cls-113" cx="75.35" cy="166.87" r="29.79"/><circle class="cls-114" cx="75.35" cy="165.68" r="29.79"/><circle class="cls-115" cx="75.35" cy="164.5" r="29.79"/><circle class="cls-116" cx="75.35" cy="163.31" r="29.79"/><circle class="cls-117" cx="75.35" cy="162.12" r="29.79"/><circle class="cls-118" cx="75.35" cy="160.93" r="29.79"/><circle class="cls-119" cx="75.35" cy="159.75" r="29.79"/><circle class="cls-120" cx="75.35" cy="158.56" r="29.79"/><circle class="cls-121" cx="75.35" cy="157.37" r="29.79"/><circle class="cls-122" cx="75.35" cy="156.19" r="29.79"/><circle class="cls-123" cx="75.35" cy="155" r="29.79"/><circle class="cls-124" cx="75.35" cy="153.81" r="29.79"/><circle class="cls-125" cx="75.35" cy="152.62" r="29.79"/><circle class="cls-126" cx="75.35" cy="151.44" r="29.79"/><circle class="cls-127" cx="75.35" cy="150.25" r="29.79"/><circle class="cls-128" cx="75.35" cy="149.06" r="29.79"/><circle class="cls-129" cx="75.35" cy="147.88" r="29.79"/><circle class="cls-130" cx="75.35" cy="146.69" r="29.79"/><circle class="cls-131" cx="75.35" cy="145.5" r="29.79"/><circle class="cls-132" cx="75.35" cy="144.32" r="29.79"/><circle class="cls-133" cx="75.35" cy="143.13" r="29.79"/><circle class="cls-134" cx="75.35" cy="141.94" r="29.79"/><circle class="cls-135" cx="75.35" cy="140.75" r="29.79"/><circle class="cls-136" cx="75.35" cy="139.57" r="29.79"/><circle class="cls-137" cx="75.35" cy="138.38" r="29.79"/><circle class="cls-138" cx="75.35" cy="137.19" r="29.79"/><circle class="cls-139" cx="75.35" cy="136.01" r="29.79"/><circle class="cls-140" cx="75.35" cy="134.82" r="29.79"/><circle class="cls-141" cx="75.35" cy="133.63" r="29.79"/><circle class="cls-142" cx="75.35" cy="132.44" r="29.79"/><circle class="cls-143" cx="75.35" cy="131.26" r="29.79"/><circle class="cls-144" cx="75.35" cy="130.07" r="29.79"/><circle class="cls-145" cx="75.35" cy="128.88" r="29.79"/><circle class="cls-146" cx="75.35" cy="127.7" r="29.79"/><circle class="cls-147" cx="75.35" cy="126.51" r="29.79"/><circle class="cls-148" cx="75.35" cy="125.32" r="29.79"/><circle class="cls-149" cx="75.35" cy="124.14" r="29.79"/><circle class="cls-150" cx="75.35" cy="122.95" r="29.79"/><circle class="cls-151" cx="75.35" cy="121.76" r="29.79"/><circle class="cls-152" cx="75.35" cy="120.57" r="29.79"/><circle class="cls-153" cx="75.35" cy="119.39" r="29.79"/><circle class="cls-154" cx="75.35" cy="118.2" r="29.79"/><circle class="cls-155" cx="75.35" cy="117.01" r="29.79"/><circle class="cls-156" cx="75.35" cy="115.83" r="29.79"/><circle class="cls-157" cx="75.35" cy="114.64" r="29.79"/><circle class="cls-158" cx="75.35" cy="113.45" r="29.79"/><circle class="cls-159" cx="75.35" cy="112.26" r="29.79"/><circle class="cls-160" cx="75.35" cy="111.08" r="29.79"/><circle class="cls-161" cx="75.35" cy="109.89" r="29.79"/><circle class="cls-162" cx="75.35" cy="108.7" r="29.79"/><circle class="cls-163" cx="75.35" cy="107.52" r="29.79"/><circle class="cls-164" cx="75.35" cy="106.33" r="29.79"/><circle class="cls-165" cx="75.35" cy="105.14" r="29.79"/><circle class="cls-166" cx="75.35" cy="103.96" r="29.79"/><circle class="cls-167" cx="75.35" cy="102.77" r="29.79"/><circle class="cls-168" cx="75.35" cy="101.58" r="29.79"/><circle class="cls-169" cx="75.35" cy="100.39" r="29.79"/></g></g></g></svg>