<svg xmlns="http://www.w3.org/2000/svg" xmlns:xlink="http://www.w3.org/1999/xlink" viewBox="0 0 150 124.25"><defs><style>.cls-1{fill:url(#未命名的渐变_143);}.cls-2{fill:url(#未命名的渐变_143-2);}.cls-3{fill:url(#未命名的渐变_143-3);}.cls-4{fill:url(#未命名的渐变_143-4);}.cls-5{fill:url(#未命名的渐变_143-5);}.cls-6{fill:url(#未命名的渐变_143-6);}.cls-7{fill:url(#未命名的渐变_143-7);}.cls-8{fill:url(#未命名的渐变_143-8);}.cls-9{fill:url(#未命名的渐变_143-9);}.cls-10{fill:url(#未命名的渐变_143-10);}.cls-11{fill:url(#未命名的渐变_143-11);}.cls-12{fill:url(#未命名的渐变_143-12);}.cls-13{fill:url(#未命名的渐变_143-13);}.cls-14{fill:url(#未命名的渐变_143-14);}.cls-15{fill:url(#未命名的渐变_143-15);}.cls-16{fill:url(#未命名的渐变_143-16);}.cls-17{fill:url(#未命名的渐变_143-17);}.cls-18{fill:url(#未命名的渐变_143-18);}.cls-19{fill:url(#未命名的渐变_143-19);}.cls-20{fill:url(#未命名的渐变_143-20);}.cls-21{fill:url(#未命名的渐变_143-21);}.cls-22{fill:url(#未命名的渐变_143-22);}.cls-23{fill:url(#未命名的渐变_143-23);}.cls-24{fill:url(#未命名的渐变_143-24);}.cls-25{fill:url(#未命名的渐变_143-25);}.cls-26{fill:url(#未命名的渐变_143-26);}.cls-27{fill:url(#未命名的渐变_143-27);}.cls-28{fill:url(#未命名的渐变_143-28);}.cls-29{fill:url(#未命名的渐变_143-29);}.cls-30{fill:url(#未命名的渐变_143-30);}.cls-31{fill:url(#未命名的渐变_143-31);}.cls-32{fill:url(#未命名的渐变_143-32);}.cls-33{fill:url(#未命名的渐变_143-33);}.cls-34{fill:url(#未命名的渐变_143-34);}.cls-35{fill:url(#未命名的渐变_143-35);}.cls-36{fill:url(#未命名的渐变_143-36);}.cls-37{fill:url(#未命名的渐变_143-37);}.cls-38{fill:url(#未命名的渐变_143-38);}.cls-39{fill:url(#未命名的渐变_143-39);}.cls-40{fill:url(#未命名的渐变_143-40);}.cls-41{fill:url(#未命名的渐变_143-41);}.cls-42{fill:url(#未命名的渐变_143-42);}.cls-43{fill:url(#未命名的渐变_143-43);}.cls-44{fill:url(#未命名的渐变_143-44);}.cls-45{fill:url(#未命名的渐变_143-45);}.cls-46{fill:url(#未命名的渐变_143-46);}.cls-47{fill:url(#未命名的渐变_143-47);}.cls-48{fill:url(#未命名的渐变_143-48);}.cls-49{fill:url(#未命名的渐变_143-49);}.cls-50{fill:url(#未命名的渐变_143-50);}.cls-51{fill:url(#未命名的渐变_143-51);}.cls-52{fill:url(#未命名的渐变_143-52);}.cls-53{fill:url(#未命名的渐变_143-53);}.cls-54{fill:url(#未命名的渐变_143-54);}.cls-55{fill:url(#未命名的渐变_143-55);}.cls-56{fill:url(#未命名的渐变_143-56);}.cls-57{fill:url(#未命名的渐变_143-57);}.cls-58{fill:url(#未命名的渐变_143-58);}.cls-59{fill:url(#未命名的渐变_143-59);}.cls-60{fill:url(#未命名的渐变_143-60);}.cls-61{fill:url(#未命名的渐变_143-61);}.cls-62{fill:url(#未命名的渐变_143-62);}.cls-63{fill:url(#未命名的渐变_143-63);}.cls-64{fill:url(#未命名的渐变_143-64);}.cls-65{fill:url(#未命名的渐变_143-65);}.cls-66{fill:url(#未命名的渐变_143-66);}.cls-67{fill:url(#未命名的渐变_143-67);}.cls-68{fill:url(#未命名的渐变_143-68);}.cls-69{fill:url(#未命名的渐变_143-69);}.cls-70{fill:url(#未命名的渐变_143-70);}.cls-71{fill:url(#未命名的渐变_143-71);}.cls-72{fill:url(#未命名的渐变_143-72);}.cls-73{fill:url(#未命名的渐变_143-73);}.cls-74{fill:url(#未命名的渐变_143-74);}.cls-75{fill:url(#未命名的渐变_143-75);}.cls-76{fill:url(#未命名的渐变_143-76);}.cls-77{fill:url(#未命名的渐变_143-77);}.cls-78{fill:url(#未命名的渐变_143-78);}.cls-79{fill:url(#未命名的渐变_143-79);}.cls-80{fill:url(#未命名的渐变_143-80);}.cls-81{fill:url(#未命名的渐变_143-81);}.cls-82{fill:url(#未命名的渐变_143-82);}.cls-83{fill:url(#未命名的渐变_143-83);}.cls-84{fill:url(#未命名的渐变_143-84);}.cls-85{fill:url(#未命名的渐变_143-85);}.cls-86{fill:url(#未命名的渐变_143-86);}.cls-87{fill:url(#未命名的渐变_143-87);}.cls-88{fill:url(#未命名的渐变_143-88);}.cls-89{fill:url(#未命名的渐变_143-89);}.cls-90{fill:url(#未命名的渐变_143-90);}.cls-91{fill:url(#未命名的渐变_143-91);}.cls-92{fill:url(#未命名的渐变_143-92);}.cls-93{fill:url(#未命名的渐变_143-93);}.cls-94{fill:url(#未命名的渐变_143-94);}.cls-95{fill:url(#未命名的渐变_143-95);}.cls-96{fill:url(#未命名的渐变_143-96);}.cls-97{fill:url(#未命名的渐变_143-97);}.cls-98{fill:url(#未命名的渐变_143-98);}.cls-99{fill:url(#未命名的渐变_143-99);}.cls-100{fill:url(#未命名的渐变_143-100);}.cls-101{fill:url(#未命名的渐变_143-101);}.cls-102{fill:url(#未命名的渐变_143-102);}.cls-103{fill:url(#未命名的渐变_143-103);}.cls-104{fill:url(#未命名的渐变_143-104);}.cls-105{fill:url(#未命名的渐变_143-105);}.cls-106{fill:url(#未命名的渐变_143-106);}.cls-107{fill:url(#未命名的渐变_143-107);}.cls-108{fill:url(#未命名的渐变_143-108);}.cls-109{fill:url(#未命名的渐变_143-109);}.cls-110{fill:url(#未命名的渐变_143-110);}.cls-111{fill:url(#未命名的渐变_143-111);}.cls-112{fill:url(#未命名的渐变_143-112);}.cls-113{fill:url(#未命名的渐变_143-113);}.cls-114{fill:url(#未命名的渐变_143-114);}.cls-115{fill:url(#未命名的渐变_143-115);}.cls-116{fill:url(#未命名的渐变_143-116);}.cls-117{fill:url(#未命名的渐变_143-117);}.cls-118{fill:url(#未命名的渐变_143-118);}.cls-119{fill:url(#未命名的渐变_143-119);}.cls-120{fill:url(#未命名的渐变_143-120);}.cls-121{fill:url(#未命名的渐变_143-121);}.cls-122{fill:url(#未命名的渐变_143-122);}.cls-123{fill:url(#未命名的渐变_143-123);}.cls-124{fill:url(#未命名的渐变_143-124);}.cls-125{fill:url(#未命名的渐变_143-125);}.cls-126{fill:url(#未命名的渐变_143-126);}.cls-127{fill:url(#未命名的渐变_143-127);}.cls-128{fill:url(#未命名的渐变_143-128);}.cls-129{fill:url(#未命名的渐变_143-129);}.cls-130{fill:url(#未命名的渐变_143-130);}.cls-131{opacity:0.6;}.cls-132,.cls-133{fill:#ff2727;}.cls-133{stroke:#fff;stroke-miterlimit:10;}.cls-134{fill:#fff;}</style><linearGradient id="未命名的渐变_143" x1="-1143.13" y1="923.75" x2="-1078.19" y2="923.75" gradientTransform="translate(1185.8 -897.03)" gradientUnits="userSpaceOnUse"><stop offset="0" stop-color="#b7b7b7"/><stop offset="0.03" stop-color="#9b9d9d"/><stop offset="0.07" stop-color="#878b8b"/><stop offset="0.09" stop-color="#808484"/><stop offset="0.2" stop-color="#a3a6a6"/><stop offset="0.49" stop-color="#f6f6f6"/><stop offset="0.61" stop-color="#f3f3f3"/><stop offset="0.7" stop-color="#eaeaea"/><stop offset="0.77" stop-color="#dbdbdb"/><stop offset="0.83" stop-color="#c5c5c5"/><stop offset="0.9" stop-color="#aaa"/><stop offset="0.95" stop-color="#888"/><stop offset="1" stop-color="#666"/></linearGradient><linearGradient id="未命名的渐变_143-2" x1="-1119.77" y1="891.34" x2="-1101.26" y2="891.34" gradientTransform="translate(1185.51 -832.21)" xlink:href="#未命名的渐变_143"/><linearGradient id="未命名的渐变_143-3" x1="-1151.89" y1="945.21" x2="-1069.14" y2="945.21" gradientTransform="translate(1185.51 -939.96)" xlink:href="#未命名的渐变_143"/><linearGradient id="未命名的渐变_143-4" x1="-1081.35" y1="647.29" x2="-1081.35" y2="612.42" gradientTransform="translate(-952.72 713.01) rotate(180)" xlink:href="#未命名的渐变_143"/><linearGradient id="未命名的渐变_143-5" x1="-1080.5" y1="647.29" x2="-1080.5" y2="612.42" gradientTransform="translate(-952.72 713.01) rotate(180)" xlink:href="#未命名的渐变_143"/><linearGradient id="未命名的渐变_143-6" x1="-1079.65" y1="647.29" x2="-1079.65" y2="612.42" gradientTransform="translate(-952.72 713.01) rotate(180)" xlink:href="#未命名的渐变_143"/><linearGradient id="未命名的渐变_143-7" x1="-1078.8" y1="647.29" x2="-1078.8" y2="612.42" gradientTransform="translate(-952.72 713.01) rotate(180)" xlink:href="#未命名的渐变_143"/><linearGradient id="未命名的渐变_143-8" x1="-1077.95" y1="647.29" x2="-1077.95" y2="612.42" gradientTransform="translate(-952.72 713.01) rotate(180)" xlink:href="#未命名的渐变_143"/><linearGradient id="未命名的渐变_143-9" x1="-1077.1" y1="647.29" x2="-1077.1" y2="612.42" gradientTransform="translate(-952.72 713.01) rotate(180)" xlink:href="#未命名的渐变_143"/><linearGradient id="未命名的渐变_143-10" x1="-1076.24" y1="647.29" x2="-1076.24" y2="612.42" gradientTransform="translate(-952.72 713.01) rotate(180)" xlink:href="#未命名的渐变_143"/><linearGradient id="未命名的渐变_143-11" x1="-1075.39" y1="647.29" x2="-1075.39" y2="612.42" gradientTransform="translate(-952.72 713.01) rotate(180)" xlink:href="#未命名的渐变_143"/><linearGradient id="未命名的渐变_143-12" x1="-1074.54" y1="647.29" x2="-1074.54" y2="612.42" gradientTransform="translate(-952.72 713.01) rotate(180)" xlink:href="#未命名的渐变_143"/><linearGradient id="未命名的渐变_143-13" x1="-1073.69" y1="647.29" x2="-1073.69" y2="612.42" gradientTransform="translate(-952.72 713.01) rotate(180)" xlink:href="#未命名的渐变_143"/><linearGradient id="未命名的渐变_143-14" x1="-1072.84" y1="647.29" x2="-1072.84" y2="612.42" gradientTransform="translate(-952.72 713.01) rotate(180)" xlink:href="#未命名的渐变_143"/><linearGradient id="未命名的渐变_143-15" x1="-1071.99" y1="647.29" x2="-1071.99" y2="612.42" gradientTransform="translate(-952.72 713.01) rotate(180)" xlink:href="#未命名的渐变_143"/><linearGradient id="未命名的渐变_143-16" x1="-1071.14" y1="647.29" x2="-1071.14" y2="612.42" gradientTransform="translate(-952.72 713.01) rotate(180)" xlink:href="#未命名的渐变_143"/><linearGradient id="未命名的渐变_143-17" x1="-1070.29" y1="647.29" x2="-1070.29" y2="612.42" gradientTransform="translate(-952.72 713.01) rotate(180)" xlink:href="#未命名的渐变_143"/><linearGradient id="未命名的渐变_143-18" x1="-1069.43" y1="647.29" x2="-1069.43" y2="612.42" gradientTransform="translate(-952.72 713.01) rotate(180)" xlink:href="#未命名的渐变_143"/><linearGradient id="未命名的渐变_143-19" x1="-1068.58" y1="647.29" x2="-1068.58" y2="612.42" gradientTransform="translate(-952.72 713.01) rotate(180)" xlink:href="#未命名的渐变_143"/><linearGradient id="未命名的渐变_143-20" x1="-1067.73" y1="647.29" x2="-1067.73" y2="612.42" gradientTransform="translate(-952.72 713.01) rotate(180)" xlink:href="#未命名的渐变_143"/><linearGradient id="未命名的渐变_143-21" x1="-1066.88" y1="647.29" x2="-1066.88" y2="612.42" gradientTransform="translate(-952.72 713.01) rotate(180)" xlink:href="#未命名的渐变_143"/><linearGradient id="未命名的渐变_143-22" x1="-1066.03" y1="647.29" x2="-1066.03" y2="612.42" gradientTransform="translate(-952.72 713.01) rotate(180)" xlink:href="#未命名的渐变_143"/><linearGradient id="未命名的渐变_143-23" x1="-1065.18" y1="647.29" x2="-1065.18" y2="612.42" gradientTransform="translate(-952.72 713.01) rotate(180)" xlink:href="#未命名的渐变_143"/><linearGradient id="未命名的渐变_143-24" x1="-1064.33" y1="647.29" x2="-1064.33" y2="612.42" gradientTransform="translate(-952.72 713.01) rotate(180)" xlink:href="#未命名的渐变_143"/><linearGradient id="未命名的渐变_143-25" x1="-1063.47" y1="647.29" x2="-1063.47" y2="612.42" gradientTransform="translate(-952.72 713.01) rotate(180)" xlink:href="#未命名的渐变_143"/><linearGradient id="未命名的渐变_143-26" x1="-1062.62" y1="647.29" x2="-1062.62" y2="612.42" gradientTransform="translate(-952.72 713.01) rotate(180)" xlink:href="#未命名的渐变_143"/><linearGradient id="未命名的渐变_143-27" x1="-1061.77" y1="647.29" x2="-1061.77" y2="612.42" gradientTransform="translate(-952.72 713.01) rotate(180)" xlink:href="#未命名的渐变_143"/><linearGradient id="未命名的渐变_143-28" x1="-1060.92" y1="647.29" x2="-1060.92" y2="612.42" gradientTransform="translate(-952.72 713.01) rotate(180)" xlink:href="#未命名的渐变_143"/><linearGradient id="未命名的渐变_143-29" x1="-1060.07" y1="647.29" x2="-1060.07" y2="612.42" gradientTransform="translate(-952.72 713.01) rotate(180)" xlink:href="#未命名的渐变_143"/><linearGradient id="未命名的渐变_143-30" x1="-1059.22" y1="647.29" x2="-1059.22" y2="612.42" gradientTransform="translate(-952.72 713.01) rotate(180)" xlink:href="#未命名的渐变_143"/><linearGradient id="未命名的渐变_143-31" x1="-1058.37" y1="647.29" x2="-1058.37" y2="612.42" gradientTransform="translate(-952.72 713.01) rotate(180)" xlink:href="#未命名的渐变_143"/><linearGradient id="未命名的渐变_143-32" x1="-1057.51" y1="647.29" x2="-1057.51" y2="612.42" gradientTransform="translate(-952.72 713.01) rotate(180)" xlink:href="#未命名的渐变_143"/><linearGradient id="未命名的渐变_143-33" x1="-1056.66" y1="647.29" x2="-1056.66" y2="612.42" gradientTransform="translate(-952.72 713.01) rotate(180)" xlink:href="#未命名的渐变_143"/><linearGradient id="未命名的渐变_143-34" x1="-1055.81" y1="647.29" x2="-1055.81" y2="612.42" gradientTransform="translate(-952.72 713.01) rotate(180)" xlink:href="#未命名的渐变_143"/><linearGradient id="未命名的渐变_143-35" x1="-1054.96" y1="647.29" x2="-1054.96" y2="612.42" gradientTransform="translate(-952.72 713.01) rotate(180)" xlink:href="#未命名的渐变_143"/><linearGradient id="未命名的渐变_143-36" x1="-1054.11" y1="647.29" x2="-1054.11" y2="612.42" gradientTransform="translate(-952.72 713.01) rotate(180)" xlink:href="#未命名的渐变_143"/><linearGradient id="未命名的渐变_143-37" x1="-1053.26" y1="647.29" x2="-1053.26" y2="612.42" gradientTransform="translate(-952.72 713.01) rotate(180)" xlink:href="#未命名的渐变_143"/><linearGradient id="未命名的渐变_143-38" x1="-1052.41" y1="647.29" x2="-1052.41" y2="612.42" gradientTransform="translate(-952.72 713.01) rotate(180)" xlink:href="#未命名的渐变_143"/><linearGradient id="未命名的渐变_143-39" x1="-1051.55" y1="647.29" x2="-1051.55" y2="612.42" gradientTransform="translate(-952.72 713.01) rotate(180)" xlink:href="#未命名的渐变_143"/><linearGradient id="未命名的渐变_143-40" x1="-1050.7" y1="647.29" x2="-1050.7" y2="612.42" gradientTransform="translate(-952.72 713.01) rotate(180)" xlink:href="#未命名的渐变_143"/><linearGradient id="未命名的渐变_143-41" x1="-1049.85" y1="647.29" x2="-1049.85" y2="612.42" gradientTransform="translate(-952.72 713.01) rotate(180)" xlink:href="#未命名的渐变_143"/><linearGradient id="未命名的渐变_143-42" x1="-1049" y1="647.29" x2="-1049" y2="612.42" gradientTransform="translate(-952.72 713.01) rotate(180)" xlink:href="#未命名的渐变_143"/><linearGradient id="未命名的渐变_143-43" x1="-1048.15" y1="647.29" x2="-1048.15" y2="612.42" gradientTransform="translate(-952.72 713.01) rotate(180)" xlink:href="#未命名的渐变_143"/><linearGradient id="未命名的渐变_143-44" x1="-1047.3" y1="647.29" x2="-1047.3" y2="612.42" gradientTransform="translate(-952.72 713.01) rotate(180)" xlink:href="#未命名的渐变_143"/><linearGradient id="未命名的渐变_143-45" x1="-1046.45" y1="647.29" x2="-1046.45" y2="612.42" gradientTransform="translate(-952.72 713.01) rotate(180)" xlink:href="#未命名的渐变_143"/><linearGradient id="未命名的渐变_143-46" x1="-1045.6" y1="647.29" x2="-1045.6" y2="612.42" gradientTransform="translate(-952.72 713.01) rotate(180)" xlink:href="#未命名的渐变_143"/><linearGradient id="未命名的渐变_143-47" x1="-1044.74" y1="647.29" x2="-1044.74" y2="612.42" gradientTransform="translate(-952.72 713.01) rotate(180)" xlink:href="#未命名的渐变_143"/><linearGradient id="未命名的渐变_143-48" x1="-1043.89" y1="647.29" x2="-1043.89" y2="612.42" gradientTransform="translate(-952.72 713.01) rotate(180)" xlink:href="#未命名的渐变_143"/><linearGradient id="未命名的渐变_143-49" x1="-1043.04" y1="647.29" x2="-1043.04" y2="612.42" gradientTransform="translate(-952.72 713.01) rotate(180)" xlink:href="#未命名的渐变_143"/><linearGradient id="未命名的渐变_143-50" x1="-1042.19" y1="647.29" x2="-1042.19" y2="612.42" gradientTransform="translate(-952.72 713.01) rotate(180)" xlink:href="#未命名的渐变_143"/><linearGradient id="未命名的渐变_143-51" x1="-1041.34" y1="647.29" x2="-1041.34" y2="612.42" gradientTransform="translate(-952.72 713.01) rotate(180)" xlink:href="#未命名的渐变_143"/><linearGradient id="未命名的渐变_143-52" x1="-1040.49" y1="647.29" x2="-1040.49" y2="612.42" gradientTransform="translate(-952.72 713.01) rotate(180)" xlink:href="#未命名的渐变_143"/><linearGradient id="未命名的渐变_143-53" x1="-1039.64" y1="647.29" x2="-1039.64" y2="612.42" gradientTransform="translate(-952.72 713.01) rotate(180)" xlink:href="#未命名的渐变_143"/><linearGradient id="未命名的渐变_143-54" x1="-1038.78" y1="647.29" x2="-1038.78" y2="612.42" gradientTransform="translate(-952.72 713.01) rotate(180)" xlink:href="#未命名的渐变_143"/><linearGradient id="未命名的渐变_143-55" x1="-1037.93" y1="647.29" x2="-1037.93" y2="612.42" gradientTransform="translate(-952.72 713.01) rotate(180)" xlink:href="#未命名的渐变_143"/><linearGradient id="未命名的渐变_143-56" x1="-1037.08" y1="647.29" x2="-1037.08" y2="612.42" gradientTransform="translate(-952.72 713.01) rotate(180)" xlink:href="#未命名的渐变_143"/><linearGradient id="未命名的渐变_143-57" x1="-1036.23" y1="647.29" x2="-1036.23" y2="612.42" gradientTransform="translate(-952.72 713.01) rotate(180)" xlink:href="#未命名的渐变_143"/><linearGradient id="未命名的渐变_143-58" x1="-1035.38" y1="647.29" x2="-1035.38" y2="612.42" gradientTransform="translate(-952.72 713.01) rotate(180)" xlink:href="#未命名的渐变_143"/><linearGradient id="未命名的渐变_143-59" x1="-1034.53" y1="647.29" x2="-1034.53" y2="612.42" gradientTransform="translate(-952.72 713.01) rotate(180)" xlink:href="#未命名的渐变_143"/><linearGradient id="未命名的渐变_143-60" x1="-1033.68" y1="647.29" x2="-1033.68" y2="612.42" gradientTransform="translate(-952.72 713.01) rotate(180)" xlink:href="#未命名的渐变_143"/><linearGradient id="未命名的渐变_143-61" x1="-1032.82" y1="647.29" x2="-1032.82" y2="612.42" gradientTransform="translate(-952.72 713.01) rotate(180)" xlink:href="#未命名的渐变_143"/><linearGradient id="未命名的渐变_143-62" x1="-1031.97" y1="647.29" x2="-1031.97" y2="612.42" gradientTransform="translate(-952.72 713.01) rotate(180)" xlink:href="#未命名的渐变_143"/><linearGradient id="未命名的渐变_143-63" x1="-1031.12" y1="647.29" x2="-1031.12" y2="612.42" gradientTransform="translate(-952.72 713.01) rotate(180)" xlink:href="#未命名的渐变_143"/><linearGradient id="未命名的渐变_143-64" x1="-1030.27" y1="647.29" x2="-1030.27" y2="612.42" gradientTransform="translate(-952.72 713.01) rotate(180)" xlink:href="#未命名的渐变_143"/><linearGradient id="未命名的渐变_143-65" x1="-1029.42" y1="647.29" x2="-1029.42" y2="612.42" gradientTransform="translate(-952.72 713.01) rotate(180)" xlink:href="#未命名的渐变_143"/><linearGradient id="未命名的渐变_143-66" x1="-1028.57" y1="647.29" x2="-1028.57" y2="612.42" gradientTransform="translate(-952.72 713.01) rotate(180)" xlink:href="#未命名的渐变_143"/><linearGradient id="未命名的渐变_143-67" x1="-1027.72" y1="647.29" x2="-1027.72" y2="612.42" gradientTransform="translate(-952.72 713.01) rotate(180)" xlink:href="#未命名的渐变_143"/><linearGradient id="未命名的渐变_143-68" x1="-1026.86" y1="647.29" x2="-1026.86" y2="612.42" gradientTransform="translate(-952.72 713.01) rotate(180)" xlink:href="#未命名的渐变_143"/><linearGradient id="未命名的渐变_143-69" x1="-1026.01" y1="647.29" x2="-1026.01" y2="612.42" gradientTransform="translate(-952.72 713.01) rotate(180)" xlink:href="#未命名的渐变_143"/><linearGradient id="未命名的渐变_143-70" x1="-1025.16" y1="647.29" x2="-1025.16" y2="612.42" gradientTransform="translate(-952.72 713.01) rotate(180)" xlink:href="#未命名的渐变_143"/><linearGradient id="未命名的渐变_143-71" x1="-1024.31" y1="647.29" x2="-1024.31" y2="612.42" gradientTransform="translate(-952.72 713.01) rotate(180)" xlink:href="#未命名的渐变_143"/><linearGradient id="未命名的渐变_143-72" x1="-1023.46" y1="647.29" x2="-1023.46" y2="612.42" gradientTransform="translate(-952.72 713.01) rotate(180)" xlink:href="#未命名的渐变_143"/><linearGradient id="未命名的渐变_143-73" x1="-1022.61" y1="647.29" x2="-1022.61" y2="612.42" gradientTransform="translate(-952.72 713.01) rotate(180)" xlink:href="#未命名的渐变_143"/><linearGradient id="未命名的渐变_143-74" x1="-1021.76" y1="647.29" x2="-1021.76" y2="612.42" gradientTransform="translate(-952.72 713.01) rotate(180)" xlink:href="#未命名的渐变_143"/><linearGradient id="未命名的渐变_143-75" x1="-1020.91" y1="647.29" x2="-1020.91" y2="612.42" gradientTransform="translate(-952.72 713.01) rotate(180)" xlink:href="#未命名的渐变_143"/><linearGradient id="未命名的渐变_143-76" x1="-1020.05" y1="647.29" x2="-1020.05" y2="612.42" gradientTransform="translate(-952.72 713.01) rotate(180)" xlink:href="#未命名的渐变_143"/><linearGradient id="未命名的渐变_143-77" x1="-1019.2" y1="647.29" x2="-1019.2" y2="612.42" gradientTransform="translate(-952.72 713.01) rotate(180)" xlink:href="#未命名的渐变_143"/><linearGradient id="未命名的渐变_143-78" x1="-1018.35" y1="647.29" x2="-1018.35" y2="612.42" gradientTransform="translate(-952.72 713.01) rotate(180)" xlink:href="#未命名的渐变_143"/><linearGradient id="未命名的渐变_143-79" x1="-1017.5" y1="647.29" x2="-1017.5" y2="612.42" gradientTransform="translate(-952.72 713.01) rotate(180)" xlink:href="#未命名的渐变_143"/><linearGradient id="未命名的渐变_143-80" x1="-1016.65" y1="647.29" x2="-1016.65" y2="612.42" gradientTransform="translate(-952.72 713.01) rotate(180)" xlink:href="#未命名的渐变_143"/><linearGradient id="未命名的渐变_143-81" x1="-1015.8" y1="647.29" x2="-1015.8" y2="612.42" gradientTransform="translate(-952.72 713.01) rotate(180)" xlink:href="#未命名的渐变_143"/><linearGradient id="未命名的渐变_143-82" x1="-1014.95" y1="647.29" x2="-1014.95" y2="612.42" gradientTransform="translate(-952.72 713.01) rotate(180)" xlink:href="#未命名的渐变_143"/><linearGradient id="未命名的渐变_143-83" x1="-1014.09" y1="647.29" x2="-1014.09" y2="612.42" gradientTransform="translate(-952.72 713.01) rotate(180)" xlink:href="#未命名的渐变_143"/><linearGradient id="未命名的渐变_143-84" x1="-1013.24" y1="647.29" x2="-1013.24" y2="612.42" gradientTransform="translate(-952.72 713.01) rotate(180)" xlink:href="#未命名的渐变_143"/><linearGradient id="未命名的渐变_143-85" x1="-1012.39" y1="647.29" x2="-1012.39" y2="612.42" gradientTransform="translate(-952.72 713.01) rotate(180)" xlink:href="#未命名的渐变_143"/><linearGradient id="未命名的渐变_143-86" x1="-1011.54" y1="647.29" x2="-1011.54" y2="612.42" gradientTransform="translate(-952.72 713.01) rotate(180)" xlink:href="#未命名的渐变_143"/><linearGradient id="未命名的渐变_143-87" x1="-1010.69" y1="647.29" x2="-1010.69" y2="612.42" gradientTransform="translate(-952.72 713.01) rotate(180)" xlink:href="#未命名的渐变_143"/><linearGradient id="未命名的渐变_143-88" x1="-1009.84" y1="647.29" x2="-1009.84" y2="612.42" gradientTransform="translate(-952.72 713.01) rotate(180)" xlink:href="#未命名的渐变_143"/><linearGradient id="未命名的渐变_143-89" x1="-1008.99" y1="647.29" x2="-1008.99" y2="612.42" gradientTransform="translate(-952.72 713.01) rotate(180)" xlink:href="#未命名的渐变_143"/><linearGradient id="未命名的渐变_143-90" x1="-1008.13" y1="647.29" x2="-1008.13" y2="612.42" gradientTransform="translate(-952.72 713.01) rotate(180)" xlink:href="#未命名的渐变_143"/><linearGradient id="未命名的渐变_143-91" x1="-1007.28" y1="647.29" x2="-1007.28" y2="612.42" gradientTransform="translate(-952.72 713.01) rotate(180)" xlink:href="#未命名的渐变_143"/><linearGradient id="未命名的渐变_143-92" x1="-1006.43" y1="647.29" x2="-1006.43" y2="612.42" gradientTransform="translate(-952.72 713.01) rotate(180)" xlink:href="#未命名的渐变_143"/><linearGradient id="未命名的渐变_143-93" x1="-1005.58" y1="647.29" x2="-1005.58" y2="612.42" gradientTransform="translate(-952.72 713.01) rotate(180)" xlink:href="#未命名的渐变_143"/><linearGradient id="未命名的渐变_143-94" x1="-1004.73" y1="647.29" x2="-1004.73" y2="612.42" gradientTransform="translate(-952.72 713.01) rotate(180)" xlink:href="#未命名的渐变_143"/><linearGradient id="未命名的渐变_143-95" x1="-1003.88" y1="647.29" x2="-1003.88" y2="612.42" gradientTransform="translate(-952.72 713.01) rotate(180)" xlink:href="#未命名的渐变_143"/><linearGradient id="未命名的渐变_143-96" x1="-1003.03" y1="647.29" x2="-1003.03" y2="612.42" gradientTransform="translate(-952.72 713.01) rotate(180)" xlink:href="#未命名的渐变_143"/><linearGradient id="未命名的渐变_143-97" x1="-1002.17" y1="647.29" x2="-1002.17" y2="612.42" gradientTransform="translate(-952.72 713.01) rotate(180)" xlink:href="#未命名的渐变_143"/><linearGradient id="未命名的渐变_143-98" x1="-1001.32" y1="647.29" x2="-1001.32" y2="612.42" gradientTransform="translate(-952.72 713.01) rotate(180)" xlink:href="#未命名的渐变_143"/><linearGradient id="未命名的渐变_143-99" x1="-1000.47" y1="647.29" x2="-1000.47" y2="612.42" gradientTransform="translate(-952.72 713.01) rotate(180)" xlink:href="#未命名的渐变_143"/><linearGradient id="未命名的渐变_143-100" x1="-999.62" y1="647.29" x2="-999.62" y2="612.42" gradientTransform="translate(-952.72 713.01) rotate(180)" xlink:href="#未命名的渐变_143"/><linearGradient id="未命名的渐变_143-101" x1="-998.77" y1="647.29" x2="-998.77" y2="612.42" gradientTransform="translate(-952.72 713.01) rotate(180)" xlink:href="#未命名的渐变_143"/><linearGradient id="未命名的渐变_143-102" x1="-997.92" y1="647.29" x2="-997.92" y2="612.42" gradientTransform="translate(-952.72 713.01) rotate(180)" xlink:href="#未命名的渐变_143"/><linearGradient id="未命名的渐变_143-103" x1="-997.07" y1="647.29" x2="-997.07" y2="612.42" gradientTransform="translate(-952.72 713.01) rotate(180)" xlink:href="#未命名的渐变_143"/><linearGradient id="未命名的渐变_143-104" x1="-996.22" y1="647.29" x2="-996.22" y2="612.42" gradientTransform="translate(-952.72 713.01) rotate(180)" xlink:href="#未命名的渐变_143"/><linearGradient id="未命名的渐变_143-105" x1="-995.36" y1="647.29" x2="-995.36" y2="612.42" gradientTransform="translate(-952.72 713.01) rotate(180)" xlink:href="#未命名的渐变_143"/><linearGradient id="未命名的渐变_143-106" x1="-994.51" y1="647.29" x2="-994.51" y2="612.42" gradientTransform="translate(-952.72 713.01) rotate(180)" xlink:href="#未命名的渐变_143"/><linearGradient id="未命名的渐变_143-107" x1="-993.66" y1="647.29" x2="-993.66" y2="612.42" gradientTransform="translate(-952.72 713.01) rotate(180)" xlink:href="#未命名的渐变_143"/><linearGradient id="未命名的渐变_143-108" x1="-992.81" y1="647.29" x2="-992.81" y2="612.42" gradientTransform="translate(-952.72 713.01) rotate(180)" xlink:href="#未命名的渐变_143"/><linearGradient id="未命名的渐变_143-109" x1="-991.96" y1="647.29" x2="-991.96" y2="612.42" gradientTransform="translate(-952.72 713.01) rotate(180)" xlink:href="#未命名的渐变_143"/><linearGradient id="未命名的渐变_143-110" x1="-991.11" y1="647.29" x2="-991.11" y2="612.42" gradientTransform="translate(-952.72 713.01) rotate(180)" xlink:href="#未命名的渐变_143"/><linearGradient id="未命名的渐变_143-111" x1="-990.26" y1="647.29" x2="-990.26" y2="612.42" gradientTransform="translate(-952.72 713.01) rotate(180)" xlink:href="#未命名的渐变_143"/><linearGradient id="未命名的渐变_143-112" x1="-989.4" y1="647.29" x2="-989.4" y2="612.42" gradientTransform="translate(-952.72 713.01) rotate(180)" xlink:href="#未命名的渐变_143"/><linearGradient id="未命名的渐变_143-113" x1="-988.55" y1="647.29" x2="-988.55" y2="612.42" gradientTransform="translate(-952.72 713.01) rotate(180)" xlink:href="#未命名的渐变_143"/><linearGradient id="未命名的渐变_143-114" x1="-987.7" y1="647.29" x2="-987.7" y2="612.42" gradientTransform="translate(-952.72 713.01) rotate(180)" xlink:href="#未命名的渐变_143"/><linearGradient id="未命名的渐变_143-115" x1="-986.85" y1="647.29" x2="-986.85" y2="612.42" gradientTransform="translate(-952.72 713.01) rotate(180)" xlink:href="#未命名的渐变_143"/><linearGradient id="未命名的渐变_143-116" x1="-986" y1="647.29" x2="-986" y2="612.42" gradientTransform="translate(-952.72 713.01) rotate(180)" xlink:href="#未命名的渐变_143"/><linearGradient id="未命名的渐变_143-117" x1="-985.15" y1="647.29" x2="-985.15" y2="612.42" gradientTransform="translate(-952.72 713.01) rotate(180)" xlink:href="#未命名的渐变_143"/><linearGradient id="未命名的渐变_143-118" x1="-984.3" y1="647.29" x2="-984.3" y2="612.42" gradientTransform="translate(-952.72 713.01) rotate(180)" xlink:href="#未命名的渐变_143"/><linearGradient id="未命名的渐变_143-119" x1="-983.44" y1="647.29" x2="-983.44" y2="612.42" gradientTransform="translate(-952.72 713.01) rotate(180)" xlink:href="#未命名的渐变_143"/><linearGradient id="未命名的渐变_143-120" x1="-982.59" y1="647.29" x2="-982.59" y2="612.42" gradientTransform="translate(-952.72 713.01) rotate(180)" xlink:href="#未命名的渐变_143"/><linearGradient id="未命名的渐变_143-121" x1="-981.74" y1="647.29" x2="-981.74" y2="612.42" gradientTransform="translate(-952.72 713.01) rotate(180)" xlink:href="#未命名的渐变_143"/><linearGradient id="未命名的渐变_143-122" x1="-980.89" y1="647.29" x2="-980.89" y2="612.42" gradientTransform="translate(-952.72 713.01) rotate(180)" xlink:href="#未命名的渐变_143"/><linearGradient id="未命名的渐变_143-123" x1="-980.04" y1="647.29" x2="-980.04" y2="612.42" gradientTransform="translate(-952.72 713.01) rotate(180)" xlink:href="#未命名的渐变_143"/><linearGradient id="未命名的渐变_143-124" x1="-979.19" y1="647.29" x2="-979.19" y2="612.42" gradientTransform="translate(-952.72 713.01) rotate(180)" xlink:href="#未命名的渐变_143"/><linearGradient id="未命名的渐变_143-125" x1="-978.34" y1="647.29" x2="-978.34" y2="612.42" gradientTransform="translate(-952.72 713.01) rotate(180)" xlink:href="#未命名的渐变_143"/><linearGradient id="未命名的渐变_143-126" x1="-977.49" y1="647.29" x2="-977.49" y2="612.42" gradientTransform="translate(-952.72 713.01) rotate(180)" xlink:href="#未命名的渐变_143"/><linearGradient id="未命名的渐变_143-127" x1="-976.63" y1="647.29" x2="-976.63" y2="612.42" gradientTransform="translate(-952.72 713.01) rotate(180)" xlink:href="#未命名的渐变_143"/><linearGradient id="未命名的渐变_143-128" x1="-975.78" y1="647.29" x2="-975.78" y2="612.42" gradientTransform="translate(-952.72 713.01) rotate(180)" xlink:href="#未命名的渐变_143"/><linearGradient id="未命名的渐变_143-129" x1="-974.93" y1="647.29" x2="-974.93" y2="612.42" gradientTransform="translate(-952.72 713.01) rotate(180)" xlink:href="#未命名的渐变_143"/><linearGradient id="未命名的渐变_143-130" x1="-974.08" y1="647.29" x2="-974.08" y2="612.42" gradientTransform="translate(-952.72 713.01) rotate(180)" xlink:href="#未命名的渐变_143"/></defs><title>资源 3</title><g id="图层_2" data-name="图层 2"><g id="图层_5" data-name="图层 5"><rect class="cls-1" x="42.68" y="10.51" width="64.93" height="32.41" transform="translate(150.29 53.44) rotate(180)"/><rect class="cls-2" x="65.75" y="42.92" width="18.51" height="32.41" transform="translate(150 118.26) rotate(180)"/><rect class="cls-3" x="33.63" width="82.75" height="10.51" transform="translate(150 10.51) rotate(180)"/><ellipse class="cls-4" cx="128.64" cy="83.16" rx="21.36" ry="17.43"/><ellipse class="cls-5" cx="127.79" cy="83.16" rx="21.36" ry="17.43"/><ellipse class="cls-6" cx="126.93" cy="83.16" rx="21.36" ry="17.43"/><ellipse class="cls-7" cx="126.08" cy="83.16" rx="21.36" ry="17.43"/><ellipse class="cls-8" cx="125.23" cy="83.16" rx="21.36" ry="17.43"/><ellipse class="cls-9" cx="124.38" cy="83.16" rx="21.36" ry="17.43"/><ellipse class="cls-10" cx="123.53" cy="83.16" rx="21.36" ry="17.43"/><ellipse class="cls-11" cx="122.68" cy="83.16" rx="21.36" ry="17.43"/><ellipse class="cls-12" cx="121.83" cy="83.16" rx="21.36" ry="17.43"/><ellipse class="cls-13" cx="120.97" cy="83.16" rx="21.36" ry="17.43"/><ellipse class="cls-14" cx="120.12" cy="83.16" rx="21.36" ry="17.43"/><ellipse class="cls-15" cx="119.27" cy="83.16" rx="21.36" ry="17.43"/><ellipse class="cls-16" cx="118.42" cy="83.16" rx="21.36" ry="17.43"/><ellipse class="cls-17" cx="117.57" cy="83.16" rx="21.36" ry="17.43"/><ellipse class="cls-18" cx="116.72" cy="83.16" rx="21.36" ry="17.43"/><ellipse class="cls-19" cx="115.87" cy="83.16" rx="21.36" ry="17.43"/><ellipse class="cls-20" cx="115.01" cy="83.16" rx="21.36" ry="17.43"/><ellipse class="cls-21" cx="114.16" cy="83.16" rx="21.36" ry="17.43"/><ellipse class="cls-22" cx="113.31" cy="83.16" rx="21.36" ry="17.43"/><ellipse class="cls-23" cx="112.46" cy="83.16" rx="21.36" ry="17.43"/><ellipse class="cls-24" cx="111.61" cy="83.16" rx="21.36" ry="17.43"/><ellipse class="cls-25" cx="110.76" cy="83.16" rx="21.36" ry="17.43"/><ellipse class="cls-26" cx="109.91" cy="83.16" rx="21.36" ry="17.43"/><ellipse class="cls-27" cx="109.06" cy="83.16" rx="21.36" ry="17.43"/><ellipse class="cls-28" cx="108.2" cy="83.16" rx="21.36" ry="17.43"/><ellipse class="cls-29" cx="107.35" cy="83.16" rx="21.36" ry="17.43"/><ellipse class="cls-30" cx="106.5" cy="83.16" rx="21.36" ry="17.43"/><ellipse class="cls-31" cx="105.65" cy="83.16" rx="21.36" ry="17.43"/><ellipse class="cls-32" cx="104.8" cy="83.16" rx="21.36" ry="17.43"/><ellipse class="cls-33" cx="103.95" cy="83.16" rx="21.36" ry="17.43"/><ellipse class="cls-34" cx="103.1" cy="83.16" rx="21.36" ry="17.43"/><ellipse class="cls-35" cx="102.24" cy="83.16" rx="21.36" ry="17.43"/><ellipse class="cls-36" cx="101.39" cy="83.16" rx="21.36" ry="17.43"/><ellipse class="cls-37" cx="100.54" cy="83.16" rx="21.36" ry="17.43"/><ellipse class="cls-38" cx="99.69" cy="83.16" rx="21.36" ry="17.43"/><ellipse class="cls-39" cx="98.84" cy="83.16" rx="21.36" ry="17.43"/><ellipse class="cls-40" cx="97.99" cy="83.16" rx="21.36" ry="17.43"/><ellipse class="cls-41" cx="97.14" cy="83.16" rx="21.36" ry="17.43"/><ellipse class="cls-42" cx="96.28" cy="83.16" rx="21.36" ry="17.43"/><ellipse class="cls-43" cx="95.43" cy="83.16" rx="21.36" ry="17.43"/><ellipse class="cls-44" cx="94.58" cy="83.16" rx="21.36" ry="17.43"/><ellipse class="cls-45" cx="93.73" cy="83.16" rx="21.36" ry="17.43"/><ellipse class="cls-46" cx="92.88" cy="83.16" rx="21.36" ry="17.43"/><ellipse class="cls-47" cx="92.03" cy="83.16" rx="21.36" ry="17.43"/><ellipse class="cls-48" cx="91.18" cy="83.16" rx="21.36" ry="17.43"/><ellipse class="cls-49" cx="90.32" cy="83.16" rx="21.36" ry="17.43"/><ellipse class="cls-50" cx="89.47" cy="83.16" rx="21.36" ry="17.43"/><ellipse class="cls-51" cx="88.62" cy="83.16" rx="21.36" ry="17.43"/><ellipse class="cls-52" cx="87.77" cy="83.16" rx="21.36" ry="17.43"/><ellipse class="cls-53" cx="86.92" cy="83.16" rx="21.36" ry="17.43"/><ellipse class="cls-54" cx="86.07" cy="83.16" rx="21.36" ry="17.43"/><ellipse class="cls-55" cx="85.22" cy="83.16" rx="21.36" ry="17.43"/><ellipse class="cls-56" cx="84.37" cy="83.16" rx="21.36" ry="17.43"/><ellipse class="cls-57" cx="83.51" cy="83.16" rx="21.36" ry="17.43"/><ellipse class="cls-58" cx="82.66" cy="83.16" rx="21.36" ry="17.43"/><ellipse class="cls-59" cx="81.81" cy="83.16" rx="21.36" ry="17.43"/><ellipse class="cls-60" cx="80.96" cy="83.16" rx="21.36" ry="17.43"/><ellipse class="cls-61" cx="80.11" cy="83.16" rx="21.36" ry="17.43"/><ellipse class="cls-62" cx="79.26" cy="83.16" rx="21.36" ry="17.43"/><ellipse class="cls-63" cx="78.41" cy="83.16" rx="21.36" ry="17.43"/><ellipse class="cls-64" cx="77.55" cy="83.16" rx="21.36" ry="17.43"/><ellipse class="cls-65" cx="76.7" cy="83.16" rx="21.36" ry="17.43"/><ellipse class="cls-66" cx="75.85" cy="83.16" rx="21.36" ry="17.43"/><ellipse class="cls-67" cx="75" cy="83.16" rx="21.36" ry="17.43"/><ellipse class="cls-68" cx="74.15" cy="83.16" rx="21.36" ry="17.43"/><ellipse class="cls-69" cx="73.3" cy="83.16" rx="21.36" ry="17.43"/><ellipse class="cls-70" cx="72.45" cy="83.16" rx="21.36" ry="17.43"/><ellipse class="cls-71" cx="71.59" cy="83.16" rx="21.36" ry="17.43"/><ellipse class="cls-72" cx="70.74" cy="83.16" rx="21.36" ry="17.43"/><ellipse class="cls-73" cx="69.89" cy="83.16" rx="21.36" ry="17.43"/><ellipse class="cls-74" cx="69.04" cy="83.16" rx="21.36" ry="17.43"/><ellipse class="cls-75" cx="68.19" cy="83.16" rx="21.36" ry="17.43"/><ellipse class="cls-76" cx="67.34" cy="83.16" rx="21.36" ry="17.43"/><ellipse class="cls-77" cx="66.49" cy="83.16" rx="21.36" ry="17.43"/><ellipse class="cls-78" cx="65.63" cy="83.16" rx="21.36" ry="17.43"/><ellipse class="cls-79" cx="64.78" cy="83.16" rx="21.36" ry="17.43"/><ellipse class="cls-80" cx="63.93" cy="83.16" rx="21.36" ry="17.43"/><ellipse class="cls-81" cx="63.08" cy="83.16" rx="21.36" ry="17.43"/><ellipse class="cls-82" cx="62.23" cy="83.16" rx="21.36" ry="17.43"/><ellipse class="cls-83" cx="61.38" cy="83.16" rx="21.36" ry="17.43"/><ellipse class="cls-84" cx="60.53" cy="83.16" rx="21.36" ry="17.43"/><ellipse class="cls-85" cx="59.68" cy="83.16" rx="21.36" ry="17.43"/><ellipse class="cls-86" cx="58.82" cy="83.16" rx="21.36" ry="17.43"/><ellipse class="cls-87" cx="57.97" cy="83.16" rx="21.36" ry="17.43"/><ellipse class="cls-88" cx="57.12" cy="83.16" rx="21.36" ry="17.43"/><ellipse class="cls-89" cx="56.27" cy="83.16" rx="21.36" ry="17.43"/><ellipse class="cls-90" cx="55.42" cy="83.16" rx="21.36" ry="17.43"/><ellipse class="cls-91" cx="54.57" cy="83.16" rx="21.36" ry="17.43"/><ellipse class="cls-92" cx="53.72" cy="83.16" rx="21.36" ry="17.43"/><ellipse class="cls-93" cx="52.86" cy="83.16" rx="21.36" ry="17.43"/><ellipse class="cls-94" cx="52.01" cy="83.16" rx="21.36" ry="17.43"/><ellipse class="cls-95" cx="51.16" cy="83.16" rx="21.36" ry="17.43"/><ellipse class="cls-96" cx="50.31" cy="83.16" rx="21.36" ry="17.43"/><ellipse class="cls-97" cx="49.46" cy="83.16" rx="21.36" ry="17.43"/><ellipse class="cls-98" cx="48.61" cy="83.16" rx="21.36" ry="17.43"/><ellipse class="cls-99" cx="47.76" cy="83.16" rx="21.36" ry="17.43"/><ellipse class="cls-100" cx="46.9" cy="83.16" rx="21.36" ry="17.43"/><ellipse class="cls-101" cx="46.05" cy="83.16" rx="21.36" ry="17.43"/><ellipse class="cls-102" cx="45.2" cy="83.16" rx="21.36" ry="17.43"/><ellipse class="cls-103" cx="44.35" cy="83.16" rx="21.36" ry="17.43"/><ellipse class="cls-104" cx="43.5" cy="83.16" rx="21.36" ry="17.43"/><ellipse class="cls-105" cx="42.65" cy="83.16" rx="21.36" ry="17.43"/><ellipse class="cls-106" cx="41.8" cy="83.16" rx="21.36" ry="17.43"/><ellipse class="cls-107" cx="40.94" cy="83.16" rx="21.36" ry="17.43"/><ellipse class="cls-108" cx="40.09" cy="83.16" rx="21.36" ry="17.43"/><ellipse class="cls-109" cx="39.24" cy="83.16" rx="21.36" ry="17.43"/><ellipse class="cls-110" cx="38.39" cy="83.16" rx="21.36" ry="17.43"/><ellipse class="cls-111" cx="37.54" cy="83.16" rx="21.36" ry="17.43"/><ellipse class="cls-112" cx="36.69" cy="83.16" rx="21.36" ry="17.43"/><ellipse class="cls-113" cx="35.84" cy="83.16" rx="21.36" ry="17.43"/><ellipse class="cls-114" cx="34.99" cy="83.16" rx="21.36" ry="17.43"/><ellipse class="cls-115" cx="34.13" cy="83.16" rx="21.36" ry="17.43"/><ellipse class="cls-116" cx="33.28" cy="83.16" rx="21.36" ry="17.43"/><ellipse class="cls-117" cx="32.43" cy="83.16" rx="21.36" ry="17.43"/><ellipse class="cls-118" cx="31.58" cy="83.16" rx="21.36" ry="17.43"/><ellipse class="cls-119" cx="30.73" cy="83.16" rx="21.36" ry="17.43"/><ellipse class="cls-120" cx="29.88" cy="83.16" rx="21.36" ry="17.43"/><ellipse class="cls-121" cx="29.03" cy="83.16" rx="21.36" ry="17.43"/><ellipse class="cls-122" cx="28.17" cy="83.16" rx="21.36" ry="17.43"/><ellipse class="cls-123" cx="27.32" cy="83.16" rx="21.36" ry="17.43"/><ellipse class="cls-124" cx="26.47" cy="83.16" rx="21.36" ry="17.43"/><ellipse class="cls-125" cx="25.62" cy="83.16" rx="21.36" ry="17.43"/><ellipse class="cls-126" cx="24.77" cy="83.16" rx="21.36" ry="17.43"/><ellipse class="cls-127" cx="23.92" cy="83.16" rx="21.36" ry="17.43"/><ellipse class="cls-128" cx="23.07" cy="83.16" rx="21.36" ry="17.43"/><ellipse class="cls-129" cx="22.21" cy="83.16" rx="21.36" ry="17.43"/><ellipse class="cls-130" cx="21.36" cy="83.16" rx="21.36" ry="17.43"/><g class="cls-131"><circle class="cls-132" cx="75.15" cy="83.16" r="41.09"/><circle class="cls-133" cx="75.15" cy="83.16" r="34.59"/><rect class="cls-134" x="50.33" y="74.8" width="49.64" height="16.72"/></g></g></g></svg>