<svg xmlns="http://www.w3.org/2000/svg" xmlns:xlink="http://www.w3.org/1999/xlink" viewBox="0 0 29.76 150"><defs><style>.cls-1{fill:url(#未命名的渐变_143);}.cls-2{fill:url(#未命名的渐变_143-2);}.cls-3{fill:url(#未命名的渐变_143-3);}.cls-4{fill:url(#未命名的渐变_143-4);}.cls-5{fill:url(#未命名的渐变_85);}.cls-6{fill:url(#未命名的渐变_85-2);}.cls-7{fill:#dadbe0;}.cls-8{fill:url(#未命名的渐变_143-5);}.cls-9{fill:url(#未命名的渐变_143-6);}.cls-10{fill:url(#未命名的渐变_143-7);}.cls-11{fill:url(#未命名的渐变_143-8);}.cls-12{fill:url(#未命名的渐变_143-9);}.cls-13{fill:url(#未命名的渐变_67);}.cls-14{fill:url(#未命名的渐变_67-2);}.cls-15{fill:url(#未命名的渐变_67-3);}.cls-16{fill:url(#未命名的渐变_67-4);}.cls-17{fill:url(#未命名的渐变_67-5);}</style><linearGradient id="未命名的渐变_143" x1="11.42" y1="145.85" x2="14.93" y2="145.85" gradientUnits="userSpaceOnUse"><stop offset="0" stop-color="#b7b7b7"/><stop offset="0.03" stop-color="#9b9d9d"/><stop offset="0.07" stop-color="#878b8b"/><stop offset="0.09" stop-color="#808484"/><stop offset="0.2" stop-color="#a3a6a6"/><stop offset="0.49" stop-color="#f6f6f6"/><stop offset="0.61" stop-color="#f3f3f3"/><stop offset="0.7" stop-color="#eaeaea"/><stop offset="0.77" stop-color="#dbdbdb"/><stop offset="0.83" stop-color="#c5c5c5"/><stop offset="0.9" stop-color="#aaa"/><stop offset="0.95" stop-color="#888"/><stop offset="1" stop-color="#666"/></linearGradient><linearGradient id="未命名的渐变_143-2" x1="7.02" y1="61.63" x2="19.31" y2="61.63" xlink:href="#未命名的渐变_143"/><linearGradient id="未命名的渐变_143-3" x1="6.13" y1="15.17" x2="20.21" y2="15.17" xlink:href="#未命名的渐变_143"/><linearGradient id="未命名的渐变_143-4" x1="4.85" y1="1.36" x2="21.6" y2="1.36" xlink:href="#未命名的渐变_143"/><linearGradient id="未命名的渐变_85" x1="19.31" y1="30.45" x2="29.76" y2="30.45" gradientUnits="userSpaceOnUse"><stop offset="0" stop-color="#6b6b6b"/><stop offset="0.11" stop-color="#767676"/><stop offset="0.3" stop-color="#959595"/><stop offset="0.41" stop-color="#aaa"/><stop offset="0.68" stop-color="#acacac"/><stop offset="0.78" stop-color="#b3b3b3"/><stop offset="0.85" stop-color="#bebebe"/><stop offset="0.91" stop-color="#cfcfcf"/><stop offset="0.95" stop-color="#e5e5e5"/><stop offset="0.99" stop-color="#f6f6f6"/><stop offset="0.99" stop-color="#ededed"/><stop offset="0.99" stop-color="#d4d4d4"/><stop offset="0.99" stop-color="#adadad"/></linearGradient><linearGradient id="未命名的渐变_85-2" x1="0" y1="58.07" x2="7.23" y2="58.07" xlink:href="#未命名的渐变_85"/><linearGradient id="未命名的渐变_143-5" x1="5.96" y1="99.66" x2="20.47" y2="99.66" xlink:href="#未命名的渐变_143"/><linearGradient id="未命名的渐变_143-6" x1="10.6" y1="122.5" x2="15.56" y2="122.5" xlink:href="#未命名的渐变_143"/><linearGradient id="未命名的渐变_143-7" x1="1.25" y1="72.56" x2="25.11" y2="72.56" xlink:href="#未命名的渐变_143"/><linearGradient id="未命名的渐变_143-8" x1="6.06" y1="15.17" x2="8.43" y2="15.17" xlink:href="#未命名的渐变_143"/><linearGradient id="未命名的渐变_143-9" x1="18.13" y1="15.17" x2="20.5" y2="15.17" xlink:href="#未命名的渐变_143"/><linearGradient id="未命名的渐变_67" x1="11.42" y1="141.35" x2="14.93" y2="141.35" gradientUnits="userSpaceOnUse"><stop offset="0" stop-color="#6b6b6b"/><stop offset="0.11" stop-color="#767676"/><stop offset="0.3" stop-color="#959595"/><stop offset="0.41" stop-color="#aaa"/><stop offset="0.56" stop-color="#ccc"/><stop offset="0.71" stop-color="#eaeaea"/><stop offset="0.8" stop-color="#f6f6f6"/><stop offset="0.83" stop-color="#ededed"/><stop offset="0.87" stop-color="#d4d4d4"/><stop offset="0.92" stop-color="#ababab"/><stop offset="0.98" stop-color="#737373"/><stop offset="0.99" stop-color="#666"/></linearGradient><linearGradient id="未命名的渐变_67-2" x1="11.21" y1="143.42" x2="15.09" y2="143.42" xlink:href="#未命名的渐变_67"/><linearGradient id="未命名的渐变_67-3" x1="11.23" y1="145.09" x2="15.12" y2="145.09" xlink:href="#未命名的渐变_67"/><linearGradient id="未命名的渐变_67-4" x1="9.19" y1="124.26" x2="12.35" y2="124.26" xlink:href="#未命名的渐变_67"/><linearGradient id="未命名的渐变_67-5" x1="9.21" y1="125.62" x2="12.37" y2="125.62" xlink:href="#未命名的渐变_67"/></defs><title>Absorber（吸收器）</title><g id="图层_2" data-name="图层 2"><g id="图层_125" data-name="图层 125"><g id="Absorber_吸收器_" data-name="Absorber（吸收器）"><rect class="cls-1" x="11.42" y="141.7" width="3.51" height="8.3"/><rect class="cls-2" x="7.02" y="27.61" width="12.29" height="68.05"/><rect class="cls-3" x="6.13" y="2.73" width="14.09" height="24.88"/><rect class="cls-4" x="4.85" width="16.76" height="2.73"/><rect class="cls-5" x="19.31" y="28.74" width="10.44" height="3.41"/><rect class="cls-6" y="53" width="7.23" height="10.13"/><rect class="cls-7" x="7.95" y="60.02" width="10.44" height="5.13"/><rect class="cls-8" x="5.96" y="95.32" width="14.51" height="8.69"/><rect class="cls-9" x="10.6" y="104.01" width="4.97" height="36.99"/><polygon class="cls-10" points="25.11 77.14 1.25 77.14 7.04 67.98 19.31 67.98 25.11 77.14"/><rect class="cls-11" x="6.06" y="2.73" width="2.37" height="24.88"/><rect class="cls-12" x="18.13" y="2.73" width="2.37" height="24.88"/><rect class="cls-13" x="11.42" y="141" width="3.51" height="0.71"/><rect class="cls-14" x="11.21" y="143.07" width="3.88" height="0.71"/><rect class="cls-15" x="11.23" y="144.74" width="3.88" height="0.71"/><rect class="cls-16" x="9.19" y="123.98" width="3.17" height="0.58"/><rect class="cls-17" x="9.21" y="125.34" width="3.17" height="0.58"/></g></g></g></svg>