<?xml version="1.0" encoding="utf-8"?>
<!-- Generator: Adobe Illustrator 24.0.0, SVG Export Plug-In . SVG Version: 6.00 Build 0)  -->
<svg version="1.1" id="图层_1" xmlns="http://www.w3.org/2000/svg" xmlns:xlink="http://www.w3.org/1999/xlink" x="0px" y="0px"
	 viewBox="0 0 150 143.9" style="enable-background:new 0 0 150 143.9;" xml:space="preserve">
<style type="text/css">
	.st0{fill:#CDD3D4;}
	.st1{fill:url(#SVGID_1_);}
	.st2{fill:url(#SVGID_2_);}
	.st3{fill:url(#SVGID_3_);}
	.st4{fill:url(#SVGID_4_);}
	.st5{fill:#9FA0A0;}
	.st6{fill:#D9D9D9;}
	.st7{fill:url(#SVGID_5_);}
	.st8{fill:#595757;}
	.st9{fill:#878585;}
	.st10{fill:#E9E9E9;}
	.st11{fill:#E85464;}
	.st12{fill:url(#SVGID_6_);}
	.st13{fill:url(#SVGID_7_);}
	.st14{fill:#676666;}
	.st15{fill:#A4A4A4;}
	.st16{fill:#E3E3E4;}
	.st17{fill:url(#SVGID_8_);}
	.st18{fill:#1FC666;}
	.st19{fill:url(#SVGID_9_);}
	.st20{fill:url(#SVGID_10_);}
	.st21{fill:url(#SVGID_11_);}
	.st22{fill:#91888A;}
	.st23{fill:#C16264;}
	.st24{fill:#B60717;}
	.st25{fill:url(#SVGID_12_);}
	.st26{display:none;opacity:0.2;}
	.st27{display:inline;}
</style>
<title>Filling Machine 2（灌装机2）</title>
<g id="图层_2_1_">
	<g id="图层_125">
		<g id="Filling_Machine_2_灌装机2_">
			<rect x="70.9" y="8.5" class="st0" width="8.6" height="4.5"/>
			
				<linearGradient id="SVGID_1_" gradientUnits="userSpaceOnUse" x1="0.62" y1="70.47" x2="150.02" y2="70.47" gradientTransform="matrix(1 0 0 -1 0 146)">
				<stop  offset="0" style="stop-color:#E2E2E2"/>
				<stop  offset="3.000000e-02" style="stop-color:#D0D0D0"/>
				<stop  offset="6.000000e-02" style="stop-color:#BCBCBC"/>
				<stop  offset="9.000000e-02" style="stop-color:#B5B5B5"/>
				<stop  offset="0.49" style="stop-color:#F6F6F6"/>
				<stop  offset="0.63" style="stop-color:#F3F3F3"/>
				<stop  offset="0.73" style="stop-color:#EAEAEA"/>
				<stop  offset="0.82" style="stop-color:#DBDBDB"/>
				<stop  offset="0.9" style="stop-color:#C6C6C6"/>
				<stop  offset="0.97" style="stop-color:#AAAAAA"/>
				<stop  offset="1" style="stop-color:#9B9B9B"/>
			</linearGradient>
			<rect x="0.6" y="20.7" class="st1" width="149.4" height="109.7"/>
			
				<linearGradient id="SVGID_2_" gradientUnits="userSpaceOnUse" x1="0.69" y1="73.48" x2="150.02" y2="73.48" gradientTransform="matrix(1 0 0 -1 0 146)">
				<stop  offset="0" style="stop-color:#6B6B6B"/>
				<stop  offset="1.000000e-02" style="stop-color:#767676"/>
				<stop  offset="3.000000e-02" style="stop-color:#959595"/>
				<stop  offset="4.000000e-02" style="stop-color:#AAAAAA"/>
				<stop  offset="0.13" style="stop-color:#B1B1B1"/>
				<stop  offset="0.63" style="stop-color:#CFCFCF"/>
				<stop  offset="0.9" style="stop-color:#DBDBDB"/>
				<stop  offset="0.96" style="stop-color:#888888"/>
				<stop  offset="0.99" style="stop-color:#666666"/>
			</linearGradient>
			<rect x="0.7" y="23.9" class="st2" width="149.3" height="97.3"/>
			
				<linearGradient id="SVGID_3_" gradientUnits="userSpaceOnUse" x1="61.05" y1="128.07" x2="89.61" y2="128.07" gradientTransform="matrix(1 0 0 -1 0 146)">
				<stop  offset="0" style="stop-color:#E2E2E2"/>
				<stop  offset="3.000000e-02" style="stop-color:#D0D0D0"/>
				<stop  offset="6.000000e-02" style="stop-color:#BCBCBC"/>
				<stop  offset="9.000000e-02" style="stop-color:#B5B5B5"/>
				<stop  offset="0.49" style="stop-color:#F6F6F6"/>
				<stop  offset="0.63" style="stop-color:#F3F3F3"/>
				<stop  offset="0.73" style="stop-color:#EAEAEA"/>
				<stop  offset="0.82" style="stop-color:#DBDBDB"/>
				<stop  offset="0.9" style="stop-color:#C6C6C6"/>
				<stop  offset="0.97" style="stop-color:#AAAAAA"/>
				<stop  offset="1" style="stop-color:#9B9B9B"/>
			</linearGradient>
			<rect x="61" y="15.7" class="st3" width="28.6" height="4.4"/>
			
				<linearGradient id="SVGID_4_" gradientUnits="userSpaceOnUse" x1="73.81" y1="123.515" x2="76.77" y2="123.515" gradientTransform="matrix(1 0 0 -1 0 146)">
				<stop  offset="0" style="stop-color:#E2E2E2"/>
				<stop  offset="3.000000e-02" style="stop-color:#D0D0D0"/>
				<stop  offset="6.000000e-02" style="stop-color:#BCBCBC"/>
				<stop  offset="9.000000e-02" style="stop-color:#B5B5B5"/>
				<stop  offset="0.49" style="stop-color:#F6F6F6"/>
				<stop  offset="0.63" style="stop-color:#F3F3F3"/>
				<stop  offset="0.73" style="stop-color:#EAEAEA"/>
				<stop  offset="0.82" style="stop-color:#DBDBDB"/>
				<stop  offset="0.9" style="stop-color:#C6C6C6"/>
				<stop  offset="0.97" style="stop-color:#AAAAAA"/>
				<stop  offset="1" style="stop-color:#9B9B9B"/>
			</linearGradient>
			<rect x="73.8" y="18.7" class="st4" width="3" height="7.6"/>
			<rect y="93.4" class="st5" width="149.9" height="2.9"/>
			<rect x="6" y="90.3" class="st6" width="15.6" height="3.1"/>
			<rect x="26.7" y="90.3" class="st6" width="15.6" height="3.1"/>
			<rect x="47.4" y="90.3" class="st6" width="15.6" height="3.1"/>
			<rect x="68.1" y="90.3" class="st6" width="15.6" height="3.1"/>
			<rect x="88.8" y="90.3" class="st6" width="15.6" height="3.1"/>
			<rect x="109.5" y="90.3" class="st6" width="15.6" height="3.1"/>
			<rect x="130.1" y="90.3" class="st6" width="15.6" height="3.1"/>
			
				<linearGradient id="SVGID_5_" gradientUnits="userSpaceOnUse" x1="9.84" y1="97.88" x2="43.51" y2="97.88" gradientTransform="matrix(1 0 0 -1 0 146)">
				<stop  offset="0" style="stop-color:#6B6B6B"/>
				<stop  offset="1.000000e-02" style="stop-color:#767676"/>
				<stop  offset="3.000000e-02" style="stop-color:#959595"/>
				<stop  offset="4.000000e-02" style="stop-color:#AAAAAA"/>
				<stop  offset="0.37" style="stop-color:#CCCCCC"/>
				<stop  offset="0.74" style="stop-color:#EAEAEA"/>
				<stop  offset="0.94" style="stop-color:#F6F6F6"/>
				<stop  offset="0.95" style="stop-color:#EDEDED"/>
				<stop  offset="0.96" style="stop-color:#D4D4D4"/>
				<stop  offset="0.97" style="stop-color:#ABABAB"/>
				<stop  offset="0.99" style="stop-color:#737373"/>
				<stop  offset="0.99" style="stop-color:#666666"/>
			</linearGradient>
			<rect x="9.8" y="31.6" class="st7" width="33.7" height="33"/>
			<rect x="13" y="34.1" class="st8" width="27.4" height="10.6"/>
			<polygon class="st9" points="40.4,44.7 13,44.7 13,34.1 24.1,34.1 			"/>
			<rect x="13" y="47.8" class="st10" width="4.6" height="3.8"/>
			<rect x="13" y="53.2" class="st10" width="4.6" height="3.8"/>
			<rect x="13" y="58.6" class="st10" width="4.6" height="3.8"/>
			<rect x="20.6" y="47.8" class="st10" width="4.6" height="3.8"/>
			<rect x="20.6" y="53.2" class="st10" width="4.6" height="3.8"/>
			<rect x="20.6" y="58.6" class="st10" width="4.6" height="3.8"/>
			<rect x="28.2" y="47.8" class="st10" width="4.6" height="3.8"/>
			<rect x="28.2" y="53.2" class="st10" width="4.6" height="3.8"/>
			<rect x="28.2" y="58.6" class="st10" width="4.6" height="3.8"/>
			<rect x="35.8" y="47.8" class="st11" width="4.6" height="3.8"/>
			<rect x="35.8" y="53.2" class="st10" width="4.6" height="3.8"/>
			<rect x="35.8" y="58.6" class="st10" width="4.6" height="3.8"/>
			<rect x="119.5" y="31.2" class="st10" width="21.3" height="12.8"/>
			
				<linearGradient id="SVGID_6_" gradientUnits="userSpaceOnUse" x1="73.4" y1="126.465" x2="77.17" y2="126.465" gradientTransform="matrix(1 0 0 -1 0 146)">
				<stop  offset="0" style="stop-color:#E2E2E2"/>
				<stop  offset="3.000000e-02" style="stop-color:#D0D0D0"/>
				<stop  offset="6.000000e-02" style="stop-color:#BCBCBC"/>
				<stop  offset="9.000000e-02" style="stop-color:#B5B5B5"/>
				<stop  offset="0.49" style="stop-color:#F6F6F6"/>
				<stop  offset="0.63" style="stop-color:#F3F3F3"/>
				<stop  offset="0.73" style="stop-color:#EAEAEA"/>
				<stop  offset="0.82" style="stop-color:#DBDBDB"/>
				<stop  offset="0.9" style="stop-color:#C6C6C6"/>
				<stop  offset="0.97" style="stop-color:#AAAAAA"/>
				<stop  offset="1" style="stop-color:#9B9B9B"/>
			</linearGradient>
			<rect x="73.4" y="15.7" class="st12" width="3.8" height="7.6"/>
			
				<linearGradient id="SVGID_7_" gradientUnits="userSpaceOnUse" x1="73.81" y1="141.75" x2="76.91" y2="141.75" gradientTransform="matrix(1 0 0 -1 0 146)">
				<stop  offset="0" style="stop-color:#6B6B6B"/>
				<stop  offset="0.11" style="stop-color:#767676"/>
				<stop  offset="0.3" style="stop-color:#959595"/>
				<stop  offset="0.41" style="stop-color:#AAAAAA"/>
				<stop  offset="0.56" style="stop-color:#CCCCCC"/>
				<stop  offset="0.71" style="stop-color:#EAEAEA"/>
				<stop  offset="0.8" style="stop-color:#F6F6F6"/>
				<stop  offset="0.83" style="stop-color:#EDEDED"/>
				<stop  offset="0.87" style="stop-color:#D4D4D4"/>
				<stop  offset="0.92" style="stop-color:#ABABAB"/>
				<stop  offset="0.98" style="stop-color:#737373"/>
				<stop  offset="0.99" style="stop-color:#666666"/>
			</linearGradient>
			<rect x="73.8" class="st13" width="3.1" height="8.5"/>
			<polygon class="st14" points="10.9,143.9 3.1,143.9 3.1,130.4 20.2,130.4 			"/>
			<polygon class="st14" points="138.8,143.9 146.6,143.9 146.6,130.4 129.5,130.4 			"/>
			<rect x="70.9" y="9.2" class="st15" width="8.6" height="3"/>
			<circle class="st16" cx="52.4" cy="40.5" r="5"/>
			
				<linearGradient id="SVGID_8_" gradientUnits="userSpaceOnUse" x1="47.94" y1="105.52" x2="56.92" y2="105.52" gradientTransform="matrix(1 0 0 -1 0 146)">
				<stop  offset="0" style="stop-color:#E2E2E2"/>
				<stop  offset="3.000000e-02" style="stop-color:#D0D0D0"/>
				<stop  offset="6.000000e-02" style="stop-color:#BCBCBC"/>
				<stop  offset="9.000000e-02" style="stop-color:#B5B5B5"/>
				<stop  offset="0.49" style="stop-color:#F6F6F6"/>
				<stop  offset="0.63" style="stop-color:#F3F3F3"/>
				<stop  offset="0.73" style="stop-color:#EAEAEA"/>
				<stop  offset="0.82" style="stop-color:#DBDBDB"/>
				<stop  offset="0.9" style="stop-color:#C6C6C6"/>
				<stop  offset="0.97" style="stop-color:#AAAAAA"/>
				<stop  offset="1" style="stop-color:#9B9B9B"/>
			</linearGradient>
			<circle class="st17" cx="52.4" cy="40.5" r="4.5"/>
			<circle class="st16" cx="123.4" cy="35.2" r="2.2"/>
			<circle class="st18" cx="123.4" cy="35.2" r="2"/>
			
				<linearGradient id="SVGID_9_" gradientUnits="userSpaceOnUse" x1="51.42" y1="105.525" x2="53.44" y2="105.525" gradientTransform="matrix(1 0 0 -1 0 146)">
				<stop  offset="0" style="stop-color:#E2E2E2"/>
				<stop  offset="3.000000e-02" style="stop-color:#D0D0D0"/>
				<stop  offset="6.000000e-02" style="stop-color:#BCBCBC"/>
				<stop  offset="9.000000e-02" style="stop-color:#B5B5B5"/>
				<stop  offset="0.49" style="stop-color:#F6F6F6"/>
				<stop  offset="0.63" style="stop-color:#F3F3F3"/>
				<stop  offset="0.73" style="stop-color:#EAEAEA"/>
				<stop  offset="0.82" style="stop-color:#DBDBDB"/>
				<stop  offset="0.9" style="stop-color:#C6C6C6"/>
				<stop  offset="0.97" style="stop-color:#AAAAAA"/>
				<stop  offset="1" style="stop-color:#9B9B9B"/>
			</linearGradient>
			<rect x="51.4" y="36.2" class="st19" width="2" height="8.5"/>
			<circle class="st16" cx="52.4" cy="56.1" r="5"/>
			
				<linearGradient id="SVGID_10_" gradientUnits="userSpaceOnUse" x1="47.94" y1="89.87" x2="56.92" y2="89.87" gradientTransform="matrix(1 0 0 -1 0 146)">
				<stop  offset="0" style="stop-color:#E2E2E2"/>
				<stop  offset="3.000000e-02" style="stop-color:#D0D0D0"/>
				<stop  offset="6.000000e-02" style="stop-color:#BCBCBC"/>
				<stop  offset="9.000000e-02" style="stop-color:#B5B5B5"/>
				<stop  offset="0.49" style="stop-color:#F6F6F6"/>
				<stop  offset="0.63" style="stop-color:#F3F3F3"/>
				<stop  offset="0.73" style="stop-color:#EAEAEA"/>
				<stop  offset="0.82" style="stop-color:#DBDBDB"/>
				<stop  offset="0.9" style="stop-color:#C6C6C6"/>
				<stop  offset="0.97" style="stop-color:#AAAAAA"/>
				<stop  offset="1" style="stop-color:#9B9B9B"/>
			</linearGradient>
			<circle class="st20" cx="52.4" cy="56.1" r="4.5"/>
			
				<linearGradient id="SVGID_11_" gradientUnits="userSpaceOnUse" x1="51.42" y1="89.865" x2="53.44" y2="89.865" gradientTransform="matrix(1 0 0 -1 0 146)">
				<stop  offset="0" style="stop-color:#E2E2E2"/>
				<stop  offset="3.000000e-02" style="stop-color:#D0D0D0"/>
				<stop  offset="6.000000e-02" style="stop-color:#BCBCBC"/>
				<stop  offset="9.000000e-02" style="stop-color:#B5B5B5"/>
				<stop  offset="0.49" style="stop-color:#F6F6F6"/>
				<stop  offset="0.63" style="stop-color:#F3F3F3"/>
				<stop  offset="0.73" style="stop-color:#EAEAEA"/>
				<stop  offset="0.82" style="stop-color:#DBDBDB"/>
				<stop  offset="0.9" style="stop-color:#C6C6C6"/>
				<stop  offset="0.97" style="stop-color:#AAAAAA"/>
				<stop  offset="1" style="stop-color:#9B9B9B"/>
			</linearGradient>
			<rect x="51.4" y="51.9" class="st21" width="2" height="8.5"/>
			<rect x="122" y="38.4" class="st22" width="2.8" height="3.5"/>
			<rect x="122.4" y="38.7" class="st23" width="2.1" height="1.1"/>
			<rect x="122.4" y="39.8" class="st24" width="2.1" height="1.8"/>
			<circle class="st16" cx="130" cy="35.1" r="2.2"/>
			<circle class="st18" cx="130" cy="35.1" r="2"/>
			<rect x="128.6" y="38.3" class="st22" width="2.8" height="3.5"/>
			<rect x="129" y="38.7" class="st23" width="2.1" height="1.1"/>
			<rect x="129" y="39.7" class="st24" width="2.1" height="1.8"/>
			<circle class="st16" cx="136.7" cy="35.1" r="2.2"/>
			<circle class="st18" cx="136.7" cy="35.1" r="2"/>
			<rect x="135.3" y="38.3" class="st22" width="2.8" height="3.5"/>
			<rect x="135.6" y="38.7" class="st23" width="2.1" height="1.1"/>
			<rect x="135.6" y="39.7" class="st24" width="2.1" height="1.8"/>
			
				<linearGradient id="SVGID_12_" gradientUnits="userSpaceOnUse" x1="73.4" y1="132.725" x2="77.17" y2="132.725" gradientTransform="matrix(1 0 0 -1 0 146)">
				<stop  offset="0" style="stop-color:#6B6B6B"/>
				<stop  offset="0.11" style="stop-color:#767676"/>
				<stop  offset="0.3" style="stop-color:#959595"/>
				<stop  offset="0.41" style="stop-color:#AAAAAA"/>
				<stop  offset="0.56" style="stop-color:#CCCCCC"/>
				<stop  offset="0.71" style="stop-color:#EAEAEA"/>
				<stop  offset="0.8" style="stop-color:#F6F6F6"/>
				<stop  offset="0.83" style="stop-color:#EDEDED"/>
				<stop  offset="0.87" style="stop-color:#D4D4D4"/>
				<stop  offset="0.92" style="stop-color:#ABABAB"/>
				<stop  offset="0.98" style="stop-color:#737373"/>
				<stop  offset="0.99" style="stop-color:#666666"/>
			</linearGradient>
			<rect x="73.4" y="9.5" class="st25" width="3.8" height="7.6"/>
			<g class="st26">
				<path class="st27" d="M34.3,92.6c-0.2,0.4-0.4,0.8-0.7,1.3s-0.5,0.9-0.8,1.4s-0.6,1-0.9,1.4s-0.6,0.9-0.9,1.2l-2.3-1.1
					c0.3-0.4,0.6-0.8,0.9-1.2s0.6-0.9,0.9-1.4s0.6-0.9,0.8-1.4s0.4-0.8,0.6-1.2L34.3,92.6z M38.3,90.8v4.1c0,0.4,0,0.8-0.1,1.2
					c-0.1,0.3-0.2,0.5-0.5,0.7c-0.2,0.2-0.5,0.4-0.8,0.5c-0.3,0.1-0.7,0.2-1.2,0.3l-1.2,0.3l-0.8-2.6l0.9-0.2
					c0.3-0.1,0.5-0.1,0.7-0.3c0.2-0.1,0.2-0.3,0.2-0.6v-3.1L30,91.9l0.6-7.7c0.6-0.1,1.3-0.2,2-0.3s1.4-0.2,2.1-0.3l2.1-0.4l2.1-0.4
					l1.9-0.4c0.6-0.1,1.1-0.3,1.6-0.4l0.5,2.6L40.7,85c-0.8,0.2-1.6,0.3-2.4,0.5L35.7,86l-2.6,0.4L33,89l2.6-0.3v-2.2l2.8-0.3v2.1
					l4.9-0.7v2.5L38.3,90.8z M41.1,90.5c0.2,0.2,0.4,0.4,0.7,0.8s0.5,0.7,0.8,1.1s0.6,0.8,0.9,1.2s0.5,0.8,0.8,1.2l-2.4,1.8
					c-0.2-0.4-0.4-0.8-0.7-1.2s-0.5-0.8-0.8-1.2s-0.5-0.8-0.8-1.2s-0.5-0.7-0.7-0.9L41.1,90.5z"/>
				<path class="st27" d="M59.9,85.7v2.2l-14.7,1.9v-2.2l3.3-0.4l0.2-1l-2.4,0.3v-1.8l2.8-0.4l0.2-0.9L46,83.9v-2.2L59.1,80v2.2
					l-6.8,0.9L52,84l6-0.8L57.9,86L59.9,85.7z M46.7,90.4l11.8-1.5v5.6L46.7,96V90.4z M49.3,93.5l6.4-0.8v-1.3l-6.4,0.8V93.5z
					 M51.3,86.8l3.9-0.5l0.1-1l-3.7,0.5L51.3,86.8z"/>
				<path class="st27" d="M66.6,88.4c-0.2,0.4-0.4,0.8-0.7,1.3s-0.5,0.9-0.8,1.4s-0.6,1-0.9,1.4s-0.6,0.9-0.8,1.2L61,92.6
					c0.3-0.4,0.6-0.8,0.9-1.2s0.6-0.9,0.9-1.4s0.5-0.9,0.8-1.4s0.4-0.8,0.6-1.2L66.6,88.4z M70.6,86.5v4.1c0,0.4,0,0.8-0.1,1.2
					c-0.1,0.3-0.2,0.5-0.4,0.7c-0.2,0.2-0.5,0.4-0.8,0.5c-0.3,0.1-0.7,0.2-1.2,0.3l-1.2,0.3L65.9,91l0.9-0.2
					c0.3-0.1,0.5-0.1,0.7-0.3c0.2-0.1,0.2-0.3,0.2-0.6v-3.1l-5.6,0.7l0.6-7.7c0.6-0.1,1.3-0.2,2-0.3s1.4-0.2,2.1-0.3
					s1.4-0.3,2.1-0.4s1.4-0.3,2.1-0.4s1.3-0.3,1.9-0.4s1.1-0.3,1.6-0.4l0.5,2.6l-2,0.5c-0.8,0.2-1.6,0.3-2.4,0.5s-1.7,0.3-2.6,0.5
					l-2.6,0.4l-0.2,2.6l2.6-0.3v-2.2l2.8-0.3v2.2l4.9-0.7v2.5L70.6,86.5z M73.3,86.3c0.2,0.2,0.4,0.4,0.7,0.8l0.8,1.1
					c0.3,0.4,0.6,0.8,0.9,1.2s0.5,0.8,0.8,1.2L74,92.4c-0.2-0.4-0.4-0.8-0.7-1.2s-0.5-0.8-0.8-1.2s-0.5-0.8-0.8-1.2
					s-0.5-0.7-0.7-0.9L73.3,86.3z"/>
			</g>
		</g>
	</g>
</g>
</svg>
