<svg xmlns="http://www.w3.org/2000/svg" xmlns:xlink="http://www.w3.org/1999/xlink" viewBox="0 0 46.39 150"><defs><style>.cls-1{fill:#e8e8e8;}.cls-2{fill:url(#未命名的渐变_105);}.cls-3{fill:#b6b7b7;}.cls-4{fill:url(#未命名的渐变_105-2);}.cls-5{fill:url(#未命名的渐变_105-3);}.cls-6{fill:url(#未命名的渐变_105-4);}.cls-7{fill:url(#未命名的渐变_105-5);}.cls-8{fill:url(#未命名的渐变_105-6);}.cls-9{fill:url(#未命名的渐变_105-7);}.cls-10{fill:url(#未命名的渐变_105-8);}.cls-11{fill:url(#未命名的渐变_105-9);}.cls-12{fill:url(#未命名的渐变_105-10);}.cls-13{fill:#585656;}.cls-14{fill:url(#未命名的渐变_105-11);}.cls-15{fill:url(#未命名的渐变_105-12);}.cls-16{fill:url(#未命名的渐变_105-13);}</style><linearGradient id="未命名的渐变_105" x1="1.93" y1="36.66" x2="4.46" y2="36.66" gradientUnits="userSpaceOnUse"><stop offset="0" stop-color="#e2e2e2"/><stop offset="0.03" stop-color="#d0d0d0"/><stop offset="0.06" stop-color="#bcbcbc"/><stop offset="0.09" stop-color="#b5b5b5"/><stop offset="0.49" stop-color="#f6f6f6"/><stop offset="0.63" stop-color="#f3f3f3"/><stop offset="0.73" stop-color="#eaeaea"/><stop offset="0.82" stop-color="#dbdbdb"/><stop offset="0.9" stop-color="#c6c6c6"/><stop offset="0.97" stop-color="#aaa"/><stop offset="1" stop-color="#9b9b9b"/></linearGradient><linearGradient id="未命名的渐变_105-2" x1="1.93" y1="48.81" x2="4.46" y2="48.81" xlink:href="#未命名的渐变_105"/><linearGradient id="未命名的渐变_105-3" x1="1.93" y1="60.96" x2="4.46" y2="60.96" xlink:href="#未命名的渐变_105"/><linearGradient id="未命名的渐变_105-4" x1="1.93" y1="73.11" x2="4.46" y2="73.11" xlink:href="#未命名的渐变_105"/><linearGradient id="未命名的渐变_105-5" x1="1.93" y1="85.26" x2="4.46" y2="85.26" xlink:href="#未命名的渐变_105"/><linearGradient id="未命名的渐变_105-6" x1="42.45" y1="36.66" x2="44.99" y2="36.66" xlink:href="#未命名的渐变_105"/><linearGradient id="未命名的渐变_105-7" x1="42.45" y1="48.81" x2="44.99" y2="48.81" xlink:href="#未命名的渐变_105"/><linearGradient id="未命名的渐变_105-8" x1="42.45" y1="60.96" x2="44.99" y2="60.96" xlink:href="#未命名的渐变_105"/><linearGradient id="未命名的渐变_105-9" x1="42.45" y1="73.11" x2="44.99" y2="73.11" xlink:href="#未命名的渐变_105"/><linearGradient id="未命名的渐变_105-10" x1="42.45" y1="85.26" x2="44.99" y2="85.26" xlink:href="#未命名的渐变_105"/><linearGradient id="未命名的渐变_105-11" x1="15.46" y1="119.09" x2="31.91" y2="119.09" xlink:href="#未命名的渐变_105"/><linearGradient id="未命名的渐变_105-12" x1="12.14" y1="119.09" x2="15.46" y2="119.09" xlink:href="#未命名的渐变_105"/><linearGradient id="未命名的渐变_105-13" x1="31.91" y1="119.09" x2="35.23" y2="119.09" xlink:href="#未命名的渐变_105"/></defs><title>Flow gate（流量闸门）</title><g id="图层_2" data-name="图层 2"><g id="图层_125" data-name="图层 125"><g id="Flow_gate_流量闸门_" data-name="Flow gate（流量闸门）"><rect class="cls-1" y="33.79" width="46.39" height="54.11"/><path class="cls-1" d="M3.92,0V33.79h39V0Zm35.5,30.79h-32V3h32Z"/><circle class="cls-2" cx="3.2" cy="36.66" r="1.27"/><rect class="cls-3" x="2.94" y="35.74" width="0.51" height="1.84" transform="translate(8.5 0.25) rotate(13.27)"/><circle class="cls-4" cx="3.2" cy="48.81" r="1.27"/><rect class="cls-3" x="2.94" y="47.89" width="0.51" height="1.84" transform="translate(11.29 0.57) rotate(13.27)"/><circle class="cls-5" cx="3.2" cy="60.96" r="1.27"/><rect class="cls-3" x="2.94" y="60.04" width="0.51" height="1.84" transform="translate(14.07 0.89) rotate(13.27)"/><circle class="cls-6" cx="3.2" cy="73.11" r="1.27"/><rect class="cls-3" x="2.94" y="72.19" width="0.51" height="1.84" transform="translate(16.86 1.22) rotate(13.27)"/><circle class="cls-7" cx="3.2" cy="85.26" r="1.27"/><rect class="cls-3" x="2.94" y="84.34" width="0.51" height="1.84" transform="translate(19.65 1.54) rotate(13.27)"/><circle class="cls-8" cx="43.72" cy="36.66" r="1.27"/><rect class="cls-3" x="43.47" y="35.74" width="0.51" height="1.84" transform="translate(9.58 -9.05) rotate(13.27)"/><circle class="cls-9" cx="43.72" cy="48.81" r="1.27"/><rect class="cls-3" x="43.47" y="47.89" width="0.51" height="1.84" transform="translate(12.37 -8.73) rotate(13.27)"/><circle class="cls-10" cx="43.72" cy="60.96" r="1.27"/><rect class="cls-3" x="43.47" y="60.04" width="0.51" height="1.84" transform="translate(15.16 -8.41) rotate(13.27)"/><circle class="cls-11" cx="43.72" cy="73.11" r="1.27"/><rect class="cls-3" x="43.47" y="72.19" width="0.51" height="1.84" transform="translate(17.94 -8.08) rotate(13.27)"/><circle class="cls-12" cx="43.72" cy="85.26" r="1.27"/><rect class="cls-3" x="43.47" y="84.34" width="0.51" height="1.84" transform="translate(20.73 -7.76) rotate(13.27)"/><rect class="cls-13" x="8.7" y="87.9" width="29.35" height="2.27"/><rect class="cls-13" x="12.14" y="145.43" width="22.97" height="4.57"/><rect class="cls-14" x="15.46" y="92.74" width="16.46" height="52.69"/><rect class="cls-15" x="12.14" y="92.74" width="3.32" height="52.69"/><rect class="cls-16" x="31.91" y="92.74" width="3.32" height="52.69"/></g></g></g></svg>