<svg xmlns="http://www.w3.org/2000/svg" xmlns:xlink="http://www.w3.org/1999/xlink" viewBox="0 0 77.09 150.31"><defs><style>.cls-1{fill:#dbdbdb;}.cls-2{fill:url(#未命名的渐变_105);}.cls-3{fill:url(#未命名的渐变_105-2);}.cls-4{fill:url(#未命名的渐变_105-3);}.cls-5{fill:#a3a4a4;}.cls-6{fill:url(#未命名的渐变_105-4);}.cls-7{fill:url(#未命名的渐变_105-5);}.cls-8{fill:url(#未命名的渐变_105-6);}.cls-9{fill:url(#未命名的渐变_105-7);}.cls-10{fill:url(#未命名的渐变_105-8);}.cls-11{fill:url(#未命名的渐变_105-9);}.cls-12{fill:url(#未命名的渐变_105-10);}.cls-13{fill:url(#未命名的渐变_105-11);}.cls-14{fill:url(#未命名的渐变_105-12);}.cls-15{fill:url(#未命名的渐变_105-13);}.cls-16{fill:url(#未命名的渐变_105-14);}.cls-17{fill:url(#未命名的渐变_105-15);}.cls-18{fill:url(#未命名的渐变_105-16);}.cls-19{fill:url(#未命名的渐变_105-17);}.cls-20{fill:url(#未命名的渐变_105-18);}</style><linearGradient id="未命名的渐变_105" x1="21.21" y1="19.57" x2="55.72" y2="19.57" gradientUnits="userSpaceOnUse"><stop offset="0" stop-color="#e2e2e2"/><stop offset="0.03" stop-color="#d0d0d0"/><stop offset="0.06" stop-color="#bcbcbc"/><stop offset="0.09" stop-color="#b5b5b5"/><stop offset="0.49" stop-color="#f6f6f6"/><stop offset="0.63" stop-color="#f3f3f3"/><stop offset="0.73" stop-color="#eaeaea"/><stop offset="0.82" stop-color="#dbdbdb"/><stop offset="0.9" stop-color="#c6c6c6"/><stop offset="0.97" stop-color="#aaa"/><stop offset="1" stop-color="#9b9b9b"/></linearGradient><linearGradient id="未命名的渐变_105-2" x1="29.59" y1="9.43" x2="47.1" y2="9.43" xlink:href="#未命名的渐变_105"/><linearGradient id="未命名的渐变_105-3" x1="23.6" y1="3.48" x2="53.39" y2="3.48" xlink:href="#未命名的渐变_105"/><linearGradient id="未命名的渐变_105-4" x1="25.88" y1="3.49" x2="26.85" y2="3.49" xlink:href="#未命名的渐变_105"/><linearGradient id="未命名的渐变_105-5" x1="28.11" y1="3.49" x2="29.08" y2="3.49" xlink:href="#未命名的渐变_105"/><linearGradient id="未命名的渐变_105-6" x1="30.34" y1="3.49" x2="31.31" y2="3.49" xlink:href="#未命名的渐变_105"/><linearGradient id="未命名的渐变_105-7" x1="32.57" y1="3.49" x2="33.54" y2="3.49" xlink:href="#未命名的渐变_105"/><linearGradient id="未命名的渐变_105-8" x1="36.12" y1="58.15" x2="40.86" y2="58.15" xlink:href="#未命名的渐变_105"/><linearGradient id="未命名的渐变_105-9" x1="34.8" y1="3.49" x2="35.77" y2="3.49" xlink:href="#未命名的渐变_105"/><linearGradient id="未命名的渐变_105-10" x1="37.03" y1="3.49" x2="38" y2="3.49" xlink:href="#未命名的渐变_105"/><linearGradient id="未命名的渐变_105-11" x1="39.27" y1="3.49" x2="40.24" y2="3.49" xlink:href="#未命名的渐变_105"/><linearGradient id="未命名的渐变_105-12" x1="41.5" y1="3.49" x2="42.47" y2="3.49" xlink:href="#未命名的渐变_105"/><linearGradient id="未命名的渐变_105-13" x1="43.73" y1="3.49" x2="44.7" y2="3.49" xlink:href="#未命名的渐变_105"/><linearGradient id="未命名的渐变_105-14" x1="45.96" y1="3.49" x2="46.93" y2="3.49" xlink:href="#未命名的渐变_105"/><linearGradient id="未命名的渐变_105-15" x1="48.19" y1="3.49" x2="49.16" y2="3.49" xlink:href="#未命名的渐变_105"/><linearGradient id="未命名的渐变_105-16" x1="50.42" y1="3.49" x2="51.39" y2="3.49" xlink:href="#未命名的渐变_105"/><linearGradient id="未命名的渐变_105-17" x1="52.65" y1="3.49" x2="53.62" y2="3.49" xlink:href="#未命名的渐变_105"/><linearGradient id="未命名的渐变_105-18" x1="23.44" y1="3.49" x2="24.41" y2="3.49" xlink:href="#未命名的渐变_105"/></defs><title>Motorized flow gate (closed)（电动闸门（关））</title><g id="图层_2" data-name="图层 2"><g id="图层_125" data-name="图层 125"><g id="Motorized_flow_gate_closed_电动闸门_关_" data-name="Motorized flow gate (closed)（电动闸门（关））"><rect class="cls-1" x="12.45" y="12.65" width="51.99" height="13.04"/><rect class="cls-2" x="21.21" y="14.2" width="34.51" height="10.75"/><rect class="cls-3" x="29.59" y="6.21" width="17.51" height="6.44"/><rect class="cls-4" x="23.6" y="0.54" width="29.79" height="5.87"/><path class="cls-1" d="M0,26.41v123.9H77.09V26.41ZM73.14,146.23H3.34v-116h69.8Z"/><rect class="cls-1" x="4.97" y="87.06" width="67.01" height="57.89"/><rect class="cls-5" x="3.34" y="85.49" width="69.8" height="60.74"/><rect class="cls-1" x="4.97" y="87.06" width="67.01" height="57.89"/><rect class="cls-5" x="12.45" y="25.68" width="51.99" height="0.73"/><rect class="cls-6" x="25.88" width="0.97" height="6.98"/><rect class="cls-7" x="28.11" width="0.97" height="6.98"/><rect class="cls-8" x="30.34" width="0.97" height="6.98"/><rect class="cls-9" x="32.57" width="0.97" height="6.98"/><rect class="cls-10" x="36.12" y="30.24" width="4.73" height="55.81"/><rect class="cls-11" x="34.8" width="0.97" height="6.98"/><rect class="cls-12" x="37.03" width="0.97" height="6.98"/><rect class="cls-13" x="39.27" width="0.97" height="6.98"/><rect class="cls-14" x="41.5" width="0.97" height="6.98"/><rect class="cls-15" x="43.73" width="0.97" height="6.98"/><rect class="cls-16" x="45.96" width="0.97" height="6.98"/><rect class="cls-17" x="48.19" width="0.97" height="6.98"/><rect class="cls-18" x="50.42" width="0.97" height="6.98"/><rect class="cls-19" x="52.65" width="0.97" height="6.98"/><rect class="cls-20" x="23.44" width="0.97" height="6.98"/></g></g></g></svg>