<svg xmlns="http://www.w3.org/2000/svg" xmlns:xlink="http://www.w3.org/1999/xlink" viewBox="0 0 129.52 150"><defs><style>.cls-1{fill:none;}.cls-2{clip-path:url(#clip-path);}.cls-3{fill:url(#未命名的渐变_105);}.cls-4{fill:url(#未命名的渐变_105-2);}.cls-5{fill:url(#未命名的渐变_105-3);}.cls-6{fill:url(#未命名的渐变_105-4);}.cls-7{fill:url(#未命名的渐变_105-5);}.cls-8{fill:url(#未命名的渐变_105-6);}.cls-9{fill:url(#未命名的渐变_105-7);}.cls-10{fill:url(#未命名的渐变_105-8);}.cls-11{fill:url(#未命名的渐变_105-9);}.cls-12{fill:url(#未命名的渐变_105-10);}.cls-13{fill:url(#未命名的渐变_105-11);}.cls-14{fill:url(#未命名的渐变_105-12);}.cls-15{fill:url(#未命名的渐变_105-13);}.cls-16{fill:url(#未命名的渐变_105-14);}.cls-17{fill:url(#未命名的渐变_105-15);}.cls-18{fill:url(#未命名的渐变_105-16);}.cls-19{fill:url(#未命名的渐变_105-17);}.cls-20{fill:url(#未命名的渐变_105-18);}.cls-21{fill:url(#未命名的渐变_105-19);}.cls-22{fill:url(#未命名的渐变_105-20);}.cls-23{fill:url(#未命名的渐变_105-21);}.cls-24{fill:url(#未命名的渐变_105-22);}.cls-25{fill:url(#未命名的渐变_105-23);}.cls-26{fill:url(#未命名的渐变_105-24);}.cls-27{fill:#dbdbdb;}</style><clipPath id="clip-path"><rect class="cls-1" x="3.87" y="4.01" width="121.83" height="143.03"/></clipPath><linearGradient id="未命名的渐变_105" x1="1277.62" y1="-1083.09" x2="1277.62" y2="-1080.65" gradientTransform="matrix(2.35, 0, 0, -0.95, -2948.41, -953.03)" gradientUnits="userSpaceOnUse"><stop offset="0" stop-color="#e2e2e2"/><stop offset="0.03" stop-color="#d0d0d0"/><stop offset="0.06" stop-color="#bcbcbc"/><stop offset="0.09" stop-color="#b5b5b5"/><stop offset="0.49" stop-color="#f6f6f6"/><stop offset="0.63" stop-color="#f3f3f3"/><stop offset="0.73" stop-color="#eaeaea"/><stop offset="0.82" stop-color="#dbdbdb"/><stop offset="0.9" stop-color="#c6c6c6"/><stop offset="0.97" stop-color="#aaa"/><stop offset="1" stop-color="#9b9b9b"/></linearGradient><linearGradient id="未命名的渐变_105-2" x1="1277.62" y1="-1159.95" x2="1277.62" y2="-1157.51" gradientTransform="matrix(2.35, 0, 0, -0.95, -2999.8, -1077.11)" xlink:href="#未命名的渐变_105"/><linearGradient id="未命名的渐变_105-3" x1="1281" y1="-1144.51" x2="1281" y2="-1142.07" gradientTransform="matrix(2.35, 0, 0, -0.95, -3003.06, -1046.56)" xlink:href="#未命名的渐变_105"/><linearGradient id="未命名的渐变_105-4" x1="1284.38" y1="-1129.08" x2="1284.38" y2="-1126.64" gradientTransform="matrix(2.35, 0, 0, -0.95, -3006.32, -1016.02)" xlink:href="#未命名的渐变_105"/><linearGradient id="未命名的渐变_105-5" x1="1287.76" y1="-1113.64" x2="1287.76" y2="-1111.2" gradientTransform="matrix(2.35, 0, 0, -0.95, -3009.58, -985.47)" xlink:href="#未命名的渐变_105"/><linearGradient id="未命名的渐变_105-6" x1="1283.34" y1="-1098.21" x2="1283.34" y2="-1095.77" gradientTransform="matrix(2.35, 0, 0, -0.95, -2981.5, -967.91)" xlink:href="#未命名的渐变_105"/><linearGradient id="未命名的渐变_105-7" x1="1283.34" y1="-1067.33" x2="1283.34" y2="-1064.9" gradientTransform="matrix(2.35, 0, 0, -0.95, -2960.85, -918.07)" xlink:href="#未命名的渐变_105"/><linearGradient id="未命名的渐变_105-8" x1="1290" y1="-1051.9" x2="1290" y2="-1049.46" gradientTransform="matrix(2.35, 0, 0, -0.95, -2977.28, -882.08)" xlink:href="#未命名的渐变_105"/><linearGradient id="未命名的渐变_105-9" x1="1295.75" y1="-1036.46" x2="1295.75" y2="-1034.03" gradientTransform="matrix(2.35, 0, 0, -0.95, -2990.05, -847.59)" xlink:href="#未命名的渐变_105"/><linearGradient id="未命名的渐变_105-10" x1="1300.05" y1="-1021.03" x2="1300.05" y2="-1018.59" gradientTransform="matrix(2.35, 0, 0, -0.95, -2997.02, -815.51)" xlink:href="#未命名的渐变_105"/><linearGradient id="未命名的渐变_105-11" x1="1303.33" y1="-1005.59" x2="1303.33" y2="-1003.15" gradientTransform="matrix(2.35, 0, 0, -0.95, -2999.85, -785.15)" xlink:href="#未命名的渐变_105"/><linearGradient id="未命名的渐变_105-12" x1="1309.53" y1="-990.16" x2="1309.53" y2="-987.72" gradientTransform="matrix(2.35, 0, 0, -0.95, -3014.45, -749.91)" xlink:href="#未命名的渐变_105"/><linearGradient id="未命名的渐变_105-13" x1="722.86" y1="298.24" x2="722.86" y2="300.67" gradientTransform="translate(-1629.62 -212.64) scale(2.35 0.95)" xlink:href="#未命名的渐变_105"/><linearGradient id="未命名的渐变_105-14" x1="710.48" y1="221.38" x2="710.48" y2="223.82" gradientTransform="translate(-1569.69 -211.96) scale(2.35 0.95)" xlink:href="#未命名的渐变_105"/><linearGradient id="未命名的渐变_105-15" x1="713.86" y1="236.82" x2="713.86" y2="239.25" gradientTransform="translate(-1582.34 -210.61) scale(2.35 0.95)" xlink:href="#未命名的渐变_105"/><linearGradient id="未命名的渐变_105-16" x1="717.24" y1="252.25" x2="717.24" y2="254.69" gradientTransform="translate(-1594.99 -209.26) scale(2.35 0.95)" xlink:href="#未命名的渐变_105"/><linearGradient id="未命名的渐变_105-17" x1="720.62" y1="267.69" x2="720.62" y2="270.12" gradientTransform="translate(-1607.65 -207.9) scale(2.35 0.95)" xlink:href="#未命名的渐变_105"/><linearGradient id="未命名的渐变_105-18" x1="716.2" y1="283.12" x2="716.2" y2="285.56" gradientTransform="translate(-1614.92 -219.54) scale(2.35 0.95)" xlink:href="#未命名的渐变_105"/><linearGradient id="未命名的渐变_105-19" x1="722.86" y1="313.99" x2="722.86" y2="316.43" gradientTransform="translate(-1640.15 -217.01) scale(2.35 0.95)" xlink:href="#未命名的渐变_105"/><linearGradient id="未命名的渐变_105-20" x1="722.86" y1="329.43" x2="722.86" y2="331.87" gradientTransform="translate(-1650.48 -221.28) scale(2.35 0.95)" xlink:href="#未命名的渐变_105"/><linearGradient id="未命名的渐变_105-21" x1="728.6" y1="344.86" x2="728.6" y2="347.3" gradientTransform="translate(-1664.76 -216) scale(2.35 0.95)" xlink:href="#未命名的渐变_105"/><linearGradient id="未命名的渐变_105-22" x1="732.91" y1="360.3" x2="732.91" y2="362.74" gradientTransform="translate(-1678.05 -213.11) scale(2.35 0.95)" xlink:href="#未命名的渐变_105"/><linearGradient id="未命名的渐变_105-23" x1="744.29" y1="375.74" x2="744.29" y2="378.17" gradientTransform="translate(-1696.21 -198.45) scale(2.35 0.95)" xlink:href="#未命名的渐变_105"/><linearGradient id="未命名的渐变_105-24" x1="727.32" y1="391.88" x2="727.32" y2="394.32" gradientTransform="translate(-1695.31 -231.16) scale(2.35 0.95)" xlink:href="#未命名的渐变_105"/></defs><title>Screen（屏幕）</title><g id="Screen_屏幕_" data-name="Screen（屏幕）"><g class="cls-2"><rect class="cls-3" x="-39.55" y="68.91" width="195.85" height="2.31" transform="translate(149.19 78.32) rotate(135)"/><rect class="cls-4" x="-90.94" y="17.51" width="195.85" height="2.31" transform="translate(25.12 26.93) rotate(135)"/><rect class="cls-5" x="-86.25" y="33.46" width="195.85" height="2.31" transform="translate(44.41 50.83) rotate(135)"/><rect class="cls-6" x="-81.55" y="49.41" width="195.85" height="2.31" transform="translate(63.7 74.74) rotate(135)"/><rect class="cls-7" x="-76.86" y="65.36" width="195.85" height="2.31" transform="translate(83 98.64) rotate(135)"/><rect class="cls-8" x="-59.18" y="68.32" width="195.85" height="2.31" transform="translate(115.27 91.2) rotate(135)"/><rect class="cls-9" x="-38.54" y="88.96" width="195.85" height="2.31" transform="translate(165.11 111.84) rotate(135)"/><rect class="cls-10" x="-39.29" y="110.37" width="195.85" height="2.31" transform="translate(178.95 148.92) rotate(135)"/><rect class="cls-11" x="-38.54" y="130.25" width="195.85" height="2.31" transform="translate(194.3 182.32) rotate(135)"/><rect class="cls-12" x="-35.38" y="147.74" width="195.85" height="2.31" transform="translate(212.06 209.94) rotate(135)"/><rect class="cls-13" x="-30.5" y="163.5" width="195.85" height="2.31" transform="translate(231.53 233.41) rotate(135)"/><rect class="cls-14" x="-30.5" y="184.15" width="195.85" height="2.31" transform="translate(246.13 268.65) rotate(135)"/><rect class="cls-15" x="-26.36" y="69.39" width="195.85" height="2.31" transform="translate(70.84 -29.95) rotate(45)"/><rect class="cls-16" x="4.43" y="-2.6" width="195.85" height="2.31" transform="translate(28.95 -72.8) rotate(45)"/><rect class="cls-17" x="-0.26" y="13.34" width="195.85" height="2.31" transform="translate(38.86 -64.81) rotate(45)"/><rect class="cls-18" x="-4.96" y="29.29" width="195.85" height="2.31" transform="translate(48.76 -56.82) rotate(45)"/><rect class="cls-19" x="-9.65" y="45.24" width="195.85" height="2.31" transform="translate(58.66 -48.83) rotate(45)"/><rect class="cls-20" x="-27.33" y="48.2" width="195.85" height="2.31" transform="translate(55.58 -35.46) rotate(45)"/><rect class="cls-21" x="-36.89" y="79.93" width="195.85" height="2.31" transform="translate(75.21 -19.41) rotate(45)"/><rect class="cls-22" x="-47.22" y="90.25" width="195.85" height="2.31" transform="translate(79.48 -9.09) rotate(45)"/><rect class="cls-23" x="-47.97" y="110.13" width="195.85" height="2.31" transform="translate(93.32 -2.73) rotate(45)"/><rect class="cls-24" x="-51.13" y="127.62" width="195.85" height="2.31" transform="translate(104.76 4.63) rotate(45)"/><rect class="cls-25" x="-42.52" y="156.87" width="195.85" height="2.31" transform="translate(127.97 7.11) rotate(45)"/><rect class="cls-26" x="-81.55" y="139.43" width="195.85" height="2.31" transform="translate(104.2 29.6) rotate(45)"/></g><path class="cls-27" d="M0,150V0H129.52V150ZM122.87,4.93H5.61V145.36H122.87Z"/></g></svg>