<svg xmlns="http://www.w3.org/2000/svg" xmlns:xlink="http://www.w3.org/1999/xlink" viewBox="0 0 150 126.68"><defs><style>.cls-1{fill:none;}.cls-2{clip-path:url(#clip-path);}.cls-3{fill:url(#未命名的渐变_105);}.cls-4{fill:url(#未命名的渐变_105-2);}.cls-5{fill:url(#未命名的渐变_105-3);}.cls-6{fill:url(#未命名的渐变_105-4);}.cls-7{clip-path:url(#clip-path-2);}.cls-8{fill:#a58c7a;}.cls-9{fill:#595757;}.cls-10{fill:#e2e2e2;}</style><clipPath id="clip-path"><rect class="cls-1" x="3.87" y="-207.65" width="121.83" height="143.03"/></clipPath><linearGradient id="未命名的渐变_105" x1="1300.05" y1="-1232.69" x2="1300.05" y2="-1230.25" gradientTransform="matrix(2.35, 0, 0, -0.95, -2997.02, -1227.34)" gradientUnits="userSpaceOnUse"><stop offset="0" stop-color="#e2e2e2"/><stop offset="0.03" stop-color="#d0d0d0"/><stop offset="0.06" stop-color="#bcbcbc"/><stop offset="0.09" stop-color="#b5b5b5"/><stop offset="0.49" stop-color="#f6f6f6"/><stop offset="0.63" stop-color="#f3f3f3"/><stop offset="0.73" stop-color="#eaeaea"/><stop offset="0.82" stop-color="#dbdbdb"/><stop offset="0.9" stop-color="#c6c6c6"/><stop offset="0.97" stop-color="#aaa"/><stop offset="1" stop-color="#9b9b9b"/></linearGradient><linearGradient id="未命名的渐变_105-2" x1="1303.33" y1="-1217.25" x2="1303.33" y2="-1214.82" gradientTransform="matrix(2.35, 0, 0, -0.95, -2999.85, -1196.97)" xlink:href="#未命名的渐变_105"/><linearGradient id="未命名的渐变_105-3" x1="1309.53" y1="-1201.82" x2="1309.53" y2="-1199.38" gradientTransform="matrix(2.35, 0, 0, -0.95, -3014.45, -1161.73)" xlink:href="#未命名的渐变_105"/><linearGradient id="未命名的渐变_105-4" x1="744.29" y1="164.07" x2="744.29" y2="166.51" gradientTransform="translate(-1696.21 -209.95) scale(2.35 0.95)" xlink:href="#未命名的渐变_105"/><clipPath id="clip-path-2"><rect class="cls-1" x="8.43" y="11.14" width="138.1" height="93.4"/></clipPath></defs><title>Sludge thickener（污泥浓缩池）</title><g id="Screen_屏幕_" data-name="Screen（屏幕）"><g class="cls-2"><rect class="cls-3" x="-35.38" y="-63.93" width="195.85" height="2.31" transform="translate(62.39 -151.39) rotate(135)"/><rect class="cls-4" x="-30.5" y="-48.16" width="195.85" height="2.31" transform="translate(81.86 -127.92) rotate(135)"/><rect class="cls-5" x="-30.5" y="-27.51" width="195.85" height="2.31" transform="translate(96.46 -92.68) rotate(135)"/><rect class="cls-6" x="-42.52" y="-54.79" width="195.85" height="2.31" transform="translate(-21.7 -54.89) rotate(45)"/></g></g><g id="Sludge_thickener_污泥浓缩池_" data-name="Sludge thickener（污泥浓缩池）"><g class="cls-7"><path class="cls-8" d="M463,93.94,219.11,126.62-13.09,93.94V26S-4.7,11.3,2.49,11.14c4-.09,5.87,7.1,9.67,7.93C19.58,20.7,35,13.8,42.77,14.44,52.36,15.23,67,25.62,76.61,26c8.06.33,22-7.49,30.07-7.27,11.4.31,29.48,13.34,40.82,12.56,7.59-.52,16-11.61,23.63-11.9,6-.23,14.38,7.75,20.41,7.93,7.5.23,19.36-8.06,26.86-8.26,9.09-.24,24.73,8.35,33.83,8.26,9.5-.08,25.45-9.77,34.91-9.25,8.5.46,20,12.3,28.47,11.57,7.16-.62,11.57-13.77,18.8-13.55,4.91.14,6.7,8.81,11.27,9.91,5.89,1.42,18.4-3.5,24.71-3.3,8.18.26,23,5.68,31.15,6.28,15.31,1.12,61.5-3,61.5-3Z"/></g><path class="cls-9" d="M146.53,107.38,75.26,119.17,7.41,107.38V82.89s2.45-5.3,4.55-5.36c1.18,0,1.72,2.56,2.83,2.86,2.17.59,6.66-1.9,8.94-1.67,2.8.29,7.07,4,9.89,4.17,2.35.12,6.43-2.7,8.79-2.62,3.33.11,8.61,4.81,11.92,4.53,2.22-.19,4.68-4.19,6.91-4.29,1.76-.08,4.2,2.79,6,2.86,2.19.08,5.66-2.91,7.85-3,2.65-.09,7.23,3,9.88,3s7.44-3.52,10.2-3.34c2.49.17,5.85,4.44,8.32,4.17,2.1-.22,3.38-5,5.49-4.88,1.44.05,2,3.17,3.3,3.57,1.72.51,5.37-1.26,7.22-1.19,2.39.09,6.72,2,9.1,2.26,4.47.41,18-1.07,18-1.07Z"/><polygon class="cls-10" points="143.92 0.03 143.92 103.3 75.26 119.17 8.43 103.5 8.43 0 0.17 0.11 0.17 107.37 74.54 126.68 150.34 107.37 150.34 0.11 143.92 0.03"/></g></svg>