<svg xmlns="http://www.w3.org/2000/svg" viewBox="0 0 150 52.73"><defs><style>.cls-1{opacity:0.5;}.cls-2{fill:#173440;}.cls-3{fill:#295d73;}.cls-4{opacity:0.2;}.cls-5{fill:#5ac8f7;}.cls-6{fill:#3c86a6;}</style></defs><title>开关-关</title><g id="图层_2" data-name="图层 2"><g id="组件"><g id="开关-关"><g class="cls-1"><rect class="cls-2" x="27.81" y="26.11" width="59.71" height="0.51" transform="translate(6.02 63.16) rotate(-60.03)"/><rect class="cls-2" x="24.54" y="26.11" width="59.71" height="0.51" transform="translate(4.38 60.32) rotate(-60.03)"/><rect class="cls-2" x="21.26" y="26.11" width="59.71" height="0.51" transform="translate(2.74 57.48) rotate(-60.03)"/><rect class="cls-2" x="17.98" y="26.11" width="59.71" height="0.51" transform="translate(1.1 54.64) rotate(-60.03)"/><rect class="cls-2" x="14.7" y="26.11" width="59.71" height="0.51" transform="translate(-0.54 51.79) rotate(-60.03)"/><rect class="cls-2" x="11.42" y="26.11" width="59.71" height="0.51" transform="translate(-2.18 48.95) rotate(-60.03)"/><rect class="cls-2" x="8.14" y="26.11" width="59.71" height="0.51" transform="translate(-3.82 46.11) rotate(-60.03)"/><rect class="cls-2" x="4.86" y="26.11" width="59.71" height="0.51" transform="translate(-5.47 43.27) rotate(-60.03)"/><rect class="cls-2" x="1.58" y="26.11" width="59.71" height="0.51" transform="translate(-7.11 40.43) rotate(-60.03)"/><rect class="cls-2" x="-1.7" y="26.11" width="59.71" height="0.51" transform="translate(-8.75 37.59) rotate(-60.03)"/><rect class="cls-2" x="-4.98" y="26.11" width="59.71" height="0.51" transform="translate(-10.39 34.75) rotate(-60.03)"/><rect class="cls-2" x="-7.17" y="25.49" width="58.26" height="0.51" transform="translate(-11.31 31.91) rotate(-60.03)"/><rect class="cls-2" x="-8.65" y="24.45" width="55.87" height="0.51" transform="translate(-11.75 29.07) rotate(-60.03)"/><rect class="cls-2" x="-10.13" y="23.41" width="53.46" height="0.51" transform="translate(-12.19 26.22) rotate(-60.03)"/><rect class="cls-2" x="-11.61" y="22.37" width="51.07" height="0.51" transform="translate(-12.63 23.38) rotate(-60.03)"/><rect class="cls-2" x="-10.95" y="20.09" width="45.81" height="0.51" transform="translate(-11.64 20.54) rotate(-60.03)"/><rect class="cls-2" x="-9.31" y="17.25" width="39.25" height="0.51" transform="translate(-10 17.7) rotate(-60.03)"/><rect class="cls-2" x="-7.67" y="14.41" width="32.68" height="0.51" transform="translate(-8.36 14.86) rotate(-60.03)"/><rect class="cls-2" x="-6.03" y="11.57" width="26.14" height="0.51" transform="translate(-6.72 12.02) rotate(-60.03)"/><rect class="cls-2" x="-4.5" y="8.93" width="20.03" height="0.51" transform="translate(-5.2 9.37) rotate(-60.03)"/><path class="cls-3" d="M46.89,52.73H8.44L0,44.29V8.44L8.44,0h68.9Zm-38-1H46.3L75.57,1H8.86L1,8.86v35Z"/></g><path class="cls-3" d="M42.25,26.85H36.78v9.92h-2V26.85H28.26A19.29,19.29,0,0,1,27.85,30a10.11,10.11,0,0,1-.92,2.54,11.89,11.89,0,0,1-1.6,2.27,30.69,30.69,0,0,1-2.42,2.37l-1.39-1.37a24.73,24.73,0,0,0,2.23-2.13,10.13,10.13,0,0,0,1.44-2A8.6,8.6,0,0,0,26,29.54a15.5,15.5,0,0,0,.34-2.69H20.64V25.07H26.4V18.2H21.91V16.42H41V18.2H36.78v6.87h5.47Zm-7.42-1.78V18.2h-6.5v6.87Z"/><g class="cls-4"><path class="cls-5" d="M83.05.51h58.3l8.14,8.14V44.08l-8.14,8.14H53.19Z"/></g><path class="cls-6" d="M141.56,52.73H52.31L82.75,0h58.81L150,8.44V44.29Zm-87.49-1h87.07L149,43.87v-35L141.14,1H83.34Z"/><path class="cls-5" d="M109.47,27.44A9.88,9.88,0,0,0,112.91,32a18.79,18.79,0,0,0,6.33,2.95l-1,1.88a22.45,22.45,0,0,1-3.05-1.15,17.55,17.55,0,0,1-2.8-1.61A14.14,14.14,0,0,1,110.07,32a10.36,10.36,0,0,1-1.7-2.54,11.91,11.91,0,0,1-3.51,4,28,28,0,0,1-6.09,3.37L97.67,35a32.33,32.33,0,0,0,4-1.83,17.42,17.42,0,0,0,2.8-1.88,9,9,0,0,0,1.75-1.92,6.87,6.87,0,0,0,.93-2H98.45V25.61h9V21.18H99.75V19.43h4.91c-.17-.31-.35-.65-.56-1s-.44-.73-.68-1.08-.46-.7-.68-1-.42-.57-.6-.78l1.47-.93c.19.23.42.52.68.87s.52.72.78,1.1l.76,1.12c.24.37.44.69.59,1l-1,.76h4.54a26.6,26.6,0,0,0,1.74-2.4,24.43,24.43,0,0,0,1.41-2.44l1.71.71c-.35.68-.75,1.38-1.19,2.09s-.91,1.38-1.4,2H117v1.75h-7.6l0,4.23v.2h9v1.83Z"/></g></g></g></svg>