<svg xmlns="http://www.w3.org/2000/svg" xmlns:xlink="http://www.w3.org/1999/xlink" viewBox="0 0 150.31 107.95"><defs><style>.cls-1{fill:none;}.cls-2{clip-path:url(#clip-path);}.cls-3{stroke:#3c86a6;stroke-miterlimit:10;fill:url(#未命名的渐变_34);}.cls-4,.cls-6{fill:#5ac8f7;}.cls-5{fill:#3c86a6;}.cls-6{opacity:0.4;}</style><clipPath id="clip-path" transform="translate(0.15 0.15)"><path class="cls-1" d="M149.65,5.9V42.38l-5.23,5.21V65.18l5.23,5.26v31.3c-2.16,2.17-3.37,3.39-5.55,5.55H5.9L.35,101.74V5.9C2.51,3.72,3.73,2.51,5.9.35H144.1C146.28,2.51,147.49,3.72,149.65,5.9Z"/></clipPath><linearGradient id="未命名的渐变_34" x1="0.5" y1="53.97" x2="149.81" y2="53.97" gradientUnits="userSpaceOnUse"><stop offset="0.45" stop-color="#5ac8f7" stop-opacity="0.04"/><stop offset="1" stop-color="#5ac8f7" stop-opacity="0.2"/></linearGradient></defs><title>看板4</title><g id="图层_2" data-name="图层 2"><g id="组件"><g id="看板4"><g class="cls-2"><polygon class="cls-3" points="67.69 0.5 0.5 0.5 0.5 107.45 67.69 107.45 149.81 107.45 149.81 0.5 67.69 0.5"/><path class="cls-4" d="M149.65,107.29v0Z" transform="translate(0.15 0.15)"/></g><path class="cls-5" d="M144.25,107.64H5.75l-.1-.1L.1,102l-.1-.1V5.75l.1-.1L5.65.1l.1-.1h138.5l.1.1,5.55,5.55.1.1V42.53l-5.23,5.2V65L150,70.3v31.59l-.1.1-5.55,5.55ZM6,107H144l5.35-5.35v-31l-5.23-5.26V47.45l5.23-5.21V6L144,.69H6L.69,6V101.6Z" transform="translate(0.15 0.15)"/><path class="cls-6" d="M149.65,5.9V21.36H.35V5.9C2.51,3.72,3.73,2.51,5.9.35H144.1C146.28,2.51,147.49,3.72,149.65,5.9Z" transform="translate(0.15 0.15)"/></g></g></g></svg>