<svg xmlns="http://www.w3.org/2000/svg" viewBox="0 0 150 7.94"><defs><style>.cls-1{opacity:0.2;}.cls-2{fill:#5ac8f7;}.cls-3{fill:#3c86a6;}.cls-4{opacity:0.4;}</style></defs><title>看板1</title><g id="图层_2" data-name="图层 2"><g id="组件"><g id="看板1"><g class="cls-1"><path class="cls-2" d="M148.75.07h-16.3l-1.72,3.19H19.27L17.55.07H1.25L.07,1.25V6.73H64.76l.68-1.19h19l.68,1.19h64.79V1.25Z"/></g><path class="cls-3" d="M150,6.8H85.1l-.68-1.18H65.49L64.8,6.8H0V1.22L1.22,0H17.6l1.71,3.18H130.69L132.4,0h16.38L150,1.22ZM85.19,6.66h64.66V1.28L148.72.15H132.49l-1.71,3.18H19.22L17.51.15H1.28L.15,1.28V6.66H64.72l.68-1.19H84.5Z"/><g class="cls-1"><polygon class="cls-2" points="50.39 6.73 33.17 6.73 35.17 3.26 52.39 3.26 50.39 6.73"/></g><g class="cls-1"><polygon class="cls-2" points="99.03 6.73 85.14 6.73 84.46 5.54 65.44 5.54 64.76 6.73 50.87 6.73 52.88 3.26 97.03 3.26 97.03 3.26 99.03 6.73"/></g><g class="cls-1"><polygon class="cls-2" points="32.02 6.73 31.1 6.73 33.1 3.26 34.03 3.26 32.02 6.73"/></g><g class="cls-1"><polygon class="cls-2" points="99.47 6.73 116.69 6.73 114.68 3.26 97.46 3.26 99.47 6.73"/></g><g class="cls-1"><polygon class="cls-2" points="117.83 6.73 118.76 6.73 116.75 3.26 115.83 3.26 117.83 6.73"/></g><rect class="cls-2" x="0.07" y="7.87" width="64.09" height="0.07"/><rect class="cls-2" x="0.07" y="6.88" width="0.32" height="0.59"/><path class="cls-2" d="M.47,7.54H0V6.8H.47ZM.15,7.39H.32V7H.15Z"/><rect class="cls-2" x="0.9" y="6.88" width="0.15" height="0.59"/><rect class="cls-2" x="0.82" y="6.8" width="0.29" height="0.73"/><rect class="cls-2" x="26.75" y="6.88" width="0.32" height="0.59"/><path class="cls-2" d="M27.15,7.54h-.47V6.8h.47Zm-.32-.15H27V7h-.17Z"/><g class="cls-4"><polygon class="cls-2" points="24.54 7.46 3.45 7.46 3.79 6.88 24.88 6.88 24.54 7.46"/></g><rect class="cls-2" x="27.58" y="6.88" width="0.15" height="0.59"/><rect class="cls-2" x="27.5" y="6.8" width="0.29" height="0.73"/><rect class="cls-2" x="49.66" y="6.88" width="0.32" height="0.59"/><path class="cls-2" d="M50.06,7.54h-.47V6.8h.47Zm-.32-.15h.17V7h-.17Z"/><rect class="cls-2" x="50.48" y="6.88" width="0.15" height="0.59"/><rect class="cls-2" x="50.41" y="6.8" width="0.29" height="0.73"/><rect class="cls-2" x="64.58" y="6.88" width="0.15" height="0.59"/><rect class="cls-2" x="64.51" y="6.8" width="0.29" height="0.73"/><rect class="cls-2" x="85.83" y="7.87" width="64.09" height="0.07"/><rect class="cls-2" x="149.6" y="6.88" width="0.32" height="0.59" transform="translate(299.53 14.34) rotate(-180)"/><path class="cls-2" d="M150,7.54h-.47V6.8H150Zm-.32-.15h.17V7h-.17Z"/><rect class="cls-2" x="148.96" y="6.88" width="0.15" height="0.59" transform="translate(298.06 14.34) rotate(-180)"/><rect class="cls-2" x="148.88" y="6.8" width="0.29" height="0.73"/><rect class="cls-2" x="122.92" y="6.88" width="0.32" height="0.59" transform="translate(246.17 14.34) rotate(-180)"/><path class="cls-2" d="M123.32,7.54h-.47V6.8h.47ZM123,7.39h.17V7H123Z"/><g class="cls-4"><polygon class="cls-2" points="125.12 7.46 146.21 7.46 146.55 6.88 125.46 6.88 125.12 7.46"/></g><rect class="cls-2" x="122.28" y="6.88" width="0.15" height="0.59" transform="translate(244.7 14.34) rotate(-180)"/><rect class="cls-2" x="122.2" y="6.8" width="0.29" height="0.73"/><rect class="cls-2" x="100.02" y="6.88" width="0.32" height="0.59" transform="translate(200.35 14.34) rotate(-180)"/><path class="cls-2" d="M100.41,7.54h-.47V6.8h.47Zm-.32-.15h.17V7h-.17Z"/><rect class="cls-2" x="99.37" y="6.88" width="0.15" height="0.59" transform="translate(198.88 14.34) rotate(-180)"/><rect class="cls-2" x="99.3" y="6.8" width="0.29" height="0.73"/><rect class="cls-2" x="85.27" y="6.88" width="0.15" height="0.59" transform="translate(170.69 14.34) rotate(-180)"/><rect class="cls-2" x="85.2" y="6.8" width="0.29" height="0.73"/></g></g></g></svg>