<svg xmlns="http://www.w3.org/2000/svg" xmlns:xlink="http://www.w3.org/1999/xlink" viewBox="0 0 150.79 26.06"><defs><style>.cls-1{fill:none;}.cls-2{clip-path:url(#clip-path);}.cls-3{stroke:#3c86a6;stroke-miterlimit:10;fill:url(#未命名的渐变_34);}.cls-4,.cls-6{fill:#5ac8f7;}.cls-5{fill:#3c86a6;}.cls-6{opacity:0.4;}</style><clipPath id="clip-path" transform="translate(0.37)"><path class="cls-1" d="M148.75,25.56H1.31L.13,24.39V2.47L1.31,1.29H35.44l.68,1.19h77.72l.69-1.19h34.22l1.18,1.18V24.39Z"/></clipPath><linearGradient id="未命名的渐变_34" x1="0.5" y1="13.43" x2="150.29" y2="13.43" gradientUnits="userSpaceOnUse"><stop offset="0.45" stop-color="#5ac8f7" stop-opacity="0.04"/><stop offset="1" stop-color="#5ac8f7" stop-opacity="0.2"/></linearGradient></defs><title>看板9</title><g id="图层_2" data-name="图层 2"><g id="组件"><g id="看板9"><g class="cls-2"><polygon class="cls-3" points="67.91 1.29 0.5 1.29 0.5 25.56 67.91 25.56 150.29 25.56 150.29 1.29 67.91 1.29"/><path class="cls-4" d="M149.93,25.56v0Z" transform="translate(0.37)"/></g><path class="cls-5" d="M148.78,25.63H1.28L.06,24.42v-22L1.28,1.22h34.2l.68,1.19H113.8l.68-1.19h34.3L150,2.44v22ZM1.34,25.49H148.72l1.13-1.13V2.5l-1.13-1.14H114.57l-.69,1.19H36.08l-.69-1.19h-34L.21,2.5V24.36Z" transform="translate(0.37)"/><rect class="cls-4" x="0.37" width="0.59" height="0.59"/><rect class="cls-4" x="1.25" width="0.29" height="0.59"/><rect class="cls-4" x="22.38" width="0.59" height="0.59"/><rect class="cls-4" x="23.27" width="0.29" height="0.59"/><rect class="cls-4" x="91.73" width="0.59" height="0.59"/><rect class="cls-4" x="92.61" width="0.29" height="0.59"/><rect class="cls-4" x="57.22" width="0.59" height="0.59" transform="translate(115.39 0.59) rotate(-180)"/><rect class="cls-4" x="56.63" width="0.29" height="0.59" transform="translate(113.93 0.59) rotate(-180)"/><polygon class="cls-6" points="20.14 0.59 3.87 0.59 4.21 0 20.48 0 20.14 0.59"/><polygon class="cls-6" points="75.88 0 73.99 0 59.61 0 59.95 0.59 73.65 0.59 76.22 0.59 89.92 0.59 90.26 0 75.88 0"/><rect class="cls-4" x="127.1" width="0.59" height="0.59"/><rect class="cls-4" x="127.98" width="0.29" height="0.59"/><rect class="cls-4" x="149.12" width="0.59" height="0.59"/><rect class="cls-4" x="150" width="0.29" height="0.59"/><polygon class="cls-6" points="146.88 0.59 130.61 0.59 130.95 0 147.22 0 146.88 0.59"/></g></g></g></svg>