<svg xmlns="http://www.w3.org/2000/svg" xmlns:xlink="http://www.w3.org/1999/xlink" viewBox="0 0 150.52 150"><defs><style>.cls-1{fill:none;}.cls-2{clip-path:url(#clip-path);}.cls-3{fill:url(#未命名的渐变_34);}.cls-4{fill:#3c86a6;}.cls-5{fill:#5ac8f7;}</style><clipPath id="clip-path" transform="translate(0.26)"><rect class="cls-1" x="0.74" y="2.14" width="148.52" height="145.63"/></clipPath><linearGradient id="未命名的渐变_34" x1="0.5" y1="74.96" x2="150.02" y2="74.96" gradientUnits="userSpaceOnUse"><stop offset="0.45" stop-color="#5ac8f7" stop-opacity="0.04"/><stop offset="1" stop-color="#5ac8f7" stop-opacity="0.2"/></linearGradient></defs><title>看板7</title><g id="图层_2" data-name="图层 2"><g id="组件"><g id="看板7"><g class="cls-2"><rect class="cls-3" x="0.5" y="1.64" width="149.52" height="146.63"/><path class="cls-4" d="M149.25,2.14V147.77H.74V2.14H149.25m1-1H-.26V148.77H150.25V1.14Z" transform="translate(0.26)"/><path class="cls-5" d="M149.25,147.77v0Z" transform="translate(0.26)"/></g><path class="cls-4" d="M148.54,2.85V147.07H1.45V2.85H148.54M150,1.44H0v147H150V1.44Z" transform="translate(0.26)"/><polygon class="cls-5" points="32.56 2.85 0.26 2.85 0.26 0 30.89 0 32.56 2.85"/><polygon class="cls-5" points="1.72 0 1.72 32.52 0.26 31.69 0.26 0 1.72 0"/><polygon class="cls-5" points="1.72 23.21 1.72 40.75 0.99 40.34 0.99 22.8 1.72 23.21"/><polygon class="cls-5" points="117.96 2.85 150.26 2.85 150.26 0 119.64 0 117.96 2.85"/><polygon class="cls-5" points="148.81 0 148.81 32.52 150.26 31.69 150.26 0 148.81 0"/><polygon class="cls-5" points="148.81 23.21 148.81 40.75 149.54 40.34 149.54 22.8 148.81 23.21"/><polygon class="cls-5" points="32.56 147.15 0.26 147.15 0.26 150 30.89 150 32.56 147.15"/><polygon class="cls-5" points="1.72 150 1.72 117.48 0.26 118.31 0.26 150 1.72 150"/><polygon class="cls-5" points="1.72 126.78 1.72 109.25 0.99 109.66 0.99 127.2 1.72 126.78"/><polygon class="cls-5" points="117.96 147.15 150.26 147.15 150.26 150 119.64 150 117.96 147.15"/><polygon class="cls-5" points="148.81 150 148.81 117.48 150.26 118.31 150.26 150 148.81 150"/><polygon class="cls-5" points="148.81 126.78 148.81 109.25 149.54 109.66 149.54 127.2 148.81 126.78"/></g></g></g></svg>