<svg xmlns="http://www.w3.org/2000/svg" viewBox="0 0 150 97.22"><defs><style>.cls-1{fill:#a63c3c;}.cls-2{fill:#f75a5a;}</style></defs><title>警告</title><g id="图层_2" data-name="图层 2"><g id="组件"><g id="警告"><path class="cls-1" d="M150,76.27H0V21H150V34l-6.21,4.84V54.76L150,59.64ZM.82,75.45H149.17V60L143,55.16V38.42l6.2-4.83V21.78H.82Z"/><path class="cls-1" d="M150,21.79H0v-15L2.31,4.51C3.73,3.1,5,1.87,6.7.12L6.82,0H143.17L150,6.83ZM.82,21H149.17V7.17L142.83.82H7.17C5.49,2.51,4.28,3.71,2.89,5.1L.82,7.17Z"/><path class="cls-1" d="M143.17,97.22H6.83L0,90.4v-15H150v15Zm-136-.82H142.83l6.35-6.34V76.27H.83V90.06Z"/><polygon class="cls-2" points="12.16 0.42 0.41 20.76 0.41 14.51 8.55 0.42 12.16 0.42"/><polygon class="cls-2" points="20.54 0.42 8.45 21.37 4.84 21.37 16.94 0.42 20.54 0.42"/><polygon class="cls-2" points="28.92 0.42 16.82 21.37 13.23 21.37 25.33 0.42 28.92 0.42"/><polygon class="cls-2" points="37.31 0.42 25.21 21.37 21.61 21.37 33.7 0.42 37.31 0.42"/><polygon class="cls-2" points="45.7 0.42 33.6 21.37 29.99 21.37 42.09 0.42 45.7 0.42"/><polygon class="cls-2" points="54.08 0.42 41.98 21.37 38.38 21.37 50.48 0.42 54.08 0.42"/><polygon class="cls-2" points="62.46 0.42 50.36 21.37 46.77 21.37 58.87 0.42 62.46 0.42"/><polygon class="cls-2" points="70.85 0.42 58.75 21.37 55.15 21.37 67.24 0.42 70.85 0.42"/><polygon class="cls-2" points="79.23 0.42 67.14 21.37 63.53 21.37 75.63 0.42 79.23 0.42"/><polygon class="cls-2" points="87.61 0.42 75.52 21.37 71.92 21.37 84.02 0.42 87.61 0.42"/><polygon class="cls-2" points="96 0.42 83.9 21.37 80.3 21.37 92.4 0.42 96 0.42"/><polygon class="cls-2" points="104.39 0.42 92.29 21.37 88.68 21.37 100.78 0.42 104.39 0.42"/><polygon class="cls-2" points="112.77 0.42 100.67 21.37 97.07 21.37 109.17 0.42 112.77 0.42"/><polygon class="cls-2" points="121.15 0.42 109.06 21.37 105.46 21.37 117.56 0.42 121.15 0.42"/><polygon class="cls-2" points="129.54 0.42 117.44 21.37 113.84 21.37 125.94 0.42 129.54 0.42"/><polygon class="cls-2" points="137.77 0.42 125.67 21.37 122.22 21.37 134.32 0.42 137.77 0.42"/><polygon class="cls-2" points="144.9 2.31 133.9 21.37 130.45 21.37 142.55 0.41 143 0.41 144.9 2.31"/><path class="cls-2" d="M149.58,7V8.45l-7.45,12.92h-3.45l9.25-16Z"/><polygon class="cls-2" points="146.91 21.37 149.59 16.74 149.59 21.37 146.91 21.37"/><polygon class="cls-2" points="0.41 20.76 0.41 21.37 0.06 21.37 0.41 20.76"/><path class="cls-2" d="M15.1,80.37A6.61,6.61,0,1,0,21.7,87,6.6,6.6,0,0,0,15.1,80.37Zm2.62,8.75-.48.47L15.1,87.45,13,89.59l-.47-.47L14.62,87l-2.14-2.14.47-.48L15.1,86.5l2.14-2.15.48.48L15.57,87Z"/></g></g></g></svg>