<svg xmlns="http://www.w3.org/2000/svg" viewBox="0 0 150 97.22"><defs><style>.cls-1{fill:#a6713c;}.cls-2{fill:#f7a95a;}</style></defs><title>预警</title><g id="图层_2" data-name="图层 2"><g id="组件"><g id="预警"><path class="cls-1" d="M150,76.27H0V21H150V34l-6.21,4.83V54.76L150,59.64ZM.82,75.45H149.17V60L143,55.16V38.42l6.2-4.84V21.78H.82Z"/><path class="cls-1" d="M150,21.79H0v-15L2.51,4.32,6.7.12,6.82,0H143.17L150,6.83ZM.82,21H149.17V7.17L142.83.82H7.17C5.57,2.43,4.39,3.6,3.09,4.9L.82,7.17Z"/><path class="cls-1" d="M143.17,97.22H6.83L0,90.4v-15H150v15Zm-136-.82H142.83l6.35-6.34V76.27H.83V90.06Z"/><path class="cls-2" d="M15.43,80.74,7.88,91.93H23Zm.34,9.54H15.1v-.7h.67ZM15.1,89V85h.67v4Z"/><polygon class="cls-2" points="12.16 0.41 0.41 20.76 0.41 14.51 8.55 0.41 12.16 0.41"/><polygon class="cls-2" points="20.54 0.41 8.45 21.37 4.84 21.37 16.94 0.41 20.54 0.41"/><polygon class="cls-2" points="28.92 0.41 16.82 21.37 13.23 21.37 25.33 0.41 28.92 0.41"/><polygon class="cls-2" points="37.31 0.41 25.21 21.37 21.61 21.37 33.7 0.41 37.31 0.41"/><polygon class="cls-2" points="45.7 0.41 33.6 21.37 29.99 21.37 42.09 0.41 45.7 0.41"/><polygon class="cls-2" points="54.07 0.41 41.98 21.37 38.38 21.37 50.48 0.41 54.07 0.41"/><polygon class="cls-2" points="62.46 0.41 50.36 21.37 46.77 21.37 58.86 0.41 62.46 0.41"/><polygon class="cls-2" points="70.85 0.41 58.75 21.37 55.14 21.37 67.24 0.41 70.85 0.41"/><polygon class="cls-2" points="79.23 0.41 67.14 21.37 63.53 21.37 75.63 0.41 79.23 0.41"/><polygon class="cls-2" points="87.61 0.41 75.52 21.37 71.92 21.37 84.02 0.41 87.61 0.41"/><polygon class="cls-2" points="96 0.41 83.9 21.37 80.3 21.37 92.4 0.41 96 0.41"/><polygon class="cls-2" points="104.39 0.41 92.29 21.37 88.68 21.37 100.78 0.41 104.39 0.41"/><polygon class="cls-2" points="112.77 0.41 100.67 21.37 97.07 21.37 109.17 0.41 112.77 0.41"/><polygon class="cls-2" points="121.15 0.41 109.06 21.37 105.46 21.37 117.55 0.41 121.15 0.41"/><polygon class="cls-2" points="129.54 0.41 117.44 21.37 113.84 21.37 125.94 0.41 129.54 0.41"/><polygon class="cls-2" points="137.77 0.41 125.67 21.37 122.22 21.37 134.32 0.41 137.77 0.41"/><polygon class="cls-2" points="144.9 2.31 133.9 21.37 130.45 21.37 142.55 0.41 143 0.41 144.9 2.31"/><path class="cls-2" d="M149.58,7V8.45l-7.45,12.92h-3.45l9.25-16Z"/><polygon class="cls-2" points="146.91 21.37 149.59 16.74 149.59 21.37 146.91 21.37"/><polygon class="cls-2" points="0.41 20.76 0.41 21.37 0.06 21.37 0.41 20.76"/></g></g></g></svg>