<svg xmlns="http://www.w3.org/2000/svg" viewBox="0 0 150 52.73"><defs><style>.cls-1{opacity:0.2;}.cls-2{fill:#5ac8f7;}.cls-3{fill:#3c86a6;}.cls-4{opacity:0.5;}.cls-5{fill:#173440;}.cls-6{fill:#295d73;}</style></defs><title>开关-开</title><g id="图层_2" data-name="图层 2"><g id="组件"><g id="开关-开"><g class="cls-1"><path class="cls-2" d="M67,52.22H8.65L.51,44.08V8.65L8.65.51H96.81Z"/></g><path class="cls-3" d="M67.25,52.73H8.44L0,44.29V8.44L8.44,0H97.69Zm-58.39-1h57.8L95.93,1H8.86L1,8.86v35Z"/><path class="cls-2" d="M52.45,26.85H47v9.92H45V26.85H38.46a20.52,20.52,0,0,1-.4,3.18,10.53,10.53,0,0,1-.93,2.54,11.89,11.89,0,0,1-1.6,2.27,29,29,0,0,1-2.42,2.37l-1.39-1.37A26.24,26.24,0,0,0,34,33.72a10.06,10.06,0,0,0,1.44-2,8.6,8.6,0,0,0,.82-2.19,15.5,15.5,0,0,0,.34-2.69H30.84V25.07H36.6V18.21H32.11V16.42h19v1.79H47v6.86h5.47ZM45,25.07V18.21h-6.5v6.86Z"/><g class="cls-4"><rect class="cls-5" x="62.47" y="26.11" width="59.71" height="0.51" transform="translate(23.37 93.18) rotate(-60.03)"/><rect class="cls-5" x="65.75" y="26.11" width="59.71" height="0.51" transform="translate(25.01 96.02) rotate(-60.03)"/><rect class="cls-5" x="69.03" y="26.11" width="59.71" height="0.51" transform="translate(26.65 98.86) rotate(-60.03)"/><rect class="cls-5" x="72.31" y="26.11" width="59.71" height="0.51" transform="translate(28.29 101.71) rotate(-60.03)"/><rect class="cls-5" x="75.59" y="26.11" width="59.71" height="0.51" transform="translate(29.94 104.55) rotate(-60.03)"/><rect class="cls-5" x="78.87" y="26.11" width="59.71" height="0.51" transform="translate(31.58 107.39) rotate(-60.03)"/><rect class="cls-5" x="82.15" y="26.11" width="59.71" height="0.51" transform="translate(33.22 110.23) rotate(-60.03)"/><rect class="cls-5" x="85.43" y="26.11" width="59.71" height="0.51" transform="translate(34.86 113.07) rotate(-60.03)"/><rect class="cls-5" x="88.71" y="26.11" width="59.71" height="0.51" transform="translate(36.5 115.91) rotate(-60.03)"/><rect class="cls-5" x="91.99" y="26.11" width="59.71" height="0.51" transform="translate(38.14 118.75) rotate(-60.03)"/><rect class="cls-5" x="95.27" y="26.11" width="59.71" height="0.51" transform="translate(39.78 121.59) rotate(-60.03)"/><rect class="cls-5" x="98.91" y="26.74" width="58.26" height="0.51" transform="translate(40.7 124.43) rotate(-60.03)"/><rect class="cls-5" x="102.79" y="27.77" width="55.87" height="0.51" transform="translate(41.14 127.27) rotate(-60.03)"/><rect class="cls-5" x="106.67" y="28.82" width="53.46" height="0.51" transform="translate(41.58 130.12) rotate(-60.03)"/><rect class="cls-5" x="110.55" y="29.85" width="51.06" height="0.51" transform="translate(42.02 132.96) rotate(-60.03)"/><rect class="cls-5" x="115.14" y="32.13" width="45.81" height="0.51" transform="translate(41.04 135.8) rotate(-60.03)"/><rect class="cls-5" x="120.06" y="34.97" width="39.25" height="0.51" transform="translate(39.4 138.64) rotate(-60.03)"/><rect class="cls-5" x="124.98" y="37.81" width="32.68" height="0.51" transform="translate(37.75 141.48) rotate(-60.03)"/><rect class="cls-5" x="129.89" y="40.65" width="26.14" height="0.51" transform="translate(36.12 144.32) rotate(-60.03)"/><rect class="cls-5" x="134.48" y="43.29" width="20.03" height="0.51" transform="translate(34.59 146.97) rotate(-60.03)"/><path class="cls-6" d="M141.56,52.73H72.66L103.11,0h38.45L150,8.44V44.29Zm-67.13-1h66.71L149,43.87v-35L141.14,1H103.7Z"/></g><path class="cls-6" d="M121,27.44A9.88,9.88,0,0,0,124.46,32a18.79,18.79,0,0,0,6.33,2.95l-1,1.88a22.45,22.45,0,0,1-3-1.15,17.55,17.55,0,0,1-2.8-1.61A14.14,14.14,0,0,1,121.62,32a10.36,10.36,0,0,1-1.7-2.54,11.91,11.91,0,0,1-3.51,4,28,28,0,0,1-6.09,3.37L109.22,35a33.78,33.78,0,0,0,4-1.84,17.42,17.42,0,0,0,2.8-1.88,9,9,0,0,0,1.75-1.92,6.87,6.87,0,0,0,.93-2H110V25.61h9V21.19H111.3V19.43h4.91c-.17-.31-.35-.65-.56-1s-.44-.73-.68-1.08-.46-.7-.68-1-.42-.57-.6-.78l1.47-.93c.19.23.42.52.68.87s.52.72.78,1.1l.76,1.12c.24.37.44.69.59,1l-1,.76h4.54a26.6,26.6,0,0,0,1.74-2.4,24.43,24.43,0,0,0,1.41-2.44l1.71.71c-.35.68-.75,1.38-1.19,2.09s-.91,1.39-1.4,2h4.82v1.76H121l0,4.22v.2h9v1.83Z"/></g></g></g></svg>