<svg xmlns="http://www.w3.org/2000/svg" xmlns:xlink="http://www.w3.org/1999/xlink" viewBox="0 0 104.91 150.52"><defs><style>.cls-1{fill:none;}.cls-2{clip-path:url(#clip-path);}.cls-3{stroke:#3c86a6;stroke-miterlimit:10;fill:url(#未命名的渐变_34);}.cls-4,.cls-6{fill:#5ac8f7;}.cls-5{fill:#3c86a6;}.cls-6{opacity:0.4;}</style><clipPath id="clip-path" transform="translate(0.26 0.26)"><path class="cls-1" d="M104.15,4.1V145.9l-3.86,3.86H4.1L.24,145.9V105.38l3.64-3.66V48.42L.24,44.8V4.1L4.1.24h96.19Z"/></clipPath><linearGradient id="未命名的渐变_34" x1="0.24" y1="75" x2="104.15" y2="75" gradientTransform="matrix(-1, 0, 0, 1, 104.65, 0.26)" gradientUnits="userSpaceOnUse"><stop offset="0.45" stop-color="#5ac8f7" stop-opacity="0.04"/><stop offset="1" stop-color="#5ac8f7" stop-opacity="0.2"/></linearGradient></defs><title>看板6</title><g id="图层_2" data-name="图层 2"><g id="组件"><g id="看板6"><g class="cls-2"><polygon class="cls-3" points="57.65 0.5 104.41 0.5 104.41 150.02 57.65 150.02 0.5 150.02 0.5 0.5 57.65 0.5"/><path class="cls-4" d="M.24,149.76v0Z" transform="translate(0.26 0.26)"/></g><path class="cls-5" d="M3.93,149.93.07,146.07,0,146V105.28l3.64-3.66V48.52L0,44.9V4l.07-.07L3.93.07,4,0h96.39l.07.07,3.86,3.86.07.07V146l-.07.07-3.86,3.86-.07.07H4Zm100-4.13V4.2L100.19.48H4.2L.48,4.2V44.7l3.64,3.62v53.5L.48,105.48V145.8l3.72,3.72h96Z" transform="translate(0.26 0.26)"/><path class="cls-6" d="M.24,4.1V14.87H104.15V4.1L100.29.24H4.1Z" transform="translate(0.26 0.26)"/></g></g></g></svg>