<svg xmlns="http://www.w3.org/2000/svg" viewBox="0 0 150 73.38"><defs><style>.cls-1{fill:#3c86a6;}.cls-2{opacity:0.4;}.cls-3{fill:#5ac8f7;}</style></defs><title>看板2</title><g id="图层_2" data-name="图层 2"><g id="组件"><g id="看板2"><path class="cls-1" d="M148.78,73.38H1.22l0,0-.75-.75L0,72.16v-8l2.37-2.39V11.64L0,9.27v-8l.08-.08C.5.71.76.46,1.2,0l0,0H148.78l.46.46.68.68.08.08v8l-2.37,2.37V61.72L150,64.11v8ZM1.28,73.23H148.72l1.13-1.13V64.17l-2.37-2.39V11.57l2.37-2.36V1.28l0,0-.68-.68-.42-.41H1.28L.18,1.24l0,0V9.21l2.37,2.36V61.78L.15,64.17V72.1l.4.41Z"/><g class="cls-2"><path class="cls-3" d="M24.86.07l-.65,1.12H.13L1.25.07Z"/></g><g class="cls-2"><polygon class="cls-3" points="118.22 1.19 30.21 1.19 30.86 0.07 118.86 0.07 118.22 1.19"/></g><polygon class="cls-3" points="26.21 1.19 24.86 1.19 25 0.95 26.35 0.95 26.21 1.19"/><polygon class="cls-3" points="26.91 1.19 26.44 1.19 26.58 0.95 27.05 0.95 26.91 1.19"/><g class="cls-2"><path class="cls-3" d="M149.87,1.19H122.38L123,.07h25.72Z"/></g><polygon class="cls-3" points="121.06 1.19 119.71 1.19 119.85 0.95 121.2 0.95 121.06 1.19"/><polygon class="cls-3" points="121.76 1.19 121.3 1.19 121.44 0.95 121.9 0.95 121.76 1.19"/></g></g></g></svg>