<svg xmlns="http://www.w3.org/2000/svg" xmlns:xlink="http://www.w3.org/1999/xlink" viewBox="0 0 150.31 107.95"><defs><style>.cls-1{fill:none;}.cls-2{clip-path:url(#clip-path);}.cls-3{stroke:#3c86a6;stroke-miterlimit:10;fill:url(#未命名的渐变_2);}.cls-4,.cls-6{fill:#5ac8f7;}.cls-5{fill:#3c86a6;}.cls-6{opacity:0.4;}</style><clipPath id="clip-path" transform="translate(0.15 0.15)"><path class="cls-1" d="M.35,5.9V42.38l5.23,5.21V65.18L.35,70.44v31.3c2.16,2.17,3.37,3.39,5.55,5.55H144.1c2.17-2.16,3.39-3.38,5.55-5.55V5.9c-2.16-2.18-3.38-3.39-5.55-5.55H5.9C3.72,2.51,2.51,3.72.35,5.9Z"/></clipPath><linearGradient id="未命名的渐变_2" x1="0.35" y1="53.82" x2="149.65" y2="53.82" gradientTransform="matrix(-1, 0, 0, 1, 150.15, 0.15)" gradientUnits="userSpaceOnUse"><stop offset="0" stop-color="#5ac8f7" stop-opacity="0.2"/><stop offset="0.55" stop-color="#5ac8f7" stop-opacity="0.04"/></linearGradient></defs><title>看板5</title><g id="图层_2" data-name="图层 2"><g id="组件"><g id="看板5"><g class="cls-2"><polygon class="cls-3" points="82.62 0.5 149.81 0.5 149.81 107.45 82.62 107.45 0.5 107.45 0.5 0.5 82.62 0.5"/><path class="cls-4" d="M.35,107.29v0Z" transform="translate(0.15 0.15)"/></g><path class="cls-5" d="M5.65,107.54.1,102l-.1-.1V70.3L5.23,65V47.73L0,42.53V5.75l.1-.1L5.65.1l.1-.1h138.5l.1.1,5.55,5.55.1.1v96.14l-.1.1-5.55,5.55-.1.1H5.75Zm143.66-5.94V6L144,.69H6L.69,6v36.2l5.23,5.21V65.32L.69,70.58v31L6,107H144Z" transform="translate(0.15 0.15)"/><path class="cls-6" d="M.35,5.9V21.36h149.3V5.9c-2.16-2.18-3.38-3.39-5.55-5.55H5.9C3.72,2.51,2.51,3.72.35,5.9Z" transform="translate(0.15 0.15)"/></g></g></g></svg>