<svg xmlns="http://www.w3.org/2000/svg" xmlns:xlink="http://www.w3.org/1999/xlink" viewBox="0 0 104.91 150.52"><defs><style>.cls-1{fill:none;}.cls-2{clip-path:url(#clip-path);}.cls-3{stroke:#3c86a6;stroke-miterlimit:10;fill:url(#未命名的渐变_34);}.cls-4,.cls-6{fill:#5ac8f7;}.cls-5{fill:#3c86a6;}.cls-6{opacity:0.4;}</style><clipPath id="clip-path" transform="translate(0.26 0.26)"><path class="cls-1" d="M.24,4.1V145.9l3.86,3.86h96.19l3.86-3.86V105.38l-3.64-3.66V48.42l3.64-3.62V4.1L100.29.24H4.1Z"/></clipPath><linearGradient id="未命名的渐变_34" x1="0.5" y1="75.26" x2="104.41" y2="75.26" gradientUnits="userSpaceOnUse"><stop offset="0.45" stop-color="#5ac8f7" stop-opacity="0.04"/><stop offset="1" stop-color="#5ac8f7" stop-opacity="0.2"/></linearGradient></defs><title>看板3</title><g id="图层_2" data-name="图层 2"><g id="组件"><g id="看板3"><g class="cls-2"><polygon class="cls-3" points="47.26 0.5 0.5 0.5 0.5 150.02 47.26 150.02 104.41 150.02 104.41 0.5 47.26 0.5"/><path class="cls-4" d="M104.15,149.76v0Z" transform="translate(0.26 0.26)"/></g><path class="cls-5" d="M100.39,150H4l-.07-.07L.07,146.07,0,146V4l.07-.07L3.93.07,4,0h96.39l.07.07,3.86,3.86.07.07V44.9l-3.64,3.62v53.1l3.64,3.66V146l-.07.07-3.86,3.86ZM4.2,149.52h96l3.72-3.72V105.48l-3.64-3.66V48.32l3.64-3.62V4.2L100.19.48H4.2L.48,4.2V145.8Z" transform="translate(0.26 0.26)"/><path class="cls-6" d="M104.15,4.1V14.87H.24V4.1L4.1.24h96.19Z" transform="translate(0.26 0.26)"/></g></g></g></svg>