<svg width="85" height="32" viewBox="0 0 85 32" fill="none" xmlns="http://www.w3.org/2000/svg">
<path d="M0 2C0 0.895431 0.895431 0 2 0H83C84.1046 0 85 0.895431 85 2V30C85 31.1046 84.1046 32 83 32H2C0.89543 32 0 31.1046 0 30V2Z" fill="#0084FF"/>
<path d="M46.384 16.992C45.968 16.9813 45.6213 16.944 45.344 16.88C45.0667 16.816 44.8427 16.7093 44.672 16.56C44.5013 16.4107 44.3787 16.208 44.304 15.952C44.2293 15.6853 44.192 15.3493 44.192 14.944V9.728H54.96V14.048H45.776V14.608C45.776 14.8213 45.7867 14.992 45.808 15.12C45.8293 15.248 45.8773 15.3493 45.952 15.424C46.0267 15.488 46.1333 15.536 46.272 15.568C46.4107 15.6 46.6027 15.6213 46.848 15.632C47.936 15.6853 49.008 15.712 50.064 15.712C51.1307 15.7013 52.208 15.6747 53.296 15.632C53.5733 15.6213 53.792 15.6053 53.952 15.584C54.112 15.552 54.2347 15.5093 54.32 15.456C54.416 15.4027 54.48 15.3333 54.512 15.248C54.5547 15.152 54.5867 15.04 54.608 14.912C54.64 14.7413 54.6613 14.592 54.672 14.464C54.6933 14.3253 54.7093 14.2133 54.72 14.128L56.384 14.688C56.3627 14.8693 56.336 15.0507 56.304 15.232C56.2827 15.4027 56.2453 15.6 56.192 15.824C56.1387 16.0267 56.0693 16.1973 55.984 16.336C55.9093 16.4747 55.7867 16.592 55.616 16.688C55.456 16.7733 55.2427 16.8427 54.976 16.896C54.72 16.9493 54.384 16.9813 53.968 16.992C51.4507 17.088 48.9227 17.088 46.384 16.992ZM45.776 11.2V12.64H53.312V11.2H45.776ZM56.832 19.808H54.128V21.44C54.128 21.8453 54.0907 22.1653 54.016 22.4C53.952 22.6453 53.84 22.8373 53.68 22.976C53.52 23.1253 53.3013 23.232 53.024 23.296C52.7573 23.36 52.4213 23.408 52.016 23.44L50.832 23.536L50.4 22.08L51.52 22C51.7333 21.9893 51.904 21.968 52.032 21.936C52.1707 21.904 52.2773 21.8507 52.352 21.776C52.4267 21.7013 52.4747 21.6053 52.496 21.488C52.528 21.3707 52.544 21.216 52.544 21.024V19.808H46.72C47.1147 20.0533 47.52 20.3253 47.936 20.624C48.3627 20.9227 48.7253 21.1947 49.024 21.44L48.224 22.704C48.0213 22.544 47.7867 22.3627 47.52 22.16C47.264 21.9573 46.9973 21.76 46.72 21.568C46.4533 21.3653 46.1867 21.1733 45.92 20.992C45.664 20.8107 45.4347 20.656 45.232 20.528L45.76 19.808H42.816V18.352H52.544V17.28L54.128 17.344V18.352H56.832V19.808ZM71.734 17.28V23.536H70.102V23.008H59.558V17.248L61.19 17.312V21.504H64.854V16.144H60.022V10.496L61.638 10.56V14.576H64.854V9.056L66.438 9.12V14.576H69.654V10.496L71.254 10.56V16.144H66.438V21.504H70.102V17.216L71.734 17.28Z" fill="white"/>
<path d="M18.1396 7.18283H20.2902V19.0108C20.2902 19.3334 20.0751 19.5484 19.7526 19.5484H18.6773C18.3547 19.5484 18.1396 19.3334 18.1396 19.0108V7.18283Z" fill="white"/>
<path d="M14.269 12.9892L13.5163 12.2366C13.3012 12.0215 13.3012 11.6989 13.5163 11.4839L18.8389 6.16129C19.0539 5.94624 19.3765 5.94624 19.5915 6.16129L20.7206 7.29032L15.0216 12.9892C14.8066 13.2043 14.484 13.2043 14.269 12.9892Z" fill="white"/>
<path d="M17.7097 7.29032L18.8387 6.16129C19.0538 5.94624 19.3763 5.94624 19.5914 6.16129L24.914 11.4839C25.129 11.6989 25.129 12.0215 24.914 12.2366L24.1613 12.9892C23.9462 13.2043 23.6237 13.2043 23.4086 12.9892L17.7097 7.29032ZM28.8925 15.7849H27.8172C27.4946 15.7849 27.2796 16 27.2796 16.3226V23.3118C27.2796 23.6344 27.0645 23.8495 26.7419 23.8495H11.6882C11.3656 23.8495 11.1505 23.6344 11.1505 23.3118V16.3226C11.1505 16 10.9355 15.7849 10.6129 15.7849H9.53763C9.21505 15.7849 9 16 9 16.3226V25.4624C9 25.7849 9.21505 26 9.53763 26H28.8925C29.2151 26 29.4301 25.7849 29.4301 25.4624V16.3226C29.4301 16 29.2151 15.7849 28.8925 15.7849Z" fill="white"/>
<path d="M13.301 17.9354H10.0752V15.7849H13.301C13.6236 15.7849 13.8386 16 13.8386 16.3225V17.3978C13.8386 17.6666 13.6236 17.9354 13.301 17.9354ZM28.3548 17.9354H25.129C24.8064 17.9354 24.5913 17.7204 24.5913 17.3978V16.3225C24.5913 16 24.8064 15.7849 25.129 15.7849H28.3548V17.9354Z" fill="white"/>
</svg>
