<svg width="32" height="32" viewBox="0 0 32 32" fill="none" xmlns="http://www.w3.org/2000/svg">
<path d="M0 0H30C31.1046 0 32 0.895431 32 2V30C32 31.1046 31.1046 32 30 32H0V0Z" fill="#0084FF"/>
<path d="M24.75 8.875H22.2695C22.2695 7.83984 21.4297 7 20.3945 7H20.082C19.0469 7 18.207 7.83984 18.207 8.875H13.8125C13.8125 8.35742 13.6035 7.88867 13.2637 7.54883C12.9238 7.20898 12.4551 7 11.9375 7H11.625C10.5898 7 9.75 7.83984 9.75 8.875H7.25C6.56055 8.875 6 9.43359 6 10.125V24.5C6 25.1895 6.56055 25.75 7.25 25.75H24.75C25.4395 25.75 26 25.1895 26 24.5V10.125C26 9.43359 25.4395 8.875 24.75 8.875ZM19.457 9.03125C19.457 8.59961 19.8066 8.25 20.2383 8.25C20.6699 8.25 21.0195 8.59961 21.0195 9.03125V10.5938C21.0195 11.0254 20.6699 11.375 20.2383 11.375C20.0234 11.375 19.8281 11.2871 19.6855 11.1465C19.5449 11.0039 19.457 10.8086 19.457 10.5938V9.03125ZM11 9.03125C11 8.59961 11.3496 8.25 11.7812 8.25C12.2129 8.25 12.5625 8.59961 12.5625 9.03125V10.5938C12.5625 11.0254 12.2129 11.375 11.7812 11.375C11.5664 11.375 11.3711 11.2871 11.2285 11.1465C11.0879 11.0039 11 10.8086 11 10.5938V9.03125ZM24.75 23.875C24.75 24.2207 24.4707 24.5 24.125 24.5H7.875C7.5293 24.5 7.25 24.2207 7.25 23.875V15.125H24.75V23.875Z" fill="white"/>
<path d="M7.875 16.375H12.875V19.5H7.875V16.375ZM7.875 20.125H12.875V23.25H7.875V20.125ZM13.5 16.375H18.5V19.5H13.5V16.375ZM13.5 20.125H18.5V23.25H13.5V20.125ZM19.125 16.375H24.125V19.5H19.125V16.375ZM19.125 20.125H24.125V23.25H19.125V20.125Z" fill="white"/>
</svg>
