<svg width="747" height="62" viewBox="0 0 747 62" fill="none" xmlns="http://www.w3.org/2000/svg">
<g filter="url(#filter0_d_905_10575)">
<path d="M35.2767 40.36L36.5167 31.56H34.9967L32.3167 45.32H26.8367L31.6367 20.36H41.8367L41.7567 17.92L40.6367 16.6H47.3567L47.4367 20.36H52.6367L52.0767 24.32H47.5567L47.7567 31.88L51.5167 28.8L50.6767 34.72L47.8767 37L47.9967 40.84H49.1167L50.8367 39.32L49.9567 45.32H42.6767L42.5167 41.36L40.2767 43.2L41.1167 37.28L42.3567 36.28L41.9567 24.32H36.3967L35.7167 27.76H41.8367L40.1967 39.4C40.09 40.1733 39.7567 40.8267 39.1967 41.36C38.6633 41.8667 38.01 42.12 37.2367 42.12H33.4767L35.2767 40.36ZM26.8367 42.4L16.6767 44.68L17.2767 40.24L19.5167 39.76L20.9567 29.44H18.7967L19.3567 25.48H21.5167L22.4767 18.84L21.4367 17.32H28.4767L27.3167 25.48H29.1967L28.6367 29.44H26.7567L25.5167 38.4L27.4367 37.96L26.8367 42.4ZM52.1967 19.8H48.0367L47.9967 17.24H52.1967V19.8ZM72.7535 29.48H68.9535L67.0335 43.16H59.4335L61.7535 26.8L60.7935 25.68H73.2735L73.5935 23.4H60.7135L61.2335 19.6H74.1135L74.3535 18.08L73.0735 16.56H82.1935L81.7535 19.6H94.6735L94.1535 23.4H81.1935L80.8735 25.68H92.3135L90.2335 40.44C90.1269 41.1867 89.7669 41.8267 89.1535 42.36C88.5669 42.8933 87.8869 43.16 87.1135 43.16H80.7535L82.5535 40.92L84.1535 29.48H80.3535L78.1135 45.36H70.5135L72.7535 29.48ZM102.51 44.68L104.59 40.72L106.47 27.2H104.95L105.51 23.4H113.87L111.63 39.24L117.11 40.88H135.71L135.19 44.68H113.91L109.95 43.52L109.35 44.68H102.51ZM133.31 31L134.43 39.36H128.35L128.19 38.32L113.95 39L114.43 35.56L118.11 28.72H114.63L115.15 24.92H136.43L135.91 28.72H125.71L122.23 35.2L127.75 34.96L127.23 31H133.31ZM135.99 17.36L135.47 21.12H117.23L117.75 17.36H135.99ZM112.43 17.32L114.07 21.88H107.99L106.35 17.32H112.43ZM178.427 26.12L177.867 30.08H172.347L170.587 42.68C170.481 43.4533 170.121 44.0933 169.507 44.6C168.894 45.08 168.214 45.32 167.467 45.32H159.547L163.147 41.6L164.747 30.08H157.707L158.267 26.12H178.427ZM155.827 27.2L153.267 45.36H146.027L148.387 28.56L145.267 29.12L145.907 24.56L156.467 22.64L155.827 27.2ZM178.467 17.36L177.907 21.28H160.067L160.627 17.36H178.467ZM156.707 21.12L146.107 23.04L146.747 18.48L157.347 16.56L156.707 21.12ZM216.264 31L215.424 37.08H196.384L196.224 38.2H216.024L214.984 45.36H187.624L189.664 31H186.624L187.464 24.92H199.784L199.624 23.84H208.464L208.624 24.92H220.904L220.064 31H216.264ZM213.624 18.08H221.864L221.464 21.12H217.624L218.864 23.4H212.784L211.664 21.4L210.504 23.4H203.664L207.024 17.6L206.144 16.56H214.504L213.624 18.08ZM197.624 18.08H205.144L204.744 21.12H201.624L202.904 23.4H196.824L195.704 21.4L194.544 23.4H187.704L191.064 17.6L190.184 16.56H198.544L197.624 18.08ZM194.384 29.84H212.624L212.784 28.72H194.544L194.384 29.84ZM195.784 41.24L195.624 42.4H207.824L207.984 41.24H195.784ZM196.984 32.88L196.824 34.04H208.224L208.384 32.88H196.984ZM248.781 34.76L249.101 32.44H242.461L244.581 17.28H264.661L262.541 32.44H255.181L254.861 34.76H262.141L261.581 38.56H254.341L254.021 40.84H262.141L261.621 44.64H239.901L240.421 40.84H247.941L248.261 38.56H241.501L242.061 34.76H248.781ZM233.141 27.64L234.101 20.84H232.181L232.661 17.28H243.221L242.741 20.84H240.421L239.461 27.64H241.901L241.301 31.68H238.901L237.861 39.24L240.181 38.8L239.661 42.68L228.621 44.64L229.141 40.84L231.341 40.44L232.581 31.68H230.501L231.101 27.64H233.141ZM248.181 23.04H250.461L250.741 20.88H248.501L248.181 23.04ZM257.981 28.8L258.261 26.64H256.021L255.701 28.8H257.981ZM256.821 20.88L256.541 23.04H258.741L259.061 20.88H256.821ZM249.621 28.8L249.941 26.64H247.701L247.421 28.8H249.621ZM305.538 30.24L303.538 44.68H283.898L285.898 30.24H305.538ZM277.178 21.24L277.698 17.72L276.738 16.56H284.538L283.858 21.24H285.978L285.458 25.04H283.338L282.658 29.88L284.858 29.32L284.258 33.52L282.098 34.08L280.898 42.6C280.791 43.3733 280.445 44.0133 279.858 44.52C279.298 45 278.631 45.24 277.858 45.24H271.258L274.338 41.64L275.138 35.76L272.538 36.4L273.098 32.24L275.738 31.6L276.658 25.04H274.138L274.658 21.24H277.178ZM306.338 21.32L293.938 22.72L293.618 25.04H304.978L306.698 23.52L305.978 28.76H286.218L287.738 17.84L286.378 16.64H294.778L294.498 18.68L306.858 17.44L306.338 21.32ZM298.538 35.92L298.858 33.8H291.858L291.538 35.92H298.538ZM297.698 41.16L297.978 39.16H291.218L290.938 41.16H297.698ZM327.495 31.04L329.735 27.52H327.415L327.975 23.72H332.175L333.135 22.24H338.815L337.895 23.72H349.135L348.575 27.52H335.535L333.095 31.44H335.615L336.055 28.4H342.975L342.535 31.44H348.015L347.535 34.84H342.055L341.695 37.24H347.335L346.815 40.96H341.175L340.575 45.36H333.655L334.255 40.96H324.615L325.135 37.24H334.775L335.135 34.84H326.935L327.495 31.04ZM318.815 21.68L319.375 17.72L318.415 16.56H325.935L325.215 21.68H327.135L326.575 25.48H324.655L324.055 29.84L326.055 29.32L325.455 33.52L323.455 34.04L322.255 42.72C322.121 43.4933 321.761 44.1333 321.175 44.64C320.615 45.12 319.948 45.36 319.175 45.36H312.855L315.975 41.76L316.815 35.8L314.495 36.4L315.095 32.24L317.375 31.64L318.255 25.48H316.015L316.575 21.68H318.815ZM344.375 21.12H332.855L332.575 22.88H327.735L328.535 17.32H350.055L349.255 22.88H344.095L344.375 21.12ZM391.452 17.32L387.892 42.72C387.785 43.4933 387.438 44.1333 386.852 44.64C386.265 45.12 385.585 45.36 384.812 45.36H379.052L382.572 41.68L385.452 21.04H374.012L370.012 45.36H364.212L368.772 18.76L367.532 17.32H391.452ZM356.212 45.24L358.612 28.28H356.532L357.092 24.36H365.292L363.172 39.28L364.612 38.72L364.052 42.84L356.212 45.24ZM383.252 32.08L382.052 40.68H371.852L373.052 32.08H383.252ZM376.092 27.8L376.332 26.12H373.972L374.412 23.08H376.772L376.972 21.6H382.092L381.892 23.08H384.292L383.852 26.12H381.452L381.212 27.8H383.972L383.532 30.84H372.972L373.412 27.8H376.092ZM364.492 17.32L365.372 22.84H359.692L358.812 17.32H364.492ZM378.332 38.12L378.812 34.68H376.772L376.292 38.12H378.332ZM416.169 18.84L416.289 18.08L415.009 16.56H424.129L423.809 18.84H434.449L433.889 22.64H409.369L404.849 45.36H398.009L403.009 20.28L401.769 18.84H416.169ZM413.969 40.84L408.329 37.08L408.409 36.32L408.889 32.92H431.689L431.129 37.08L424.369 40.84L431.449 45.36H420.809L418.729 44L416.249 45.36H405.609L413.969 40.84ZM432.289 23.4L432.129 24.52H433.649L433.209 27.56H431.689L431.089 31.76H409.809L410.409 27.56H408.889L409.329 24.52H410.849L411.009 23.4H418.609L418.449 24.52H424.529L424.689 23.4H432.289ZM423.929 28.72L424.089 27.56H418.009L417.849 28.72H423.929ZM417.289 36.32L419.609 37.8L422.329 36.32H417.289ZM475.805 17.32L475.285 21.12H463.845L462.485 31H475.405L474.885 34.8H461.965L460.485 45.36H452.885L454.365 34.8H441.445L441.965 31H454.885L456.245 21.12H444.885L445.405 17.32H475.805ZM466.725 22.64H473.565L471.085 29.48H464.245L466.725 22.64ZM453.605 29.48H446.765L446.205 22.64H453.045L453.605 29.48ZM516.402 31L514.482 44.56H485.082L487.002 31H516.402ZM514.162 18.12L517.002 29.48H510.522L510.362 28.88H487.202L487.602 26L493.362 17.52L492.402 16.6H502.282L496.282 25.2H509.442L507.682 18.12H514.162ZM507.482 40.76L508.322 34.76H493.922L493.082 40.76H507.482ZM561.319 17.32L560.799 21.2H554.319L553.639 22.92H559.879L557.839 37.36H554.039L553.359 36.4L554.759 26.48H547.719L546.319 36.4L545.399 37.36H541.559L543.599 22.92H548.559L549.239 21.2H543.399L543.919 17.32H561.319ZM531.359 36.4L532.199 37.88L534.559 33.52H525.759L526.279 29.8H541.359L540.759 34.04L535.359 42.36H535.279L537.079 45.28H530.839L525.519 36.4H531.359ZM537.279 28.6H532.439L531.919 25.64L530.879 28.16H526.119L530.199 18.44L529.239 17.36H541.159L542.599 28.12H538.239L537.079 20.88H533.919L532.439 24.36H536.559L537.279 28.6ZM553.359 27.88L552.199 36.24L557.519 45.28H551.239L549.359 40.28L545.799 45.28H539.879L547.559 36.08L548.719 27.88H553.359ZM573.476 18.8L572.196 17.32H602.556L601.396 25.64H580.116L579.916 27.2H601.196L602.916 25.68L602.156 31H596.076L595.876 32.52H602.716L602.196 36.32H595.316L594.436 42.72C594.329 43.4933 593.983 44.1333 593.396 44.64C592.809 45.12 592.129 45.36 591.356 45.36H583.436L586.996 41.64L587.716 36.32H568.756L569.276 32.52H588.276L588.476 31H571.756L573.476 18.8ZM582.316 42.4H574.716L573.876 37.48H581.476L582.316 42.4ZM580.756 21.12L580.596 22.24H594.276L594.436 21.12H580.756ZM612.873 37.12L615.313 32.16H622.193L621.473 33.84H632.473L633.993 31.28H612.513L612.953 28.08H642.113L641.673 31.28L640.113 33.84H643.593L642.353 42.68C642.246 43.4533 641.886 44.0933 641.273 44.6C640.686 45.08 640.006 45.32 639.233 45.32H624.473L627.953 42.4H634.793L635.513 37.12H612.873ZM645.833 17.36L644.433 27.16H630.113L631.513 17.36H645.833ZM615.713 21.24H613.473L613.913 18.12H617.313L617.393 17.96L616.233 16.6H624.113L623.353 18.12H629.993L629.113 24.48C628.98 25.2533 628.62 25.9067 628.033 26.44C627.446 26.9467 626.766 27.2 625.993 27.2H620.993L623.553 24.68L624.033 21.24H621.833L618.953 27.2H612.673L615.713 21.24ZM633.913 38.08L633.433 41.44H610.593L611.073 38.08H633.913ZM639.913 23.96L640.393 20.56H636.073L635.593 23.96H639.913ZM653.67 32.8L656.79 22.56H661.35L659.47 29H661.27L663.79 21.08H655.79L656.31 17.28H669.35L668.83 21.08L666.39 29H667.79L667.07 34.04H672.99L673.91 35.08L675.55 32.52H668.59L670.27 20.36H676.83L677.15 18.04L675.91 16.56H683.03L682.47 20.36H688.55L686.87 32.52H681.03L677.27 37.84L680.31 40.88H685.59L684.95 45.36H677.35L674.27 42.08L671.91 45.36H665.95L670.99 38.56L667.03 34.32L665.87 42.68C665.763 43.4533 665.403 44.0933 664.79 44.6C664.176 45.08 663.496 45.32 662.75 45.32H654.87L658.55 41.44H660.67L661.71 32.8H653.67ZM660.39 34.56L659.87 38.44L652.67 39.24L653.23 35.36L660.39 34.56ZM673.91 28.72H675.83L676.47 24.16H674.55L673.91 28.72ZM681.39 24.16L680.75 28.72H682.59L683.23 24.16H681.39ZM697.147 32.92H696.507L697.067 29H697.827L699.547 18.76H702.587L702.987 17.92L702.307 16.6H708.747L707.787 18.76H712.907L711.467 29H712.387L711.827 32.92H710.907L709.347 43.92C709.293 44.3733 709.12 44.72 708.827 44.96C708.56 45.1733 708.253 45.28 707.907 45.28H702.227L704.827 42.52L706.187 32.92H701.827L699.707 45.28H695.107L697.147 32.92ZM711.187 44.6L713.667 26.92H730.027L728.947 34.68C728.84 35.4267 728.52 36.0133 727.987 36.44C727.48 36.8667 726.853 37.08 726.107 37.08H720.987L723.267 34.36L723.787 30.68H718.867L717.467 40.48H727.067L729.107 38.6L728.267 44.6H711.187ZM716.827 17.72L715.987 16.56H728.627L730.907 26H724.627L723.307 20.36H721.547L718.787 26.04H712.707L716.827 17.72ZM702.507 29H706.747L707.707 22.24H703.667L702.507 29ZM701.907 34H705.067L704.787 40.12H701.507L701.907 34ZM703.627 23.36H706.787L706.667 27.96H703.387L703.627 23.36Z" fill="white"/>
</g>
<defs>
<filter id="filter0_d_905_10575" x="0.676758" y="0.55957" width="746.23" height="60.8008" filterUnits="userSpaceOnUse" color-interpolation-filters="sRGB">
<feFlood flood-opacity="0" result="BackgroundImageFix"/>
<feColorMatrix in="SourceAlpha" type="matrix" values="0 0 0 0 0 0 0 0 0 0 0 0 0 0 0 0 0 0 127 0" result="hardAlpha"/>
<feOffset/>
<feGaussianBlur stdDeviation="8"/>
<feComposite in2="hardAlpha" operator="out"/>
<feColorMatrix type="matrix" values="0 0 0 0 0.2 0 0 0 0 0.733334 0 0 0 0 1 0 0 0 0.5 0"/>
<feBlend mode="normal" in2="BackgroundImageFix" result="effect1_dropShadow_905_10575"/>
<feBlend mode="normal" in="SourceGraphic" in2="effect1_dropShadow_905_10575" result="shape"/>
</filter>
</defs>
</svg>
