<svg xmlns="http://www.w3.org/2000/svg" xmlns:xlink="http://www.w3.org/1999/xlink" viewBox="0 0 24.84 150"><defs><style>.cls-1{fill:url(#未命名的渐变_67);}.cls-2{fill:url(#未命名的渐变_67-2);}.cls-3{fill:url(#未命名的渐变_67-3);}.cls-4{fill:url(#未命名的渐变_67-4);}.cls-5{fill:url(#未命名的渐变_105);}.cls-6{fill:url(#未命名的渐变_67-5);}.cls-7{fill:url(#未命名的渐变_105-2);}.cls-8{fill:url(#未命名的渐变_105-3);}.cls-9{fill:url(#未命名的渐变_105-4);}.cls-10{fill:url(#未命名的渐变_105-5);}.cls-11{fill:url(#未命名的渐变_105-6);}.cls-12{fill:url(#未命名的渐变_105-7);}.cls-13{fill:url(#未命名的渐变_105-8);}.cls-14{fill:url(#未命名的渐变_105-9);}.cls-15{fill:url(#未命名的渐变_105-10);}.cls-16{fill:url(#未命名的渐变_105-11);}.cls-17{fill:url(#未命名的渐变_105-12);}.cls-18{fill:url(#未命名的渐变_105-13);}.cls-19{fill:url(#未命名的渐变_105-14);}.cls-20{fill:url(#未命名的渐变_67-6);}.cls-21{fill:url(#未命名的渐变_67-7);}</style><linearGradient id="未命名的渐变_67" x1="9.84" y1="6.82" x2="14.88" y2="6.82" gradientUnits="userSpaceOnUse"><stop offset="0" stop-color="#6b6b6b"/><stop offset="0.11" stop-color="#767676"/><stop offset="0.3" stop-color="#959595"/><stop offset="0.41" stop-color="#aaa"/><stop offset="0.56" stop-color="#ccc"/><stop offset="0.71" stop-color="#eaeaea"/><stop offset="0.8" stop-color="#f6f6f6"/><stop offset="0.83" stop-color="#ededed"/><stop offset="0.87" stop-color="#d4d4d4"/><stop offset="0.92" stop-color="#ababab"/><stop offset="0.98" stop-color="#737373"/><stop offset="0.99" stop-color="#666"/></linearGradient><linearGradient id="未命名的渐变_67-2" x1="4.07" y1="67.24" x2="20.97" y2="67.24" xlink:href="#未命名的渐变_67"/><linearGradient id="未命名的渐变_67-3" x1="6.47" y1="15.11" x2="18.41" y2="15.11" xlink:href="#未命名的渐变_67"/><linearGradient id="未命名的渐变_67-4" x1="5.71" y1="19.99" x2="19.28" y2="19.99" xlink:href="#未命名的渐变_67"/><linearGradient id="未命名的渐变_105" x1="6.47" y1="17.15" x2="18.41" y2="17.15" gradientUnits="userSpaceOnUse"><stop offset="0" stop-color="#e2e2e2"/><stop offset="0.03" stop-color="#d0d0d0"/><stop offset="0.06" stop-color="#bcbcbc"/><stop offset="0.09" stop-color="#b5b5b5"/><stop offset="0.49" stop-color="#f6f6f6"/><stop offset="0.63" stop-color="#f3f3f3"/><stop offset="0.73" stop-color="#eaeaea"/><stop offset="0.82" stop-color="#dbdbdb"/><stop offset="0.9" stop-color="#c6c6c6"/><stop offset="0.97" stop-color="#aaa"/><stop offset="1" stop-color="#9b9b9b"/></linearGradient><linearGradient id="未命名的渐变_67-5" x1="7.07" y1="41.46" x2="17.65" y2="41.46" xlink:href="#未命名的渐变_67"/><linearGradient id="未命名的渐变_105-2" x1="6.22" y1="107.79" x2="18.44" y2="107.79" xlink:href="#未命名的渐变_105"/><linearGradient id="未命名的渐变_105-3" x1="1.12" y1="24.34" x2="23.68" y2="24.34" xlink:href="#未命名的渐变_105"/><linearGradient id="未命名的渐变_105-4" x1="1.12" y1="27.88" x2="23.68" y2="27.88" xlink:href="#未命名的渐变_105"/><linearGradient id="未命名的渐变_105-5" x1="1.12" y1="31.15" x2="23.68" y2="31.15" xlink:href="#未命名的渐变_105"/><linearGradient id="未命名的渐变_105-6" x1="1.12" y1="34.43" x2="23.68" y2="34.43" xlink:href="#未命名的渐变_105"/><linearGradient id="未命名的渐变_105-7" x1="1.12" y1="37.7" x2="23.68" y2="37.7" xlink:href="#未命名的渐变_105"/><linearGradient id="未命名的渐变_105-8" x1="1.12" y1="40.97" x2="23.68" y2="40.97" xlink:href="#未命名的渐变_105"/><linearGradient id="未命名的渐变_105-9" x1="1.12" y1="44.24" x2="23.68" y2="44.24" xlink:href="#未命名的渐变_105"/><linearGradient id="未命名的渐变_105-10" x1="1.12" y1="47.51" x2="23.68" y2="47.51" xlink:href="#未命名的渐变_105"/><linearGradient id="未命名的渐变_105-11" x1="1.12" y1="50.79" x2="23.68" y2="50.79" xlink:href="#未命名的渐变_105"/><linearGradient id="未命名的渐变_105-12" x1="1.12" y1="54.06" x2="23.68" y2="54.06" xlink:href="#未命名的渐变_105"/><linearGradient id="未命名的渐变_105-13" x1="1.12" y1="57.33" x2="23.68" y2="57.33" xlink:href="#未命名的渐变_105"/><linearGradient id="未命名的渐变_105-14" x1="0" y1="74.51" x2="24.84" y2="74.51" xlink:href="#未命名的渐变_105"/><linearGradient id="未命名的渐变_67-6" x1="10.46" y1="71.7" x2="13.87" y2="71.7" xlink:href="#未命名的渐变_67"/><linearGradient id="未命名的渐变_67-7" x1="9.86" y1="145.18" x2="15.08" y2="145.18" xlink:href="#未命名的渐变_67"/></defs><title>Bushing（衬套）</title><g id="图层_2" data-name="图层 2"><g id="图层_59" data-name="图层 59"><g id="Bushing_衬套_" data-name="Bushing（衬套）"><rect class="cls-1" x="9.84" width="5.04" height="13.64"/><polygon class="cls-2" points="20.97 73.81 4.07 73.81 7.08 60.68 17.64 60.68 20.97 73.81"/><rect class="cls-3" x="6.47" y="13.64" width="11.94" height="2.95"/><rect class="cls-4" x="5.71" y="17.72" width="13.57" height="4.53"/><rect class="cls-5" x="6.47" y="16.58" width="11.94" height="1.14"/><rect class="cls-6" x="7.07" y="22.25" width="10.57" height="38.43"/><path class="cls-7" d="M6.22,75.22H18.44a0,0,0,0,1,0,0v64a1.14,1.14,0,0,1-1.14,1.14H7.37a1.14,1.14,0,0,1-1.14-1.14v-64A0,0,0,0,1,6.22,75.22Z"/><rect class="cls-8" x="1.12" y="23.39" width="22.56" height="1.9" rx="0.21"/><rect class="cls-9" x="1.12" y="26.93" width="22.56" height="1.9" rx="0.21"/><rect class="cls-10" x="1.12" y="30.2" width="22.56" height="1.9" rx="0.21"/><rect class="cls-11" x="1.12" y="33.47" width="22.56" height="1.9" rx="0.21"/><rect class="cls-12" x="1.12" y="36.75" width="22.56" height="1.9" rx="0.21"/><rect class="cls-13" x="1.12" y="40.02" width="22.56" height="1.9" rx="0.21"/><rect class="cls-14" x="1.12" y="43.29" width="22.56" height="1.9" rx="0.21"/><rect class="cls-15" x="1.12" y="46.56" width="22.56" height="1.9" rx="0.21"/><rect class="cls-16" x="1.12" y="49.84" width="22.56" height="1.9" rx="0.21"/><rect class="cls-17" x="1.12" y="53.11" width="22.56" height="1.9" rx="0.21"/><rect class="cls-18" x="1.12" y="56.38" width="22.56" height="1.9" rx="0.21"/><rect class="cls-19" y="73.81" width="24.84" height="1.42" rx="0.19"/><rect class="cls-20" x="10.46" y="69.6" width="3.41" height="4.2"/><path class="cls-21" d="M9.86,140.36h5.22a0,0,0,0,1,0,0v9.31a.32.32,0,0,1-.32.32H10.19a.32.32,0,0,1-.32-.32v-9.31A0,0,0,0,1,9.86,140.36Z"/></g></g></g></svg>