<svg xmlns="http://www.w3.org/2000/svg" xmlns:xlink="http://www.w3.org/1999/xlink" viewBox="0 0 61.41 149.52"><defs><style>.cls-1{fill:url(#未命名的渐变_67);}.cls-2{fill:url(#未命名的渐变_67-2);}.cls-3{fill:url(#未命名的渐变_67-3);}.cls-4{fill:url(#未命名的渐变_67-4);}.cls-5{fill:url(#未命名的渐变_67-5);}.cls-6{fill:url(#未命名的渐变_67-6);}.cls-7{fill:url(#未命名的渐变_67-7);}.cls-8{fill:url(#未命名的渐变_67-8);}.cls-9{fill:url(#未命名的渐变_67-9);}.cls-10{fill:url(#未命名的渐变_67-10);}.cls-11{fill:url(#未命名的渐变_67-11);}.cls-12{fill:url(#未命名的渐变_67-12);}.cls-13{fill:url(#未命名的渐变_67-13);}</style><linearGradient id="未命名的渐变_67" x1="13.94" y1="3.27" x2="46.37" y2="3.27" gradientUnits="userSpaceOnUse"><stop offset="0" stop-color="#6b6b6b"/><stop offset="0.11" stop-color="#767676"/><stop offset="0.3" stop-color="#959595"/><stop offset="0.41" stop-color="#aaa"/><stop offset="0.56" stop-color="#ccc"/><stop offset="0.71" stop-color="#eaeaea"/><stop offset="0.8" stop-color="#f6f6f6"/><stop offset="0.83" stop-color="#ededed"/><stop offset="0.87" stop-color="#d4d4d4"/><stop offset="0.92" stop-color="#ababab"/><stop offset="0.98" stop-color="#737373"/><stop offset="0.99" stop-color="#666"/></linearGradient><linearGradient id="未命名的渐变_67-2" x1="13.94" y1="146.25" x2="46.37" y2="146.25" xlink:href="#未命名的渐变_67"/><linearGradient id="未命名的渐变_67-3" x1="19.57" y1="74.76" x2="40.8" y2="74.76" xlink:href="#未命名的渐变_67"/><linearGradient id="未命名的渐变_67-4" x1="0" y1="15.79" x2="61.41" y2="15.79" xlink:href="#未命名的渐变_67"/><linearGradient id="未命名的渐变_67-5" x1="0" y1="28.88" x2="61.41" y2="28.88" xlink:href="#未命名的渐变_67"/><linearGradient id="未命名的渐变_67-6" x1="0" y1="41.98" x2="61.41" y2="41.98" xlink:href="#未命名的渐变_67"/><linearGradient id="未命名的渐变_67-7" x1="0" y1="55.07" x2="61.41" y2="55.07" xlink:href="#未命名的渐变_67"/><linearGradient id="未命名的渐变_67-8" x1="0" y1="68.17" x2="61.41" y2="68.17" xlink:href="#未命名的渐变_67"/><linearGradient id="未命名的渐变_67-9" x1="0" y1="81.26" x2="61.41" y2="81.26" xlink:href="#未命名的渐变_67"/><linearGradient id="未命名的渐变_67-10" x1="0" y1="94.35" x2="61.41" y2="94.35" xlink:href="#未命名的渐变_67"/><linearGradient id="未命名的渐变_67-11" x1="0" y1="107.45" x2="61.41" y2="107.45" xlink:href="#未命名的渐变_67"/><linearGradient id="未命名的渐变_67-12" x1="0" y1="120.54" x2="61.41" y2="120.54" xlink:href="#未命名的渐变_67"/><linearGradient id="未命名的渐变_67-13" x1="0" y1="133.63" x2="61.41" y2="133.63" xlink:href="#未命名的渐变_67"/></defs><title>Porcelain insulator（瓷绝缘子）</title><g id="图层_2" data-name="图层 2"><g id="图层_59" data-name="图层 59"><g id="Porcelain_insulator_瓷绝缘子_" data-name="Porcelain insulator（瓷绝缘子）"><rect class="cls-1" x="13.94" width="32.43" height="6.55" rx="0.35"/><rect class="cls-2" x="13.94" y="142.98" width="32.43" height="6.55" rx="0.35"/><rect class="cls-3" x="19.57" y="6.55" width="21.23" height="136.43"/><polygon class="cls-4" points="61.41 18.85 0 18.85 0 15.43 20.7 12.73 40.63 12.73 61.41 15.3 61.41 18.85"/><polygon class="cls-5" points="61.41 31.95 0 31.95 0 28.52 20.7 25.82 40.63 25.82 61.41 28.39 61.41 31.95"/><polygon class="cls-6" points="61.41 45.04 0 45.04 0 41.61 20.7 38.91 40.63 38.91 61.41 41.48 61.41 45.04"/><polygon class="cls-7" points="61.41 58.13 0 58.13 0 54.71 20.7 52.01 40.63 52.01 61.41 54.58 61.41 58.13"/><polygon class="cls-8" points="61.41 71.23 0 71.23 0 67.8 20.7 65.1 40.63 65.1 61.41 67.67 61.41 71.23"/><polygon class="cls-9" points="61.41 84.32 0 84.32 0 80.89 20.7 78.2 40.63 78.2 61.41 80.77 61.41 84.32"/><polygon class="cls-10" points="61.41 97.42 0 97.42 0 93.99 20.7 91.29 40.63 91.29 61.41 93.86 61.41 97.42"/><polygon class="cls-11" points="61.41 110.51 0 110.51 0 107.08 20.7 104.38 40.63 104.38 61.41 106.95 61.41 110.51"/><polygon class="cls-12" points="61.41 123.6 0 123.6 0 120.18 20.7 117.48 40.63 117.48 61.41 120.05 61.41 123.6"/><polygon class="cls-13" points="61.41 136.7 0 136.7 0 133.27 20.7 130.57 40.63 130.57 61.41 133.14 61.41 136.7"/></g></g></g></svg>