<svg xmlns="http://www.w3.org/2000/svg" xmlns:xlink="http://www.w3.org/1999/xlink" viewBox="0 0 43.56 149.66"><defs><style>.cls-1{fill:url(#未命名的渐变_67);}.cls-2{fill:url(#未命名的渐变_67-2);}.cls-3{fill:url(#未命名的渐变_67-3);}.cls-4{fill:url(#未命名的渐变_67-4);}.cls-5{fill:url(#未命名的渐变_67-5);}.cls-6{fill:url(#未命名的渐变_67-6);}.cls-7{fill:url(#未命名的渐变_67-7);}.cls-8{fill:url(#未命名的渐变_67-8);}.cls-9{fill:url(#未命名的渐变_67-9);}.cls-10{fill:url(#未命名的渐变_67-10);}.cls-11{fill:url(#未命名的渐变_67-11);}.cls-12{fill:url(#未命名的渐变_67-12);}.cls-13{fill:url(#未命名的渐变_67-13);}.cls-14{fill:url(#未命名的渐变_67-14);}.cls-15{fill:url(#未命名的渐变_67-15);}</style><linearGradient id="未命名的渐变_67" x1="7.82" y1="16.29" x2="35.16" y2="16.29" gradientUnits="userSpaceOnUse"><stop offset="0" stop-color="#6b6b6b"/><stop offset="0.11" stop-color="#767676"/><stop offset="0.3" stop-color="#959595"/><stop offset="0.41" stop-color="#aaa"/><stop offset="0.56" stop-color="#ccc"/><stop offset="0.71" stop-color="#eaeaea"/><stop offset="0.8" stop-color="#f6f6f6"/><stop offset="0.83" stop-color="#ededed"/><stop offset="0.87" stop-color="#d4d4d4"/><stop offset="0.92" stop-color="#ababab"/><stop offset="0.98" stop-color="#737373"/><stop offset="0.99" stop-color="#666"/></linearGradient><linearGradient id="未命名的渐变_67-2" x1="16.72" y1="7.24" x2="26.5" y2="7.24" xlink:href="#未命名的渐变_67"/><linearGradient id="未命名的渐变_67-3" x1="12.93" y1="74.69" x2="30.1" y2="74.69" xlink:href="#未命名的渐变_67"/><linearGradient id="未命名的渐变_67-4" x1="0" y1="77.12" x2="43.56" y2="77.12" xlink:href="#未命名的渐变_67"/><linearGradient id="未命名的渐变_67-5" x1="14.05" y1="134.24" x2="28.96" y2="134.24" xlink:href="#未命名的渐变_67"/><linearGradient id="未命名的渐变_67-6" x1="14.05" y1="137.48" x2="28.96" y2="137.48" xlink:href="#未命名的渐变_67"/><linearGradient id="未命名的渐变_67-7" x1="14.05" y1="140.71" x2="28.96" y2="140.71" xlink:href="#未命名的渐变_67"/><linearGradient id="未命名的渐变_67-8" x1="14.05" y1="143.94" x2="28.96" y2="143.94" xlink:href="#未命名的渐变_67"/><linearGradient id="未命名的渐变_67-9" x1="20.77" y1="-31.17" x2="90.47" y2="-31.17" gradientTransform="matrix(0.59, 0, 0, 1.12, -11.07, 59.82)" xlink:href="#未命名的渐变_67"/><linearGradient id="未命名的渐变_67-10" x1="20.9" y1="-21.62" x2="90.59" y2="-21.62" gradientTransform="matrix(0.59, 0, 0, 1.12, -11.07, 59.82)" xlink:href="#未命名的渐变_67"/><linearGradient id="未命名的渐变_67-11" x1="20.78" y1="-12.07" x2="90.47" y2="-12.07" gradientTransform="matrix(0.59, 0, 0, 1.12, -11.07, 59.82)" xlink:href="#未命名的渐变_67"/><linearGradient id="未命名的渐变_67-12" x1="21" y1="-2.91" x2="90.7" y2="-2.91" gradientTransform="matrix(0.59, 0, 0, 1.12, -11.07, 59.82)" xlink:href="#未命名的渐变_67"/><linearGradient id="未命名的渐变_67-13" x1="20.88" y1="6.82" x2="90.58" y2="6.82" gradientTransform="matrix(0.59, 0, 0, 1.12, -11.07, 59.82)" xlink:href="#未命名的渐变_67"/><linearGradient id="未命名的渐变_67-14" x1="14.15" y1="7.5" x2="28.99" y2="7.5" xlink:href="#未命名的渐变_67"/><linearGradient id="未命名的渐变_67-15" x1="16.8" y1="140.48" x2="26.83" y2="140.48" xlink:href="#未命名的渐变_67"/></defs><title>Transformer component（变压器元件）</title><g id="图层_2" data-name="图层 2"><g id="图层_59" data-name="图层 59"><g id="Transformer_component_变压器元件_" data-name="Transformer component（变压器元件）"><rect class="cls-1" x="7.82" y="14.49" width="27.34" height="3.6" rx="0.38"/><rect class="cls-2" x="16.72" width="9.78" height="14.49"/><rect class="cls-3" x="12.93" y="18.09" width="17.17" height="113.21"/><rect class="cls-4" y="74.2" width="43.56" height="5.83" rx="0.38"/><rect class="cls-5" x="14.05" y="133.32" width="14.92" height="1.85"/><rect class="cls-6" x="14.05" y="136.55" width="14.92" height="1.85"/><rect class="cls-7" x="14.05" y="139.78" width="14.92" height="1.85"/><rect class="cls-8" x="14.05" y="143.01" width="14.92" height="1.85"/><polygon class="cls-9" points="41.95 28.83 1.18 28.71 1.19 24.34 14.94 20.93 28.17 20.97 41.96 24.29 41.95 28.83"/><polygon class="cls-10" points="41.99 39.56 1.22 39.45 1.23 35.07 14.99 31.67 28.22 31.71 42 35.03 41.99 39.56"/><polygon class="cls-11" points="41.89 50.3 1.12 50.19 1.13 45.81 14.89 42.41 28.12 42.45 41.9 45.77 41.89 50.3"/><polygon class="cls-12" points="41.99 60.61 1.22 60.49 1.23 56.12 14.99 52.71 28.22 52.75 42 56.07 41.99 60.61"/><polygon class="cls-13" points="41.89 71.55 1.12 71.43 1.13 67.06 14.89 63.66 28.12 63.69 41.9 67.01 41.89 71.55"/><rect class="cls-14" x="14.15" y="3.6" width="14.84" height="7.8" rx="0.37"/><rect class="cls-15" x="16.8" y="131.3" width="10.03" height="18.36"/></g></g></g></svg>