<svg xmlns="http://www.w3.org/2000/svg" xmlns:xlink="http://www.w3.org/1999/xlink" viewBox="0 0 150.01 46.09"><defs><style>.cls-1{fill:#a0a0a0;}.cls-2{fill:#666767;}.cls-3{fill:url(#未命名的渐变_143);}.cls-4{fill:#dadae0;}.cls-12,.cls-13,.cls-5{fill:none;stroke-miterlimit:10;}.cls-5{stroke:#afafaf;}.cls-13,.cls-5{stroke-width:0.5px;}.cls-6{fill:#afafaf;}.cls-7{fill:#bcbcbc;}.cls-8{fill:url(#未命名的渐变_143-2);}.cls-9{fill:url(#未命名的渐变_143-3);}.cls-10{fill:url(#未命名的渐变_143-4);}.cls-11{fill:url(#未命名的渐变_143-5);}.cls-12,.cls-13{stroke:#a0a0a0;}.cls-12{stroke-width:0.75px;}</style><linearGradient id="未命名的渐变_143" x1="7.21" y1="37.87" x2="16.2" y2="37.87" gradientUnits="userSpaceOnUse"><stop offset="0" stop-color="#b7b7b8"/><stop offset="0.03" stop-color="#9c9e9e"/><stop offset="0.07" stop-color="#888b8b"/><stop offset="0.09" stop-color="#818484"/><stop offset="0.2" stop-color="#a3a5a5"/><stop offset="0.49" stop-color="#f6f6f6"/><stop offset="0.61" stop-color="#f3f3f3"/><stop offset="0.7" stop-color="#eaeaea"/><stop offset="0.77" stop-color="#dbdbdb"/><stop offset="0.83" stop-color="#c5c6c6"/><stop offset="0.9" stop-color="#aaa"/><stop offset="0.95" stop-color="#888989"/><stop offset="1" stop-color="#666767"/></linearGradient><linearGradient id="未命名的渐变_143-2" x1="114.45" y1="37.87" x2="123.44" y2="37.87" xlink:href="#未命名的渐变_143"/><linearGradient id="未命名的渐变_143-3" x1="132.92" y1="37.87" x2="141.91" y2="37.87" xlink:href="#未命名的渐变_143"/><linearGradient id="未命名的渐变_143-4" x1="52.04" y1="37.87" x2="61.03" y2="37.87" xlink:href="#未命名的渐变_143"/><linearGradient id="未命名的渐变_143-5" x1="70.51" y1="37.87" x2="79.5" y2="37.87" xlink:href="#未命名的渐变_143"/></defs><title>18-wheeler truck(18轮卡车)</title><g id="图层_2" data-name="图层 2"><g id="图层_35" data-name="图层 35"><g id="_18-wheeler_truck_18轮卡车_" data-name="18-wheeler truck(18轮卡车)"><circle class="cls-1" cx="11.7" cy="37.87" r="8.22"/><circle class="cls-2" cx="11.7" cy="37.87" r="7.26"/><circle class="cls-3" cx="11.7" cy="37.87" r="4.49"/><circle class="cls-1" cx="11.7" cy="37.87" r="1.88"/><path class="cls-4" d="M28.84,3.21,22.15,15v0L6.43,18.38a6.43,6.43,0,0,0-4.94,5L0,30.73v5.81H2.38a9.42,9.42,0,0,1,18.65,0H46.5V3.21Z"/><path class="cls-1" d="M30.25,17.31h-5a1.47,1.47,0,0,1-1.28-2.19L29.62,4.87a1.48,1.48,0,0,1,1.29-.76h1.94A1.47,1.47,0,0,1,34.28,6L31.68,16.2A1.49,1.49,0,0,1,30.25,17.31Z"/><path class="cls-1" d="M41.82,17.31h-7.2a1.65,1.65,0,0,1-1.59-2L35.22,5.4A1.61,1.61,0,0,1,36.8,4.11h5a1.63,1.63,0,0,1,1.62,1.65v9.89A1.63,1.63,0,0,1,41.82,17.31Z"/><line class="cls-5" x1="44.26" y1="3.21" x2="44.26" y2="36.54"/><rect class="cls-5" x="22.15" y="30.6" width="22.11" height="0.98"/><rect class="cls-5" x="22.15" y="35.01" width="22.11" height="0.98"/><rect class="cls-6" x="22.15" y="32.1" width="22.11" height="2.54"/><circle class="cls-6" cx="42.26" cy="19.17" r="0.93"/><circle class="cls-6" cx="42.26" cy="29.37" r="0.93"/><rect class="cls-7" x="41.69" y="18.67" width="1.14" height="11.1" rx="0.57"/><polygon class="cls-4" points="22.15 40.93 21.59 40.93 19.93 27.94 22.15 27.65 22.15 40.93"/><line class="cls-5" x1="22.15" y1="14.98" x2="22.15" y2="36.54"/><rect class="cls-1" y="30.87" width="2.12" height="3.77"/><rect class="cls-1" x="22.4" y="18.88" width="3.92" height="1.68"/><circle class="cls-1" cx="118.94" cy="37.87" r="8.22"/><circle class="cls-2" cx="118.94" cy="37.87" r="7.26"/><circle class="cls-8" cx="118.94" cy="37.87" r="4.49"/><circle class="cls-1" cx="118.94" cy="37.87" r="1.88"/><circle class="cls-1" cx="137.41" cy="37.87" r="8.22"/><circle class="cls-2" cx="137.41" cy="37.87" r="7.26"/><circle class="cls-9" cx="137.41" cy="37.87" r="4.49"/><circle class="cls-1" cx="137.41" cy="37.87" r="1.88"/><circle class="cls-1" cx="56.54" cy="37.87" r="8.22"/><circle class="cls-2" cx="56.54" cy="37.87" r="7.26"/><circle class="cls-10" cx="56.54" cy="37.87" r="4.49"/><circle class="cls-1" cx="56.54" cy="37.87" r="1.88"/><circle class="cls-1" cx="75.01" cy="37.87" r="8.22"/><circle class="cls-2" cx="75.01" cy="37.87" r="7.26"/><circle class="cls-11" cx="75.01" cy="37.87" r="4.49"/><circle class="cls-1" cx="75.01" cy="37.87" r="1.88"/><rect class="cls-4" x="46.5" width="103.51" height="29.37"/><rect class="cls-12" x="49.63" y="2.33" width="97.98" height="24.7"/><line class="cls-13" x1="55.18" y1="2.33" x2="55.18" y2="27.04"/><line class="cls-13" x1="60.63" y1="2.33" x2="60.63" y2="27.04"/><line class="cls-13" x1="66.08" y1="2.33" x2="66.08" y2="27.04"/><line class="cls-13" x1="71.52" y1="2.33" x2="71.52" y2="27.04"/><line class="cls-13" x1="76.97" y1="2.33" x2="76.97" y2="27.04"/><line class="cls-13" x1="82.42" y1="2.33" x2="82.42" y2="27.04"/><line class="cls-13" x1="87.86" y1="2.33" x2="87.86" y2="27.04"/><line class="cls-13" x1="93.31" y1="2.33" x2="93.31" y2="27.04"/><line class="cls-13" x1="98.76" y1="2.33" x2="98.76" y2="27.04"/><line class="cls-13" x1="104.2" y1="2.33" x2="104.2" y2="27.04"/><line class="cls-13" x1="109.65" y1="2.33" x2="109.65" y2="27.04"/><line class="cls-13" x1="115.1" y1="2.33" x2="115.1" y2="27.04"/><line class="cls-13" x1="120.54" y1="2.33" x2="120.54" y2="27.04"/><line class="cls-13" x1="125.99" y1="2.33" x2="125.99" y2="27.04"/><line class="cls-13" x1="131.44" y1="2.33" x2="131.44" y2="27.04"/><line class="cls-13" x1="136.89" y1="2.33" x2="136.89" y2="27.04"/><line class="cls-13" x1="142.33" y1="2.33" x2="142.33" y2="27.04"/><line class="cls-13" x1="46.5" y1="3.21" x2="46.5" y2="29.37"/></g></g></g></svg>