<svg xmlns="http://www.w3.org/2000/svg" xmlns:xlink="http://www.w3.org/1999/xlink" viewBox="0 0 162.08 162.24"><defs><style>.cls-1{fill:none;}.cls-2{fill:url(#未命名的渐变_143);}.cls-3{fill:url(#未命名的渐变_143-2);}.cls-4{fill:url(#未命名的渐变_143-3);}.cls-5{fill:url(#未命名的渐变_143-4);}.cls-6{fill:#666767;}.cls-7{fill:#a0a0a0;}.cls-8{clip-path:url(#clip-path);}.cls-9{fill:url(#未命名的渐变_143-5);}.cls-10{fill:url(#未命名的渐变_143-6);}.cls-11{fill:url(#未命名的渐变_143-7);}.cls-12{fill:url(#未命名的渐变_143-8);}.cls-13{fill:url(#未命名的渐变_143-9);}.cls-14{fill:url(#未命名的渐变_143-10);}.cls-15{fill:url(#未命名的渐变_143-11);}.cls-16{fill:url(#未命名的渐变_143-12);}.cls-17{fill:url(#未命名的渐变_143-13);}.cls-18{fill:url(#未命名的渐变_143-14);}.cls-19{fill:url(#未命名的渐变_143-15);}.cls-20{fill:url(#未命名的渐变_143-16);}.cls-21{fill:url(#未命名的渐变_143-17);}.cls-22{fill:url(#未命名的渐变_143-18);}.cls-23{fill:url(#未命名的渐变_143-19);}.cls-24{fill:url(#未命名的渐变_143-20);}.cls-25{fill:#dadae0;}</style><linearGradient id="未命名的渐变_143" x1="90.86" y1="128.89" x2="98.23" y2="128.89" gradientUnits="userSpaceOnUse"><stop offset="0" stop-color="#b7b7b8"/><stop offset="0.03" stop-color="#9c9e9e"/><stop offset="0.07" stop-color="#888b8b"/><stop offset="0.09" stop-color="#818484"/><stop offset="0.2" stop-color="#a3a5a5"/><stop offset="0.49" stop-color="#f6f6f6"/><stop offset="0.61" stop-color="#f3f3f3"/><stop offset="0.7" stop-color="#eaeaea"/><stop offset="0.77" stop-color="#dbdbdb"/><stop offset="0.83" stop-color="#c5c6c6"/><stop offset="0.9" stop-color="#aaa"/><stop offset="0.95" stop-color="#888989"/><stop offset="1" stop-color="#666767"/></linearGradient><linearGradient id="未命名的渐变_143-2" x1="142.95" y1="102.68" x2="150.33" y2="102.68" xlink:href="#未命名的渐变_143"/><linearGradient id="未命名的渐变_143-3" x1="14.06" y1="58.99" x2="21.43" y2="58.99" xlink:href="#未命名的渐变_143"/><linearGradient id="未命名的渐变_143-4" x1="38.74" y1="48.26" x2="46.11" y2="48.26" xlink:href="#未命名的渐变_143"/><clipPath id="clip-path"><polygon class="cls-1" points="156.85 81.99 108.88 100.19 15.24 31.43 34.49 25.67 156.85 81.99"/></clipPath><linearGradient id="未命名的渐变_143-5" x1="245.58" y1="170.4" x2="245.58" y2="160.97" gradientTransform="translate(-25.56 -48.99) scale(0.63 0.83)" xlink:href="#未命名的渐变_143"/><linearGradient id="未命名的渐变_143-6" x1="235.02" y1="162.9" x2="235.02" y2="153.48" gradientTransform="translate(-27.34 -46.22) scale(0.63 0.83)" xlink:href="#未命名的渐变_143"/><linearGradient id="未命名的渐变_143-7" x1="228.2" y1="154.42" x2="228.2" y2="145" gradientTransform="translate(-29.56 -44.23) scale(0.63 0.83)" xlink:href="#未命名的渐变_143"/><linearGradient id="未命名的渐变_143-8" x1="221.38" y1="145.94" x2="221.38" y2="136.52" gradientTransform="translate(-31.78 -42.24) scale(0.63 0.83)" xlink:href="#未命名的渐变_143"/><linearGradient id="未命名的渐变_143-9" x1="214.57" y1="137.46" x2="214.57" y2="128.04" gradientTransform="translate(-34.01 -40.25) scale(0.63 0.83)" xlink:href="#未命名的渐变_143"/><linearGradient id="未命名的渐变_143-10" x1="207.75" y1="128.98" x2="207.75" y2="119.55" gradientTransform="translate(-36.23 -38.26) scale(0.63 0.83)" xlink:href="#未命名的渐变_143"/><linearGradient id="未命名的渐变_143-11" x1="200.93" y1="120.49" x2="200.93" y2="111.07" gradientTransform="translate(-38.45 -36.28) scale(0.63 0.83)" xlink:href="#未命名的渐变_143"/><linearGradient id="未命名的渐变_143-12" x1="194.11" y1="112.01" x2="194.11" y2="102.59" gradientTransform="translate(-40.67 -34.29) scale(0.63 0.83)" xlink:href="#未命名的渐变_143"/><linearGradient id="未命名的渐变_143-13" x1="187.3" y1="103.53" x2="187.3" y2="94.11" gradientTransform="translate(-42.9 -32.3) scale(0.63 0.83)" xlink:href="#未命名的渐变_143"/><linearGradient id="未命名的渐变_143-14" x1="180.48" y1="95.05" x2="180.48" y2="85.63" gradientTransform="translate(-45.12 -30.31) scale(0.63 0.83)" xlink:href="#未命名的渐变_143"/><linearGradient id="未命名的渐变_143-15" x1="173.66" y1="86.57" x2="173.66" y2="77.14" gradientTransform="translate(-47.34 -28.32) scale(0.63 0.83)" xlink:href="#未命名的渐变_143"/><linearGradient id="未命名的渐变_143-16" x1="166.84" y1="78.08" x2="166.84" y2="68.66" gradientTransform="translate(-49.56 -26.33) scale(0.63 0.83)" xlink:href="#未命名的渐变_143"/><linearGradient id="未命名的渐变_143-17" x1="160.03" y1="69.6" x2="160.03" y2="60.18" gradientTransform="translate(-51.79 -24.35) scale(0.63 0.83)" xlink:href="#未命名的渐变_143"/><linearGradient id="未命名的渐变_143-18" x1="153.21" y1="61.12" x2="153.21" y2="51.7" gradientTransform="translate(-54.01 -22.36) scale(0.63 0.83)" xlink:href="#未命名的渐变_143"/><linearGradient id="未命名的渐变_143-19" x1="146.39" y1="52.64" x2="146.39" y2="43.22" gradientTransform="translate(-56.23 -20.37) scale(0.63 0.83)" xlink:href="#未命名的渐变_143"/><linearGradient id="未命名的渐变_143-20" x1="139.58" y1="44.16" x2="139.58" y2="34.73" gradientTransform="translate(-58.45 -18.38) scale(0.63 0.83)" xlink:href="#未命名的渐变_143"/></defs><title>Belt conveyor (带式输送机)</title><g id="图层_2" data-name="图层 2"><g id="图层_35" data-name="图层 35"><g id="Belt_conveyor_带式输送机_" data-name="Belt conveyor (带式输送机)"><rect class="cls-2" x="90.86" y="95.55" width="7.38" height="66.69"/><rect class="cls-3" x="142.95" y="69.34" width="7.38" height="66.69"/><rect class="cls-4" x="14.06" y="32.85" width="7.38" height="52.28"/><rect class="cls-5" x="38.74" y="30.57" width="7.38" height="35.37"/><polygon class="cls-6" points="157.77 83.81 35.93 28.62 34.39 23.75 157.77 74.89 157.77 83.81"/><polygon class="cls-7" points="162.08 71.67 157.77 74.89 34.39 23.75 35.77 23.32 162.08 71.67"/><g class="cls-8"><rect class="cls-9" x="99.05" y="84.49" width="59.99" height="7.81" transform="translate(-23.01 51.72) rotate(-20.85)"/><rect class="cls-10" x="90.63" y="81.05" width="59.99" height="7.81" transform="translate(-22.34 48.5) rotate(-20.85)"/><rect class="cls-11" x="84.11" y="76.01" width="59.99" height="7.81" transform="translate(-20.97 45.85) rotate(-20.85)"/><rect class="cls-12" x="77.6" y="70.96" width="59.99" height="7.81" transform="translate(-19.6 43.2) rotate(-20.85)"/><rect class="cls-13" x="71.08" y="65.92" width="59.99" height="7.81" transform="matrix(0.93, -0.36, 0.36, 0.93, -18.23, 40.55)"/><rect class="cls-14" x="64.57" y="60.87" width="59.99" height="7.81" transform="translate(-16.86 37.9) rotate(-20.85)"/><rect class="cls-15" x="58.06" y="55.83" width="59.99" height="7.81" transform="translate(-15.49 35.25) rotate(-20.85)"/><rect class="cls-16" x="51.54" y="50.78" width="59.99" height="7.81" transform="translate(-14.13 32.6) rotate(-20.85)"/><rect class="cls-17" x="45.03" y="45.74" width="59.99" height="7.81" transform="translate(-12.76 29.95) rotate(-20.85)"/><rect class="cls-18" x="38.51" y="40.69" width="59.99" height="7.81" transform="translate(-11.39 27.3) rotate(-20.85)"/><rect class="cls-19" x="32" y="35.65" width="59.99" height="7.81" transform="translate(-10.02 24.65) rotate(-20.85)"/><rect class="cls-20" x="25.48" y="30.6" width="59.99" height="7.81" transform="translate(-8.65 22.01) rotate(-20.85)"/><rect class="cls-21" x="18.97" y="25.56" width="59.99" height="7.81" transform="translate(-7.28 19.36) rotate(-20.85)"/><rect class="cls-22" x="12.45" y="20.51" width="59.99" height="7.81" transform="translate(-5.91 16.71) rotate(-20.85)"/><rect class="cls-23" x="5.94" y="15.47" width="59.99" height="7.81" transform="translate(-4.54 14.06) rotate(-20.85)"/><rect class="cls-24" x="-0.57" y="10.42" width="59.99" height="7.81" transform="translate(-3.17 11.41) rotate(-20.85)"/></g><polygon class="cls-6" points="106.96 108.56 12.08 31.87 12.08 27.56 106.96 98.3 106.96 108.56"/><polygon class="cls-7" points="111.25 96.81 106.96 98.3 12.08 27.56 13.3 27.56 111.25 96.81"/><polygon class="cls-25" points="111.25 107.07 106.96 108.56 106.96 98.3 111.25 96.81 111.25 107.07"/><polygon class="cls-25" points="162.08 80.6 157.77 83.81 157.77 74.89 162.08 71.67 162.08 80.6"/></g></g></g></svg>