<svg xmlns="http://www.w3.org/2000/svg" xmlns:xlink="http://www.w3.org/1999/xlink" viewBox="0 0 162.08 108.56"><defs><style>.cls-1{fill:none;}.cls-2{fill:#666767;}.cls-3{fill:#a0a0a0;}.cls-4{clip-path:url(#clip-path);}.cls-5{fill:url(#未命名的渐变_143);}.cls-6{fill:url(#未命名的渐变_143-2);}.cls-7{fill:url(#未命名的渐变_143-3);}.cls-8{fill:url(#未命名的渐变_143-4);}.cls-9{fill:url(#未命名的渐变_143-5);}.cls-10{fill:url(#未命名的渐变_143-6);}.cls-11{fill:url(#未命名的渐变_143-7);}.cls-12{fill:url(#未命名的渐变_143-8);}.cls-13{fill:url(#未命名的渐变_143-9);}.cls-14{fill:url(#未命名的渐变_143-10);}.cls-15{fill:url(#未命名的渐变_143-11);}.cls-16{fill:url(#未命名的渐变_143-12);}.cls-17{fill:url(#未命名的渐变_143-13);}.cls-18{fill:url(#未命名的渐变_143-14);}.cls-19{fill:url(#未命名的渐变_143-15);}.cls-20{fill:url(#未命名的渐变_143-16);}.cls-21{fill:#dadae0;}</style><clipPath id="clip-path"><polygon class="cls-1" points="156.85 81.99 108.88 100.19 15.24 31.43 34.49 25.67 156.85 81.99"/></clipPath><linearGradient id="未命名的渐变_143" x1="141.54" y1="102.3" x2="141.54" y2="92.88" gradientTransform="translate(39.94 7.47) scale(0.63 0.83)" gradientUnits="userSpaceOnUse"><stop offset="0" stop-color="#b7b7b8"/><stop offset="0.03" stop-color="#9c9e9e"/><stop offset="0.07" stop-color="#888b8b"/><stop offset="0.09" stop-color="#818484"/><stop offset="0.2" stop-color="#a3a5a5"/><stop offset="0.49" stop-color="#f6f6f6"/><stop offset="0.61" stop-color="#f3f3f3"/><stop offset="0.7" stop-color="#eaeaea"/><stop offset="0.77" stop-color="#dbdbdb"/><stop offset="0.83" stop-color="#c5c6c6"/><stop offset="0.9" stop-color="#aaa"/><stop offset="0.95" stop-color="#888989"/><stop offset="1" stop-color="#666767"/></linearGradient><linearGradient id="未命名的渐变_143-2" x1="130.98" y1="94.81" x2="130.98" y2="85.39" gradientTransform="translate(38.16 10.25) scale(0.63 0.83)" xlink:href="#未命名的渐变_143"/><linearGradient id="未命名的渐变_143-3" x1="124.16" y1="86.33" x2="124.16" y2="76.91" gradientTransform="translate(35.94 12.24) scale(0.63 0.83)" xlink:href="#未命名的渐变_143"/><linearGradient id="未命名的渐变_143-4" x1="117.35" y1="77.85" x2="117.35" y2="68.42" gradientTransform="translate(33.72 14.22) scale(0.63 0.83)" xlink:href="#未命名的渐变_143"/><linearGradient id="未命名的渐变_143-5" x1="110.53" y1="69.36" x2="110.53" y2="59.94" gradientTransform="translate(31.49 16.21) scale(0.63 0.83)" xlink:href="#未命名的渐变_143"/><linearGradient id="未命名的渐变_143-6" x1="103.71" y1="60.88" x2="103.71" y2="51.46" gradientTransform="translate(29.27 18.2) scale(0.63 0.83)" xlink:href="#未命名的渐变_143"/><linearGradient id="未命名的渐变_143-7" x1="96.89" y1="52.4" x2="96.89" y2="42.98" gradientTransform="translate(27.05 20.19) scale(0.63 0.83)" xlink:href="#未命名的渐变_143"/><linearGradient id="未命名的渐变_143-8" x1="90.08" y1="43.92" x2="90.08" y2="34.5" gradientTransform="translate(24.83 22.18) scale(0.63 0.83)" xlink:href="#未命名的渐变_143"/><linearGradient id="未命名的渐变_143-9" x1="83.26" y1="35.44" x2="83.26" y2="26.01" gradientTransform="translate(22.6 24.17) scale(0.63 0.83)" xlink:href="#未命名的渐变_143"/><linearGradient id="未命名的渐变_143-10" x1="76.44" y1="26.95" x2="76.44" y2="17.53" gradientTransform="translate(20.38 26.15) scale(0.63 0.83)" xlink:href="#未命名的渐变_143"/><linearGradient id="未命名的渐变_143-11" x1="69.62" y1="18.47" x2="69.62" y2="9.05" gradientTransform="translate(18.16 28.14) scale(0.63 0.83)" xlink:href="#未命名的渐变_143"/><linearGradient id="未命名的渐变_143-12" x1="62.81" y1="9.99" x2="62.81" y2="0.57" gradientTransform="translate(15.94 30.13) scale(0.63 0.83)" xlink:href="#未命名的渐变_143"/><linearGradient id="未命名的渐变_143-13" x1="55.99" y1="1.51" x2="55.99" y2="-7.91" gradientTransform="translate(13.72 32.12) scale(0.63 0.83)" xlink:href="#未命名的渐变_143"/><linearGradient id="未命名的渐变_143-14" x1="49.17" y1="-6.97" x2="49.17" y2="-16.4" gradientTransform="translate(11.49 34.11) scale(0.63 0.83)" xlink:href="#未命名的渐变_143"/><linearGradient id="未命名的渐变_143-15" x1="42.35" y1="-15.46" x2="42.35" y2="-24.88" gradientTransform="translate(9.27 36.09) scale(0.63 0.83)" xlink:href="#未命名的渐变_143"/><linearGradient id="未命名的渐变_143-16" x1="35.54" y1="-23.94" x2="35.54" y2="-33.36" gradientTransform="translate(7.05 38.08) scale(0.63 0.83)" xlink:href="#未命名的渐变_143"/></defs><title>Conveyor(传送带)</title><g id="图层_2" data-name="图层 2"><g id="图层_35" data-name="图层 35"><g id="Conveyor_传送带_" data-name="Conveyor(传送带)"><polygon class="cls-2" points="157.77 83.81 35.93 28.62 34.39 23.75 157.77 74.89 157.77 83.81"/><polygon class="cls-3" points="162.08 71.67 157.77 74.89 34.39 23.75 35.77 23.32 162.08 71.67"/><g class="cls-4"><rect class="cls-5" x="99.05" y="84.49" width="59.99" height="7.81" transform="translate(-23.01 51.72) rotate(-20.85)"/><rect class="cls-6" x="90.63" y="81.05" width="59.99" height="7.81" transform="translate(-22.34 48.5) rotate(-20.85)"/><rect class="cls-7" x="84.11" y="76.01" width="59.99" height="7.81" transform="translate(-20.97 45.85) rotate(-20.85)"/><rect class="cls-8" x="77.6" y="70.96" width="59.99" height="7.81" transform="translate(-19.6 43.2) rotate(-20.85)"/><rect class="cls-9" x="71.08" y="65.92" width="59.99" height="7.81" transform="matrix(0.93, -0.36, 0.36, 0.93, -18.23, 40.55)"/><rect class="cls-10" x="64.57" y="60.87" width="59.99" height="7.81" transform="translate(-16.86 37.9) rotate(-20.85)"/><rect class="cls-11" x="58.06" y="55.83" width="59.99" height="7.81" transform="translate(-15.49 35.25) rotate(-20.85)"/><rect class="cls-12" x="51.54" y="50.78" width="59.99" height="7.81" transform="translate(-14.13 32.6) rotate(-20.85)"/><rect class="cls-13" x="45.03" y="45.74" width="59.99" height="7.81" transform="translate(-12.76 29.95) rotate(-20.85)"/><rect class="cls-14" x="38.51" y="40.69" width="59.99" height="7.81" transform="translate(-11.39 27.3) rotate(-20.85)"/><rect class="cls-15" x="32" y="35.65" width="59.99" height="7.81" transform="translate(-10.02 24.65) rotate(-20.85)"/><rect class="cls-16" x="25.48" y="30.6" width="59.99" height="7.81" transform="translate(-8.65 22.01) rotate(-20.85)"/><rect class="cls-17" x="18.97" y="25.56" width="59.99" height="7.81" transform="translate(-7.28 19.36) rotate(-20.85)"/><rect class="cls-18" x="12.45" y="20.51" width="59.99" height="7.81" transform="translate(-5.91 16.71) rotate(-20.85)"/><rect class="cls-19" x="5.94" y="15.47" width="59.99" height="7.81" transform="translate(-4.54 14.06) rotate(-20.85)"/><rect class="cls-20" x="-0.57" y="10.42" width="59.99" height="7.81" transform="translate(-3.17 11.41) rotate(-20.85)"/></g><polygon class="cls-2" points="106.96 108.56 12.08 31.87 12.08 27.56 106.96 98.3 106.96 108.56"/><polygon class="cls-3" points="111.25 96.81 106.96 98.3 12.08 27.56 13.3 27.56 111.25 96.81"/><polygon class="cls-21" points="111.25 107.07 106.96 108.56 106.96 98.3 111.25 96.81 111.25 107.07"/><polygon class="cls-21" points="162.08 80.6 157.77 83.81 157.77 74.89 162.08 71.67 162.08 80.6"/></g></g></g></svg>