<svg xmlns="http://www.w3.org/2000/svg" xmlns:xlink="http://www.w3.org/1999/xlink" viewBox="0 0 150 99.39"><defs><style>.cls-1{fill:url(#未命名的渐变_4);}.cls-2{fill:url(#未命名的渐变_4-2);}.cls-3{fill:#dadae0;}.cls-4{fill:#a0a0a0;}.cls-14,.cls-5,.cls-6,.cls-8{fill:none;stroke-miterlimit:10;}.cls-5,.cls-6{stroke:#a0a0a0;}.cls-6{stroke-dasharray:2.02 2.02;}.cls-7{fill:#6d6d6d;}.cls-8{stroke:#898989;}.cls-9{fill:url(#未命名的渐变_143);}.cls-10{fill:url(#未命名的渐变_143-2);}.cls-11{fill:url(#未命名的渐变_143-3);}.cls-12{fill:url(#未命名的渐变_143-4);}.cls-13{fill:url(#未命名的渐变_2);}.cls-14{stroke:#afafaf;stroke-width:0.5px;}.cls-15{fill:#afafaf;}.cls-16{fill:#bcbcbc;}</style><linearGradient id="未命名的渐变_4" x1="46.03" y1="-10.8" x2="35.52" y2="21.31" gradientUnits="userSpaceOnUse"><stop offset="0.72" stop-color="#4d5d5f"/><stop offset="0.75" stop-color="#6f8087"/><stop offset="0.79" stop-color="#a4b8c5"/><stop offset="0.82" stop-color="#b9cede"/></linearGradient><linearGradient id="未命名的渐变_4-2" x1="26.45" y1="27.95" x2="9.97" y2="78.28" gradientTransform="translate(59.04 1.64) rotate(61.89)" xlink:href="#未命名的渐变_4"/><linearGradient id="未命名的渐变_143" x1="5.3" y1="4.15" x2="7.87" y2="4.15" gradientUnits="userSpaceOnUse"><stop offset="0" stop-color="#b7b7b8"/><stop offset="0.03" stop-color="#9c9e9e"/><stop offset="0.07" stop-color="#888b8b"/><stop offset="0.09" stop-color="#818484"/><stop offset="0.2" stop-color="#a3a5a5"/><stop offset="0.49" stop-color="#f6f6f6"/><stop offset="0.61" stop-color="#f3f3f3"/><stop offset="0.7" stop-color="#eaeaea"/><stop offset="0.77" stop-color="#dbdbdb"/><stop offset="0.83" stop-color="#c5c6c6"/><stop offset="0.9" stop-color="#aaa"/><stop offset="0.95" stop-color="#888989"/><stop offset="1" stop-color="#666767"/></linearGradient><linearGradient id="未命名的渐变_143-2" x1="12.39" y1="16.26" x2="14.95" y2="16.26" xlink:href="#未命名的渐变_143"/><linearGradient id="未命名的渐变_143-3" x1="15.78" y1="65.93" x2="17.85" y2="65.93" xlink:href="#未命名的渐变_143"/><linearGradient id="未命名的渐变_143-4" x1="65.62" y1="25.16" x2="69.28" y2="25.16" xlink:href="#未命名的渐变_143"/><linearGradient id="未命名的渐变_2" x1="67.82" y1="36.73" x2="72.55" y2="36.09" gradientTransform="translate(-3.5 7.06) rotate(-5.27)" gradientUnits="userSpaceOnUse"><stop offset="0.27" stop-color="#4d5d5f"/><stop offset="0.31" stop-color="#59696d"/><stop offset="0.45" stop-color="#82959d"/><stop offset="0.58" stop-color="#a0b4c1"/><stop offset="0.69" stop-color="#b2c7d6"/><stop offset="0.76" stop-color="#b9cede"/></linearGradient></defs><title>Digging machine（挖掘机）</title><g id="图层_2" data-name="图层 2"><g id="图层_35" data-name="图层 35"><g id="Digging_machine_挖掘机_" data-name="Digging machine（挖掘机）"><polygon class="cls-1" points="68.74 24.61 7.25 5.43 7.25 2.87 68.74 22.04 68.74 24.61"/><polygon class="cls-2" points="10.2 78.6 1.5 12.92 3.77 11.71 12.46 77.4 10.2 78.6"/><line class="cls-3" x1="89.26" y1="71.02" x2="88.86" y2="71.02"/><rect class="cls-4" x="86.35" y="71.33" width="31.91" height="6.77"/><rect class="cls-5" x="56.5" y="77.63" width="70.57" height="17.34" rx="7.47"/><rect class="cls-6" x="54.85" y="76.06" width="73.87" height="20.46" rx="8.82"/><circle class="cls-4" cx="65.55" cy="86.29" r="6.99"/><circle class="cls-4" cx="78.56" cy="86.29" r="6.99"/><circle class="cls-4" cx="91.56" cy="86.29" r="6.99"/><circle class="cls-4" cx="104.57" cy="86.29" r="6.99"/><circle class="cls-4" cx="117.57" cy="86.29" r="6.99"/><rect class="cls-3" x="61.93" y="81.41" width="59.7" height="9.76"/><circle class="cls-4" cx="65.55" cy="86.29" r="0.84"/><circle class="cls-4" cx="78.56" cy="86.29" r="0.84"/><circle class="cls-4" cx="91.56" cy="86.29" r="0.84"/><circle class="cls-4" cx="104.57" cy="86.29" r="0.84"/><circle class="cls-4" cx="117.57" cy="86.29" r="0.84"/><path class="cls-4" d="M20,69.09H14.8L1.72,13.88a11.63,11.63,0,0,1,.87-7.12L5.43.67a1.15,1.15,0,0,1,2.09,0l5.79,12.74Z"/><path class="cls-4" d="M20.46,68.2H14.59l-3,5.74a5.2,5.2,0,0,0-3-.9C2.89,72.37,0,76.48,0,80.47c0,.24,0,.73,0,.73.06.59.34,3,.54,4,.83,4.18,5.59,13.6,5.59,13.6L20.91,70.33Z"/><polyline class="cls-7" points="20.91 70.33 21.14 71.08 6.36 99.39 6.17 98.78"/><circle class="cls-8" cx="6.58" cy="4.15" r="1.28"/><circle class="cls-9" cx="6.58" cy="4.15" r="1.28"/><circle class="cls-8" cx="13.67" cy="16.26" r="1.28"/><circle class="cls-10" cx="13.67" cy="16.26" r="1.28"/><circle class="cls-8" cx="16.81" cy="65.93" r="1.04"/><circle class="cls-11" cx="16.81" cy="65.93" r="1.04"/><path class="cls-4" d="M93.9,59.37,78,29A22.26,22.26,0,0,0,60.85,17.25l-46-4.32a3.24,3.24,0,0,0-3.54,3.23h0a3.24,3.24,0,0,0,2.73,3.2L55.88,26a23.76,23.76,0,0,1,17.3,12.39l11,21Z"/><circle class="cls-8" cx="67.45" cy="25.16" r="1.83"/><circle class="cls-12" cx="67.45" cy="25.16" r="1.83"/><polygon class="cls-13" points="72.64 46.18 70.65 46.37 66.78 27.57 68.77 27.38 72.64 46.18"/><rect class="cls-3" x="66.39" y="67.76" width="83.61" height="3.58"/><path class="cls-3" d="M66.39,71.33v-23s1-2.77,1.6-3.83l5.75-10.85a6.87,6.87,0,0,1,6.12-3.71l24.28.26V71.33Z"/><path class="cls-4" d="M94.08,50.11H82.91a2.28,2.28,0,0,1-2.45-2.66l3.38-13.09a2.47,2.47,0,0,1,2.46-1.71h7.78a2.36,2.36,0,0,1,2.51,2.19V47.93A2.36,2.36,0,0,1,94.08,50.11Z"/><line class="cls-14" x1="97.95" y1="31.47" x2="97.95" y2="71.33"/><rect class="cls-14" x="66.39" y="62.41" width="31.56" height="1.3"/><rect class="cls-15" x="66.39" y="64.4" width="31.56" height="3.36"/><circle class="cls-15" cx="92.66" cy="52.58" r="1.23"/><circle class="cls-15" cx="92.66" cy="59.91" r="1.23"/><rect class="cls-16" x="91.9" y="51.92" width="1.51" height="8.5" rx="0.57"/><rect class="cls-4" x="66.39" y="52.2" width="5.18" height="2.23"/><rect class="cls-3" x="104.14" y="52.58" width="45.86" height="18.28"/><rect class="cls-4" x="104.14" y="44.65" width="41.59" height="7.93"/><path class="cls-4" d="M76.77,50.11H70.12a2,2,0,0,1-1.7-2.89l7.52-13.56a2,2,0,0,1,1.7-1h2.57a2,2,0,0,1,1.89,2.44L78.66,48.64A2,2,0,0,1,76.77,50.11Z"/></g></g></g></svg>