<svg xmlns="http://www.w3.org/2000/svg" xmlns:xlink="http://www.w3.org/1999/xlink" viewBox="0 0 150.03 87.6"><defs><style>.cls-1{fill:#757575;}.cls-2{fill:#a0a0a0;}.cls-3{fill:#666767;}.cls-4{fill:url(#未命名的渐变_143);}.cls-5,.cls-6{fill:none;stroke:#a0a0a0;stroke-miterlimit:10;}.cls-5{stroke-width:0.75px;}.cls-6{stroke-width:0.5px;}.cls-7{fill:url(#未命名的渐变_143-2);}.cls-8{fill:url(#未命名的渐变_143-3);}.cls-9{fill:url(#未命名的渐变_143-4);}.cls-10{fill:url(#未命名的渐变_143-5);}.cls-11{fill:url(#未命名的渐变_143-6);}.cls-12{fill:url(#未命名的渐变_143-7);}.cls-13{fill:url(#未命名的渐变_143-8);}.cls-14{fill:url(#未命名的渐变_143-9);}.cls-15{fill:url(#未命名的渐变_143-10);}.cls-16{fill:url(#未命名的渐变_143-11);}.cls-17{fill:url(#未命名的渐变_143-12);}.cls-18{fill:url(#未命名的渐变_143-13);}.cls-19{fill:#dadae0;}</style><linearGradient id="未命名的渐变_143" x1="16.93" y1="71.05" x2="35.03" y2="71.05" gradientUnits="userSpaceOnUse"><stop offset="0" stop-color="#b7b7b8"/><stop offset="0.03" stop-color="#9c9e9e"/><stop offset="0.07" stop-color="#888b8b"/><stop offset="0.09" stop-color="#818484"/><stop offset="0.2" stop-color="#a3a5a5"/><stop offset="0.49" stop-color="#f6f6f6"/><stop offset="0.61" stop-color="#f3f3f3"/><stop offset="0.7" stop-color="#eaeaea"/><stop offset="0.77" stop-color="#dbdbdb"/><stop offset="0.83" stop-color="#c5c6c6"/><stop offset="0.9" stop-color="#aaa"/><stop offset="0.95" stop-color="#888989"/><stop offset="1" stop-color="#666767"/></linearGradient><linearGradient id="未命名的渐变_143-2" x1="24.06" y1="83.08" x2="27.9" y2="83.08" xlink:href="#未命名的渐变_143"/><linearGradient id="未命名的渐变_143-3" x1="24.41" y1="62.42" x2="28.25" y2="62.42" gradientTransform="matrix(0.5, -0.87, 0.87, 0.5, -30.83, 68.66)" xlink:href="#未命名的渐变_143"/><linearGradient id="未命名的渐变_143-4" x1="42.47" y1="52.4" x2="46.31" y2="52.4" gradientTransform="translate(13.21 129.68) rotate(-120)" xlink:href="#未命名的渐变_143"/><linearGradient id="未命名的渐变_143-5" x1="60.19" y1="63.03" x2="64.02" y2="63.03" gradientTransform="translate(88.09 122.06) rotate(180)" xlink:href="#未命名的渐变_143"/><linearGradient id="未命名的渐变_143-6" x1="59.84" y1="83.68" x2="63.67" y2="83.68" gradientTransform="matrix(-0.5, 0.87, -0.87, -0.5, 118.92, 53.4)" xlink:href="#未命名的渐变_143"/><linearGradient id="未命名的渐变_143-7" x1="41.77" y1="93.71" x2="45.61" y2="93.71" gradientTransform="translate(74.87 -7.63) rotate(60)" xlink:href="#未命名的渐变_143"/><linearGradient id="未命名的渐变_143-8" x1="116.16" y1="71.05" x2="134.25" y2="71.05" xlink:href="#未命名的渐变_143"/><linearGradient id="未命名的渐变_143-9" x1="123.28" y1="83.08" x2="127.12" y2="83.08" xlink:href="#未命名的渐变_143"/><linearGradient id="未命名的渐变_143-10" x1="74.02" y1="148.35" x2="77.86" y2="148.35" gradientTransform="matrix(0.5, -0.87, 0.87, 0.5, -30.83, 68.66)" xlink:href="#未命名的渐变_143"/><linearGradient id="未命名的渐变_143-11" x1="-7.14" y1="138.32" x2="-3.3" y2="138.32" gradientTransform="translate(13.21 129.68) rotate(-120)" xlink:href="#未命名的渐变_143"/><linearGradient id="未命名的渐变_143-12" x1="10.23" y1="-2.25" x2="14.06" y2="-2.25" gradientTransform="matrix(-0.5, 0.87, -0.87, -0.5, 118.92, 53.4)" xlink:href="#未命名的渐变_143"/><linearGradient id="未命名的渐变_143-13" x1="91.38" y1="7.78" x2="95.22" y2="7.78" gradientTransform="translate(74.87 -7.63) rotate(60)" xlink:href="#未命名的渐变_143"/></defs><title>Dumpcart（垃圾车）</title><g id="图层_2" data-name="图层 2"><g id="图层_35" data-name="图层 35"><g id="Dumpcart_垃圾车_" data-name="Dumpcart（垃圾车）"><rect class="cls-1" x="41" y="64.1" width="70.17" height="2.86"/><rect class="cls-1" x="39.88" y="68.81" width="70.17" height="2.86"/><circle class="cls-2" cx="25.98" cy="71.05" r="16.55"/><circle class="cls-3" cx="25.98" cy="71.05" r="14.62"/><circle class="cls-4" cx="25.98" cy="71.05" r="9.05"/><circle class="cls-2" cx="25.98" cy="71.05" r="3.78"/><rect class="cls-1" x="12.18" y="0.08" width="125.66" height="54.44" transform="translate(0.03 -0.09) rotate(0.07)"/><rect class="cls-5" x="15.98" y="4.41" width="118.94" height="45.78" transform="translate(0.03 -0.09) rotate(0.07)"/><line class="cls-6" x1="22.75" y1="4.34" x2="22.69" y2="50.12"/><line class="cls-6" x1="29.36" y1="4.35" x2="29.31" y2="50.13"/><line class="cls-6" x1="35.97" y1="4.36" x2="35.92" y2="50.14"/><line class="cls-6" x1="42.59" y1="4.36" x2="42.53" y2="50.15"/><line class="cls-6" x1="49.2" y1="4.37" x2="49.14" y2="50.15"/><line class="cls-6" x1="55.81" y1="4.38" x2="55.75" y2="50.16"/><line class="cls-6" x1="62.42" y1="4.39" x2="62.37" y2="50.17"/><line class="cls-6" x1="69.04" y1="4.4" x2="68.98" y2="50.18"/><line class="cls-6" x1="75.65" y1="4.41" x2="75.59" y2="50.19"/><line class="cls-6" x1="82.26" y1="4.41" x2="82.2" y2="50.19"/><line class="cls-6" x1="88.87" y1="4.42" x2="88.82" y2="50.2"/><line class="cls-6" x1="95.48" y1="4.43" x2="95.43" y2="50.21"/><line class="cls-6" x1="102.1" y1="4.44" x2="102.04" y2="50.22"/><line class="cls-6" x1="108.71" y1="4.45" x2="108.65" y2="50.23"/><line class="cls-6" x1="115.32" y1="4.45" x2="115.27" y2="50.24"/><line class="cls-6" x1="121.93" y1="4.46" x2="121.88" y2="50.24"/><line class="cls-6" x1="128.55" y1="4.47" x2="128.49" y2="50.25"/><circle class="cls-7" cx="25.98" cy="83.08" r="1.92"/><circle class="cls-8" cx="36.39" cy="77.06" r="1.92"/><circle class="cls-9" cx="36.39" cy="65.04" r="1.92"/><circle class="cls-10" cx="25.98" cy="59.03" r="1.92"/><circle class="cls-11" cx="15.57" cy="65.04" r="1.92"/><circle class="cls-12" cx="15.57" cy="77.06" r="1.92"/><circle class="cls-2" cx="125.2" cy="71.05" r="16.55"/><circle class="cls-3" cx="125.2" cy="71.05" r="14.62"/><circle class="cls-13" cx="125.2" cy="71.05" r="9.05"/><circle class="cls-2" cx="125.2" cy="71.05" r="3.78"/><circle class="cls-14" cx="125.2" cy="83.08" r="1.92"/><circle class="cls-15" cx="135.61" cy="77.06" r="1.92"/><circle class="cls-16" cx="135.61" cy="65.04" r="1.92"/><circle class="cls-17" cx="114.79" cy="65.04" r="1.92"/><circle class="cls-18" cx="114.79" cy="77.06" r="1.92"/><path class="cls-19" d="M150,62.25c0,.89-3.07-2.09-8.31,0H0V53.78H141.72c5.24,1.42,8.31,3.12,8.31,0Z"/></g></g></g></svg>