<svg xmlns="http://www.w3.org/2000/svg" viewBox="0 0 150 142.7"><defs><style>.cls-1{fill:#a0a0a0;}.cls-2{fill:#c7c6c6;}.cls-3{fill:#6e6e6d;}.cls-4{fill:#727272;}.cls-5{fill:#c0bfbf;}.cls-6{fill:none;stroke:#c0bfbf;stroke-linecap:round;stroke-linejoin:round;}.cls-7{fill:#7c7c7d;}</style></defs><title>Gantry crane(龙门起重机)</title><g id="图层_2" data-name="图层 2"><g id="图层_35" data-name="图层 35"><g id="Gantry_crane_龙门起重机_" data-name="Gantry crane(龙门起重机)"><rect class="cls-1" x="2.04" y="4.93" width="134.9" height="4.82"/><polygon class="cls-2" points="135.97 19.21 142.03 21.61 150 11.59 135.97 11.59 135.97 19.21"/><rect class="cls-1" x="134.81" y="11.59" width="7.62" height="109.02" transform="translate(277.24 132.2) rotate(180)"/><rect class="cls-1" x="131.95" y="120.12" width="13.34" height="11.8" transform="translate(277.24 252.04) rotate(180)"/><rect class="cls-1" x="136.57" y="131.92" width="4.1" height="1.61" transform="translate(277.24 265.45) rotate(180)"/><circle class="cls-3" cx="138.62" cy="137.17" r="5.05"/><polygon class="cls-2" points="14.03 18.97 7.96 21.37 0 11.35 14.03 11.35 14.03 18.97"/><rect class="cls-4" x="15.19" y="3.73" width="119.62" height="1.19"/><rect class="cls-4" x="15.19" y="8.55" width="119.62" height="1.19"/><rect class="cls-1" x="7.57" y="11.6" width="7.62" height="109.02"/><rect class="cls-1" y="3.07" width="15.19" height="8.52"/><rect class="cls-1" x="4.71" y="120.61" width="13.34" height="11.8"/><rect class="cls-1" x="134.81" y="3.07" width="15.19" height="8.52"/><rect class="cls-4" y="10.21" width="15.19" height="1.39"/><rect class="cls-4" y="1.68" width="15.19" height="1.39"/><rect class="cls-4" x="134.81" y="10.21" width="15.19" height="1.39"/><rect class="cls-4" x="134.81" y="1.68" width="15.19" height="1.39"/><rect class="cls-1" x="9.33" y="132.41" width="4.1" height="1.61"/><circle class="cls-3" cx="11.38" cy="137.65" r="5.05"/><rect class="cls-5" x="14.03" y="0.16" width="1.3" height="13.34" rx="0.6"/><rect class="cls-5" x="134.81" width="1.3" height="13.34" rx="0.6"/><rect class="cls-5" x="96.35" y="7.7" width="14.45" height="5.63"/><rect class="cls-1" x="99.76" y="11.6" width="7.64" height="3.98"/><rect class="cls-5" x="92.53" y="15.58" width="22.09" height="10.84" rx="1.53"/><rect class="cls-1" x="102.4" y="26.41" width="2.36" height="1.04"/><rect class="cls-1" x="101.28" y="27.46" width="4.58" height="7.78"/><path class="cls-5" d="M103.65,36.37a3.36,3.36,0,0,0-3.28,1.82,3.72,3.72,0,0,0,.51,4.13,4.12,4.12,0,0,0,4.42,1.2,4.49,4.49,0,0,0,3-4,4.86,4.86,0,0,1-2.74,4.66,5.24,5.24,0,0,1-5.77-.83,5.62,5.62,0,0,1-1.53-6.05,6,6,0,0,1,5.36-4h.12a1.51,1.51,0,1,1,.12,3Z"/><line class="cls-6" x1="110.53" y1="26.41" x2="110.53" y2="93.66"/><rect class="cls-5" x="109.39" y="86.99" width="2.29" height="8.89"/><rect class="cls-5" x="107.71" y="93.66" width="5.65" height="10.56"/><circle class="cls-1" cx="110.53" cy="96.48" r="1.48"/><circle class="cls-7" cx="110.53" cy="101.48" r="1.48"/></g></g></g></svg>