<svg xmlns="http://www.w3.org/2000/svg" viewBox="0 0 150 59.98"><defs><style>.cls-1{fill:#a0a0a0;}.cls-2{fill:#717070;}.cls-3{fill:#666767;}.cls-4{fill:#dadae0;}.cls-5{fill:#6d6b6b;}</style></defs><title>Hopper car(漏斗车)</title><g id="图层_2" data-name="图层 2"><g id="图层_35" data-name="图层 35"><g id="Hopper_car_漏斗车_" data-name="Hopper car(漏斗车)"><circle class="cls-1" cx="25.93" cy="52.49" r="7.49"/><circle class="cls-2" cx="25.93" cy="52.49" r="6.49"/><circle class="cls-1" cx="25.93" cy="52.49" r="5.91"/><circle class="cls-2" cx="25.93" cy="52.49" r="2.6"/><circle class="cls-1" cx="25.93" cy="52.49" r="2.22"/><circle class="cls-3" cx="25.93" cy="52.49" r="2.03"/><circle class="cls-1" cx="46.95" cy="52.49" r="7.49"/><circle class="cls-2" cx="46.95" cy="52.49" r="6.49"/><circle class="cls-1" cx="46.95" cy="52.49" r="5.91"/><circle class="cls-2" cx="46.95" cy="52.49" r="2.6"/><circle class="cls-1" cx="46.95" cy="52.49" r="2.22"/><circle class="cls-3" cx="46.95" cy="52.49" r="2.03"/><circle class="cls-1" cx="103.97" cy="52.49" r="7.49"/><circle class="cls-2" cx="103.97" cy="52.49" r="6.49"/><circle class="cls-1" cx="103.97" cy="52.49" r="5.91"/><circle class="cls-2" cx="103.97" cy="52.49" r="2.6"/><circle class="cls-1" cx="103.97" cy="52.49" r="2.22"/><circle class="cls-3" cx="103.97" cy="52.49" r="2.03"/><circle class="cls-1" cx="124.99" cy="52.49" r="7.49"/><circle class="cls-2" cx="124.99" cy="52.49" r="6.49"/><circle class="cls-1" cx="124.99" cy="52.49" r="5.91"/><circle class="cls-2" cx="124.99" cy="52.49" r="2.6"/><circle class="cls-1" cx="124.99" cy="52.49" r="2.22"/><circle class="cls-3" cx="124.99" cy="52.49" r="2.03"/><polygon class="cls-4" points="150 48.57 0 48.57 0 45 19 45.26 0 45 19 19.98 0 4 0 0 150 0 150 4 132.48 19.87 150 45 150 48.57"/><polygon class="cls-1" points="150 4 0 4 0 3.87 0 3 150 3 150 4"/><rect class="cls-1" y="45" width="150" height="1"/><rect class="cls-1" x="55" y="4" width="1" height="41.26"/><rect class="cls-1" x="37" y="4" width="1" height="41.26"/><polygon class="cls-1" points="20 45.26 19 45.26 19 31.22 19 14.56 19 4 20 4 20 45.26"/><rect class="cls-1" x="95" y="4" width="1" height="41.26"/><rect class="cls-1" x="56" y="12" width="40" height="1"/><rect class="cls-1" x="56" y="20" width="40" height="1"/><rect class="cls-1" x="56" y="28" width="40" height="1"/><rect class="cls-1" x="56" y="36" width="40" height="1"/><rect class="cls-1" x="39" y="5" width="15" height="7"/><rect class="cls-1" x="39" y="13" width="15" height="7"/><rect class="cls-1" x="39" y="21" width="15" height="7"/><rect class="cls-1" x="39" y="29" width="15" height="7"/><rect class="cls-1" x="39" y="37" width="15" height="7"/><rect class="cls-1" x="21" y="5" width="15" height="7"/><rect class="cls-1" x="21" y="13" width="15" height="7"/><rect class="cls-1" x="21" y="21" width="15" height="7"/><rect class="cls-1" x="21" y="29" width="15" height="7"/><rect class="cls-1" x="21" y="37" width="15" height="7"/><rect class="cls-1" x="113.47" y="3.87" width="1" height="41.26" transform="translate(227.94 49) rotate(180)"/><rect class="cls-1" x="131.47" y="3.87" width="1" height="41.26" transform="translate(263.94 49) rotate(180)"/><rect class="cls-1" x="97.47" y="4.87" width="15" height="7" transform="translate(209.94 16.74) rotate(180)"/><rect class="cls-1" x="97.47" y="12.87" width="15" height="7" transform="translate(209.94 32.74) rotate(180)"/><rect class="cls-1" x="97.47" y="20.87" width="15" height="7" transform="translate(209.94 48.74) rotate(180)"/><rect class="cls-1" x="97.47" y="28.87" width="15" height="7" transform="translate(209.94 64.74) rotate(180)"/><rect class="cls-1" x="97.47" y="36.87" width="15" height="7" transform="translate(209.94 80.74) rotate(180)"/><rect class="cls-1" x="115.47" y="4.87" width="15" height="7" transform="translate(245.94 16.74) rotate(180)"/><rect class="cls-1" x="115.47" y="12.87" width="15" height="7" transform="translate(245.94 32.74) rotate(180)"/><rect class="cls-1" x="115.47" y="20.87" width="15" height="7" transform="translate(245.94 48.74) rotate(180)"/><rect class="cls-1" x="115.47" y="28.87" width="15" height="7" transform="translate(245.94 64.74) rotate(180)"/><rect class="cls-1" x="115.47" y="36.87" width="15" height="7" transform="translate(245.94 80.74) rotate(180)"/><rect class="cls-1" x="54.4" y="17" width="2.47" height="5.96"/><rect class="cls-1" x="54.27" y="33.89" width="2.47" height="5.96"/><circle class="cls-5" cx="53.44" cy="28.07" r="0.77"/><circle class="cls-5" cx="38.27" cy="28.07" r="0.77"/><circle class="cls-5" cx="38.27" cy="34.29" r="0.77"/><circle class="cls-5" cx="38.27" cy="40.52" r="0.77"/><ellipse class="cls-5" cx="45.77" cy="28.07" rx="7.66" ry="0.38"/><circle class="cls-5" cx="53.44" cy="34.29" r="0.77"/><ellipse class="cls-5" cx="45.77" cy="34.29" rx="7.66" ry="0.38"/><circle class="cls-5" cx="53.44" cy="40.52" r="0.77"/><ellipse class="cls-5" cx="45.77" cy="40.52" rx="7.66" ry="0.38"/></g></g></g></svg>