<svg xmlns="http://www.w3.org/2000/svg" xmlns:xlink="http://www.w3.org/1999/xlink" viewBox="0 0 149.68 124.17"><defs><style>.cls-1{fill:#a0a0a0;}.cls-2{fill:#dadae0;}.cls-3{fill:#666767;}.cls-4{fill:url(#未命名的渐变_143);}.cls-5{fill:#e2e2e1;}.cls-6{fill:url(#未命名的渐变_143-2);}.cls-7{fill:url(#未命名的渐变_143-3);}.cls-8{fill:url(#未命名的渐变_143-4);}.cls-9{fill:url(#未命名的渐变_143-5);}.cls-10{fill:url(#未命名的渐变_143-6);}.cls-11{fill:url(#未命名的渐变_143-7);}.cls-12{fill:url(#未命名的渐变_143-8);}.cls-13{fill:url(#未命名的渐变_143-9);}.cls-14{fill:url(#未命名的渐变_143-10);}.cls-15{fill:#252525;}</style><linearGradient id="未命名的渐变_143" x1="74.55" y1="81.42" x2="77.49" y2="81.42" gradientUnits="userSpaceOnUse"><stop offset="0" stop-color="#b7b7b8"/><stop offset="0.03" stop-color="#9c9e9e"/><stop offset="0.07" stop-color="#888b8b"/><stop offset="0.09" stop-color="#818484"/><stop offset="0.2" stop-color="#a3a5a5"/><stop offset="0.49" stop-color="#f6f6f6"/><stop offset="0.61" stop-color="#f3f3f3"/><stop offset="0.7" stop-color="#eaeaea"/><stop offset="0.77" stop-color="#dbdbdb"/><stop offset="0.83" stop-color="#c5c6c6"/><stop offset="0.9" stop-color="#aaa"/><stop offset="0.95" stop-color="#888989"/><stop offset="1" stop-color="#666767"/></linearGradient><linearGradient id="未命名的渐变_143-2" x1="74.31" y1="32.14" x2="77.25" y2="32.14" xlink:href="#未命名的渐变_143"/><linearGradient id="未命名的渐变_143-3" x1="97.93" y1="56.58" x2="100.87" y2="56.58" xlink:href="#未命名的渐变_143"/><linearGradient id="未命名的渐变_143-4" x1="50.81" y1="56.58" x2="53.74" y2="56.58" xlink:href="#未命名的渐变_143"/><linearGradient id="未命名的渐变_143-5" x1="37.03" y1="108.17" x2="38.64" y2="108.17" xlink:href="#未命名的渐变_143"/><linearGradient id="未命名的渐变_143-6" x1="125.98" y1="108.17" x2="127.6" y2="108.17" xlink:href="#未命名的渐变_143"/><linearGradient id="未命名的渐变_143-7" x1="16.3" y1="78.37" x2="17.92" y2="78.37" xlink:href="#未命名的渐变_143"/><linearGradient id="未命名的渐变_143-8" x1="55.7" y1="78.37" x2="57.32" y2="78.37" xlink:href="#未命名的渐变_143"/><linearGradient id="未命名的渐变_143-9" x1="95.1" y1="78.37" x2="96.72" y2="78.37" xlink:href="#未命名的渐变_143"/><linearGradient id="未命名的渐变_143-10" x1="134.5" y1="78.37" x2="136.12" y2="78.37" xlink:href="#未命名的渐变_143"/></defs><title>Lifter（升降机）</title><g id="图层_2" data-name="图层 2"><g id="图层_35" data-name="图层 35"><g id="Lifter_升降机_" data-name="Lifter（升降机）"><polygon class="cls-1" points="96.72 107.63 37.84 86.14 37.84 80.55 96.72 102.04 96.72 107.63"/><rect class="cls-2" x="33.9" width="91.53" height="8.15"/><rect class="cls-2" x="33.9" y="104.1" width="96.22" height="8.15"/><rect class="cls-2" x="71.45" y="-5.82" width="8.36" height="75.91" rx="3.93" transform="translate(-0.57 62.89) rotate(-45)"/><rect class="cls-2" x="71.45" y="-5.82" width="8.36" height="75.91" rx="3.93" transform="translate(106.39 108.34) rotate(-135)"/><rect class="cls-2" x="71.45" y="43.46" width="8.36" height="75.91" rx="3.93" transform="translate(-35.42 77.33) rotate(-45)"/><rect class="cls-2" x="71.45" y="43.46" width="8.36" height="75.91" rx="3.93" transform="translate(71.54 192.47) rotate(-135)"/><rect class="cls-2" x="33.9" y="77.12" width="6.95" height="38.59"/><rect class="cls-2" x="123.32" y="78.43" width="6.95" height="44.49"/><rect class="cls-3" x="33.9" width="1.15" height="8.15"/><rect class="cls-3" x="124.28" width="1.15" height="8.15"/><rect class="cls-1" x="33.9" width="91.53" height="1.51"/><rect class="cls-1" x="33.9" y="6.64" width="91.53" height="1.51"/><rect class="cls-2" x="33.9" y="104.1" width="91.53" height="8.15"/><rect class="cls-3" x="33.9" y="104.1" width="1.15" height="8.15"/><rect class="cls-3" x="129.12" y="104.1" width="1.15" height="8.15"/><circle class="cls-3" cx="76.02" cy="81.42" r="2.6"/><circle class="cls-1" cx="76.02" cy="81.42" r="2.23"/><circle class="cls-4" cx="76.02" cy="81.42" r="1.47"/><rect class="cls-3" x="75.81" y="80.59" width="0.41" height="1.65" transform="translate(79.84 -29.91) rotate(45)"/><rect class="cls-3" x="75.81" y="80.59" width="0.41" height="1.65" transform="translate(187.34 85.23) rotate(135)"/><rect class="cls-1" x="33.9" y="104.1" width="96.38" height="1.51"/><rect class="cls-1" x="33.9" y="110.74" width="96.38" height="1.51"/><rect class="cls-1" x="2.08" y="74.3" width="144.91" height="8.15"/><rect class="cls-3" y="74.3" width="149.68" height="1.51"/><rect class="cls-3" y="80.94" width="149.68" height="1.51"/><rect class="cls-3" x="47.84" y="2.27" width="64.1" height="3.6"/><rect class="cls-5" x="48.3" y="2.53" width="5.42" height="3.06"/><rect class="cls-5" x="54.71" y="2.53" width="21.5" height="3.06"/><rect class="cls-5" x="83.52" y="2.56" width="5.42" height="3.06"/><rect class="cls-5" x="89.71" y="2.55" width="21.5" height="3.06"/><rect class="cls-5" x="76.81" y="2.54" width="6.28" height="0.92"/><rect class="cls-5" x="76.81" y="3.69" width="6.28" height="0.78"/><rect class="cls-5" x="76.81" y="4.68" width="6.28" height="0.92"/><circle class="cls-3" cx="75.78" cy="32.14" r="2.6"/><circle class="cls-1" cx="75.78" cy="32.14" r="2.23"/><circle class="cls-6" cx="75.78" cy="32.14" r="1.47"/><rect class="cls-3" x="75.57" y="31.31" width="0.41" height="1.65" transform="translate(44.92 -44.17) rotate(45)"/><rect class="cls-3" x="75.57" y="31.31" width="0.41" height="1.65" transform="translate(152.09 1.28) rotate(135)"/><circle class="cls-3" cx="99.4" cy="56.58" r="2.6"/><circle class="cls-1" cx="99.4" cy="56.58" r="2.23"/><circle class="cls-7" cx="99.4" cy="56.58" r="1.47"/><rect class="cls-3" x="99.2" y="55.76" width="0.41" height="1.65" transform="translate(69.12 -53.71) rotate(45)"/><rect class="cls-3" x="99.2" y="55.76" width="0.41" height="1.65" transform="translate(209.69 26.3) rotate(135)"/><circle class="cls-3" cx="52.27" cy="56.58" r="2.6"/><circle class="cls-1" cx="52.27" cy="56.58" r="2.23"/><circle class="cls-8" cx="52.27" cy="56.58" r="1.47"/><rect class="cls-3" x="52.07" y="55.76" width="0.41" height="1.65" transform="translate(55.32 -20.39) rotate(45)"/><rect class="cls-3" x="52.07" y="55.76" width="0.41" height="1.65" transform="translate(129.25 59.62) rotate(135)"/><circle class="cls-3" cx="37.84" cy="108.17" r="1.43"/><circle class="cls-1" cx="37.84" cy="108.17" r="1.23"/><circle class="cls-9" cx="37.84" cy="108.17" r="0.81"/><rect class="cls-3" x="37.72" y="107.72" width="0.22" height="0.91" transform="translate(87.57 4.93) rotate(45)"/><rect class="cls-3" x="37.72" y="107.72" width="0.22" height="0.91" transform="translate(141.08 157.91) rotate(135)"/><circle class="cls-3" cx="126.79" cy="108.17" r="1.43"/><circle class="cls-1" cx="126.79" cy="108.17" r="1.23"/><circle class="cls-10" cx="126.79" cy="108.17" r="0.81"/><rect class="cls-3" x="126.68" y="107.72" width="0.22" height="0.91" transform="translate(113.63 -57.97) rotate(45)"/><rect class="cls-3" x="126.68" y="107.72" width="0.22" height="0.91" transform="translate(292.94 95) rotate(135)"/><circle class="cls-3" cx="17.11" cy="78.37" r="1.43"/><circle class="cls-1" cx="17.11" cy="78.37" r="1.23"/><circle class="cls-11" cx="17.11" cy="78.37" r="0.81"/><rect class="cls-3" x="17" y="77.92" width="0.22" height="0.91" transform="translate(60.43 10.86) rotate(45)"/><rect class="cls-3" x="17" y="77.92" width="0.22" height="0.91" transform="translate(84.62 121.7) rotate(135)"/><circle class="cls-3" cx="56.51" cy="78.37" r="1.43"/><circle class="cls-1" cx="56.51" cy="78.37" r="1.23"/><circle class="cls-12" cx="56.51" cy="78.37" r="0.81"/><rect class="cls-3" x="56.39" y="77.92" width="0.22" height="0.91" transform="translate(71.97 -17) rotate(45)"/><rect class="cls-3" x="56.39" y="77.92" width="0.22" height="0.91" transform="translate(151.88 93.84) rotate(135)"/><circle class="cls-3" cx="95.91" cy="78.37" r="1.43"/><circle class="cls-1" cx="95.91" cy="78.37" r="1.23"/><circle class="cls-13" cx="95.91" cy="78.37" r="0.81"/><rect class="cls-3" x="95.79" y="77.92" width="0.22" height="0.91" transform="translate(83.51 -44.86) rotate(45)"/><rect class="cls-3" x="95.79" y="77.92" width="0.22" height="0.91" transform="translate(219.14 65.98) rotate(135)"/><circle class="cls-3" cx="135.31" cy="78.37" r="1.43"/><circle class="cls-1" cx="135.31" cy="78.37" r="1.23"/><circle class="cls-14" cx="135.31" cy="78.37" r="0.81"/><rect class="cls-3" x="135.19" y="77.92" width="0.22" height="0.91" transform="translate(95.05 -72.72) rotate(45)"/><rect class="cls-3" x="135.19" y="77.92" width="0.22" height="0.91" transform="translate(286.4 38.12) rotate(135)"/><rect class="cls-3" x="33.14" y="115.71" width="8.47" height="8.47"/><rect class="cls-15" x="33.9" y="116.47" width="6.95" height="6.95"/><rect class="cls-3" x="122.56" y="115.71" width="8.47" height="8.47"/><rect class="cls-15" x="123.32" y="116.47" width="6.95" height="6.95"/><rect class="cls-1" x="50.05" y="112.24" width="15.54" height="3.46"/><rect class="cls-3" x="46.72" y="114.59" width="22.18" height="9.58" rx="1.35"/><rect class="cls-3" x="50.05" y="112.24" width="15.54" height="0.58"/></g></g></g></svg>