<svg xmlns="http://www.w3.org/2000/svg" viewBox="0 0 152.02 58.67"><defs><style>.cls-1{fill:#a0a0a0;}.cls-2{fill:#717070;}.cls-3{fill:#666767;}.cls-4{fill:#dadae0;}.cls-5{fill:#8d8d8d;}</style></defs><title>Locomotive（火车头）</title><g id="图层_2" data-name="图层 2"><g id="图层_35" data-name="图层 35"><g id="Locomotive_火车头_" data-name="Locomotive（火车头）"><circle class="cls-1" cx="13.97" cy="51.28" r="7.4"/><circle class="cls-2" cx="13.97" cy="51.28" r="6.41"/><circle class="cls-1" cx="13.97" cy="51.28" r="5.84"/><circle class="cls-2" cx="13.97" cy="51.28" r="2.56"/><circle class="cls-1" cx="13.97" cy="51.28" r="2.2"/><circle class="cls-3" cx="13.97" cy="51.28" r="2.01"/><circle class="cls-1" cx="34.73" cy="51.28" r="7.4"/><circle class="cls-2" cx="34.73" cy="51.28" r="6.41"/><circle class="cls-1" cx="34.73" cy="51.28" r="5.84"/><circle class="cls-2" cx="34.73" cy="51.28" r="2.56"/><circle class="cls-1" cx="34.73" cy="51.28" r="2.2"/><circle class="cls-3" cx="34.73" cy="51.28" r="2.01"/><circle class="cls-1" cx="116.88" cy="51.28" r="7.4"/><circle class="cls-2" cx="116.88" cy="51.28" r="6.41"/><circle class="cls-1" cx="116.88" cy="51.28" r="5.84"/><circle class="cls-2" cx="116.88" cy="51.28" r="2.56"/><circle class="cls-1" cx="116.88" cy="51.28" r="2.2"/><circle class="cls-3" cx="116.88" cy="51.28" r="2.01"/><circle class="cls-1" cx="137.63" cy="51.28" r="7.4"/><circle class="cls-2" cx="137.63" cy="51.28" r="6.41"/><circle class="cls-1" cx="137.63" cy="51.28" r="5.84"/><circle class="cls-2" cx="137.63" cy="51.28" r="2.56"/><circle class="cls-1" cx="137.63" cy="51.28" r="2.2"/><circle class="cls-3" cx="137.63" cy="51.28" r="2.01"/><rect class="cls-4" x="42.92" width="107.1" height="40.75" transform="translate(192.95 40.75) rotate(180)"/><path class="cls-4" d="M2.08,6.68H42.92a0,0,0,0,1,0,0V33.46a7.28,7.28,0,0,1-7.28,7.28H2.08a0,0,0,0,1,0,0V6.68A0,0,0,0,1,2.08,6.68Z" transform="translate(45 47.43) rotate(180)"/><rect class="cls-1" x="42.92" width="0.61" height="40.75"/><rect class="cls-1" x="4.62" y="16.68" width="14.79" height="24.07"/><rect class="cls-3" x="23.77" y="9.59" width="14.79" height="31.16"/><rect class="cls-1" x="24.35" y="10.29" width="13.63" height="29.85"/><rect class="cls-3" x="4.62" y="17.23" width="14.79" height="0.55"/><rect class="cls-3" x="4.62" y="18.26" width="14.79" height="0.55"/><rect class="cls-3" x="4.62" y="19.29" width="14.79" height="0.55"/><rect class="cls-3" x="4.62" y="20.32" width="14.79" height="0.55"/><rect class="cls-3" x="4.62" y="21.35" width="14.79" height="0.55"/><rect class="cls-3" x="4.62" y="22.37" width="14.79" height="0.55"/><rect class="cls-3" x="4.62" y="23.4" width="14.79" height="0.55"/><rect class="cls-3" x="4.62" y="24.43" width="14.79" height="0.55"/><rect class="cls-3" x="4.62" y="25.46" width="14.79" height="0.55"/><rect class="cls-3" x="4.62" y="26.49" width="14.79" height="0.55"/><rect class="cls-3" x="4.62" y="27.52" width="14.79" height="0.55"/><rect class="cls-3" x="4.62" y="28.55" width="14.79" height="0.55"/><rect class="cls-3" x="4.62" y="29.58" width="14.79" height="0.55"/><rect class="cls-3" x="4.62" y="30.61" width="14.79" height="0.55"/><rect class="cls-3" x="4.62" y="31.64" width="14.79" height="0.55"/><rect class="cls-3" x="4.62" y="32.67" width="14.79" height="0.55"/><rect class="cls-3" x="4.62" y="33.7" width="14.79" height="0.55"/><rect class="cls-3" x="4.62" y="34.73" width="14.79" height="0.55"/><rect class="cls-3" x="4.62" y="35.76" width="14.79" height="0.55"/><rect class="cls-3" x="4.62" y="36.79" width="14.79" height="0.55"/><rect class="cls-3" x="4.62" y="37.82" width="14.79" height="0.55"/><rect class="cls-3" x="4.62" y="38.85" width="14.79" height="0.55"/><rect class="cls-3" x="4.62" y="39.88" width="14.79" height="0.55"/><rect class="cls-3" x="22.5" y="12.75" width="2.93" height="0.82" rx="0.41"/><rect class="cls-3" x="22.5" y="23.95" width="2.93" height="0.82" rx="0.41"/><rect class="cls-3" x="22.5" y="35.15" width="2.93" height="0.82" rx="0.41"/><rect class="cls-3" x="36.87" y="12.75" width="2.93" height="0.82" rx="0.41"/><rect class="cls-3" x="36.87" y="23.95" width="2.93" height="0.82" rx="0.41"/><rect class="cls-3" x="36.87" y="35.15" width="2.93" height="0.82" rx="0.41"/><rect class="cls-3" y="40.75" width="152.02" height="6.27"/><circle class="cls-5" cx="46.11" cy="12.06" r="1.25"/><circle class="cls-5" cx="64.31" cy="12.06" r="1.25"/><rect class="cls-1" x="44.86" width="100.16" height="6.68"/><rect class="cls-5" x="48.76" y="7.75" width="12.62" height="12.62"/><rect class="cls-1" x="49.39" y="8.38" width="11.36" height="11.36" rx="1.08"/><path class="cls-1" d="M46.11,11.81h0a.67.67,0,0,1,.67.67V40.75a0,0,0,0,1,0,0H45.44a0,0,0,0,1,0,0V12.48A.67.67,0,0,1,46.11,11.81Z"/><path class="cls-1" d="M64.31,11.81h0a.67.67,0,0,1,.67.67V40.75a0,0,0,0,1,0,0H63.64a0,0,0,0,1,0,0V12.48A.67.67,0,0,1,64.31,11.81Z"/><rect class="cls-5" x="46.78" y="35.72" width="16.86" height="1.09"/><rect class="cls-1" x="67.57" y="7.75" width="14.43" height="32.99"/><rect class="cls-1" x="83.32" y="7.75" width="14.43" height="32.99"/><rect class="cls-1" x="99.08" y="7.75" width="14.43" height="32.99"/><rect class="cls-1" x="114.84" y="7.75" width="14.43" height="32.99"/><rect class="cls-1" x="130.59" y="7.75" width="14.43" height="32.99"/><rect class="cls-4" x="49.81" y="10.77" width="6.21" height="1.25" rx="0.62" transform="translate(5.66 37.79) rotate(-41.35)"/><rect class="cls-4" x="53" y="16.47" width="3.88" height="1.25" rx="0.62" transform="translate(2.4 40.56) rotate(-41.35)"/><rect class="cls-4" x="49.69" y="13" width="10.36" height="1.25" rx="0.62" transform="translate(4.68 39.65) rotate(-41.35)"/></g></g></g></svg>