<svg width="20" height="20" viewBox="0 0 20 20" fill="none" xmlns="http://www.w3.org/2000/svg">
<path fill-rule="evenodd" clip-rule="evenodd" d="M3.94079 2.9264C3.74555 2.73098 3.42884 2.7309 3.23351 2.92623L2.93047 3.22928C2.73527 3.42447 2.7352 3.74093 2.9303 3.93622L8.9922 10.0038L2.9242 16.0661C2.72878 16.2613 2.72871 16.5781 2.92403 16.7734L3.22708 17.0764C3.42228 17.2716 3.73873 17.2717 3.93402 17.0766L10.0019 11.0145L16.0639 17.0823C16.2592 17.2777 16.5759 17.2777 16.7712 17.0824L17.0743 16.7794C17.2695 16.5842 17.2695 16.2677 17.0744 16.0724L11.0125 10.0048L17.0801 3.94296C17.2755 3.74772 17.2755 3.43101 17.0802 3.23568L16.7772 2.93264C16.582 2.73744 16.2655 2.73737 16.0702 2.93247L10.0028 8.99416L3.94079 2.9264Z" fill="white"/>
</svg>
