<svg width="14" height="14" viewBox="0 0 14 14" fill="none" xmlns="http://www.w3.org/2000/svg">
<path fill-rule="evenodd" clip-rule="evenodd" d="M3 0.5C1.61929 0.5 0.5 1.61929 0.5 3V11C0.5 12.3807 1.61929 13.5 3 13.5H11C12.3807 13.5 13.5 12.3807 13.5 11V3.72727V3.52017L13.3536 3.37372L10.6263 0.646447L10.4798 0.5H10.2727H3ZM1.5 3C1.5 2.17157 2.17157 1.5 3 1.5H3.5V3.5C3.5 4.88071 4.61929 6 6 6H7.5C8.88071 6 10 4.88071 10 3.5V1.5H10.0656L12.5 3.93438V11C12.5 11.8284 11.8284 12.5 11 12.5V10.5C11 9.11929 9.88071 8 8.5 8H5.5C4.11929 8 3 9.11929 3 10.5L3 12.5C2.17157 12.5 1.5 11.8284 1.5 11V3ZM10 10.5V12.5H4V10.5C4 9.67157 4.67157 9 5.5 9H8.5C9.32843 9 10 9.67157 10 10.5ZM9 1.5H4.5V3.5C4.5 4.32843 5.17157 5 6 5H7.5C8.32843 5 9 4.32843 9 3.5V1.5ZM8 3H7V4H8V3Z" fill="white"/>
</svg>
