<svg xmlns="http://www.w3.org/2000/svg" xmlns:xlink="http://www.w3.org/1999/xlink" viewBox="0 0 27.96 150"><defs><style>.cls-1{fill:#3f3e3e;}.cls-2{fill:#bababa;}.cls-3{fill:#dadbe0;}.cls-4{fill:url(#未命名的渐变_105);}.cls-5{fill:url(#未命名的渐变_105-2);}.cls-6{fill:url(#未命名的渐变_67);}.cls-7{fill:url(#未命名的渐变_67-2);}.cls-8{fill:url(#未命名的渐变_105-3);}.cls-9{fill:url(#未命名的渐变_105-4);}.cls-10{fill:url(#未命名的渐变_105-5);}.cls-11{fill:#fff;}.cls-12{fill:#eaeaea;}.cls-13{fill:#7f7f7f;}.cls-14{fill:#c1c1c1;opacity:0.51;}.cls-15{fill:none;stroke:#7f7f7f;stroke-miterlimit:10;stroke-width:0.25px;}.cls-16{fill:#dedede;}</style><linearGradient id="未命名的渐变_105" x1="11.12" y1="16.41" x2="16.86" y2="16.41" gradientUnits="userSpaceOnUse"><stop offset="0" stop-color="#e2e2e2"/><stop offset="0.03" stop-color="#d0d0d0"/><stop offset="0.06" stop-color="#bcbcbc"/><stop offset="0.09" stop-color="#b5b5b5"/><stop offset="0.49" stop-color="#f6f6f6"/><stop offset="0.63" stop-color="#f3f3f3"/><stop offset="0.73" stop-color="#eaeaea"/><stop offset="0.82" stop-color="#dbdbdb"/><stop offset="0.9" stop-color="#c6c6c6"/><stop offset="0.97" stop-color="#aaa"/><stop offset="1" stop-color="#9b9b9b"/></linearGradient><linearGradient id="未命名的渐变_105-2" x1="13.69" y1="21.14" x2="13.69" y2="16.34" xlink:href="#未命名的渐变_105"/><linearGradient id="未命名的渐变_67" y1="25.62" x2="27.94" y2="25.62" gradientUnits="userSpaceOnUse"><stop offset="0" stop-color="#6b6b6b"/><stop offset="0.11" stop-color="#767676"/><stop offset="0.3" stop-color="#959595"/><stop offset="0.41" stop-color="#aaa"/><stop offset="0.56" stop-color="#ccc"/><stop offset="0.71" stop-color="#eaeaea"/><stop offset="0.8" stop-color="#f6f6f6"/><stop offset="0.83" stop-color="#ededed"/><stop offset="0.87" stop-color="#d4d4d4"/><stop offset="0.92" stop-color="#ababab"/><stop offset="0.98" stop-color="#737373"/><stop offset="0.99" stop-color="#666"/></linearGradient><linearGradient id="未命名的渐变_67-2" x1="0.02" y1="145.52" x2="27.96" y2="145.52" xlink:href="#未命名的渐变_67"/><linearGradient id="未命名的渐变_105-3" x1="0.02" y1="85.57" x2="27.96" y2="85.57" xlink:href="#未命名的渐变_105"/><linearGradient id="未命名的渐变_105-4" x1="14.59" y1="19.2" x2="14.59" y2="16.34" xlink:href="#未命名的渐变_105"/><linearGradient id="未命名的渐变_105-5" x1="21.7" y1="19.55" x2="21.7" y2="16.05" xlink:href="#未命名的渐变_105"/></defs><title>Central Water Purifier（中央净水器）</title><g id="图层_2" data-name="图层 2"><g id="图层_125" data-name="图层 125"><g id="Central_Water_Purifier_中央净水器_" data-name="Central Water Purifier（中央净水器）"><rect class="cls-1" x="2.56" width="22.56" height="11.68"/><rect class="cls-2" x="3.23" y="0.9" width="21.22" height="10.15"/><rect class="cls-3" x="4.04" y="1.47" width="9.17" height="9.17"/><rect class="cls-4" x="11.12" y="11.68" width="5.74" height="9.46"/><rect class="cls-5" x="8.42" y="16.34" width="10.54" height="4.8"/><rect class="cls-6" y="21.14" width="27.94" height="8.96"/><rect class="cls-7" x="0.02" y="141.04" width="27.94" height="8.96"/><rect class="cls-8" x="0.02" y="30.1" width="27.94" height="110.94"/><rect class="cls-9" x="8.42" y="16.34" width="12.33" height="2.86"/><rect class="cls-10" x="20.75" y="16.05" width="1.9" height="3.49"/><circle class="cls-11" cx="19.02" cy="5.99" r="4.12"/><path class="cls-12" d="M14.9,6a4.13,4.13,0,0,0,1.8,3.4,4.07,4.07,0,0,0,.61,0A4.46,4.46,0,0,0,21.73,5a4.51,4.51,0,0,0-.85-2.63A4.11,4.11,0,0,0,14.9,6Z"/><path class="cls-13" d="M19,1.48A4.51,4.51,0,1,0,23.53,6,4.51,4.51,0,0,0,19,1.48Zm0,8.63A4.12,4.12,0,1,1,23.14,6,4.12,4.12,0,0,1,19,10.11Z"/><circle class="cls-14" cx="19.02" cy="5.99" r="3.95"/><path class="cls-13" d="M20.18,7.12l.32-.53a.18.18,0,0,0-.05-.24h-.08A3.17,3.17,0,0,1,19.54,6C18.82,5.63,16,3.8,16,3.8s2.61,2,3.35,2.66a3.53,3.53,0,0,1,.49.64l0,.05h0l0,0A.18.18,0,0,0,20.18,7.12Z"/><circle class="cls-13" cx="19.16" cy="6.04" r="0.36"/><line class="cls-15" x1="20.79" y1="2.72" x2="20.5" y2="3.27"/><line class="cls-15" x1="17.37" y1="2.72" x2="17.66" y2="3.27"/><line class="cls-15" x1="15.39" y1="5.5" x2="16.01" y2="5.59"/><line class="cls-15" x1="22.81" y1="5.48" x2="22.19" y2="5.57"/><circle class="cls-16" cx="19.16" cy="6.04" r="0.2"/></g></g></g></svg>