<svg xmlns="http://www.w3.org/2000/svg" xmlns:xlink="http://www.w3.org/1999/xlink" viewBox="0 0 150 46.8"><defs><style>.cls-1{fill:#767780;}.cls-2{fill:#5a5c60;}.cls-3{fill:url(#未命名的渐变_121);}.cls-4{fill:url(#未命名的渐变_121-2);}.cls-5{fill:url(#未命名的渐变_121-3);}.cls-6{fill:url(#未命名的渐变_121-4);}.cls-15,.cls-7{fill:#252628;}.cls-7{opacity:0.6;}.cls-8{fill:url(#未命名的渐变_128);}.cls-9{fill:url(#未命名的渐变_11);}.cls-10{fill:url(#未命名的渐变_121-5);}.cls-11{fill:url(#未命名的渐变_126);}.cls-12{fill:url(#未命名的渐变_128-2);}.cls-13{fill:url(#未命名的渐变_11-2);}.cls-14{fill:url(#未命名的渐变_91);}.cls-16{fill:url(#未命名的渐变_17);}.cls-17{fill:url(#未命名的渐变_17-2);}.cls-18{fill:url(#未命名的渐变_17-3);}.cls-19{fill:url(#未命名的渐变_17-4);}.cls-20{fill:url(#未命名的渐变_17-5);}.cls-21{fill:url(#未命名的渐变_209);}</style><linearGradient id="未命名的渐变_121" x1="49.83" y1="40.37" x2="49.83" gradientUnits="userSpaceOnUse"><stop offset="0" stop-color="#a9b1bb"/><stop offset="0.09" stop-color="#61666b"/><stop offset="0.18" stop-color="#696e73"/><stop offset="0.32" stop-color="#7e8489"/><stop offset="0.49" stop-color="#a1a7ae"/><stop offset="0.69" stop-color="#d1d8e0"/><stop offset="0.75" stop-color="#e2eaf2"/><stop offset="0.93" stop-color="#9ba1ab"/><stop offset="1" stop-color="#767b82"/></linearGradient><linearGradient id="未命名的渐变_121-2" x1="113.12" y1="34.68" x2="113.12" y2="5.69" xlink:href="#未命名的渐变_121"/><linearGradient id="未命名的渐变_121-3" x1="142.24" y1="22.62" x2="142.24" y2="17.74" xlink:href="#未命名的渐变_121"/><linearGradient id="未命名的渐变_121-4" x1="95.37" y1="37.99" x2="95.37" y2="2.37" xlink:href="#未命名的渐变_121"/><linearGradient id="未命名的渐变_128" x1="107.24" y1="37.99" x2="107.24" y2="2.37" gradientUnits="userSpaceOnUse"><stop offset="0" stop-color="#a9b1bb"/><stop offset="0.09" stop-color="#61666b"/><stop offset="0.18" stop-color="#696e73"/><stop offset="0.31" stop-color="#7e8489"/><stop offset="0.47" stop-color="#a1a7ae"/><stop offset="0.65" stop-color="#d0d9e0"/><stop offset="0.75" stop-color="#eef7ff"/><stop offset="0.93" stop-color="#9ba1ab"/><stop offset="1" stop-color="#767b82"/></linearGradient><linearGradient id="未命名的渐变_11" x1="109.93" y1="24.47" x2="104.54" y2="29.86" gradientUnits="userSpaceOnUse"><stop offset="0" stop-color="#d7dce0"/><stop offset="1" stop-color="#8a9099"/></linearGradient><linearGradient id="未命名的渐变_121-5" x1="16.57" y1="25.33" x2="-2.68" y2="14.21" xlink:href="#未命名的渐变_121"/><linearGradient id="未命名的渐变_126" x1="141.98" y1="23.9" x2="127.86" y2="15.75" gradientTransform="matrix(-1, 0, 0, 1, 270.24, 0)" gradientUnits="userSpaceOnUse"><stop offset="0" stop-color="#a9b1bb"/><stop offset="0.09" stop-color="#61666b"/><stop offset="0.18" stop-color="#696e73"/><stop offset="0.3" stop-color="#7e8489"/><stop offset="0.46" stop-color="#a1a7ae"/><stop offset="0.64" stop-color="#d1d8e0"/><stop offset="0.7" stop-color="#e2eaf2"/><stop offset="0.93" stop-color="#9ba1ab"/><stop offset="1" stop-color="#767b82"/></linearGradient><linearGradient id="未命名的渐变_128-2" x1="126.44" y1="37.99" x2="126.44" y2="2.37" xlink:href="#未命名的渐变_128"/><linearGradient id="未命名的渐变_11-2" x1="129.13" y1="24.47" x2="123.75" y2="29.86" xlink:href="#未命名的渐变_11"/><linearGradient id="未命名的渐变_91" x1="99.08" y1="19.73" x2="99.08" y2="8.27" gradientTransform="translate(85.08 113.07) rotate(-90)" gradientUnits="userSpaceOnUse"><stop offset="0" stop-color="#767b82"/><stop offset="0.04" stop-color="#d7dce0"/><stop offset="0.08" stop-color="#b9c0cc"/><stop offset="0.96" stop-color="#b9c0cc"/><stop offset="1" stop-color="#767b82"/></linearGradient><linearGradient id="未命名的渐变_17" x1="99.08" y1="15.15" x2="99.08" y2="12.83" gradientUnits="userSpaceOnUse"><stop offset="0" stop-color="#767b82"/><stop offset="0.04" stop-color="#d7dce0"/><stop offset="0.08" stop-color="#d0d8e6"/><stop offset="0.96" stop-color="#d0d8e6"/><stop offset="1" stop-color="#767b82"/></linearGradient><linearGradient id="未命名的渐变_17-2" x1="99.08" y1="9.08" x2="99.08" y2="8.27" xlink:href="#未命名的渐变_17"/><linearGradient id="未命名的渐变_17-3" x1="99.08" y1="11.54" x2="99.08" y2="10.16" xlink:href="#未命名的渐变_17"/><linearGradient id="未命名的渐变_17-4" x1="99.08" y1="20.52" x2="99.08" y2="19.7" gradientTransform="matrix(1, 0, 0, -1, 0, 39.43)" xlink:href="#未命名的渐变_17"/><linearGradient id="未命名的渐变_17-5" x1="99.08" y1="22.98" x2="99.08" y2="21.59" gradientTransform="matrix(1, 0, 0, -1, 0, 39.43)" xlink:href="#未命名的渐变_17"/><linearGradient id="未命名的渐变_209" x1="99.08" y1="19.73" x2="99.08" y2="8.27" gradientTransform="translate(85.08 113.07) rotate(-90)" gradientUnits="userSpaceOnUse"><stop offset="0" stop-color="#2e3033"/><stop offset="1" stop-color="#9ba1ab" stop-opacity="0"/></linearGradient></defs><title>Colloid mill(胶体磨)</title><g id="图层_2" data-name="图层 2"><g id="图层_6" data-name="图层 6"><g id="Colloid_mill_胶体磨_" data-name="Colloid mill(胶体磨)"><rect class="cls-1" x="14.38" y="40.37" width="77.39" height="6.44"/><rect class="cls-2" x="30.63" y="40.37" width="15" height="6.44"/><rect class="cls-2" x="64.92" y="40.37" width="15" height="6.44"/><rect class="cls-3" x="7.89" width="83.88" height="40.37"/><rect class="cls-4" x="91.77" y="5.69" width="42.72" height="29"/><rect class="cls-5" x="134.48" y="17.74" width="15.52" height="4.88"/><rect class="cls-6" x="93.37" y="2.37" width="3.99" height="35.62"/><rect class="cls-7" x="97.36" y="5.69" width="0.66" height="29"/><rect class="cls-8" x="103.44" y="2.37" width="7.59" height="35.62"/><polygon class="cls-9" points="109.24 24.98 109.24 23.79 105.23 23.79 105.23 24.98 104.13 24.98 104.13 29.44 110.35 29.44 110.35 24.98 109.24 24.98"/><path class="cls-10" d="M7.89,40.37S0,39.34,0,20.18,7.89,0,7.89,0Z"/><path class="cls-11" d="M134.48,34.68s6.28-.73,6.28-14.5-6.28-14.49-6.28-14.49Z"/><rect class="cls-7" x="104.13" y="26.61" width="6.22" height="1.14"/><rect class="cls-12" x="122.64" y="2.37" width="7.59" height="35.62"/><polygon class="cls-13" points="128.45 24.98 128.45 23.79 124.43 23.79 124.43 24.98 123.33 24.98 123.33 29.44 129.55 29.44 129.55 24.98 128.45 24.98"/><rect class="cls-7" x="123.33" y="26.61" width="6.22" height="1.14"/><rect class="cls-14" x="93.35" y="12.67" width="11.46" height="2.66" transform="translate(113.07 -85.08) rotate(90)"/><rect class="cls-15" x="97.75" y="8.27" width="2.66" height="11.46"/><polygon class="cls-16" points="100.41 12.83 97.75 12.83 97.36 12.98 97.36 15 97.75 15.15 100.41 15.15 100.79 15 100.79 12.98 100.41 12.83"/><polygon class="cls-17" points="100.41 8.27 97.75 8.27 97.36 8.41 97.36 8.93 97.75 9.08 100.41 9.08 100.79 8.93 100.79 8.41 100.41 8.27"/><polygon class="cls-18" points="100.41 10.16 97.75 10.16 97.36 10.3 97.36 11.39 97.75 11.54 100.41 11.54 100.79 11.39 100.79 10.3 100.41 10.16"/><polygon class="cls-19" points="100.41 19.73 97.75 19.73 97.36 19.58 97.36 19.06 97.75 18.92 100.41 18.92 100.79 19.06 100.79 19.58 100.41 19.73"/><polygon class="cls-20" points="100.41 17.84 97.75 17.84 97.36 17.69 97.36 16.6 97.75 16.46 100.41 16.46 100.79 16.6 100.79 17.69 100.41 17.84"/><rect class="cls-21" x="93.35" y="12.67" width="11.46" height="2.66" transform="translate(113.07 -85.08) rotate(90)"/></g></g></g></svg>