<svg xmlns="http://www.w3.org/2000/svg" xmlns:xlink="http://www.w3.org/1999/xlink" viewBox="0 0 40.53 150"><defs><style>.cls-1{fill:url(#未命名的渐变_273);}.cls-2{opacity:0.7;fill:url(#未命名的渐变_276);}.cls-3{fill:url(#未命名的渐变_250);}.cls-4{fill:url(#未命名的渐变_121);}.cls-5{fill:url(#未命名的渐变_121-2);}.cls-6{fill:url(#未命名的渐变_121-3);}.cls-7{opacity:0.8;}.cls-8{fill:url(#未命名的渐变_292);}.cls-9{fill:url(#未命名的渐变_292-2);}.cls-10{fill:url(#未命名的渐变_292-3);}.cls-11{fill:url(#未命名的渐变_292-4);}.cls-12{fill:url(#未命名的渐变_292-5);}.cls-13{fill:url(#未命名的渐变_292-6);}.cls-14{fill:url(#未命名的渐变_292-7);}.cls-15{fill:url(#未命名的渐变_292-8);}.cls-16{fill:url(#未命名的渐变_292-9);}.cls-17{fill:url(#未命名的渐变_292-10);}.cls-18{fill:url(#未命名的渐变_292-11);}.cls-19{fill:url(#未命名的渐变_292-12);}.cls-20{fill:url(#未命名的渐变_292-13);}.cls-21{fill:url(#未命名的渐变_292-14);}.cls-22{fill:url(#未命名的渐变_292-15);}.cls-23{fill:url(#未命名的渐变_292-16);}</style><linearGradient id="未命名的渐变_273" y1="80.53" x2="40.53" y2="80.53" gradientUnits="userSpaceOnUse"><stop offset="0" stop-color="#a9b1bb"/><stop offset="0.09" stop-color="#61666b"/><stop offset="0.29" stop-color="#686d73"/><stop offset="0.59" stop-color="#7d8289"/><stop offset="0.93" stop-color="#9ba1ab"/><stop offset="1" stop-color="#767b82"/></linearGradient><linearGradient id="未命名的渐变_276" x1="2.15" y1="78.5" x2="38.38" y2="78.5" gradientUnits="userSpaceOnUse"><stop offset="0" stop-color="#61666b"/><stop offset="0.09" stop-color="#696e73"/><stop offset="0.22" stop-color="#7e8489"/><stop offset="0.38" stop-color="#a1a7ae"/><stop offset="0.5" stop-color="#bec5cc"/><stop offset="0.93" stop-color="#9ba1ab"/><stop offset="1" stop-color="#767b82"/></linearGradient><linearGradient id="未命名的渐变_250" x1="27.69" y1="59.56" x2="34.57" y2="59.56" gradientUnits="userSpaceOnUse"><stop offset="0" stop-color="#fff"/><stop offset="1" stop-color="#e2eaf2" stop-opacity="0.2"/></linearGradient><linearGradient id="未命名的渐变_121" x1="10.7" y1="9.58" x2="29.58" y2="9.58" gradientUnits="userSpaceOnUse"><stop offset="0" stop-color="#a9b1bb"/><stop offset="0.09" stop-color="#61666b"/><stop offset="0.18" stop-color="#696e73"/><stop offset="0.32" stop-color="#7e8489"/><stop offset="0.49" stop-color="#a1a7ae"/><stop offset="0.69" stop-color="#d1d8e0"/><stop offset="0.75" stop-color="#e2eaf2"/><stop offset="0.93" stop-color="#9ba1ab"/><stop offset="1" stop-color="#767b82"/></linearGradient><linearGradient id="未命名的渐变_121-2" x1="10.7" y1="2.56" x2="29.58" y2="2.56" xlink:href="#未命名的渐变_121"/><linearGradient id="未命名的渐变_121-3" x1="11.54" y1="6.61" x2="28.74" y2="6.61" xlink:href="#未命名的渐变_121"/><linearGradient id="未命名的渐变_292" x1="11.54" y1="2.73" x2="12.36" y2="2.73" gradientUnits="userSpaceOnUse"><stop offset="0" stop-color="#a9b1bb" stop-opacity="0"/><stop offset="0.01" stop-color="#9da4ae" stop-opacity="0.16"/><stop offset="0.04" stop-color="#899097" stop-opacity="0.42"/><stop offset="0.07" stop-color="#787e85" stop-opacity="0.63"/><stop offset="0.11" stop-color="#6b7177" stop-opacity="0.8"/><stop offset="0.16" stop-color="#63686d" stop-opacity="0.92"/><stop offset="0.22" stop-color="#5d6268" stop-opacity="0.98"/><stop offset="0.4" stop-color="#5c6166"/><stop offset="0.45" stop-color="#64696e"/><stop offset="0.53" stop-color="#797f84"/><stop offset="0.63" stop-color="#9ca3a9"/><stop offset="0.75" stop-color="#ccd4db"/><stop offset="0.8" stop-color="#c8d0d7"/><stop offset="0.86" stop-color="#bdc5cc"/><stop offset="0.91" stop-color="#abb1b8"/><stop offset="0.96" stop-color="#91979e"/><stop offset="1" stop-color="#767b82"/></linearGradient><linearGradient id="未命名的渐变_292-2" x1="12.62" y1="2.73" x2="13.44" y2="2.73" xlink:href="#未命名的渐变_292"/><linearGradient id="未命名的渐变_292-3" x1="13.69" y1="2.73" x2="14.51" y2="2.73" xlink:href="#未命名的渐变_292"/><linearGradient id="未命名的渐变_292-4" x1="14.77" y1="2.73" x2="15.59" y2="2.73" xlink:href="#未命名的渐变_292"/><linearGradient id="未命名的渐变_292-5" x1="15.85" y1="2.73" x2="16.66" y2="2.73" xlink:href="#未命名的渐变_292"/><linearGradient id="未命名的渐变_292-6" x1="16.92" y1="2.73" x2="17.74" y2="2.73" xlink:href="#未命名的渐变_292"/><linearGradient id="未命名的渐变_292-7" x1="18" y1="2.73" x2="18.82" y2="2.73" xlink:href="#未命名的渐变_292"/><linearGradient id="未命名的渐变_292-8" x1="19.07" y1="2.73" x2="19.89" y2="2.73" xlink:href="#未命名的渐变_292"/><linearGradient id="未命名的渐变_292-9" x1="20.15" y1="2.73" x2="20.97" y2="2.73" xlink:href="#未命名的渐变_292"/><linearGradient id="未命名的渐变_292-10" x1="21.22" y1="2.73" x2="22.04" y2="2.73" xlink:href="#未命名的渐变_292"/><linearGradient id="未命名的渐变_292-11" x1="22.3" y1="2.73" x2="23.12" y2="2.73" xlink:href="#未命名的渐变_292"/><linearGradient id="未命名的渐变_292-12" x1="23.37" y1="2.73" x2="24.19" y2="2.73" xlink:href="#未命名的渐变_292"/><linearGradient id="未命名的渐变_292-13" x1="24.45" y1="2.73" x2="25.27" y2="2.73" xlink:href="#未命名的渐变_292"/><linearGradient id="未命名的渐变_292-14" x1="25.52" y1="2.73" x2="26.34" y2="2.73" xlink:href="#未命名的渐变_292"/><linearGradient id="未命名的渐变_292-15" x1="26.6" y1="2.73" x2="27.42" y2="2.73" xlink:href="#未命名的渐变_292"/><linearGradient id="未命名的渐变_292-16" x1="27.68" y1="2.73" x2="28.5" y2="2.73" xlink:href="#未命名的渐变_292"/></defs><title>Glass bottle with cap(带盖玻璃瓶)</title><g id="图层_2" data-name="图层 2"><g id="图层_6" data-name="图层 6"><g id="Glass_bottle_with_cap_带盖玻璃瓶_" data-name="Glass bottle with cap(带盖玻璃瓶)"><path class="cls-1" d="M40.53,59.65v86.28A4.07,4.07,0,0,1,36.46,150H4.07A4.07,4.07,0,0,1,0,145.93V59.65C0,52,6.16,43.44,6.16,43.44l4.62-10.7,1.56-21.68H13.8L12.35,32.69,7.84,43.58c0,.07-5.69,7.17-5.69,14V144A1.93,1.93,0,0,0,4.07,146H36.46A1.94,1.94,0,0,0,38.38,144V57.58c0-6.81-5.64-13.93-5.69-14L28.18,32.69,26.73,11.06h1.46l1.55,21.68,4.62,10.7S40.53,52,40.53,59.65Z"/><path class="cls-2" d="M4.07,146A1.93,1.93,0,0,1,2.15,144V57.58c0-6.84,5.63-13.93,5.69-14l4.5-10.89L13.8,11.06H26.72l1.46,21.63,4.51,10.89c.05.07,5.69,7.2,5.69,14V144A1.93,1.93,0,0,1,36.46,146Z"/><polygon class="cls-3" points="27.69 50.47 34.57 56.63 34.28 68.64 31.93 58.09 27.69 50.47"/><polygon class="cls-4" points="28.74 8.1 11.54 8.1 10.7 8.96 10.7 10.19 11.54 11.06 28.74 11.06 29.58 10.19 29.58 8.96 28.74 8.1"/><path class="cls-5" d="M10.7.81V4.26l.84.87h17.2l.84-.87V.81S29,0,20.26,0,10.7.81,10.7.81Z"/><polygon class="cls-6" points="28.74 5.13 11.54 5.13 12.08 6 12.08 7.23 11.54 8.1 28.74 8.1 28.2 7.23 28.2 6 28.74 5.13"/><g class="cls-7"><rect class="cls-8" x="11.54" y="1.54" width="0.82" height="2.39"/><rect class="cls-9" x="12.62" y="1.54" width="0.82" height="2.39"/><rect class="cls-10" x="13.69" y="1.54" width="0.82" height="2.39"/><rect class="cls-11" x="14.77" y="1.54" width="0.82" height="2.39"/><rect class="cls-12" x="15.85" y="1.54" width="0.82" height="2.39"/><rect class="cls-13" x="16.92" y="1.54" width="0.82" height="2.39"/><rect class="cls-14" x="18" y="1.54" width="0.82" height="2.39"/><rect class="cls-15" x="19.07" y="1.54" width="0.82" height="2.39"/><rect class="cls-16" x="20.15" y="1.54" width="0.82" height="2.39"/><rect class="cls-17" x="21.22" y="1.54" width="0.82" height="2.39"/><rect class="cls-18" x="22.3" y="1.54" width="0.82" height="2.39"/><rect class="cls-19" x="23.37" y="1.54" width="0.82" height="2.39"/><rect class="cls-20" x="24.45" y="1.54" width="0.82" height="2.39"/><rect class="cls-21" x="25.52" y="1.54" width="0.82" height="2.39"/><rect class="cls-22" x="26.6" y="1.54" width="0.82" height="2.39"/><rect class="cls-23" x="27.68" y="1.54" width="0.82" height="2.39"/></g></g></g></g></svg>