<svg xmlns="http://www.w3.org/2000/svg" xmlns:xlink="http://www.w3.org/1999/xlink" viewBox="0 0 100.34 149.42"><defs><style>.cls-1{fill:url(#未命名的渐变_67);}.cls-2{fill:url(#未命名的渐变_105);}.cls-3{fill:url(#未命名的渐变_105-2);}.cls-4{fill:url(#未命名的渐变_105-3);}.cls-5{fill:url(#未命名的渐变_105-4);}.cls-6{fill:url(#未命名的渐变_105-5);}.cls-7{fill:url(#未命名的渐变_105-6);}.cls-8{fill:url(#未命名的渐变_105-7);}.cls-9{fill:url(#未命名的渐变_105-8);}.cls-10{fill:url(#未命名的渐变_67-2);}.cls-11{fill:url(#未命名的渐变_105-9);}.cls-12{fill:url(#未命名的渐变_67-3);}.cls-13{fill:url(#未命名的渐变_105-10);}.cls-14{fill:url(#未命名的渐变_105-11);}.cls-15{fill:url(#未命名的渐变_105-12);}.cls-16{fill:url(#未命名的渐变_105-13);}.cls-17{fill:url(#未命名的渐变_105-14);}.cls-18{fill:url(#未命名的渐变_105-15);}.cls-19{fill:url(#未命名的渐变_105-16);}</style><linearGradient id="未命名的渐变_67" x1="47.54" y1="56.75" x2="51.51" y2="56.75" gradientTransform="translate(0.27 -2.61)" gradientUnits="userSpaceOnUse"><stop offset="0" stop-color="#6b6b6b"/><stop offset="0.11" stop-color="#767676"/><stop offset="0.3" stop-color="#959595"/><stop offset="0.41" stop-color="#aaa"/><stop offset="0.56" stop-color="#ccc"/><stop offset="0.71" stop-color="#eaeaea"/><stop offset="0.8" stop-color="#f6f6f6"/><stop offset="0.83" stop-color="#ededed"/><stop offset="0.87" stop-color="#d4d4d4"/><stop offset="0.92" stop-color="#ababab"/><stop offset="0.98" stop-color="#737373"/><stop offset="0.99" stop-color="#666"/></linearGradient><linearGradient id="未命名的渐变_105" x1="45.51" y1="107.59" x2="53.59" y2="107.59" gradientTransform="translate(0.96 -3.21) rotate(0.7)" gradientUnits="userSpaceOnUse"><stop offset="0" stop-color="#e2e2e2"/><stop offset="0.03" stop-color="#d0d0d0"/><stop offset="0.06" stop-color="#bcbcbc"/><stop offset="0.09" stop-color="#b5b5b5"/><stop offset="0.49" stop-color="#f6f6f6"/><stop offset="0.63" stop-color="#f3f3f3"/><stop offset="0.73" stop-color="#eaeaea"/><stop offset="0.82" stop-color="#dbdbdb"/><stop offset="0.9" stop-color="#c6c6c6"/><stop offset="0.97" stop-color="#aaa"/><stop offset="1" stop-color="#9b9b9b"/></linearGradient><linearGradient id="未命名的渐变_105-2" x1="187.14" y1="-122.96" x2="188.67" y2="-122.96" gradientTransform="translate(-184.96 160.07) scale(1.23 1)" xlink:href="#未命名的渐变_105"/><linearGradient id="未命名的渐变_105-3" x1="462.25" y1="-202.22" x2="464.02" y2="-202.22" gradientTransform="translate(-421.76 246.45)" xlink:href="#未命名的渐变_105"/><linearGradient id="未命名的渐变_105-4" x1="652.37" y1="22.64" x2="653.9" y2="22.64" gradientTransform="translate(-716.72 28.85) scale(1.17 1)" xlink:href="#未命名的渐变_105"/><linearGradient id="未命名的渐变_105-5" x1="574.1" y1="374.24" x2="575.63" y2="374.24" gradientTransform="translate(-612.31 -322.35) scale(1.16 1)" xlink:href="#未命名的渐变_105"/><linearGradient id="未命名的渐变_105-6" x1="288.26" y1="453.65" x2="290.34" y2="453.65" gradientTransform="translate(-230.75 -409.05)" xlink:href="#未命名的渐变_105"/><linearGradient id="未命名的渐变_105-7" x1="102.75" y1="228.99" x2="104.28" y2="228.99" gradientTransform="translate(-67.91 -191.66) scale(1.19 1)" xlink:href="#未命名的渐变_105"/><linearGradient id="未命名的渐变_105-8" x1="45.73" y1="47.12" x2="53.56" y2="47.12" xlink:href="#未命名的渐变_105"/><linearGradient id="未命名的渐变_67-2" x1="46.75" y1="47.12" x2="52.54" y2="47.12" gradientTransform="translate(0.96 -3.21) rotate(0.7)" xlink:href="#未命名的渐变_67"/><linearGradient id="未命名的渐变_105-9" x1="47.02" y1="47.12" x2="52.27" y2="47.12" xlink:href="#未命名的渐变_105"/><linearGradient id="未命名的渐变_67-3" x1="47.54" y1="47.12" x2="51.75" y2="47.12" gradientTransform="translate(0.96 -3.21) rotate(0.7)" xlink:href="#未命名的渐变_67"/><linearGradient id="未命名的渐变_105-10" x1="47.78" y1="47.12" x2="51.51" y2="47.12" xlink:href="#未命名的渐变_105"/><linearGradient id="未命名的渐变_105-11" x1="33.13" y1="-95.33" x2="44.31" y2="-95.33" gradientTransform="matrix(0.62, -0.35, 0.58, 1.02, 69.22, 129.46)" xlink:href="#未命名的渐变_105"/><linearGradient id="未命名的渐变_105-12" x1="494.69" y1="-172.11" x2="505.86" y2="-172.11" gradientTransform="matrix(0.01, -0.71, 1.18, 0.01, 217.92, 398.78)" xlink:href="#未命名的渐变_105"/><linearGradient id="未命名的渐变_105-13" x1="833.7" y1="32.09" x2="844.88" y2="32.09" gradientTransform="matrix(-0.61, -0.36, 0.6, -1.01, 525.52, 404.66)" xlink:href="#未命名的渐变_105"/><linearGradient id="未命名的渐变_105-14" x1="710.06" y1="310.85" x2="721.24" y2="310.85" gradientTransform="matrix(-0.62, 0.35, -0.58, -1.02, 684.41, 141.21)" xlink:href="#未命名的渐变_105"/><linearGradient id="未命名的渐变_105-15" x1="249.7" y1="385.79" x2="260.87" y2="385.79" gradientTransform="matrix(-0.01, 0.71, -1.18, -0.01, 535.7, -128.11)" xlink:href="#未命名的渐变_105"/><linearGradient id="未命名的渐变_105-16" x1="-87.58" y1="183.55" x2="-76.4" y2="183.55" gradientTransform="matrix(0.61, 0.36, -0.6, 1.01, 228.1, -133.99)" xlink:href="#未命名的渐变_105"/></defs><title>Industrial wind generators 2（工业风力发电机2）</title><g id="图层_2" data-name="图层 2"><g id="图层_59" data-name="图层 59"><g id="Industrial_wind_generators_2_工业风力发电机2_" data-name="Industrial wind generators 2（工业风力发电机2）"><rect class="cls-1" x="47.81" y="47.71" width="3.97" height="12.86" transform="translate(0.66 -0.6) rotate(0.7)"/><polygon class="cls-2" points="52.7 149.42 44.61 149.32 47.73 60.55 51.7 60.6 52.7 149.42"/><rect class="cls-3" x="44.57" y="31.22" width="1.87" height="11.79" transform="translate(-12.7 29.35) rotate(-31.6)"/><rect class="cls-4" x="40.49" y="38.34" width="1.77" height="11.79" transform="translate(-3.37 85.07) rotate(-89.3)"/><rect class="cls-5" x="44.55" y="45.59" width="1.78" height="11.79" transform="translate(55.19 119.46) rotate(-146.73)"/><rect class="cls-6" x="53.71" y="45.99" width="1.77" height="11.79" transform="translate(128.29 67.47) rotate(148.4)"/><rect class="cls-7" x="57.51" y="38.71" width="2.08" height="11.79" transform="translate(103.87 -13.4) rotate(90.7)"/><rect class="cls-8" x="53.9" y="31.43" width="1.81" height="11.79" transform="translate(29.46 -23.94) rotate(33.27)"/><circle class="cls-9" cx="50.03" cy="44.52" r="3.91"/><circle class="cls-10" cx="50.03" cy="44.52" r="2.9"/><circle class="cls-11" cx="50.03" cy="44.52" r="2.63"/><circle class="cls-12" cx="50.03" cy="44.52" r="2.11"/><circle class="cls-13" cx="50.03" cy="44.52" r="1.86"/><polygon class="cls-14" points="51.33 33.25 44.55 37.39 25.3 3.09 30.8 0 30.92 3.27 51.33 33.25"/><polygon class="cls-15" points="39.74 37.05 39.95 44.99 0 44.51 0.08 38.2 3.01 39.73 39.74 37.05"/><polygon class="cls-16" points="38.33 49.01 45.31 52.8 25.23 86.63 19.81 83.41 22.57 81.67 38.33 49.01"/><polygon class="cls-17" points="49.12 56.62 55.91 52.47 75.16 86.78 69.66 89.87 69.53 86.6 49.12 56.62"/><polygon class="cls-18" points="60.25 51.51 60.04 43.56 100.34 44.05 100.26 50.36 97.3 48.83 60.25 51.51"/><polygon class="cls-19" points="61.4 40.42 54.41 36.62 74.5 2.79 79.92 6.01 77.15 7.75 61.4 40.42"/></g></g></g></svg>