<svg xmlns="http://www.w3.org/2000/svg" xmlns:xlink="http://www.w3.org/1999/xlink" viewBox="0 0 53.49 149.54"><defs><style>.cls-1{fill:url(#未命名的渐变_74);}.cls-2{fill:url(#未命名的渐变_74-2);}.cls-3{fill:url(#未命名的渐变_74-3);}.cls-4{fill:url(#未命名的渐变_67);}.cls-5{fill:url(#未命名的渐变_67-2);}.cls-6{fill:url(#未命名的渐变_74-4);}.cls-7{fill:url(#未命名的渐变_67-3);}.cls-8{fill:url(#未命名的渐变_67-4);}.cls-9{fill:url(#未命名的渐变_67-5);}.cls-10{fill:url(#未命名的渐变_67-6);}.cls-11{fill:url(#未命名的渐变_67-7);}.cls-12{fill:url(#未命名的渐变_67-8);}.cls-13{fill:url(#未命名的渐变_67-9);}.cls-14{fill:url(#未命名的渐变_67-10);}.cls-15{fill:url(#未命名的渐变_67-11);}.cls-16{fill:url(#未命名的渐变_67-12);}.cls-17{fill:url(#未命名的渐变_74-5);}.cls-18{fill:url(#未命名的渐变_74-6);}.cls-19{fill:url(#未命名的渐变_74-7);}.cls-20{fill:url(#未命名的渐变_67-13);}.cls-21{fill:url(#未命名的渐变_67-14);}.cls-22{fill:url(#未命名的渐变_67-15);}.cls-23{fill:url(#未命名的渐变_67-16);}.cls-24{fill:url(#未命名的渐变_67-17);}</style><linearGradient id="未命名的渐变_74" x1="8.32" y1="36.23" x2="15.84" y2="36.23" gradientTransform="translate(0.92 -0.52) rotate(0.7)" gradientUnits="userSpaceOnUse"><stop offset="0" stop-color="#6b6b6b"/><stop offset="0.01" stop-color="#767676"/><stop offset="0.03" stop-color="#959595"/><stop offset="0.04" stop-color="#aaa"/><stop offset="0.37" stop-color="#ccc"/><stop offset="0.74" stop-color="#eaeaea"/><stop offset="0.94" stop-color="#f6f6f6"/><stop offset="0.95" stop-color="#ededed"/><stop offset="0.96" stop-color="#d4d4d4"/><stop offset="0.97" stop-color="#ababab"/><stop offset="0.99" stop-color="#737373"/><stop offset="0.99" stop-color="#666"/></linearGradient><linearGradient id="未命名的渐变_74-2" x1="416.64" y1="35.75" x2="424.17" y2="35.75" gradientTransform="matrix(-1, -0.01, -0.01, 1, 461.31, 5.1)" xlink:href="#未命名的渐变_74"/><linearGradient id="未命名的渐变_74-3" x1="38.55" y1="36.03" x2="41.07" y2="36.03" gradientTransform="translate(0.48 -0.03)" xlink:href="#未命名的渐变_74"/><linearGradient id="未命名的渐变_67" x1="38.55" y1="22.89" x2="40.82" y2="22.89" gradientTransform="translate(0.92 -0.52) rotate(0.7)" gradientUnits="userSpaceOnUse"><stop offset="0" stop-color="#6b6b6b"/><stop offset="0.11" stop-color="#767676"/><stop offset="0.3" stop-color="#959595"/><stop offset="0.41" stop-color="#aaa"/><stop offset="0.56" stop-color="#ccc"/><stop offset="0.71" stop-color="#eaeaea"/><stop offset="0.8" stop-color="#f6f6f6"/><stop offset="0.83" stop-color="#ededed"/><stop offset="0.87" stop-color="#d4d4d4"/><stop offset="0.92" stop-color="#ababab"/><stop offset="0.98" stop-color="#737373"/><stop offset="0.99" stop-color="#666"/></linearGradient><linearGradient id="未命名的渐变_67-2" x1="38.8" y1="48.77" x2="41.07" y2="48.77" xlink:href="#未命名的渐变_67"/><linearGradient id="未命名的渐变_74-4" x1="10.75" y1="36.03" x2="13.27" y2="36.03" gradientTransform="translate(0.48 -0.37)" xlink:href="#未命名的渐变_74"/><linearGradient id="未命名的渐变_67-3" x1="10.75" y1="22.89" x2="13.02" y2="22.89" xlink:href="#未命名的渐变_67"/><linearGradient id="未命名的渐变_67-4" x1="10.99" y1="48.77" x2="13.27" y2="48.77" xlink:href="#未命名的渐变_67"/><linearGradient id="未命名的渐变_67-5" x1="-30.69" y1="28.17" x2="-28.98" y2="28.17" gradientTransform="matrix(0.81, 0, 0, -1, 36.64, 65.43)" xlink:href="#未命名的渐变_67"/><linearGradient id="未命名的渐变_67-6" x1="277.56" y1="323.08" x2="279.27" y2="323.08" gradientTransform="translate(-183.75 -285.47) scale(0.81 1)" xlink:href="#未命名的渐变_67"/><linearGradient id="未命名的渐变_67-7" x1="200.04" y1="-211.62" x2="201.75" y2="-211.62" gradientTransform="translate(-141.91 165.54) scale(0.81 0.66)" xlink:href="#未命名的渐变_67"/><linearGradient id="未命名的渐变_67-8" x1="441.87" y1="304.31" x2="443.58" y2="304.31" gradientTransform="matrix(0.81, 0, 0, -0.66, -323.87, 226.69)" xlink:href="#未命名的渐变_67"/><linearGradient id="未命名的渐变_67-9" x1="460.31" y1="200.08" x2="462.02" y2="200.08" gradientTransform="matrix(0.81, 0, 0, -1, -331.46, 221.15)" xlink:href="#未命名的渐变_67"/><linearGradient id="未命名的渐变_67-10" x1="-65.85" y1="11.09" x2="-64.14" y2="11.09" gradientTransform="matrix(0.72, 0, 0, -0.66, 65.52, 49.61)" xlink:href="#未命名的渐变_67"/><linearGradient id="未命名的渐变_67-11" x1="152.02" y1="-95.32" x2="153.73" y2="-95.32" gradientTransform="translate(-109.97 115.76) scale(0.81 1)" xlink:href="#未命名的渐变_67"/><linearGradient id="未命名的渐变_67-12" x1="323.09" y1="423.36" x2="324.8" y2="423.36" gradientTransform="translate(-199.22 -234.93) scale(0.72 0.66)" xlink:href="#未命名的渐变_67"/><linearGradient id="未命名的渐变_74-5" x1="19.84" y1="24.52" x2="31.67" y2="24.52" gradientTransform="translate(0.62 -0.2)" xlink:href="#未命名的渐变_74"/><linearGradient id="未命名的渐变_74-6" x1="-0.27" y1="29.09" x2="4.17" y2="29.09" gradientTransform="translate(0.56 -0.49)" xlink:href="#未命名的渐变_74"/><linearGradient id="未命名的渐变_74-7" x1="48.19" y1="29.09" x2="52.63" y2="29.09" gradientTransform="translate(0.56 0.1)" xlink:href="#未命名的渐变_74"/><linearGradient id="未命名的渐变_67-13" x1="23.54" y1="61.44" x2="28.22" y2="61.44" gradientTransform="translate(0.17 -0.21)" xlink:href="#未命名的渐变_67"/><linearGradient id="未命名的渐变_67-14" x1="22.7" y1="110.67" x2="28.92" y2="110.67" gradientTransform="translate(-0.43 -0.21)" xlink:href="#未命名的渐变_67"/><linearGradient id="未命名的渐变_67-15" x1="21.31" y1="144.16" x2="23.03" y2="144.16" gradientTransform="translate(-0.84 -0.26)" xlink:href="#未命名的渐变_67"/><linearGradient id="未命名的渐变_67-16" x1="28.72" y1="144.16" x2="30.45" y2="144.16" gradientTransform="translate(-0.84 -0.17)" xlink:href="#未命名的渐变_67"/><linearGradient id="未命名的渐变_67-17" x1="20.33" y1="148.38" x2="31.17" y2="148.38" gradientTransform="translate(-0.89 -0.21)" xlink:href="#未命名的渐变_67"/></defs><title>Industrial wind generators 3（工业风力发电机3）</title><g id="图层_2" data-name="图层 2"><g id="图层_59" data-name="图层 59"><g id="Industrial_wind_generators_3_工业风力发电机3_" data-name="Industrial wind generators 3（工业风力发电机3）"><polygon class="cls-1" points="16.02 60.11 8.53 57.72 9.09 11.6 16.59 13.74 16.02 60.11"/><polygon class="cls-2" points="36.46 59.1 44 58.23 44.13 12.33 37.01 13.54 36.46 59.1"/><rect class="cls-3" x="39.02" y="21.61" width="2.52" height="28.78" transform="translate(0.44 -0.49) rotate(0.7)"/><circle class="cls-4" cx="40.32" cy="22.86" r="1.14"/><circle class="cls-5" cx="40.25" cy="48.74" r="1.14"/><rect class="cls-6" x="11.22" y="21.27" width="2.52" height="28.78" transform="translate(0.44 -0.15) rotate(0.7)"/><circle class="cls-7" cx="12.52" cy="22.52" r="1.14"/><circle class="cls-8" cx="12.45" cy="48.4" r="1.14"/><rect class="cls-9" x="11.9" y="23.74" width="1.38" height="27.05" transform="translate(33.38 3.88) rotate(50.58)"/><rect class="cls-10" x="39.99" y="24.08" width="1.38" height="27.05" transform="translate(95.73 31.4) rotate(130.82)"/><rect class="cls-11" x="19.34" y="17.98" width="1.38" height="17.73" transform="translate(-13.28 30.37) rotate(-59.3)"/><rect class="cls-12" x="32.33" y="18.38" width="1.38" height="17.73" transform="translate(25.41 69.37) rotate(-119.3)"/><rect class="cls-13" x="39.6" y="7.54" width="1.38" height="27.05" transform="translate(49.59 65.56) rotate(-129.42)"/><rect class="cls-14" x="18.05" y="33.47" width="1.23" height="17.73" transform="translate(35.14 -0.9) rotate(44.64)"/><rect class="cls-15" x="12.57" y="6.91" width="1.38" height="27.05" transform="translate(-10.87 17.11) rotate(-49.18)"/><rect class="cls-16" x="33.66" y="33.66" width="1.23" height="17.73" transform="translate(88.38 50.03) rotate(136.76)"/><rect class="cls-17" x="20.45" y="0.07" width="11.84" height="48.5" transform="translate(0.3 -0.32) rotate(0.7)"/><rect class="cls-18" x="0.3" y="4.39" width="4.44" height="48.42" transform="translate(0.35 -0.03) rotate(0.7)"/><rect class="cls-19" x="48.75" y="4.98" width="4.44" height="48.42" transform="translate(0.36 -0.62) rotate(0.7)"/><rect class="cls-20" x="23.7" y="48.4" width="4.68" height="25.66" transform="translate(0.75 -0.31) rotate(0.7)"/><rect class="cls-21" x="22.26" y="74.06" width="6.22" height="72.8" transform="translate(1.35 -0.3) rotate(0.7)"/><rect class="cls-22" x="20.46" y="139.96" width="1.73" height="7.89" rx="0.25" transform="translate(1.76 -0.25) rotate(0.7)"/><rect class="cls-23" x="27.88" y="140.05" width="1.73" height="7.89" rx="0.25" transform="translate(1.76 -0.34) rotate(0.7)"/><rect class="cls-24" x="19.44" y="146.86" width="10.84" height="2.62" rx="0.2" transform="translate(1.81 -0.29) rotate(0.7)"/></g></g></g></svg>