<svg xmlns="http://www.w3.org/2000/svg" xmlns:xlink="http://www.w3.org/1999/xlink" viewBox="0 0 86.81 150"><defs><style>.cls-1,.cls-8{fill:#ac6438;}.cls-1{opacity:0.8;}.cls-2{fill:#f5cd6e;}.cls-3{fill:#f9e7c6;}.cls-4{fill:#dcb558;}.cls-5{fill:#8e4c39;}.cls-6{fill:#f4b798;}.cls-7{fill:none;stroke:#fff;stroke-linecap:round;stroke-linejoin:round;stroke-width:3px;}.cls-9{fill:url(#未命名的渐变_4);}.cls-10{fill:url(#未命名的渐变_4-2);}.cls-11{fill:url(#未命名的渐变_4-3);}.cls-12{fill:url(#未命名的渐变_4-4);}.cls-13{fill:url(#未命名的渐变_4-5);}.cls-14{fill:url(#未命名的渐变_4-6);}.cls-15{fill:url(#未命名的渐变_4-7);}.cls-16{fill:url(#未命名的渐变_4-8);}.cls-17{fill:url(#未命名的渐变_4-9);}.cls-18{fill:url(#未命名的渐变_4-10);}.cls-19{fill:url(#未命名的渐变_4-11);}.cls-20{fill:url(#未命名的渐变_4-12);}.cls-21{fill:url(#未命名的渐变_4-13);}.cls-22{fill:url(#未命名的渐变_4-14);}.cls-23{fill:url(#未命名的渐变_4-15);}.cls-24{fill:url(#未命名的渐变_4-16);}.cls-25{fill:url(#未命名的渐变_4-17);}.cls-26{fill:url(#未命名的渐变_4-18);}.cls-27{fill:url(#未命名的渐变_4-19);}.cls-28{fill:url(#未命名的渐变_4-20);}.cls-29{fill:url(#未命名的渐变_4-21);}.cls-30{fill:url(#未命名的渐变_4-22);}.cls-31{fill:url(#未命名的渐变_4-23);}.cls-32{fill:url(#未命名的渐变_4-24);}.cls-33{fill:url(#未命名的渐变_4-25);}.cls-34{fill:url(#未命名的渐变_4-26);}.cls-35{fill:url(#未命名的渐变_4-27);}.cls-36{fill:url(#未命名的渐变_4-28);}.cls-37{fill:url(#未命名的渐变_4-29);}.cls-38{fill:#6d392d;}.cls-39{fill:url(#未命名的渐变_4-30);}.cls-40{fill:url(#未命名的渐变_4-31);}.cls-41{fill:url(#未命名的渐变_4-32);}.cls-42{fill:url(#未命名的渐变_4-33);}.cls-43{fill:url(#未命名的渐变_4-34);}</style><linearGradient id="未命名的渐变_4" x1="16.45" y1="12.55" x2="17.07" y2="12.55" gradientUnits="userSpaceOnUse"><stop offset="0" stop-color="#e2e2e2"/><stop offset="0.03" stop-color="#dadada"/><stop offset="0.08" stop-color="#d3d3d3"/><stop offset="0.49" stop-color="#f6f6f6"/><stop offset="0.63" stop-color="#f3f3f3"/><stop offset="0.73" stop-color="#eaeaea"/><stop offset="0.82" stop-color="#dbdbdb"/><stop offset="0.9" stop-color="#c6c6c6"/><stop offset="0.97" stop-color="#aaa"/><stop offset="1" stop-color="#9b9b9b"/></linearGradient><linearGradient id="未命名的渐变_4-2" x1="17.99" y1="12.55" x2="18.6" y2="12.55" xlink:href="#未命名的渐变_4"/><linearGradient id="未命名的渐变_4-3" x1="19.52" y1="12.55" x2="20.14" y2="12.55" xlink:href="#未命名的渐变_4"/><linearGradient id="未命名的渐变_4-4" x1="21.06" y1="12.55" x2="21.67" y2="12.55" xlink:href="#未命名的渐变_4"/><linearGradient id="未命名的渐变_4-5" x1="22.6" y1="12.55" x2="23.21" y2="12.55" xlink:href="#未命名的渐变_4"/><linearGradient id="未命名的渐变_4-6" x1="24.13" y1="12.55" x2="24.75" y2="12.55" xlink:href="#未命名的渐变_4"/><linearGradient id="未命名的渐变_4-7" x1="25.67" y1="12.55" x2="26.28" y2="12.55" xlink:href="#未命名的渐变_4"/><linearGradient id="未命名的渐变_4-8" x1="27.2" y1="12.55" x2="27.82" y2="12.55" xlink:href="#未命名的渐变_4"/><linearGradient id="未命名的渐变_4-9" x1="28.74" y1="12.55" x2="29.35" y2="12.55" xlink:href="#未命名的渐变_4"/><linearGradient id="未命名的渐变_4-10" x1="30.27" y1="12.55" x2="30.89" y2="12.55" xlink:href="#未命名的渐变_4"/><linearGradient id="未命名的渐变_4-11" x1="31.81" y1="12.55" x2="32.42" y2="12.55" xlink:href="#未命名的渐变_4"/><linearGradient id="未命名的渐变_4-12" x1="33.35" y1="12.55" x2="33.96" y2="12.55" xlink:href="#未命名的渐变_4"/><linearGradient id="未命名的渐变_4-13" x1="34.88" y1="12.55" x2="35.5" y2="12.55" xlink:href="#未命名的渐变_4"/><linearGradient id="未命名的渐变_4-14" x1="36.42" y1="12.55" x2="37.03" y2="12.55" xlink:href="#未命名的渐变_4"/><linearGradient id="未命名的渐变_4-15" x1="37.95" y1="12.55" x2="38.57" y2="12.55" xlink:href="#未命名的渐变_4"/><linearGradient id="未命名的渐变_4-16" x1="39.49" y1="12.55" x2="40.1" y2="12.55" xlink:href="#未命名的渐变_4"/><linearGradient id="未命名的渐变_4-17" x1="41.03" y1="12.55" x2="41.64" y2="12.55" xlink:href="#未命名的渐变_4"/><linearGradient id="未命名的渐变_4-18" x1="42.56" y1="12.55" x2="43.18" y2="12.55" xlink:href="#未命名的渐变_4"/><linearGradient id="未命名的渐变_4-19" x1="44.1" y1="12.55" x2="44.71" y2="12.55" xlink:href="#未命名的渐变_4"/><linearGradient id="未命名的渐变_4-20" x1="45.63" y1="12.55" x2="46.25" y2="12.55" xlink:href="#未命名的渐变_4"/><linearGradient id="未命名的渐变_4-21" x1="47.17" y1="12.55" x2="47.78" y2="12.55" xlink:href="#未命名的渐变_4"/><linearGradient id="未命名的渐变_4-22" x1="48.7" y1="12.55" x2="49.32" y2="12.55" xlink:href="#未命名的渐变_4"/><linearGradient id="未命名的渐变_4-23" x1="50.24" y1="12.55" x2="50.85" y2="12.55" xlink:href="#未命名的渐变_4"/><linearGradient id="未命名的渐变_4-24" x1="51.78" y1="12.55" x2="52.39" y2="12.55" xlink:href="#未命名的渐变_4"/><linearGradient id="未命名的渐变_4-25" x1="53.31" y1="12.55" x2="53.93" y2="12.55" xlink:href="#未命名的渐变_4"/><linearGradient id="未命名的渐变_4-26" x1="54.85" y1="12.55" x2="55.46" y2="12.55" xlink:href="#未命名的渐变_4"/><linearGradient id="未命名的渐变_4-27" x1="56.38" y1="12.55" x2="57" y2="12.55" xlink:href="#未命名的渐变_4"/><linearGradient id="未命名的渐变_4-28" x1="57.92" y1="12.55" x2="58.53" y2="12.55" xlink:href="#未命名的渐变_4"/><linearGradient id="未命名的渐变_4-29" x1="59.46" y1="12.55" x2="60.07" y2="12.55" xlink:href="#未命名的渐变_4"/><linearGradient id="未命名的渐变_4-30" x1="60.99" y1="12.55" x2="61.61" y2="12.55" xlink:href="#未命名的渐变_4"/><linearGradient id="未命名的渐变_4-31" x1="62.53" y1="12.55" x2="63.14" y2="12.55" xlink:href="#未命名的渐变_4"/><linearGradient id="未命名的渐变_4-32" x1="64.06" y1="12.55" x2="64.68" y2="12.55" xlink:href="#未命名的渐变_4"/><linearGradient id="未命名的渐变_4-33" x1="65.6" y1="12.55" x2="66.21" y2="12.55" xlink:href="#未命名的渐变_4"/><linearGradient id="未命名的渐变_4-34" x1="67.13" y1="12.55" x2="67.75" y2="12.55" xlink:href="#未命名的渐变_4"/></defs><title>Pill bottle(药瓶) (0)</title><g id="图层_2" data-name="图层 2"><g id="图层_17" data-name="图层 17"><g id="Pill_bottle_药瓶_" data-name="Pill bottle(药瓶)"><path class="cls-1" d="M76.58,31h-11a2.18,2.18,0,0,1-2-2.28V25.1H21.32v2.58a3.17,3.17,0,0,1-3,3.32h-8.1C4.58,31,0,36.1,0,42.4v96.21C0,144.9,4.58,150,10.23,150H76.58c5.65,0,10.23-5.1,10.23-11.39V42.4C86.81,36.1,82.23,31,76.58,31Z"/><rect class="cls-2" x="12.09" y="48.09" width="62.63" height="85.27"/><rect class="cls-3" x="12.71" y="48.09" width="15.23" height="85.27"/><rect class="cls-4" x="56.91" y="48.09" width="17.27" height="85.27"/><path class="cls-5" d="M70.09,33.05A20.13,20.13,0,0,1,78,36.73a13.32,13.32,0,0,1,3,3.29,14.52,14.52,0,0,1,1.84,4,32.07,32.07,0,0,1,1,8.72L84,61.4l.76,34.47c.23,11.49.8,23,.56,34.46L85.15,139l-.07,2.16a5.59,5.59,0,0,1-.93,2.88A8.67,8.67,0,0,1,80,147.06a20.5,20.5,0,0,1-9,1.15c-2.87-.21-5.74-.41-8.61-.71v-.4c2.87-.3,5.74-.51,8.61-.72a19.82,19.82,0,0,0,7.83-1.88,6.15,6.15,0,0,0,2.56-2.2,2.17,2.17,0,0,0,.28-1.19L81.62,139l-.28-8.62c-.34-11.49.12-23,.24-34.46L82,61.41l.15-8.62a30.35,30.35,0,0,0-.58-8.39,13.13,13.13,0,0,0-1.53-3.83,12.28,12.28,0,0,0-2.64-3.19A19.44,19.44,0,0,0,70,33.44Z"/><path class="cls-6" d="M16.66,146l-1.48-1.53a20.74,20.74,0,0,1-5.54-15.79l1.53-81.24c.08-4.27,3.25-6.71,6.87-8.09,3-1.14,28.82.35,34.46-2.73,2.2-1.21,14.62-7.73,2.17-14.15-9.43-4.87-33.35,2.59-33.35,2.59v2.58a3.17,3.17,0,0,1-3,3.32h-8.1a6.21,6.21,0,0,0-2.87.82c-3.88,2-6.25,6.53-6.31,11.32C.84,60.43.33,114.9,2,130.51,4,149.15,16.66,146,16.66,146Z"/><path class="cls-7" d="M9.36,35.56a10,10,0,0,0-4.47,9.36"/><path class="cls-8" d="M16.13,0H68.31A.67.67,0,0,1,69,.67V25.1a0,0,0,0,1,0,0H15.46a0,0,0,0,1,0,0V.67A.67.67,0,0,1,16.13,0Z"/><rect class="cls-6" x="15.46" width="29.71" height="25.1"/><rect class="cls-9" x="16.45" width="0.61" height="25.1"/><rect class="cls-10" x="17.99" width="0.61" height="25.1"/><rect class="cls-11" x="19.52" width="0.61" height="25.1"/><rect class="cls-12" x="21.06" width="0.61" height="25.1"/><rect class="cls-13" x="22.6" width="0.61" height="25.1"/><rect class="cls-14" x="24.13" width="0.61" height="25.1"/><rect class="cls-15" x="25.67" width="0.61" height="25.1"/><rect class="cls-16" x="27.2" width="0.61" height="25.1"/><rect class="cls-17" x="28.74" width="0.61" height="25.1"/><rect class="cls-18" x="30.27" width="0.61" height="25.1"/><rect class="cls-19" x="31.81" width="0.61" height="25.1"/><rect class="cls-20" x="33.35" width="0.61" height="25.1"/><rect class="cls-21" x="34.88" width="0.61" height="25.1"/><rect class="cls-22" x="36.42" width="0.61" height="25.1"/><rect class="cls-23" x="37.95" width="0.61" height="25.1"/><rect class="cls-24" x="39.49" width="0.61" height="25.1"/><rect class="cls-25" x="41.03" width="0.61" height="25.1"/><rect class="cls-26" x="42.56" width="0.61" height="25.1"/><rect class="cls-27" x="44.1" width="0.61" height="25.1"/><rect class="cls-28" x="45.63" width="0.61" height="25.1"/><rect class="cls-29" x="47.17" width="0.61" height="25.1"/><rect class="cls-30" x="48.7" width="0.61" height="25.1"/><rect class="cls-31" x="50.24" width="0.61" height="25.1"/><rect class="cls-32" x="51.78" width="0.61" height="25.1"/><rect class="cls-33" x="53.31" width="0.61" height="25.1"/><rect class="cls-34" x="54.85" width="0.61" height="25.1"/><rect class="cls-35" x="56.38" width="0.61" height="25.1"/><rect class="cls-36" x="57.92" width="0.61" height="25.1"/><rect class="cls-37" x="59.46" width="0.61" height="25.1"/><rect class="cls-38" x="61.3" width="7.48" height="25.1"/><rect class="cls-39" x="60.99" width="0.61" height="25.1"/><rect class="cls-40" x="62.53" width="0.61" height="25.1"/><rect class="cls-41" x="64.06" width="0.61" height="25.1"/><rect class="cls-42" x="65.6" width="0.61" height="25.1"/><rect class="cls-43" x="67.13" width="0.61" height="25.1"/><line class="cls-7" x1="4.85" y1="54.78" x2="4.85" y2="89.25"/></g></g></g></svg>