<svg xmlns="http://www.w3.org/2000/svg" xmlns:xlink="http://www.w3.org/1999/xlink" viewBox="0 0 143.63 150.14"><defs><style>.cls-1,.cls-6{opacity:0.64;}.cls-1{fill:url(#未命名的渐变_12);}.cls-2{fill:#f4f4f4;}.cls-2,.cls-3{opacity:0.29;}.cls-3,.cls-4{fill:#fff;}.cls-5{fill:#707070;}.cls-6{fill:url(#未命名的渐变_12-2);}</style><linearGradient id="未命名的渐变_12" y1="80.49" x2="143.63" y2="80.49" gradientUnits="userSpaceOnUse"><stop offset="0" stop-color="#6b6b6b"/><stop offset="0.04" stop-color="#767676"/><stop offset="0.11" stop-color="#959595"/><stop offset="0.15" stop-color="#aaa"/><stop offset="0.2" stop-color="#aeaeae"/><stop offset="0.62" stop-color="#ccc"/><stop offset="0.85" stop-color="#d8d8d8"/><stop offset="0.9" stop-color="#cfcfcf"/><stop offset="0.98" stop-color="#b6b6b6"/><stop offset="0.99" stop-color="#b2b2b2"/></linearGradient><linearGradient id="未命名的渐变_12-2" x1="11.89" y1="5.42" x2="130.36" y2="5.42" xlink:href="#未命名的渐变_12"/></defs><title>Polyethylene jar（聚乙烯罐） (2)</title><g id="图层_2" data-name="图层 2"><g id="图层_17" data-name="图层 17"><g id="Polyethylene_jar_聚乙烯罐_" data-name="Polyethylene jar（聚乙烯罐）"><path class="cls-1" d="M143,32.57c-.69-14.73-20.1-19-20.1-19h0V10.84H19.3v2.78h0S0,21.88,0,32.76L.64,144.94c0,2.87,4.7,5.2,10.48,5.2h122c5.8,0,10.49-2.35,10.47-5.23Z"/><path class="cls-2" d="M27.31,30.53h89a11.92,11.92,0,0,1,11.92,11.92v84.73A12.82,12.82,0,0,1,115.42,140H28.21a12.82,12.82,0,0,1-12.82-12.82V42.44A11.92,11.92,0,0,1,27.31,30.53Z"/><path class="cls-3" d="M128.24,97,15.39,75.41V41.55a11,11,0,0,1,11-11h90.8a11,11,0,0,1,11,11Z"/><path class="cls-4" d="M123.14,17a20.75,20.75,0,0,1,8.9,4.19,16.59,16.59,0,0,1,5.3,8.49,39.27,39.27,0,0,1,1.07,9.94l.23,9.79q.36,19.61.4,39.2c.05,13.06-.07,26.13-.29,39.2l-.21,9.8-.08,2.45c0,.41,0,.79-.06,1.29a4.76,4.76,0,0,1-.37,1.34,7.77,7.77,0,0,1-3.74,3.58,20.72,20.72,0,0,1-9.71,1.85l-9.8-.24,9.8-.24a20.07,20.07,0,0,0,9.26-2.21,6.69,6.69,0,0,0,3.08-3.19,4.68,4.68,0,0,0,.21-2.18l-.1-2.45-.3-9.8c-.33-13.06-.57-26.13-.64-39.19s-.07-26.13.06-39.2l.14-9.8c0-1.64.08-3.26,0-4.84a27.4,27.4,0,0,0-.54-4.71,15.87,15.87,0,0,0-4.34-8.22A22.18,22.18,0,0,0,123.14,17Z"/><path class="cls-5" d="M19.41,13.75a41.51,41.51,0,0,0-7.94,6.45,29.7,29.7,0,0,0-5.73,8.3,14.35,14.35,0,0,0-1.2,4.72v.59l0,.65,0,1.29.06,2.58.24,10.32,1,41.28c.37,13.77.73,27.53.78,41.29v7.71a8.69,8.69,0,0,0,.27,2.19,4.87,4.87,0,0,0,2.63,3,15.92,15.92,0,0,0,4.55,1.41,80.12,80.12,0,0,0,10.16.68c3.45.18,6.89.31,10.33.54v.3c-3.44.24-6.88.36-10.33.55l-5.16.18a40.8,40.8,0,0,1-5.29-.15,16.34,16.34,0,0,1-5.35-1.35A8.29,8.29,0,0,1,6,144.6a7,7,0,0,1-1.62-2.68,10.92,10.92,0,0,1-.48-2.9l-.07-2.62-.15-5.16c-.34-13.76-.39-27.52-.42-41.29L3,48.66,3,38.34V33.82l0-.7A14.86,14.86,0,0,1,4.55,28a30.54,30.54,0,0,1,6.35-8.32,42.14,42.14,0,0,1,8.36-6.14Z"/><rect class="cls-6" x="11.89" width="118.47" height="10.84" rx="2.14"/></g></g></g></svg>