<svg xmlns="http://www.w3.org/2000/svg" xmlns:xlink="http://www.w3.org/1999/xlink" viewBox="0 0 123.04 150"><defs><style>.cls-1{fill:url(#未命名的渐变_74);}.cls-2,.cls-5{fill:#565656;}.cls-2{stroke:#b9b8bc;}.cls-18,.cls-2,.cls-4{stroke-miterlimit:10;}.cls-3{fill:url(#未命名的渐变_74-2);}.cls-4{fill:none;stroke-width:0.5px;}.cls-18,.cls-4{stroke:#565656;}.cls-6{fill:url(#未命名的渐变_74-3);}.cls-7{fill:url(#未命名的渐变_74-4);}.cls-8{fill:url(#未命名的渐变_74-5);}.cls-9{fill:url(#未命名的渐变_105);}.cls-10{fill:url(#未命名的渐变_105-2);}.cls-11{fill:url(#未命名的渐变_74-6);}.cls-12{fill:url(#未命名的渐变_67);}.cls-13{fill:url(#未命名的渐变_67-2);}.cls-14{fill:url(#未命名的渐变_67-3);}.cls-15{fill:url(#未命名的渐变_67-4);}.cls-16{fill:#9b9b9b;}.cls-17,.cls-18{fill:#b9b8bc;}.cls-19{fill:url(#未命名的渐变_105-3);}.cls-20{fill:url(#未命名的渐变_67-5);}.cls-21{fill:url(#未命名的渐变_67-6);}.cls-22{fill:url(#未命名的渐变_67-7);}</style><linearGradient id="未命名的渐变_74" x1="5.02" y1="75" x2="118.02" y2="75" gradientUnits="userSpaceOnUse"><stop offset="0" stop-color="#6b6b6b"/><stop offset="0.01" stop-color="#767676"/><stop offset="0.03" stop-color="#959595"/><stop offset="0.04" stop-color="#aaa"/><stop offset="0.37" stop-color="#ccc"/><stop offset="0.74" stop-color="#eaeaea"/><stop offset="0.94" stop-color="#f6f6f6"/><stop offset="0.95" stop-color="#ededed"/><stop offset="0.96" stop-color="#d4d4d4"/><stop offset="0.97" stop-color="#ababab"/><stop offset="0.99" stop-color="#737373"/><stop offset="0.99" stop-color="#666"/></linearGradient><linearGradient id="未命名的渐变_74-2" x1="26.52" y1="16.5" x2="42.52" y2="16.5" xlink:href="#未命名的渐变_74"/><linearGradient id="未命名的渐变_74-3" x1="79.59" y1="17" x2="95.59" y2="17" xlink:href="#未命名的渐变_74"/><linearGradient id="未命名的渐变_74-4" x1="0" y1="91.06" x2="5.02" y2="91.06" xlink:href="#未命名的渐变_74"/><linearGradient id="未命名的渐变_74-5" x1="118.02" y1="91.06" x2="123.04" y2="91.06" xlink:href="#未命名的渐变_74"/><linearGradient id="未命名的渐变_105" x1="9.52" y1="66.2" x2="13.19" y2="66.2" gradientUnits="userSpaceOnUse"><stop offset="0" stop-color="#e2e2e2"/><stop offset="0.03" stop-color="#d0d0d0"/><stop offset="0.06" stop-color="#bcbcbc"/><stop offset="0.09" stop-color="#b5b5b5"/><stop offset="0.49" stop-color="#f6f6f6"/><stop offset="0.63" stop-color="#f3f3f3"/><stop offset="0.73" stop-color="#eaeaea"/><stop offset="0.82" stop-color="#dbdbdb"/><stop offset="0.9" stop-color="#c6c6c6"/><stop offset="0.97" stop-color="#aaa"/><stop offset="1" stop-color="#9b9b9b"/></linearGradient><linearGradient id="未命名的渐变_105-2" x1="109.85" y1="66.2" x2="113.52" y2="66.2" xlink:href="#未命名的渐变_105"/><linearGradient id="未命名的渐变_74-6" x1="61.52" y1="101.94" x2="61.52" y2="70.62" xlink:href="#未命名的渐变_74"/><linearGradient id="未命名的渐变_67" x1="109.85" y1="76.84" x2="113.52" y2="76.84" gradientUnits="userSpaceOnUse"><stop offset="0" stop-color="#6b6b6b"/><stop offset="0.11" stop-color="#767676"/><stop offset="0.3" stop-color="#959595"/><stop offset="0.41" stop-color="#aaa"/><stop offset="0.56" stop-color="#ccc"/><stop offset="0.71" stop-color="#eaeaea"/><stop offset="0.8" stop-color="#f6f6f6"/><stop offset="0.83" stop-color="#ededed"/><stop offset="0.87" stop-color="#d4d4d4"/><stop offset="0.92" stop-color="#ababab"/><stop offset="0.98" stop-color="#737373"/><stop offset="0.99" stop-color="#666"/></linearGradient><linearGradient id="未命名的渐变_67-2" x1="109.85" y1="96.41" x2="113.52" y2="96.41" xlink:href="#未命名的渐变_67"/><linearGradient id="未命名的渐变_67-3" x1="9.52" y1="76.49" x2="13.19" y2="76.49" xlink:href="#未命名的渐变_67"/><linearGradient id="未命名的渐变_67-4" x1="9.52" y1="96.06" x2="13.19" y2="96.06" xlink:href="#未命名的渐变_67"/><linearGradient id="未命名的渐变_105-3" x1="58.03" y1="32.97" x2="63.7" y2="32.97" xlink:href="#未命名的渐变_105"/><linearGradient id="未命名的渐变_67-5" x1="60.27" y1="66.57" x2="61.46" y2="66.57" xlink:href="#未命名的渐变_67"/><linearGradient id="未命名的渐变_67-6" x1="35.11" y1="66.57" x2="36.3" y2="66.57" xlink:href="#未命名的渐变_67"/><linearGradient id="未命名的渐变_67-7" x1="85.36" y1="66.57" x2="86.55" y2="66.57" xlink:href="#未命名的渐变_67"/></defs><title>Stamping machine(冲压机)</title><g id="图层_2" data-name="图层 2"><g id="图层_61" data-name="图层 61"><g id="Stamping_machine_冲压机_" data-name="Stamping machine(冲压机)"><rect class="cls-1" x="5.02" width="113" height="150"/><rect class="cls-2" x="15.02" y="118.5" width="93" height="31"/><rect class="cls-3" x="26.52" y="8.5" width="16" height="16"/><rect class="cls-2" x="15.02" y="27.5" width="93" height="84"/><circle class="cls-4" cx="34.52" cy="16.5" r="5.5"/><circle class="cls-5" cx="27.77" cy="9.75" r="0.75"/><circle class="cls-5" cx="41.22" cy="9.75" r="0.75"/><circle class="cls-5" cx="27.8" cy="23.24" r="0.75"/><circle class="cls-5" cx="41.24" cy="23.24" r="0.75"/><rect class="cls-6" x="79.59" y="9" width="16" height="16"/><circle class="cls-4" cx="87.59" cy="17" r="5.5"/><circle class="cls-5" cx="80.84" cy="10.25" r="0.75"/><circle class="cls-5" cx="94.29" cy="10.25" r="0.75"/><circle class="cls-5" cx="80.87" cy="23.74" r="0.75"/><circle class="cls-5" cx="94.31" cy="23.74" r="0.75"/><rect class="cls-7" y="70.62" width="5.02" height="40.88"/><rect class="cls-8" x="118.02" y="70.62" width="5.02" height="40.88"/><rect class="cls-9" x="9.52" y="20.5" width="3.67" height="91.39"/><rect class="cls-10" x="109.85" y="20.5" width="3.67" height="91.39"/><rect class="cls-2" x="9.52" y="4.5" width="16" height="16"/><rect class="cls-2" x="97.52" y="4.5" width="16" height="16"/><path class="cls-11" d="M13.19,70.62v31.32h96.66V70.62Zm94.17,29.1H15.57V72.83h91.79Z"/><rect class="cls-12" x="109.85" y="75" width="3.67" height="3.67"/><rect class="cls-13" x="109.85" y="94.57" width="3.67" height="3.67"/><rect class="cls-14" x="9.52" y="74.65" width="3.67" height="3.67"/><rect class="cls-15" x="9.52" y="94.23" width="3.67" height="3.67"/><rect class="cls-16" x="15.57" y="73.43" width="91.79" height="7.28"/><rect class="cls-17" x="22.67" y="81.26" width="76.39" height="18.47"/><rect class="cls-18" x="19.15" y="122.96" width="9.87" height="4.34"/><rect class="cls-16" x="18.61" y="41" width="85.83" height="29.62"/><rect class="cls-16" x="30.3" y="28" width="7.83" height="13"/><rect class="cls-16" x="82.64" y="28" width="7.83" height="13"/><rect class="cls-17" x="25.52" y="37.94" width="57.12" height="3.06"/><rect class="cls-19" x="58.03" y="28" width="5.67" height="9.94"/><rect class="cls-20" x="60.27" y="62.53" width="1.19" height="8.09"/><rect class="cls-21" x="35.11" y="62.53" width="1.19" height="8.09"/><rect class="cls-22" x="85.36" y="62.53" width="1.19" height="8.09"/></g></g></g></svg>