<svg xmlns="http://www.w3.org/2000/svg" xmlns:xlink="http://www.w3.org/1999/xlink" viewBox="0 0 82.08 150"><defs><style>.cls-1{fill:url(#未命名的渐变_3);}.cls-2{fill:url(#未命名的渐变_3-2);}.cls-3{fill:url(#未命名的渐变_3-3);}.cls-4{fill:url(#未命名的渐变_3-4);}.cls-5{fill:url(#未命名的渐变_3-5);}.cls-6{fill:url(#未命名的渐变_3-6);}.cls-7{fill:url(#未命名的渐变_101);}.cls-8{opacity:0.6;}.cls-9{fill:#252628;}.cls-10{fill:url(#未命名的渐变_13);}.cls-11{fill:url(#未命名的渐变_13-2);}</style><linearGradient id="未命名的渐变_3" x1="67.04" y1="137.48" x2="69.5" y2="137.48" gradientTransform="translate(-46.81 -24.74)" gradientUnits="userSpaceOnUse"><stop offset="0" stop-color="#767b82"/><stop offset="0.08" stop-color="#9ba1ab"/><stop offset="0.91" stop-color="#9ba1ab"/><stop offset="0.96" stop-color="#d7dce0"/><stop offset="0.98" stop-color="#767b82"/></linearGradient><linearGradient id="未命名的渐变_3-2" x1="94.09" y1="110.43" x2="96.54" y2="110.43" gradientTransform="matrix(1, 0, 0, -1, -35.61, 223.17)" xlink:href="#未命名的渐变_3"/><linearGradient id="未命名的渐变_3-3" x1="-496.85" y1="-544.76" x2="-496.85" y2="-553.15" gradientTransform="translate(505.11 679.54)" xlink:href="#未命名的渐变_3"/><linearGradient id="未命名的渐变_3-4" x1="-480.2" y1="-540.69" x2="-480.2" y2="-557.22" gradientTransform="translate(488.47 696.19)" xlink:href="#未命名的渐变_3"/><linearGradient id="未命名的渐变_3-5" x1="-496.85" y1="-610.31" x2="-496.85" y2="-618.69" gradientTransform="translate(570.66 745.08)" xlink:href="#未命名的渐变_3"/><linearGradient id="未命名的渐变_3-6" x1="-480.2" y1="-606.23" x2="-480.2" y2="-622.77" gradientTransform="translate(554.01 761.73)" xlink:href="#未命名的渐变_3"/><linearGradient id="未命名的渐变_101" x1="0.54" y1="60.7" x2="81.94" y2="60.7" gradientUnits="userSpaceOnUse"><stop offset="0" stop-color="#a9b1bb"/><stop offset="0.09" stop-color="#61666b"/><stop offset="0.18" stop-color="#696e73"/><stop offset="0.32" stop-color="#7e8489"/><stop offset="0.49" stop-color="#a1a7ae"/><stop offset="0.69" stop-color="#d1d8e0"/><stop offset="0.75" stop-color="#e2eaf2"/><stop offset="0.93" stop-color="#9ba1ab"/><stop offset="1" stop-color="#767b82"/></linearGradient><linearGradient id="未命名的渐变_13" x1="27.78" y1="33.09" x2="55.57" y2="-6.59" gradientUnits="userSpaceOnUse"><stop offset="0" stop-color="#a9b1bb"/><stop offset="0.09" stop-color="#61666b"/><stop offset="0.18" stop-color="#696e73"/><stop offset="0.31" stop-color="#7e8489"/><stop offset="0.46" stop-color="#a1a7ae"/><stop offset="0.65" stop-color="#d1d8e0"/><stop offset="0.7" stop-color="#e2eaf2"/><stop offset="0.93" stop-color="#9ba1ab"/><stop offset="1" stop-color="#767b82"/></linearGradient><linearGradient id="未命名的渐变_13-2" x1="27.78" y1="151.82" x2="55.57" y2="112.13" gradientTransform="matrix(1, 0, 0, -1, 0, 240.12)" xlink:href="#未命名的渐变_13"/></defs><title>Heat tank（蓄热罐）</title><g id="图层_2" data-name="图层 2"><g id="图层_6" data-name="图层 6"><g id="Heat_tank_蓄热罐_" data-name="Heat tank（蓄热罐）"><rect class="cls-1" x="20.23" y="106.34" width="2.45" height="12.8" transform="translate(86 17.85) rotate(45)"/><rect class="cls-2" x="58.48" y="106.34" width="2.45" height="12.8" transform="translate(-62.23 75.24) rotate(-45)"/><rect class="cls-3" x="-11.15" y="126.39" width="38.83" height="8.38" transform="translate(138.85 122.32) rotate(90)"/><rect class="cls-4" x="5.5" y="138.96" width="5.54" height="16.53" transform="translate(155.5 138.96) rotate(90)"/><rect class="cls-5" x="54.39" y="126.39" width="38.83" height="8.38" transform="translate(204.39 56.77) rotate(90)"/><rect class="cls-6" x="71.04" y="138.96" width="5.54" height="16.53" transform="translate(221.04 73.42) rotate(90)"/><rect class="cls-7" x="0.54" y="14.02" width="81.4" height="93.36"/><g class="cls-8"><rect class="cls-9" x="0.54" y="15.56" width="81.4" height="0.34"/></g><g class="cls-8"><rect class="cls-9" x="0.54" y="18.57" width="81.4" height="0.34"/></g><path class="cls-10" d="M81.94,14H.54S5.77,0,41.24,0,81.94,14,81.94,14Z"/><path class="cls-11" d="M81.94,107.38H.54s5.23,14,40.7,14S81.94,107.38,81.94,107.38Z"/></g></g></g></svg>