<svg xmlns="http://www.w3.org/2000/svg" xmlns:xlink="http://www.w3.org/1999/xlink" viewBox="0 0 150 96.79"><defs><style>.cls-1{fill:url(#未命名的渐变_67);}.cls-2{fill:url(#未命名的渐变_67-2);}.cls-3{fill:url(#未命名的渐变_143);}.cls-4{fill:#d3d3d3;}.cls-5{fill:url(#未命名的渐变_67-3);}.cls-6{fill:url(#未命名的渐变_67-4);}.cls-7{fill:url(#未命名的渐变_67-5);}.cls-8{fill:url(#未命名的渐变_67-6);}.cls-9{fill:url(#未命名的渐变_9);}.cls-10{fill:url(#未命名的渐变_67-7);}.cls-11{fill:url(#未命名的渐变_67-8);}.cls-12{fill:url(#未命名的渐变_67-9);}.cls-13{fill:url(#未命名的渐变_9-2);}.cls-14{fill:url(#未命名的渐变_9-3);}.cls-15{fill:url(#未命名的渐变_9-4);}.cls-16{fill:url(#未命名的渐变_9-5);}</style><linearGradient id="未命名的渐变_67" x1="45.52" y1="27.1" x2="60.05" y2="27.1" gradientUnits="userSpaceOnUse"><stop offset="0" stop-color="#6b6b6b"/><stop offset="0.11" stop-color="#767676"/><stop offset="0.3" stop-color="#959595"/><stop offset="0.41" stop-color="#aaa"/><stop offset="0.56" stop-color="#ccc"/><stop offset="0.71" stop-color="#eaeaea"/><stop offset="0.8" stop-color="#f6f6f6"/><stop offset="0.83" stop-color="#ededed"/><stop offset="0.87" stop-color="#d4d4d4"/><stop offset="0.92" stop-color="#ababab"/><stop offset="0.98" stop-color="#737373"/><stop offset="0.99" stop-color="#666"/></linearGradient><linearGradient id="未命名的渐变_67-2" x1="44.24" y1="24.01" x2="61.19" y2="24.01" xlink:href="#未命名的渐变_67"/><linearGradient id="未命名的渐变_143" x1="82.22" y1="7.02" x2="150" y2="7.02" gradientUnits="userSpaceOnUse"><stop offset="0" stop-color="#b7b7b7"/><stop offset="0.03" stop-color="#9b9d9d"/><stop offset="0.07" stop-color="#878b8b"/><stop offset="0.09" stop-color="#808484"/><stop offset="0.2" stop-color="#a3a6a6"/><stop offset="0.49" stop-color="#f6f6f6"/><stop offset="0.61" stop-color="#f3f3f3"/><stop offset="0.7" stop-color="#eaeaea"/><stop offset="0.77" stop-color="#dbdbdb"/><stop offset="0.83" stop-color="#c5c5c5"/><stop offset="0.9" stop-color="#aaa"/><stop offset="0.95" stop-color="#888"/><stop offset="1" stop-color="#666"/></linearGradient><linearGradient id="未命名的渐变_67-3" x1="42.87" y1="44.1" x2="62.81" y2="44.1" xlink:href="#未命名的渐变_67"/><linearGradient id="未命名的渐变_67-4" x1="1.27" y1="95.12" x2="1.27" y2="54.25" xlink:href="#未命名的渐变_67"/><linearGradient id="未命名的渐变_67-5" x1="20.08" y1="92.74" x2="20.08" y2="56.85" xlink:href="#未命名的渐变_67"/><linearGradient id="未命名的渐变_67-6" x1="85.34" y1="92.77" x2="85.34" y2="56.87" xlink:href="#未命名的渐变_67"/><linearGradient id="未命名的渐变_9" x1="22.98" y1="92.77" x2="22.98" y2="56.87" gradientUnits="userSpaceOnUse"><stop offset="0" stop-color="#8e8e8e"/><stop offset="0.02" stop-color="#878989"/><stop offset="0.06" stop-color="#808484"/><stop offset="0.28" stop-color="#a3a6a6"/><stop offset="0.81" stop-color="#f6f6f6"/><stop offset="0.86" stop-color="#f3f3f3"/><stop offset="0.89" stop-color="#eaeaea"/><stop offset="0.91" stop-color="#dbdbdb"/><stop offset="0.94" stop-color="#c5c5c5"/><stop offset="0.96" stop-color="#aaa"/><stop offset="0.98" stop-color="#888"/><stop offset="1" stop-color="#666"/></linearGradient><linearGradient id="未命名的渐变_67-7" x1="27.3" y1="95.12" x2="27.3" y2="54.66" xlink:href="#未命名的渐变_67"/><linearGradient id="未命名的渐变_67-8" x1="77.82" y1="94.95" x2="77.82" y2="54.49" xlink:href="#未命名的渐变_67"/><linearGradient id="未命名的渐变_67-9" x1="103.99" y1="94.95" x2="103.99" y2="54.18" xlink:href="#未命名的渐变_67"/><linearGradient id="未命名的渐变_9-2" x1="94.31" y1="96.52" x2="94.31" y2="52.95" xlink:href="#未命名的渐变_9"/><linearGradient id="未命名的渐变_9-3" x1="82.23" y1="92.74" x2="82.23" y2="56.87" xlink:href="#未命名的渐变_9"/><linearGradient id="未命名的渐变_9-4" x1="52.56" y1="96.13" x2="52.56" y2="53.31" xlink:href="#未命名的渐变_9"/><linearGradient id="未命名的渐变_9-5" x1="11.03" y1="96.79" x2="11.03" y2="52.85" xlink:href="#未命名的渐变_9"/></defs><title>Ball valve （球形阀）</title><g id="图层_2" data-name="图层 2"><g id="图层_23" data-name="图层 23"><g id="Ball_valve_球形阀_" data-name="Ball valve （球形阀）"><rect class="cls-1" x="45.52" y="19.31" width="14.54" height="15.59"/><rect class="cls-2" x="44.24" y="20.47" width="16.95" height="7.08"/><polygon class="cls-3" points="150 0 91.88 0 91.88 0.35 82.22 10.01 86.25 14.05 94.59 5.71 150 5.71 150 0"/><polygon class="cls-4" points="67.69 32.61 86.25 14.05 82.22 10.01 65.02 27.21 37.93 27.21 37.93 27.92 30.62 47.43 35.97 49.43 42.16 32.92 67.69 32.92 67.69 32.61"/><polygon class="cls-5" points="62.81 53.31 42.87 53.31 44.15 34.9 61.5 34.9 62.81 53.31"/><rect class="cls-6" y="54.25" width="2.54" height="40.86"/><rect class="cls-7" x="19.51" y="56.85" width="1.14" height="35.89"/><rect class="cls-8" x="84.65" y="56.87" width="1.39" height="35.89"/><rect class="cls-9" x="20.65" y="56.87" width="4.67" height="35.89"/><rect class="cls-10" x="25.32" y="54.66" width="3.96" height="40.46"/><rect class="cls-11" x="75.84" y="54.49" width="3.96" height="40.46"/><rect class="cls-12" x="102.58" y="54.18" width="2.83" height="40.77"/><rect class="cls-13" x="86.04" y="52.95" width="16.54" height="43.57"/><rect class="cls-14" x="79.8" y="56.87" width="4.85" height="35.86"/><rect class="cls-15" x="29.28" y="53.31" width="46.56" height="42.82"/><rect class="cls-16" x="2.54" y="52.85" width="16.97" height="43.95"/></g></g></g></svg>