<svg xmlns="http://www.w3.org/2000/svg" xmlns:xlink="http://www.w3.org/1999/xlink" viewBox="0 0 76.08 150"><defs><style>.cls-1{fill:url(#未命名的渐变_143);}.cls-2{fill:url(#未命名的渐变_143-2);}.cls-3{fill:url(#未命名的渐变_143-3);}.cls-4{fill:url(#未命名的渐变_143-4);}.cls-5{fill:url(#未命名的渐变_143-5);}.cls-6{fill:url(#未命名的渐变_143-6);}.cls-7{fill:url(#未命名的渐变_143-7);}.cls-8{fill:url(#未命名的渐变_143-8);}.cls-9{fill:url(#未命名的渐变_143-9);}.cls-10{fill:url(#未命名的渐变_143-10);}.cls-11{fill:url(#未命名的渐变_143-11);}.cls-12{fill:url(#未命名的渐变_143-12);}.cls-13{fill:url(#未命名的渐变_143-13);}.cls-14{fill:url(#未命名的渐变_143-14);}.cls-15{fill:url(#未命名的渐变_143-15);}.cls-16{fill:url(#未命名的渐变_143-16);}.cls-17{fill:url(#未命名的渐变_143-17);}.cls-18{fill:url(#未命名的渐变_94);}.cls-19{fill:url(#未命名的渐变_143-18);}.cls-20{fill:url(#未命名的渐变_143-19);}.cls-21{fill:url(#未命名的渐变_79);}.cls-22{fill:url(#未命名的渐变_39);}.cls-23{fill:url(#未命名的渐变_39-2);}</style><linearGradient id="未命名的渐变_143" x1="-422.45" y1="-67" x2="-450.68" y2="-67" gradientTransform="translate(474.5 198.41)" gradientUnits="userSpaceOnUse"><stop offset="0" stop-color="#b7b7b7"/><stop offset="0.03" stop-color="#9b9d9d"/><stop offset="0.07" stop-color="#878b8b"/><stop offset="0.09" stop-color="#808484"/><stop offset="0.2" stop-color="#a3a6a6"/><stop offset="0.49" stop-color="#f6f6f6"/><stop offset="0.61" stop-color="#f3f3f3"/><stop offset="0.7" stop-color="#eaeaea"/><stop offset="0.77" stop-color="#dbdbdb"/><stop offset="0.83" stop-color="#c5c5c5"/><stop offset="0.9" stop-color="#aaa"/><stop offset="0.95" stop-color="#888"/><stop offset="1" stop-color="#666"/></linearGradient><linearGradient id="未命名的渐变_143-2" x1="-447.44" y1="397.75" x2="-452.1" y2="397.75" gradientTransform="matrix(1, 0, 0, -1, 456.96, 515.95)" xlink:href="#未命名的渐变_143"/><linearGradient id="未命名的渐变_143-3" x1="-434.17" y1="397.75" x2="-438.82" y2="397.75" gradientTransform="matrix(1, 0, 0, -1, 443.69, 529.23)" xlink:href="#未命名的渐变_143"/><linearGradient id="未命名的渐变_143-4" x1="-420.97" y1="397.75" x2="-425.62" y2="397.75" gradientTransform="matrix(1, 0, 0, -1, 430.49, 542.43)" xlink:href="#未命名的渐变_143"/><linearGradient id="未命名的渐变_143-5" x1="-565.99" y1="-49.63" x2="-565.99" y2="-84.43" gradientTransform="translate(603.95 69.02)" xlink:href="#未命名的渐变_143"/><linearGradient id="未命名的渐变_143-6" x1="-546.48" y1="-56.02" x2="-546.48" y2="-78.68" gradientTransform="translate(584.77 88.84)" xlink:href="#未命名的渐变_143"/><linearGradient id="未命名的渐变_143-7" x1="-552.21" y1="-62.33" x2="-552.21" y2="-72.28" gradientTransform="translate(590.45 83.07)" xlink:href="#未命名的渐变_143"/><linearGradient id="未命名的渐变_143-8" x1="-521.12" y1="-62.1" x2="-521.12" y2="-72.47" gradientTransform="translate(559.34 114.14)" xlink:href="#未命名的渐变_143"/><linearGradient id="未命名的渐变_143-9" x1="-498.98" y1="-65.8" x2="-498.98" y2="-68.83" gradientTransform="translate(537.23 136.31)" xlink:href="#未命名的渐变_143"/><linearGradient id="未命名的渐变_143-10" x1="-507.24" y1="-60.35" x2="-507.24" y2="-74.24" gradientTransform="translate(545.47 128.02)" xlink:href="#未命名的渐变_143"/><linearGradient id="未命名的渐变_143-11" x1="-476.93" y1="-58.32" x2="-476.93" y2="-76.22" gradientTransform="translate(515.14 158.31)" xlink:href="#未命名的渐变_143"/><linearGradient id="未命名的渐变_143-12" x1="-417.98" y1="-32.2" x2="-455.02" y2="-32.2" gradientTransform="translate(439.63 163.67)" xlink:href="#未命名的渐变_143"/><linearGradient id="未命名的渐变_143-13" x1="-447.44" y1="-17.85" x2="-452.1" y2="-17.85" gradientTransform="translate(518.66 136.06)" xlink:href="#未命名的渐变_143"/><linearGradient id="未命名的渐变_143-14" x1="-434.17" y1="-17.85" x2="-438.82" y2="-17.85" gradientTransform="translate(505.39 149.33)" xlink:href="#未命名的渐变_143"/><linearGradient id="未命名的渐变_143-15" x1="-420.97" y1="-17.85" x2="-425.62" y2="-17.85" gradientTransform="translate(492.19 162.53)" xlink:href="#未命名的渐变_143"/><linearGradient id="未命名的渐变_143-16" x1="-417.98" y1="383.4" x2="-455.02" y2="383.4" gradientTransform="matrix(1, 0, 0, -1, 509.44, 514.88)" xlink:href="#未命名的渐变_143"/><linearGradient id="未命名的渐变_143-17" x1="-466.96" y1="-55.78" x2="-466.96" y2="-78.89" gradientTransform="translate(505.23 168.36)" xlink:href="#未命名的渐变_143"/><linearGradient id="未命名的渐变_94" x1="20.57" y1="70.84" x2="55.49" y2="70.84" gradientUnits="userSpaceOnUse"><stop offset="0" stop-color="#b7b7b7"/><stop offset="0.01" stop-color="#9b9d9d"/><stop offset="0.02" stop-color="#878b8b"/><stop offset="0.02" stop-color="#808484"/><stop offset="0.28" stop-color="#a3a6a6"/><stop offset="0.93" stop-color="#f6f6f6"/><stop offset="0.95" stop-color="#f3f3f3"/><stop offset="0.96" stop-color="#eaeaea"/><stop offset="0.97" stop-color="#dbdbdb"/><stop offset="0.98" stop-color="#c5c5c5"/><stop offset="0.99" stop-color="#aaa"/><stop offset="0.99" stop-color="#888"/><stop offset="1" stop-color="#666"/></linearGradient><linearGradient id="未命名的渐变_143-18" x1="-510.86" y1="-62.1" x2="-510.86" y2="-72.47" gradientTransform="translate(549.08 124.39)" xlink:href="#未命名的渐变_143"/><linearGradient id="未命名的渐变_143-19" x1="-455.11" y1="-50.92" x2="-455.11" y2="-83.31" gradientTransform="translate(493.17 179.98)" xlink:href="#未命名的渐变_143"/><linearGradient id="未命名的渐变_79" x1="-454.56" y1="-50.92" x2="-454.56" y2="-83.31" gradientTransform="translate(492.62 180.53)" gradientUnits="userSpaceOnUse"><stop offset="0" stop-color="#ccc"/><stop offset="0.03" stop-color="#bbb"/><stop offset="0.06" stop-color="#a7a7a7"/><stop offset="0.09" stop-color="#a0a0a0"/><stop offset="0.1" stop-color="#a3a3a3"/><stop offset="0.49" stop-color="#f6f6f6"/><stop offset="0.62" stop-color="#f3f3f3"/><stop offset="0.72" stop-color="#eaeaea"/><stop offset="0.8" stop-color="#dbdbdb"/><stop offset="0.87" stop-color="#c5c5c5"/><stop offset="0.94" stop-color="#aaa"/><stop offset="1" stop-color="#898989"/></linearGradient><linearGradient id="未命名的渐变_39" x1="28.16" y1="145.52" x2="28.16" y2="117.3" gradientUnits="userSpaceOnUse"><stop offset="0" stop-color="#2d2d2d"/><stop offset="0.43" stop-color="#b7b7b7"/><stop offset="0.55" stop-color="#a1a3a3"/><stop offset="0.75" stop-color="#808484"/><stop offset="1" stop-color="#3f4040"/></linearGradient><linearGradient id="未命名的渐变_39-2" x1="47.16" y1="145.59" x2="47.16" y2="117.36" xlink:href="#未命名的渐变_39"/></defs><title>Blue control valve with no flange（法兰控制阀）</title><g id="图层_2" data-name="图层 2"><g id="图层_23" data-name="图层 23"><g id="Blue_control_valve_with_no_flange_法兰控制阀_" data-name="Blue control valve with no flange（法兰控制阀）"><rect class="cls-1" x="23.82" y="99.36" width="28.23" height="64.1" transform="translate(169.35 93.47) rotate(90)"/><rect class="cls-2" x="4.86" y="117.29" width="4.66" height="1.84" transform="translate(125.4 111.02) rotate(90)"/><rect class="cls-3" x="4.86" y="130.56" width="4.66" height="1.84" transform="translate(138.67 124.29) rotate(90)"/><rect class="cls-4" x="4.86" y="143.76" width="4.66" height="1.84" transform="translate(151.87 137.49) rotate(90)"/><rect class="cls-5" x="35.98" y="-15.41" width="3.98" height="34.81" transform="translate(39.96 -35.98) rotate(90)"/><rect class="cls-6" x="20.77" y="10.17" width="35.03" height="22.66" transform="translate(59.78 -16.79) rotate(90)"/><rect class="cls-7" x="35.74" y="10.79" width="5" height="9.96" transform="translate(54.01 -22.47) rotate(90)"/><rect class="cls-8" x="35.72" y="41.67" width="5" height="10.37" transform="translate(85.08 8.64) rotate(90)"/><rect class="cls-9" x="18.61" y="67.48" width="39.28" height="3.03" transform="translate(107.25 30.75) rotate(90)"/><rect class="cls-10" x="37.01" y="53.79" width="2.43" height="13.89" transform="translate(98.96 22.5) rotate(90)"/><rect class="cls-11" x="35.65" y="82.09" width="5.12" height="17.9" transform="translate(129.25 52.84) rotate(90)"/><rect class="cls-12" x="-15.39" y="128.34" width="37.04" height="6.27" transform="translate(134.61 128.34) rotate(90)"/><rect class="cls-13" x="66.56" y="117.29" width="4.66" height="1.84" transform="translate(187.1 49.32) rotate(90)"/><rect class="cls-14" x="66.56" y="130.56" width="4.66" height="1.84" transform="translate(200.37 62.59) rotate(90)"/><rect class="cls-15" x="66.56" y="143.76" width="4.66" height="1.84" transform="translate(213.57 75.79) rotate(90)"/><rect class="cls-16" x="54.42" y="128.34" width="37.04" height="6.27" transform="translate(204.42 58.53) rotate(90)"/><rect class="cls-17" x="30.86" y="89.46" width="14.83" height="23.11" transform="translate(139.29 62.74) rotate(90)"/><path class="cls-18" d="M47.58,37.9H29l-8.46,6.68V98.09l6.73,5.69h22l6.19-5.69,0-53.51Zm3.31,61H25.13V44.36H50.89Z"/><rect class="cls-19" x="35.82" y="51.93" width="4.81" height="10.37" transform="translate(95.33 18.89) rotate(90)"/><rect class="cls-20" x="33.63" y="96.67" width="8.86" height="32.39" transform="translate(150.92 74.81) rotate(90)"/><rect class="cls-21" x="37.6" y="97.22" width="0.91" height="32.39" transform="translate(151.47 75.36) rotate(90)"/><rect class="cls-22" x="27.71" y="117.3" width="0.89" height="28.23"/><rect class="cls-23" x="46.72" y="117.36" width="0.89" height="28.23"/></g></g></g></svg>