<svg xmlns="http://www.w3.org/2000/svg" xmlns:xlink="http://www.w3.org/1999/xlink" viewBox="0 0 114.33 150"><defs><style>.cls-1{fill:url(#未命名的渐变_9);}.cls-2{fill:url(#未命名的渐变_67);}.cls-3{fill:url(#未命名的渐变_67-2);}.cls-4{fill:url(#未命名的渐变_67-3);}.cls-5{fill:url(#未命名的渐变_67-4);}.cls-6{fill:url(#未命名的渐变_67-5);}.cls-7{fill:url(#未命名的渐变_67-6);}.cls-8{fill:url(#未命名的渐变_67-7);}.cls-9{fill:url(#未命名的渐变_14);}.cls-10{fill:url(#未命名的渐变_67-8);}.cls-11{fill:url(#未命名的渐变_67-9);}.cls-12{fill:url(#未命名的渐变_67-10);}.cls-13{fill:url(#未命名的渐变_16);}.cls-14{fill:url(#未命名的渐变_67-11);}.cls-15{fill:url(#未命名的渐变_67-12);}.cls-16{fill:url(#未命名的渐变_16-2);}.cls-17{fill:url(#未命名的渐变_9-2);}.cls-18{fill:url(#未命名的渐变_9-3);}.cls-19{fill:url(#未命名的渐变_67-13);}.cls-20{fill:url(#未命名的渐变_67-14);}.cls-21{fill:url(#未命名的渐变_67-15);}.cls-22{fill:url(#未命名的渐变_67-16);}.cls-23{fill:url(#未命名的渐变_67-17);}</style><linearGradient id="未命名的渐变_9" x1="-74.49" y1="385.52" x2="-74.49" y2="334.99" gradientTransform="translate(103.66 -285.26)" gradientUnits="userSpaceOnUse"><stop offset="0" stop-color="#8e8e8e"/><stop offset="0.02" stop-color="#878989"/><stop offset="0.06" stop-color="#808484"/><stop offset="0.28" stop-color="#a3a6a6"/><stop offset="0.81" stop-color="#f6f6f6"/><stop offset="0.86" stop-color="#f3f3f3"/><stop offset="0.89" stop-color="#eaeaea"/><stop offset="0.91" stop-color="#dbdbdb"/><stop offset="0.94" stop-color="#c5c5c5"/><stop offset="0.96" stop-color="#aaa"/><stop offset="0.98" stop-color="#888"/><stop offset="1" stop-color="#666"/></linearGradient><linearGradient id="未命名的渐变_67" x1="-147.48" y1="344.66" x2="-147.48" y2="334.69" gradientTransform="translate(197.24 -337.67)" gradientUnits="userSpaceOnUse"><stop offset="0" stop-color="#6b6b6b"/><stop offset="0.11" stop-color="#767676"/><stop offset="0.3" stop-color="#959595"/><stop offset="0.41" stop-color="#aaa"/><stop offset="0.56" stop-color="#ccc"/><stop offset="0.71" stop-color="#eaeaea"/><stop offset="0.8" stop-color="#f6f6f6"/><stop offset="0.83" stop-color="#ededed"/><stop offset="0.87" stop-color="#d4d4d4"/><stop offset="0.92" stop-color="#ababab"/><stop offset="0.98" stop-color="#737373"/><stop offset="0.99" stop-color="#666"/></linearGradient><linearGradient id="未命名的渐变_67-2" x1="-147.48" y1="365.19" x2="-147.48" y2="355.22" gradientTransform="translate(176.7 -358.2)" xlink:href="#未命名的渐变_67"/><linearGradient id="未命名的渐变_67-3" x1="-147.48" y1="385.72" x2="-147.48" y2="375.75" gradientTransform="translate(156.17 -378.73)" xlink:href="#未命名的渐变_67"/><linearGradient id="未命名的渐变_67-4" x1="-16.11" y1="175.2" x2="-20.12" y2="175.2" gradientTransform="translate(142.04 -149.29) scale(1.99 1.09)" xlink:href="#未命名的渐变_67"/><linearGradient id="未命名的渐变_67-5" x1="-23.1" y1="344.66" x2="-23.1" y2="334.99" gradientTransform="translate(72.7 -213.44)" xlink:href="#未命名的渐变_67"/><linearGradient id="未命名的渐变_67-6" x1="-23.1" y1="365.19" x2="-23.1" y2="355.22" gradientTransform="translate(52.32 -233.82)" xlink:href="#未命名的渐变_67"/><linearGradient id="未命名的渐变_67-7" x1="-23.1" y1="385.52" x2="-23.1" y2="375.75" gradientTransform="translate(31.89 -254.25)" xlink:href="#未命名的渐变_67"/><linearGradient id="未命名的渐变_14" x1="-84.09" y1="328.65" x2="-60.46" y2="305.17" gradientTransform="translate(389.43 149.49) rotate(90)" gradientUnits="userSpaceOnUse"><stop offset="0" stop-color="#6b6b6b"/><stop offset="0.11" stop-color="#767676"/><stop offset="0.3" stop-color="#959595"/><stop offset="0.41" stop-color="#aaa"/><stop offset="0.56" stop-color="#ccc"/><stop offset="0.71" stop-color="#eaeaea"/><stop offset="0.8" stop-color="#f6f6f6"/><stop offset="0.82" stop-color="#ededed"/><stop offset="0.86" stop-color="#d4d4d4"/><stop offset="0.91" stop-color="#ababab"/><stop offset="0.97" stop-color="#737373"/><stop offset="0.98" stop-color="#666"/></linearGradient><linearGradient id="未命名的渐变_67-8" x1="-1.49" y1="344.66" x2="-1.49" y2="334.69" gradientTransform="translate(51.24 -191.68)" xlink:href="#未命名的渐变_67"/><linearGradient id="未命名的渐变_67-9" x1="-1.49" y1="365.19" x2="-1.49" y2="355.22" gradientTransform="translate(30.71 -212.21)" xlink:href="#未命名的渐变_67"/><linearGradient id="未命名的渐变_67-10" x1="-1.49" y1="385.72" x2="-1.49" y2="375.75" gradientTransform="translate(10.18 -232.74)" xlink:href="#未命名的渐变_67"/><linearGradient id="未命名的渐变_16" x1="-127.08" y1="385.52" x2="-127.08" y2="334.99" gradientTransform="translate(156.25 -337.85)" gradientUnits="userSpaceOnUse"><stop offset="0" stop-color="#6b6b6b"/><stop offset="0.11" stop-color="#767676"/><stop offset="0.3" stop-color="#959595"/><stop offset="0.41" stop-color="#aaa"/><stop offset="0.59" stop-color="#909090"/><stop offset="0.85" stop-color="#727272"/><stop offset="0.99" stop-color="#666"/></linearGradient><linearGradient id="未命名的渐变_67-11" x1="16.53" y1="468.07" x2="16.53" y2="417.04" gradientTransform="translate(40.36 -248.75) scale(3.14 0.69)" xlink:href="#未命名的渐变_67"/><linearGradient id="未命名的渐变_67-12" x1="-0.3" y1="467.36" x2="-0.3" y2="416.33" gradientTransform="translate(98.48 -254.61) scale(1.99 0.69)" xlink:href="#未命名的渐变_67"/><linearGradient id="未命名的渐变_16-2" x1="-21.9" y1="385.52" x2="-21.9" y2="334.99" gradientTransform="translate(51.07 -232.67)" xlink:href="#未命名的渐变_16"/><linearGradient id="未命名的渐变_9-2" x1="-12.3" y1="389.37" x2="-12.3" y2="331.04" gradientTransform="translate(41.52 -223.01)" xlink:href="#未命名的渐变_9"/><linearGradient id="未命名的渐变_9-3" x1="-136.68" y1="389.43" x2="-136.68" y2="331.09" gradientTransform="translate(165.85 -347.45)" xlink:href="#未命名的渐变_9"/><linearGradient id="未命名的渐变_67-13" x1="-136.68" y1="389.43" x2="-136.68" y2="331.09" gradientTransform="translate(165.85 -347.45)" xlink:href="#未命名的渐变_67"/><linearGradient id="未命名的渐变_67-14" x1="-12.41" y1="389.37" x2="-12.41" y2="331.04" gradientTransform="translate(41.63 -223.13)" xlink:href="#未命名的渐变_67"/><linearGradient id="未命名的渐变_67-15" x1="-125.88" y1="344.66" x2="-125.88" y2="335" gradientTransform="translate(175.47 -316.21)" xlink:href="#未命名的渐变_67"/><linearGradient id="未命名的渐变_67-16" x1="-125.88" y1="365.19" x2="-125.88" y2="355.22" gradientTransform="translate(155.09 -336.59)" xlink:href="#未命名的渐变_67"/><linearGradient id="未命名的渐变_67-17" x1="-125.88" y1="385.52" x2="-125.88" y2="375.75" gradientTransform="translate(134.66 -357.02)" xlink:href="#未命名的渐变_67"/></defs><title>Check valve - Vertical（垂直单向阀）</title><g id="图层_2" data-name="图层 2"><g id="图层_23" data-name="图层 23"><g id="Check_valve_-_Vertical_垂直单向阀_" data-name="Check valve - Vertical（垂直单向阀）"><rect class="cls-1" x="-24.22" y="49.74" width="106.78" height="50.52" transform="translate(104.17 45.83) rotate(90)"/><rect class="cls-2" x="47.75" y="-2.98" width="4.01" height="9.97" transform="translate(51.75 -47.75) rotate(90)"/><rect class="cls-3" x="27.22" y="-2.98" width="4.01" height="9.97" transform="translate(31.22 -27.22) rotate(90)"/><rect class="cls-4" x="6.68" y="-2.98" width="4.01" height="9.97" transform="translate(10.69 -6.68) rotate(90)"/><rect class="cls-5" x="101.96" y="37.03" width="7.98" height="10.91" transform="translate(61.08 -62.48) rotate(45)"/><rect class="cls-6" x="47.59" y="121.55" width="4.01" height="9.66" transform="translate(175.98 76.79) rotate(90)"/><rect class="cls-7" x="27.22" y="121.4" width="4.01" height="9.97" transform="translate(155.61 97.17) rotate(90)"/><rect class="cls-8" x="6.78" y="121.5" width="4.01" height="9.76" transform="translate(135.18 117.6) rotate(90)"/><path class="cls-9" d="M54.21,69.43,89.46,34.18l24.87,24.87-60,60.06-1.23-2.39A49.14,49.14,0,0,1,53,71.84Z"/><rect class="cls-10" x="47.75" y="143.01" width="4.01" height="9.97" transform="translate(197.75 98.25) rotate(90)"/><rect class="cls-11" x="27.22" y="143.01" width="4.01" height="9.97" transform="translate(177.22 118.78) rotate(90)"/><rect class="cls-12" x="6.68" y="143.01" width="4.01" height="9.97" transform="translate(156.68 139.31) rotate(90)"/><rect class="cls-13" x="28.37" y="-2.85" width="1.6" height="50.52" transform="translate(51.58 -6.76) rotate(90)"/><rect class="cls-14" x="89.72" y="38.7" width="5.02" height="35.17" transform="translate(197.24 30.87) rotate(135)"/><rect class="cls-15" x="96.3" y="33.05" width="3.19" height="35.26" transform="translate(202.95 17.31) rotate(135)"/><rect class="cls-16" x="28.37" y="102.33" width="1.6" height="50.52" transform="translate(156.76 98.42) rotate(90)"/><rect class="cls-17" x="20.42" y="108.02" width="17.6" height="58.34" transform="translate(166.41 107.97) rotate(90)"/><rect class="cls-18" x="20.37" y="-16.36" width="17.6" height="58.34" transform="translate(41.98 -16.36) rotate(90)"/><rect class="cls-19" x="28.37" y="-16.36" width="1.6" height="58.34" transform="translate(41.98 -16.36) rotate(90)"/><rect class="cls-20" x="28.42" y="107.91" width="1.6" height="58.34" transform="translate(166.3 107.86) rotate(90)"/><rect class="cls-21" x="47.59" y="18.78" width="4.01" height="9.66" transform="translate(73.21 -25.98) rotate(90)"/><rect class="cls-22" x="27.22" y="18.63" width="4.01" height="9.97" transform="translate(52.83 -5.61) rotate(90)"/><rect class="cls-23" x="6.78" y="18.73" width="4.01" height="9.76" transform="translate(32.4 14.82) rotate(90)"/></g></g></g></svg>