<svg xmlns="http://www.w3.org/2000/svg" xmlns:xlink="http://www.w3.org/1999/xlink" viewBox="0 0 149.97 144.03"><defs><style>.cls-1{fill:url(#未命名的渐变_143);}.cls-2{fill:url(#未命名的渐变_143-2);}.cls-3{fill:url(#未命名的渐变_79);}.cls-4{fill:url(#未命名的渐变_143-3);}.cls-5{fill:url(#未命名的渐变_143-4);}.cls-6{fill:url(#未命名的渐变_143-5);}.cls-7{fill:#d3d3d3;}.cls-8{fill:url(#未命名的渐变_12);}.cls-9{fill:#b4b5b5;}.cls-10{fill:url(#未命名的渐变_13);}.cls-11{fill:url(#未命名的渐变_143-6);}.cls-12{fill:url(#未命名的渐变_143-7);}.cls-13{fill:url(#未命名的渐变_143-8);}.cls-14{fill:#7f7f7f;}.cls-15{fill:url(#未命名的渐变_143-9);}</style><linearGradient id="未命名的渐变_143" x1="90.87" y1="41.32" x2="101.87" y2="41.32" gradientUnits="userSpaceOnUse"><stop offset="0" stop-color="#b7b7b7"/><stop offset="0.03" stop-color="#9b9d9d"/><stop offset="0.07" stop-color="#878b8b"/><stop offset="0.09" stop-color="#808484"/><stop offset="0.2" stop-color="#a3a6a6"/><stop offset="0.49" stop-color="#f6f6f6"/><stop offset="0.61" stop-color="#f3f3f3"/><stop offset="0.7" stop-color="#eaeaea"/><stop offset="0.77" stop-color="#dbdbdb"/><stop offset="0.83" stop-color="#c5c5c5"/><stop offset="0.9" stop-color="#aaa"/><stop offset="0.95" stop-color="#888"/><stop offset="1" stop-color="#666"/></linearGradient><linearGradient id="未命名的渐变_143-2" x1="443.52" y1="22.24" x2="446.67" y2="22.24" gradientTransform="matrix(1, 0, 0, -1, -348.73, 44.48)" xlink:href="#未命名的渐变_143"/><linearGradient id="未命名的渐变_79" x1="471.35" y1="57.54" x2="472.96" y2="57.54" gradientTransform="translate(134.03 -895.57) rotate(90) scale(1.9 1)" gradientUnits="userSpaceOnUse"><stop offset="0" stop-color="#ccc"/><stop offset="0.03" stop-color="#bbb"/><stop offset="0.06" stop-color="#a7a7a7"/><stop offset="0.09" stop-color="#a0a0a0"/><stop offset="0.1" stop-color="#a3a3a3"/><stop offset="0.49" stop-color="#f6f6f6"/><stop offset="0.62" stop-color="#f3f3f3"/><stop offset="0.72" stop-color="#eaeaea"/><stop offset="0.8" stop-color="#dbdbdb"/><stop offset="0.87" stop-color="#c5c5c5"/><stop offset="0.94" stop-color="#aaa"/><stop offset="1" stop-color="#898989"/></linearGradient><linearGradient id="未命名的渐变_143-3" x1="445.66" y1="5" x2="445.66" y2="0" gradientTransform="matrix(-1, 0, 0, 1, 541.46, 0)" xlink:href="#未命名的渐变_143"/><linearGradient id="未命名的渐变_143-4" x1="165.06" y1="216.84" x2="169.8" y2="216.84" gradientTransform="translate(-19.47 -161.2)" xlink:href="#未命名的渐变_143"/><linearGradient id="未命名的渐变_143-5" x1="163.03" y1="220.95" x2="172.09" y2="220.95" gradientTransform="translate(-23.72 -165.19)" xlink:href="#未命名的渐变_143"/><linearGradient id="未命名的渐变_12" x1="521.1" y1="247.54" x2="521.1" y2="172.16" gradientTransform="translate(-407.56 -128.71)" gradientUnits="userSpaceOnUse"><stop offset="0" stop-color="#b7b7b7"/><stop offset="0" stop-color="#bababa"/><stop offset="0.01" stop-color="#dbdbdb"/><stop offset="0.03" stop-color="#efefef"/><stop offset="0.03" stop-color="#f6f6f6"/><stop offset="0.59" stop-color="#f3f3f3"/><stop offset="0.97" stop-color="#eaeaea"/><stop offset="0.98" stop-color="#eaeaea"/><stop offset="0.98" stop-color="#ccc"/><stop offset="1" stop-color="#818181"/><stop offset="1" stop-color="#666"/></linearGradient><linearGradient id="未命名的渐变_13" x1="521.1" y1="251.8" x2="521.1" y2="167.58" gradientTransform="translate(-407.56 -128.39)" gradientUnits="userSpaceOnUse"><stop offset="0" stop-color="#b7b7b7"/><stop offset="0" stop-color="#bababa"/><stop offset="0.05" stop-color="#dbdbdb"/><stop offset="0.08" stop-color="#efefef"/><stop offset="0.11" stop-color="#f6f6f6"/><stop offset="0.61" stop-color="#f3f3f3"/><stop offset="0.95" stop-color="#eaeaea"/><stop offset="0.96" stop-color="#eaeaea"/><stop offset="0.97" stop-color="#ccc"/><stop offset="0.99" stop-color="#818181"/><stop offset="1" stop-color="#666"/></linearGradient><linearGradient id="未命名的渐变_143-6" x1="666.15" y1="205.09" x2="626.71" y2="205.09" gradientTransform="translate(-616.51 -123.86)" xlink:href="#未命名的渐变_143"/><linearGradient id="未命名的渐变_143-7" x1="-98.38" y1="98.01" x2="-39.09" y2="98.01" gradientTransform="translate(98.38 -66.28)" xlink:href="#未命名的渐变_143"/><linearGradient id="未命名的渐变_143-8" x1="-30.74" y1="156.36" x2="-30.74" y2="138.81" gradientTransform="translate(98.38 -66.28)" xlink:href="#未命名的渐变_143"/><linearGradient id="未命名的渐变_143-9" x1="-97.27" y1="77.39" x2="-39.01" y2="77.39" gradientTransform="matrix(1, 0, 0, -1, 98.38, 208.03)" xlink:href="#未命名的渐变_143"/></defs><title>Control valve - vertical（垂直控制阀）</title><g id="图层_2" data-name="图层 2"><g id="图层_23" data-name="图层 23"><g id="Control_valve_-_vertical_垂直控制阀_" data-name="Control valve - vertical（垂直控制阀）"><rect class="cls-1" x="90.87" y="39.48" width="11" height="3.67"/><rect class="cls-2" x="94.79" y="5" width="3.15" height="34.49" transform="translate(192.74 44.48) rotate(180)"/><rect class="cls-3" x="58.98" width="35.01" height="3.05" transform="translate(152.98 3.05) rotate(180)"/><path class="cls-4" d="M93.51,3.22V0s2.63-.34,3.92,1.25C98.43,2.52,98,5,98,5H94.77a2.09,2.09,0,0,0-.26-1.46A1.13,1.13,0,0,0,93.51,3.22Z"/><rect class="cls-5" x="145.58" y="53.62" width="4.75" height="4.03" transform="translate(203.59 -92.32) rotate(90)"/><rect class="cls-6" x="139.31" y="53.66" width="9.07" height="4.2" transform="translate(199.61 -88.08) rotate(90)"/><rect class="cls-7" x="92.14" y="52.26" width="42.8" height="57.77" transform="translate(227.08 162.28) rotate(180)"/><rect class="cls-8" x="85.62" y="43.45" width="55.85" height="75.38" transform="translate(227.08 162.28) rotate(180)"/><rect class="cls-9" x="90.09" y="49.48" width="46.91" height="63.32" transform="translate(227.08 162.28) rotate(180)"/><rect class="cls-7" x="92.14" y="52.26" width="42.8" height="57.77" transform="translate(227.08 162.28) rotate(180)"/><rect class="cls-10" x="108.75" y="39.19" width="9.59" height="84.23" transform="translate(227.08 162.61) rotate(180)"/><rect class="cls-11" x="10.2" y="18.43" width="39.45" height="125.6" transform="translate(59.85 162.46) rotate(180)"/><rect class="cls-12" y="28.19" width="59.29" height="7.08"/><rect class="cls-13" x="49.65" y="72.53" width="35.97" height="17.55"/><rect class="cls-14" x="10.2" y="35.27" width="39.45" height="1.11"/><rect class="cls-15" x="1.11" y="127.1" width="58.26" height="7.08"/><rect class="cls-14" x="10.24" y="125.99" width="39.41" height="1.11"/></g></g></g></svg>