<svg xmlns="http://www.w3.org/2000/svg" xmlns:xlink="http://www.w3.org/1999/xlink" viewBox="0 0 97.03 150.1"><defs><style>.cls-1{fill:url(#未命名的渐变_143);}.cls-2{fill:url(#未命名的渐变_79);}.cls-3{fill:url(#未命名的渐变_143-2);}.cls-4{fill:url(#未命名的渐变_143-3);}.cls-5{fill:url(#未命名的渐变_143-4);}.cls-6{fill:url(#未命名的渐变_143-5);}.cls-7{fill:url(#未命名的渐变_143-6);}.cls-8{fill:url(#未命名的渐变_143-7);}.cls-9{fill:url(#未命名的渐变_143-8);}.cls-10{fill:url(#未命名的渐变_143-9);}.cls-11{fill:url(#未命名的渐变_143-10);}.cls-12{fill:url(#未命名的渐变_94);}.cls-13{fill:url(#未命名的渐变_143-11);}.cls-14{fill:url(#未命名的渐变_143-12);}.cls-15{fill:url(#未命名的渐变_94-2);}.cls-16{fill:url(#未命名的渐变_94-3);}.cls-17{fill:url(#未命名的渐变_143-13);}.cls-18{fill:url(#未命名的渐变_79-2);}.cls-19{fill:url(#未命名的渐变_143-14);}.cls-20{fill:url(#未命名的渐变_143-15);}.cls-21{fill:url(#未命名的渐变_143-16);}.cls-22{fill:#d34;}.cls-22,.cls-23{stroke:#f9f9f9;stroke-miterlimit:10;stroke-width:0.1px;}.cls-23{fill:#76c7f4;}.cls-24{fill:url(#未命名的渐变_143-17);}.cls-25{fill:url(#未命名的渐变_143-18);}.cls-26{fill:url(#未命名的渐变_67);}.cls-27{fill:url(#未命名的渐变_67-2);}.cls-28{fill:url(#未命名的渐变_67-3);}</style><linearGradient id="未命名的渐变_143" x1="48.48" y1="39.86" x2="51.64" y2="39.86" gradientUnits="userSpaceOnUse"><stop offset="0" stop-color="#b7b7b7"/><stop offset="0.03" stop-color="#9b9d9d"/><stop offset="0.07" stop-color="#878b8b"/><stop offset="0.09" stop-color="#808484"/><stop offset="0.2" stop-color="#a3a6a6"/><stop offset="0.49" stop-color="#f6f6f6"/><stop offset="0.61" stop-color="#f3f3f3"/><stop offset="0.7" stop-color="#eaeaea"/><stop offset="0.77" stop-color="#dbdbdb"/><stop offset="0.83" stop-color="#c5c5c5"/><stop offset="0.9" stop-color="#aaa"/><stop offset="0.95" stop-color="#888"/><stop offset="1" stop-color="#666"/></linearGradient><linearGradient id="未命名的渐变_79" x1="110.54" y1="270.12" x2="112.07" y2="270.12" gradientTransform="matrix(0, -1.9, -1, 0, 298.03, 289.41)" gradientUnits="userSpaceOnUse"><stop offset="0" stop-color="#ccc"/><stop offset="0.03" stop-color="#bbb"/><stop offset="0.06" stop-color="#a7a7a7"/><stop offset="0.09" stop-color="#a0a0a0"/><stop offset="0.1" stop-color="#a3a3a3"/><stop offset="0.49" stop-color="#f6f6f6"/><stop offset="0.62" stop-color="#f3f3f3"/><stop offset="0.72" stop-color="#eaeaea"/><stop offset="0.8" stop-color="#dbdbdb"/><stop offset="0.87" stop-color="#c5c5c5"/><stop offset="0.94" stop-color="#aaa"/><stop offset="1" stop-color="#898989"/></linearGradient><linearGradient id="未命名的渐变_143-2" x1="-339.4" y1="144.22" x2="-339.4" y2="115.68" gradientTransform="translate(387.75 -108.73)" xlink:href="#未命名的渐变_143"/><linearGradient id="未命名的渐变_143-3" x1="-211.32" y1="175.33" x2="-239.67" y2="175.33" gradientTransform="translate(228.46 -40.21)" xlink:href="#未命名的渐变_143"/><linearGradient id="未命名的渐变_143-4" x1="-210.52" y1="129.79" x2="-240.6" y2="129.79" gradientTransform="translate(274.08 5.27)" xlink:href="#未命名的渐变_143"/><linearGradient id="未命名的渐变_143-5" x1="-217.51" y1="169.18" x2="-233.19" y2="169.18" gradientTransform="translate(234.47 -33.92)" xlink:href="#未命名的渐变_143"/><linearGradient id="未命名的渐变_143-6" x1="-212.37" y1="164.69" x2="-238.35" y2="164.69" gradientTransform="translate(238.97 -29.44)" xlink:href="#未命名的渐变_143"/><linearGradient id="未命名的渐变_143-7" x1="-211.69" y1="277.26" x2="-240.04" y2="277.26" gradientTransform="matrix(1, 0, 0, -1, 319.92, 412)" xlink:href="#未命名的渐变_143"/><linearGradient id="未命名的渐变_143-8" x1="-217.89" y1="271.11" x2="-233.56" y2="271.11" gradientTransform="matrix(1, 0, 0, -1, 313.63, 406)" xlink:href="#未命名的渐变_143"/><linearGradient id="未命名的渐变_143-9" x1="-212.75" y1="266.62" x2="-238.73" y2="266.62" gradientTransform="matrix(1, 0, 0, -1, 309.16, 401.5)" xlink:href="#未命名的渐变_143"/><linearGradient id="未命名的渐变_143-10" x1="-329.05" y1="137.65" x2="-329.05" y2="122.15" gradientTransform="translate(377.45 -98.33)" xlink:href="#未命名的渐变_143"/><linearGradient id="未命名的渐变_94" x1="-257.95" y1="148.28" x2="-257.95" y2="110.82" gradientTransform="translate(178.3 360.61) rotate(90)" gradientUnits="userSpaceOnUse"><stop offset="0" stop-color="#b7b7b7"/><stop offset="0.01" stop-color="#9b9d9d"/><stop offset="0.02" stop-color="#878b8b"/><stop offset="0.02" stop-color="#808484"/><stop offset="0.28" stop-color="#a3a6a6"/><stop offset="0.93" stop-color="#f6f6f6"/><stop offset="0.95" stop-color="#f3f3f3"/><stop offset="0.96" stop-color="#eaeaea"/><stop offset="0.97" stop-color="#dbdbdb"/><stop offset="0.98" stop-color="#c5c5c5"/><stop offset="0.99" stop-color="#aaa"/><stop offset="0.99" stop-color="#888"/><stop offset="1" stop-color="#666"/></linearGradient><linearGradient id="未命名的渐变_143-11" x1="-249.6" y1="150.57" x2="-249.6" y2="109.2" gradientTransform="translate(298.01 -18.87)" xlink:href="#未命名的渐变_143"/><linearGradient id="未命名的渐变_143-12" x1="-315.93" y1="136.75" x2="-315.93" y2="122.86" gradientTransform="translate(364.42 -85.12)" xlink:href="#未命名的渐变_143"/><linearGradient id="未命名的渐变_94-2" x1="34.81" y1="75.93" x2="62.18" y2="75.93" gradientTransform="matrix(1, 0, 0, 1, 0, 0)" xlink:href="#未命名的渐变_94"/><linearGradient id="未命名的渐变_94-3" x1="-292.12" y1="141.03" x2="-292.12" y2="118.59" gradientTransform="translate(340.61 -61.31)" xlink:href="#未命名的渐变_94"/><linearGradient id="未命名的渐变_143-13" x1="4.16" y1="39.86" x2="7.33" y2="39.86" xlink:href="#未命名的渐变_143"/><linearGradient id="未命名的渐变_79-2" x1="150.89" y1="270.12" x2="152.32" y2="270.12" xlink:href="#未命名的渐变_79"/><linearGradient id="未命名的渐变_143-14" x1="6.35" y1="4.45" x2="6.35" y2="0" xlink:href="#未命名的渐变_143"/><linearGradient id="未命名的渐变_143-15" x1="6.35" y1="452.65" x2="6.35" y2="448.2" gradientTransform="matrix(1, 0, 0, -1, 0, 527.58)" xlink:href="#未命名的渐变_143"/><linearGradient id="未命名的渐变_143-16" x1="-95.46" y1="4.45" x2="-95.46" y2="0" gradientTransform="matrix(-1, 0, 0, 1, -46, 0)" xlink:href="#未命名的渐变_143"/><linearGradient id="未命名的渐变_143-17" x1="-339.28" y1="150.88" x2="-339.28" y2="109.53" gradientTransform="translate(387.38 -108.87)" xlink:href="#未命名的渐变_143"/><linearGradient id="未命名的渐变_143-18" x1="-242.7" y1="148.77" x2="-242.7" y2="110.32" gradientTransform="translate(178.3 360.61) rotate(90)" xlink:href="#未命名的渐变_143"/><linearGradient id="未命名的渐变_67" x1="40.1" y1="88.54" x2="43.98" y2="88.54" gradientTransform="translate(84.09 177.09) rotate(-180)" gradientUnits="userSpaceOnUse"><stop offset="0" stop-color="#6b6b6b"/><stop offset="0.11" stop-color="#767676"/><stop offset="0.3" stop-color="#959595"/><stop offset="0.41" stop-color="#aaa"/><stop offset="0.56" stop-color="#ccc"/><stop offset="0.71" stop-color="#eaeaea"/><stop offset="0.8" stop-color="#f6f6f6"/><stop offset="0.83" stop-color="#ededed"/><stop offset="0.87" stop-color="#d4d4d4"/><stop offset="0.92" stop-color="#ababab"/><stop offset="0.98" stop-color="#737373"/><stop offset="0.99" stop-color="#666"/></linearGradient><linearGradient id="未命名的渐变_67-2" x1="53.48" y1="88.54" x2="57.02" y2="88.54" gradientTransform="translate(110.5 177.09) rotate(-180)" xlink:href="#未命名的渐变_67"/><linearGradient id="未命名的渐变_67-3" x1="37.27" y1="82.19" x2="59.68" y2="82.19" gradientTransform="translate(-33.71 130.67) rotate(-90)" xlink:href="#未命名的渐变_67"/></defs><title>Control value（控制阀）</title><g id="图层_2" data-name="图层 2"><g id="图层_23" data-name="图层 23"><g id="Control_value_控制阀_" data-name="Control value（控制阀）"><rect class="cls-1" x="48.48" y="4.45" width="3.17" height="70.81"/><rect class="cls-2" x="8.53" y="76.48" width="38.74" height="2.9"/><rect class="cls-3" x="39.81" y="6.94" width="17.09" height="28.54" transform="translate(69.57 -27.14) rotate(90)"/><rect class="cls-4" x="-11.21" y="132.15" width="28.35" height="5.94" transform="translate(138.09 132.15) rotate(90)"/><rect class="cls-5" x="33.47" y="101.45" width="30.09" height="67.2" transform="translate(183.57 86.54) rotate(90)"/><rect class="cls-6" x="1.28" y="132.08" width="15.68" height="6.36" transform="translate(144.38 126.14) rotate(90)"/><rect class="cls-7" x="0.62" y="133.94" width="25.98" height="2.62" transform="translate(148.86 121.64) rotate(90)"/><rect class="cls-8" x="79.88" y="131.78" width="28.35" height="5.94" transform="translate(228.81 40.69) rotate(90)"/><rect class="cls-9" x="80.07" y="131.71" width="15.68" height="6.36" transform="translate(222.8 46.98) rotate(90)"/><rect class="cls-10" x="70.43" y="133.57" width="25.98" height="2.62" transform="translate(218.3 51.46) rotate(90)"/><rect class="cls-11" x="46.59" y="23.82" width="3.61" height="15.49" transform="translate(79.97 -16.83) rotate(90)"/><polygon class="cls-12" points="30.02 109.48 41.78 95.86 55.3 95.86 67.48 109.48 30.02 109.48"/><rect class="cls-13" x="46.88" y="90.33" width="3.08" height="41.37" transform="translate(159.43 62.6) rotate(90)"/><rect class="cls-14" x="37.18" y="37.74" width="22.63" height="13.9" transform="translate(93.18 -3.81) rotate(90)"/><polygon class="cls-15" points="54.09 56 42.76 56 34.81 63.18 34.81 90.97 40.14 95.86 57.37 95.86 62.18 90.97 62.18 63.18 54.09 56"/><rect class="cls-16" x="36" y="57.27" width="24.99" height="22.44" transform="translate(116.99 20) rotate(90)"/><rect class="cls-17" x="4.16" y="4.45" width="3.17" height="70.81"/><rect class="cls-18" x="8.53" width="38.74" height="2.72"/><path class="cls-19" d="M8.53,2.87V0S6-.28,4.79,1.14c-1,1.11-.54,3.31-.54,3.31H7.33a1.76,1.76,0,0,1,.25-1.3A1.12,1.12,0,0,1,8.53,2.87Z"/><path class="cls-20" d="M8.53,76.51v2.84S6,79.66,4.79,78.24c-1-1.11-.54-3.32-.54-3.32H7.33a1.75,1.75,0,0,0,.25,1.3A1.1,1.1,0,0,0,8.53,76.51Z"/><path class="cls-21" d="M47.27,2.87V0S49.79-.28,51,1.14c1,1.11.54,3.31.54,3.31H48.48a1.76,1.76,0,0,0-.25-1.3A1.14,1.14,0,0,0,47.27,2.87Z"/><circle class="cls-22" cx="43.68" cy="76.49" r="2.33"/><circle class="cls-23" cx="53.48" cy="76.49" r="2.33"/><rect class="cls-24" x="44.03" y="0.65" width="8.12" height="41.36" transform="translate(69.43 -26.76) rotate(90)"/><path class="cls-25" d="M29.53,120.68v-8.12H68v8.12l-.63.17a72.84,72.84,0,0,1-37.82-.17Z"/><rect class="cls-26" x="40.1" y="82.19" width="3.88" height="12.71" transform="translate(84.09 177.09) rotate(180)"/><rect class="cls-27" x="53.48" y="82.19" width="3.54" height="12.71" transform="translate(110.5 177.09) rotate(180)"/><rect class="cls-28" x="47.09" y="70.99" width="2.78" height="22.4" transform="translate(130.67 33.71) rotate(90)"/></g></g></g></svg>