<svg xmlns="http://www.w3.org/2000/svg" xmlns:xlink="http://www.w3.org/1999/xlink" viewBox="0 0 96.12 150"><defs><style>.cls-1{fill:url(#未命名的渐变_143);}.cls-2{fill:url(#未命名的渐变_143-2);}.cls-3{fill:url(#未命名的渐变_143-3);}.cls-4{fill:url(#未命名的渐变_143-4);}.cls-5{fill:url(#未命名的渐变_143-5);}.cls-6{fill:url(#未命名的渐变_143-6);}.cls-7{fill:url(#未命名的渐变_143-7);}.cls-8{fill:url(#未命名的渐变_143-8);}.cls-9{fill:url(#未命名的渐变_143-9);}.cls-10{fill:url(#未命名的渐变_67);}.cls-11{fill:url(#未命名的渐变_143-10);}.cls-12{fill:url(#未命名的渐变_143-11);}.cls-13{fill:url(#未命名的渐变_67-2);}.cls-14{fill:url(#未命名的渐变_67-3);}.cls-15{fill:url(#未命名的渐变_67-4);}</style><linearGradient id="未命名的渐变_143" x1="-1063.5" y1="178.61" x2="-1063.5" y2="255.35" gradientTransform="translate(1152.76 -141.66)" gradientUnits="userSpaceOnUse"><stop offset="0" stop-color="#b7b7b7"/><stop offset="0.03" stop-color="#9b9d9d"/><stop offset="0.07" stop-color="#878b8b"/><stop offset="0.09" stop-color="#808484"/><stop offset="0.2" stop-color="#a3a6a6"/><stop offset="0.49" stop-color="#f6f6f6"/><stop offset="0.61" stop-color="#f3f3f3"/><stop offset="0.7" stop-color="#eaeaea"/><stop offset="0.77" stop-color="#dbdbdb"/><stop offset="0.83" stop-color="#c5c5c5"/><stop offset="0.9" stop-color="#aaa"/><stop offset="0.95" stop-color="#888"/><stop offset="1" stop-color="#666"/></linearGradient><linearGradient id="未命名的渐变_143-2" x1="-979.73" y1="217.17" x2="-1032.52" y2="217.17" gradientTransform="translate(1038.01 -142.04)" xlink:href="#未命名的渐变_143"/><linearGradient id="未命名的渐变_143-3" x1="-974.24" y1="273.18" x2="-1037.19" y2="273.18" gradientTransform="translate(1037.19 -254.06)" xlink:href="#未命名的渐变_143"/><linearGradient id="未命名的渐变_143-4" x1="-1037.86" y1="186.54" x2="-1037.86" y2="247.39" gradientTransform="translate(1101.48 -141.64)" xlink:href="#未命名的渐变_143"/><linearGradient id="未命名的渐变_143-5" x1="-1050.29" y1="194.37" x2="-1050.29" y2="239.23" gradientTransform="translate(1126.34 -141.3)" xlink:href="#未命名的渐变_143"/><linearGradient id="未命名的渐变_143-6" x1="-1063.36" y1="245.28" x2="-1063.36" y2="250.66" gradientTransform="translate(1152.47 -203.64)" xlink:href="#未命名的渐变_143"/><linearGradient id="未命名的渐变_143-7" x1="-1063.87" y1="211.78" x2="-1063.87" y2="217.17" gradientTransform="translate(1153.5 -136.65)" xlink:href="#未命名的渐变_143"/><linearGradient id="未命名的渐变_143-8" x1="-1063.48" y1="178.33" x2="-1063.48" y2="183.71" gradientTransform="translate(1152.73 -69.74)" xlink:href="#未命名的渐变_143"/><linearGradient id="未命名的渐变_143-9" x1="-976.85" y1="289.46" x2="-1035.26" y2="289.46" gradientTransform="translate(1037.87 -286.62)" xlink:href="#未命名的渐变_143"/><linearGradient id="未命名的渐变_67" x1="-90.91" y1="287.7" x2="-149.51" y2="287.7" gradientTransform="matrix(1, 0, 0, -1, 152.12, 292.29)" gradientUnits="userSpaceOnUse"><stop offset="0" stop-color="#6b6b6b"/><stop offset="0.11" stop-color="#767676"/><stop offset="0.3" stop-color="#959595"/><stop offset="0.41" stop-color="#aaa"/><stop offset="0.56" stop-color="#ccc"/><stop offset="0.71" stop-color="#eaeaea"/><stop offset="0.8" stop-color="#f6f6f6"/><stop offset="0.83" stop-color="#ededed"/><stop offset="0.87" stop-color="#d4d4d4"/><stop offset="0.92" stop-color="#ababab"/><stop offset="0.98" stop-color="#737373"/><stop offset="0.99" stop-color="#666"/></linearGradient><linearGradient id="未命名的渐变_143-10" x1="-974.65" y1="143.86" x2="-1037.6" y2="143.86" gradientTransform="matrix(1, 0, 0, -1, 1038.01, 274.75)" xlink:href="#未命名的渐变_143"/><linearGradient id="未命名的渐变_143-11" x1="-977.25" y1="160.14" x2="-1035.67" y2="160.14" gradientTransform="matrix(1, 0, 0, -1, 1038.69, 307.31)" xlink:href="#未命名的渐变_143"/><linearGradient id="未命名的渐变_67-2" x1="-90.5" y1="158.39" x2="-149.1" y2="158.39" gradientTransform="translate(152.12 -12.98)" xlink:href="#未命名的渐变_67"/><linearGradient id="未命名的渐变_67-3" x1="-93.84" y1="258.3" x2="-146.62" y2="258.3" xlink:href="#未命名的渐变_67"/><linearGradient id="未命名的渐变_67-4" x1="-93.84" y1="176.16" x2="-146.62" y2="176.16" xlink:href="#未命名的渐变_67"/></defs><title>Hand valve - vertical（垂直手动阀）</title><g id="图层_2" data-name="图层 2"><g id="图层_23" data-name="图层 23"><g id="Hand_valve_-_vertical_垂直手动阀_" data-name="Hand valve - vertical（垂直手动阀）"><rect class="cls-1" x="83.14" y="36.95" width="12.25" height="76.74" transform="translate(178.52 150.63) rotate(180)"/><rect class="cls-2" x="5.49" y="35.43" width="52.78" height="79.39" transform="translate(63.77 150.26) rotate(180)"/><rect class="cls-3" y="5.67" width="62.95" height="26.89" transform="translate(62.95 38.23) rotate(180)"/><rect class="cls-4" x="58.28" y="44.9" width="10.69" height="60.85" transform="translate(127.24 150.65) rotate(180)"/><rect class="cls-5" x="68.96" y="53.06" width="14.17" height="44.86" transform="translate(152.1 150.99) rotate(180)"/><rect class="cls-6" x="82.63" y="41.63" width="12.98" height="5.39" transform="translate(178.24 88.65) rotate(180)"/><rect class="cls-7" x="83.14" y="75.13" width="12.98" height="5.39" transform="translate(179.26 155.64) rotate(180)"/><rect class="cls-8" x="82.75" y="108.58" width="12.98" height="5.39" transform="translate(178.49 222.55) rotate(180)"/><rect class="cls-9" x="2.61" width="58.42" height="5.67" transform="translate(63.64 5.67) rotate(180)"/><rect class="cls-10" x="2.61" y="3.51" width="58.6" height="2.15"/><rect class="cls-11" x="0.41" y="117.44" width="62.95" height="26.89" transform="translate(63.77 261.77) rotate(180)"/><rect class="cls-12" x="3.02" y="144.33" width="58.42" height="5.67" transform="translate(64.45 294.33) rotate(180)"/><rect class="cls-13" x="3.02" y="144.33" width="58.6" height="2.15"/><rect class="cls-14" x="5.49" y="32.56" width="52.78" height="2.87"/><rect class="cls-15" x="5.49" y="114.82" width="52.78" height="2.62"/></g></g></g></svg>