<svg xmlns="http://www.w3.org/2000/svg" xmlns:xlink="http://www.w3.org/1999/xlink" viewBox="0 0 149.63 124.61"><defs><style>.cls-1{fill:url(#未命名的渐变_67);}.cls-2{fill:url(#未命名的渐变_67-2);}.cls-3{fill:url(#未命名的渐变_67-3);}.cls-4{fill:#b4b5b5;}.cls-5{fill:url(#未命名的渐变_143);}.cls-6{fill:url(#未命名的渐变_9);}.cls-7{fill:url(#未命名的渐变_143-2);}.cls-8{fill:#7f7f7f;}.cls-9{fill:url(#未命名的渐变_9-2);}.cls-10{fill:url(#未命名的渐变_67-4);}.cls-11{fill:url(#未命名的渐变_67-5);}.cls-12{fill:url(#未命名的渐变_67-6);}.cls-13{fill:url(#未命名的渐变_67-7);}.cls-14{fill:url(#未命名的渐变_67-8);}.cls-15{fill:url(#未命名的渐变_143-3);}.cls-16{fill:url(#未命名的渐变_67-9);}.cls-17{fill:url(#未命名的渐变_67-10);}.cls-18{fill:url(#未命名的渐变_9-3);}.cls-19{fill:url(#未命名的渐变_67-11);}.cls-20{fill:url(#未命名的渐变_67-12);}.cls-21{fill:url(#未命名的渐变_67-13);}.cls-22{fill:url(#未命名的渐变_67-14);}.cls-23{fill:url(#未命名的渐变_143-4);}.cls-24{fill:url(#未命名的渐变_143-5);}</style><linearGradient id="未命名的渐变_67" x1="2" y1="79.05" x2="2" y2="71.3" gradientUnits="userSpaceOnUse"><stop offset="0" stop-color="#6b6b6b"/><stop offset="0.11" stop-color="#767676"/><stop offset="0.3" stop-color="#959595"/><stop offset="0.41" stop-color="#aaa"/><stop offset="0.56" stop-color="#ccc"/><stop offset="0.71" stop-color="#eaeaea"/><stop offset="0.8" stop-color="#f6f6f6"/><stop offset="0.83" stop-color="#ededed"/><stop offset="0.87" stop-color="#d4d4d4"/><stop offset="0.92" stop-color="#ababab"/><stop offset="0.98" stop-color="#737373"/><stop offset="0.99" stop-color="#666"/></linearGradient><linearGradient id="未命名的渐变_67-2" x1="2" y1="99.47" x2="2" y2="92.52" xlink:href="#未命名的渐变_67"/><linearGradient id="未命名的渐变_67-3" x1="2" y1="119.97" x2="2" y2="112.76" xlink:href="#未命名的渐变_67"/><linearGradient id="未命名的渐变_143" x1="36.98" y1="22.74" x2="88.19" y2="22.74" gradientUnits="userSpaceOnUse"><stop offset="0" stop-color="#b7b7b7"/><stop offset="0.03" stop-color="#9b9d9d"/><stop offset="0.07" stop-color="#878b8b"/><stop offset="0.09" stop-color="#808484"/><stop offset="0.2" stop-color="#a3a6a6"/><stop offset="0.49" stop-color="#f6f6f6"/><stop offset="0.61" stop-color="#f3f3f3"/><stop offset="0.7" stop-color="#eaeaea"/><stop offset="0.77" stop-color="#dbdbdb"/><stop offset="0.83" stop-color="#c5c5c5"/><stop offset="0.9" stop-color="#aaa"/><stop offset="0.95" stop-color="#888"/><stop offset="1" stop-color="#666"/></linearGradient><linearGradient id="未命名的渐变_9" x1="61.64" y1="117.71" x2="61.64" y2="73.58" gradientUnits="userSpaceOnUse"><stop offset="0" stop-color="#8e8e8e"/><stop offset="0.02" stop-color="#878989"/><stop offset="0.06" stop-color="#808484"/><stop offset="0.28" stop-color="#a3a6a6"/><stop offset="0.81" stop-color="#f6f6f6"/><stop offset="0.86" stop-color="#f3f3f3"/><stop offset="0.89" stop-color="#eaeaea"/><stop offset="0.91" stop-color="#dbdbdb"/><stop offset="0.94" stop-color="#c5c5c5"/><stop offset="0.96" stop-color="#aaa"/><stop offset="0.98" stop-color="#888"/><stop offset="1" stop-color="#666"/></linearGradient><linearGradient id="未命名的渐变_143-2" x1="239.71" y1="235.01" x2="187.33" y2="235.01" gradientTransform="translate(276.25 288.72) rotate(180)" xlink:href="#未命名的渐变_143"/><linearGradient id="未命名的渐变_9-2" x1="8.9" y1="124.31" x2="8.9" y2="67.06" xlink:href="#未命名的渐变_9"/><linearGradient id="未命名的渐变_67-4" x1="9.03" y1="124.31" x2="9.03" y2="67.06" xlink:href="#未命名的渐变_67"/><linearGradient id="未命名的渐变_67-5" x1="16.03" y1="79.05" x2="16.03" y2="71.3" xlink:href="#未命名的渐变_67"/><linearGradient id="未命名的渐变_67-6" x1="16.03" y1="99.47" x2="16.03" y2="92.52" xlink:href="#未命名的渐变_67"/><linearGradient id="未命名的渐变_67-7" x1="16.03" y1="119.97" x2="16.03" y2="112.76" xlink:href="#未命名的渐变_67"/><linearGradient id="未命名的渐变_67-8" x1="109.19" y1="79.36" x2="109.19" y2="71.6" xlink:href="#未命名的渐变_67"/><linearGradient id="未命名的渐变_143-3" x1="256.51" y1="58.25" x2="256.51" y2="40.93" gradientTransform="translate(-193.92 -38.63)" xlink:href="#未命名的渐变_143"/><linearGradient id="未命名的渐变_67-9" x1="109.19" y1="99.77" x2="109.19" y2="92.82" xlink:href="#未命名的渐变_67"/><linearGradient id="未命名的渐变_67-10" x1="109.19" y1="120.27" x2="109.19" y2="113.06" xlink:href="#未命名的渐变_67"/><linearGradient id="未命名的渐变_9-3" x1="116.1" y1="124.61" x2="116.1" y2="67.37" xlink:href="#未命名的渐变_9"/><linearGradient id="未命名的渐变_67-11" x1="116.23" y1="124.61" x2="116.23" y2="67.37" xlink:href="#未命名的渐变_67"/><linearGradient id="未命名的渐变_67-12" x1="123.23" y1="79.36" x2="123.23" y2="71.6" xlink:href="#未命名的渐变_67"/><linearGradient id="未命名的渐变_67-13" x1="123.23" y1="99.77" x2="123.23" y2="92.82" xlink:href="#未命名的渐变_67"/><linearGradient id="未命名的渐变_67-14" x1="123.23" y1="120.27" x2="123.23" y2="113.06" xlink:href="#未命名的渐变_67"/><linearGradient id="未命名的渐变_143-4" x1="-64.38" y1="94.65" x2="-6.99" y2="94.65" gradientTransform="translate(98.38 -66.28)" xlink:href="#未命名的渐变_143"/><linearGradient id="未命名的渐变_143-5" x1="251.04" y1="60.86" x2="251.04" y2="38.39" gradientTransform="translate(-188.42 -33.19)" xlink:href="#未命名的渐变_143"/></defs><title>Hand valve （手动阀） (3)</title><g id="图层_2" data-name="图层 2"><g id="图层_23" data-name="图层 23"><g id="Hand_valve_手动阀_" data-name="Hand valve （手动阀）"><rect class="cls-1" y="71.3" width="3.99" height="7.75"/><rect class="cls-2" y="92.52" width="3.99" height="6.95"/><rect class="cls-3" y="112.76" width="3.99" height="7.21"/><rect class="cls-4" x="67.75" y="7.64" width="23.33" height="4.14" transform="translate(16.39 59) rotate(-45)"/><rect class="cls-5" x="36.98" y="17.99" width="51.21" height="9.5"/><rect class="cls-6" x="12.1" y="73.58" width="99.09" height="44.13"/><path class="cls-7" d="M36.53,29.45H88.92V73.58l-5.28,1.49A77.7,77.7,0,0,1,40,74.63l-3.49-1Z"/><rect class="cls-8" x="36.4" y="31.29" width="52.38" height="2.27"/><rect class="cls-8" x="37.05" y="24.64" width="51.21" height="2.27"/><rect class="cls-9" x="3.99" y="67.06" width="9.82" height="57.25"/><rect class="cls-10" x="7.77" y="67.06" width="2.52" height="57.25"/><rect class="cls-11" x="13.81" y="71.3" width="4.44" height="7.75"/><rect class="cls-12" x="13.81" y="92.52" width="4.44" height="6.95"/><rect class="cls-13" x="13.81" y="112.76" width="4.44" height="7.21"/><rect class="cls-14" x="107.2" y="71.6" width="3.99" height="7.75"/><rect class="cls-15" x="58.69" y="2.31" width="7.82" height="17.32" transform="translate(51.63 73.56) rotate(-90)"/><rect class="cls-16" x="107.2" y="92.82" width="3.99" height="6.95"/><rect class="cls-17" x="107.2" y="113.06" width="3.99" height="7.21"/><rect class="cls-18" x="111.19" y="67.37" width="9.82" height="57.25"/><rect class="cls-19" x="114.97" y="67.37" width="2.52" height="57.25"/><rect class="cls-20" x="121.01" y="71.6" width="4.44" height="7.75"/><rect class="cls-21" x="121.01" y="92.82" width="4.44" height="6.95"/><rect class="cls-22" x="121.01" y="113.06" width="4.44" height="7.21"/><rect class="cls-23" x="34" y="25.44" width="57.39" height="5.84"/><rect class="cls-4" x="86.04" width="63.59" height="4.95"/><rect class="cls-24" x="61.07" y="5.2" width="3.12" height="22.47" transform="translate(46.19 79.06) rotate(-90)"/></g></g></g></svg>