<svg xmlns="http://www.w3.org/2000/svg" xmlns:xlink="http://www.w3.org/1999/xlink" viewBox="0 0 149.8 141.91"><defs><style>.cls-1{fill:url(#未命名的渐变_143);}.cls-2{fill:url(#未命名的渐变_143-2);}.cls-3{fill:url(#未命名的渐变_143-3);}.cls-4{fill:url(#未命名的渐变_143-4);}.cls-5{fill:url(#未命名的渐变_143-5);}.cls-6{fill:url(#未命名的渐变_143-6);}.cls-7{fill:url(#未命名的渐变_67);}.cls-8{fill:url(#未命名的渐变_143-7);}.cls-9{fill:url(#未命名的渐变_143-8);}.cls-10{fill:url(#未命名的渐变_143-9);}.cls-11{fill:url(#未命名的渐变_143-10);}.cls-12{fill:url(#未命名的渐变_67-2);}</style><linearGradient id="未命名的渐变_143" x1="-223.47" y1="-137.12" x2="-213.71" y2="-137.12" gradientTransform="matrix(1, 0, 0, -1, 307.55, -117.92)" gradientUnits="userSpaceOnUse"><stop offset="0" stop-color="#b7b7b7"/><stop offset="0.03" stop-color="#9b9d9d"/><stop offset="0.07" stop-color="#878b8b"/><stop offset="0.09" stop-color="#808484"/><stop offset="0.2" stop-color="#a3a6a6"/><stop offset="0.49" stop-color="#f6f6f6"/><stop offset="0.61" stop-color="#f3f3f3"/><stop offset="0.7" stop-color="#eaeaea"/><stop offset="0.77" stop-color="#dbdbdb"/><stop offset="0.83" stop-color="#c5c5c5"/><stop offset="0.9" stop-color="#aaa"/><stop offset="0.95" stop-color="#888"/><stop offset="1" stop-color="#666"/></linearGradient><linearGradient id="未命名的渐变_143-2" x1="-194.57" y1="-137.27" x2="-184.81" y2="-137.27" xlink:href="#未命名的渐变_143"/><linearGradient id="未命名的渐变_143-3" x1="-280.75" y1="-137.12" x2="-270.99" y2="-137.12" xlink:href="#未命名的渐变_143"/><linearGradient id="未命名的渐变_143-4" x1="-252.27" y1="-137.27" x2="-242.51" y2="-137.27" xlink:href="#未命名的渐变_143"/><linearGradient id="未命名的渐变_143-5" x1="601.76" y1="-245.68" x2="601.76" y2="-183.74" gradientTransform="translate(-527.32 311.5)" xlink:href="#未命名的渐变_143"/><linearGradient id="未命名的渐变_143-6" x1="532.65" y1="-259.83" x2="532.65" y2="-169" gradientTransform="translate(-389.12 310.91)" xlink:href="#未命名的渐变_143"/><linearGradient id="未命名的渐变_67" x1="540.31" y1="439.48" x2="478.37" y2="439.48" gradientTransform="translate(-495.43 -342.69)" gradientUnits="userSpaceOnUse"><stop offset="0" stop-color="#6b6b6b"/><stop offset="0.11" stop-color="#767676"/><stop offset="0.3" stop-color="#959595"/><stop offset="0.41" stop-color="#aaa"/><stop offset="0.56" stop-color="#ccc"/><stop offset="0.71" stop-color="#eaeaea"/><stop offset="0.8" stop-color="#f6f6f6"/><stop offset="0.83" stop-color="#ededed"/><stop offset="0.87" stop-color="#d4d4d4"/><stop offset="0.92" stop-color="#ababab"/><stop offset="0.98" stop-color="#737373"/><stop offset="0.99" stop-color="#666"/></linearGradient><linearGradient id="未命名的渐变_143-7" x1="-301.22" y1="-259.28" x2="-301.22" y2="-169.55" xlink:href="#未命名的渐变_143"/><linearGradient id="未命名的渐变_143-8" x1="-264.89" y1="-166.26" x2="-200.7" y2="-166.26" xlink:href="#未命名的渐变_143"/><linearGradient id="未命名的渐变_143-9" x1="-283.34" y1="-131.14" x2="-182.57" y2="-131.14" xlink:href="#未命名的渐变_143"/><linearGradient id="未命名的渐变_143-10" x1="-283.18" y1="-143.3" x2="-182.41" y2="-143.3" xlink:href="#未命名的渐变_143"/><linearGradient id="未命名的渐变_67-2" x1="540.31" y1="-394.33" x2="478.37" y2="-394.33" gradientTransform="matrix(1, 0, 0, -1, -373.32, -297.55)" xlink:href="#未命名的渐变_67"/></defs><title>Hand valve （手动阀）</title><g id="图层_2" data-name="图层 2"><g id="图层_23" data-name="图层 23"><g id="Hand_valve_手动阀_" data-name="Hand valve （手动阀）"><rect class="cls-1" x="84.08" width="9.76" height="38.4"/><rect class="cls-2" x="112.98" y="0.15" width="9.76" height="38.4"/><rect class="cls-3" x="26.8" width="9.76" height="38.4"/><rect class="cls-4" x="55.28" y="0.15" width="9.76" height="38.4"/><rect class="cls-5" x="11.6" y="65.81" width="125.66" height="61.94" transform="translate(148.86 193.57) rotate(180)"/><rect class="cls-6" x="137.26" y="51.08" width="12.54" height="90.83" rx="0.41" transform="translate(287.06 192.99) rotate(180)"/><rect class="cls-7" x="-17.07" y="95.55" width="61.94" height="2.48" transform="translate(110.69 82.88) rotate(90)"/><rect class="cls-8" y="51.63" width="12.67" height="89.73" rx="0.43"/><path class="cls-9" d="M106.85,23.68H42.66V65.81l8.72,3.13a69,69,0,0,0,46.15.15l9.32-3.28Z"/><rect class="cls-10" x="24.21" y="8.33" width="100.77" height="9.78" rx="0.62"/><rect class="cls-11" x="24.37" y="20.49" width="100.77" height="9.78" rx="0.62"/><rect class="cls-12" x="105.05" y="95.55" width="61.94" height="2.48" transform="translate(232.81 -39.24) rotate(90)"/></g></g></g></svg>