<svg xmlns="http://www.w3.org/2000/svg" xmlns:xlink="http://www.w3.org/1999/xlink" viewBox="0 0 131.56 150"><defs><style>.cls-1{fill:url(#未命名的渐变_143);}.cls-2{fill:url(#未命名的渐变_143-2);}.cls-3{fill:url(#未命名的渐变_143-3);}.cls-4{fill:url(#未命名的渐变_143-4);}.cls-5{fill:url(#未命名的渐变_143-5);}.cls-6{fill:url(#未命名的渐变_143-6);}.cls-7{fill:url(#未命名的渐变_143-7);}.cls-8{fill:url(#未命名的渐变_143-8);}.cls-9{fill:url(#未命名的渐变_143-9);}</style><linearGradient id="未命名的渐变_143" x1="1030.24" y1="-578.24" x2="1030.24" y2="-512.39" gradientTransform="translate(-984.36 582.92)" gradientUnits="userSpaceOnUse"><stop offset="0" stop-color="#b7b7b7"/><stop offset="0.03" stop-color="#9b9d9d"/><stop offset="0.07" stop-color="#878b8b"/><stop offset="0.09" stop-color="#808484"/><stop offset="0.2" stop-color="#a3a6a6"/><stop offset="0.49" stop-color="#f6f6f6"/><stop offset="0.61" stop-color="#f3f3f3"/><stop offset="0.7" stop-color="#eaeaea"/><stop offset="0.77" stop-color="#dbdbdb"/><stop offset="0.83" stop-color="#c5c5c5"/><stop offset="0.9" stop-color="#aaa"/><stop offset="0.95" stop-color="#888"/><stop offset="1" stop-color="#666"/></linearGradient><linearGradient id="未命名的渐变_143-2" x1="978.4" y1="-571.11" x2="978.4" y2="-518.77" gradientTransform="translate(-880.67 582.17)" xlink:href="#未命名的渐变_143"/><linearGradient id="未命名的渐变_143-3" x1="961.16" y1="-581.75" x2="961.16" y2="-507.71" gradientTransform="translate(-846.2 581.75)" xlink:href="#未命名的渐变_143"/><linearGradient id="未命名的渐变_143-4" x1="960.89" y1="-515.9" x2="960.89" y2="-508.61" gradientTransform="translate(-845.65 516.8)" xlink:href="#未命名的渐变_143"/><linearGradient id="未命名的渐变_143-5" x1="960.89" y1="-539.94" x2="960.89" y2="-532.65" gradientTransform="translate(-845.65 564.89)" xlink:href="#未命名的渐变_143"/><linearGradient id="未命名的渐变_143-6" x1="960.89" y1="-559.3" x2="960.89" y2="-552.01" gradientTransform="translate(-845.65 603.61)" xlink:href="#未命名的渐变_143"/><linearGradient id="未命名的渐变_143-7" x1="960.89" y1="-581.27" x2="960.89" y2="-573.98" gradientTransform="translate(-845.65 647.55)" xlink:href="#未命名的渐变_143"/><linearGradient id="未命名的渐变_143-8" x1="1076.13" y1="-593.48" x2="1011.01" y2="-593.48" gradientTransform="translate(-1011.01 679.25)" xlink:href="#未命名的渐变_143"/><linearGradient id="未命名的渐变_143-9" x1="1056.13" y1="-633.21" x2="1030.24" y2="-633.21" gradientTransform="translate(-1010.24 758.72)" xlink:href="#未命名的渐变_143"/></defs><title>Rotary valve（旋转阀） (2)</title><g id="图层_2" data-name="图层 2"><g id="图层_23" data-name="图层 23"><g id="Rotary_valve_旋转阀_" data-name="Rotary valve（旋转阀）"><rect class="cls-1" y="4.68" width="91.77" height="65.85" transform="translate(91.77 75.21) rotate(180)"/><rect class="cls-2" x="91.77" y="11.06" width="11.91" height="52.34" transform="translate(195.45 74.47) rotate(180)"/><rect class="cls-3" x="103.68" width="22.55" height="74.04" rx="1.38" transform="translate(229.92 74.04) rotate(180)"/><rect class="cls-4" x="98.92" y="0.9" width="32.63" height="7.29" rx="0.69" transform="translate(230.48 9.1) rotate(-180)"/><rect class="cls-5" x="98.92" y="24.95" width="32.63" height="7.29" rx="0.69" transform="translate(230.48 57.18) rotate(-180)"/><rect class="cls-6" x="98.92" y="44.31" width="32.63" height="7.29" rx="0.69" transform="translate(230.48 95.9) rotate(-180)"/><rect class="cls-7" x="98.92" y="66.28" width="32.63" height="7.29" rx="0.69" transform="translate(230.48 139.84) rotate(-180)"/><rect class="cls-8" y="70.53" width="65.12" height="30.48" transform="translate(65.12 171.54) rotate(180)"/><rect class="cls-9" x="20" y="101.01" width="25.88" height="48.99" transform="translate(65.88 251.01) rotate(180)"/></g></g></g></svg>