<svg xmlns="http://www.w3.org/2000/svg" xmlns:xlink="http://www.w3.org/1999/xlink" viewBox="0 0 124 149.92"><defs><style>.cls-1{fill:url(#未命名的渐变_67);}.cls-2{fill:url(#未命名的渐变_143);}.cls-3{fill:url(#未命名的渐变_67-2);}.cls-4{fill:url(#未命名的渐变_67-3);}.cls-5{fill:url(#未命名的渐变_67-4);}.cls-6{fill:url(#未命名的渐变_67-5);}.cls-7{fill:url(#未命名的渐变_67-6);}.cls-8{fill:url(#未命名的渐变_67-7);}.cls-9{fill:#b4b5b5;}.cls-10{fill:#4f4d4d;}.cls-11{fill:url(#未命名的渐变_67-8);}.cls-12{fill:url(#未命名的渐变_67-9);}.cls-13{fill:url(#未命名的渐变_143-2);}.cls-14{fill:url(#未命名的渐变_67-10);}.cls-15{fill:url(#未命名的渐变_143-3);}</style><linearGradient id="未命名的渐变_67" x1="244.87" y1="220.71" x2="206.3" y2="220.71" gradientTransform="translate(-156.28 -190.24)" gradientUnits="userSpaceOnUse"><stop offset="0" stop-color="#6b6b6b"/><stop offset="0.11" stop-color="#767676"/><stop offset="0.3" stop-color="#959595"/><stop offset="0.41" stop-color="#aaa"/><stop offset="0.56" stop-color="#ccc"/><stop offset="0.71" stop-color="#eaeaea"/><stop offset="0.8" stop-color="#f6f6f6"/><stop offset="0.83" stop-color="#ededed"/><stop offset="0.87" stop-color="#d4d4d4"/><stop offset="0.92" stop-color="#ababab"/><stop offset="0.98" stop-color="#737373"/><stop offset="0.99" stop-color="#666"/></linearGradient><linearGradient id="未命名的渐变_143" x1="173.04" y1="331.32" x2="173.04" y2="286.18" gradientTransform="translate(-156.28 -190.24)" gradientUnits="userSpaceOnUse"><stop offset="0" stop-color="#b7b7b7"/><stop offset="0.03" stop-color="#9b9d9d"/><stop offset="0.07" stop-color="#878b8b"/><stop offset="0.09" stop-color="#808484"/><stop offset="0.2" stop-color="#a3a6a6"/><stop offset="0.49" stop-color="#f6f6f6"/><stop offset="0.61" stop-color="#f3f3f3"/><stop offset="0.7" stop-color="#eaeaea"/><stop offset="0.77" stop-color="#dbdbdb"/><stop offset="0.83" stop-color="#c5c5c5"/><stop offset="0.9" stop-color="#aaa"/><stop offset="0.95" stop-color="#888"/><stop offset="1" stop-color="#666"/></linearGradient><linearGradient id="未命名的渐变_67-2" x1="421.71" y1="221.09" x2="371.48" y2="221.09" gradientTransform="translate(-296.04 -102.53)" xlink:href="#未命名的渐变_67"/><linearGradient id="未命名的渐变_67-3" x1="427.95" y1="212.22" x2="364.92" y2="212.22" gradientTransform="translate(-287.01 -93.81)" xlink:href="#未命名的渐变_67"/><linearGradient id="未命名的渐变_67-4" x1="419.12" y1="286.8" x2="373.98" y2="286.8" gradientTransform="translate(-361.7 -168.28)" xlink:href="#未命名的渐变_67"/><linearGradient id="未命名的渐变_67-5" x1="396.6" y1="316.38" x2="396.6" y2="314.47" gradientTransform="translate(-390.37 -196.86)" xlink:href="#未命名的渐变_67"/><linearGradient id="未命名的渐变_67-6" x1="396.6" y1="309.64" x2="396.6" y2="307.73" gradientTransform="translate(-383.63 -190.12)" xlink:href="#未命名的渐变_67"/><linearGradient id="未命名的渐变_67-7" x1="396.6" y1="303.82" x2="396.6" y2="301.91" gradientTransform="translate(-377.81 -184.3)" xlink:href="#未命名的渐变_67"/><linearGradient id="未命名的渐变_67-8" x1="245.54" y1="214.46" x2="205.14" y2="214.46" xlink:href="#未命名的渐变_67"/><linearGradient id="未命名的渐变_67-9" x1="198.23" y1="244.16" x2="198.23" y2="228.02" xlink:href="#未命名的渐变_67"/><linearGradient id="未命名的渐变_143-2" x1="224.23" y1="333.91" x2="224.23" y2="283.69" xlink:href="#未命名的渐变_143"/><linearGradient id="未命名的渐变_67-10" x1="188.12" y1="245.41" x2="188.12" y2="226.75" xlink:href="#未命名的渐变_67"/><linearGradient id="未命名的渐变_143-3" x1="-257.53" y1="-173.51" x2="-218.97" y2="-173.51" gradientTransform="matrix(1, 0, 0, -1, 307.55, -107.71)" xlink:href="#未命名的渐变_143"/></defs><title>Safety valve（安全阀）</title><g id="图层_2" data-name="图层 2"><g id="图层_23" data-name="图层 23"><g id="Safety_valve_安全阀_" data-name="Safety valve（安全阀）"><rect class="cls-1" x="50.02" y="29.13" width="38.56" height="2.69"/><rect class="cls-2" y="95.95" width="33.51" height="45.14"/><rect class="cls-3" x="75.45" y="117.22" width="50.23" height="2.69" transform="translate(219.12 18) rotate(90)"/><rect class="cls-4" x="77.92" y="110.88" width="63.03" height="15.05" transform="translate(227.84 8.98) rotate(90)"/><rect class="cls-5" x="12.28" y="117.17" width="45.14" height="2.69" transform="translate(153.37 83.67) rotate(90)"/><rect class="cls-6" x="-16.34" y="117.61" width="45.14" height="1.91" transform="translate(124.79 112.34) rotate(90)"/><rect class="cls-7" x="-9.61" y="117.61" width="45.14" height="1.91" transform="translate(131.52 105.6) rotate(90)"/><rect class="cls-8" x="-3.79" y="117.61" width="45.14" height="1.91" transform="translate(137.35 99.78) rotate(90)"/><polygon class="cls-9" points="85.33 19.31 53.25 19.31 53.25 5.89 123.93 5.89 85.33 19.31"/><circle class="cls-10" cx="68.06" cy="17.94" r="3.97"/><rect class="cls-11" x="48.86" y="19.31" width="40.39" height="9.81"/><rect class="cls-9" x="53.1" width="70.68" height="5.89"/><rect class="cls-12" x="33.88" y="37.78" width="16.15" height="16.15"/><rect class="cls-13" x="36.2" y="93.45" width="63.5" height="50.23"/><rect class="cls-14" x="29.79" y="36.51" width="4.08" height="18.67"/><path class="cls-15" d="M88.59,31.82H50V94l.09,0A34.83,34.83,0,0,0,88.5,94l.09,0Z"/><rect class="cls-10" x="53.23" y="5.93" width="70.77" height="0.62"/></g></g></g></svg>