<svg xmlns="http://www.w3.org/2000/svg" xmlns:xlink="http://www.w3.org/1999/xlink" viewBox="0 0 149.01 115.47"><defs><style>.cls-1{fill:#4d5d5f;}.cls-11,.cls-12,.cls-13,.cls-14,.cls-2,.cls-25,.cls-9{fill:none;stroke-miterlimit:10;}.cls-12,.cls-2,.cls-9{stroke:#b6aba1;}.cls-13,.cls-2{stroke-width:0.25px;}.cls-3{fill:#b6aba1;}.cls-4{fill:url(#未命名的渐变_50);}.cls-5{fill:url(#未命名的渐变_49);}.cls-6{fill:url(#未命名的渐变_49-2);}.cls-7{fill:url(#未命名的渐变_51);}.cls-8{fill:url(#未命名的渐变_44);}.cls-9{stroke-width:0.5px;}.cls-10{fill:url(#未命名的渐变_49-3);}.cls-11{stroke:#4f5d5f;stroke-width:6px;}.cls-12{stroke-width:2px;}.cls-13,.cls-14{stroke:#4d5d5f;}.cls-15{fill:url(#未命名的渐变_43);}.cls-16{fill:url(#未命名的渐变_43-2);}.cls-17{fill:url(#未命名的渐变_44-2);}.cls-18{fill:url(#未命名的渐变_46);}.cls-19{fill:url(#未命名的渐变_50-2);}.cls-20{fill:url(#未命名的渐变_47);}.cls-21{fill:url(#未命名的渐变_45);}.cls-22{fill:url(#未命名的渐变_49-4);}.cls-23{fill:url(#未命名的渐变_51-2);}.cls-24{fill:url(#未命名的渐变_50-3);}.cls-25{stroke-linecap:round;stroke-width:0.75px;stroke-dasharray:2.02 1.01;stroke:url(#未命名的渐变_43-3);}.cls-26{fill:url(#未命名的渐变_44-3);}.cls-27{fill:url(#未命名的渐变_49-5);}.cls-28{fill:url(#未命名的渐变_49-6);}.cls-29{fill:#fff;}</style><linearGradient id="未命名的渐变_50" x1="83.71" y1="102.07" x2="94.62" y2="94.88" gradientTransform="matrix(-0.48, -0.47, 0.7, -0.71, 40.48, 196.63)" gradientUnits="userSpaceOnUse"><stop offset="0.3" stop-color="#4d5d5f"/><stop offset="0.38" stop-color="#7f9199"/><stop offset="0.47" stop-color="#a9bdcb"/><stop offset="0.51" stop-color="#b9cede"/></linearGradient><linearGradient id="未命名的渐变_49" x1="95.78" y1="43.92" x2="124.18" y2="35.16" gradientUnits="userSpaceOnUse"><stop offset="0.19" stop-color="#4d5d5f"/><stop offset="0.42" stop-color="#7f9199"/><stop offset="0.64" stop-color="#a9bdcb"/><stop offset="0.74" stop-color="#b9cede"/></linearGradient><linearGradient id="未命名的渐变_49-2" x1="108.26" y1="51.38" x2="121.36" y2="39.21" gradientTransform="translate(-7.18 35.51) rotate(-17.05)" xlink:href="#未命名的渐变_49"/><linearGradient id="未命名的渐变_51" x1="29.14" y1="88.92" x2="65.6" y2="88.92" gradientTransform="translate(-5.95 3.13) rotate(-3.4)" gradientUnits="userSpaceOnUse"><stop offset="0.3" stop-color="#4d5d5f"/><stop offset="0.54" stop-color="#7f9199"/><stop offset="0.77" stop-color="#a9bdcb"/><stop offset="0.89" stop-color="#b9cede"/></linearGradient><linearGradient id="未命名的渐变_44" x1="45.17" y1="71.48" x2="45.93" y2="72.18" gradientTransform="translate(-7.28 4.95) rotate(-5.94)" gradientUnits="userSpaceOnUse"><stop offset="0" stop-color="#4d5d5f"/><stop offset="0.35" stop-color="#7f9199"/><stop offset="0.69" stop-color="#a9bdcb"/><stop offset="0.86" stop-color="#b9cede"/></linearGradient><linearGradient id="未命名的渐变_49-3" x1="90.73" y1="41.21" x2="117.56" y2="32.94" xlink:href="#未命名的渐变_49"/><linearGradient id="未命名的渐变_43" x1="49.01" y1="43.42" x2="51.35" y2="42.6" gradientTransform="translate(16.79 -14.03) rotate(19.06)" gradientUnits="userSpaceOnUse"><stop offset="0" stop-color="#4d5d5f"/><stop offset="0.41" stop-color="#7f9199"/><stop offset="0.81" stop-color="#a9bdcb"/><stop offset="1" stop-color="#b9cede"/></linearGradient><linearGradient id="未命名的渐变_43-2" x1="34.95" y1="32.11" x2="59.8" y2="32.11" gradientTransform="matrix(1, 0, 0, 1, 0, 0)" xlink:href="#未命名的渐变_43"/><linearGradient id="未命名的渐变_44-2" x1="107.27" y1="68.34" x2="110.15" y2="66.73" gradientTransform="matrix(1, 0, 0, 1, 0, 0)" xlink:href="#未命名的渐变_44"/><linearGradient id="未命名的渐变_46" x1="52.22" y1="76.95" x2="70.66" y2="70.7" gradientTransform="translate(-3.98 3.38) rotate(-3.1)" gradientUnits="userSpaceOnUse"><stop offset="0.36" stop-color="#4d5d5f"/><stop offset="0.48" stop-color="#7f9199"/><stop offset="0.59" stop-color="#a9bdcb"/><stop offset="0.64" stop-color="#b9cede"/></linearGradient><linearGradient id="未命名的渐变_50-2" x1="73.55" y1="61.54" x2="98.01" y2="81.7" gradientTransform="matrix(1, 0, 0, 1, 0, 0)" xlink:href="#未命名的渐变_50"/><linearGradient id="未命名的渐变_47" x1="73.96" y1="41.97" x2="80.95" y2="80.2" gradientUnits="userSpaceOnUse"><stop offset="0.16" stop-color="#4d5d5f"/><stop offset="0.19" stop-color="#7f9199"/><stop offset="0.22" stop-color="#a9bdcb"/><stop offset="0.24" stop-color="#b9cede"/></linearGradient><linearGradient id="未命名的渐变_45" x1="92.8" y1="44.52" x2="98.2" y2="41.71" gradientUnits="userSpaceOnUse"><stop offset="0.31" stop-color="#4d5d5f"/><stop offset="0.46" stop-color="#7f9199"/><stop offset="0.61" stop-color="#a9bdcb"/><stop offset="0.68" stop-color="#b9cede"/></linearGradient><linearGradient id="未命名的渐变_49-4" x1="93.4" y1="50.78" x2="103.62" y2="47.63" xlink:href="#未命名的渐变_49"/><linearGradient id="未命名的渐变_51-2" x1="28.79" y1="92.21" x2="64.47" y2="92.21" gradientTransform="matrix(1, 0, 0, 1, 0, 0)" xlink:href="#未命名的渐变_51"/><linearGradient id="未命名的渐变_50-3" x1="65.93" y1="102.01" x2="77.12" y2="94.64" gradientTransform="matrix(1, 0, 0, 1, 0, 0)" xlink:href="#未命名的渐变_50"/><linearGradient id="未命名的渐变_43-3" x1="27.45" y1="92.49" x2="73.73" y2="92.49" gradientTransform="matrix(1, 0, 0, 1, 0, 0)" xlink:href="#未命名的渐变_43"/><linearGradient id="未命名的渐变_44-3" x1="43.57" y1="70.18" x2="44.33" y2="70.89" gradientTransform="matrix(1, 0, 0, 1, 0, 0)" xlink:href="#未命名的渐变_44"/><linearGradient id="未命名的渐变_49-5" x1="103.76" y1="39.89" x2="106.72" y2="39.41" xlink:href="#未命名的渐变_49"/><linearGradient id="未命名的渐变_49-6" x1="102.3" y1="48.11" x2="116.25" y2="35.16" xlink:href="#未命名的渐变_49"/></defs><title>bicycle（自行车)</title><g id="图层_2" data-name="图层 2"><g id="图层_35" data-name="图层 35"><g id="bicycle_自行车_" data-name="bicycle（自行车)"><rect class="cls-1" x="69.49" y="77.38" width="7.17" height="2.05" rx="0.4"/><rect class="cls-2" x="69.87" y="77.72" width="6.44" height="1.34" rx="0.23"/><circle class="cls-3" cx="71.01" cy="78.4" r="0.42"/><circle class="cls-3" cx="72.39" cy="78.4" r="0.42"/><circle class="cls-3" cx="73.78" cy="78.4" r="0.42"/><circle class="cls-3" cx="75.17" cy="78.4" r="0.42"/><path class="cls-4" d="M70.27,77.3h0a1.1,1.1,0,0,1,.49,1.29L66.89,90.77a1.9,1.9,0,0,1-1.75,1.33h0c-.54,0-.8-.54-.6-1.16l4.12-13A1.1,1.1,0,0,1,70.27,77.3Z"/><path class="cls-5" d="M118.06,33.89h0a1.61,1.61,0,0,0-1.53,1.1l-1,3c-.58,1.72-5-2.86-6.69-2.21L100.45,40c-.83.32-2.12.65-1.8,1.47l.23.6A1.6,1.6,0,0,0,101,43l10-3.84c1.93-.74,6.51,3.64,7.12,1.68L119.59,36A1.6,1.6,0,0,0,118.06,33.89Z"/><path class="cls-6" d="M113.38,38.71l-.87-.32,1,3.93,3.47.8a2.48,2.48,0,0,1,1.94,2.33,4.61,4.61,0,0,1-1.73,3.63c-3,2.6-7.52,3.29-9.74,3.47A1.45,1.45,0,0,0,106.1,54h0a1.45,1.45,0,0,0,1.56,1.45,26.4,26.4,0,0,0,5.45-1,16,16,0,0,0,6-3.17,7.37,7.37,0,0,0,2.41-7.84,4,4,0,0,0-2.58-2.7Z"/><polygon class="cls-7" points="65.11 92.95 28.27 87.53 29.31 85.13 64.95 90.19 65.11 92.95"/><path class="cls-8" d="M32.86,89.45a1,1,0,0,1-.68-.2A1,1,0,0,1,32,87.9L57.53,54.36a1,1,0,1,1,1.52,1.17L33.53,89.08A1,1,0,0,1,32.86,89.45Z"/><rect class="cls-9" x="115.97" y="59.03" width="7.24" height="54.53" transform="translate(43.29 -39.91) rotate(23.03)"/><rect class="cls-9" x="115.97" y="59.03" width="7.24" height="54.53" transform="matrix(0.37, 0.93, -0.93, 0.37, 154.88, -56.9)"/><rect class="cls-9" x="115.97" y="59.03" width="7.24" height="54.53" transform="translate(245.8 9.99) rotate(113.03)"/><rect class="cls-9" x="115.97" y="59.03" width="7.24" height="54.53" transform="translate(262.79 121.58) rotate(158.03)"/><rect class="cls-9" x="115.97" y="59.03" width="7.24" height="54.53"/><rect class="cls-9" x="115.97" y="59.03" width="7.24" height="54.53" transform="translate(96.05 -59.29) rotate(45)"/><rect class="cls-9" x="115.97" y="59.03" width="7.24" height="54.53" transform="translate(205.89 -33.3) rotate(90)"/><rect class="cls-9" x="115.97" y="59.03" width="7.24" height="54.53" transform="translate(265.18 62.74) rotate(135)"/><rect class="cls-9" x="25.71" y="58.85" width="7.24" height="54.53" transform="translate(36.03 -4.61) rotate(23.03)"/><rect class="cls-9" x="25.71" y="58.85" width="7.24" height="54.53" transform="translate(98.22 26.69) rotate(68.03)"/><rect class="cls-9" x="25.71" y="58.85" width="7.24" height="54.53" transform="translate(120.06 92.81) rotate(113.03)"/><rect class="cls-9" x="25.71" y="58.85" width="7.24" height="54.53" transform="translate(88.75 155) rotate(158.03)"/><rect class="cls-9" x="25.71" y="58.85" width="7.24" height="54.53"/><rect class="cls-9" x="25.71" y="58.85" width="7.24" height="54.53" transform="translate(69.48 4.48) rotate(45)"/><rect class="cls-9" x="25.71" y="58.85" width="7.24" height="54.53" transform="translate(115.44 56.78) rotate(90)"/><rect class="cls-9" x="25.71" y="58.85" width="7.24" height="54.53" transform="translate(110.97 126.26) rotate(135)"/><path class="cls-10" d="M111.06,29.63h0a1.6,1.6,0,0,0-1.52,1.1l-1,3A6,6,0,0,1,105,37.5l-9.27,3.56a1.6,1.6,0,0,0-.92,2.07l.23.6a1.6,1.6,0,0,0,2.07.92l10-3.84a6.76,6.76,0,0,0,4-4.28l1.51-4.81A1.61,1.61,0,0,0,111.06,29.63Z"/><circle class="cls-11" cx="29.33" cy="86.11" r="26.33"/><circle class="cls-12" cx="29.33" cy="86.11" r="26.33"/><circle class="cls-11" cx="119.67" cy="86.13" r="26.33"/><circle class="cls-1" cx="29.33" cy="86.11" r="7.42"/><circle class="cls-3" cx="29.33" cy="86.11" r="5.92"/><circle class="cls-13" cx="29.33" cy="86.11" r="3.18"/><circle class="cls-1" cx="29.33" cy="86.11" r="1.5"/><circle class="cls-14" cx="119.6" cy="87.01" r="7.42"/><circle class="cls-1" cx="119.6" cy="87.01" r="5.86"/><circle class="cls-3" cx="119.6" cy="87.01" r="4"/><line class="cls-1" x1="53.8" y1="53.5" x2="46.55" y2="32.52"/><rect class="cls-15" x="48.73" y="31.91" width="2.89" height="22.2" transform="translate(-11.29 18.74) rotate(-19.06)"/><path class="cls-16" d="M59.8,31.19c0,.79-6.36,1-10.21,2.1-3.26.92-4.54,2-6.84,2.12a7.26,7.26,0,0,1-7.8-6.5c0-.51,5.67.64,11.6.64S59.8,29.75,59.8,31.19Z"/><line class="cls-1" x1="94.27" y1="41.45" x2="98.11" y2="47.59"/><circle class="cls-12" cx="119.67" cy="86.13" r="26.33"/><path class="cls-17" d="M121.08,89.32h0a2.71,2.71,0,0,1-3.75-.93L94.4,46.83l4.83.67L122,85.64A2.71,2.71,0,0,1,121.08,89.32Z"/><path class="cls-18" d="M72,94.88l-6.22.6L50.51,53.65a.85.85,0,0,1,.6-1.12L56,51.41l1.51,3.69Z"/><polygon class="cls-19" points="98.54 55.37 98.17 55.45 98.16 55.45 71.36 89.45 66.84 85.84 95.61 49.88 98.54 55.37"/><polygon class="cls-20" points="94.82 48.14 57.42 54.94 55.96 51.41 93.26 44.76 94.82 48.14"/><path class="cls-21" d="M95.82,47.09l-3.08-4.92a1.44,1.44,0,0,1,.46-2h0a1.44,1.44,0,0,1,2,.46l3.08,4.92Z"/><polygon class="cls-22" points="103.66 53.07 98.15 55.44 92.87 44.83 98.42 43.47 103.66 53.07"/><circle class="cls-1" cx="119.6" cy="87.01" r="1.17"/><polygon class="cls-23" points="64.47 99.19 28.79 87.41 29.9 85.24 64.47 96.42 64.47 99.19"/><circle class="cls-1" cx="65.65" cy="92.51" r="7.42"/><circle class="cls-3" cx="65.65" cy="92.51" r="6.4"/><circle class="cls-1" cx="65.65" cy="92.51" r="3.9"/><circle class="cls-3" cx="65.65" cy="92.51" r="1.5"/><path class="cls-24" d="M77.29,105.41H73.61L64.77,93.75a1.46,1.46,0,0,1,.48-2.17h0a1.47,1.47,0,0,1,1.86.4Z"/><circle class="cls-1" cx="65.65" cy="92.51" r="0.53"/><rect class="cls-1" x="73.55" y="104.75" width="9.01" height="2.58" rx="0.4"/><rect class="cls-2" x="74.02" y="105.18" width="8.09" height="1.69" rx="0.23"/><circle class="cls-3" cx="75.46" cy="106.03" r="0.52"/><circle class="cls-3" cx="77.2" cy="106.03" r="0.52"/><circle class="cls-3" cx="78.94" cy="106.03" r="0.52"/><circle class="cls-3" cx="80.68" cy="106.03" r="0.52"/><path class="cls-25" d="M30.34,84.63l35.71.54a7.45,7.45,0,0,1,6.45,3.92A7.13,7.13,0,0,1,69.09,99l-.55.24a12.93,12.93,0,0,1-5.72,1.11l-25.69-.83A9.58,9.58,0,0,1,27.9,88.81l.37-3,.4-.45A2.19,2.19,0,0,1,30.34,84.63Z"/><path class="cls-26" d="M29.57,86.9a1,1,0,0,1-.7-1.62L57.73,54.56a1,1,0,0,1,1.4,1.33L30.26,86.61A1,1,0,0,1,29.57,86.9Z"/><circle class="cls-3" cx="29.33" cy="86.11" r="0.53"/><polygon class="cls-27" points="102.76 39.16 104.83 41.67 107.07 40.81 104.92 37.75 102.76 39.16"/><path class="cls-28" d="M109.57,35.05l-.74-.55-4.79,2a1.93,1.93,0,0,0-1.4,2.34A1.87,1.87,0,0,0,105,40.2l3.61-1.66,3.08,1.78a2.47,2.47,0,0,1,1.18,2.79,7.65,7.65,0,0,1-3.35,4.09c-3.58,1.63-7,2.16-9.17,1.68a1.42,1.42,0,0,0-1.67,1h0a1.43,1.43,0,0,0,1.06,1.84,20.17,20.17,0,0,0,4.67.33c2.14,0,4.47-1.17,6.61-2.15,3.45-1.56,4.85-5.54,4.92-8a4.08,4.08,0,0,0-1.67-3.34Z"/><path class="cls-29" d="M127.49,3a1.5,1.5,0,0,0,0-3,1.5,1.5,0,0,0,0,3Z"/></g></g></g></svg>