<svg xmlns="http://www.w3.org/2000/svg" xmlns:xlink="http://www.w3.org/1999/xlink" viewBox="0 0 149.97 78.47"><defs><style>.cls-1{fill:#a0a0a0;}.cls-2{fill:url(#未命名的渐变_60);}.cls-3{fill:url(#未命名的渐变_60-2);}.cls-4{fill:#5d5e5e;}.cls-5{fill:#dadae0;}.cls-18,.cls-20,.cls-6{fill:none;stroke-miterlimit:10;}.cls-6{stroke:#afafaf;stroke-width:0.5px;}.cls-7{fill:#afafaf;}.cls-8{fill:#bcbcbc;}.cls-9{fill:#666767;}.cls-10{fill:url(#未命名的渐变_143);}.cls-11{fill:url(#未命名的渐变_143-2);}.cls-12{fill:url(#未命名的渐变_143-3);}.cls-13{fill:#b2b2b2;}.cls-14{fill:url(#未命名的渐变_60-3);}.cls-15{fill:url(#未命名的渐变_60-4);}.cls-16{fill:url(#未命名的渐变_60-5);}.cls-17{fill:url(#未命名的渐变_60-6);}.cls-18{stroke:#dadae0;}.cls-19{fill:url(#未命名的渐变_60-7);}.cls-20{stroke:#5d5e5e;stroke-width:0.75px;}</style><linearGradient id="未命名的渐变_60" x1="56.5" y1="29.9" x2="62.99" y2="51.3" gradientTransform="matrix(0.92, 0.16, -0.27, 0.54, 16.29, 11.87)" gradientUnits="userSpaceOnUse"><stop offset="0" stop-color="#4d5d5f"/><stop offset="0.03" stop-color="#59696d"/><stop offset="0.14" stop-color="#82959d"/><stop offset="0.23" stop-color="#a0b4c1"/><stop offset="0.31" stop-color="#b2c7d6"/><stop offset="0.36" stop-color="#b9cede"/></linearGradient><linearGradient id="未命名的渐变_60-2" x1="64.02" y1="33.36" x2="70.52" y2="54.78" gradientTransform="matrix(0.92, 0.26, -0.27, 0.87, 15.97, -11.23)" xlink:href="#未命名的渐变_60"/><linearGradient id="未命名的渐变_143" x1="21.81" y1="68.61" x2="32.59" y2="68.61" gradientUnits="userSpaceOnUse"><stop offset="0" stop-color="#b7b7b8"/><stop offset="0.03" stop-color="#9c9e9e"/><stop offset="0.07" stop-color="#888b8b"/><stop offset="0.09" stop-color="#818484"/><stop offset="0.2" stop-color="#a3a5a5"/><stop offset="0.49" stop-color="#f6f6f6"/><stop offset="0.61" stop-color="#f3f3f3"/><stop offset="0.7" stop-color="#eaeaea"/><stop offset="0.77" stop-color="#dbdbdb"/><stop offset="0.83" stop-color="#c5c6c6"/><stop offset="0.9" stop-color="#aaa"/><stop offset="0.95" stop-color="#888989"/><stop offset="1" stop-color="#666767"/></linearGradient><linearGradient id="未命名的渐变_143-2" x1="118.38" y1="68.61" x2="129.16" y2="68.61" xlink:href="#未命名的渐变_143"/><linearGradient id="未命名的渐变_143-3" x1="94.48" y1="68.61" x2="105.26" y2="68.61" xlink:href="#未命名的渐变_143"/><linearGradient id="未命名的渐变_60-3" x1="38.64" y1="35.39" x2="53.35" y2="35.39" gradientTransform="matrix(1, 0, 0, 1, 0, 0)" xlink:href="#未命名的渐变_60"/><linearGradient id="未命名的渐变_60-4" x1="35.94" y1="25.36" x2="60.89" y2="25.36" gradientTransform="matrix(1, 0, 0, 1, 0, 0)" xlink:href="#未命名的渐变_60"/><linearGradient id="未命名的渐变_60-5" x1="35.91" y1="43.38" x2="60.86" y2="43.38" gradientTransform="matrix(1, 0, 0, 1, 0, 0)" xlink:href="#未命名的渐变_60"/><linearGradient id="未命名的渐变_60-6" x1="69.64" y1="-54.47" x2="146.72" y2="-54.47" gradientTransform="translate(167.35 100.58) rotate(-104.77)" xlink:href="#未命名的渐变_60"/><linearGradient id="未命名的渐变_60-7" x1="-50.14" y1="72.02" x2="-43.64" y2="93.44" gradientTransform="matrix(0.08, 0.39, -0.02, 1.31, 61.61, -38.9)" xlink:href="#未命名的渐变_60"/></defs><title>Concrete mixing truck（混凝土搅拌机）</title><g id="图层_2" data-name="图层 2"><g id="图层_35" data-name="图层 35"><g id="Concrete_mixing_truck_混凝土搅拌机_" data-name="Concrete mixing truck（混凝土搅拌机）"><polygon class="cls-1" points="61.55 54.36 50.84 54.36 53.08 42.87 58.99 42.87 61.55 54.36"/><path class="cls-2" d="M51.34,36.9h19a0,0,0,0,1,0,0v4.52a0,0,0,0,1,0,0h-19a1.14,1.14,0,0,1-1.14-1.14V38A1.14,1.14,0,0,1,51.34,36.9Z" transform="translate(-8.62 18.66) rotate(-16.44)"/><rect class="cls-3" x="55.88" y="33.62" width="20.19" height="7.21" transform="matrix(0.96, -0.28, 0.28, 0.96, -7.84, 20.19)"/><rect class="cls-4" x="36.61" y="57.32" width="102.16" height="11.28"/><rect class="cls-4" x="3.66" y="49.9" width="38.75" height="17.19"/><path class="cls-5" d="M36.19,14.82v37H22.33c-4.08,0-10,1.25-11.25,6.15a6.77,6.77,0,0,0-.18,1.55V60l-5-.07c-2.29,0-4.24-.94-4.24-3.29V30.79a6.34,6.34,0,0,1,.8-3.1l5.37-9.77a6.41,6.41,0,0,1,5.71-3.33Z"/><path class="cls-1" d="M11.37,32.87h-6A1.77,1.77,0,0,1,3.8,30.25L10.62,18A1.77,1.77,0,0,1,12.17,17H14.5a1.77,1.77,0,0,1,1.71,2.21L13.09,31.54A1.78,1.78,0,0,1,11.37,32.87Z"/><path class="cls-1" d="M27.07,32.87H17a2.07,2.07,0,0,1-2.23-2.41l3.07-11.87A2.24,2.24,0,0,1,20,17h7.06a2.16,2.16,0,0,1,2.28,2V30.89A2.15,2.15,0,0,1,27.07,32.87Z"/><line class="cls-6" x1="30.58" y1="15.97" x2="30.58" y2="52.11"/><rect class="cls-6" x="1.66" y="44.03" width="28.92" height="1.17"/><rect class="cls-6" x="1.66" y="49.31" width="28.92" height="1.17"/><rect class="cls-7" x="1.66" y="45.82" width="28.92" height="3.05"/><circle class="cls-7" cx="25.78" cy="35.11" r="1.11"/><circle class="cls-7" cx="25.78" cy="41.75" r="1.11"/><rect class="cls-8" x="25.1" y="34.51" width="1.37" height="7.71" rx="0.57"/><rect class="cls-1" x="1.96" y="34.76" width="4.7" height="2.02"/><circle class="cls-1" cx="27.2" cy="68.61" r="9.86"/><circle class="cls-9" cx="27.2" cy="68.61" r="8.71"/><circle class="cls-10" cx="27.2" cy="68.61" r="5.39"/><circle class="cls-1" cx="27.2" cy="68.61" r="2.25"/><circle class="cls-1" cx="123.77" cy="68.61" r="9.86"/><circle class="cls-9" cx="123.77" cy="68.61" r="8.71"/><circle class="cls-11" cx="123.77" cy="68.61" r="5.39"/><circle class="cls-1" cx="123.77" cy="68.61" r="2.25"/><circle class="cls-1" cx="99.87" cy="68.61" r="9.86"/><circle class="cls-9" cx="99.87" cy="68.61" r="8.71"/><circle class="cls-12" cx="99.87" cy="68.61" r="5.39"/><circle class="cls-1" cx="99.87" cy="68.61" r="2.25"/><path class="cls-5" d="M24.13,53.7c-9.47-.12-11.42,5.3-11.59,8L2,61.6s-1,6.53,1.7,9.7H16.12S11.89,57.39,27,56.46l9.2.27v-3Z"/><rect class="cls-1" y="51.86" width="3.58" height="5.53"/><rect class="cls-1" x="2.99" y="62.5" width="10.79" height="1.56"/><rect class="cls-1" x="2.99" y="65.94" width="6.69" height="3.09"/><rect class="cls-4" x="138.76" y="57.39" width="2.86" height="14.67"/><rect class="cls-13" x="42.69" y="58.99" width="36.44" height="12.31"/><rect class="cls-1" x="44.93" y="58.99" width="2.65" height="12.31"/><rect class="cls-1" x="50.85" y="58.99" width="2.65" height="12.31"/><rect class="cls-1" x="56.76" y="58.99" width="2.65" height="12.31"/><rect class="cls-1" x="62.67" y="58.99" width="2.65" height="12.31"/><rect class="cls-1" x="68.58" y="58.99" width="2.65" height="12.31"/><rect class="cls-1" x="74.49" y="58.99" width="2.65" height="12.31"/><rect class="cls-14" x="38.64" y="18.67" width="7.37" height="33.44"/><rect class="cls-15" x="35.94" y="24.13" width="12.5" height="2.45"/><rect class="cls-16" x="35.91" y="42.16" width="12.5" height="2.45"/><path class="cls-17" d="M70.74,54l37.34-9.84,20.8-13.3-6-22.73L98.23,6.85,60.89,16.69l-2.31,7a24.27,24.27,0,0,0,7,25.89Z"/><rect class="cls-5" x="42.41" y="52.11" width="102.16" height="5.28"/><path class="cls-18" d="M98.23,6.85S93.51,31,108.08,44.19"/><path class="cls-18" d="M115,7.84s-3.43,17.81,7.15,27.55"/><path class="cls-18" d="M79.86,11.77S75.14,35.91,89.7,49.11"/><path class="cls-18" d="M60.76,16.44S60,41.75,70.61,53.78"/><rect class="cls-19" x="54.65" y="35.47" width="1.85" height="10.9" transform="translate(-9.31 17.4) rotate(-16.44)"/><polygon class="cls-5" points="142.68 16.44 136.1 0 125.28 0 116.59 33.84 116.59 51.86 134.2 51.86 130.03 33.84 142.68 16.44"/><polygon class="cls-13" points="128.88 15.97 125.28 0 149.97 0 128.88 15.97"/><polyline class="cls-20" points="132.48 51.86 132.48 5.21 139.92 5.21 139.92 51.86"/><line class="cls-20" x1="132.48" y1="12.71" x2="139.92" y2="12.71"/><line class="cls-20" x1="132.48" y1="19.45" x2="139.92" y2="19.45"/><line class="cls-20" x1="132.48" y1="26.18" x2="139.92" y2="26.18"/><line class="cls-20" x1="132.48" y1="32.92" x2="139.92" y2="32.92"/><line class="cls-20" x1="132.48" y1="39.66" x2="139.92" y2="39.66"/><line class="cls-20" x1="132.48" y1="46.39" x2="139.92" y2="46.39"/></g></g></g></svg>