<svg xmlns="http://www.w3.org/2000/svg" viewBox="0 0 150.03 59.98"><defs><style>.cls-1{fill:#6d6b6b;}.cls-2{fill:#a0a0a0;}.cls-3{fill:#717070;}.cls-4{fill:#666767;}.cls-5{fill:#dadae0;}.cls-6{fill:#727272;}.cls-7{fill:#949394;}</style></defs><title>Container car (集装箱车）</title><g id="图层_2" data-name="图层 2"><g id="图层_35" data-name="图层 35"><g id="Container_car_集装箱车_" data-name="Container car (集装箱车）"><rect class="cls-1" x="147.58" y="5.53" width="1.95" height="1.95"/><rect class="cls-1" x="147.58" y="10.02" width="1.95" height="1.95"/><rect class="cls-1" x="147.58" y="14.51" width="1.95" height="1.95"/><rect class="cls-1" x="147.58" y="18.99" width="1.95" height="1.95"/><rect class="cls-1" x="147.58" y="23.48" width="1.95" height="1.95"/><rect class="cls-1" x="147.58" y="27.97" width="1.95" height="1.95"/><rect class="cls-1" x="147.58" y="32.46" width="1.95" height="1.95"/><rect class="cls-1" x="147.58" y="36.94" width="1.95" height="1.95"/><rect class="cls-1" x="147.58" y="41.43" width="1.95" height="1.95"/><circle class="cls-2" cx="12.73" cy="52.49" r="7.49"/><circle class="cls-3" cx="12.73" cy="52.49" r="6.49"/><circle class="cls-2" cx="12.73" cy="52.49" r="5.91"/><circle class="cls-3" cx="12.73" cy="52.49" r="2.6"/><circle class="cls-2" cx="12.73" cy="52.49" r="2.22"/><circle class="cls-4" cx="12.73" cy="52.49" r="2.03"/><circle class="cls-2" cx="33.74" cy="52.49" r="7.49"/><circle class="cls-3" cx="33.74" cy="52.49" r="6.49"/><circle class="cls-2" cx="33.74" cy="52.49" r="5.91"/><circle class="cls-3" cx="33.74" cy="52.49" r="2.6"/><circle class="cls-2" cx="33.74" cy="52.49" r="2.22"/><circle class="cls-4" cx="33.74" cy="52.49" r="2.03"/><circle class="cls-2" cx="117.76" cy="52.49" r="7.49"/><circle class="cls-3" cx="117.76" cy="52.49" r="6.49"/><circle class="cls-2" cx="117.76" cy="52.49" r="5.91"/><circle class="cls-3" cx="117.76" cy="52.49" r="2.6"/><circle class="cls-2" cx="117.76" cy="52.49" r="2.22"/><circle class="cls-4" cx="117.76" cy="52.49" r="2.03"/><circle class="cls-2" cx="138.78" cy="52.49" r="7.49"/><circle class="cls-3" cx="138.78" cy="52.49" r="6.49"/><circle class="cls-2" cx="138.78" cy="52.49" r="5.91"/><circle class="cls-3" cx="138.78" cy="52.49" r="2.6"/><circle class="cls-2" cx="138.78" cy="52.49" r="2.22"/><circle class="cls-4" cx="138.78" cy="52.49" r="2.03"/><rect class="cls-5" x="0.03" width="147.41" height="48.57"/><rect class="cls-2" y="3" width="147.11" height="1"/><rect class="cls-2" x="0.03" width="147.55" height="1.47"/><rect class="cls-2" x="0.03" y="47.93" width="147.55" height="1.47"/><rect class="cls-2" y="45" width="147.11" height="1"/><rect class="cls-2" x="58.7" y="4" width="1.41" height="41.26"/><rect class="cls-2" x="61.15" y="4" width="1" height="41.26"/><rect class="cls-2" x="63.2" y="4" width="1" height="41.26"/><rect class="cls-2" x="65.24" y="4" width="1" height="41.26"/><rect class="cls-2" x="67.28" y="4" width="1" height="41.26"/><rect class="cls-2" x="69.32" y="4" width="1" height="41.26"/><rect class="cls-2" x="71.37" y="4" width="1" height="41.26"/><rect class="cls-2" x="73.41" y="4" width="1" height="41.26"/><rect class="cls-2" x="75.45" y="4" width="1" height="41.26"/><rect class="cls-2" x="77.49" y="4" width="1" height="41.26"/><rect class="cls-2" x="79.54" y="4" width="1" height="41.26"/><rect class="cls-2" x="81.58" y="4" width="1" height="41.26"/><rect class="cls-2" x="83.62" y="4" width="1" height="41.26"/><rect class="cls-2" x="85.66" y="4" width="1" height="41.26"/><rect class="cls-2" x="149.03" y="3.24" width="1" height="42.76"/><rect class="cls-2" x="87.61" y="4" width="1.46" height="41.26"/><rect class="cls-2" x="89.46" y="4.53" width="17.51" height="1"/><rect class="cls-2" x="89.46" y="6.22" width="17.51" height="1"/><rect class="cls-2" x="89.46" y="7.91" width="17.51" height="1"/><rect class="cls-2" x="89.46" y="9.61" width="17.51" height="1"/><rect class="cls-2" x="89.46" y="11.3" width="17.51" height="1"/><rect class="cls-2" x="89.46" y="12.99" width="17.51" height="1"/><rect class="cls-2" x="89.46" y="14.68" width="17.51" height="1"/><rect class="cls-2" x="89.46" y="16.37" width="17.51" height="1"/><rect class="cls-2" x="89.46" y="18.06" width="17.51" height="1"/><rect class="cls-2" x="89.46" y="19.76" width="17.51" height="1"/><rect class="cls-2" x="89.46" y="21.45" width="17.51" height="1"/><rect class="cls-2" x="89.46" y="23.14" width="17.51" height="1"/><rect class="cls-2" x="89.46" y="24.83" width="17.51" height="1"/><rect class="cls-2" x="89.46" y="26.52" width="17.51" height="1"/><rect class="cls-2" x="89.46" y="28.21" width="17.51" height="1"/><rect class="cls-2" x="89.46" y="29.9" width="17.51" height="1"/><rect class="cls-2" x="89.46" y="31.6" width="17.51" height="1"/><rect class="cls-2" x="89.46" y="33.29" width="17.51" height="1"/><rect class="cls-2" x="89.46" y="34.98" width="17.51" height="1"/><rect class="cls-2" x="89.46" y="36.67" width="17.51" height="1"/><rect class="cls-2" x="89.46" y="38.36" width="17.51" height="1"/><rect class="cls-2" x="89.46" y="40.05" width="17.51" height="1"/><rect class="cls-2" x="89.46" y="41.74" width="17.51" height="1"/><rect class="cls-2" x="89.46" y="43.44" width="17.51" height="1"/><rect class="cls-2" x="58.87" y="23.79" width="29.95" height="1"/><polygon class="cls-2" points="88.72 4.04 107.44 45.85 108.14 45.15 89.42 3.33 88.72 4.04"/><rect class="cls-2" x="109.02" y="4.53" width="17.51" height="1"/><rect class="cls-2" x="109.02" y="6.22" width="17.51" height="1"/><rect class="cls-2" x="109.02" y="7.91" width="17.51" height="1"/><rect class="cls-2" x="109.02" y="9.61" width="17.51" height="1"/><rect class="cls-2" x="109.02" y="11.3" width="17.51" height="1"/><rect class="cls-2" x="109.02" y="12.99" width="17.51" height="1"/><rect class="cls-2" x="109.02" y="14.68" width="17.51" height="1"/><rect class="cls-2" x="109.02" y="16.37" width="17.51" height="1"/><rect class="cls-2" x="109.02" y="18.06" width="17.51" height="1"/><rect class="cls-2" x="109.02" y="19.76" width="17.51" height="1"/><rect class="cls-2" x="109.02" y="21.45" width="17.51" height="1"/><rect class="cls-2" x="109.02" y="23.14" width="17.51" height="1"/><rect class="cls-2" x="109.02" y="24.83" width="17.51" height="1"/><rect class="cls-2" x="109.02" y="26.52" width="17.51" height="1"/><rect class="cls-2" x="109.02" y="28.21" width="17.51" height="1"/><rect class="cls-2" x="109.02" y="29.9" width="17.51" height="1"/><rect class="cls-2" x="109.02" y="31.6" width="17.51" height="1"/><rect class="cls-2" x="109.02" y="33.29" width="17.51" height="1"/><rect class="cls-2" x="109.02" y="34.98" width="17.51" height="1"/><rect class="cls-2" x="109.02" y="36.67" width="17.51" height="1"/><rect class="cls-2" x="109.02" y="38.36" width="17.51" height="1"/><rect class="cls-2" x="109.02" y="40.05" width="17.51" height="1"/><rect class="cls-2" x="109.02" y="41.74" width="17.51" height="1"/><rect class="cls-2" x="109.02" y="43.44" width="17.51" height="1"/><polygon class="cls-2" points="108.27 4.04 126.99 45.85 127.7 45.15 108.98 3.33 108.27 4.04"/><rect class="cls-2" x="128.45" y="4.44" width="17.51" height="1"/><rect class="cls-2" x="128.45" y="6.13" width="17.51" height="1"/><rect class="cls-2" x="128.45" y="7.82" width="17.51" height="1"/><rect class="cls-2" x="128.45" y="9.51" width="17.51" height="1"/><rect class="cls-2" x="128.45" y="11.2" width="17.51" height="1"/><rect class="cls-2" x="128.45" y="12.9" width="17.51" height="1"/><rect class="cls-2" x="128.45" y="14.59" width="17.51" height="1"/><rect class="cls-2" x="128.45" y="16.28" width="17.51" height="1"/><rect class="cls-2" x="128.45" y="17.97" width="17.51" height="1"/><rect class="cls-2" x="128.45" y="19.66" width="17.51" height="1"/><rect class="cls-2" x="128.45" y="21.35" width="17.51" height="1"/><rect class="cls-2" x="128.45" y="23.04" width="17.51" height="1"/><rect class="cls-2" x="128.45" y="24.74" width="17.51" height="1"/><rect class="cls-2" x="128.45" y="26.43" width="17.51" height="1"/><rect class="cls-2" x="128.45" y="28.12" width="17.51" height="1"/><rect class="cls-2" x="128.45" y="29.81" width="17.51" height="1"/><rect class="cls-2" x="128.45" y="31.5" width="17.51" height="1"/><rect class="cls-2" x="128.45" y="33.19" width="17.51" height="1"/><rect class="cls-2" x="128.45" y="34.88" width="17.51" height="1"/><rect class="cls-2" x="128.45" y="36.58" width="17.51" height="1"/><rect class="cls-2" x="128.45" y="38.27" width="17.51" height="1"/><rect class="cls-2" x="128.45" y="39.96" width="17.51" height="1"/><rect class="cls-2" x="128.45" y="41.65" width="17.51" height="1"/><rect class="cls-2" x="128.45" y="43.34" width="17.51" height="1"/><polygon class="cls-2" points="127.7 3.95 146.73 27.28 147.43 26.57 128.41 3.24 127.7 3.95"/><polygon class="cls-2" points="127.34 45.15 146.38 26.07 147.09 26.78 128.05 45.85 127.34 45.15"/><line class="cls-2" x1="147.43" y1="26.57" x2="128.41" y2="3.24"/><line class="cls-2" x1="147.43" y1="26.57" x2="128.41" y2="3.24"/><rect class="cls-2" x="107.42" y="3.87" width="1" height="41.26" transform="translate(215.84 49) rotate(180)"/><rect class="cls-2" x="127" y="3.87" width="1" height="41.26" transform="translate(255 49) rotate(180)"/><rect class="cls-2" x="40.61" y="4.53" width="17.51" height="1" transform="translate(98.74 10.07) rotate(180)"/><rect class="cls-2" x="40.61" y="6.22" width="17.51" height="1" transform="translate(98.74 13.45) rotate(180)"/><rect class="cls-2" x="40.61" y="7.92" width="17.51" height="1" transform="translate(98.74 16.83) rotate(180)"/><rect class="cls-2" x="40.61" y="9.61" width="17.51" height="1" transform="translate(98.74 20.21) rotate(180)"/><rect class="cls-2" x="40.61" y="11.3" width="17.51" height="1" transform="translate(98.74 23.6) rotate(180)"/><rect class="cls-2" x="40.61" y="12.99" width="17.51" height="1" transform="translate(98.74 26.98) rotate(180)"/><rect class="cls-2" x="40.61" y="14.68" width="17.51" height="1" transform="translate(98.74 30.36) rotate(180)"/><rect class="cls-2" x="40.61" y="16.37" width="17.51" height="1" transform="translate(98.74 33.75) rotate(180)"/><rect class="cls-2" x="40.61" y="18.06" width="17.51" height="1" transform="translate(98.74 37.13) rotate(180)"/><rect class="cls-2" x="40.61" y="19.76" width="17.51" height="1" transform="translate(98.74 40.51) rotate(180)"/><rect class="cls-2" x="40.61" y="21.45" width="17.51" height="1" transform="translate(98.74 43.9) rotate(180)"/><rect class="cls-2" x="40.61" y="23.14" width="17.51" height="1" transform="translate(98.74 47.28) rotate(180)"/><rect class="cls-2" x="40.61" y="24.83" width="17.51" height="1" transform="translate(98.74 50.66) rotate(180)"/><rect class="cls-2" x="40.61" y="26.52" width="17.51" height="1" transform="translate(98.74 54.04) rotate(180)"/><rect class="cls-2" x="40.61" y="28.21" width="17.51" height="1" transform="translate(98.74 57.43) rotate(180)"/><rect class="cls-2" x="40.61" y="29.91" width="17.51" height="1" transform="translate(98.74 60.81) rotate(180)"/><rect class="cls-2" x="40.61" y="31.6" width="17.51" height="1" transform="translate(98.74 64.19) rotate(180)"/><rect class="cls-2" x="40.61" y="33.29" width="17.51" height="1" transform="translate(98.74 67.58) rotate(180)"/><rect class="cls-2" x="40.61" y="34.98" width="17.51" height="1" transform="translate(98.74 70.96) rotate(180)"/><rect class="cls-2" x="40.61" y="36.67" width="17.51" height="1" transform="translate(98.74 74.34) rotate(180)"/><rect class="cls-2" x="40.61" y="38.36" width="17.51" height="1" transform="translate(98.74 77.73) rotate(180)"/><rect class="cls-2" x="40.61" y="40.05" width="17.51" height="1" transform="translate(98.74 81.11) rotate(180)"/><rect class="cls-2" x="40.61" y="41.75" width="17.51" height="1" transform="translate(98.74 84.49) rotate(180)"/><rect class="cls-2" x="40.61" y="43.44" width="17.51" height="1" transform="translate(98.74 87.87) rotate(180)"/><polygon class="cls-2" points="58.87 4.04 40.15 45.85 39.44 45.15 58.16 3.33 58.87 4.04"/><rect class="cls-2" x="21.06" y="4.53" width="17.51" height="1" transform="translate(59.63 10.07) rotate(180)"/><rect class="cls-2" x="21.06" y="6.22" width="17.51" height="1" transform="translate(59.63 13.45) rotate(180)"/><rect class="cls-2" x="21.06" y="7.92" width="17.51" height="1" transform="translate(59.63 16.83) rotate(180)"/><rect class="cls-2" x="21.06" y="9.61" width="17.51" height="1" transform="translate(59.63 20.21) rotate(180)"/><rect class="cls-2" x="21.06" y="11.3" width="17.51" height="1" transform="translate(59.63 23.6) rotate(180)"/><rect class="cls-2" x="21.06" y="12.99" width="17.51" height="1" transform="translate(59.63 26.98) rotate(180)"/><rect class="cls-2" x="21.06" y="14.68" width="17.51" height="1" transform="translate(59.63 30.36) rotate(180)"/><rect class="cls-2" x="21.06" y="16.37" width="17.51" height="1" transform="translate(59.63 33.75) rotate(180)"/><rect class="cls-2" x="21.06" y="18.06" width="17.51" height="1" transform="translate(59.63 37.13) rotate(180)"/><rect class="cls-2" x="21.06" y="19.76" width="17.51" height="1" transform="translate(59.63 40.51) rotate(180)"/><rect class="cls-2" x="21.06" y="21.45" width="17.51" height="1" transform="translate(59.63 43.9) rotate(180)"/><rect class="cls-2" x="21.06" y="23.14" width="17.51" height="1" transform="translate(59.63 47.28) rotate(180)"/><rect class="cls-2" x="21.06" y="24.83" width="17.51" height="1" transform="translate(59.63 50.66) rotate(180)"/><rect class="cls-2" x="21.06" y="26.52" width="17.51" height="1" transform="translate(59.63 54.04) rotate(180)"/><rect class="cls-2" x="21.06" y="28.21" width="17.51" height="1" transform="translate(59.63 57.43) rotate(180)"/><rect class="cls-2" x="21.06" y="29.91" width="17.51" height="1" transform="translate(59.63 60.81) rotate(180)"/><rect class="cls-2" x="21.06" y="31.6" width="17.51" height="1" transform="translate(59.63 64.19) rotate(180)"/><rect class="cls-2" x="21.06" y="33.29" width="17.51" height="1" transform="translate(59.63 67.58) rotate(180)"/><rect class="cls-2" x="21.06" y="34.98" width="17.51" height="1" transform="translate(59.63 70.96) rotate(180)"/><rect class="cls-2" x="21.06" y="36.67" width="17.51" height="1" transform="translate(59.63 74.34) rotate(180)"/><rect class="cls-2" x="21.06" y="38.36" width="17.51" height="1" transform="translate(59.63 77.73) rotate(180)"/><rect class="cls-2" x="21.06" y="40.05" width="17.51" height="1" transform="translate(59.63 81.11) rotate(180)"/><rect class="cls-2" x="21.06" y="41.75" width="17.51" height="1" transform="translate(59.63 84.49) rotate(180)"/><rect class="cls-2" x="21.06" y="43.44" width="17.51" height="1" transform="translate(59.63 87.87) rotate(180)"/><polygon class="cls-2" points="39.32 4.04 20.59 45.85 19.89 45.15 38.61 3.33 39.32 4.04"/><rect class="cls-2" x="1.63" y="4.44" width="17.51" height="1" transform="translate(20.77 9.88) rotate(180)"/><rect class="cls-2" x="1.63" y="6.13" width="17.51" height="1" transform="translate(20.77 13.26) rotate(180)"/><rect class="cls-2" x="1.63" y="7.82" width="17.51" height="1" transform="translate(20.77 16.64) rotate(180)"/><rect class="cls-2" x="1.63" y="9.51" width="17.51" height="1" transform="translate(20.77 20.03) rotate(180)"/><rect class="cls-2" x="1.63" y="11.21" width="17.51" height="1" transform="translate(20.77 23.41) rotate(180)"/><rect class="cls-2" x="1.63" y="12.9" width="17.51" height="1" transform="translate(20.77 26.79) rotate(180)"/><rect class="cls-2" x="1.63" y="14.59" width="17.51" height="1" transform="translate(20.77 30.18) rotate(180)"/><rect class="cls-2" x="1.63" y="16.28" width="17.51" height="1" transform="translate(20.77 33.56) rotate(180)"/><rect class="cls-2" x="1.63" y="17.97" width="17.51" height="1" transform="translate(20.77 36.94) rotate(180)"/><rect class="cls-2" x="1.63" y="19.66" width="17.51" height="1" transform="translate(20.77 40.32) rotate(180)"/><rect class="cls-2" x="1.63" y="21.35" width="17.51" height="1" transform="translate(20.77 43.71) rotate(180)"/><rect class="cls-2" x="1.63" y="23.05" width="17.51" height="1" transform="translate(20.77 47.09) rotate(180)"/><rect class="cls-2" x="1.63" y="24.74" width="17.51" height="1" transform="translate(20.77 50.47) rotate(180)"/><rect class="cls-2" x="1.63" y="26.43" width="17.51" height="1" transform="translate(20.77 53.86) rotate(180)"/><rect class="cls-2" x="1.63" y="28.12" width="17.51" height="1" transform="translate(20.77 57.24) rotate(180)"/><rect class="cls-2" x="1.63" y="29.81" width="17.51" height="1" transform="translate(20.77 60.62) rotate(180)"/><rect class="cls-2" x="1.63" y="31.5" width="17.51" height="1" transform="translate(20.77 64.01) rotate(180)"/><rect class="cls-2" x="1.63" y="33.19" width="17.51" height="1" transform="translate(20.77 67.39) rotate(180)"/><rect class="cls-2" x="1.63" y="34.89" width="17.51" height="1" transform="translate(20.77 70.77) rotate(180)"/><rect class="cls-2" x="1.63" y="36.58" width="17.51" height="1" transform="translate(20.77 74.15) rotate(180)"/><rect class="cls-2" x="1.63" y="38.27" width="17.51" height="1" transform="translate(20.77 77.54) rotate(180)"/><rect class="cls-2" x="1.63" y="39.96" width="17.51" height="1" transform="translate(20.77 80.92) rotate(180)"/><rect class="cls-2" x="1.63" y="41.65" width="17.51" height="1" transform="translate(20.77 84.3) rotate(180)"/><rect class="cls-2" x="1.63" y="43.34" width="17.51" height="1" transform="translate(20.77 87.69) rotate(180)"/><polygon class="cls-2" points="19.89 3.95 0.86 27.28 0.15 26.57 19.18 3.24 19.89 3.95"/><polygon class="cls-2" points="20.24 45.15 1.21 26.07 0.5 26.78 19.53 45.85 20.24 45.15"/><line class="cls-2" x1="0.15" y1="26.57" x2="19.18" y2="3.24"/><line class="cls-2" x1="0.15" y1="26.57" x2="19.18" y2="3.24"/><rect class="cls-2" x="39.17" y="3.87" width="1" height="41.26"/><rect class="cls-2" x="19.59" y="3.87" width="1" height="41.26"/><rect class="cls-2" x="146.58" y="1.18" width="1" height="47.28" transform="translate(294.16 49.64) rotate(180)"/><ellipse class="cls-1" cx="137.62" cy="25.83" rx="0.42" ry="0.94"/><ellipse class="cls-1" cx="145.83" cy="25.93" rx="0.42" ry="0.94"/><ellipse class="cls-1" cx="141.65" cy="25.93" rx="4.18" ry="0.47"/><ellipse class="cls-1" cx="137.62" cy="33.43" rx="0.42" ry="0.94"/><ellipse class="cls-1" cx="145.83" cy="33.53" rx="0.42" ry="0.94"/><ellipse class="cls-1" cx="141.65" cy="33.53" rx="4.18" ry="0.47"/><ellipse class="cls-1" cx="137.62" cy="37.33" rx="0.42" ry="0.94"/><ellipse class="cls-1" cx="145.83" cy="37.43" rx="0.42" ry="0.94"/><ellipse class="cls-1" cx="141.65" cy="37.43" rx="4.18" ry="0.47"/><ellipse class="cls-1" cx="137.64" cy="29.41" rx="0.42" ry="0.94"/><ellipse class="cls-1" cx="145.84" cy="29.52" rx="0.42" ry="0.94"/><ellipse class="cls-1" cx="141.66" cy="29.52" rx="4.18" ry="0.47"/><ellipse class="cls-1" cx="137.64" cy="21.44" rx="0.42" ry="0.94"/><ellipse class="cls-1" cx="145.84" cy="21.54" rx="0.42" ry="0.94"/><ellipse class="cls-1" cx="141.66" cy="21.54" rx="4.18" ry="0.47"/><ellipse class="cls-1" cx="137.64" cy="16.4" rx="0.42" ry="0.94"/><ellipse class="cls-1" cx="145.84" cy="16.5" rx="0.42" ry="0.94"/><ellipse class="cls-1" cx="141.66" cy="16.5" rx="4.18" ry="0.47"/><ellipse class="cls-1" cx="137.64" cy="11.36" rx="0.42" ry="0.94"/><ellipse class="cls-1" cx="145.84" cy="11.46" rx="0.42" ry="0.94"/><ellipse class="cls-1" cx="141.66" cy="11.46" rx="4.18" ry="0.47"/><ellipse class="cls-1" cx="137.64" cy="6.31" rx="0.42" ry="0.94"/><ellipse class="cls-1" cx="145.84" cy="6.42" rx="0.42" ry="0.94"/><ellipse class="cls-1" cx="141.66" cy="6.42" rx="4.18" ry="0.47"/><ellipse class="cls-1" cx="137.62" cy="41.03" rx="0.42" ry="0.94"/><ellipse class="cls-1" cx="145.83" cy="41.13" rx="0.42" ry="0.94"/><ellipse class="cls-1" cx="141.65" cy="41.13" rx="4.18" ry="0.47"/><rect class="cls-2" y="0.48" width="1" height="47.63" transform="translate(1 48.59) rotate(180)"/><rect class="cls-6" x="58.7" y="37.17" width="11.63" height="1.69" rx="0.85"/><rect class="cls-6" x="87.61" y="3.15" width="21.9" height="1.69" rx="0.85"/><rect class="cls-6" x="58.7" y="34.57" width="4.59" height="0.79" rx="0.39"/><rect class="cls-6" x="108.42" y="23.14" width="5.41" height="1.24" rx="0.46"/><rect class="cls-6" x="121.84" y="8.89" width="4.69" height="1.24" rx="0.46"/><rect class="cls-6" x="108.55" y="29.69" width="5.41" height="1.24" rx="0.46"/><rect class="cls-6" x="72.21" y="43.04" width="3.41" height="0.79" rx="0.39"/><circle class="cls-5" cx="60.03" cy="38.02" r="0.47"/><circle class="cls-6" cx="59.17" cy="33.19" r="0.47"/><circle class="cls-5" cx="62.27" cy="38.02" r="0.47"/><circle class="cls-5" cx="64.51" cy="38.02" r="0.47"/><circle class="cls-5" cx="66.75" cy="38.02" r="0.47"/><circle class="cls-5" cx="68.99" cy="38.02" r="0.47"/><rect class="cls-7" x="59" y="33.11" width="0.32" height="3.11" rx="0.16"/><rect class="cls-7" x="108.85" y="22.45" width="0.95" height="9.15" rx="0.48"/><circle class="cls-6" cx="109.33" cy="23.76" r="0.28"/><circle class="cls-2" cx="123.25" cy="9.51" r="0.28"/><circle class="cls-2" cx="125.21" cy="9.51" r="0.28"/><circle class="cls-6" cx="109.33" cy="30.31" r="0.28"/><rect class="cls-6" x="83.62" y="3" width="3.99" height="1.85"/><rect class="cls-6" x="60.11" y="3" width="4.09" height="1.85"/><rect class="cls-6" x="49.37" y="44.58" width="2.23" height="1.85"/><rect class="cls-6" x="97.58" y="44.58" width="2.23" height="1.85"/><rect class="cls-6" x="116.65" y="44.58" width="2.23" height="1.85"/><rect class="cls-6" x="29.29" y="44.58" width="2.23" height="1.85"/><rect class="cls-6" x="9.25" y="44.58" width="2.23" height="1.85"/><rect class="cls-1" x="145.6" y="3.41" width="0.46" height="42.09"/><rect class="cls-1" x="137.39" y="3.41" width="0.46" height="42.09"/><rect class="cls-6" x="137.66" y="44.58" width="2.23" height="1.85"/><ellipse class="cls-1" cx="137.64" cy="45.14" rx="0.42" ry="0.94"/><ellipse class="cls-1" cx="145.84" cy="45.25" rx="0.42" ry="0.94"/><ellipse class="cls-1" cx="141.66" cy="45.25" rx="4.18" ry="0.47"/></g></g></g></svg>