<svg xmlns="http://www.w3.org/2000/svg" xmlns:xlink="http://www.w3.org/1999/xlink" viewBox="0 0 150.01 75.02"><defs><style>.cls-1{fill:#a0a0a0;}.cls-2{fill:#666767;}.cls-3{fill:url(#未命名的渐变_143);}.cls-4{fill:#dadae0;}.cls-10,.cls-11,.cls-5{fill:none;stroke-miterlimit:10;}.cls-5{stroke:#afafaf;}.cls-10,.cls-5{stroke-width:0.5px;}.cls-6{fill:#afafaf;}.cls-7{fill:#bcbcbc;}.cls-8{fill:url(#未命名的渐变_143-2);}.cls-9{fill:url(#未命名的渐变_143-3);}.cls-10,.cls-11{stroke:#a0a0a0;}.cls-11{stroke-width:0.75px;}</style><linearGradient id="未命名的渐变_143" x1="7.53" y1="66.44" x2="16.91" y2="66.44" gradientUnits="userSpaceOnUse"><stop offset="0" stop-color="#b7b7b8"/><stop offset="0.03" stop-color="#9c9e9e"/><stop offset="0.07" stop-color="#888b8b"/><stop offset="0.09" stop-color="#818484"/><stop offset="0.2" stop-color="#a3a5a5"/><stop offset="0.49" stop-color="#f6f6f6"/><stop offset="0.61" stop-color="#f3f3f3"/><stop offset="0.7" stop-color="#eaeaea"/><stop offset="0.77" stop-color="#dbdbdb"/><stop offset="0.83" stop-color="#c5c6c6"/><stop offset="0.9" stop-color="#aaa"/><stop offset="0.95" stop-color="#888989"/><stop offset="1" stop-color="#666767"/></linearGradient><linearGradient id="未命名的渐变_143-2" x1="99.18" y1="66.44" x2="108.56" y2="66.44" xlink:href="#未命名的渐变_143"/><linearGradient id="未命名的渐变_143-3" x1="118.45" y1="66.44" x2="127.84" y2="66.44" xlink:href="#未命名的渐变_143"/></defs><title>Dump truck (自卸汽车）</title><g id="图层_2" data-name="图层 2"><g id="图层_35" data-name="图层 35"><g id="Dump_truck_自卸汽车_" data-name="Dump truck (自卸汽车）"><circle class="cls-1" cx="12.22" cy="66.44" r="8.58"/><circle class="cls-2" cx="12.22" cy="66.44" r="7.58"/><circle class="cls-3" cx="12.22" cy="66.44" r="4.69"/><circle class="cls-1" cx="12.22" cy="66.44" r="1.96"/><path class="cls-4" d="M30.1,30.27l-7,12.3v0L6.72,46.09a6.68,6.68,0,0,0-5.16,5.23L0,59v6.06H2.49a9.83,9.83,0,0,1,19.46,0H48.54V30.27Z"/><path class="cls-1" d="M31.57,45H26.33A1.54,1.54,0,0,1,25,42.69L30.92,32a1.52,1.52,0,0,1,1.34-.79h2a1.54,1.54,0,0,1,1.49,1.92L33.06,43.81A1.53,1.53,0,0,1,31.57,45Z"/><path class="cls-1" d="M43.65,45H36.13a1.71,1.71,0,0,1-1.65-2.1l2.28-10.32a1.7,1.7,0,0,1,1.65-1.35h5.24a1.7,1.7,0,0,1,1.69,1.72V43.25A1.7,1.7,0,0,1,43.65,45Z"/><line class="cls-5" x1="46.2" y1="30.27" x2="46.2" y2="65.05"/><rect class="cls-5" x="23.12" y="58.85" width="23.08" height="1.02"/><rect class="cls-5" x="23.12" y="63.45" width="23.08" height="1.02"/><rect class="cls-6" x="23.12" y="60.42" width="23.08" height="2.65"/><circle class="cls-6" cx="44.11" cy="46.92" r="0.97"/><circle class="cls-6" cx="44.11" cy="57.57" r="0.97"/><rect class="cls-7" x="43.51" y="46.4" width="1.19" height="11.58" rx="0.57"/><polygon class="cls-4" points="23.12 69.63 22.53 69.63 20.8 56.08 23.12 55.77 23.12 69.63"/><line class="cls-5" x1="23.12" y1="42.55" x2="23.12" y2="65.05"/><rect class="cls-1" x="1.04" y="58.8" width="2.21" height="3.93"/><rect class="cls-1" x="23.38" y="46.62" width="4.09" height="1.76"/><circle class="cls-1" cx="103.87" cy="66.44" r="8.58"/><circle class="cls-2" cx="103.87" cy="66.44" r="7.58"/><circle class="cls-8" cx="103.87" cy="66.44" r="4.69"/><circle class="cls-1" cx="103.87" cy="66.44" r="1.96"/><circle class="cls-1" cx="123.14" cy="66.44" r="8.58"/><circle class="cls-2" cx="123.14" cy="66.44" r="7.58"/><circle class="cls-9" cx="123.14" cy="66.44" r="4.69"/><circle class="cls-1" cx="123.14" cy="66.44" r="1.96"/><line class="cls-10" x1="48.54" y1="30.27" x2="48.54" y2="57.57"/><rect class="cls-1" x="48.54" y="57.57" width="101.35" height="4.18"/><polygon class="cls-1" points="57.91 57.83 55.47 57.83 64.85 30.01 67.28 30.01 57.91 57.83"/><rect class="cls-4" x="57.93" y="14.27" width="89.53" height="30.65" transform="translate(16.13 -33.08) rotate(19.83)"/><rect class="cls-11" x="60.62" y="16.82" width="84.75" height="25.78" transform="translate(16.18 -33.17) rotate(19.83)"/><line class="cls-10" x1="72.02" y1="4.84" x2="63.27" y2="29.09"/><line class="cls-10" x1="76.45" y1="6.44" x2="67.71" y2="30.69"/><line class="cls-10" x1="80.88" y1="8.03" x2="72.14" y2="32.29"/><line class="cls-10" x1="85.31" y1="9.63" x2="76.57" y2="33.89"/><line class="cls-10" x1="89.75" y1="11.23" x2="81" y2="35.48"/><line class="cls-10" x1="94.18" y1="12.83" x2="85.43" y2="37.08"/><line class="cls-10" x1="98.61" y1="14.43" x2="89.87" y2="38.68"/><line class="cls-10" x1="103.04" y1="16.02" x2="94.3" y2="40.28"/><line class="cls-10" x1="107.47" y1="17.62" x2="98.73" y2="41.87"/><line class="cls-10" x1="111.91" y1="19.22" x2="103.16" y2="43.47"/><line class="cls-10" x1="116.34" y1="20.82" x2="107.59" y2="45.07"/><line class="cls-10" x1="120.77" y1="22.42" x2="112.03" y2="46.67"/><line class="cls-10" x1="125.2" y1="24.01" x2="116.46" y2="48.27"/><line class="cls-10" x1="129.63" y1="25.61" x2="120.89" y2="49.86"/><line class="cls-10" x1="134.07" y1="27.21" x2="125.32" y2="51.46"/><line class="cls-10" x1="138.5" y1="28.81" x2="129.75" y2="53.06"/><line class="cls-10" x1="142.93" y1="30.41" x2="134.19" y2="54.66"/></g></g></g></svg>