<svg xmlns="http://www.w3.org/2000/svg" xmlns:xlink="http://www.w3.org/1999/xlink" viewBox="0 0 55.56 150"><defs><style>.cls-1{fill:url(#未命名的渐变_10);}.cls-2{fill:none;stroke-miterlimit:10;stroke:url(#未命名的渐变_105);}.cls-3{fill:url(#未命名的渐变_74);}.cls-4{fill:url(#未命名的渐变_74-2);}.cls-5{fill:url(#未命名的渐变_105-2);}.cls-6{fill:url(#未命名的渐变_105-3);}.cls-7{fill:url(#未命名的渐变_105-4);}.cls-8{fill:url(#未命名的渐变_10-2);}.cls-9{fill:url(#未命名的渐变_10-3);}</style><linearGradient id="未命名的渐变_10" x1="-50.22" y1="14.43" x2="115.49" y2="5.11" gradientUnits="userSpaceOnUse"><stop offset="0.33" stop-color="#e3e2e2"/><stop offset="0.35" stop-color="#d0d0d0"/><stop offset="0.37" stop-color="#bcbcbc"/><stop offset="0.39" stop-color="#b5b5b5"/><stop offset="0.49" stop-color="#f6f6f6"/><stop offset="0.52" stop-color="#f3f3f3"/><stop offset="0.54" stop-color="#eaeaea"/><stop offset="0.55" stop-color="#dbdbdb"/><stop offset="0.57" stop-color="#c6c6c6"/><stop offset="0.59" stop-color="#aaa"/><stop offset="0.59" stop-color="#9b9b9b"/></linearGradient><linearGradient id="未命名的渐变_105" x1="5.34" y1="12.16" x2="50.22" y2="12.16" gradientUnits="userSpaceOnUse"><stop offset="0" stop-color="#e3e2e2"/><stop offset="0.03" stop-color="#d0d0d0"/><stop offset="0.06" stop-color="#bcbcbc"/><stop offset="0.09" stop-color="#b5b5b5"/><stop offset="0.49" stop-color="#f6f6f6"/><stop offset="0.63" stop-color="#f3f3f3"/><stop offset="0.73" stop-color="#eaeaea"/><stop offset="0.82" stop-color="#dbdbdb"/><stop offset="0.9" stop-color="#c6c6c6"/><stop offset="0.97" stop-color="#aaa"/><stop offset="1" stop-color="#9b9b9b"/></linearGradient><linearGradient id="未命名的渐变_74" x1="10.17" y1="7.55" x2="45.39" y2="7.55" gradientUnits="userSpaceOnUse"><stop offset="0" stop-color="#6b6c6b"/><stop offset="0.01" stop-color="#767776"/><stop offset="0.03" stop-color="#959595"/><stop offset="0.04" stop-color="#ababab"/><stop offset="0.37" stop-color="#ccc"/><stop offset="0.73" stop-color="#eaeaea"/><stop offset="0.94" stop-color="#f6f6f6"/><stop offset="0.95" stop-color="#ededed"/><stop offset="0.96" stop-color="#d4d4d4"/><stop offset="0.97" stop-color="#ababab"/><stop offset="0.99" stop-color="#737474"/><stop offset="0.99" stop-color="#666767"/></linearGradient><linearGradient id="未命名的渐变_74-2" x1="0" y1="21.59" x2="55.56" y2="21.59" xlink:href="#未命名的渐变_74"/><linearGradient id="未命名的渐变_105-2" x1="5.84" y1="34.56" x2="49.72" y2="34.56" xlink:href="#未命名的渐变_105"/><linearGradient id="未命名的渐变_105-3" x1="8.58" y1="95.52" x2="46.98" y2="95.52" xlink:href="#未命名的渐变_105"/><linearGradient id="未命名的渐变_105-4" x1="26.79" y1="95.52" x2="28.77" y2="95.52" xlink:href="#未命名的渐变_105"/><linearGradient id="未命名的渐变_10-2" x1="13.14" y1="95.62" x2="23.07" y2="95.06" xlink:href="#未命名的渐变_10"/><linearGradient id="未命名的渐变_10-3" x1="-14.88" y1="95.62" x2="-4.95" y2="95.06" gradientTransform="matrix(-1, 0, 0, 1, 27.64, 0)" xlink:href="#未命名的渐变_10"/></defs><title>Filtrate machine(滤水机)</title><g id="图层_2" data-name="图层 2"><g id="图层_35" data-name="图层 35"><g id="Filtrate_machine_滤水机_" data-name="Filtrate machine(滤水机)"><rect class="cls-1" x="6.33" y="7.92" width="43.04" height="4.23"/><rect class="cls-2" x="5.84" y="7.92" width="43.89" height="8.47"/><rect class="cls-3" x="10.17" width="35.22" height="15.1"/><rect class="cls-4" y="15.1" width="55.56" height="12.98"/><path class="cls-5" d="M5.84,28.08H49.72a0,0,0,0,1,0,0V37.2A3.83,3.83,0,0,1,45.89,41H9.67A3.83,3.83,0,0,1,5.84,37.2V28.08A0,0,0,0,1,5.84,28.08Z"/><path class="cls-6" d="M30.94,150H24.62a9.51,9.51,0,0,1-9.49-8.89L8.58,41H47L40.43,141.11A9.51,9.51,0,0,1,30.94,150Z"/><rect class="cls-7" x="26.79" y="41.03" width="1.97" height="108.97"/><polygon class="cls-8" points="22.17 149.68 20.04 148.88 13.46 41.03 15.54 41.03 22.17 149.68"/><polygon class="cls-9" points="33.49 149.68 35.62 148.88 42.2 41.03 40.12 41.03 33.49 149.68"/></g></g></g></svg>