<svg xmlns="http://www.w3.org/2000/svg" xmlns:xlink="http://www.w3.org/1999/xlink" viewBox="0 0 24.62 150"><defs><style>.cls-1{fill:url(#未命名的渐变_143);}.cls-2{fill:url(#未命名的渐变_143-2);}.cls-3{fill:url(#未命名的渐变_143-3);}.cls-4{fill:url(#未命名的渐变_143-4);}.cls-5{fill:url(#未命名的渐变_143-5);}.cls-6{fill:url(#未命名的渐变_143-6);}.cls-7{fill:url(#未命名的渐变_143-7);}.cls-8{fill:url(#未命名的渐变_143-8);}.cls-9{fill:url(#未命名的渐变_143-9);}.cls-10{fill:url(#未命名的渐变_143-10);}.cls-11{fill:url(#未命名的渐变_143-11);}.cls-12{fill:url(#未命名的渐变_143-12);}.cls-13{fill:url(#未命名的渐变_143-13);}.cls-14{fill:url(#未命名的渐变_143-14);}.cls-15{fill:url(#未命名的渐变_143-15);}.cls-16{fill:url(#未命名的渐变_143-16);}.cls-17{fill:#5d5e5e;}.cls-18{fill:url(#未命名的渐变_74);}.cls-19{fill:url(#未命名的渐变_74-2);}.cls-20{fill:url(#未命名的渐变_74-3);}.cls-21{fill:url(#未命名的渐变_74-4);}.cls-22{fill:url(#未命名的渐变_74-5);}.cls-23{fill:url(#未命名的渐变_74-6);}.cls-24{fill:url(#未命名的渐变_143-17);}.cls-25{fill:url(#未命名的渐变_74-7);}.cls-26{fill:url(#未命名的渐变_74-8);}.cls-27{fill:url(#未命名的渐变_74-9);}.cls-28{fill:url(#未命名的渐变_74-10);}.cls-29{fill:url(#未命名的渐变_74-11);}.cls-30{fill:url(#未命名的渐变_74-12);}.cls-31{fill:url(#未命名的渐变_143-18);}.cls-32{fill:url(#未命名的渐变_143-19);}</style><linearGradient id="未命名的渐变_143" x1="1.68" y1="27.6" x2="23.1" y2="27.6" gradientUnits="userSpaceOnUse"><stop offset="0" stop-color="#b7b7b8"/><stop offset="0.03" stop-color="#9c9e9e"/><stop offset="0.07" stop-color="#888b8b"/><stop offset="0.09" stop-color="#818484"/><stop offset="0.2" stop-color="#a3a5a5"/><stop offset="0.49" stop-color="#f6f6f6"/><stop offset="0.61" stop-color="#f3f3f3"/><stop offset="0.7" stop-color="#eaeaea"/><stop offset="0.77" stop-color="#dbdbdb"/><stop offset="0.83" stop-color="#c5c6c6"/><stop offset="0.9" stop-color="#aaa"/><stop offset="0.95" stop-color="#888989"/><stop offset="1" stop-color="#666767"/></linearGradient><linearGradient id="未命名的渐变_143-2" x1="8.69" y1="4.07" x2="15.11" y2="4.07" xlink:href="#未命名的渐变_143"/><linearGradient id="未命名的渐变_143-3" x1="6.32" y1="3.67" x2="17.47" y2="3.67" xlink:href="#未命名的渐变_143"/><linearGradient id="未命名的渐变_143-4" x1="1.28" y1="15.21" x2="23.1" y2="15.21" xlink:href="#未命名的渐变_143"/><linearGradient id="未命名的渐变_143-5" x1="3.2" y1="15.22" x2="4.84" y2="15.22" xlink:href="#未命名的渐变_143"/><linearGradient id="未命名的渐变_143-6" x1="7.05" y1="15.21" x2="8.69" y2="15.21" xlink:href="#未命名的渐变_143"/><linearGradient id="未命名的渐变_143-7" x1="10.9" y1="15.19" x2="12.54" y2="15.19" xlink:href="#未命名的渐变_143"/><linearGradient id="未命名的渐变_143-8" x1="14.75" y1="15.18" x2="16.39" y2="15.18" xlink:href="#未命名的渐变_143"/><linearGradient id="未命名的渐变_143-9" x1="18.6" y1="15.17" x2="20.24" y2="15.17" xlink:href="#未命名的渐变_143"/><linearGradient id="未命名的渐变_143-10" x1="1.4" y1="142.93" x2="23.22" y2="142.93" xlink:href="#未命名的渐变_143"/><linearGradient id="未命名的渐变_143-11" x1="3.32" y1="142.95" x2="4.95" y2="142.95" xlink:href="#未命名的渐变_143"/><linearGradient id="未命名的渐变_143-12" x1="7.17" y1="142.93" x2="8.8" y2="142.93" xlink:href="#未命名的渐变_143"/><linearGradient id="未命名的渐变_143-13" x1="11.02" y1="142.92" x2="12.65" y2="142.92" xlink:href="#未命名的渐变_143"/><linearGradient id="未命名的渐变_143-14" x1="14.87" y1="142.91" x2="16.5" y2="142.91" xlink:href="#未命名的渐变_143"/><linearGradient id="未命名的渐变_143-15" x1="18.72" y1="142.89" x2="20.35" y2="142.89" xlink:href="#未命名的渐变_143"/><linearGradient id="未命名的渐变_143-16" x1="0" y1="21.07" x2="24.62" y2="21.07" xlink:href="#未命名的渐变_143"/><linearGradient id="未命名的渐变_74" x1="3.29" y1="27.89" x2="5.19" y2="27.89" gradientUnits="userSpaceOnUse"><stop offset="0" stop-color="#6b6c6b"/><stop offset="0.01" stop-color="#767776"/><stop offset="0.03" stop-color="#959595"/><stop offset="0.04" stop-color="#ababab"/><stop offset="0.37" stop-color="#ccc"/><stop offset="0.73" stop-color="#eaeaea"/><stop offset="0.94" stop-color="#f6f6f6"/><stop offset="0.95" stop-color="#ededed"/><stop offset="0.96" stop-color="#d4d4d4"/><stop offset="0.97" stop-color="#ababab"/><stop offset="0.99" stop-color="#737474"/><stop offset="0.99" stop-color="#666767"/></linearGradient><linearGradient id="未命名的渐变_74-2" x1="6.55" y1="27.89" x2="8.45" y2="27.89" xlink:href="#未命名的渐变_74"/><linearGradient id="未命名的渐变_74-3" x1="9.81" y1="27.89" x2="11.71" y2="27.89" xlink:href="#未命名的渐变_74"/><linearGradient id="未命名的渐变_74-4" x1="13.07" y1="27.89" x2="14.97" y2="27.89" xlink:href="#未命名的渐变_74"/><linearGradient id="未命名的渐变_74-5" x1="16.33" y1="27.89" x2="18.23" y2="27.89" xlink:href="#未命名的渐变_74"/><linearGradient id="未命名的渐变_74-6" x1="19.6" y1="27.89" x2="21.5" y2="27.89" xlink:href="#未命名的渐变_74"/><linearGradient id="未命名的渐变_143-17" x1="1.6" y1="127.07" x2="23.02" y2="127.07" xlink:href="#未命名的渐变_143"/><linearGradient id="未命名的渐变_74-7" x1="3.2" y1="127.37" x2="5.1" y2="127.37" xlink:href="#未命名的渐变_74"/><linearGradient id="未命名的渐变_74-8" x1="6.46" y1="127.37" x2="8.37" y2="127.37" xlink:href="#未命名的渐变_74"/><linearGradient id="未命名的渐变_74-9" x1="9.73" y1="127.37" x2="11.63" y2="127.37" xlink:href="#未命名的渐变_74"/><linearGradient id="未命名的渐变_74-10" x1="12.99" y1="127.37" x2="14.89" y2="127.37" xlink:href="#未命名的渐变_74"/><linearGradient id="未命名的渐变_74-11" x1="16.25" y1="127.37" x2="18.15" y2="127.37" xlink:href="#未命名的渐变_74"/><linearGradient id="未命名的渐变_74-12" x1="19.51" y1="127.37" x2="21.41" y2="127.37" xlink:href="#未命名的渐变_74"/><linearGradient id="未命名的渐变_143-18" x1="3.33" y1="77.33" x2="21.29" y2="77.33" xlink:href="#未命名的渐变_143"/><linearGradient id="未命名的渐变_143-19" x1="0" y1="133.5" x2="24.62" y2="133.5" xlink:href="#未命名的渐变_143"/></defs><title>Membrane module (膜组件)</title><g id="图层_2" data-name="图层 2"><g id="图层_35" data-name="图层 35"><g id="Membrane_module_膜组件_" data-name="Membrane module (膜组件)"><rect class="cls-1" x="1.68" y="22.52" width="21.42" height="10.16" rx="2.23"/><rect class="cls-2" x="8.69" width="6.42" height="8.14"/><rect class="cls-3" x="6.32" y="1.7" width="11.16" height="3.96"/><rect class="cls-4" x="1.28" y="8.14" width="21.82" height="14.13" rx="2.81"/><rect class="cls-5" x="3.2" y="8.17" width="1.64" height="14.11"/><rect class="cls-6" x="7.05" y="8.15" width="1.64" height="14.11"/><rect class="cls-7" x="10.9" y="8.14" width="1.64" height="14.11"/><rect class="cls-8" x="14.75" y="8.13" width="1.64" height="14.11"/><rect class="cls-9" x="18.6" y="8.11" width="1.64" height="14.11"/><rect class="cls-10" x="1.4" y="135.87" width="21.82" height="14.13" rx="2.81"/><rect class="cls-11" x="3.32" y="135.89" width="1.64" height="14.11"/><rect class="cls-12" x="7.17" y="135.88" width="1.64" height="14.11"/><rect class="cls-13" x="11.02" y="135.87" width="1.64" height="14.11"/><rect class="cls-14" x="14.87" y="135.85" width="1.64" height="14.11"/><rect class="cls-15" x="18.72" y="135.84" width="1.64" height="14.11"/><rect class="cls-16" y="18.73" width="24.62" height="4.67" rx="1.62"/><rect class="cls-17" x="3.46" y="20.58" width="3.26" height="1.47"/><rect class="cls-17" x="10.68" y="20.58" width="3.26" height="1.47"/><rect class="cls-17" x="17.9" y="20.58" width="3.26" height="1.47"/><rect class="cls-18" x="3.29" y="24.1" width="1.9" height="7.59"/><rect class="cls-19" x="6.55" y="24.1" width="1.9" height="7.59"/><rect class="cls-20" x="9.81" y="24.1" width="1.9" height="7.59"/><rect class="cls-21" x="13.07" y="24.1" width="1.9" height="7.59"/><rect class="cls-22" x="16.33" y="24.1" width="1.9" height="7.59"/><rect class="cls-23" x="19.6" y="24.1" width="1.9" height="7.59"/><rect class="cls-24" x="1.6" y="121.99" width="21.42" height="10.16" rx="2.23"/><rect class="cls-25" x="3.2" y="123.57" width="1.9" height="7.59"/><rect class="cls-26" x="6.46" y="123.57" width="1.9" height="7.59"/><rect class="cls-27" x="9.73" y="123.57" width="1.9" height="7.59"/><rect class="cls-28" x="12.99" y="123.57" width="1.9" height="7.59"/><rect class="cls-29" x="16.25" y="123.57" width="1.9" height="7.59"/><rect class="cls-30" x="19.51" y="123.57" width="1.9" height="7.59"/><rect class="cls-31" x="3.33" y="32.67" width="17.96" height="89.32"/><rect class="cls-32" y="131.17" width="24.62" height="4.67" rx="1.62"/><rect class="cls-17" x="3.46" y="133.01" width="3.26" height="1.47"/><rect class="cls-17" x="10.68" y="133.01" width="3.26" height="1.47"/><rect class="cls-17" x="17.9" y="133.01" width="3.26" height="1.47"/></g></g></g></svg>