<svg width="34" height="165" viewBox="0 0 34 165" fill="none" xmlns="http://www.w3.org/2000/svg">
<path d="M23.7694 22.292L20.9974 26.324H9.36941L8.46941 25.496L7.31741 26.324H0.477406L5.40941 22.724L2.70941 20.24L3.17741 16.82H1.84541L2.31341 13.4H3.64541L3.82541 12.248H8.61341L8.43341 13.4H11.8534L12.0334 12.248H16.8214L16.6414 13.4H18.0454L17.5774 16.82H16.1734L15.7054 20.24L12.2854 22.724L15.7774 25.964L21.4654 17.684L18.3334 11.348H23.8054L24.6694 13.076L25.8574 11.348V11.312L26.5054 6.56H25.2094L23.9854 9.98H18.5134L21.6094 1.232L20.9254 0.403999H27.4054L26.4334 3.14H33.4894L33.0214 6.56H31.9774L31.3294 11.312L26.9374 17.684L31.2574 26.324H25.7854L23.7694 22.292ZM5.12141 7.928H3.06941L3.57341 4.508H9.04541L9.44141 1.736L8.82941 0.403999H14.4094L13.8334 4.508H19.3054L18.8014 7.928H16.5694L18.2254 12.032H14.1214L13.1134 9.548L12.7534 12.032H7.96541L8.36141 9.296L6.59741 12.032H2.49341L5.12141 7.928ZM15.6694 1.088H19.7734L18.6934 3.824H14.5894L15.6694 1.088ZM8.43341 3.824H4.32941L4.04141 1.088H8.14541L8.43341 3.824ZM11.1694 18.548L11.3854 16.82H7.96541L7.74941 18.548L9.26141 19.952L11.1694 18.548ZM13.1854 61.884L13.4014 60.48L21.3574 58.032H5.51741L6.02141 54.54H29.9614L29.3854 58.716L20.0254 61.884H31.6534L31.1854 65.376H19.5214L18.9094 69.876C18.8134 70.572 18.4894 71.16 17.9374 71.64C17.4094 72.096 16.7974 72.324 16.1014 72.324H9.00941L12.2134 68.94L12.7174 65.376H1.08941L1.55741 61.884H13.1854ZM24.8494 51.876H11.1694L10.9174 53.82H3.39341L4.14941 48.456H15.0574L15.1654 47.736L14.0494 46.404H22.7614L22.4374 48.456H32.8774L32.1214 53.82H24.5974L24.8494 51.876ZM5.94941 108.244L11.9614 103.744H6.12941L6.56141 100.792L14.9854 92.404H21.9694L13.7974 100.576H16.1014L20.7094 96.148H28.3414L16.3894 107.272H22.1494L25.1734 100.972H31.8334L24.6694 117.784H2.16941L2.67341 114.22H18.8374L20.5294 110.656H5.62541L5.94941 108.244ZM19.9534 164.324L23.2294 161.012L25.2814 146.432H17.4334L17.9374 143.048H25.7854L26.2894 139.412L25.3174 138.404H32.3014L31.6534 143.048H33.4174L32.9134 146.432H31.1494L28.9894 161.948C28.8934 162.62 28.5694 163.184 28.0174 163.64C27.4894 164.096 26.8774 164.324 26.1814 164.324H19.9534ZM6.66941 146.216H2.99741L3.46541 142.94H7.13741L7.64141 139.484L6.77741 138.44H13.6534L13.0054 142.94H16.7854L16.3174 146.216H12.5374L9.98141 164.36H4.11341L6.66941 146.216ZM0.585406 163.316L3.53741 147.296H6.02141L3.10541 163.316H0.585406ZM21.3574 157.556H17.2174L17.1094 148.484H21.2494L21.3574 157.556ZM11.4574 160.94L12.7174 147.296H15.2014L13.9774 160.94H11.4574Z" fill="white"/>
</svg>
