<svg width="34" height="164" viewBox="0 0 34 164" fill="none" xmlns="http://www.w3.org/2000/svg">
<path d="M3.71741 14.156H29.2414L27.5854 25.892H2.06141L3.71741 14.156ZM9.33341 1.736H18.9094L18.3694 5.408H13.6174L13.5094 6.128H18.3334L17.8654 9.512H15.4894L17.7574 13.4H11.6014L10.0894 10.844L7.92941 13.436H1.34141L5.15741 9.512H1.44941L1.91741 6.128H7.82141L7.92941 5.408H6.88541L6.77741 5.588H1.91741L4.97741 0.907999L4.04141 0.403999H10.2334L9.33341 1.736ZM19.6654 1.34H32.6254L30.9334 13.292H17.9734L19.6654 1.34ZM9.36941 18.692H22.5814L22.7974 17.252H9.58541L9.36941 18.692ZM22.0054 22.76L22.1854 21.464H8.97341L8.79341 22.76H22.0054ZM26.3614 9.944L27.0454 4.868H24.5614L23.8774 9.944H26.3614ZM24.5974 59.652L24.7414 58.752H4.29341L4.61741 56.484H31.5094L30.2854 65.16H3.21341L3.53741 62.784H24.1654L24.3094 61.776H4.43741L4.72541 59.652H24.5974ZM9.04541 47.52V47.484L7.85741 46.224H15.1654L14.9854 47.52H18.4774L18.1534 49.644H14.6614L14.5534 50.4H18.0454L17.7934 52.38H14.3014L14.1934 53.136H17.6854L17.3614 55.26H13.9054L13.7974 55.98H7.85741L7.96541 55.26H4.04141L4.36541 53.136H8.25341L8.36141 52.38H4.47341L4.72541 50.4H8.61341L8.72141 49.644H4.83341L5.15741 47.52H9.04541ZM23.7694 47.52V47.484L22.5454 46.224H29.8894L29.7094 47.52H33.1654L32.8414 49.644H29.3854L29.2774 50.4H32.7334L32.4814 52.38H29.0254L28.9174 53.136H32.3734L32.0494 55.26H28.6294L28.5214 55.98H22.5814L22.6894 55.26H18.7654L19.0894 53.136H22.9774L23.0854 52.38H19.1974L19.4494 50.4H23.3374L23.4454 49.644H19.5574L19.8814 47.52H23.7694ZM8.32541 71.712L9.11741 66.06H15.2734L14.8774 69.084H22.6894L24.1654 68.184L23.6614 71.712H8.32541ZM24.7414 66.24H30.3214L30.7894 71.676H25.2094L24.7414 66.24ZM6.27341 71.676H0.801406L2.88941 66.492H8.36141L6.27341 71.676ZM16.4974 65.916H22.2574L22.5094 68.364H16.7494L16.4974 65.916ZM28.9534 117.712H1.59341L4.86941 94.42L3.71741 93.088H32.4094L28.9534 117.712ZM23.9494 114.292L26.4694 96.508H10.0534L7.53341 114.292H23.9494ZM17.4694 113.428C17.0614 113.428 16.7374 113.224 16.4974 112.816C16.2814 112.384 16.2334 111.772 16.3534 110.98L17.1094 105.544H16.1374L13.4734 113.428H8.57741L11.3494 105.544H9.33341L9.83741 101.944H24.9934L24.4894 105.544H21.8254L21.1414 110.368H22.7974L23.8774 109.504L23.3374 113.428H17.4694ZM24.9214 97.192L24.3814 100.792H10.7734L11.3134 97.192H24.9214ZM2.38541 163.676L5.62541 140.6L4.18541 139.052H31.6174L31.1494 142.328H11.5654L9.04541 160.364H29.7094L29.2414 163.676H2.38541ZM20.7814 147.188L23.9854 143.84H29.9254L23.4454 150.572L23.3374 150.608L28.7374 158.888H22.7974L20.0614 154.244L16.8214 158.888H10.8454L17.3614 150.86L17.2174 150.788L12.8974 143.732H18.8374L20.7814 147.188Z" fill="white"/>
</svg>
