<svg xmlns="http://www.w3.org/2000/svg" xmlns:xlink="http://www.w3.org/1999/xlink" viewBox="0 0 27.3 150"><defs><style>.cls-1{fill:url(#未命名的渐变_144);}.cls-2{fill:url(#未命名的渐变_144-2);}.cls-3{fill:url(#未命名的渐变_144-3);}.cls-13,.cls-4{opacity:0.6;}.cls-4{fill:url(#未命名的渐变_376);}.cls-5{opacity:0.1;}.cls-6{opacity:0.4;}.cls-7{fill:url(#未命名的渐变_19);}.cls-8{fill:url(#未命名的渐变_19-2);}.cls-9{fill:none;stroke:#000;stroke-width:0.14px;opacity:0.3;}.cls-14,.cls-15,.cls-16,.cls-17,.cls-18,.cls-19,.cls-20,.cls-21,.cls-22,.cls-9{stroke-miterlimit:10;}.cls-10{fill:#17181a;}.cls-11{fill:#d1d6d8;}.cls-12{fill:url(#未命名的渐变_8);}.cls-13{fill:url(#未命名的渐变_151);}.cls-14{stroke-width:0.28px;fill:url(#未命名的渐变_81);stroke:url(#未命名的渐变_124);}.cls-15,.cls-16,.cls-17,.cls-18,.cls-19,.cls-20,.cls-21,.cls-22{stroke:#747a80;stroke-width:0.11px;}.cls-15{fill:url(#未命名的渐变_204);}.cls-16{fill:url(#未命名的渐变_204-2);}.cls-17{fill:url(#未命名的渐变_204-3);}.cls-18{fill:url(#未命名的渐变_204-4);}.cls-19{fill:url(#未命名的渐变_204-5);}.cls-20{fill:url(#未命名的渐变_204-6);}.cls-21{fill:url(#未命名的渐变_204-7);}.cls-22{fill:url(#未命名的渐变_204-8);}.cls-23{fill:url(#未命名的渐变_152);}</style><linearGradient id="未命名的渐变_144" x1="98.92" y1="165.24" x2="76.45" y2="165.24" gradientTransform="translate(-74 -76)" gradientUnits="userSpaceOnUse"><stop offset="0" stop-color="#767b82"/><stop offset="0.07" stop-color="#9ba1ab"/><stop offset="0.18" stop-color="#e2eaf2"/><stop offset="0.25" stop-color="#d1d8e0"/><stop offset="0.47" stop-color="#a1a7ae"/><stop offset="0.66" stop-color="#7e8489"/><stop offset="0.81" stop-color="#696e73"/><stop offset="0.91" stop-color="#61666b"/><stop offset="1" stop-color="#a9b1bb"/></linearGradient><linearGradient id="未命名的渐变_144-2" x1="94.22" y1="90.75" x2="81.14" y2="90.75" xlink:href="#未命名的渐变_144"/><linearGradient id="未命名的渐变_144-3" x1="101.3" y1="132.43" x2="74" y2="132.43" xlink:href="#未命名的渐变_144"/><linearGradient id="未命名的渐变_376" x1="13.65" y1="58.15" x2="13.65" y2="65.97" gradientUnits="userSpaceOnUse"><stop offset="0" stop-color="#2e3033"/><stop offset="1" stop-color="#9ba1ab" stop-opacity="0"/></linearGradient><linearGradient id="未命名的渐变_19" x1="309.12" y1="-445.25" x2="309.12" y2="-460.9" gradientTransform="translate(-295.41 453.58)" gradientUnits="userSpaceOnUse"><stop offset="0" stop-color="#767b82"/><stop offset="0.07" stop-color="#9ba1ab"/><stop offset="0.25" stop-color="#e2eaf2"/><stop offset="0.31" stop-color="#d1d8e0"/><stop offset="0.51" stop-color="#a1a7ae"/><stop offset="0.68" stop-color="#7e8489"/><stop offset="0.82" stop-color="#696e73"/><stop offset="0.91" stop-color="#61666b"/><stop offset="1" stop-color="#a9b1bb"/></linearGradient><linearGradient id="未命名的渐变_19-2" x1="288.81" y1="-445.25" x2="288.81" y2="-460.9" gradientTransform="translate(-275.11 473.88)" xlink:href="#未命名的渐变_19"/><linearGradient id="未命名的渐变_8" x1="14.48" y1="7.71" x2="10.15" y2="3.38" gradientUnits="userSpaceOnUse"><stop offset="0" stop-color="#e6f1ff" stop-opacity="0"/><stop offset="1" stop-color="#eef4ff"/></linearGradient><linearGradient id="未命名的渐变_151" x1="13.65" y1="49.35" x2="13.65" y2="37.3" gradientUnits="userSpaceOnUse"><stop offset="0" stop-color="#404347" stop-opacity="0.4"/><stop offset="0.08" stop-color="#323538" stop-opacity="0.6"/><stop offset="1" stop-color="#17181a"/></linearGradient><linearGradient id="未命名的渐变_81" x1="17.91" y1="36.96" x2="9.39" y2="45.47" gradientUnits="userSpaceOnUse"><stop offset="0" stop-color="#d7dce0"/><stop offset="1" stop-color="#737880"/></linearGradient><linearGradient id="未命名的渐变_124" x1="13.65" y1="47.38" x2="13.65" y2="35.05" gradientUnits="userSpaceOnUse"><stop offset="0" stop-color="#5c6066"/><stop offset="1" stop-color="#f5faff"/></linearGradient><linearGradient id="未命名的渐变_204" x1="13.65" y1="-1076.89" x2="13.65" y2="-1076.09" gradientTransform="matrix(1, 0, 0, -1, 0, -1030.01)" gradientUnits="userSpaceOnUse"><stop offset="0" stop-color="#9ba1ab"/><stop offset="0" stop-color="#abb1ba"/><stop offset="0.09" stop-color="#abb1ba"/><stop offset="0.46" stop-color="#d7dce0"/><stop offset="1" stop-color="#a9b1bb"/></linearGradient><linearGradient id="未命名的渐变_204-2" x1="13.65" y1="-1066.35" x2="13.65" y2="-1065.56" xlink:href="#未命名的渐变_204"/><linearGradient id="未命名的渐变_204-3" x1="22.27" y1="-1079.36" x2="22.27" y2="-1078.57" gradientTransform="matrix(0, -1, -1, 0, -1060.04, 63.48)" xlink:href="#未命名的渐变_204"/><linearGradient id="未命名的渐变_204-4" x1="22.27" y1="-1068.83" x2="22.27" y2="-1068.03" gradientTransform="matrix(0, -1, -1, 0, -1060.04, 63.48)" xlink:href="#未命名的渐变_204"/><linearGradient id="未命名的渐变_204-5" x1="18.47" y1="-1076.34" x2="18.47" y2="-1075.55" gradientTransform="matrix(0.71, -0.71, -0.71, -0.71, -756.49, -702.81)" xlink:href="#未命名的渐变_204"/><linearGradient id="未命名的渐变_204-6" x1="18.47" y1="-1065.81" x2="18.47" y2="-1065.01" gradientTransform="matrix(0.71, -0.71, -0.71, -0.71, -756.49, -702.81)" xlink:href="#未命名的渐变_204"/><linearGradient id="未命名的渐变_204-7" x1="22.82" y1="-1084.18" x2="22.82" y2="-1083.39" gradientTransform="matrix(-0.71, -0.71, -0.71, 0.71, -732.84, 819.97)" xlink:href="#未命名的渐变_204"/><linearGradient id="未命名的渐变_204-8" x1="22.82" y1="-1073.64" x2="22.82" y2="-1072.85" gradientTransform="matrix(-0.71, -0.71, -0.71, 0.71, -732.84, 819.97)" xlink:href="#未命名的渐变_204"/><linearGradient id="未命名的渐变_152" x1="1.59" y1="116.58" x2="1.59" y2="105.23" gradientUnits="userSpaceOnUse"><stop offset="0" stop-color="#a9b1bb"/><stop offset="0.09" stop-color="#61666b"/><stop offset="0.19" stop-color="#696e73"/><stop offset="0.34" stop-color="#7e8489"/><stop offset="0.53" stop-color="#a1a7ae"/><stop offset="0.75" stop-color="#d1d8e0"/><stop offset="0.82" stop-color="#e2eaf2"/><stop offset="0.93" stop-color="#9ba1ab"/><stop offset="1" stop-color="#767b82"/></linearGradient></defs><title>Air stripper 2(汽提塔2)</title><g id="图层_2" data-name="图层 2"><g id="图层_16" data-name="图层 16"><g id="Air_stripper_2_汽提塔2_" data-name="Air stripper 2(汽提塔2)"><rect class="cls-1" x="2.45" y="28.49" width="22.47" height="121.51"/><rect class="cls-2" x="7.14" y="1" width="13.08" height="27.48"/><rect class="cls-3" y="54.71" width="27.3" height="3.45"/><rect class="cls-4" x="2.39" y="58.15" width="22.53" height="7.82"/><polyline class="cls-5" points="24.92 75.9 24.92 75.38 2.39 75.38 2.39 75.9"/><polyline class="cls-6" points="24.92 32.1 24.92 31.58 2.39 31.58 2.39 32.1"/><polyline class="cls-5" points="24.92 96.24 24.92 95.71 2.39 95.71 2.39 96.24"/><polyline class="cls-5" points="24.92 116.58 24.92 116.05 2.39 116.05 2.39 116.58"/><polyline class="cls-5" points="24.92 136.92 24.92 136.39 2.39 136.39 2.39 136.92"/><rect class="cls-7" x="13.2" y="-7.32" width="1" height="15.64" transform="translate(13.2 14.21) rotate(-90)"/><rect class="cls-8" x="12.7" y="12.99" width="2.01" height="15.64" transform="matrix(0, -1, 1, 0, -7.1, 34.52)"/><line class="cls-9" x1="5.88" y1="20.74" x2="21.53" y2="20.74"/><rect class="cls-10" x="10.85" y="2.54" width="5.71" height="8.8"/><path class="cls-11" d="M16.49,2.61v8.66H10.92V2.61h5.57m.14-.14H10.78v8.94h5.85V2.47Z"/><polygon class="cls-12" points="16.49 2.61 10.92 2.61 10.92 11.27 16.49 2.61"/><circle class="cls-13" cx="13.65" cy="43.32" r="6.02"/><circle class="cls-14" cx="13.65" cy="41.21" r="6.02"/><circle class="cls-15" cx="13.65" cy="46.48" r="0.4"/><circle class="cls-16" cx="13.65" cy="35.95" r="0.4"/><circle class="cls-17" cx="18.92" cy="41.21" r="0.4"/><circle class="cls-18" cx="8.38" cy="41.21" r="0.4"/><circle class="cls-19" cx="17.38" cy="44.94" r="0.4"/><circle class="cls-20" cx="9.93" cy="37.49" r="0.4"/><circle class="cls-21" cx="17.38" cy="37.49" r="0.4"/><circle class="cls-22" cx="9.93" cy="44.94" r="0.4"/><rect class="cls-23" x="0.73" y="105.23" width="1.72" height="11.35"/></g></g></g></svg>