<svg xmlns="http://www.w3.org/2000/svg" xmlns:xlink="http://www.w3.org/1999/xlink" viewBox="0 0 23.71 150"><defs><style>.cls-1{fill:url(#未命名的渐变_397);}.cls-2{fill:url(#未命名的渐变_19);}.cls-3{fill:url(#未命名的渐变_9);}.cls-10,.cls-13,.cls-14,.cls-15,.cls-4,.cls-7{opacity:0.2;}.cls-4{fill:url(#未命名的渐变_376);}.cls-5{fill:url(#未命名的渐变_397-2);}.cls-6{fill:url(#未命名的渐变_9-2);}.cls-7{fill:url(#未命名的渐变_376-2);}.cls-8{fill:url(#未命名的渐变_397-3);}.cls-9{fill:url(#未命名的渐变_9-3);}.cls-10{fill:url(#未命名的渐变_376-3);}.cls-11{fill:url(#未命名的渐变_397-4);}.cls-12{fill:url(#未命名的渐变_9-4);}.cls-13{fill:url(#未命名的渐变_376-4);}.cls-14{fill:url(#未命名的渐变_376-5);}.cls-15{fill:url(#未命名的渐变_376-6);}.cls-16{fill:url(#未命名的渐变_30);}.cls-17{fill:url(#未命名的渐变_32);}</style><linearGradient id="未命名的渐变_397" x1="91.86" y1="107.24" x2="79.85" y2="107.24" gradientTransform="translate(-74 -76)" gradientUnits="userSpaceOnUse"><stop offset="0" stop-color="#767b82"/><stop offset="0.07" stop-color="#9ba1ab"/><stop offset="0.22" stop-color="#e2eaf2"/><stop offset="0.28" stop-color="#d1d8e0"/><stop offset="0.49" stop-color="#a1a7ae"/><stop offset="0.67" stop-color="#7e8489"/><stop offset="0.81" stop-color="#696e73"/><stop offset="0.91" stop-color="#61666b"/><stop offset="1" stop-color="#a9b1bb"/></linearGradient><linearGradient id="未命名的渐变_19" x1="90.67" y1="-193.38" x2="81.07" y2="-193.38" gradientTransform="matrix(1, 0, 0, -1, -74, -182.38)" gradientUnits="userSpaceOnUse"><stop offset="0" stop-color="#767b82"/><stop offset="0.07" stop-color="#9ba1ab"/><stop offset="0.25" stop-color="#e2eaf2"/><stop offset="0.31" stop-color="#d1d8e0"/><stop offset="0.51" stop-color="#a1a7ae"/><stop offset="0.68" stop-color="#7e8489"/><stop offset="0.82" stop-color="#696e73"/><stop offset="0.91" stop-color="#61666b"/><stop offset="1" stop-color="#a9b1bb"/></linearGradient><linearGradient id="未命名的渐变_9" x1="6.3" y1="-279.9" x2="16.91" y2="-276.04" gradientTransform="matrix(1, 0, 0, -1, 0, -258.38)" gradientUnits="userSpaceOnUse"><stop offset="0" stop-color="#a9b1bb"/><stop offset="0.09" stop-color="#61666b"/><stop offset="0.19" stop-color="#696e73"/><stop offset="0.33" stop-color="#7e8489"/><stop offset="0.51" stop-color="#a1a7ae"/><stop offset="0.72" stop-color="#d1d8e0"/><stop offset="0.78" stop-color="#e2eaf2"/><stop offset="0.93" stop-color="#9ba1ab"/><stop offset="1" stop-color="#767b82"/></linearGradient><linearGradient id="未命名的渐变_376" x1="11.85" y1="20.28" x2="11.85" y2="25.35" gradientUnits="userSpaceOnUse"><stop offset="0" stop-color="#2e3033"/><stop offset="1" stop-color="#9ba1ab" stop-opacity="0"/></linearGradient><linearGradient id="未命名的渐变_397-2" x1="93.38" y1="132.73" x2="78.33" y2="132.73" xlink:href="#未命名的渐变_397"/><linearGradient id="未命名的渐变_9-2" x1="4.97" y1="-304.39" x2="18.26" y2="-299.55" xlink:href="#未命名的渐变_9"/><linearGradient id="未命名的渐变_376-2" x1="11.85" y1="44.24" x2="11.85" y2="49.3" xlink:href="#未命名的渐变_376"/><linearGradient id="未命名的渐变_397-3" x1="95.25" y1="162.45" x2="76.46" y2="162.45" xlink:href="#未命名的渐变_397"/><linearGradient id="未命名的渐变_9-3" x1="3.35" y1="-332.07" x2="19.94" y2="-326.03" xlink:href="#未命名的渐变_9"/><linearGradient id="未命名的渐变_376-3" x1="11.85" y1="71.26" x2="11.85" y2="76.32" xlink:href="#未命名的渐变_376"/><linearGradient id="未命名的渐变_397-4" x1="97.68" y1="200.88" x2="74.03" y2="200.88" xlink:href="#未命名的渐变_397"/><linearGradient id="未命名的渐变_9-4" x1="1.05" y1="-366" x2="21.93" y2="-358.4" xlink:href="#未命名的渐变_9"/><linearGradient id="未命名的渐变_376-4" x1="11.85" y1="104.83" x2="11.85" y2="112.71" xlink:href="#未命名的渐变_376"/><linearGradient id="未命名的渐变_376-5" x1="11.85" y1="-337.05" x2="11.85" y2="-329.16" gradientTransform="matrix(1, 0, 0, -1, 0, -192.07)" xlink:href="#未命名的渐变_376"/><linearGradient id="未命名的渐变_376-6" x1="11.87" y1="3.73" x2="11.87" y2="8.8" xlink:href="#未命名的渐变_376"/><linearGradient id="未命名的渐变_30" x1="14.54" y1="0.51" x2="9.2" y2="5.86" gradientUnits="userSpaceOnUse"><stop offset="0" stop-color="#767b82"/><stop offset="0.07" stop-color="#9ba1ab"/><stop offset="0.26" stop-color="#e2eaf2"/><stop offset="0.32" stop-color="#d1d8e0"/><stop offset="0.51" stop-color="#a1a7ae"/><stop offset="0.68" stop-color="#7e8489"/><stop offset="0.82" stop-color="#696e73"/><stop offset="0.91" stop-color="#61666b"/><stop offset="1" stop-color="#a9b1bb"/></linearGradient><linearGradient id="未命名的渐变_32" x1="17.9" y1="-305.07" x2="5.81" y2="-292.98" gradientTransform="matrix(1, 0, 0, -1, 0, -153.77)" gradientUnits="userSpaceOnUse"><stop offset="0" stop-color="#767b82"/><stop offset="0.07" stop-color="#9ba1ab"/><stop offset="0.22" stop-color="#e2eaf2"/><stop offset="0.29" stop-color="#d1d8e0"/><stop offset="0.49" stop-color="#a1a7ae"/><stop offset="0.67" stop-color="#7e8489"/><stop offset="0.81" stop-color="#696e73"/><stop offset="0.91" stop-color="#61666b"/><stop offset="1" stop-color="#a9b1bb"/></linearGradient></defs><title>Diegster4(沼气池4)</title><g id="图层_2" data-name="图层 2"><g id="图层_16" data-name="图层 16"><g id="Diegster4_沼气池4_" data-name="Diegster4(沼气池4)"><polyline class="cls-1" points="17.86 20.26 17.86 42.22 5.85 42.22 5.85 20.26"/><polyline class="cls-2" points="16.67 18.27 16.67 3.73 7.07 3.73 7.07 18.27"/><polygon class="cls-3" points="16.67 18.27 7.07 18.27 5.85 20.29 17.86 20.29 16.67 18.27"/><rect class="cls-4" x="5.83" y="20.28" width="12.05" height="5.06"/><polyline class="cls-5" points="19.38 44.21 19.38 69.24 4.33 69.24 4.33 44.21"/><polygon class="cls-6" points="17.89 42.22 5.86 42.22 4.33 44.24 19.38 44.24 17.89 42.22"/><rect class="cls-7" x="4.31" y="44.24" width="15.09" height="5.06"/><polyline class="cls-8" points="21.25 71.23 21.25 101.68 2.46 101.68 2.46 71.23"/><polygon class="cls-9" points="19.39 69.24 4.37 69.24 2.46 71.26 21.25 71.26 19.39 69.24"/><rect class="cls-10" x="2.43" y="71.26" width="18.84" height="5.06"/><polyline class="cls-11" points="23.68 104.78 23.68 144.98 0.03 144.98 0.03 104.78"/><polygon class="cls-12" points="21.33 101.68 2.44 101.68 0.03 104.83 23.68 104.83 21.33 101.68"/><rect class="cls-13" y="104.83" width="23.71" height="7.89"/><rect class="cls-14" y="137.09" width="23.71" height="7.89"/><rect class="cls-15" x="7.07" y="3.73" width="9.6" height="5.06"/><path class="cls-16" d="M16.67,3.73A4.71,4.71,0,0,0,11.87,0a4.71,4.71,0,0,0-4.8,3.73Z"/><path class="cls-17" d="M23.68,145s-1.65,5-11.83,5S0,145,0,145Z"/></g></g></g></svg>