<svg xmlns="http://www.w3.org/2000/svg" xmlns:xlink="http://www.w3.org/1999/xlink" viewBox="0 0 36.06 150"><defs><style>.cls-1{fill:url(#未命名的渐变_397);}.cls-2{opacity:0.3;}.cls-3{fill:url(#未命名的渐变_397-2);}.cls-4,.cls-59,.cls-60,.cls-61,.cls-62{opacity:0.4;}.cls-4{fill:url(#未命名的渐变_376);}.cls-43,.cls-44,.cls-45,.cls-46,.cls-5,.cls-6{stroke-miterlimit:10;stroke-width:0.25px;}.cls-5{fill:url(#未命名的渐变_81);stroke:url(#未命名的渐变_518);}.cls-6{fill:url(#未命名的渐变_81-2);stroke:url(#未命名的渐变_518-2);}.cls-7{fill:url(#未命名的渐变_62);}.cls-8{fill:url(#未命名的渐变_62-2);}.cls-9{fill:url(#未命名的渐变_62-3);}.cls-10{fill:url(#未命名的渐变_62-4);}.cls-11{fill:url(#未命名的渐变_62-5);}.cls-12{fill:url(#未命名的渐变_62-6);}.cls-13{fill:url(#未命名的渐变_62-7);}.cls-14{fill:url(#未命名的渐变_306);}.cls-15{fill:url(#未命名的渐变_62-8);}.cls-16{fill:url(#未命名的渐变_62-9);}.cls-17{fill:url(#未命名的渐变_62-10);}.cls-18{fill:url(#未命名的渐变_62-11);}.cls-19{fill:url(#未命名的渐变_62-12);}.cls-20{fill:url(#未命名的渐变_62-13);}.cls-21{fill:url(#未命名的渐变_62-14);}.cls-22{fill:url(#未命名的渐变_306-2);}.cls-23{fill:url(#未命名的渐变_62-15);}.cls-24{fill:url(#未命名的渐变_62-16);}.cls-25{fill:url(#未命名的渐变_62-17);}.cls-26{fill:url(#未命名的渐变_62-18);}.cls-27{fill:url(#未命名的渐变_62-19);}.cls-28{fill:url(#未命名的渐变_62-20);}.cls-29{fill:url(#未命名的渐变_62-21);}.cls-30{fill:url(#未命名的渐变_306-3);}.cls-31{fill:url(#未命名的渐变_62-22);}.cls-32{fill:url(#未命名的渐变_62-23);}.cls-33{fill:url(#未命名的渐变_62-24);}.cls-34{fill:url(#未命名的渐变_62-25);}.cls-35{fill:url(#未命名的渐变_62-26);}.cls-36{fill:url(#未命名的渐变_62-27);}.cls-37{fill:url(#未命名的渐变_62-28);}.cls-38{fill:url(#未命名的渐变_306-4);}.cls-39{fill:url(#未命名的渐变_62-29);}.cls-40{fill:url(#未命名的渐变_62-30);}.cls-41{fill:url(#未命名的渐变_62-31);}.cls-42{fill:url(#未命名的渐变_62-32);}.cls-43,.cls-44,.cls-45,.cls-46{stroke:#505458;}.cls-43{fill:url(#未命名的渐变_204);}.cls-44{fill:url(#未命名的渐变_204-2);}.cls-45{fill:url(#未命名的渐变_204-3);}.cls-46{fill:url(#未命名的渐变_204-4);}.cls-47{fill:url(#未命名的渐变_62-33);}.cls-48{fill:url(#未命名的渐变_62-34);}.cls-49{fill:url(#未命名的渐变_62-35);}.cls-50{fill:url(#未命名的渐变_62-36);}.cls-51{fill:url(#未命名的渐变_62-37);}.cls-52{fill:url(#未命名的渐变_62-38);}.cls-53{fill:url(#未命名的渐变_62-39);}.cls-54{fill:url(#未命名的渐变_62-40);}.cls-55{fill:url(#未命名的渐变_62-41);}.cls-56{fill:url(#未命名的渐变_62-42);}.cls-57{fill:url(#未命名的渐变_62-43);}.cls-58{fill:url(#未命名的渐变_62-44);}.cls-59{fill:url(#未命名的渐变_376-2);}.cls-60{fill:url(#未命名的渐变_376-3);}.cls-61{fill:url(#未命名的渐变_376-4);}.cls-62{fill:url(#未命名的渐变_376-5);}</style><linearGradient id="未命名的渐变_397" x1="96.92" y1="156.34" x2="76.21" y2="156.34" gradientTransform="translate(-74 -76)" gradientUnits="userSpaceOnUse"><stop offset="0" stop-color="#767b82"/><stop offset="0.07" stop-color="#9ba1ab"/><stop offset="0.22" stop-color="#e2eaf2"/><stop offset="0.28" stop-color="#d1d8e0"/><stop offset="0.49" stop-color="#a1a7ae"/><stop offset="0.67" stop-color="#7e8489"/><stop offset="0.81" stop-color="#696e73"/><stop offset="0.91" stop-color="#61666b"/><stop offset="1" stop-color="#a9b1bb"/></linearGradient><linearGradient id="未命名的渐变_397-2" x1="17.84" y1="5.3" x2="7.31" y2="15.83" gradientTransform="matrix(1, 0, 0, 1, 0, 0)" xlink:href="#未命名的渐变_397"/><linearGradient id="未命名的渐变_376" x1="12.56" y1="10.72" x2="12.56" y2="19.18" gradientUnits="userSpaceOnUse"><stop offset="0" stop-color="#2e3033"/><stop offset="1" stop-color="#9ba1ab" stop-opacity="0"/></linearGradient><linearGradient id="未命名的渐变_81" x1="14.59" y1="103.28" x2="11.11" y2="106.75" gradientUnits="userSpaceOnUse"><stop offset="0" stop-color="#d7dce0"/><stop offset="1" stop-color="#737880"/></linearGradient><linearGradient id="未命名的渐变_518" x1="14.68" y1="103.19" x2="11.02" y2="106.84" gradientUnits="userSpaceOnUse"><stop offset="0" stop-color="#f5faff"/><stop offset="1" stop-color="#5c6066"/></linearGradient><linearGradient id="未命名的渐变_81-2" x1="19.12" y1="46.63" x2="15.64" y2="50.11" xlink:href="#未命名的渐变_81"/><linearGradient id="未命名的渐变_518-2" x1="19.21" y1="46.54" x2="15.55" y2="50.2" xlink:href="#未命名的渐变_518"/><linearGradient id="未命名的渐变_62" x1="790.28" y1="-407.49" x2="791.18" y2="-407.49" gradientTransform="matrix(0.63, 0, 0, 0.51, -471.23, 223.79)" gradientUnits="userSpaceOnUse"><stop offset="0" stop-color="#a9b1bb"/><stop offset="0.06" stop-color="#5d6166"/><stop offset="0.78" stop-color="#eef7ff"/><stop offset="0.93" stop-color="#9ba1ab"/><stop offset="1" stop-color="#767b82"/></linearGradient><linearGradient id="未命名的渐变_62-2" x1="751.1" y1="-407.49" x2="752" y2="-407.49" xlink:href="#未命名的渐变_62"/><linearGradient id="未命名的渐变_62-3" x1="757.25" y1="-407.49" x2="758.15" y2="-407.49" xlink:href="#未命名的渐变_62"/><linearGradient id="未命名的渐变_62-4" x1="784.78" y1="-407.49" x2="785.68" y2="-407.49" xlink:href="#未命名的渐变_62"/><linearGradient id="未命名的渐变_62-5" x1="770.67" y1="-407.49" x2="771.57" y2="-407.49" xlink:href="#未命名的渐变_62"/><linearGradient id="未命名的渐变_62-6" x1="832.79" y1="-352.85" x2="833.7" y2="-352.85" gradientTransform="matrix(0.63, 0, 0, 0.93, -510.11, 346.41)" xlink:href="#未命名的渐变_62"/><linearGradient id="未命名的渐变_62-7" x1="834.48" y1="-352.74" x2="835.38" y2="-352.74" gradientTransform="matrix(0.63, 0, 0, 0.93, -511.24, 343.07)" xlink:href="#未命名的渐变_62"/><linearGradient id="未命名的渐变_306" x1="12.58" y1="20.29" x2="12.58" y2="22.33" gradientUnits="userSpaceOnUse"><stop offset="0.02" stop-color="#767b82"/><stop offset="0.04" stop-color="#d7dce0"/><stop offset="0.09" stop-color="#9ba1ab"/><stop offset="0.92" stop-color="#9ba1ab"/><stop offset="1" stop-color="#767b82"/></linearGradient><linearGradient id="未命名的渐变_62-8" x1="790.28" y1="-338.73" x2="791.18" y2="-338.73" xlink:href="#未命名的渐变_62"/><linearGradient id="未命名的渐变_62-9" x1="751.1" y1="-338.73" x2="752" y2="-338.73" xlink:href="#未命名的渐变_62"/><linearGradient id="未命名的渐变_62-10" x1="757.25" y1="-338.73" x2="758.15" y2="-338.73" xlink:href="#未命名的渐变_62"/><linearGradient id="未命名的渐变_62-11" x1="784.78" y1="-338.73" x2="785.68" y2="-338.73" xlink:href="#未命名的渐变_62"/><linearGradient id="未命名的渐变_62-12" x1="770.67" y1="-338.73" x2="771.57" y2="-338.73" xlink:href="#未命名的渐变_62"/><linearGradient id="未命名的渐变_62-13" x1="777.37" y1="-352.85" x2="778.28" y2="-352.85" gradientTransform="matrix(0.63, 0, 0, 0.93, -475.35, 381.17)" xlink:href="#未命名的渐变_62"/><linearGradient id="未命名的渐变_62-14" x1="779.07" y1="-352.74" x2="779.98" y2="-352.74" gradientTransform="matrix(0.63, 0, 0, 0.93, -476.48, 377.83)" xlink:href="#未命名的渐变_62"/><linearGradient id="未命名的渐变_306-2" x1="12.58" y1="55.05" x2="12.58" y2="57.09" xlink:href="#未命名的渐变_306"/><linearGradient id="未命名的渐变_62-15" x1="790.28" y1="-225.78" x2="791.18" y2="-225.78" xlink:href="#未命名的渐变_62"/><linearGradient id="未命名的渐变_62-16" x1="751.1" y1="-225.78" x2="752" y2="-225.78" xlink:href="#未命名的渐变_62"/><linearGradient id="未命名的渐变_62-17" x1="757.25" y1="-225.78" x2="758.15" y2="-225.78" xlink:href="#未命名的渐变_62"/><linearGradient id="未命名的渐变_62-18" x1="784.78" y1="-225.78" x2="785.68" y2="-225.78" xlink:href="#未命名的渐变_62"/><linearGradient id="未命名的渐变_62-19" x1="770.67" y1="-225.78" x2="771.57" y2="-225.78" xlink:href="#未命名的渐变_62"/><linearGradient id="未命名的渐变_62-20" x1="686.33" y1="-352.85" x2="687.23" y2="-352.85" gradientTransform="matrix(0.63, 0, 0, 0.93, -418.25, 438.27)" xlink:href="#未命名的渐变_62"/><linearGradient id="未命名的渐变_62-21" x1="688.06" y1="-352.75" x2="688.96" y2="-352.75" gradientTransform="matrix(0.63, 0, 0, 0.93, -419.38, 434.93)" xlink:href="#未命名的渐变_62"/><linearGradient id="未命名的渐变_306-3" x1="12.58" y1="112.15" x2="12.58" y2="114.19" xlink:href="#未命名的渐变_306"/><linearGradient id="未命名的渐变_62-22" x1="790.28" y1="-176.81" x2="791.18" y2="-176.81" xlink:href="#未命名的渐变_62"/><linearGradient id="未命名的渐变_62-23" x1="751.1" y1="-176.81" x2="752" y2="-176.81" xlink:href="#未命名的渐变_62"/><linearGradient id="未命名的渐变_62-24" x1="757.25" y1="-176.81" x2="758.15" y2="-176.81" xlink:href="#未命名的渐变_62"/><linearGradient id="未命名的渐变_62-25" x1="784.78" y1="-176.81" x2="785.68" y2="-176.81" xlink:href="#未命名的渐变_62"/><linearGradient id="未命名的渐变_62-26" x1="770.67" y1="-176.81" x2="771.57" y2="-176.81" xlink:href="#未命名的渐变_62"/><linearGradient id="未命名的渐变_62-27" x1="646.86" y1="-352.85" x2="647.76" y2="-352.85" gradientTransform="matrix(0.63, 0, 0, 0.93, -393.5, 463.03)" xlink:href="#未命名的渐变_62"/><linearGradient id="未命名的渐变_62-28" x1="648.6" y1="-352.75" x2="649.51" y2="-352.75" gradientTransform="matrix(0.63, 0, 0, 0.93, -394.63, 459.69)" xlink:href="#未命名的渐变_62"/><linearGradient id="未命名的渐变_306-4" x1="12.58" y1="136.9" x2="12.58" y2="138.94" xlink:href="#未命名的渐变_306"/><linearGradient id="未命名的渐变_62-29" x1="749.16" y1="-318.04" x2="750.07" y2="-318.04" gradientTransform="matrix(0.63, 0, 0, 0.93, -469.86, 374.98)" xlink:href="#未命名的渐变_62"/><linearGradient id="未命名的渐变_62-30" x1="808.39" y1="-321.67" x2="809.07" y2="-321.67" gradientTransform="matrix(4.63, 0, 0, 0.93, -3713.55, 375.03)" xlink:href="#未命名的渐变_62"/><linearGradient id="未命名的渐变_62-31" x1="815.69" y1="-465.19" x2="816.37" y2="-465.19" gradientTransform="matrix(4.63, 0, 0, 0.5, -3758.21, 233.99)" xlink:href="#未命名的渐变_62"/><linearGradient id="未命名的渐变_62-32" x1="811.81" y1="-430.54" x2="812.48" y2="-430.54" gradientTransform="matrix(4.63, 0, 0, 0.22, -3751.02, 98.19)" xlink:href="#未命名的渐变_62"/><linearGradient id="未命名的渐变_204" x1="7.05" y1="502.29" x2="7.05" y2="503.82" gradientTransform="matrix(1, 0, 0, -1, 0, 543.17)" gradientUnits="userSpaceOnUse"><stop offset="0" stop-color="#9ba1ab"/><stop offset="0" stop-color="#abb1ba"/><stop offset="0.09" stop-color="#abb1ba"/><stop offset="0.46" stop-color="#d7dce0"/><stop offset="1" stop-color="#a9b1bb"/></linearGradient><linearGradient id="未命名的渐变_204-2" x1="7.05" y1="498.1" x2="7.05" y2="499.63" xlink:href="#未命名的渐变_204"/><linearGradient id="未命名的渐变_204-3" x1="7.05" y1="441.45" x2="7.05" y2="442.99" xlink:href="#未命名的渐变_204"/><linearGradient id="未命名的渐变_204-4" x1="7.05" y1="416.53" x2="7.05" y2="418.07" xlink:href="#未命名的渐变_204"/><linearGradient id="未命名的渐变_62-33" x1="728.39" y1="337.53" x2="729.29" y2="337.53" gradientTransform="translate(-455.89 23.18) scale(0.63 0.02)" xlink:href="#未命名的渐变_62"/><linearGradient id="未命名的渐变_62-34" x1="745.07" y1="337.46" x2="745.97" y2="337.46" gradientTransform="translate(-466.35 33.64) scale(0.63 0.02)" xlink:href="#未命名的渐变_62"/><linearGradient id="未命名的渐变_62-35" x1="761.75" y1="337.38" x2="762.66" y2="337.38" gradientTransform="translate(-476.81 44.11) scale(0.63 0.02)" xlink:href="#未命名的渐变_62"/><linearGradient id="未命名的渐变_62-36" x1="778.44" y1="337.31" x2="779.34" y2="337.31" gradientTransform="translate(-487.28 54.57) scale(0.63 0.02)" xlink:href="#未命名的渐变_62"/><linearGradient id="未命名的渐变_62-37" x1="795.12" y1="337.23" x2="796.02" y2="337.23" gradientTransform="translate(-497.74 65.04) scale(0.63 0.02)" xlink:href="#未命名的渐变_62"/><linearGradient id="未命名的渐变_62-38" x1="811.8" y1="337.15" x2="812.71" y2="337.15" gradientTransform="translate(-508.2 75.5) scale(0.63 0.02)" xlink:href="#未命名的渐变_62"/><linearGradient id="未命名的渐变_62-39" x1="828.49" y1="337.08" x2="829.39" y2="337.08" gradientTransform="translate(-518.67 85.97) scale(0.63 0.02)" xlink:href="#未命名的渐变_62"/><linearGradient id="未命名的渐变_62-40" x1="845.17" y1="337" x2="846.07" y2="337" gradientTransform="translate(-529.13 96.43) scale(0.63 0.02)" xlink:href="#未命名的渐变_62"/><linearGradient id="未命名的渐变_62-41" x1="861.85" y1="336.93" x2="862.76" y2="336.93" gradientTransform="translate(-539.6 106.9) scale(0.63 0.02)" xlink:href="#未命名的渐变_62"/><linearGradient id="未命名的渐变_62-42" x1="878.54" y1="336.85" x2="879.44" y2="336.85" gradientTransform="translate(-550.06 117.36) scale(0.63 0.02)" xlink:href="#未命名的渐变_62"/><linearGradient id="未命名的渐变_62-43" x1="895.22" y1="336.78" x2="896.12" y2="336.78" gradientTransform="translate(-560.52 127.83) scale(0.63 0.02)" xlink:href="#未命名的渐变_62"/><linearGradient id="未命名的渐变_62-44" x1="911.9" y1="336.7" x2="912.81" y2="336.7" gradientTransform="translate(-570.99 138.29) scale(0.63 0.02)" xlink:href="#未命名的渐变_62"/><linearGradient id="未命名的渐变_376-2" x1="12.56" y1="138.94" x2="12.56" y2="141.76" xlink:href="#未命名的渐变_376"/><linearGradient id="未命名的渐变_376-3" x1="12.56" y1="114.19" x2="12.56" y2="117.01" xlink:href="#未命名的渐变_376"/><linearGradient id="未命名的渐变_376-4" x1="12.56" y1="57.09" x2="12.56" y2="59.91" xlink:href="#未命名的渐变_376"/><linearGradient id="未命名的渐变_376-5" x1="12.56" y1="22.33" x2="12.56" y2="25.15" xlink:href="#未命名的渐变_376"/></defs><title>Distillation column 1(蒸馏塔1)</title><g id="图层_2" data-name="图层 2"><g id="图层_16" data-name="图层 16"><g id="Distillation_column_1_蒸馏塔1_" data-name="Distillation column 1(蒸馏塔1)"><polyline class="cls-1" points="22.92 10.68 22.92 150 2.21 150 2.21 10.68"/><rect class="cls-2" x="2.21" y="145.9" width="20.71" height="4.1"/><path class="cls-3" d="M23,10.72S21.5,6.79,12.57,6.79,2.21,10.72,2.21,10.72Z"/><rect class="cls-4" x="2.18" y="10.72" width="20.77" height="8.46"/><circle class="cls-5" cx="12.85" cy="105.01" r="2.46"/><circle class="cls-6" cx="17.38" cy="48.37" r="2.46"/><rect class="cls-7" x="24.58" y="13.61" width="0.57" height="8.35" rx="0.22"/><rect class="cls-8" y="13.61" width="0.57" height="8.35" rx="0.22"/><rect class="cls-9" x="3.86" y="13.61" width="0.57" height="8.35" rx="0.22"/><rect class="cls-10" x="21.13" y="13.61" width="0.57" height="8.35" rx="0.22"/><rect class="cls-11" x="12.28" y="13.61" width="0.57" height="8.35" rx="0.22"/><rect class="cls-12" x="12.21" y="4.65" width="0.57" height="24.98" rx="0.28" transform="translate(-4.64 29.63) rotate(-90)"/><rect class="cls-13" x="12.31" y="1.35" width="0.57" height="25.09" rx="0.28" transform="translate(-1.3 26.49) rotate(-90)"/><rect class="cls-14" y="20.29" width="25.15" height="2.04"/><rect class="cls-15" x="24.58" y="48.37" width="0.57" height="8.35" rx="0.22"/><rect class="cls-16" y="48.37" width="0.57" height="8.35" rx="0.22"/><rect class="cls-17" x="3.86" y="48.37" width="0.57" height="8.35" rx="0.22"/><rect class="cls-18" x="21.13" y="48.37" width="0.57" height="8.35" rx="0.22"/><rect class="cls-19" x="12.28" y="48.37" width="0.57" height="8.35" rx="0.22"/><rect class="cls-20" x="12.21" y="39.41" width="0.57" height="24.98" rx="0.28" transform="translate(-39.4 64.39) rotate(-90)"/><rect class="cls-21" x="12.31" y="36.11" width="0.57" height="25.09" rx="0.28" transform="translate(-36.06 61.25) rotate(-90)"/><rect class="cls-22" y="55.05" width="25.15" height="2.04"/><rect class="cls-23" x="24.58" y="105.47" width="0.57" height="8.35" rx="0.22"/><rect class="cls-24" y="105.47" width="0.57" height="8.35" rx="0.22"/><rect class="cls-25" x="3.86" y="105.47" width="0.57" height="8.35" rx="0.22"/><rect class="cls-26" x="21.13" y="105.47" width="0.57" height="8.35" rx="0.22"/><rect class="cls-27" x="12.28" y="105.47" width="0.57" height="8.35" rx="0.22"/><rect class="cls-28" x="12.21" y="96.51" width="0.57" height="24.98" rx="0.28" transform="translate(-96.5 121.49) rotate(-90)"/><rect class="cls-29" x="12.31" y="93.21" width="0.57" height="25.09" rx="0.28" transform="matrix(0, -1, 1, 0, -93.16, 118.35)"/><rect class="cls-30" y="112.15" width="25.15" height="2.04"/><rect class="cls-31" x="24.58" y="130.23" width="0.57" height="8.35" rx="0.22"/><rect class="cls-32" y="130.23" width="0.57" height="8.35" rx="0.22"/><rect class="cls-33" x="3.86" y="130.23" width="0.57" height="8.35" rx="0.22"/><rect class="cls-34" x="21.13" y="130.23" width="0.57" height="8.35" rx="0.22"/><rect class="cls-35" x="12.28" y="130.23" width="0.57" height="8.35" rx="0.22"/><rect class="cls-36" x="12.21" y="121.26" width="0.57" height="24.98" rx="0.28" transform="translate(-121.26 146.25) rotate(-90)"/><rect class="cls-37" x="12.31" y="117.96" width="0.57" height="25.09" rx="0.28" transform="translate(-117.92 143.1) rotate(-90)"/><rect class="cls-38" y="136.9" width="25.15" height="2.04"/><rect class="cls-39" y="6.79" width="0.57" height="142.8" rx="0.28"/><rect class="cls-40" x="32.92" y="0.01" width="3.14" height="149.58" rx="1.57"/><rect class="cls-41" x="22.1" y="-10.82" width="3.14" height="24.78" rx="1.57" transform="translate(22.1 25.24) rotate(-90)"/><path class="cls-42" d="M12.84,8.36h0a1.57,1.57,0,0,1-1.57-1.57V1.57A1.57,1.57,0,0,1,12.85,0h0a1.57,1.57,0,0,1,1.57,1.57V6.79A1.57,1.57,0,0,1,12.84,8.36Z"/><circle class="cls-43" cx="7.05" cy="40.12" r="0.77"/><circle class="cls-44" cx="7.05" cy="44.3" r="0.77"/><circle class="cls-45" cx="7.05" cy="100.95" r="0.77"/><circle class="cls-46" cx="7.05" cy="125.87" r="0.77"/><rect class="cls-47" x="0.95" y="27.4" width="0.57" height="2.47" rx="0.28" transform="translate(29.87 27.4) rotate(90.01)"/><rect class="cls-48" x="0.95" y="37.86" width="0.57" height="2.47" rx="0.28" transform="translate(40.33 37.87) rotate(90.01)"/><rect class="cls-49" x="0.95" y="48.32" width="0.57" height="2.47" rx="0.28" transform="translate(50.8 48.33) rotate(90.01)"/><rect class="cls-50" x="0.95" y="58.79" width="0.57" height="2.47" rx="0.28" transform="translate(61.26 58.79) rotate(90.01)"/><rect class="cls-51" x="0.95" y="69.25" width="0.57" height="2.47" rx="0.28" transform="translate(71.73 69.26) rotate(90.01)"/><rect class="cls-52" x="0.95" y="79.71" width="0.57" height="2.47" rx="0.28" transform="translate(82.19 79.72) rotate(90.01)"/><rect class="cls-53" x="0.95" y="90.18" width="0.57" height="2.47" rx="0.28" transform="translate(92.65 90.19) rotate(90.01)"/><rect class="cls-54" x="0.95" y="100.64" width="0.57" height="2.47" rx="0.28" transform="translate(103.12 100.65) rotate(90.01)"/><rect class="cls-55" x="0.95" y="111.11" width="0.57" height="2.47" rx="0.28" transform="translate(113.58 111.12) rotate(90.01)"/><rect class="cls-56" x="0.95" y="121.57" width="0.57" height="2.47" rx="0.28" transform="translate(124.04 121.58) rotate(90.01)"/><rect class="cls-57" x="0.95" y="132.03" width="0.57" height="2.47" rx="0.28" transform="translate(134.51 132.05) rotate(90.01)"/><rect class="cls-58" x="0.95" y="142.5" width="0.57" height="2.47" rx="0.28" transform="translate(144.97 142.51) rotate(90.01)"/><rect class="cls-59" x="2.21" y="138.94" width="20.71" height="2.82"/><rect class="cls-60" x="2.21" y="114.19" width="20.71" height="2.82"/><rect class="cls-61" x="2.21" y="57.09" width="20.71" height="2.82"/><rect class="cls-62" x="2.21" y="22.33" width="20.71" height="2.82"/></g></g></g></svg>