<svg xmlns="http://www.w3.org/2000/svg" xmlns:xlink="http://www.w3.org/1999/xlink" viewBox="0 0 44.95 150"><defs><style>.cls-1{fill:none;}.cls-2{fill:url(#未命名的渐变_397);}.cls-3,.cls-6,.cls-7{opacity:0.2;}.cls-3{fill:url(#未命名的渐变_376);}.cls-4{fill:url(#未命名的渐变_397-2);}.cls-5{fill:url(#未命名的渐变_137);}.cls-6{fill:url(#未命名的渐变_376-2);}.cls-7{fill:url(#未命名的渐变_376-3);}.cls-8{fill:url(#未命名的渐变_141);}.cls-9{fill:url(#未命名的渐变_32);}.cls-10{fill:url(#未命名的渐变_60);}.cls-11{fill:url(#未命名的渐变_60-2);}.cls-12{fill:url(#未命名的渐变_60-3);}.cls-13{fill:url(#未命名的渐变_60-4);}.cls-14{fill:url(#未命名的渐变_60-5);}.cls-15{fill:url(#未命名的渐变_60-6);}.cls-16{fill:url(#未命名的渐变_60-7);}.cls-17{fill:url(#未命名的渐变_306);}.cls-18{fill:url(#未命名的渐变_60-8);}.cls-19{fill:url(#未命名的渐变_60-9);}.cls-20{fill:url(#未命名的渐变_60-10);}.cls-21{fill:url(#未命名的渐变_60-11);}.cls-22{fill:url(#未命名的渐变_60-12);}.cls-23{fill:url(#未命名的渐变_60-13);}.cls-24{fill:url(#未命名的渐变_60-14);}.cls-25{fill:url(#未命名的渐变_306-2);}.cls-26{fill:url(#未命名的渐变_60-15);}.cls-27{fill:url(#未命名的渐变_60-16);}.cls-28{fill:url(#未命名的渐变_60-17);}.cls-29{fill:url(#未命名的渐变_60-18);}.cls-30{fill:url(#未命名的渐变_60-19);}.cls-31{fill:url(#未命名的渐变_60-20);}.cls-32{fill:url(#未命名的渐变_60-21);}.cls-33{fill:url(#未命名的渐变_306-3);}.cls-34{fill:url(#未命名的渐变_60-22);}.cls-35{fill:url(#未命名的渐变_60-23);}.cls-36{fill:url(#未命名的渐变_60-24);}.cls-37{fill:url(#未命名的渐变_60-25);}.cls-38{fill:url(#未命名的渐变_60-26);}.cls-39{fill:url(#未命名的渐变_60-27);}.cls-40{fill:url(#未命名的渐变_60-28);}.cls-41{fill:url(#未命名的渐变_306-4);}.cls-42,.cls-43,.cls-44,.cls-46{opacity:0.4;}.cls-42{fill:url(#未命名的渐变_376-4);}.cls-43{fill:url(#未命名的渐变_376-5);}.cls-44{fill:url(#未命名的渐变_376-6);}.cls-45{clip-path:url(#clip-path);}.cls-46{fill:url(#未命名的渐变_376-7);}</style><linearGradient id="未命名的渐变_397" x1="110.73" y1="116.2" x2="81.65" y2="116.2" gradientTransform="translate(-74 -76)" gradientUnits="userSpaceOnUse"><stop offset="0" stop-color="#767b82"/><stop offset="0.07" stop-color="#9ba1ab"/><stop offset="0.22" stop-color="#e2eaf2"/><stop offset="0.28" stop-color="#d1d8e0"/><stop offset="0.49" stop-color="#a1a7ae"/><stop offset="0.67" stop-color="#7e8489"/><stop offset="0.81" stop-color="#696e73"/><stop offset="0.91" stop-color="#61666b"/><stop offset="1" stop-color="#a9b1bb"/></linearGradient><linearGradient id="未命名的渐变_376" x1="22.19" y1="16.53" x2="22.19" y2="25.54" gradientUnits="userSpaceOnUse"><stop offset="0" stop-color="#2e3033"/><stop offset="1" stop-color="#9ba1ab" stop-opacity="0"/></linearGradient><linearGradient id="未命名的渐变_397-2" x1="114.4" y1="181.64" x2="77.98" y2="181.64" xlink:href="#未命名的渐变_397"/><linearGradient id="未命名的渐变_137" x1="5.24" y1="-1123.21" x2="37.4" y2="-1111.51" gradientTransform="matrix(1, 0, 0, -1, 0, -1049.05)" gradientUnits="userSpaceOnUse"><stop offset="0" stop-color="#a9b1bb"/><stop offset="0.09" stop-color="#61666b"/><stop offset="0.19" stop-color="#696e73"/><stop offset="0.33" stop-color="#7e8489"/><stop offset="0.51" stop-color="#a1a7ae"/><stop offset="0.72" stop-color="#d1d8e0"/><stop offset="0.78" stop-color="#e2eaf2"/><stop offset="0.93" stop-color="#9ba1ab"/><stop offset="1" stop-color="#767b82"/></linearGradient><linearGradient id="未命名的渐变_376-2" x1="22.19" y1="70.7" x2="22.19" y2="79.71" xlink:href="#未命名的渐变_376"/><linearGradient id="未命名的渐变_376-3" x1="22.19" y1="-1123.38" x2="22.19" y2="-1114.37" gradientTransform="matrix(1, 0, 0, -1, 0, -982.75)" xlink:href="#未命名的渐变_376"/><linearGradient id="未命名的渐变_141" x1="34.14" y1="6.01" x2="7.35" y2="15.76" gradientUnits="userSpaceOnUse"><stop offset="0" stop-color="#767b82"/><stop offset="0.07" stop-color="#9ba1ab"/><stop offset="0.26" stop-color="#e2eaf2"/><stop offset="0.32" stop-color="#d1d8e0"/><stop offset="0.51" stop-color="#a1a7ae"/><stop offset="0.68" stop-color="#7e8489"/><stop offset="0.82" stop-color="#696e73"/><stop offset="0.91" stop-color="#61666b"/><stop offset="1" stop-color="#a9b1bb"/></linearGradient><linearGradient id="未命名的渐变_32" x1="31.66" y1="-1095.3" x2="12.71" y2="-1076.35" gradientTransform="matrix(1, 0, 0, -1, 0, -944.45)" gradientUnits="userSpaceOnUse"><stop offset="0" stop-color="#767b82"/><stop offset="0.07" stop-color="#9ba1ab"/><stop offset="0.22" stop-color="#e2eaf2"/><stop offset="0.29" stop-color="#d1d8e0"/><stop offset="0.49" stop-color="#a1a7ae"/><stop offset="0.67" stop-color="#7e8489"/><stop offset="0.81" stop-color="#696e73"/><stop offset="0.91" stop-color="#61666b"/><stop offset="1" stop-color="#a9b1bb"/></linearGradient><linearGradient id="未命名的渐变_60" x1="1160.41" y1="148.4" x2="1161.37" y2="148.4" gradientTransform="matrix(0.63, 0, 0, 0.51, -693.14, -70.59)" gradientUnits="userSpaceOnUse"><stop offset="0" stop-color="#a9b1bb"/><stop offset="0.06" stop-color="#5d6166"/><stop offset="0.78" stop-color="#eef7ff"/><stop offset="0.93" stop-color="#9ba1ab"/><stop offset="1" stop-color="#767b82"/></linearGradient><linearGradient id="未命名的渐变_60-2" x1="1118.95" y1="148.4" x2="1119.9" y2="148.4" xlink:href="#未命名的渐变_60"/><linearGradient id="未命名的渐变_60-3" x1="1125.46" y1="148.4" x2="1126.41" y2="148.4" xlink:href="#未命名的渐变_60"/><linearGradient id="未命名的渐变_60-4" x1="1154.59" y1="148.4" x2="1155.55" y2="148.4" xlink:href="#未命名的渐变_60"/><linearGradient id="未命名的渐变_60-5" x1="1139.66" y1="148.4" x2="1140.61" y2="148.4" xlink:href="#未命名的渐变_60"/><linearGradient id="未命名的渐变_60-6" x1="-690.63" y1="-299.7" x2="-689.68" y2="-299.7" gradientTransform="matrix(0.63, 0, 0, 0.93, 454.96, 283.41)" xlink:href="#未命名的渐变_60"/><linearGradient id="未命名的渐变_60-7" x1="-688.35" y1="-299.59" x2="-687.39" y2="-299.59" gradientTransform="matrix(0.63, 0, 0, 0.93, 453.77, 279.88)" xlink:href="#未命名的渐变_60"/><linearGradient id="未命名的渐变_306" x1="22.19" y1="7.07" x2="22.19" y2="9.22" gradientUnits="userSpaceOnUse"><stop offset="0.02" stop-color="#767b82"/><stop offset="0.04" stop-color="#d7dce0"/><stop offset="0.09" stop-color="#9ba1ab"/><stop offset="0.92" stop-color="#9ba1ab"/><stop offset="1" stop-color="#767b82"/></linearGradient><linearGradient id="未命名的渐变_60-8" x1="1170.95" y1="198.57" x2="1171.9" y2="198.57" xlink:href="#未命名的渐变_60"/><linearGradient id="未命名的渐变_60-9" x1="1109.32" y1="198.57" x2="1110.28" y2="198.57" xlink:href="#未命名的渐变_60"/><linearGradient id="未命名的渐变_60-10" x1="1122.53" y1="198.57" x2="1123.49" y2="198.57" xlink:href="#未命名的渐变_60"/><linearGradient id="未命名的渐变_60-11" x1="1158.42" y1="198.57" x2="1159.37" y2="198.57" xlink:href="#未命名的渐变_60"/><linearGradient id="未命名的渐变_60-12" x1="1140.11" y1="198.57" x2="1141.07" y2="198.57" xlink:href="#未命名的渐变_60"/><linearGradient id="未命名的渐变_60-13" x1="-731.07" y1="-299.3" x2="-730.11" y2="-299.3" gradientTransform="matrix(0.63, 0, 0, 0.93, 480.69, 308.4)" xlink:href="#未命名的渐变_60"/><linearGradient id="未命名的渐变_60-14" x1="-728.77" y1="-299.3" x2="-727.81" y2="-299.3" gradientTransform="matrix(0.63, 0, 0, 0.93, 479.4, 304.97)" xlink:href="#未命名的渐变_60"/><linearGradient id="未命名的渐变_306-2" x1="22.47" y1="32.43" x2="22.47" y2="34.58" xlink:href="#未命名的渐变_306"/><linearGradient id="未命名的渐变_60-15" x1="1170.95" y1="241.92" x2="1171.9" y2="241.92" xlink:href="#未命名的渐变_60"/><linearGradient id="未命名的渐变_60-16" x1="1109.32" y1="241.92" x2="1110.28" y2="241.92" xlink:href="#未命名的渐变_60"/><linearGradient id="未命名的渐变_60-17" x1="1122.53" y1="241.92" x2="1123.49" y2="241.92" xlink:href="#未命名的渐变_60"/><linearGradient id="未命名的渐变_60-18" x1="1158.42" y1="241.92" x2="1159.37" y2="241.92" xlink:href="#未命名的渐变_60"/><linearGradient id="未命名的渐变_60-19" x1="1140.11" y1="241.92" x2="1141.07" y2="241.92" xlink:href="#未命名的渐变_60"/><linearGradient id="未命名的渐变_60-20" x1="-766.01" y1="-299.3" x2="-765.05" y2="-299.3" gradientTransform="matrix(0.63, 0, 0, 0.93, 502.61, 330.31)" xlink:href="#未命名的渐变_60"/><linearGradient id="未命名的渐变_60-21" x1="-763.7" y1="-299.3" x2="-762.74" y2="-299.3" gradientTransform="matrix(0.63, 0, 0, 0.93, 501.31, 326.88)" xlink:href="#未命名的渐变_60"/><linearGradient id="未命名的渐变_306-3" x1="22.47" y1="54.34" x2="22.47" y2="56.5" xlink:href="#未命名的渐变_306"/><linearGradient id="未命名的渐变_60-22" x1="1175.48" y1="326.48" x2="1176.43" y2="326.48" xlink:href="#未命名的渐变_60"/><linearGradient id="未命名的渐变_60-23" x1="1104.79" y1="326.48" x2="1105.75" y2="326.48" xlink:href="#未命名的渐变_60"/><linearGradient id="未命名的渐变_60-24" x1="1122.53" y1="326.48" x2="1123.49" y2="326.48" xlink:href="#未命名的渐变_60"/><linearGradient id="未命名的渐变_60-25" x1="1158.42" y1="326.48" x2="1159.37" y2="326.48" xlink:href="#未命名的渐变_60"/><linearGradient id="未命名的渐变_60-26" x1="1140.11" y1="326.48" x2="1141.07" y2="326.48" xlink:href="#未命名的渐变_60"/><linearGradient id="未命名的渐变_60-27" x1="-834.17" y1="-299.31" x2="-833.21" y2="-299.31" gradientTransform="matrix(0.63, 0, 0, 0.93, 545.35, 373.06)" xlink:href="#未命名的渐变_60"/><linearGradient id="未命名的渐变_60-28" x1="-831.83" y1="-299.31" x2="-830.88" y2="-299.31" gradientTransform="matrix(0.63, 0, 0, 0.93, 544.06, 369.63)" xlink:href="#未命名的渐变_60"/><linearGradient id="未命名的渐变_306-4" x1="22.47" y1="97.09" x2="22.47" y2="99.25" xlink:href="#未命名的渐变_306"/><linearGradient id="未命名的渐变_376-4" x1="22.16" y1="99.25" x2="22.16" y2="109.05" xlink:href="#未命名的渐变_376"/><linearGradient id="未命名的渐变_376-5" x1="22.16" y1="56.5" x2="22.16" y2="60.12" xlink:href="#未命名的渐变_376"/><linearGradient id="未命名的渐变_376-6" x1="22.16" y1="34.58" x2="22.16" y2="38.21" xlink:href="#未命名的渐变_376"/><clipPath id="clip-path"><path class="cls-1" d="M36.73,16.48S36.73,0,22.17,0,7.61,16.48,7.61,16.48Z"/></clipPath><linearGradient id="未命名的渐变_376-7" x1="22.16" y1="9.22" x2="22.16" y2="12.85" xlink:href="#未命名的渐变_376"/></defs><title>Fractionator(分馏塔)</title><g id="图层_2" data-name="图层 2"><g id="图层_16" data-name="图层 16"><g id="Fractionator_分馏塔_" data-name="Fractionator(分馏塔)"><polyline class="cls-2" points="36.73 16.48 36.73 63.93 7.65 63.93 7.65 16.48"/><rect class="cls-3" x="7.61" y="16.53" width="29.16" height="9.01"/><polyline class="cls-4" points="40.4 70.65 40.4 140.64 3.98 140.64 3.98 70.65"/><polygon class="cls-5" points="36.79 63.93 7.69 63.93 3.98 70.7 40.4 70.7 36.79 63.93"/><rect class="cls-6" x="3.93" y="70.7" width="36.53" height="9.01"/><rect class="cls-7" x="3.93" y="131.62" width="36.53" height="9.01"/><path class="cls-8" d="M36.73,16.48S36.73,0,22.17,0,7.61,16.48,7.61,16.48Z"/><path class="cls-9" d="M40.4,140.64S37.87,150,22.18,150,4,140.64,4,140.64Z"/><rect class="cls-10" x="34.9" width="0.6" height="8.84" rx="0.24"/><rect class="cls-11" x="8.88" width="0.6" height="8.84" rx="0.24"/><rect class="cls-12" x="12.96" width="0.6" height="8.84" rx="0.24"/><rect class="cls-13" x="31.24" width="0.6" height="8.84" rx="0.24"/><rect class="cls-14" x="21.87" width="0.6" height="8.84" rx="0.24"/><rect class="cls-15" x="21.8" y="-9.49" width="0.6" height="26.44" rx="0.3" transform="translate(18.37 25.83) rotate(-90)"/><rect class="cls-16" x="21.91" y="-12.98" width="0.6" height="26.56" rx="0.3" transform="translate(21.91 22.51) rotate(-90)"/><rect class="cls-17" x="8.88" y="7.07" width="26.62" height="2.16"/><rect class="cls-18" x="41.51" y="25.36" width="0.6" height="8.84" rx="0.3"/><rect class="cls-19" x="2.84" y="25.36" width="0.6" height="8.84" rx="0.3"/><rect class="cls-20" x="11.13" y="25.36" width="0.6" height="8.84" rx="0.24"/><rect class="cls-21" x="33.65" y="25.36" width="0.6" height="8.84" rx="0.24"/><rect class="cls-22" x="22.16" y="25.36" width="0.6" height="8.84" rx="0.24"/><rect class="cls-23" x="22.17" y="9.46" width="0.6" height="39.26" rx="0.3" transform="translate(-6.62 51.56) rotate(-90)"/><rect class="cls-24" x="22.17" y="6.03" width="0.6" height="39.26" rx="0.3" transform="matrix(0, -1, 1, 0, -3.19, 48.13)"/><rect class="cls-25" x="2.84" y="32.43" width="39.26" height="2.16"/><rect class="cls-26" x="41.51" y="47.28" width="0.6" height="8.84" rx="0.3"/><rect class="cls-27" x="2.84" y="47.28" width="0.6" height="8.84" rx="0.3"/><rect class="cls-28" x="11.13" y="47.28" width="0.6" height="8.84" rx="0.24"/><rect class="cls-29" x="33.65" y="47.28" width="0.6" height="8.84" rx="0.24"/><rect class="cls-30" x="22.16" y="47.28" width="0.6" height="8.84" rx="0.24"/><rect class="cls-31" x="22.17" y="31.37" width="0.6" height="39.26" rx="0.3" transform="translate(-28.53 73.48) rotate(-90)"/><rect class="cls-32" x="22.17" y="27.94" width="0.6" height="39.26" rx="0.3" transform="matrix(0, -1, 1, 0, -25.1, 70.05)"/><rect class="cls-33" x="2.84" y="54.34" width="39.26" height="2.16"/><rect class="cls-34" x="44.35" y="90.02" width="0.6" height="8.84" rx="0.3"/><rect class="cls-35" y="90.02" width="0.6" height="8.84" rx="0.3"/><rect class="cls-36" x="11.13" y="90.02" width="0.6" height="8.84" rx="0.24"/><rect class="cls-37" x="33.65" y="90.02" width="0.6" height="8.84" rx="0.24"/><rect class="cls-38" x="22.16" y="90.02" width="0.6" height="8.84" rx="0.24"/><rect class="cls-39" x="22.17" y="71.28" width="0.6" height="44.95" rx="0.3" transform="translate(-71.28 116.23) rotate(-90)"/><rect class="cls-40" x="22.17" y="67.85" width="0.6" height="44.95" rx="0.3" transform="translate(-67.85 112.8) rotate(-90)"/><rect class="cls-41" y="97.09" width="44.95" height="2.16"/><rect class="cls-42" x="3.93" y="99.25" width="36.47" height="9.8"/><rect class="cls-43" x="7.6" y="56.5" width="29.12" height="3.62"/><rect class="cls-44" x="7.6" y="34.58" width="29.12" height="3.62"/><g class="cls-45"><rect class="cls-46" x="7.6" y="9.22" width="29.12" height="3.62"/></g></g></g></g></svg>