<svg xmlns="http://www.w3.org/2000/svg" xmlns:xlink="http://www.w3.org/1999/xlink" viewBox="0 0 40.71 150"><defs><style>.cls-1{fill:url(#未命名的渐变_306);}.cls-2{opacity:0.6;}.cls-3{fill:url(#未命名的渐变_306-2);}.cls-4{fill:url(#未命名的渐变_306-3);}.cls-5{fill:url(#未命名的渐变_306-4);}.cls-6{fill:url(#未命名的渐变_306-5);}.cls-7{fill:url(#未命名的渐变_306-6);}.cls-8{fill:url(#未命名的渐变_397);}.cls-10,.cls-54,.cls-55,.cls-63,.cls-9{opacity:0.4;}.cls-9{fill:url(#未命名的渐变_376);}.cls-10{fill:url(#未命名的渐变_376-2);}.cls-11{fill:url(#未命名的渐变_62);}.cls-12{fill:url(#未命名的渐变_62-2);}.cls-13{fill:url(#未命名的渐变_62-3);}.cls-14{fill:url(#未命名的渐变_62-4);}.cls-15{fill:url(#未命名的渐变_62-5);}.cls-16{fill:url(#未命名的渐变_62-6);}.cls-17{fill:url(#未命名的渐变_62-7);}.cls-18{fill:url(#未命名的渐变_62-8);}.cls-19{fill:url(#未命名的渐变_62-9);}.cls-20{fill:url(#未命名的渐变_62-10);}.cls-21{fill:url(#未命名的渐变_62-11);}.cls-22{fill:url(#未命名的渐变_62-12);}.cls-23{fill:url(#未命名的渐变_62-13);}.cls-24{fill:url(#未命名的渐变_62-14);}.cls-25{fill:url(#未命名的渐变_62-15);}.cls-26{fill:url(#未命名的渐变_62-16);}.cls-27{fill:url(#未命名的渐变_62-17);}.cls-28{fill:url(#未命名的渐变_62-18);}.cls-29{fill:url(#未命名的渐变_62-19);}.cls-30{fill:url(#未命名的渐变_62-20);}.cls-31{fill:url(#未命名的渐变_62-21);}.cls-32{fill:url(#未命名的渐变_62-22);}.cls-33{fill:url(#未命名的渐变_62-23);}.cls-34{fill:url(#未命名的渐变_62-24);}.cls-35{fill:url(#未命名的渐变_62-25);}.cls-36{fill:url(#未命名的渐变_62-26);}.cls-37{fill:url(#未命名的渐变_62-27);}.cls-38{fill:url(#未命名的渐变_62-28);}.cls-39{fill:url(#未命名的渐变_62-29);}.cls-40{fill:url(#未命名的渐变_62-30);}.cls-41{fill:url(#未命名的渐变_62-31);}.cls-42{fill:url(#未命名的渐变_62-32);}.cls-43{fill:url(#未命名的渐变_62-33);}.cls-44{fill:url(#未命名的渐变_62-34);}.cls-45{fill:url(#未命名的渐变_62-35);}.cls-46{fill:url(#未命名的渐变_62-36);}.cls-47{fill:url(#未命名的渐变_306-7);}.cls-48{fill:url(#未命名的渐变_306-8);}.cls-49{fill:url(#未命名的渐变_306-9);}.cls-50{fill:url(#未命名的渐变_306-10);}.cls-51{fill:url(#未命名的渐变_306-11);}.cls-52{fill:url(#未命名的渐变_306-12);}.cls-53{fill:url(#未命名的渐变_306-13);}.cls-55{fill:url(#未命名的渐变_376-3);}.cls-56{fill:url(#未命名的渐变_306-14);}.cls-57{fill:url(#未命名的渐变_306-15);}.cls-58{fill:url(#未命名的渐变_306-16);}.cls-59{fill:url(#未命名的渐变_306-17);}.cls-60{fill:url(#未命名的渐变_306-18);}.cls-61{fill:url(#未命名的渐变_306-19);}.cls-62{fill:url(#未命名的渐变_306-20);}.cls-63{fill:url(#未命名的渐变_376-4);}.cls-64{fill:url(#未命名的渐变_306-21);}.cls-65{fill:url(#未命名的渐变_306-22);}.cls-66{fill:url(#未命名的渐变_306-23);}.cls-67{fill:url(#未命名的渐变_306-24);}.cls-68{fill:url(#未命名的渐变_306-25);}.cls-69{fill:url(#未命名的渐变_306-26);}.cls-70{fill:url(#未命名的渐变_306-27);}.cls-71{fill:url(#未命名的渐变_74);}</style><linearGradient id="未命名的渐变_306" x1="-306.62" y1="391.06" x2="-306.62" y2="397.06" gradientTransform="matrix(0.58, 1, 1, 0, -205.42, 431.49)" gradientUnits="userSpaceOnUse"><stop offset="0.02" stop-color="#767b82"/><stop offset="0.04" stop-color="#d7dce0"/><stop offset="0.09" stop-color="#9ba1ab"/><stop offset="0.92" stop-color="#9ba1ab"/><stop offset="1" stop-color="#767b82"/></linearGradient><linearGradient id="未命名的渐变_306-2" x1="-306.62" y1="410.04" x2="-306.62" y2="416.04" gradientTransform="matrix(-0.58, 1, -1, 0, 265.11, 431.49)" xlink:href="#未命名的渐变_306"/><linearGradient id="未命名的渐变_306-3" x1="-352.33" y1="417.8" x2="-352.33" y2="423.8" xlink:href="#未命名的渐变_306"/><linearGradient id="未命名的渐变_306-4" x1="-352.33" y1="436.78" x2="-352.33" y2="442.78" gradientTransform="matrix(-0.58, 1, -1, 0, 265.11, 431.49)" xlink:href="#未命名的渐变_306"/><linearGradient id="未命名的渐变_306-5" x1="-392.71" y1="441.42" x2="-392.71" y2="447.42" xlink:href="#未命名的渐变_306"/><linearGradient id="未命名的渐变_306-6" x1="-392.71" y1="460.4" x2="-392.71" y2="466.4" gradientTransform="matrix(-0.58, 1, -1, 0, 265.11, 431.49)" xlink:href="#未命名的渐变_306"/><linearGradient id="未命名的渐变_397" x1="105.44" y1="154.16" x2="83.24" y2="154.16" gradientTransform="translate(-74 -76)" gradientUnits="userSpaceOnUse"><stop offset="0" stop-color="#767b82"/><stop offset="0.07" stop-color="#9ba1ab"/><stop offset="0.22" stop-color="#e2eaf2"/><stop offset="0.28" stop-color="#d1d8e0"/><stop offset="0.49" stop-color="#a1a7ae"/><stop offset="0.67" stop-color="#7e8489"/><stop offset="0.81" stop-color="#696e73"/><stop offset="0.91" stop-color="#61666b"/><stop offset="1" stop-color="#a9b1bb"/></linearGradient><linearGradient id="未命名的渐变_376" x1="20.35" y1="31.01" x2="20.35" y2="38.76" gradientUnits="userSpaceOnUse"><stop offset="0" stop-color="#2e3033"/><stop offset="1" stop-color="#9ba1ab" stop-opacity="0"/></linearGradient><linearGradient id="未命名的渐变_376-2" x1="20.35" y1="6.32" x2="20.35" y2="13.96" xlink:href="#未命名的渐变_376"/><linearGradient id="未命名的渐变_62" x1="1023.74" y1="-167.04" x2="1024.64" y2="-167.04" gradientTransform="matrix(0.63, 0, 0, 0.51, -619.41, 124.9)" gradientUnits="userSpaceOnUse"><stop offset="0" stop-color="#a9b1bb"/><stop offset="0.06" stop-color="#5d6166"/><stop offset="0.78" stop-color="#eef7ff"/><stop offset="0.93" stop-color="#9ba1ab"/><stop offset="1" stop-color="#767b82"/></linearGradient><linearGradient id="未命名的渐变_62-2" x1="1031.94" y1="-167.04" x2="1032.84" y2="-167.04" xlink:href="#未命名的渐变_62"/><linearGradient id="未命名的渐变_62-3" x1="120.96" y1="-112.53" x2="121.87" y2="-112.53" gradientTransform="matrix(0.63, 0, 0, 0.93, -50.43, 119.18)" xlink:href="#未命名的渐变_62"/><linearGradient id="未命名的渐变_62-4" x1="115.04" y1="-112.53" x2="115.94" y2="-112.53" gradientTransform="matrix(0.63, 0, 0, 0.93, -46.72, 122.9)" xlink:href="#未命名的渐变_62"/><linearGradient id="未命名的渐变_62-5" x1="109.12" y1="-112.53" x2="110.02" y2="-112.53" gradientTransform="matrix(0.63, 0, 0, 0.93, -43, 126.61)" xlink:href="#未命名的渐变_62"/><linearGradient id="未命名的渐变_62-6" x1="103.2" y1="-112.53" x2="104.1" y2="-112.53" gradientTransform="matrix(0.63, 0, 0, 0.93, -39.29, 130.33)" xlink:href="#未命名的渐变_62"/><linearGradient id="未命名的渐变_62-7" x1="97.27" y1="-112.53" x2="98.18" y2="-112.53" gradientTransform="matrix(0.63, 0, 0, 0.93, -35.58, 134.04)" xlink:href="#未命名的渐变_62"/><linearGradient id="未命名的渐变_62-8" x1="91.35" y1="-112.53" x2="92.25" y2="-112.53" gradientTransform="matrix(0.63, 0, 0, 0.93, -31.86, 137.75)" xlink:href="#未命名的渐变_62"/><linearGradient id="未命名的渐变_62-9" x1="85.43" y1="-112.53" x2="86.33" y2="-112.53" gradientTransform="matrix(0.63, 0, 0, 0.93, -28.15, 141.47)" xlink:href="#未命名的渐变_62"/><linearGradient id="未命名的渐变_62-10" x1="79.51" y1="-112.53" x2="80.41" y2="-112.53" gradientTransform="matrix(0.63, 0, 0, 0.93, -24.43, 145.18)" xlink:href="#未命名的渐变_62"/><linearGradient id="未命名的渐变_62-11" x1="73.59" y1="-112.53" x2="74.49" y2="-112.53" gradientTransform="matrix(0.63, 0, 0, 0.93, -20.72, 148.9)" xlink:href="#未命名的渐变_62"/><linearGradient id="未命名的渐变_62-12" x1="67.66" y1="-112.53" x2="68.57" y2="-112.53" gradientTransform="matrix(0.63, 0, 0, 0.93, -17, 152.61)" xlink:href="#未命名的渐变_62"/><linearGradient id="未命名的渐变_62-13" x1="61.74" y1="-112.53" x2="62.64" y2="-112.53" gradientTransform="matrix(0.63, 0, 0, 0.93, -13.29, 156.33)" xlink:href="#未命名的渐变_62"/><linearGradient id="未命名的渐变_62-14" x1="55.82" y1="-112.53" x2="56.72" y2="-112.53" gradientTransform="matrix(0.63, 0, 0, 0.93, -9.58, 160.04)" xlink:href="#未命名的渐变_62"/><linearGradient id="未命名的渐变_62-15" x1="49.9" y1="-112.53" x2="50.8" y2="-112.53" gradientTransform="matrix(0.63, 0, 0, 0.93, -5.86, 163.75)" xlink:href="#未命名的渐变_62"/><linearGradient id="未命名的渐变_62-16" x1="43.97" y1="-112.53" x2="44.88" y2="-112.53" gradientTransform="matrix(0.63, 0, 0, 0.93, -2.15, 167.47)" xlink:href="#未命名的渐变_62"/><linearGradient id="未命名的渐变_62-17" x1="38.05" y1="-112.53" x2="38.96" y2="-112.53" gradientTransform="matrix(0.63, 0, 0, 0.93, 1.57, 171.18)" xlink:href="#未命名的渐变_62"/><linearGradient id="未命名的渐变_62-18" x1="122.75" y1="-112.51" x2="123.65" y2="-112.51" gradientTransform="matrix(0.63, 0, 0, 0.93, -51.55, 115.92)" xlink:href="#未命名的渐变_62"/><linearGradient id="未命名的渐变_62-19" x1="1023.74" y1="-11.25" x2="1024.64" y2="-11.25" xlink:href="#未命名的渐变_62"/><linearGradient id="未命名的渐变_62-20" x1="1031.94" y1="-11.25" x2="1032.84" y2="-11.25" xlink:href="#未命名的渐变_62"/><linearGradient id="未命名的渐变_62-21" x1="-4.61" y1="-112.53" x2="-3.71" y2="-112.53" gradientTransform="matrix(0.63, 0, 0, 0.93, 28.33, 197.94)" xlink:href="#未命名的渐变_62"/><linearGradient id="未命名的渐变_62-22" x1="-10.53" y1="-112.53" x2="-9.63" y2="-112.53" gradientTransform="matrix(0.63, 0, 0, 0.93, 32.04, 201.66)" xlink:href="#未命名的渐变_62"/><linearGradient id="未命名的渐变_62-23" x1="-16.46" y1="-112.53" x2="-15.55" y2="-112.53" gradientTransform="matrix(0.63, 0, 0, 0.93, 35.75, 205.37)" xlink:href="#未命名的渐变_62"/><linearGradient id="未命名的渐变_62-24" x1="-22.38" y1="-112.53" x2="-21.48" y2="-112.53" gradientTransform="matrix(0.63, 0, 0, 0.93, 39.47, 209.09)" xlink:href="#未命名的渐变_62"/><linearGradient id="未命名的渐变_62-25" x1="-28.3" y1="-112.53" x2="-27.4" y2="-112.53" gradientTransform="matrix(0.63, 0, 0, 0.93, 43.18, 212.8)" xlink:href="#未命名的渐变_62"/><linearGradient id="未命名的渐变_62-26" x1="-34.22" y1="-112.53" x2="-33.32" y2="-112.53" gradientTransform="matrix(0.63, 0, 0, 0.93, 46.9, 216.51)" xlink:href="#未命名的渐变_62"/><linearGradient id="未命名的渐变_62-27" x1="-40.15" y1="-112.53" x2="-39.24" y2="-112.53" gradientTransform="matrix(0.63, 0, 0, 0.93, 50.61, 220.23)" xlink:href="#未命名的渐变_62"/><linearGradient id="未命名的渐变_62-28" x1="-46.07" y1="-112.53" x2="-45.16" y2="-112.53" gradientTransform="matrix(0.63, 0, 0, 0.93, 54.33, 223.94)" xlink:href="#未命名的渐变_62"/><linearGradient id="未命名的渐变_62-29" x1="-51.99" y1="-112.53" x2="-51.09" y2="-112.53" gradientTransform="matrix(0.63, 0, 0, 0.93, 58.04, 227.66)" xlink:href="#未命名的渐变_62"/><linearGradient id="未命名的渐变_62-30" x1="-57.91" y1="-112.53" x2="-57.01" y2="-112.53" gradientTransform="matrix(0.63, 0, 0, 0.93, 61.75, 231.37)" xlink:href="#未命名的渐变_62"/><linearGradient id="未命名的渐变_62-31" x1="-63.83" y1="-112.53" x2="-62.93" y2="-112.53" gradientTransform="matrix(0.63, 0, 0, 0.93, 65.47, 235.09)" xlink:href="#未命名的渐变_62"/><linearGradient id="未命名的渐变_62-32" x1="-69.76" y1="-112.53" x2="-68.85" y2="-112.53" gradientTransform="matrix(0.63, 0, 0, 0.93, 69.18, 238.8)" xlink:href="#未命名的渐变_62"/><linearGradient id="未命名的渐变_62-33" x1="-75.68" y1="-112.53" x2="-74.77" y2="-112.53" gradientTransform="matrix(0.63, 0, 0, 0.93, 72.9, 242.51)" xlink:href="#未命名的渐变_62"/><linearGradient id="未命名的渐变_62-34" x1="-81.6" y1="-112.53" x2="-80.7" y2="-112.53" gradientTransform="matrix(0.63, 0, 0, 0.93, 76.61, 246.23)" xlink:href="#未命名的渐变_62"/><linearGradient id="未命名的渐变_62-35" x1="-87.52" y1="-112.53" x2="-86.62" y2="-112.53" gradientTransform="matrix(0.63, 0, 0, 0.93, 80.33, 249.94)" xlink:href="#未命名的渐变_62"/><linearGradient id="未命名的渐变_62-36" x1="-2.79" y1="-112.51" x2="-1.88" y2="-112.51" gradientTransform="matrix(0.63, 0, 0, 0.93, 27.2, 194.68)" xlink:href="#未命名的渐变_62"/><linearGradient id="未命名的渐变_306-7" x1="100.02" y1="-187.94" x2="100.98" y2="-187.94" gradientTransform="matrix(1.79, 0, 0, 1.11, -159.31, 230.42)" xlink:href="#未命名的渐变_306"/><linearGradient id="未命名的渐变_306-8" x1="103.03" y1="-187.94" x2="103.99" y2="-187.94" gradientTransform="matrix(1.79, 0, 0, 1.11, -164.69, 225.04)" xlink:href="#未命名的渐变_306"/><linearGradient id="未命名的渐变_306-9" x1="99.96" y1="-233.78" x2="100.93" y2="-233.78" gradientTransform="matrix(1.79, 0, 0, 0.47, -178.69, 132.67)" xlink:href="#未命名的渐变_306"/><linearGradient id="未命名的渐变_306-10" x1="103.76" y1="-233.78" x2="104.73" y2="-233.78" gradientTransform="matrix(1.79, 0, 0, 0.47, -178.69, 132.67)" xlink:href="#未命名的渐变_306"/><linearGradient id="未命名的渐变_306-11" x1="117.95" y1="-233.78" x2="118.92" y2="-233.78" gradientTransform="matrix(1.79, 0, 0, 0.47, -178.69, 132.67)" xlink:href="#未命名的渐变_306"/><linearGradient id="未命名的渐变_306-12" x1="121.77" y1="-233.78" x2="122.73" y2="-233.78" gradientTransform="matrix(1.79, 0, 0, 0.47, -178.69, 132.67)" xlink:href="#未命名的渐变_306"/><linearGradient id="未命名的渐变_306-13" x1="20.35" y1="27.81" x2="20.35" y2="31.01" gradientTransform="matrix(1, 0, 0, 1, 0, 0)" xlink:href="#未命名的渐变_306"/><linearGradient id="未命名的渐变_376-3" x1="20.35" y1="71.39" x2="20.35" y2="79.13" xlink:href="#未命名的渐变_376"/><linearGradient id="未命名的渐变_306-14" x1="77.43" y1="-187.94" x2="78.4" y2="-187.94" gradientTransform="matrix(1.79, 0, 0, 1.11, -118.93, 270.8)" xlink:href="#未命名的渐变_306"/><linearGradient id="未命名的渐变_306-15" x1="80.44" y1="-187.94" x2="81.4" y2="-187.94" gradientTransform="matrix(1.79, 0, 0, 1.11, -124.31, 265.42)" xlink:href="#未命名的渐变_306"/><linearGradient id="未命名的渐变_306-16" x1="99.96" y1="-148.39" x2="100.93" y2="-148.39" gradientTransform="matrix(1.79, 0, 0, 0.47, -178.69, 132.67)" xlink:href="#未命名的渐变_306"/><linearGradient id="未命名的渐变_306-17" x1="103.76" y1="-148.39" x2="104.73" y2="-148.39" gradientTransform="matrix(1.79, 0, 0, 0.47, -178.69, 132.67)" xlink:href="#未命名的渐变_306"/><linearGradient id="未命名的渐变_306-18" x1="117.95" y1="-148.39" x2="118.92" y2="-148.39" gradientTransform="matrix(1.79, 0, 0, 0.47, -178.69, 132.67)" xlink:href="#未命名的渐变_306"/><linearGradient id="未命名的渐变_306-19" x1="121.77" y1="-148.39" x2="122.73" y2="-148.39" gradientTransform="matrix(1.79, 0, 0, 0.47, -178.69, 132.67)" xlink:href="#未命名的渐变_306"/><linearGradient id="未命名的渐变_306-20" x1="20.35" y1="68.19" x2="20.35" y2="71.39" gradientTransform="matrix(1, 0, 0, 1, 0, 0)" xlink:href="#未命名的渐变_306"/><linearGradient id="未命名的渐变_376-4" x1="20.35" y1="117.1" x2="20.35" y2="124.85" xlink:href="#未命名的渐变_376"/><linearGradient id="未命名的渐变_306-21" x1="51.86" y1="-187.94" x2="52.82" y2="-187.94" gradientTransform="matrix(1.79, 0, 0, 1.11, -73.22, 316.51)" xlink:href="#未命名的渐变_306"/><linearGradient id="未命名的渐变_306-22" x1="54.87" y1="-187.94" x2="55.83" y2="-187.94" gradientTransform="matrix(1.79, 0, 0, 1.11, -78.6, 311.14)" xlink:href="#未命名的渐变_306"/><linearGradient id="未命名的渐变_306-23" x1="99.96" y1="-51.71" x2="100.93" y2="-51.71" gradientTransform="matrix(1.79, 0, 0, 0.47, -178.69, 132.67)" xlink:href="#未命名的渐变_306"/><linearGradient id="未命名的渐变_306-24" x1="103.76" y1="-51.71" x2="104.73" y2="-51.71" gradientTransform="matrix(1.79, 0, 0, 0.47, -178.69, 132.67)" xlink:href="#未命名的渐变_306"/><linearGradient id="未命名的渐变_306-25" x1="117.95" y1="-51.71" x2="118.92" y2="-51.71" gradientTransform="matrix(1.79, 0, 0, 0.47, -178.69, 132.67)" xlink:href="#未命名的渐变_306"/><linearGradient id="未命名的渐变_306-26" x1="121.77" y1="-51.71" x2="122.73" y2="-51.71" gradientTransform="matrix(1.79, 0, 0, 0.47, -178.69, 132.67)" xlink:href="#未命名的渐变_306"/><linearGradient id="未命名的渐变_306-27" x1="20.35" y1="113.9" x2="20.35" y2="117.1" gradientTransform="matrix(1, 0, 0, 1, 0, 0)" xlink:href="#未命名的渐变_306"/><linearGradient id="未命名的渐变_74" x1="-380.85" y1="11.57" x2="-392.55" y2="-0.12" gradientTransform="matrix(-1, 0, 0, 1, -366.36, 0)" gradientUnits="userSpaceOnUse"><stop offset="0" stop-color="#a9b1bb"/><stop offset="0.09" stop-color="#61666b"/><stop offset="0.18" stop-color="#696e73"/><stop offset="0.32" stop-color="#7e8489"/><stop offset="0.49" stop-color="#a1a7ae"/><stop offset="0.69" stop-color="#d1d8e0"/><stop offset="0.75" stop-color="#e2eaf2"/><stop offset="0.93" stop-color="#9ba1ab"/><stop offset="1" stop-color="#767b82"/></linearGradient></defs><title>Process column 3(工艺塔3)</title><g id="图层_2" data-name="图层 2"><g id="图层_16" data-name="图层 16"><g id="Process_column_3_工艺塔3_" data-name="Process column 3(工艺塔3)"><polygon class="cls-1" points="16.81 132.64 5.06 117.1 1.73 117.1 13.48 132.64 16.81 132.64"/><polygon class="cls-2" points="16.81 132.64 5.06 117.1 1.73 117.1 13.48 132.64 16.81 132.64"/><polygon class="cls-3" points="23.89 132.64 35.64 117.1 38.98 117.1 27.23 132.64 23.89 132.64"/><polygon class="cls-2" points="23.89 132.64 35.64 117.1 38.98 117.1 27.23 132.64 23.89 132.64"/><polygon class="cls-4" points="16.81 86.92 5.06 71.39 1.73 71.39 13.48 86.92 16.81 86.92"/><polygon class="cls-2" points="16.81 86.92 5.06 71.39 1.73 71.39 13.48 86.92 16.81 86.92"/><polygon class="cls-5" points="23.89 86.92 35.64 71.39 38.98 71.39 27.23 86.92 23.89 86.92"/><polygon class="cls-2" points="23.89 86.92 35.64 71.39 38.98 71.39 27.23 86.92 23.89 86.92"/><polygon class="cls-6" points="16.81 46.55 5.06 31.01 1.73 31.01 13.48 46.55 16.81 46.55"/><polygon class="cls-2" points="16.81 46.55 5.06 31.01 1.73 31.01 13.48 46.55 16.81 46.55"/><polygon class="cls-7" points="23.89 46.55 35.64 31.01 38.98 31.01 27.23 46.55 23.89 46.55"/><polygon class="cls-2" points="23.89 46.55 35.64 31.01 38.98 31.01 27.23 46.55 23.89 46.55"/><polyline class="cls-8" points="31.44 6.32 31.44 150 9.24 150 9.24 6.32"/><rect class="cls-9" x="9.27" y="31.01" width="22.17" height="7.75"/><rect class="cls-10" x="9.27" y="6.32" width="22.17" height="7.64"/><rect class="cls-11" x="22.88" y="10.64" width="0.57" height="59.59" rx="0.28"/><rect class="cls-12" x="28.02" y="10.64" width="0.57" height="59.59" rx="0.28"/><rect class="cls-13" x="25.43" y="11.33" width="0.57" height="5.67" rx="0.28" transform="matrix(0, -1, 1, 0, 11.55, 39.89)"/><rect class="cls-14" x="25.43" y="15.05" width="0.57" height="5.67" rx="0.28" transform="matrix(0, -1, 1, 0, 7.83, 43.6)"/><rect class="cls-15" x="25.43" y="18.76" width="0.57" height="5.67" rx="0.28" transform="matrix(0, -1, 1, 0, 4.12, 47.31)"/><rect class="cls-16" x="25.43" y="22.48" width="0.57" height="5.67" rx="0.28" transform="matrix(0, -1, 1, 0, 0.41, 51.03)"/><rect class="cls-17" x="25.43" y="26.19" width="0.57" height="5.67" rx="0.28" transform="matrix(0, -1, 1, 0, -3.31, 54.74)"/><rect class="cls-18" x="25.43" y="29.9" width="0.57" height="5.67" rx="0.28" transform="matrix(0, -1, 1, 0, -7.02, 58.46)"/><rect class="cls-19" x="25.43" y="33.62" width="0.57" height="5.67" rx="0.28" transform="matrix(0, -1, 1, 0, -10.74, 62.17)"/><rect class="cls-20" x="25.43" y="37.33" width="0.57" height="5.67" rx="0.28" transform="matrix(0, -1, 1, 0, -14.45, 65.89)"/><rect class="cls-21" x="25.43" y="41.05" width="0.57" height="5.67" rx="0.28" transform="matrix(0, -1, 1, 0, -18.17, 69.6)"/><rect class="cls-22" x="25.43" y="44.76" width="0.57" height="5.67" rx="0.28" transform="matrix(0, -1, 1, 0, -21.88, 73.31)"/><rect class="cls-23" x="25.43" y="48.48" width="0.57" height="5.67" rx="0.28" transform="translate(-25.59 77.03) rotate(-90)"/><rect class="cls-24" x="25.43" y="52.19" width="0.57" height="5.67" rx="0.28" transform="matrix(0, -1, 1, 0, -29.31, 80.74)"/><rect class="cls-25" x="25.43" y="55.9" width="0.57" height="5.67" rx="0.28" transform="matrix(0, -1, 1, 0, -33.02, 84.46)"/><rect class="cls-26" x="25.43" y="59.62" width="0.57" height="5.67" rx="0.28" transform="matrix(0, -1, 1, 0, -36.74, 88.17)"/><rect class="cls-27" x="25.43" y="63.33" width="0.57" height="5.67" rx="0.28" transform="matrix(0, -1, 1, 0, -40.45, 91.89)"/><rect class="cls-28" x="25.46" y="8.08" width="0.57" height="5.7" rx="0.28" transform="translate(14.81 36.67) rotate(-90)"/><rect class="cls-29" x="22.88" y="89.4" width="0.57" height="59.59" rx="0.28"/><rect class="cls-30" x="28.02" y="89.4" width="0.57" height="59.59" rx="0.28"/><rect class="cls-31" x="25.43" y="90.09" width="0.57" height="5.67" rx="0.28" transform="matrix(0, -1, 1, 0, -67.21, 118.64)"/><rect class="cls-32" x="25.43" y="93.81" width="0.57" height="5.67" rx="0.28" transform="translate(-70.93 122.36) rotate(-90)"/><rect class="cls-33" x="25.43" y="97.52" width="0.57" height="5.67" rx="0.28" transform="matrix(0, -1, 1, 0, -74.64, 126.07)"/><rect class="cls-34" x="25.43" y="101.23" width="0.57" height="5.67" rx="0.28" transform="matrix(0, -1, 1, 0, -78.35, 129.79)"/><rect class="cls-35" x="25.43" y="104.95" width="0.57" height="5.67" rx="0.28" transform="matrix(0, -1, 1, 0, -82.07, 133.5)"/><rect class="cls-36" x="25.43" y="108.66" width="0.57" height="5.67" rx="0.28" transform="translate(-85.78 137.22) rotate(-90)"/><rect class="cls-37" x="25.43" y="112.38" width="0.57" height="5.67" rx="0.28" transform="matrix(0, -1, 1, 0, -89.5, 140.93)"/><rect class="cls-38" x="25.43" y="116.09" width="0.57" height="5.67" rx="0.28" transform="matrix(0, -1, 1, 0, -93.21, 144.64)"/><rect class="cls-39" x="25.43" y="119.81" width="0.57" height="5.67" rx="0.28" transform="matrix(0, -1, 1, 0, -96.93, 148.36)"/><rect class="cls-40" x="25.43" y="123.52" width="0.57" height="5.67" rx="0.28" transform="matrix(0, -1, 1, 0, -100.64, 152.07)"/><rect class="cls-41" x="25.43" y="127.23" width="0.57" height="5.67" rx="0.28" transform="matrix(0, -1, 1, 0, -104.35, 155.79)"/><rect class="cls-42" x="25.43" y="130.95" width="0.57" height="5.67" rx="0.28" transform="matrix(0, -1, 1, 0, -108.07, 159.5)"/><rect class="cls-43" x="25.43" y="134.66" width="0.57" height="5.67" rx="0.28" transform="matrix(0, -1, 1, 0, -111.78, 163.22)"/><rect class="cls-44" x="25.43" y="138.38" width="0.57" height="5.67" rx="0.28" transform="matrix(0, -1, 1, 0, -115.5, 166.93)"/><rect class="cls-45" x="25.43" y="142.09" width="0.57" height="5.67" rx="0.28" transform="matrix(0, -1, 1, 0, -119.21, 170.64)"/><rect class="cls-46" x="25.46" y="86.84" width="0.57" height="5.7" rx="0.28" transform="translate(-63.95 115.43) rotate(-90)"/><rect class="cls-47" x="19.49" y="2.34" width="1.73" height="40.71" transform="translate(-2.34 43.04) rotate(-90)"/><rect class="cls-48" x="19.49" y="-3.04" width="1.73" height="40.71" transform="translate(3.04 37.66) rotate(-90)"/><rect class="cls-49" y="16.45" width="1.73" height="11.37"/><rect class="cls-50" x="6.79" y="16.45" width="1.73" height="11.37"/><rect class="cls-51" x="32.16" y="16.45" width="1.73" height="11.37"/><rect class="cls-52" x="38.98" y="16.45" width="1.73" height="11.37"/><rect class="cls-53" y="27.81" width="40.71" height="3.2"/><rect class="cls-54" x="18.83" y="31.01" width="3.05" height="10.43"/><rect class="cls-55" x="9.27" y="71.39" width="22.17" height="7.75"/><rect class="cls-56" x="19.49" y="42.71" width="1.73" height="40.71" transform="translate(-42.71 83.42) rotate(-90)"/><rect class="cls-57" x="19.49" y="37.34" width="1.73" height="40.71" transform="translate(-37.33 78.04) rotate(-90)"/><rect class="cls-58" y="56.82" width="1.73" height="11.37"/><rect class="cls-59" x="6.79" y="56.82" width="1.73" height="11.37"/><rect class="cls-60" x="32.16" y="56.82" width="1.73" height="11.37"/><rect class="cls-61" x="38.98" y="56.82" width="1.73" height="11.37"/><rect class="cls-62" y="68.19" width="40.71" height="3.2"/><rect class="cls-54" x="18.83" y="71.39" width="3.05" height="10.43"/><rect class="cls-63" x="9.27" y="117.1" width="22.17" height="7.75"/><rect class="cls-64" x="19.49" y="88.43" width="1.73" height="40.71" transform="translate(-88.43 129.13) rotate(-90)"/><rect class="cls-65" x="19.49" y="83.05" width="1.73" height="40.71" transform="translate(-83.05 123.76) rotate(-90)"/><rect class="cls-66" y="102.54" width="1.73" height="11.37"/><rect class="cls-67" x="6.79" y="102.54" width="1.73" height="11.37"/><rect class="cls-68" x="32.16" y="102.54" width="1.73" height="11.37"/><rect class="cls-69" x="38.98" y="102.54" width="1.73" height="11.37"/><rect class="cls-70" y="113.9" width="40.71" height="3.2"/><rect class="cls-54" x="18.83" y="117.1" width="3.05" height="10.43"/><path class="cls-71" d="M9.24,6.32S10.78,0,20.34,0s11.1,6.32,11.1,6.32Z"/></g></g></g></svg>