<svg xmlns="http://www.w3.org/2000/svg" xmlns:xlink="http://www.w3.org/1999/xlink" viewBox="0 0 29.23 150"><defs><style>.cls-1{fill:url(#未命名的渐变_60);}.cls-2{fill:url(#未命名的渐变_40);}.cls-3{fill:#45484d;}.cls-4{fill:url(#未命名的渐变_34);}.cls-5{fill:url(#未命名的渐变_34-2);}.cls-6{opacity:0.4;fill:url(#未命名的渐变_376);}.cls-7{fill:url(#未命名的渐变_60-2);}.cls-8{fill:url(#未命名的渐变_60-3);}.cls-9{fill:url(#未命名的渐变_60-4);}.cls-10{fill:url(#未命名的渐变_60-5);}.cls-11{fill:url(#未命名的渐变_60-6);}.cls-12{fill:url(#未命名的渐变_60-7);}.cls-13{fill:url(#未命名的渐变_60-8);}.cls-14{fill:url(#未命名的渐变_60-9);}.cls-15{fill:url(#未命名的渐变_60-10);}.cls-16{fill:url(#未命名的渐变_60-11);}.cls-17{fill:url(#未命名的渐变_60-12);}.cls-18{fill:url(#未命名的渐变_60-13);}.cls-19{fill:url(#未命名的渐变_60-14);}.cls-20{fill:url(#未命名的渐变_60-15);}.cls-21{fill:url(#未命名的渐变_60-16);}.cls-22{fill:url(#未命名的渐变_60-17);}.cls-23{fill:url(#未命名的渐变_60-18);}.cls-24{fill:url(#未命名的渐变_60-19);}.cls-25{fill:url(#未命名的渐变_60-20);}.cls-26{fill:url(#未命名的渐变_60-21);}.cls-27{fill:url(#未命名的渐变_60-22);}.cls-28{fill:url(#未命名的渐变_60-23);}.cls-29{fill:url(#未命名的渐变_60-24);}.cls-30{fill:url(#未命名的渐变_60-25);}.cls-31{fill:url(#未命名的渐变_58);}.cls-32{fill:url(#未命名的渐变_58-2);}.cls-33{fill:url(#未命名的渐变_58-3);}.cls-34{fill:url(#未命名的渐变_58-4);}.cls-35{fill:url(#未命名的渐变_58-5);}.cls-36{fill:url(#未命名的渐变_58-6);}.cls-37{fill:url(#未命名的渐变_306);}.cls-38{fill:#fff;opacity:0.5;}.cls-39{fill:url(#未命名的渐变_306-2);}.cls-40{fill:url(#未命名的渐变_60-26);}.cls-41{fill:url(#未命名的渐变_72);}.cls-42{fill:url(#未命名的渐变_72-2);}.cls-43{fill:url(#未命名的渐变_72-3);}</style><linearGradient id="未命名的渐变_60" x1="13.82" y1="8.23" x2="18.93" y2="8.23" gradientUnits="userSpaceOnUse"><stop offset="0" stop-color="#a9b1bb"/><stop offset="0.06" stop-color="#5d6166"/><stop offset="0.78" stop-color="#eef7ff"/><stop offset="0.93" stop-color="#9ba1ab"/><stop offset="1" stop-color="#767b82"/></linearGradient><linearGradient id="未命名的渐变_40" x1="0.69" y1="75" x2="5.8" y2="75" gradientUnits="userSpaceOnUse"><stop offset="0" stop-color="#767b82"/><stop offset="0.07" stop-color="#9ba1ab"/><stop offset="0.22" stop-color="#eef7ff"/><stop offset="0.94" stop-color="#5d6166"/><stop offset="1" stop-color="#a9b1bb"/></linearGradient><linearGradient id="未命名的渐变_34" x1="90.36" y1="160.99" x2="69.19" y2="160.99" gradientTransform="matrix(-1, 0, 0, 1, 96.16, -76)" gradientUnits="userSpaceOnUse"><stop offset="0" stop-color="#a9b1bb"/><stop offset="0.09" stop-color="#61666b"/><stop offset="0.19" stop-color="#696e73"/><stop offset="0.33" stop-color="#7e8489"/><stop offset="0.51" stop-color="#a1a7ae"/><stop offset="0.72" stop-color="#d1d8e0"/><stop offset="0.78" stop-color="#e2eaf2"/><stop offset="0.93" stop-color="#9ba1ab"/><stop offset="1" stop-color="#767b82"/></linearGradient><linearGradient id="未命名的渐变_34-2" x1="11.17" y1="25.24" x2="0.41" y2="14.47" gradientTransform="matrix(-1, 0, 0, 1, 22.16, 0)" xlink:href="#未命名的渐变_34"/><linearGradient id="未命名的渐变_376" x1="5.77" y1="20.02" x2="5.77" y2="28.66" gradientTransform="matrix(-1, 0, 0, 1, 22.16, 0)" gradientUnits="userSpaceOnUse"><stop offset="0" stop-color="#2e3033"/><stop offset="1" stop-color="#9ba1ab" stop-opacity="0"/></linearGradient><linearGradient id="未命名的渐变_60-2" x1="858.8" y1="-289.74" x2="859.73" y2="-289.74" gradientTransform="matrix(0.63, 0, 0, -0.93, -509.99, -179.15)" xlink:href="#未命名的渐变_60"/><linearGradient id="未命名的渐变_60-3" x1="852.55" y1="-12011.39" x2="853.47" y2="-12011.39" gradientTransform="matrix(0.63, 0, 0, -0.02, -506.99, -160.11)" xlink:href="#未命名的渐变_60"/><linearGradient id="未命名的渐变_60-4" x1="860.09" y1="-12011.43" x2="861.02" y2="-12011.43" gradientTransform="matrix(0.63, 0, 0, -0.02, -511.72, -155.38)" xlink:href="#未命名的渐变_60"/><linearGradient id="未命名的渐变_60-5" x1="868.01" y1="-12011.46" x2="868.94" y2="-12011.46" gradientTransform="matrix(0.63, 0, 0, -0.02, -516.69, -150.41)" xlink:href="#未命名的渐变_60"/><linearGradient id="未命名的渐变_60-6" x1="875.93" y1="-12011.5" x2="876.85" y2="-12011.5" gradientTransform="matrix(0.63, 0, 0, -0.02, -521.65, -145.45)" xlink:href="#未命名的渐变_60"/><linearGradient id="未命名的渐变_60-7" x1="883.84" y1="-12011.53" x2="884.77" y2="-12011.53" gradientTransform="matrix(0.63, 0, 0, -0.02, -526.62, -140.48)" xlink:href="#未命名的渐变_60"/><linearGradient id="未命名的渐变_60-8" x1="891.76" y1="-12011.57" x2="892.68" y2="-12011.57" gradientTransform="matrix(0.63, 0, 0, -0.02, -531.58, -135.52)" xlink:href="#未命名的渐变_60"/><linearGradient id="未命名的渐变_60-9" x1="899.68" y1="-12011.61" x2="900.6" y2="-12011.61" gradientTransform="matrix(0.63, 0, 0, -0.02, -536.55, -130.55)" xlink:href="#未命名的渐变_60"/><linearGradient id="未命名的渐变_60-10" x1="907.59" y1="-12011.64" x2="908.52" y2="-12011.64" gradientTransform="matrix(0.63, 0, 0, -0.02, -541.51, -125.59)" xlink:href="#未命名的渐变_60"/><linearGradient id="未命名的渐变_60-11" x1="915.51" y1="-12011.68" x2="916.43" y2="-12011.68" gradientTransform="matrix(0.63, 0, 0, -0.02, -546.48, -120.62)" xlink:href="#未命名的渐变_60"/><linearGradient id="未命名的渐变_60-12" x1="923.43" y1="-12011.71" x2="924.35" y2="-12011.71" gradientTransform="matrix(0.63, 0, 0, -0.02, -551.44, -115.66)" xlink:href="#未命名的渐变_60"/><linearGradient id="未命名的渐变_60-13" x1="931.34" y1="-12011.75" x2="932.27" y2="-12011.75" gradientTransform="matrix(0.63, 0, 0, -0.02, -556.41, -110.69)" xlink:href="#未命名的渐变_60"/><linearGradient id="未命名的渐变_60-14" x1="939.26" y1="-12011.79" x2="940.18" y2="-12011.79" gradientTransform="matrix(0.63, 0, 0, -0.02, -561.37, -105.73)" xlink:href="#未命名的渐变_60"/><linearGradient id="未命名的渐变_60-15" x1="947.18" y1="-12011.82" x2="948.1" y2="-12011.82" gradientTransform="matrix(0.63, 0, 0, -0.02, -566.34, -100.77)" xlink:href="#未命名的渐变_60"/><linearGradient id="未命名的渐变_60-16" x1="955.09" y1="-12011.86" x2="956.02" y2="-12011.86" gradientTransform="matrix(0.63, 0, 0, -0.02, -571.3, -95.8)" xlink:href="#未命名的渐变_60"/><linearGradient id="未命名的渐变_60-17" x1="963.01" y1="-12011.89" x2="963.93" y2="-12011.89" gradientTransform="matrix(0.63, 0, 0, -0.02, -576.27, -90.84)" xlink:href="#未命名的渐变_60"/><linearGradient id="未命名的渐变_60-18" x1="970.92" y1="-12011.93" x2="971.85" y2="-12011.93" gradientTransform="matrix(0.63, 0, 0, -0.02, -581.23, -85.87)" xlink:href="#未命名的渐变_60"/><linearGradient id="未命名的渐变_60-19" x1="978.84" y1="-12011.96" x2="979.76" y2="-12011.96" gradientTransform="matrix(0.63, 0, 0, -0.02, -586.2, -80.91)" xlink:href="#未命名的渐变_60"/><linearGradient id="未命名的渐变_60-20" x1="986.76" y1="-12012" x2="987.68" y2="-12012" gradientTransform="matrix(0.63, 0, 0, -0.02, -591.16, -75.94)" xlink:href="#未命名的渐变_60"/><linearGradient id="未命名的渐变_60-21" x1="994.67" y1="-12012.04" x2="995.6" y2="-12012.04" gradientTransform="matrix(0.63, 0, 0, -0.02, -596.13, -70.98)" xlink:href="#未命名的渐变_60"/><linearGradient id="未命名的渐变_60-22" x1="1002.59" y1="-12012.07" x2="1003.51" y2="-12012.07" gradientTransform="matrix(0.63, 0, 0, -0.02, -601.09, -66.01)" xlink:href="#未命名的渐变_60"/><linearGradient id="未命名的渐变_60-23" x1="1010.51" y1="-12012.11" x2="1011.43" y2="-12012.11" gradientTransform="matrix(0.63, 0, 0, -0.02, -606.06, -61.05)" xlink:href="#未命名的渐变_60"/><linearGradient id="未命名的渐变_60-24" x1="1018.42" y1="-12012.14" x2="1019.35" y2="-12012.14" gradientTransform="matrix(0.63, 0, 0, -0.02, -611.02, -56.08)" xlink:href="#未命名的渐变_60"/><linearGradient id="未命名的渐变_60-25" x1="1026.34" y1="-12012.18" x2="1027.26" y2="-12012.18" gradientTransform="matrix(0.63, 0, 0, -0.02, -615.99, -51.12)" xlink:href="#未命名的渐变_60"/><linearGradient id="未命名的渐变_58" x1="5.47" y1="13.54" x2="5.47" y2="15.42" gradientTransform="translate(10.91)" gradientUnits="userSpaceOnUse"><stop offset="0" stop-color="#45484d"/><stop offset="0.04" stop-color="#abafb3"/><stop offset="0.09" stop-color="#747880"/><stop offset="0.92" stop-color="#747880"/><stop offset="1" stop-color="#45484d"/></linearGradient><linearGradient id="未命名的渐变_58-2" x1="5.47" y1="10.12" x2="5.47" y2="11.15" xlink:href="#未命名的渐变_58"/><linearGradient id="未命名的渐变_58-3" x1="6.84" y1="17.23" x2="6.84" y2="18.68" gradientTransform="translate(0.96 -7.53)" xlink:href="#未命名的渐变_58"/><linearGradient id="未命名的渐变_58-4" x1="6.84" y1="8.66" x2="6.84" y2="10.1" gradientTransform="translate(9.54 1.05)" xlink:href="#未命名的渐变_58"/><linearGradient id="未命名的渐变_58-5" x1="6.84" y1="0.08" x2="6.84" y2="1.53" gradientTransform="translate(18.11 9.63)" xlink:href="#未命名的渐变_58"/><linearGradient id="未命名的渐变_58-6" x1="5.47" y1="7.32" x2="5.47" y2="8.34" xlink:href="#未命名的渐变_58"/><linearGradient id="未命名的渐变_306" x1="14.13" y1="14.51" x2="14.13" y2="16.6" gradientTransform="translate(-3.93 2.16)" gradientUnits="userSpaceOnUse"><stop offset="0.02" stop-color="#767b82"/><stop offset="0.04" stop-color="#d7dce0"/><stop offset="0.09" stop-color="#9ba1ab"/><stop offset="0.92" stop-color="#9ba1ab"/><stop offset="1" stop-color="#767b82"/></linearGradient><linearGradient id="未命名的渐变_306-2" x1="14.13" y1="2.12" x2="14.13" y2="4.21" gradientTransform="translate(8.46 14.55)" xlink:href="#未命名的渐变_306"/><linearGradient id="未命名的渐变_60-26" x1="9.81" y1="5.11" x2="9.81" y2="0" xlink:href="#未命名的渐变_60"/><linearGradient id="未命名的渐变_72" x1="6.68" y1="25.89" x2="0" y2="25.89" gradientUnits="userSpaceOnUse"><stop offset="0" stop-color="#454a4d"/><stop offset="0.09" stop-color="#46494d"/><stop offset="0.17" stop-color="#505357"/><stop offset="0.31" stop-color="#6a6e73"/><stop offset="0.5" stop-color="#959aa0"/><stop offset="0.72" stop-color="#cfd6de"/><stop offset="0.78" stop-color="#e2eaf2"/><stop offset="0.93" stop-color="#9ba1ab"/><stop offset="1" stop-color="#767b82"/></linearGradient><linearGradient id="未命名的渐变_72-2" x1="6.68" y1="63.92" y2="63.92" xlink:href="#未命名的渐变_72"/><linearGradient id="未命名的渐变_72-3" x1="6.68" y1="125.26" y2="125.26" xlink:href="#未命名的渐变_72"/></defs><title>Process column 2(工艺塔2)</title><g id="图层_2" data-name="图层 2"><g id="图层_16" data-name="图层 16"><g id="Process_column_2_工艺塔2_" data-name="Process column 2(工艺塔2)"><rect class="cls-1" x="13.82" width="5.11" height="16.46" rx="2.56"/><path class="cls-2" d="M3.25,0h0A2.56,2.56,0,0,1,5.8,2.56V150a0,0,0,0,1,0,0H.69a0,0,0,0,1,0,0V2.56A2.56,2.56,0,0,1,3.25,0Z"/><polygon class="cls-3" points="20.44 18.01 12.31 18.01 9.12 15.42 23.63 15.42 20.44 18.01"/><polyline class="cls-4" points="5.8 19.97 5.8 150 26.98 150 26.98 19.97"/><path class="cls-5" d="M5.77,20s1.48-4,10.61-4S27,20,27,20Z"/><rect class="cls-6" x="5.77" y="20.02" width="21.23" height="8.64"/><rect class="cls-7" x="28.65" y="33.78" width="0.58" height="114.9" rx="0.29" transform="translate(57.87 182.46) rotate(-180)"/><rect class="cls-8" x="27.68" y="32.81" width="0.58" height="2.53" rx="0.29" transform="translate(62.03 6.1) rotate(89.99)"/><rect class="cls-9" x="27.68" y="37.54" width="0.58" height="2.53" rx="0.29" transform="translate(66.76 10.83) rotate(89.99)"/><rect class="cls-10" x="27.68" y="42.5" width="0.58" height="2.53" rx="0.29" transform="translate(71.73 15.8) rotate(89.99)"/><rect class="cls-11" x="27.68" y="47.47" width="0.58" height="2.53" rx="0.29" transform="translate(76.69 20.76) rotate(89.99)"/><rect class="cls-12" x="27.68" y="52.43" width="0.58" height="2.53" rx="0.29" transform="translate(81.66 25.73) rotate(89.99)"/><rect class="cls-13" x="27.68" y="57.4" width="0.58" height="2.53" rx="0.29" transform="translate(86.63 30.69) rotate(89.99)"/><rect class="cls-14" x="27.68" y="62.36" width="0.58" height="2.53" rx="0.29" transform="translate(91.59 35.66) rotate(89.99)"/><rect class="cls-15" x="27.68" y="67.33" width="0.58" height="2.53" rx="0.29" transform="translate(96.56 40.62) rotate(89.99)"/><rect class="cls-16" x="27.68" y="72.29" width="0.58" height="2.53" rx="0.29" transform="translate(101.52 45.58) rotate(89.99)"/><rect class="cls-17" x="27.68" y="77.26" width="0.58" height="2.53" rx="0.29" transform="translate(106.49 50.55) rotate(89.99)"/><rect class="cls-18" x="27.68" y="82.22" width="0.58" height="2.53" rx="0.29" transform="translate(111.45 55.51) rotate(89.99)"/><rect class="cls-19" x="27.68" y="87.19" width="0.58" height="2.53" rx="0.29" transform="translate(116.42 60.48) rotate(89.99)"/><rect class="cls-20" x="27.68" y="92.15" width="0.58" height="2.53" rx="0.29" transform="translate(121.38 65.44) rotate(89.99)"/><rect class="cls-21" x="27.68" y="97.12" width="0.58" height="2.53" rx="0.29" transform="translate(126.35 70.41) rotate(89.99)"/><rect class="cls-22" x="27.68" y="102.08" width="0.58" height="2.53" rx="0.29" transform="translate(131.31 75.37) rotate(89.99)"/><rect class="cls-23" x="27.68" y="107.05" width="0.58" height="2.53" rx="0.29" transform="translate(136.28 80.34) rotate(89.99)"/><rect class="cls-24" x="27.68" y="112.02" width="0.58" height="2.53" rx="0.29" transform="translate(141.24 85.3) rotate(89.99)"/><rect class="cls-25" x="27.68" y="116.98" width="0.58" height="2.53" rx="0.29" transform="translate(146.21 90.27) rotate(89.99)"/><rect class="cls-26" x="27.68" y="121.95" width="0.58" height="2.53" rx="0.29" transform="translate(151.17 95.23) rotate(89.99)"/><rect class="cls-27" x="27.68" y="126.91" width="0.58" height="2.53" rx="0.29" transform="translate(156.14 100.19) rotate(89.99)"/><rect class="cls-28" x="27.68" y="131.88" width="0.58" height="2.53" rx="0.29" transform="translate(161.1 105.16) rotate(89.99)"/><rect class="cls-29" x="27.68" y="136.84" width="0.58" height="2.53" rx="0.29" transform="translate(166.07 110.12) rotate(89.99)"/><rect class="cls-30" x="27.68" y="141.81" width="0.58" height="2.53" rx="0.29" transform="translate(171.03 115.09) rotate(89.99)"/><rect class="cls-31" x="7.07" y="13.54" width="18.6" height="1.87"/><rect class="cls-32" x="7.07" y="10.12" width="18.6" height="1.02"/><rect class="cls-33" x="4.68" y="9.7" width="6.23" height="1.45" transform="translate(18.22 2.63) rotate(90)"/><rect class="cls-34" x="13.26" y="9.7" width="6.23" height="1.45" transform="translate(26.8 -5.94) rotate(90)"/><rect class="cls-35" x="21.84" y="9.7" width="6.23" height="1.45" transform="translate(35.38 -14.52) rotate(90)"/><rect class="cls-36" x="7.07" y="7.32" width="18.6" height="1.02"/><rect class="cls-37" x="7.9" y="16.68" width="4.6" height="2.08" transform="translate(27.92 7.52) rotate(90)"/><rect class="cls-38" x="7.9" y="16.68" width="4.6" height="2.08" transform="translate(27.92 7.52) rotate(90)"/><rect class="cls-39" x="20.29" y="16.68" width="4.6" height="2.08" transform="translate(40.31 -4.87) rotate(90)"/><rect class="cls-38" x="20.29" y="16.68" width="4.6" height="2.08" transform="translate(40.31 -4.87) rotate(90)"/><rect class="cls-40" x="0.69" width="18.24" height="5.11" rx="2.56"/><rect class="cls-41" y="24.34" width="6.68" height="3.09"/><rect class="cls-42" y="62.38" width="6.68" height="3.09"/><rect class="cls-43" y="123.71" width="6.68" height="3.09"/></g></g></g></svg>