<svg xmlns="http://www.w3.org/2000/svg" viewBox="0 0 150 19.89"><defs><style>.cls-1{fill:#ffec00;}</style></defs><title>OSHA tape （oasa胶带） (3)</title><g id="图层_2" data-name="图层 2"><g id="图层_28" data-name="图层 28"><g id="OSHA_tape_oasa胶带_" data-name="OSHA tape （oasa胶带）"><rect class="cls-1" width="150" height="19.89"/><polygon points="77.97 0 65.76 0 51.85 19.89 64.05 19.89 77.97 0"/><polygon points="56.59 0 44.77 0 30.85 19.89 42.68 19.89 56.59 0"/><polygon points="99.32 0 87.14 0 73.22 19.89 85.41 19.89 99.32 0"/><polygon points="9.85 19.89 21.68 19.89 35.59 0 23.77 0 9.85 19.89"/><polygon points="14.6 0 0 0 0 19.89 0.68 19.89 14.6 0"/><polygon points="136.96 19.89 150 19.89 150 1.25 136.96 19.89"/><polygon points="120.25 0 108.49 0 94.58 19.89 106.33 19.89 120.25 0"/><polygon points="141.71 0 129.42 0 115.5 19.89 127.79 19.89 141.71 0"/></g></g></g></svg>