<svg xmlns="http://www.w3.org/2000/svg" xmlns:xlink="http://www.w3.org/1999/xlink" viewBox="0 0 150 114.28"><defs><style>.cls-1{fill:url(#未命名的渐变_9);}.cls-2{fill:url(#未命名的渐变_67);}.cls-3{fill:url(#未命名的渐变_67-2);}.cls-4{fill:url(#未命名的渐变_67-3);}.cls-5{fill:url(#未命名的渐变_67-4);}.cls-6{fill:url(#未命名的渐变_9-2);}.cls-7{fill:url(#未命名的渐变_14);}.cls-8{fill:url(#未命名的渐变_67-5);}.cls-9{fill:url(#未命名的渐变_67-6);}.cls-10{fill:url(#未命名的渐变_67-7);}.cls-11{fill:url(#未命名的渐变_67-8);}.cls-12{fill:url(#未命名的渐变_67-9);}.cls-13{fill:url(#未命名的渐变_67-10);}.cls-14{fill:url(#未命名的渐变_16);}.cls-15{fill:url(#未命名的渐变_9-3);}.cls-16{fill:url(#未命名的渐变_16-2);}.cls-17{fill:url(#未命名的渐变_67-11);}.cls-18{fill:url(#未命名的渐变_67-12);}.cls-19{fill:url(#未命名的渐变_67-13);}.cls-20{fill:url(#未命名的渐变_67-14);}.cls-21{fill:url(#未命名的渐变_67-15);}.cls-22{fill:url(#未命名的渐变_67-16);}.cls-23{fill:url(#未命名的渐变_67-17);}</style><linearGradient id="未命名的渐变_9" x1="75" y1="110.43" x2="75" y2="59.9" gradientUnits="userSpaceOnUse"><stop offset="0" stop-color="#8e8e8e"/><stop offset="0.02" stop-color="#878989"/><stop offset="0.06" stop-color="#808484"/><stop offset="0.28" stop-color="#a3a6a6"/><stop offset="0.81" stop-color="#f6f6f6"/><stop offset="0.86" stop-color="#f3f3f3"/><stop offset="0.89" stop-color="#eaeaea"/><stop offset="0.91" stop-color="#dbdbdb"/><stop offset="0.94" stop-color="#c5c5c5"/><stop offset="0.96" stop-color="#aaa"/><stop offset="0.98" stop-color="#888"/><stop offset="1" stop-color="#666"/></linearGradient><linearGradient id="未命名的渐变_67" x1="2" y1="69.56" x2="2" y2="59.6" gradientUnits="userSpaceOnUse"><stop offset="0" stop-color="#6b6b6b"/><stop offset="0.11" stop-color="#767676"/><stop offset="0.3" stop-color="#959595"/><stop offset="0.41" stop-color="#aaa"/><stop offset="0.56" stop-color="#ccc"/><stop offset="0.71" stop-color="#eaeaea"/><stop offset="0.8" stop-color="#f6f6f6"/><stop offset="0.83" stop-color="#ededed"/><stop offset="0.87" stop-color="#d4d4d4"/><stop offset="0.92" stop-color="#ababab"/><stop offset="0.98" stop-color="#737373"/><stop offset="0.99" stop-color="#666"/></linearGradient><linearGradient id="未命名的渐变_67-2" x1="2" y1="90.1" x2="2" y2="80.13" xlink:href="#未命名的渐变_67"/><linearGradient id="未命名的渐变_67-3" x1="2" y1="110.63" x2="2" y2="100.66" xlink:href="#未命名的渐变_67"/><linearGradient id="未命名的渐变_67-4" x1="272.69" y1="-47.16" x2="268.68" y2="-47.16" gradientTransform="translate(-496.86 60) scale(1.99 1.09)" xlink:href="#未命名的渐变_67"/><linearGradient id="未命名的渐变_9-2" x1="12.81" y1="114.28" x2="12.81" y2="55.94" xlink:href="#未命名的渐变_9"/><linearGradient id="未命名的渐变_14" x1="65.4" y1="53.56" x2="89.03" y2="30.08" gradientUnits="userSpaceOnUse"><stop offset="0" stop-color="#6b6b6b"/><stop offset="0.11" stop-color="#767676"/><stop offset="0.3" stop-color="#959595"/><stop offset="0.41" stop-color="#aaa"/><stop offset="0.56" stop-color="#ccc"/><stop offset="0.71" stop-color="#eaeaea"/><stop offset="0.8" stop-color="#f6f6f6"/><stop offset="0.82" stop-color="#ededed"/><stop offset="0.86" stop-color="#d4d4d4"/><stop offset="0.91" stop-color="#ababab"/><stop offset="0.97" stop-color="#737373"/><stop offset="0.98" stop-color="#666"/></linearGradient><linearGradient id="未命名的渐变_67-5" x1="148" y1="69.56" x2="148" y2="59.6" xlink:href="#未命名的渐变_67"/><linearGradient id="未命名的渐变_67-6" x1="148" y1="90.1" x2="148" y2="80.13" xlink:href="#未命名的渐变_67"/><linearGradient id="未命名的渐变_67-7" x1="148" y1="110.63" x2="148" y2="100.66" xlink:href="#未命名的渐变_67"/><linearGradient id="未命名的渐变_67-8" x1="12.81" y1="114.28" x2="12.81" y2="55.94" xlink:href="#未命名的渐变_67"/><linearGradient id="未命名的渐变_67-9" x1="156.78" y1="254.37" x2="156.78" y2="203.34" gradientTransform="translate(-435.89 -136.77) scale(3.14 0.69)" xlink:href="#未命名的渐变_67"/><linearGradient id="未命名的渐变_67-10" x1="96.25" y1="254.24" x2="96.25" y2="203.21" gradientTransform="translate(-141.29 -142.38) scale(1.99 0.69)" xlink:href="#未命名的渐变_67"/><linearGradient id="未命名的渐变_16" x1="127.59" y1="110.43" x2="127.59" y2="59.65" gradientUnits="userSpaceOnUse"><stop offset="0" stop-color="#6b6b6b"/><stop offset="0.11" stop-color="#767676"/><stop offset="0.3" stop-color="#959595"/><stop offset="0.41" stop-color="#aaa"/><stop offset="0.59" stop-color="#909090"/><stop offset="0.85" stop-color="#727272"/><stop offset="0.99" stop-color="#666"/></linearGradient><linearGradient id="未命名的渐变_9-3" x1="137.19" y1="114.28" x2="137.19" y2="55.94" xlink:href="#未命名的渐变_9"/><linearGradient id="未命名的渐变_16-2" x1="22.41" y1="110.5" x2="22.41" y2="59.65" xlink:href="#未命名的渐变_16"/><linearGradient id="未命名的渐变_67-11" x1="23.61" y1="69.56" x2="23.61" y2="59.9" xlink:href="#未命名的渐变_67"/><linearGradient id="未命名的渐变_67-12" x1="23.61" y1="90.1" x2="23.61" y2="80.13" xlink:href="#未命名的渐变_67"/><linearGradient id="未命名的渐变_67-13" x1="23.61" y1="110.43" x2="23.61" y2="100.66" xlink:href="#未命名的渐变_67"/><linearGradient id="未命名的渐变_67-14" x1="126.39" y1="69.56" x2="126.39" y2="59.6" xlink:href="#未命名的渐变_67"/><linearGradient id="未命名的渐变_67-15" x1="126.39" y1="90.1" x2="126.39" y2="80.13" xlink:href="#未命名的渐变_67"/><linearGradient id="未命名的渐变_67-16" x1="126.39" y1="110.43" x2="126.39" y2="100.66" xlink:href="#未命名的渐变_67"/><linearGradient id="未命名的渐变_67-17" x1="137.08" y1="114.28" x2="137.08" y2="55.94" xlink:href="#未命名的渐变_67"/></defs><title>Check valve - horizontal（水平单向阀）</title><g id="图层_2" data-name="图层 2"><g id="图层_23" data-name="图层 23"><g id="Check_valve_-_horizontal_水平单向阀_" data-name="Check valve - horizontal（水平单向阀）"><rect class="cls-1" x="21.61" y="59.9" width="106.78" height="50.52"/><rect class="cls-2" y="59.6" width="4.01" height="9.97"/><rect class="cls-3" y="80.13" width="4.01" height="9.97"/><rect class="cls-4" y="100.66" width="4.01" height="9.97"/><rect class="cls-5" x="38.5" y="2.92" width="7.98" height="10.91" transform="translate(6.52 32.5) rotate(-45)"/><rect class="cls-6" x="4.01" y="55.94" width="17.6" height="58.34"/><path class="cls-7" d="M69.43,60.12,34.18,24.87,59.05,0l60.06,60.05-2.39,1.23a49.11,49.11,0,0,1-44.88.07Z"/><rect class="cls-8" x="145.99" y="59.6" width="4.01" height="9.97"/><rect class="cls-9" x="145.99" y="80.13" width="4.01" height="9.97"/><rect class="cls-10" x="145.99" y="100.66" width="4.01" height="9.97"/><rect class="cls-11" x="12.01" y="55.94" width="1.6" height="58.34"/><rect class="cls-12" x="53.68" y="4.48" width="5.02" height="35.45" transform="translate(32.15 -33.23) rotate(45)"/><rect class="cls-13" x="49.03" y="-1.22" width="3.19" height="35.45" transform="translate(26.5 -30.96) rotate(45)"/><rect class="cls-14" x="126.79" y="59.65" width="1.6" height="50.78"/><rect class="cls-15" x="128.39" y="55.94" width="17.6" height="58.34"/><rect class="cls-16" x="21.61" y="59.65" width="1.6" height="50.86"/><rect class="cls-17" x="21.61" y="59.9" width="4.01" height="9.66"/><rect class="cls-18" x="21.61" y="80.13" width="4.01" height="9.97"/><rect class="cls-19" x="21.61" y="100.66" width="4.01" height="9.76"/><rect class="cls-20" x="124.38" y="59.6" width="4.01" height="9.97"/><rect class="cls-21" x="124.38" y="80.13" width="4.01" height="9.97"/><rect class="cls-22" x="124.38" y="100.66" width="4.01" height="9.76"/><rect class="cls-23" x="136.28" y="55.94" width="1.6" height="58.34"/></g></g></g></svg>