<svg xmlns="http://www.w3.org/2000/svg" xmlns:xlink="http://www.w3.org/1999/xlink" viewBox="0 0 51.78 150"><defs><style>.cls-1{fill:url(#未命名的渐变_143);}.cls-2{fill:url(#未命名的渐变_143-2);}.cls-3{fill:url(#未命名的渐变_143-3);}.cls-4{fill:url(#未命名的渐变_143-4);}.cls-5{fill:url(#未命名的渐变_143-5);}.cls-6{fill:url(#未命名的渐变_143-6);}.cls-7{fill:url(#未命名的渐变_143-7);}.cls-8{fill:url(#未命名的渐变_143-8);}.cls-9{fill:url(#未命名的渐变_143-9);}.cls-10{fill:url(#未命名的渐变_143-10);}.cls-11{fill:url(#未命名的渐变_143-11);}.cls-12{fill:url(#未命名的渐变_94);}.cls-13{fill:url(#未命名的渐变_143-12);}.cls-14{fill:url(#未命名的渐变_4);}.cls-15{fill:url(#未命名的渐变_4-2);}.cls-16{fill:url(#未命名的渐变_143-13);}</style><linearGradient id="未命名的渐变_143" x1="-783.04" y1="-262.08" x2="-783.04" y2="-297.69" gradientTransform="translate(816.76 281.92)" gradientUnits="userSpaceOnUse"><stop offset="0" stop-color="#b7b7b7"/><stop offset="0.03" stop-color="#9b9d9d"/><stop offset="0.07" stop-color="#878b8b"/><stop offset="0.09" stop-color="#808484"/><stop offset="0.2" stop-color="#a3a6a6"/><stop offset="0.49" stop-color="#f6f6f6"/><stop offset="0.61" stop-color="#f3f3f3"/><stop offset="0.7" stop-color="#eaeaea"/><stop offset="0.77" stop-color="#dbdbdb"/><stop offset="0.83" stop-color="#c5c5c5"/><stop offset="0.9" stop-color="#aaa"/><stop offset="0.95" stop-color="#888"/><stop offset="1" stop-color="#666"/></linearGradient><linearGradient id="未命名的渐变_143-2" x1="-763.09" y1="-268.3" x2="-763.09" y2="-291.47" gradientTransform="translate(796.81 301.87)" xlink:href="#未命名的渐变_143"/><linearGradient id="未命名的渐变_143-3" x1="-768.95" y1="-274.79" x2="-768.95" y2="-284.98" gradientTransform="translate(802.67 296.02)" xlink:href="#未命名的渐变_143"/><linearGradient id="未命名的渐变_143-4" x1="-737.15" y1="-274.58" x2="-737.15" y2="-285.19" gradientTransform="translate(770.87 327.82)" xlink:href="#未命名的渐变_143"/><linearGradient id="未命名的渐变_143-5" x1="-714.5" y1="-278.34" x2="-714.5" y2="-281.43" gradientTransform="translate(748.22 350.46)" xlink:href="#未命名的渐变_143"/><linearGradient id="未命名的渐变_143-6" x1="-722.95" y1="-272.78" x2="-722.95" y2="-286.99" gradientTransform="translate(756.67 342.01)" xlink:href="#未命名的渐变_143"/><linearGradient id="未命名的渐变_143-7" x1="-691.95" y1="-270.73" x2="-691.95" y2="-289.04" gradientTransform="translate(725.67 373.02)" xlink:href="#未命名的渐变_143"/><linearGradient id="未命名的渐变_143-8" x1="-836.53" y1="232.18" x2="-836.53" y2="208.2" gradientTransform="translate(846.91 -86.25)" xlink:href="#未命名的渐变_143"/><linearGradient id="未命名的渐变_143-9" x1="-828.7" y1="225.96" x2="-828.7" y2="214.35" gradientTransform="translate(831.25 -86.19)" xlink:href="#未命名的渐变_143"/><linearGradient id="未命名的渐变_143-10" x1="-678.26" y1="-268.06" x2="-678.26" y2="-291.71" gradientTransform="translate(711.99 386.7)" xlink:href="#未命名的渐变_143"/><linearGradient id="未命名的渐变_143-11" x1="-651.11" y1="-261.83" x2="-651.11" y2="-297.94" gradientTransform="translate(684.83 413.85)" xlink:href="#未命名的渐变_143"/><linearGradient id="未命名的渐变_94" x1="15.86" y1="72.46" x2="51.58" y2="72.46" gradientUnits="userSpaceOnUse"><stop offset="0" stop-color="#b7b7b7"/><stop offset="0.01" stop-color="#9b9d9d"/><stop offset="0.02" stop-color="#878b8b"/><stop offset="0.02" stop-color="#808484"/><stop offset="0.28" stop-color="#a3a6a6"/><stop offset="0.93" stop-color="#f6f6f6"/><stop offset="0.95" stop-color="#f3f3f3"/><stop offset="0.96" stop-color="#eaeaea"/><stop offset="0.97" stop-color="#dbdbdb"/><stop offset="0.98" stop-color="#c5c5c5"/><stop offset="0.99" stop-color="#aaa"/><stop offset="0.99" stop-color="#888"/><stop offset="1" stop-color="#666"/></linearGradient><linearGradient id="未命名的渐变_143-12" x1="-726.66" y1="-274.58" x2="-726.66" y2="-285.19" gradientTransform="translate(760.38 338.31)" xlink:href="#未命名的渐变_143"/><linearGradient id="未命名的渐变_4" x1="-665.16" y1="-261.81" x2="-665.16" y2="-297.93" gradientTransform="translate(698.87 399.79)" gradientUnits="userSpaceOnUse"><stop offset="0" stop-color="#b7b7b7"/><stop offset="0.11" stop-color="#d6d6d6"/><stop offset="0.19" stop-color="#e4e4e4"/><stop offset="0.24" stop-color="#ededed"/><stop offset="0.32" stop-color="#f4f4f4"/><stop offset="0.56" stop-color="#f6f6f6"/><stop offset="0.72" stop-color="#f4f4f4"/><stop offset="0.77" stop-color="#ededed"/><stop offset="0.81" stop-color="#e2e2e2"/><stop offset="0.82" stop-color="#dedede"/><stop offset="0.92" stop-color="#c8c8c8"/><stop offset="1" stop-color="#b3b3b3"/></linearGradient><linearGradient id="未命名的渐变_4-2" x1="-637.11" y1="-261.81" x2="-637.11" y2="-297.93" gradientTransform="translate(670.82 427.84)" xlink:href="#未命名的渐变_4"/><linearGradient id="未命名的渐变_143-13" x1="-660.51" y1="-270.72" x2="-660.51" y2="-289.03" gradientTransform="translate(694.22 404.44)" xlink:href="#未命名的渐变_143"/></defs><title>Control valve with gray fitting（灰色接头控制阀）</title><g id="图层_2" data-name="图层 2"><g id="图层_23" data-name="图层 23"><g id="Control_valve_with_gray_fitting_灰色接头控制阀_" data-name="Control valve with gray fitting（灰色接头控制阀）"><rect class="cls-1" x="31.69" y="-15.77" width="4.07" height="35.6" transform="translate(35.76 -31.69) rotate(90)"/><rect class="cls-2" x="15.81" y="10.4" width="35.83" height="23.17" transform="translate(55.71 -11.74) rotate(90)"/><rect class="cls-3" x="31.16" y="11.04" width="5.12" height="10.19" transform="translate(49.85 -17.59) rotate(90)"/><rect class="cls-4" x="31.16" y="42.63" width="5.12" height="10.61" transform="translate(81.65 14.21) rotate(90)"/><rect class="cls-5" x="13.63" y="69.03" width="40.18" height="3.1" transform="translate(104.3 36.86) rotate(90)"/><rect class="cls-6" x="32.48" y="55.02" width="2.49" height="14.2" transform="translate(95.85 28.4) rotate(90)"/><rect class="cls-7" x="31.1" y="83.97" width="5.23" height="18.32" transform="translate(126.85 59.41) rotate(90)"/><rect class="cls-8" x="5.11" y="121.95" width="10.55" height="23.98" transform="translate(20.77 267.88) rotate(180)"/><rect class="cls-9" y="128.16" width="5.11" height="11.61" transform="translate(5.11 267.94) rotate(180)"/><rect class="cls-10" x="22.66" y="94.99" width="22.13" height="23.64" transform="translate(140.53 73.09) rotate(90)"/><rect class="cls-11" x="17.69" y="115.91" width="32.06" height="36.12" transform="translate(167.69 100.25) rotate(90)"/><path class="cls-12" d="M43.5,38.76h-19L15.87,45.6v54.74l6.89,5.81H45.23l6.34-5.81V45.6Zm3.39,62.44H20.53V45.37H46.89Z"/><rect class="cls-13" x="31.26" y="53.12" width="4.92" height="10.61" transform="translate(92.14 24.7) rotate(90)"/><rect class="cls-14" x="31.67" y="101.86" width="4.07" height="36.12" transform="translate(153.62 86.2) rotate(90)"/><rect class="cls-15" x="31.67" y="129.91" width="4.07" height="36.12" transform="translate(181.67 114.25) rotate(90)"/><rect class="cls-16" x="31.09" y="115.41" width="5.23" height="18.32" transform="translate(158.28 90.86) rotate(90)"/></g></g></g></svg>