<svg xmlns="http://www.w3.org/2000/svg" xmlns:xlink="http://www.w3.org/1999/xlink" viewBox="0 0 150 138.23"><defs><style>.cls-1{fill:url(#未命名的渐变_143);}.cls-2{fill:url(#未命名的渐变_79);}.cls-3{fill:url(#未命名的渐变_143-2);}.cls-4{fill:url(#未命名的渐变_143-3);}.cls-5{fill:url(#未命名的渐变_143-4);}.cls-6{fill:url(#未命名的渐变_143-5);}.cls-7{fill:url(#未命名的渐变_143-6);}.cls-8{fill:url(#未命名的渐变_143-7);}.cls-9{fill:url(#未命名的渐变_143-8);}.cls-10{fill:#7f7f7f;}.cls-11{fill:url(#未命名的渐变_143-9);}.cls-12{fill:#d3d3d3;}.cls-13{fill:url(#未命名的渐变_12);}.cls-14{fill:#b4b5b5;}.cls-15{fill:url(#未命名的渐变_13);}</style><linearGradient id="未命名的渐变_143" y1="74.64" x2="3.58" y2="74.64" gradientUnits="userSpaceOnUse"><stop offset="0" stop-color="#b7b7b7"/><stop offset="0.03" stop-color="#9b9d9d"/><stop offset="0.07" stop-color="#878b8b"/><stop offset="0.09" stop-color="#808484"/><stop offset="0.2" stop-color="#a3a6a6"/><stop offset="0.49" stop-color="#f6f6f6"/><stop offset="0.61" stop-color="#f3f3f3"/><stop offset="0.7" stop-color="#eaeaea"/><stop offset="0.77" stop-color="#dbdbdb"/><stop offset="0.83" stop-color="#c5c5c5"/><stop offset="0.9" stop-color="#aaa"/><stop offset="0.95" stop-color="#888"/><stop offset="1" stop-color="#666"/></linearGradient><linearGradient id="未命名的渐变_79" x1="644.6" y1="698.38" x2="646.22" y2="698.38" gradientTransform="matrix(0, -1.9, -1, 0, 725.23, 1281.36)" gradientUnits="userSpaceOnUse"><stop offset="0" stop-color="#ccc"/><stop offset="0.03" stop-color="#bbb"/><stop offset="0.06" stop-color="#a7a7a7"/><stop offset="0.09" stop-color="#a0a0a0"/><stop offset="0.1" stop-color="#a3a3a3"/><stop offset="0.49" stop-color="#f6f6f6"/><stop offset="0.62" stop-color="#f3f3f3"/><stop offset="0.72" stop-color="#eaeaea"/><stop offset="0.8" stop-color="#dbdbdb"/><stop offset="0.87" stop-color="#c5c5c5"/><stop offset="0.94" stop-color="#aaa"/><stop offset="1" stop-color="#898989"/></linearGradient><linearGradient id="未命名的渐变_143-2" x1="2.47" y1="58.58" x2="2.47" y2="53.54" xlink:href="#未命名的渐变_143"/><linearGradient id="未命名的渐变_143-3" x1="597.29" y1="514.56" x2="563.26" y2="514.56" gradientTransform="translate(-489.33 -401.44)" xlink:href="#未命名的渐变_143"/><linearGradient id="未命名的渐变_143-4" x1="68.14" y1="5.53" x2="75.41" y2="5.53" xlink:href="#未命名的渐变_143"/><linearGradient id="未命名的渐变_143-5" x1="63.7" y1="7.13" x2="79.85" y2="7.13" xlink:href="#未命名的渐变_143"/><linearGradient id="未命名的渐变_143-6" x1="82.88" y1="79.25" x2="99.02" y2="79.25" xlink:href="#未命名的渐变_143"/><linearGradient id="未命名的渐变_143-7" x1="450.41" y1="-197.74" x2="460.49" y2="-197.74" gradientTransform="translate(-405.7 253.14)" xlink:href="#未命名的渐变_143"/><linearGradient id="未命名的渐变_143-8" x1="372.61" y1="-202" x2="422.84" y2="-202" gradientTransform="translate(-352.23 315.12)" xlink:href="#未命名的渐变_143"/><linearGradient id="未命名的渐变_143-9" x1="372.61" y1="391.69" x2="422.84" y2="391.69" gradientTransform="matrix(1, 0, 0, -1, -262.2, 504.81)" xlink:href="#未命名的渐变_143"/><linearGradient id="未命名的渐变_12" x1="505.07" y1="553.47" x2="505.07" y2="475.64" gradientTransform="translate(-414.12 -476.64)" gradientUnits="userSpaceOnUse"><stop offset="0" stop-color="#b7b7b7"/><stop offset="0" stop-color="#bababa"/><stop offset="0.01" stop-color="#dbdbdb"/><stop offset="0.03" stop-color="#efefef"/><stop offset="0.03" stop-color="#f6f6f6"/><stop offset="0.59" stop-color="#f3f3f3"/><stop offset="0.97" stop-color="#eaeaea"/><stop offset="0.98" stop-color="#eaeaea"/><stop offset="0.98" stop-color="#ccc"/><stop offset="1" stop-color="#818181"/><stop offset="1" stop-color="#666"/></linearGradient><linearGradient id="未命名的渐变_13" x1="503.98" y1="558.04" x2="503.98" y2="471.07" gradientTransform="translate(-413.03 -477.73)" gradientUnits="userSpaceOnUse"><stop offset="0" stop-color="#b7b7b7"/><stop offset="0" stop-color="#bababa"/><stop offset="0.05" stop-color="#dbdbdb"/><stop offset="0.08" stop-color="#efefef"/><stop offset="0.11" stop-color="#f6f6f6"/><stop offset="0.61" stop-color="#f3f3f3"/><stop offset="0.95" stop-color="#eaeaea"/><stop offset="0.96" stop-color="#eaeaea"/><stop offset="0.97" stop-color="#ccc"/><stop offset="0.99" stop-color="#818181"/><stop offset="1" stop-color="#666"/></linearGradient></defs><title>Control valve - horizontal（水平控制阀） (3)</title><g id="图层_2" data-name="图层 2"><g id="图层_23" data-name="图层 23"><g id="Control_valve_-_horizontal_水平控制阀_" data-name="Control valve - horizontal（水平控制阀）"><rect class="cls-1" y="58.58" width="3.58" height="32.13"/><rect class="cls-2" x="4.94" y="53.54" width="43.82" height="3.08"/><path class="cls-3" d="M4.94,56.78V53.57S2.1,53.22.71,54.82C-.37,56.08.1,58.58.1,58.58H3.58a2,2,0,0,1,.28-1.47A1.27,1.27,0,0,1,4.94,56.78Z"/><rect class="cls-4" x="73.94" y="54.07" width="34.03" height="118.1" transform="translate(204.07 22.17) rotate(90)"/><rect class="cls-5" x="68.14" width="7.27" height="11.06"/><rect class="cls-6" x="63.7" y="3.86" width="16.14" height="6.54"/><path class="cls-7" d="M99,96.11l-2.81,1.25a12.86,12.86,0,0,1-10.52,0l-2.81-1.25V60H99Z"/><rect class="cls-8" x="44.71" y="53.11" width="10.09" height="4.57" transform="translate(-5.64 105.15) rotate(-90)"/><rect class="cls-9" x="20.38" y="109.85" width="50.23" height="6.54" transform="translate(-67.62 158.62) rotate(-90)"/><rect class="cls-10" x="32.3" y="112.58" width="33.97" height="1.02" transform="translate(-63.81 162.37) rotate(-90)"/><rect class="cls-11" x="110.41" y="109.85" width="50.23" height="6.54" transform="translate(22.4 248.64) rotate(-90)"/><rect class="cls-10" x="114.76" y="112.61" width="33.97" height="1.02" transform="translate(18.62 244.86) rotate(-90)"/><rect class="cls-12" x="68.86" y="8.1" width="44.19" height="59.64" transform="translate(128.87 -53.03) rotate(90)"/><rect class="cls-13" x="62.12" y="-1" width="57.66" height="77.83" transform="translate(128.87 -53.03) rotate(90)"/><rect class="cls-14" x="66.73" y="5.23" width="48.44" height="65.38" transform="translate(128.87 -53.03) rotate(90)"/><rect class="cls-12" x="68.86" y="8.1" width="44.19" height="59.64" transform="translate(128.87 -53.03) rotate(90)"/><rect class="cls-15" x="86" y="-6.65" width="9.9" height="86.96" transform="translate(127.78 -54.12) rotate(90)"/></g></g></g></svg>