<svg xmlns="http://www.w3.org/2000/svg" xmlns:xlink="http://www.w3.org/1999/xlink" viewBox="0 0 149.74 114.89"><defs><style>.cls-1{fill:url(#未命名的渐变_143);}.cls-2{fill:url(#未命名的渐变_143-2);}.cls-3{fill:url(#未命名的渐变_143-3);}.cls-4{fill:url(#未命名的渐变_143-4);}.cls-5{fill:url(#未命名的渐变_143-5);}.cls-6{fill:url(#未命名的渐变_143-6);}.cls-7{fill:url(#未命名的渐变_143-7);}.cls-8{fill:url(#未命名的渐变_143-8);}</style><linearGradient id="未命名的渐变_143" x1="620.48" y1="-515.84" x2="620.48" y2="-459.32" gradientTransform="translate(-545.41 534.79)" gradientUnits="userSpaceOnUse"><stop offset="0" stop-color="#b7b7b7"/><stop offset="0.03" stop-color="#9b9d9d"/><stop offset="0.07" stop-color="#878b8b"/><stop offset="0.09" stop-color="#808484"/><stop offset="0.2" stop-color="#a3a6a6"/><stop offset="0.49" stop-color="#f6f6f6"/><stop offset="0.61" stop-color="#f3f3f3"/><stop offset="0.7" stop-color="#eaeaea"/><stop offset="0.77" stop-color="#dbdbdb"/><stop offset="0.83" stop-color="#c5c5c5"/><stop offset="0.9" stop-color="#aaa"/><stop offset="0.95" stop-color="#888"/><stop offset="1" stop-color="#666"/></linearGradient><linearGradient id="未命名的渐变_143-2" x1="658.42" y1="-522.48" x2="658.42" y2="-452.24" gradientTransform="translate(562.65 667.69) rotate(-90)" xlink:href="#未命名的渐变_143"/><linearGradient id="未命名的渐变_143-3" x1="638.65" y1="-498.4" x2="638.65" y2="-477.43" gradientTransform="translate(-563.91 516.96)" xlink:href="#未命名的渐变_143"/><linearGradient id="未命名的渐变_143-4" x1="-296.01" y1="-264.41" x2="-296.01" y2="-204.47" gradientTransform="matrix(1, 0, 0, -1, 307.55, -149.92)" xlink:href="#未命名的渐变_143"/><linearGradient id="未命名的渐变_143-5" x1="-232.62" y1="-264.41" x2="-232.62" y2="-204.47" gradientTransform="matrix(1, 0, 0, -1, 307.55, -149.92)" xlink:href="#未命名的渐变_143"/><linearGradient id="未命名的渐变_143-6" x1="-278.58" y1="-253.24" x2="-278.58" y2="-215.03" gradientTransform="matrix(1, 0, 0, -1, 307.55, -149.92)" xlink:href="#未命名的渐变_143"/><linearGradient id="未命名的渐变_143-7" x1="378.22" y1="-264.81" x2="378.22" y2="-204.88" gradientTransform="translate(-240.02 319.76)" xlink:href="#未命名的渐变_143"/><linearGradient id="未命名的渐变_143-8" x1="395.65" y1="-253.65" x2="395.65" y2="-215.43" gradientTransform="translate(-274.89 319.16)" xlink:href="#未命名的渐变_143"/></defs><title>Hand valve （手动阀） (2)</title><g id="图层_2" data-name="图层 2"><g id="图层_23" data-name="图层 23"><g id="Hand_valve_手动阀_" data-name="Hand valve （手动阀）"><rect class="cls-1" x="67.73" y="18.96" width="14.68" height="56.52" transform="translate(27.86 122.28) rotate(-90)"/><path class="cls-2" d="M110.42,18.55H40.17C40.17,8.31,56.26,0,74.74,0,92,0,110.42,8.31,110.42,18.55Z"/><rect class="cls-3" x="64.25" y="18.55" width="20.98" height="20.98" transform="translate(45.69 103.78) rotate(-90)"/><rect class="cls-4" y="54.55" width="23.08" height="59.93"/><rect class="cls-5" x="34.87" y="54.55" width="80.12" height="59.93"/><rect class="cls-6" x="23.2" y="65.11" width="11.54" height="38.21"/><rect class="cls-7" x="126.66" y="54.96" width="23.08" height="59.93" transform="translate(276.39 169.85) rotate(180)"/><rect class="cls-8" x="114.99" y="65.51" width="11.54" height="38.21" transform="translate(241.52 169.24) rotate(180)"/></g></g></g></svg>