<svg xmlns="http://www.w3.org/2000/svg" xmlns:xlink="http://www.w3.org/1999/xlink" viewBox="0 0 85.01 150"><defs><style>.cls-1{fill:url(#未命名的渐变_67);}.cls-2{fill:url(#未命名的渐变_143);}.cls-3{fill:url(#未命名的渐变_143-2);}.cls-4{fill:url(#未命名的渐变_143-3);}.cls-5{fill:url(#未命名的渐变_143-4);}.cls-6{fill:url(#未命名的渐变_143-5);}.cls-7{fill:url(#未命名的渐变_143-6);}.cls-8{fill:url(#未命名的渐变_143-7);}.cls-9{fill:url(#未命名的渐变_143-8);}.cls-10{fill:url(#未命名的渐变_67-2);}.cls-11{fill:url(#未命名的渐变_143-9);}.cls-12{fill:url(#未命名的渐变_143-10);}.cls-13{fill:url(#未命名的渐变_143-11);}.cls-14{fill:url(#未命名的渐变_143-12);}.cls-15{fill:url(#未命名的渐变_143-13);}.cls-16{fill:url(#未命名的渐变_143-14);}.cls-17{fill:url(#未命名的渐变_143-15);}.cls-18{fill:url(#未命名的渐变_143-16);}.cls-19{fill:url(#未命名的渐变_143-17);}</style><linearGradient id="未命名的渐变_67" x1="-223.48" y1="274.72" x2="-247.12" y2="274.72" gradientTransform="translate(278.38 -257.14)" gradientUnits="userSpaceOnUse"><stop offset="0" stop-color="#6b6b6b"/><stop offset="0.11" stop-color="#767676"/><stop offset="0.3" stop-color="#959595"/><stop offset="0.41" stop-color="#aaa"/><stop offset="0.56" stop-color="#ccc"/><stop offset="0.71" stop-color="#eaeaea"/><stop offset="0.8" stop-color="#f6f6f6"/><stop offset="0.83" stop-color="#ededed"/><stop offset="0.87" stop-color="#d4d4d4"/><stop offset="0.92" stop-color="#ababab"/><stop offset="0.98" stop-color="#737373"/><stop offset="0.99" stop-color="#666"/></linearGradient><linearGradient id="未命名的渐变_143" x1="-197.68" y1="270.46" x2="-271.65" y2="270.46" gradientTransform="translate(277.12 -248.63)" gradientUnits="userSpaceOnUse"><stop offset="0" stop-color="#b7b7b7"/><stop offset="0.03" stop-color="#9b9d9d"/><stop offset="0.07" stop-color="#878b8b"/><stop offset="0.09" stop-color="#808484"/><stop offset="0.2" stop-color="#a3a6a6"/><stop offset="0.49" stop-color="#f6f6f6"/><stop offset="0.61" stop-color="#f3f3f3"/><stop offset="0.7" stop-color="#eaeaea"/><stop offset="0.77" stop-color="#dbdbdb"/><stop offset="0.83" stop-color="#c5c5c5"/><stop offset="0.9" stop-color="#aaa"/><stop offset="0.95" stop-color="#888"/><stop offset="1" stop-color="#666"/></linearGradient><linearGradient id="未命名的渐变_143-2" x1="-196.31" y1="270.41" x2="-200.04" y2="270.41" gradientTransform="translate(204.14 -248.53)" xlink:href="#未命名的渐变_143"/><linearGradient id="未命名的渐变_143-3" x1="-208.76" y1="270.38" x2="-212.5" y2="270.38" gradientTransform="translate(229.05 -248.47)" xlink:href="#未命名的渐变_143"/><linearGradient id="未命名的渐变_143-4" x1="-220.53" y1="270.38" x2="-224.26" y2="270.38" gradientTransform="translate(252.58 -248.47)" xlink:href="#未命名的渐变_143"/><linearGradient id="未命名的渐变_143-5" x1="-245.2" y1="270.38" x2="-248.93" y2="270.38" gradientTransform="translate(301.92 -248.47)" xlink:href="#未命名的渐变_143"/><linearGradient id="未命名的渐变_143-6" x1="-256.63" y1="270.38" x2="-260.73" y2="270.38" gradientTransform="translate(325.14 -248.47)" xlink:href="#未命名的渐变_143"/><linearGradient id="未命名的渐变_143-7" x1="-270.18" y1="270.38" x2="-273.86" y2="270.38" gradientTransform="translate(351.83 -248.47)" xlink:href="#未命名的渐变_143"/><linearGradient id="未命名的渐变_143-8" x1="-195.31" y1="270.45" x2="-274.81" y2="270.45" gradientTransform="translate(277.91 -248.61)" xlink:href="#未命名的渐变_143"/><linearGradient id="未命名的渐变_67-2" x1="-69.52" y1="270.38" x2="-149.02" y2="270.38" gradientTransform="matrix(1, 0, 0, -1, 152.12, 292.29)" xlink:href="#未命名的渐变_67"/><linearGradient id="未命名的渐变_143-9" x1="-216.91" y1="153.38" x2="-253.16" y2="153.38" gradientTransform="translate(277.85 -14.47)" xlink:href="#未命名的渐变_143"/><linearGradient id="未命名的渐变_143-10" x1="-220.06" y1="191.16" x2="-249.38" y2="191.16" gradientTransform="translate(277.22 -90.02)" xlink:href="#未命名的渐变_143"/><linearGradient id="未命名的渐变_143-11" x1="-223.42" y1="241.65" x2="-247.07" y2="241.65" gradientTransform="translate(278.27 -191)" xlink:href="#未命名的渐变_143"/><linearGradient id="未命名的渐变_143-12" x1="-266.3" y1="165.31" x2="-266.3" y2="202.29" gradientTransform="translate(340.38 -75.31)" xlink:href="#未命名的渐变_143"/><linearGradient id="未命名的渐变_143-13" x1="-203.14" y1="165.31" x2="-203.14" y2="202.29" gradientTransform="translate(214.07 -75.31)" xlink:href="#未命名的渐变_143"/><linearGradient id="未命名的渐变_143-14" x1="-223.42" y1="220.58" x2="-247.07" y2="220.58" gradientTransform="translate(278.27 -148.86)" xlink:href="#未命名的渐变_143"/><linearGradient id="未命名的渐变_143-15" x1="-221.64" y1="223.36" x2="-248.96" y2="223.36" gradientTransform="translate(278.38 -154.43)" xlink:href="#未命名的渐变_143"/><linearGradient id="未命名的渐变_143-16" x1="-250.86" y1="170.24" x2="-250.86" y2="197.67" gradientTransform="translate(-192.22 292.29) rotate(180)" xlink:href="#未命名的渐变_143"/><linearGradient id="未命名的渐变_143-17" x1="-218.22" y1="170.24" x2="-218.22" y2="197.67" gradientTransform="translate(-192.22 292.29) rotate(180)" xlink:href="#未命名的渐变_143"/></defs><title>Motor valve(电动阀)</title><g id="图层_2" data-name="图层 2"><g id="图层_23" data-name="图层 23"><g id="Motor_valve_电动阀_" data-name="Motor valve(电动阀)"><rect class="cls-1" x="31.26" width="23.64" height="35.15" transform="translate(86.16 35.15) rotate(180)"/><rect class="cls-2" x="5.46" y="12.4" width="73.98" height="18.86" rx="1.33" transform="translate(84.9 43.66) rotate(-180)"/><rect class="cls-3" x="4.1" y="15.39" width="3.73" height="12.98" transform="translate(11.93 43.77) rotate(180)"/><rect class="cls-4" x="16.55" y="15.42" width="3.73" height="12.98" transform="translate(36.83 43.82) rotate(180)"/><rect class="cls-5" x="28.32" y="15.42" width="3.73" height="12.98" transform="translate(60.37 43.82) rotate(180)"/><rect class="cls-6" x="52.99" y="15.42" width="3.73" height="12.98" transform="translate(109.7 43.82) rotate(180)"/><rect class="cls-7" x="64.41" y="15.42" width="4.1" height="12.98" transform="translate(132.92 43.82) rotate(180)"/><rect class="cls-8" x="77.97" y="15.42" width="3.68" height="12.98" transform="translate(159.61 43.82) rotate(180)"/><rect class="cls-9" x="3.1" y="18.47" width="79.49" height="6.75" transform="translate(85.69 43.69) rotate(180)"/><rect class="cls-10" x="3.1" y="21.68" width="79.49" height="0.46"/><rect class="cls-11" x="24.69" y="127.83" width="36.25" height="22.17" transform="translate(85.64 277.83) rotate(180)"/><rect class="cls-12" x="27.85" y="74.45" width="29.32" height="53.38" transform="translate(85.01 202.28) rotate(180)"/><rect class="cls-13" x="31.21" y="35.15" width="23.64" height="31" transform="translate(86.06 101.3) rotate(180)"/><rect class="cls-14" x="63.15" y="90" width="21.86" height="36.99" transform="translate(148.16 216.99) rotate(180)"/><rect class="cls-15" y="90" width="21.86" height="36.99" transform="translate(21.86 216.99) rotate(180)"/><rect class="cls-16" x="31.21" y="68.93" width="23.64" height="5.57" transform="translate(86.06 143.43) rotate(180)"/><rect class="cls-17" x="29.42" y="66.15" width="27.32" height="5.57" transform="translate(86.16 137.86) rotate(180)"/><path class="cls-18" d="M57.16,94.62h6v27.43h-6l-.68-1.7a32.38,32.38,0,0,1,.68-25.73Z"/><path class="cls-19" d="M21.86,94.62h6l.09.29a41.85,41.85,0,0,1-.09,27.14h-6Z"/></g></g></g></svg>