<svg xmlns="http://www.w3.org/2000/svg" xmlns:xlink="http://www.w3.org/1999/xlink" viewBox="0 0 150 129.37"><defs><style>.cls-1{fill:url(#未命名的渐变_67);}.cls-2{fill:url(#未命名的渐变_67-2);}.cls-3{fill:url(#未命名的渐变_143);}.cls-4{fill:url(#未命名的渐变_143-2);}.cls-5{fill:url(#未命名的渐变_143-3);}.cls-6{fill:url(#未命名的渐变_143-4);}.cls-7{fill:url(#未命名的渐变_143-5);}.cls-8{fill:url(#未命名的渐变_67-3);}.cls-9{fill:url(#未命名的渐变_143-6);}</style><linearGradient id="未命名的渐变_67" x1="-58.64" y1="260.64" x2="-95.36" y2="260.64" gradientTransform="matrix(1, 0, 0, -1, 152.12, 292.29)" gradientUnits="userSpaceOnUse"><stop offset="0" stop-color="#6b6b6b"/><stop offset="0.11" stop-color="#767676"/><stop offset="0.3" stop-color="#959595"/><stop offset="0.41" stop-color="#aaa"/><stop offset="0.56" stop-color="#ccc"/><stop offset="0.71" stop-color="#eaeaea"/><stop offset="0.8" stop-color="#f6f6f6"/><stop offset="0.83" stop-color="#ededed"/><stop offset="0.87" stop-color="#d4d4d4"/><stop offset="0.92" stop-color="#ababab"/><stop offset="0.98" stop-color="#737373"/><stop offset="0.99" stop-color="#666"/></linearGradient><linearGradient id="未命名的渐变_67-2" x1="-270.11" y1="404.58" x2="-319.07" y2="404.58" gradientTransform="matrix(1, 0, 0, -1, 424.52, 502.45)" xlink:href="#未命名的渐变_67"/><linearGradient id="未命名的渐变_143" x1="-580.37" y1="277.02" x2="-617.09" y2="277.02" gradientTransform="translate(673.85 -261.75)" gradientUnits="userSpaceOnUse"><stop offset="0" stop-color="#b7b7b7"/><stop offset="0.03" stop-color="#9b9d9d"/><stop offset="0.07" stop-color="#878b8b"/><stop offset="0.09" stop-color="#808484"/><stop offset="0.2" stop-color="#a3a6a6"/><stop offset="0.49" stop-color="#f6f6f6"/><stop offset="0.61" stop-color="#f3f3f3"/><stop offset="0.7" stop-color="#eaeaea"/><stop offset="0.77" stop-color="#dbdbdb"/><stop offset="0.83" stop-color="#c5c5c5"/><stop offset="0.9" stop-color="#aaa"/><stop offset="0.95" stop-color="#888"/><stop offset="1" stop-color="#666"/></linearGradient><linearGradient id="未命名的渐变_143-2" x1="-598.62" y1="162.92" x2="-598.62" y2="226.29" gradientTransform="translate(673.62 -96.92)" xlink:href="#未命名的渐变_143"/><linearGradient id="未命名的渐变_143-3" x1="-573.88" y1="239.58" x2="-623.24" y2="239.58" gradientTransform="translate(-523.62 292.29) rotate(180)" xlink:href="#未命名的渐变_143"/><linearGradient id="未命名的渐变_143-4" x1="-553.33" y1="264.73" x2="-553.33" y2="285.1" gradientTransform="translate(-523.62 292.29) rotate(180)" xlink:href="#未命名的渐变_143"/><linearGradient id="未命名的渐变_143-5" x1="-664.14" y1="170.73" x2="-664.14" y2="218.91" gradientTransform="translate(804.66 -97.35)" xlink:href="#未命名的渐变_143"/><linearGradient id="未命名的渐变_67-3" x1="-270.29" y1="38.52" x2="-319.25" y2="38.52" gradientTransform="translate(314.84 59.17)" xlink:href="#未命名的渐变_67"/><linearGradient id="未命名的渐变_143-6" x1="-298.07" y1="170.92" x2="-298.07" y2="219.09" gradientTransform="matrix(1, 0, 0, -1, 307.55, 292.29)" xlink:href="#未命名的渐变_143"/></defs><title>PVC two-way ball valve（双通阀）</title><g id="图层_2" data-name="图层 2"><g id="图层_23" data-name="图层 23"><g id="PVC_two-way_ball_valve_双通阀_" data-name="PVC two-way ball valve（双通阀）"><rect class="cls-1" x="56.76" y="30.54" width="36.72" height="2.22"/><rect class="cls-2" x="105.45" y="96.76" width="48.96" height="2.22" transform="translate(227.8 -32.06) rotate(90)"/><rect class="cls-3" x="56.76" width="36.72" height="30.54" transform="translate(150.23 30.54) rotate(180)"/><rect class="cls-4" x="21.18" y="66" width="107.64" height="63.37" transform="translate(150 195.37) rotate(180)"/><path class="cls-5" d="M50.26,32.77H99.62V66.53L96.39,68A51.78,51.78,0,0,1,53.5,68l-3.24-1.47Z"/><path class="cls-6" d="M.59,7.2H56.76a26,26,0,0,1,0,20.36H.59Z"/><rect class="cls-7" x="131.04" y="73.39" width="18.96" height="48.17" transform="translate(281.04 194.95) rotate(180)"/><rect class="cls-8" x="-4.41" y="96.57" width="48.96" height="2.22" transform="translate(117.76 77.62) rotate(90)"/><rect class="cls-9" y="73.2" width="18.96" height="48.17"/></g></g></g></svg>