<svg xmlns="http://www.w3.org/2000/svg" xmlns:xlink="http://www.w3.org/1999/xlink" viewBox="0 0 150 119.68"><defs><style>.cls-1{fill:url(#未命名的渐变_143);}.cls-2{fill:url(#未命名的渐变_67);}.cls-3{fill:#9e9e9e;}.cls-4{fill:#606060;}.cls-5{fill:url(#未命名的渐变_12);}.cls-6{fill:url(#未命名的渐变_12-2);}.cls-7{fill:url(#未命名的渐变_143-2);}.cls-8{fill:url(#未命名的渐变_143-3);}.cls-9{fill:url(#未命名的渐变_143-4);}.cls-10{fill:url(#未命名的渐变_67-2);}.cls-11{fill:#7f7f7f;}.cls-12{fill:url(#未命名的渐变_67-3);}.cls-13{fill:url(#未命名的渐变_67-4);}.cls-14{fill:url(#未命名的渐变_143-5);}.cls-15{fill:url(#未命名的渐变_143-6);}.cls-16{fill:url(#未命名的渐变_143-7);}.cls-17{fill:url(#未命名的渐变_143-8);}.cls-18{fill:url(#未命名的渐变_143-9);}.cls-19{fill:url(#未命名的渐变_143-10);}.cls-20{fill:url(#未命名的渐变_24);}.cls-21{fill:url(#未命名的渐变_24-2);}.cls-22{fill:url(#未命名的渐变_24-3);}.cls-23{fill:url(#未命名的渐变_24-4);}.cls-24{fill:url(#未命名的渐变_24-5);}.cls-25{fill:url(#未命名的渐变_24-6);}.cls-26{fill:url(#未命名的渐变_24-7);}.cls-27{fill:url(#未命名的渐变_143-11);}.cls-28{fill:url(#未命名的渐变_143-12);}.cls-29{fill:url(#未命名的渐变_143-13);}</style><linearGradient id="未命名的渐变_143" x1="543.56" y1="-155.91" x2="484.98" y2="-155.91" gradientTransform="translate(-419.01 193.37)" gradientUnits="userSpaceOnUse"><stop offset="0" stop-color="#b7b7b7"/><stop offset="0.03" stop-color="#9b9d9d"/><stop offset="0.07" stop-color="#878b8b"/><stop offset="0.09" stop-color="#808484"/><stop offset="0.2" stop-color="#a3a6a6"/><stop offset="0.49" stop-color="#f6f6f6"/><stop offset="0.61" stop-color="#f3f3f3"/><stop offset="0.7" stop-color="#eaeaea"/><stop offset="0.77" stop-color="#dbdbdb"/><stop offset="0.83" stop-color="#c5c5c5"/><stop offset="0.9" stop-color="#aaa"/><stop offset="0.95" stop-color="#888"/><stop offset="1" stop-color="#666"/></linearGradient><linearGradient id="未命名的渐变_67" x1="590.92" y1="-172.88" x2="554.29" y2="-172.88" gradientTransform="translate(-60.65 -476.82) rotate(90)" gradientUnits="userSpaceOnUse"><stop offset="0" stop-color="#6b6b6b"/><stop offset="0.11" stop-color="#767676"/><stop offset="0.3" stop-color="#959595"/><stop offset="0.41" stop-color="#aaa"/><stop offset="0.56" stop-color="#ccc"/><stop offset="0.71" stop-color="#eaeaea"/><stop offset="0.8" stop-color="#f6f6f6"/><stop offset="0.83" stop-color="#ededed"/><stop offset="0.87" stop-color="#d4d4d4"/><stop offset="0.92" stop-color="#ababab"/><stop offset="0.98" stop-color="#737373"/><stop offset="0.99" stop-color="#666"/></linearGradient><linearGradient id="未命名的渐变_12" x1="57.63" y1="36.93" x2="122.99" y2="36.93" gradientUnits="userSpaceOnUse"><stop offset="0" stop-color="#b7b7b7"/><stop offset="0" stop-color="#bababa"/><stop offset="0.01" stop-color="#dbdbdb"/><stop offset="0.03" stop-color="#efefef"/><stop offset="0.03" stop-color="#f6f6f6"/><stop offset="0.59" stop-color="#f3f3f3"/><stop offset="0.97" stop-color="#eaeaea"/><stop offset="0.98" stop-color="#eaeaea"/><stop offset="0.98" stop-color="#ccc"/><stop offset="1" stop-color="#818181"/><stop offset="1" stop-color="#666"/></linearGradient><linearGradient id="未命名的渐变_12-2" x1="69.03" y1="36.93" x2="111.59" y2="36.93" xlink:href="#未命名的渐变_12"/><linearGradient id="未命名的渐变_143-2" x1="592.68" y1="-73.54" x2="497.81" y2="-73.54" gradientTransform="translate(-532.36 141.96)" xlink:href="#未命名的渐变_143"/><linearGradient id="未命名的渐变_143-3" x1="525.98" y1="-96.42" x2="501.4" y2="-96.42" gradientTransform="translate(-477.92 133.28)" xlink:href="#未命名的渐变_143"/><linearGradient id="未命名的渐变_143-4" x1="590.12" y1="-118.13" x2="554.29" y2="-118.13" gradientTransform="translate(-514.73 213.52)" xlink:href="#未命名的渐变_143"/><linearGradient id="未命名的渐变_67-2" x1="590.11" y1="-102.27" x2="554.29" y2="-102.27" gradientTransform="translate(-530.59 197.65)" xlink:href="#未命名的渐变_67"/><linearGradient id="未命名的渐变_67-3" x1="590.11" y1="-110.34" x2="554.29" y2="-110.34" gradientTransform="translate(-522.51 205.73)" xlink:href="#未命名的渐变_67"/><linearGradient id="未命名的渐变_67-4" x1="590.11" y1="-120.2" x2="554.29" y2="-120.2" gradientTransform="translate(-512.65 215.58)" xlink:href="#未命名的渐变_67"/><linearGradient id="未命名的渐变_143-5" x1="577.44" y1="-88.06" x2="554.29" y2="-88.06" gradientTransform="translate(-538.46 177.1)" xlink:href="#未命名的渐变_143"/><linearGradient id="未命名的渐变_143-6" x1="592.16" y1="-93.95" x2="554.29" y2="-93.95" gradientTransform="translate(-539.93 190.36)" xlink:href="#未命名的渐变_143"/><linearGradient id="未命名的渐变_143-7" x1="543.56" y1="-110.4" x2="483.94" y2="-110.4" gradientTransform="translate(-464.01 147.33)" xlink:href="#未命名的渐变_143"/><linearGradient id="未命名的渐变_143-8" x1="551.89" y1="-208.57" x2="551.89" y2="-84.62" gradientTransform="translate(-465.95 221.67)" xlink:href="#未命名的渐变_143"/><linearGradient id="未命名的渐变_143-9" x1="594.33" y1="-210.65" x2="594.33" y2="-60.65" gradientTransform="translate(-519.33 253.17)" xlink:href="#未命名的渐变_143"/><linearGradient id="未命名的渐变_143-10" x1="559.07" y1="-144.18" x2="557.25" y2="-144.18" gradientTransform="translate(-474.63 225.51)" xlink:href="#未命名的渐变_143"/><linearGradient id="未命名的渐变_24" x1="561.51" y1="-168.79" x2="560.21" y2="-168.79" gradientTransform="translate(-452.72 252.83)" gradientUnits="userSpaceOnUse"><stop offset="0" stop-color="#b7b7b7"/><stop offset="0.09" stop-color="#9b9d9d"/><stop offset="0.18" stop-color="#878b8b"/><stop offset="0.24" stop-color="#808484"/><stop offset="0.3" stop-color="#868a8a"/><stop offset="0.38" stop-color="#979a9a"/><stop offset="0.48" stop-color="#b2b5b5"/><stop offset="0.58" stop-color="#d9dada"/><stop offset="0.65" stop-color="#f6f6f6"/><stop offset="0.7" stop-color="#e9e9e9"/><stop offset="0.79" stop-color="#c7c7c7"/><stop offset="0.91" stop-color="#919191"/><stop offset="1" stop-color="#666"/></linearGradient><linearGradient id="未命名的渐变_24-2" x1="565.29" y1="-168.79" x2="563.98" y2="-168.79" gradientTransform="translate(-456.5 256.61)" xlink:href="#未命名的渐变_24"/><linearGradient id="未命名的渐变_24-3" x1="569.11" y1="-168.79" x2="567.81" y2="-168.79" gradientTransform="translate(-460.32 260.43)" xlink:href="#未命名的渐变_24"/><linearGradient id="未命名的渐变_24-4" x1="572.97" y1="-168.79" x2="571.67" y2="-168.79" gradientTransform="translate(-464.19 264.29)" xlink:href="#未命名的渐变_24"/><linearGradient id="未命名的渐变_24-5" x1="576.84" y1="-168.79" x2="575.54" y2="-168.79" gradientTransform="translate(-468.05 268.16)" xlink:href="#未命名的渐变_24"/><linearGradient id="未命名的渐变_24-6" x1="580.49" y1="-168.79" x2="579.18" y2="-168.79" gradientTransform="translate(-471.7 271.81)" xlink:href="#未命名的渐变_24"/><linearGradient id="未命名的渐变_24-7" x1="584.66" y1="-168.79" x2="583.35" y2="-168.79" gradientTransform="translate(-475.87 275.97)" xlink:href="#未命名的渐变_24"/><linearGradient id="未命名的渐变_143-11" x1="588.08" y1="-144.22" x2="586.26" y2="-144.22" gradientTransform="translate(-503.6 254.57)" xlink:href="#未命名的渐变_143"/><linearGradient id="未命名的渐变_143-12" x1="560.01" y1="-142.92" x2="556.3" y2="-142.92" gradientTransform="translate(-475.89 224.25)" xlink:href="#未命名的渐变_143"/><linearGradient id="未命名的渐变_143-13" x1="589.02" y1="-142.92" x2="585.31" y2="-142.92" gradientTransform="translate(-504.9 253.26)" xlink:href="#未命名的渐变_143"/></defs><title>Rotary valve（旋转阀）</title><g id="图层_2" data-name="图层 2"><g id="图层_23" data-name="图层 23"><g id="Rotary_valve_旋转阀_" data-name="Rotary valve（旋转阀）"><rect class="cls-1" x="65.97" y="-0.18" width="58.58" height="75.26" transform="translate(132.71 -57.81) rotate(90)"/><path class="cls-2" d="M79.63,114.1V77.47h59.64l.56.88a32.88,32.88,0,0,1-.56,35.75H79.63Z"/><rect class="cls-3" x="18.67" y="33.71" width="72.67" height="5.25" transform="translate(91.34 -18.67) rotate(90)"/><rect class="cls-3" x="89.63" y="34.23" width="72.67" height="4.21" transform="translate(162.3 -89.63) rotate(90)"/><rect class="cls-3" x="88.27" y="-30.64" width="8.16" height="69.44" transform="translate(96.43 -88.27) rotate(90)"/><circle class="cls-4" cx="90.19" cy="36.59" r="34.8"/><circle class="cls-5" cx="90.31" cy="36.93" r="32.68"/><circle class="cls-3" cx="90.31" cy="36.93" r="22"/><circle class="cls-6" cx="90.31" cy="36.93" r="21.28"/><circle class="cls-3" cx="90.43" cy="36.97" r="3.7"/><rect class="cls-3" x="89.49" y="15.65" width="1.87" height="18.24"/><rect class="cls-3" x="89.49" y="15.65" width="1.87" height="18.24"/><rect class="cls-3" x="80.87" y="19.22" width="1.87" height="18.24" transform="translate(3.92 66.15) rotate(-45)"/><rect class="cls-3" x="77.3" y="27.85" width="1.87" height="18.24" transform="translate(41.27 115.2) rotate(-90)"/><rect class="cls-3" x="80.87" y="36.47" width="1.87" height="18.24" transform="translate(107.42 135.67) rotate(-135)"/><rect class="cls-3" x="89.49" y="40.04" width="1.87" height="18.24" transform="translate(180.86 98.32) rotate(-180)"/><rect class="cls-3" x="98.11" y="36.47" width="1.87" height="18.24" transform="translate(201.32 7.78) rotate(135)"/><rect class="cls-3" x="101.68" y="27.85" width="1.87" height="18.24" transform="translate(139.59 -65.65) rotate(90)"/><rect class="cls-3" x="98.11" y="19.22" width="1.87" height="18.24" transform="translate(49.05 -61.74) rotate(45)"/><circle class="cls-3" cx="117.13" cy="36.87" r="2.74"/><circle class="cls-3" cx="109.24" cy="18.02" r="2.74"/><circle class="cls-3" cx="90.33" cy="10.27" r="2.74"/><circle class="cls-3" cx="71.48" cy="18.16" r="2.74"/><circle class="cls-3" cx="63.73" cy="37.06" r="2.74"/><circle class="cls-3" cx="71.62" cy="55.91" r="2.74"/><circle class="cls-3" cx="90.52" cy="63.66" r="2.74"/><circle class="cls-3" cx="109.37" cy="55.78" r="2.74"/><rect class="cls-7" x="-34.55" y="57.34" width="94.87" height="22.17" transform="translate(81.31 55.54) rotate(90)"/><rect class="cls-8" x="23.47" y="25.08" width="24.58" height="23.58" transform="translate(72.63 1.11) rotate(90)"/><rect class="cls-9" x="39.56" y="73.24" width="35.83" height="44.3" transform="translate(152.86 37.91) rotate(90)"/><rect class="cls-10" x="23.71" y="94.78" width="35.82" height="1.2" transform="translate(137 53.77) rotate(90)"/><rect class="cls-11" x="23.71" y="95.19" width="35.82" height="0.39" transform="translate(137 53.77) rotate(90)"/><rect class="cls-12" x="31.78" y="94.78" width="35.82" height="1.2" transform="translate(145.07 45.69) rotate(90)"/><rect class="cls-11" x="31.78" y="95.19" width="35.82" height="0.39" transform="translate(145.07 45.69) rotate(90)"/><rect class="cls-13" x="41.64" y="94.78" width="35.82" height="1.2" transform="translate(154.93 35.83) rotate(90)"/><rect class="cls-11" x="41.64" y="95.19" width="35.82" height="0.39" transform="translate(154.93 35.83) rotate(90)"/><rect class="cls-14" x="15.83" y="85.62" width="23.15" height="6.86" transform="translate(116.45 61.64) rotate(90)"/><rect class="cls-15" x="14.36" y="93.94" width="37.87" height="4.93" transform="translate(129.71 63.11) rotate(90)"/><rect class="cls-16" x="19.93" y="34.31" width="59.62" height="5.25" transform="translate(86.68 -12.81) rotate(90)"/><rect class="cls-17" x="83.54" y="13.1" width="4.8" height="123.94" transform="translate(161.01 -10.87) rotate(90)"/><rect class="cls-18" x="72.83" y="42.51" width="4.34" height="150" transform="translate(192.51 42.51) rotate(90)"/><rect class="cls-19" x="82.61" y="33.58" width="1.82" height="95.52" transform="translate(164.86 -2.18) rotate(90)"/><rect class="cls-20" x="107.48" y="60.89" width="1.3" height="46.29" transform="translate(192.18 -24.09) rotate(90)"/><rect class="cls-21" x="107.48" y="64.67" width="1.3" height="46.29" transform="translate(195.95 -20.32) rotate(90)"/><rect class="cls-22" x="107.48" y="68.49" width="1.3" height="46.29" transform="translate(199.78 -16.5) rotate(90)"/><rect class="cls-23" x="107.48" y="72.36" width="1.3" height="46.29" transform="translate(203.64 -12.63) rotate(90)"/><rect class="cls-24" x="107.48" y="76.22" width="1.3" height="46.29" transform="translate(207.51 -8.77) rotate(90)"/><rect class="cls-25" x="107.48" y="79.87" width="1.3" height="46.29" transform="translate(211.15 -5.12) rotate(90)"/><rect class="cls-26" x="107.48" y="84.04" width="1.3" height="46.29" transform="translate(215.32 -0.95) rotate(90)"/><rect class="cls-27" x="82.66" y="62.55" width="1.82" height="95.61" transform="translate(193.92 26.78) rotate(90)"/><rect class="cls-28" x="80.41" y="78.11" width="3.71" height="6.45" transform="translate(163.6 -0.92) rotate(90)"/><rect class="cls-29" x="80.41" y="107.12" width="3.71" height="6.45" transform="translate(192.61 28.09) rotate(90)"/><rect class="cls-3" x="106.95" y="92.73" width="4.08" height="41.15" transform="translate(222.29 4.31) rotate(90)"/></g></g></g></svg>