<svg xmlns="http://www.w3.org/2000/svg" xmlns:xlink="http://www.w3.org/1999/xlink" viewBox="0 0 92.96 150"><defs><style>.cls-1{fill:url(#未命名的渐变_45);}.cls-2{fill:#f4f0ec;}</style><linearGradient id="未命名的渐变_45" x1="46.48" y1="134.66" x2="46.48" y2="15.34" gradientUnits="userSpaceOnUse"><stop offset="0" stop-color="#f4b87a"/><stop offset="1" stop-color="#b5bdc1"/></linearGradient></defs><title>Blowing sand(扬沙)</title><g id="图层_2" data-name="图层 2"><g id="图层_21" data-name="图层 21"><g id="Blowing_sand_扬沙_" data-name="Blowing sand(扬沙)"><path class="cls-1" d="M32.64,47.14a9,9,0,0,0,2.78,6.55,27.63,27.63,0,0,0,6.84,4.91,57.15,57.15,0,0,0,8.53,3.61q4.45,1.47,8,2.78a153.49,153.49,0,0,1,15.47,6.55,50.64,50.64,0,0,1,10.82,7,22.23,22.23,0,0,1,6.14,8.52,26.67,26.67,0,0,1,1.69,10.81q-.41,16.22-12.3,26.12t-36.3,10.57a57.4,57.4,0,0,1-16.76-1.72A99.62,99.62,0,0,1,14,128.39a29.21,29.21,0,0,1-8.23-4.84,18.41,18.41,0,0,1-4.46-5.48A11,11,0,0,1,0,112.66a6.8,6.8,0,0,1,1.68-4.42,9.58,9.58,0,0,1,6.65-4,12.32,12.32,0,0,1,7.24,1.4q3,1.63,6.25,3.52a63.13,63.13,0,0,0,6.94,3.44,49.76,49.76,0,0,0,7.74,2.54,37.7,37.7,0,0,0,8.82,1A27.25,27.25,0,0,0,53.17,115,22.57,22.57,0,0,0,60,111.68a16.11,16.11,0,0,0,4.76-5.33,14.67,14.67,0,0,0,1.79-7.29,11.29,11.29,0,0,0-2.18-6.88A24.08,24.08,0,0,0,59.12,87a32,32,0,0,0-6.74-3.68A62.75,62.75,0,0,0,45.73,81q-8.32-2.45-15.57-5.32a56,56,0,0,1-12.6-6.8A31.08,31.08,0,0,1,9,59.59,24.88,24.88,0,0,1,5.86,46.81,24.89,24.89,0,0,1,9.73,33a32,32,0,0,1,10.21-9.91,49.47,49.47,0,0,1,14.38-5.9,63.34,63.34,0,0,1,16.37-1.8A66.64,66.64,0,0,1,68,17.81a49,49,0,0,1,13.19,5.74Q86.39,27,88.28,31a7.1,7.1,0,0,1-.7,7.62,10,10,0,0,1-3.47,2.86A15.19,15.19,0,0,1,79.75,43a13.66,13.66,0,0,1-4.46.08,8.24,8.24,0,0,1-3.57-1.31q-2-1.14-4.57-2.54a53.53,53.53,0,0,0-5.45-2.54,48.16,48.16,0,0,0-6.15-2,27.1,27.1,0,0,0-6.65-.82,17.49,17.49,0,0,0-6.74,1.23,17.3,17.3,0,0,0-5.06,3.11,14.45,14.45,0,0,0-3.27,4.26A10.28,10.28,0,0,0,32.64,47.14Z"/><polygon class="cls-2" points="64.14 24.03 46.48 0 28.82 24.03 39 24.03 39 150 53.96 150 53.96 24.03 64.14 24.03"/></g></g></g></svg>