<svg xmlns="http://www.w3.org/2000/svg" xmlns:xlink="http://www.w3.org/1999/xlink" viewBox="0 0 150 142.18"><defs><style>.cls-1{fill:url(#未命名的渐变_24);}.cls-2{fill:url(#未命名的渐变_13);}.cls-3{fill:url(#未命名的渐变_204);}.cls-4{fill:url(#未命名的渐变_185);}.cls-5{fill:url(#未命名的渐变_152);}.cls-6{fill:url(#未命名的渐变_518);}.cls-7{fill:url(#未命名的渐变_183);}.cls-8{fill:url(#未命名的渐变_518-2);}</style><linearGradient id="未命名的渐变_24" x1="89.43" y1="83.59" x2="20.18" y2="14.34" gradientUnits="userSpaceOnUse"><stop offset="0" stop-color="#ffa620"/><stop offset="1" stop-color="#ffb100"/></linearGradient><linearGradient id="未命名的渐变_13" x1="80.36" y1="74.56" x2="29.24" y2="23.44" gradientUnits="userSpaceOnUse"><stop offset="0" stop-color="#ffb820"/><stop offset="1" stop-color="#ffe600"/></linearGradient><linearGradient id="未命名的渐变_204" x1="57.63" y1="151.69" x2="112.79" y2="56.16" gradientUnits="userSpaceOnUse"><stop offset="0.4" stop-color="#8aafe6"/><stop offset="1" stop-color="#ebeff5"/></linearGradient><linearGradient id="未命名的渐变_185" x1="37.43" y1="138.6" x2="98.46" y2="32.89" gradientUnits="userSpaceOnUse"><stop offset="0.34" stop-color="#8aafe6"/><stop offset="1" stop-color="#cce0ff"/></linearGradient><linearGradient id="未命名的渐变_152" x1="81.66" y1="107.54" x2="34.47" y2="60.35" gradientUnits="userSpaceOnUse"><stop offset="0.5" stop-color="#bddcff" stop-opacity="0"/><stop offset="0.57" stop-color="#bfdbf8" stop-opacity="0.02"/><stop offset="0.66" stop-color="#c5d7e2" stop-opacity="0.07"/><stop offset="0.74" stop-color="#ced0be" stop-opacity="0.16"/><stop offset="0.83" stop-color="#dcc78b" stop-opacity="0.28"/><stop offset="0.92" stop-color="#edbb4a" stop-opacity="0.43"/><stop offset="1" stop-color="#ffaf06" stop-opacity="0.6"/></linearGradient><linearGradient id="未命名的渐变_518" x1="104.09" y1="95.94" x2="45.91" y2="37.77" gradientUnits="userSpaceOnUse"><stop offset="0.5" stop-color="#bddcff" stop-opacity="0"/><stop offset="1" stop-color="#ffde99" stop-opacity="0.6"/></linearGradient><linearGradient id="未命名的渐变_183" x1="61.71" y1="136.68" x2="20.56" y2="65.41" gradientUnits="userSpaceOnUse"><stop offset="0" stop-color="#8aafe6"/><stop offset="1" stop-color="#cce0ff"/></linearGradient><linearGradient id="未命名的渐变_518-2" x1="70.22" y1="130.13" x2="12.05" y2="71.96" xlink:href="#未命名的渐变_518"/></defs><title>Cloudy（多云(白天)）</title><g id="图层_2" data-name="图层 2"><g id="图层_21" data-name="图层 21"><g id="Cloudy_多云_白天_" data-name="Cloudy（多云(白天)）"><path class="cls-1" d="M57.1,5.73,53,1.62A5.53,5.53,0,0,0,44.3,2.76l-2.91,5a5.53,5.53,0,0,1-6.21,2.58L29.56,8.87a5.53,5.53,0,0,0-7,5.33V20a5.52,5.52,0,0,1-4.09,5.34l-5.62,1.5A5.52,5.52,0,0,0,9.54,35l2.91,5a5.53,5.53,0,0,1-.88,6.67L7.45,50.78A5.53,5.53,0,0,0,8.6,59.47l5,2.91a5.52,5.52,0,0,1,2.57,6.21L14.7,74.21a5.52,5.52,0,0,0,5.34,7h5.82a5.51,5.51,0,0,1,5.33,4.1l1.51,5.62a5.51,5.51,0,0,0,8.09,3.35l5-2.91a5.52,5.52,0,0,1,6.67.88l4.12,4.12a5.52,5.52,0,0,0,8.68-1.15l2.91-5a5.53,5.53,0,0,1,6.22-2.57l5.62,1.5a5.52,5.52,0,0,0,7-5.33V77.91a5.51,5.51,0,0,1,4.09-5.33l5.62-1.51a5.53,5.53,0,0,0,3.36-8.1l-2.91-5A5.52,5.52,0,0,1,98,51.27l4.12-4.12A5.53,5.53,0,0,0,101,38.46l-5-2.91a5.52,5.52,0,0,1-2.58-6.21l1.51-5.62a5.52,5.52,0,0,0-5.33-6.95H83.74a5.53,5.53,0,0,1-5.33-4.09L76.9,7.05A5.52,5.52,0,0,0,68.81,3.7l-5,2.91A5.52,5.52,0,0,1,57.1,5.73Z"/><circle class="cls-2" cx="54.8" cy="49" r="36.15"/><path class="cls-3" d="M107.79,59.91H41.18a.09.09,0,0,0-.09.1v82.07a.09.09,0,0,0,.09.1h67.68A41.14,41.14,0,0,0,150,99.64C149.23,77.29,130.14,59.91,107.79,59.91Z"/><path class="cls-4" d="M116.14,66.85a41.14,41.14,0,0,0-81.79-6.38,41.93,41.93,0,0,0-.49,6.38A41.15,41.15,0,0,0,75,108a39.82,39.82,0,0,0,6.77-.56,41.15,41.15,0,0,1-38.25,34.68c1,0,2,.07,3,.07a69.63,69.63,0,0,0,69.64-69.62c0-1.07,0-2.14-.08-3.19C116.11,68.55,116.14,67.69,116.14,66.85Z"/><path class="cls-5" d="M82.27,101a40.72,40.72,0,0,1-.5,6.39A39.82,39.82,0,0,1,75,108,41.15,41.15,0,0,1,33.86,66.85a41.93,41.93,0,0,1,.49-6.38A41.15,41.15,0,0,1,82.27,101Z"/><circle class="cls-6" cx="75" cy="66.85" r="41.14"/><circle class="cls-7" cx="41.14" cy="101.04" r="41.14"/><circle class="cls-8" cx="41.14" cy="101.04" r="41.14"/></g></g></g></svg>