<svg xmlns="http://www.w3.org/2000/svg" xmlns:xlink="http://www.w3.org/1999/xlink" viewBox="0 0 150 134.15"><defs><style>.cls-1{fill:url(#未命名的渐变_421);}.cls-2{fill:none;}.cls-3{fill:#fff;}</style><linearGradient id="未命名的渐变_421" x1="75" y1="134.15" x2="75" gradientUnits="userSpaceOnUse"><stop offset="0" stop-color="#ffece6"/><stop offset="1" stop-color="#a86f54"/></linearGradient></defs><title>Earthquake（地震）</title><g id="图层_2" data-name="图层 2"><g id="图层_21" data-name="图层 21"><g id="Earthquake_地震_" data-name="Earthquake（地震）"><polygon class="cls-1" points="150 75 144.61 80.39 129.97 65.74 129.97 134.15 20.03 134.15 20.03 65.74 5.39 80.39 0 75 39 36 75 0 150 75"/><polygon class="cls-2" points="106.27 110.12 106.27 90.14 75.87 90.14 74.13 90.14 43.73 90.14 43.73 110.12 74.13 110.12 75.87 110.12 106.27 110.12"/><rect class="cls-2" x="20.03" y="90.14" width="22.04" height="19.99"/><rect class="cls-2" x="20.03" y="112.09" width="54.1" height="20.43"/><rect class="cls-2" x="20.03" y="67.75" width="54.1" height="20.31"/><rect class="cls-2" x="75.87" y="67.75" width="54.1" height="20.31"/><rect class="cls-2" x="75.87" y="112.09" width="54.1" height="20.43"/><rect class="cls-2" x="108.11" y="90.14" width="21.86" height="19.99"/><path class="cls-3" d="M75.87,67.75H130V66.12H20v1.63h54.1V88.06H20v2.08h22v20H20v2h54.1v20.43H20v1.63H130v-1.63H75.87V112.09H130v-2H108.11v-20H130V88.06H75.87Zm30.4,22.39v20H43.73v-20Z"/><polygon class="cls-3" points="125.03 127.2 80.05 107.08 79.36 106.78 79.68 106.06 85.13 93.88 60.83 83.01 59.54 82.43 60.13 81.11 65.95 68.11 42.31 57.53 40.41 56.68 41.29 54.72 47.89 39.97 39.01 35.99 42.89 32.11 52.09 36.58 54.29 37.64 53.25 39.77 46.03 54.64 68.88 65.73 70.42 66.48 69.7 67.97 63.34 81.05 86.87 92.47 87.78 92.92 87.35 93.8 81.41 106.02 125.03 127.2"/></g></g></g></svg>