<svg xmlns="http://www.w3.org/2000/svg" xmlns:xlink="http://www.w3.org/1999/xlink" viewBox="0 0 116.87 150"><defs><style>.cls-1{fill:url(#未命名的渐变_45);}</style><linearGradient id="未命名的渐变_45" x1="58.43" y1="150" x2="58.43" gradientUnits="userSpaceOnUse"><stop offset="0" stop-color="#f4b87a"/><stop offset="1" stop-color="#b5bdc1"/></linearGradient></defs><title>Floating sand(浮尘)</title><g id="图层_2" data-name="图层 2"><g id="图层_21" data-name="图层 21"><g id="Floating_sand_浮尘_" data-name="Floating sand(浮尘)"><path class="cls-1" d="M41,40a11.29,11.29,0,0,0,3.49,8.24,35.19,35.19,0,0,0,8.61,6.18,71.8,71.8,0,0,0,10.72,4.53q5.61,1.84,10.1,3.5A190,190,0,0,1,93.4,70.66,63,63,0,0,1,107,79.51a28.26,28.26,0,0,1,7.73,10.71,33.85,33.85,0,0,1,2.12,13.59q-.51,20.39-15.47,32.85T55.75,149.94a72.19,72.19,0,0,1-21.08-2.16,123.24,123.24,0,0,1-17.08-5.66A37.1,37.1,0,0,1,7.24,136a23,23,0,0,1-5.61-6.9A13.92,13.92,0,0,1,0,122.35a8.61,8.61,0,0,1,2.12-5.56,12,12,0,0,1,8.35-5.05,15.48,15.48,0,0,1,9.11,1.75q3.73,2.07,7.85,4.43a79.66,79.66,0,0,0,8.73,4.32,62.3,62.3,0,0,0,9.73,3.2A47.27,47.27,0,0,0,57,126.67a34.6,34.6,0,0,0,9.86-1.44,28.56,28.56,0,0,0,8.6-4.12,20.2,20.2,0,0,0,6-6.69,18.43,18.43,0,0,0,2.25-9.17,14.15,14.15,0,0,0-2.75-8.65,29.86,29.86,0,0,0-6.6-6.48,40.12,40.12,0,0,0-8.48-4.64,80.78,80.78,0,0,0-8.36-2.88Q47,79.51,37.92,75.91a70,70,0,0,1-15.84-8.55A38.9,38.9,0,0,1,11.36,55.62a31.14,31.14,0,0,1-4-16.06,31.39,31.39,0,0,1,4.87-17.41A40.37,40.37,0,0,1,25.07,9.69,62.36,62.36,0,0,1,43.15,2.28,79.38,79.38,0,0,1,63.73,0,82.53,82.53,0,0,1,85.42,3.11,61.55,61.55,0,0,1,102,10.31q6.6,4.33,9,9.37a8.92,8.92,0,0,1-.87,9.58,12.73,12.73,0,0,1-4.36,3.6,19.36,19.36,0,0,1-5.49,1.86,17.08,17.08,0,0,1-5.61.1,10.18,10.18,0,0,1-4.49-1.65c-1.66-1-3.58-2-5.73-3.19a65.47,65.47,0,0,0-6.86-3.19,61.42,61.42,0,0,0-7.73-2.47,34.18,34.18,0,0,0-8.36-1,21.71,21.71,0,0,0-14.84,5.46,18.29,18.29,0,0,0-4.11,5.35A13,13,0,0,0,41,40Z"/></g></g></g></svg>