<svg xmlns="http://www.w3.org/2000/svg" xmlns:xlink="http://www.w3.org/1999/xlink" viewBox="0 0 139.95 150"><defs><style>.cls-1{fill:url(#未命名的渐变_216);}.cls-2{fill:url(#未命名的渐变_215);}.cls-3{fill:url(#未命名的渐变_152);}.cls-4{fill:url(#未命名的渐变_214);}.cls-5{fill:url(#未命名的渐变_214-2);}.cls-6{fill:url(#未命名的渐变_214-3);}.cls-7{fill:url(#未命名的渐变_214-4);}.cls-8{fill:url(#未命名的渐变_214-5);}.cls-9{fill:url(#未命名的渐变_214-6);}</style><linearGradient id="未命名的渐变_216" x1="53.77" y1="117.53" x2="105.23" y2="28.41" gradientUnits="userSpaceOnUse"><stop offset="0.4" stop-color="#87acb2"/><stop offset="1" stop-color="#e4f3f5"/></linearGradient><linearGradient id="未命名的渐变_215" x1="34.92" y1="105.31" x2="91.86" y2="6.7" gradientUnits="userSpaceOnUse"><stop offset="0.3" stop-color="#87acb2"/><stop offset="1" stop-color="#e4f3f5"/></linearGradient><linearGradient id="未命名的渐变_152" x1="76.19" y1="76.34" x2="32.16" y2="32.32" gradientUnits="userSpaceOnUse"><stop offset="0.5" stop-color="#bddcff" stop-opacity="0"/><stop offset="0.57" stop-color="#bfdbf8" stop-opacity="0.02"/><stop offset="0.66" stop-color="#c5d7e2" stop-opacity="0.07"/><stop offset="0.74" stop-color="#ced0be" stop-opacity="0.16"/><stop offset="0.83" stop-color="#dcc78b" stop-opacity="0.28"/><stop offset="0.92" stop-color="#edbb4a" stop-opacity="0.43"/><stop offset="1" stop-color="#ffaf06" stop-opacity="0.6"/></linearGradient><linearGradient id="未命名的渐变_214" x1="57.57" y1="103.52" x2="19.19" y2="37.04" gradientUnits="userSpaceOnUse"><stop offset="0" stop-color="#87acb2"/><stop offset="1" stop-color="#e4f3f5"/></linearGradient><linearGradient id="未命名的渐变_214-2" x1="73.82" y1="129.93" x2="66.16" y2="116.67" xlink:href="#未命名的渐变_214"/><linearGradient id="未命名的渐变_214-3" x1="98.68" y1="129.93" x2="91.02" y2="116.67" xlink:href="#未命名的渐变_214"/><linearGradient id="未命名的渐变_214-4" x1="48.96" y1="129.93" x2="41.3" y2="116.67" xlink:href="#未命名的渐变_214"/><linearGradient id="未命名的渐变_214-5" x1="86.25" y1="149.82" x2="78.59" y2="136.55" xlink:href="#未命名的渐变_214"/><linearGradient id="未命名的渐变_214-6" x1="61.39" y1="149.82" x2="53.73" y2="136.55" xlink:href="#未命名的渐变_214"/></defs><title>Heavy Snowstorm(大暴雪)</title><g id="图层_2" data-name="图层 2"><g id="图层_21" data-name="图层 21"><g id="Heavy_Snowstorm_大暴雪_" data-name="Heavy Snowstorm(大暴雪)"><path class="cls-1" d="M100.56,31.9H38.42a.09.09,0,0,0-.09.09v76.58a.09.09,0,0,0,.09.09h63.15A38.37,38.37,0,0,0,139.92,69C139.23,48.12,121.42,31.9,100.56,31.9Z"/><path class="cls-2" d="M108.35,38.38a38.38,38.38,0,0,0-76.3-6,38.94,38.94,0,0,0-.46,6A38.39,38.39,0,0,0,70,76.76a37.61,37.61,0,0,0,6.32-.52A38.39,38.39,0,0,1,40.6,108.59c.92,0,1.85.07,2.79.07a65,65,0,0,0,65-65c0-1,0-2-.07-3C108.33,40,108.35,39.16,108.35,38.38Z"/><path class="cls-3" d="M76.76,70.27a37.87,37.87,0,0,1-.47,6,37.61,37.61,0,0,1-6.32.52A38.39,38.39,0,0,1,31.59,38.38a38.94,38.94,0,0,1,.46-6,37.73,37.73,0,0,1,6.33-.52A38.37,38.37,0,0,1,76.76,70.27Z"/><circle class="cls-4" cx="38.38" cy="70.28" r="38.38"/><path class="cls-5" d="M76,125l1-.58a1.24,1.24,0,0,0,0-2.16l-1-.59a1.9,1.9,0,0,0-1.86,0l-.94.52-.61-1.06.93-.57a1.91,1.91,0,0,0,.91-1.6l0-1.18a1.24,1.24,0,0,0-1.87-1.09l-1,.59a1.91,1.91,0,0,0-1,1.62l0,1.07H69.37l0-1.07a1.92,1.92,0,0,0-.92-1.58l-1-.61a1.24,1.24,0,0,0-1.88,1.07v1.18a1.91,1.91,0,0,0,.92,1.63l.9.54-.59,1-.85-.49a1.92,1.92,0,0,0-1.87,0l-1.06.59a1.24,1.24,0,0,0,0,2.18l1.07.58a1.91,1.91,0,0,0,1.84,0l.87-.49.58,1-.84.49a1.92,1.92,0,0,0-.94,1.62l0,1.21a1.23,1.23,0,0,0,1.89,1.08l1-.63a1.92,1.92,0,0,0,.9-1.6l0-1h1.17v1a1.94,1.94,0,0,0,.93,1.63l1,.62a1.24,1.24,0,0,0,1.88-1.1l0-1.21a1.9,1.9,0,0,0-.93-1.58l-.86-.52.59-1,1,.52A1.91,1.91,0,0,0,76,125Zm-6-.1a1.57,1.57,0,1,1,1.57-1.56A1.56,1.56,0,0,1,70,124.89Z"/><path class="cls-6" d="M100.85,125l1-.58a1.24,1.24,0,0,0,0-2.16l-1-.59a1.92,1.92,0,0,0-1.87,0l-.93.52-.61-1.06.93-.57a1.93,1.93,0,0,0,.91-1.6l0-1.18a1.24,1.24,0,0,0-1.87-1.09l-1,.59a1.91,1.91,0,0,0-1,1.62l0,1.07H94.23l0-1.07a1.9,1.9,0,0,0-.93-1.58l-1-.61a1.24,1.24,0,0,0-1.88,1.07v1.18a1.94,1.94,0,0,0,.93,1.63l.9.54-.59,1-.85-.49a1.92,1.92,0,0,0-1.87,0l-1.06.59a1.24,1.24,0,0,0,0,2.18l1.07.58a1.89,1.89,0,0,0,1.83,0l.87-.49.59,1-.84.49a1.92,1.92,0,0,0-.94,1.62l0,1.21a1.24,1.24,0,0,0,1.9,1.08l1-.63a1.91,1.91,0,0,0,.91-1.6l0-1h1.16v1a1.91,1.91,0,0,0,.92,1.63l1.05.62a1.24,1.24,0,0,0,1.88-1.1l0-1.21a1.9,1.9,0,0,0-.93-1.58l-.87-.52.6-1,1,.52A1.91,1.91,0,0,0,100.85,125Zm-6-.1a1.57,1.57,0,1,1,1.56-1.56A1.56,1.56,0,0,1,94.83,124.89Z"/><path class="cls-7" d="M51.13,125l1-.58a1.23,1.23,0,0,0,0-2.16l-1-.59a1.92,1.92,0,0,0-1.87,0l-.94.52-.61-1.06.93-.57a1.91,1.91,0,0,0,.91-1.6l0-1.18a1.24,1.24,0,0,0-1.87-1.09l-1,.59a1.93,1.93,0,0,0-1,1.62V120H44.51l0-1.07a1.87,1.87,0,0,0-.92-1.58l-1-.61a1.24,1.24,0,0,0-1.88,1.07v1.18a1.91,1.91,0,0,0,.92,1.63l.91.54-.6,1-.85-.49a1.91,1.91,0,0,0-1.87,0l-1.06.59a1.24,1.24,0,0,0,0,2.18l1.07.58A1.91,1.91,0,0,0,41,125l.87-.49.58,1-.84.49a1.92,1.92,0,0,0-.94,1.62l0,1.21a1.23,1.23,0,0,0,1.89,1.08l1-.63a1.93,1.93,0,0,0,.91-1.6v-1h1.17v1a1.94,1.94,0,0,0,.93,1.63l1,.62a1.24,1.24,0,0,0,1.88-1.1l0-1.21A1.9,1.9,0,0,0,48.6,126l-.86-.52.59-1,1,.52A1.91,1.91,0,0,0,51.13,125Zm-6-.1a1.57,1.57,0,1,1,1.57-1.56A1.56,1.56,0,0,1,45.11,124.89Z"/><path class="cls-8" d="M88.42,144.88l1-.58a1.25,1.25,0,0,0,0-2.17l-1-.58a1.91,1.91,0,0,0-1.87,0l-.93.52L85,141l.93-.58a1.89,1.89,0,0,0,.91-1.59l0-1.18a1.25,1.25,0,0,0-1.87-1.1l-1,.6a1.9,1.9,0,0,0-.95,1.61l0,1.07H81.8l0-1.06a1.92,1.92,0,0,0-.93-1.59l-1-.61A1.25,1.25,0,0,0,78,137.65v1.18a1.88,1.88,0,0,0,.92,1.62l.9.55-.59,1-.85-.48a1.92,1.92,0,0,0-1.87,0l-1.06.59a1.24,1.24,0,0,0,0,2.18l1.07.58a1.94,1.94,0,0,0,1.84,0l.87-.49.58,1-.84.49A1.92,1.92,0,0,0,78,147.5l0,1.22a1.24,1.24,0,0,0,1.89,1.08l1-.64a1.9,1.9,0,0,0,.9-1.59l0-1H83v1a1.89,1.89,0,0,0,.93,1.62l1,.63a1.24,1.24,0,0,0,1.88-1.1l0-1.21a1.92,1.92,0,0,0-.93-1.59L85,145.4l.6-1,1,.52A1.94,1.94,0,0,0,88.42,144.88Zm-6-.1A1.57,1.57,0,1,1,84,143.21,1.56,1.56,0,0,1,82.4,144.78Z"/><path class="cls-9" d="M63.56,144.88l1-.58a1.24,1.24,0,0,0,0-2.17l-1-.58a1.9,1.9,0,0,0-1.86,0l-.94.52L60.16,141l.93-.58a1.89,1.89,0,0,0,.91-1.59l0-1.18a1.25,1.25,0,0,0-1.87-1.1l-1,.6a1.93,1.93,0,0,0-1,1.61l0,1.07H56.94l0-1.06a1.91,1.91,0,0,0-.92-1.59l-1-.61a1.25,1.25,0,0,0-1.88,1.08v1.18a1.88,1.88,0,0,0,.92,1.62l.9.55-.59,1-.85-.48a1.91,1.91,0,0,0-1.87,0l-1.06.59a1.24,1.24,0,0,0,0,2.18l1.07.58a1.94,1.94,0,0,0,1.84,0l.87-.49.58,1-.84.49a1.92,1.92,0,0,0-.94,1.61l0,1.22A1.24,1.24,0,0,0,55,149.8l1-.64a1.94,1.94,0,0,0,.91-1.59v-1h1.17v1a1.91,1.91,0,0,0,.93,1.62l1,.63a1.24,1.24,0,0,0,1.88-1.1l0-1.21a1.92,1.92,0,0,0-.93-1.59l-.86-.52.59-1,1,.52A1.94,1.94,0,0,0,63.56,144.88Zm-6-.1a1.57,1.57,0,1,1,1.57-1.57A1.56,1.56,0,0,1,57.54,144.78Z"/></g></g></g></svg>