<svg xmlns="http://www.w3.org/2000/svg" xmlns:xlink="http://www.w3.org/1999/xlink" viewBox="0 0 140.5 150"><defs><style>.cls-1{fill:url(#未命名的渐变_148);}.cls-2{fill:url(#未命名的渐变_147);}.cls-3{fill:url(#未命名的渐变_152);}.cls-4{fill:url(#未命名的渐变_134);}.cls-5{fill:url(#未命名的渐变_134-2);}.cls-6{fill:url(#未命名的渐变_134-3);}.cls-7{fill:url(#未命名的渐变_134-4);}.cls-8{fill:url(#未命名的渐变_134-5);}.cls-9{fill:url(#未命名的渐变_134-6);}</style><linearGradient id="未命名的渐变_148" x1="53.98" y1="118" x2="105.64" y2="28.52" gradientUnits="userSpaceOnUse"><stop offset="0.4" stop-color="#788e99"/><stop offset="1" stop-color="#f5f9ff"/></linearGradient><linearGradient id="未命名的渐变_147" x1="35.06" y1="105.73" x2="92.22" y2="6.72" gradientUnits="userSpaceOnUse"><stop offset="0.34" stop-color="#788e99"/><stop offset="1" stop-color="#ebf2f5"/></linearGradient><linearGradient id="未命名的渐变_152" x1="76.49" y1="76.64" x2="32.29" y2="32.44" gradientUnits="userSpaceOnUse"><stop offset="0.5" stop-color="#bddcff" stop-opacity="0"/><stop offset="0.57" stop-color="#bfdbf8" stop-opacity="0.02"/><stop offset="0.66" stop-color="#c5d7e2" stop-opacity="0.07"/><stop offset="0.74" stop-color="#ced0be" stop-opacity="0.16"/><stop offset="0.83" stop-color="#dcc78b" stop-opacity="0.28"/><stop offset="0.92" stop-color="#edbb4a" stop-opacity="0.43"/><stop offset="1" stop-color="#ffaf06" stop-opacity="0.6"/></linearGradient><linearGradient id="未命名的渐变_134" x1="57.8" y1="103.93" x2="19.26" y2="37.18" gradientUnits="userSpaceOnUse"><stop offset="0" stop-color="#788e99"/><stop offset="1" stop-color="#f5f9ff"/></linearGradient><linearGradient id="未命名的渐变_134-2" x1="-156.07" y1="50.11" x2="-156.07" y2="33.5" gradientTransform="translate(184.45 204.97) rotate(45)" xlink:href="#未命名的渐变_134"/><linearGradient id="未命名的渐变_134-3" x1="-138.42" y1="32.47" x2="-138.42" y2="15.85" gradientTransform="translate(184.45 204.97) rotate(45)" xlink:href="#未命名的渐变_134"/><linearGradient id="未命名的渐变_134-4" x1="-120.94" y1="14.99" x2="-120.94" y2="-1.63" gradientTransform="translate(184.45 204.97) rotate(45)" xlink:href="#未命名的渐变_134"/><linearGradient id="未命名的渐变_134-5" x1="-133.13" y1="55.41" x2="-133.13" y2="38.79" gradientTransform="translate(184.45 204.97) rotate(45)" xlink:href="#未命名的渐变_134"/><linearGradient id="未命名的渐变_134-6" x1="-115.65" y1="37.93" x2="-115.65" y2="21.31" gradientTransform="translate(184.45 204.97) rotate(45)" xlink:href="#未命名的渐变_134"/></defs><title>Heavy rainstorm（大暴雨）</title><g id="图层_2" data-name="图层 2"><g id="图层_21" data-name="图层 21"><g id="Heavy_rainstorm_大暴雨_" data-name="Heavy rainstorm（大暴雨）"><path class="cls-1" d="M101,32H38.58a.09.09,0,0,0-.1.09V109a.09.09,0,0,0,.1.1H102a38.53,38.53,0,0,0,38.5-39.85C139.78,48.31,121.9,32,101,32Z"/><path class="cls-2" d="M108.78,38.53a38.53,38.53,0,0,0-76.6-6,39.11,39.11,0,0,0-.46,6A38.54,38.54,0,0,0,70.25,77.07a37.85,37.85,0,0,0,6.34-.53A38.54,38.54,0,0,1,40.76,109c.93,0,1.86.06,2.8.06a65.21,65.21,0,0,0,65.22-65.21c0-1,0-2-.07-3C108.76,40.12,108.78,39.32,108.78,38.53Z"/><path class="cls-3" d="M77.06,70.55a38.13,38.13,0,0,1-.47,6,37.85,37.85,0,0,1-6.34.53A38.54,38.54,0,0,1,31.72,38.53a39.11,39.11,0,0,1,.46-6A38,38,0,0,1,38.53,32,38.53,38.53,0,0,1,77.06,70.55Z"/><circle class="cls-4" cx="38.53" cy="70.56" r="38.53"/><path class="cls-5" d="M51.94,122.32a5.29,5.29,0,0,0-5.58-5.58C39,116.74,38.64,130,38.64,130S51.94,129.8,51.94,122.32Z"/><path class="cls-6" d="M76.9,122.32a5.3,5.3,0,0,0-5.58-5.58C64,116.74,63.6,130,63.6,130S76.9,129.8,76.9,122.32Z"/><path class="cls-7" d="M101.61,122.32A5.29,5.29,0,0,0,96,116.74c-7.37,0-7.71,13.29-7.71,13.29S101.61,129.8,101.61,122.32Z"/><path class="cls-8" d="M64.42,142.29a5.3,5.3,0,0,0-5.58-5.58c-7.37,0-7.72,13.29-7.72,13.29S64.42,149.77,64.42,142.29Z"/><path class="cls-9" d="M89.13,142.29a5.29,5.29,0,0,0-5.58-5.58c-7.37,0-7.71,13.29-7.71,13.29S89.13,149.77,89.13,142.29Z"/></g></g></g></svg>