<svg xmlns="http://www.w3.org/2000/svg" xmlns:xlink="http://www.w3.org/1999/xlink" viewBox="0 0 110.23 150"><defs><style>.cls-1{fill:#90bdcf;}.cls-2{fill:url(#未命名的渐变_322);}.cls-3{fill:url(#未命名的渐变_322-2);}.cls-4{fill:url(#未命名的渐变_326);}.cls-5{fill:url(#未命名的渐变_326-2);}</style><linearGradient id="未命名的渐变_322" x1="-192.36" y1="-447.64" x2="-192.36" y2="-532.79" gradientTransform="translate(-447.64 202.51) rotate(90)" gradientUnits="userSpaceOnUse"><stop offset="0.2" stop-color="#90bdcf"/><stop offset="1" stop-color="#e6f0f7"/></linearGradient><linearGradient id="未命名的渐变_322-2" x1="-159.94" y1="-447.64" x2="-159.94" y2="-532.79" xlink:href="#未命名的渐变_322"/><linearGradient id="未命名的渐变_326" x1="27.91" y1="138.75" x2="60.29" y2="82.66" gradientUnits="userSpaceOnUse"><stop offset="0" stop-color="#90bdcf"/><stop offset="1" stop-color="#e6f0f7"/></linearGradient><linearGradient id="未命名的渐变_326-2" x1="70.36" y1="142.46" x2="105.31" y2="81.93" xlink:href="#未命名的渐变_326"/></defs><title>Hurricane（13级风）</title><g id="图层_2" data-name="图层 2"><g id="图层_21" data-name="图层 21"><g id="Hurricane_13级风_" data-name="Hurricane（13级风）"><path class="cls-1" d="M10.16,150A10.16,10.16,0,0,1,0,139.84V10.16a10.16,10.16,0,1,1,20.31,0V139.84A10.16,10.16,0,0,1,10.16,150Z"/><path class="cls-2" d="M75,20.31H10.16A10.16,10.16,0,1,1,10.16,0H75a10.16,10.16,0,1,1,0,20.31Z"/><path class="cls-3" d="M10.16,85.16A10.16,10.16,0,0,1,3,67.82L67.82,3A10.16,10.16,0,0,1,82.18,17.34L17.34,82.18A10.17,10.17,0,0,1,10.16,85.16Z"/><path class="cls-4" d="M53.67,144.18q0,4-6.4,4c-4.26,0-6.4-1.32-6.4-4V89.35h-5a2.79,2.79,0,0,1-2.64-1.22c-.48-.82-.71-2.51-.71-5.08s.32-4.13,1-5.08a3.36,3.36,0,0,1,3-1.42H46.66q7,0,7,5.28Z"/><path class="cls-5" d="M93.58,110a19.59,19.59,0,0,1,6,1.42,17.74,17.74,0,0,1,5.33,3.35,16.77,16.77,0,0,1,3.81,5.23,16.3,16.3,0,0,1,1.47,7.06,21.58,21.58,0,0,1-1.72,8.79,19.29,19.29,0,0,1-4.78,6.65,20.9,20.9,0,0,1-7.31,4.21,28.45,28.45,0,0,1-9.34,1.47,23.54,23.54,0,0,1-10.1-2,22,22,0,0,1-6.91-4.87,18.75,18.75,0,0,1-3.91-6.14A15.47,15.47,0,0,1,65,129.26a5.61,5.61,0,0,1,1.83-4.17,6,6,0,0,1,4.06-1.52,7.93,7.93,0,0,1,1.93.25,6.08,6.08,0,0,1,1.93.87,5.75,5.75,0,0,1,1.58,1.57,4.92,4.92,0,0,1,.76,2.49,8.76,8.76,0,0,0,.71,2.69,8.55,8.55,0,0,0,1.83,2.74,9.62,9.62,0,0,0,3.2,2.13,11.93,11.93,0,0,0,4.82.87,9.42,9.42,0,0,0,4-.87A10.47,10.47,0,0,0,95,134a10,10,0,0,0,2.13-3.4,11.32,11.32,0,0,0,.76-4.12,9,9,0,0,0-1.11-4.57,9.44,9.44,0,0,0-3-3.14A12.66,12.66,0,0,0,89.67,117a19.93,19.93,0,0,0-4.72-.56,6.49,6.49,0,0,1-4.27-1.62A6,6,0,0,1,78.75,110a5.58,5.58,0,0,1,5.79-5.79,8.65,8.65,0,0,0,3.61-.81A10.8,10.8,0,0,0,93.48,98a8.65,8.65,0,0,0,.81-3.61,8.79,8.79,0,0,0-2.39-6.34,7.45,7.45,0,0,0-11.12,0,9,9,0,0,0-2.13,6,4.63,4.63,0,0,1-1.57,3.5,6.88,6.88,0,0,1-4.83,1.47,4.68,4.68,0,0,1-3.6-1.62,6.12,6.12,0,0,1-1.47-4.27,17,17,0,0,1,5.73-13,19,19,0,0,1,6.25-3.65,22.4,22.4,0,0,1,7.62-1.27,27.47,27.47,0,0,1,7.51,1,18.47,18.47,0,0,1,6.3,3.15,15,15,0,0,1,4.31,5.44,17.85,17.85,0,0,1,1.58,7.76,17.33,17.33,0,0,1-1.07,6.3,18.25,18.25,0,0,1-2.79,4.88,17,17,0,0,1-4.12,3.65A29.43,29.43,0,0,1,93.58,110Z"/></g></g></g></svg>