<svg xmlns="http://www.w3.org/2000/svg" xmlns:xlink="http://www.w3.org/1999/xlink" viewBox="0 0 150 139.08"><defs><style>.cls-1{fill:url(#未命名的渐变_376);}.cls-2{fill:url(#未命名的渐变_174);}.cls-3{fill:url(#未命名的渐变_392);}.cls-4{fill:url(#未命名的渐变_395);}</style><linearGradient id="未命名的渐变_376" x1="112.46" y1="131.07" x2="37.47" y2="1.18" gradientUnits="userSpaceOnUse"><stop offset="0" stop-color="#87acb2"/><stop offset="1" stop-color="#e4f3f5"/></linearGradient><linearGradient id="未命名的渐变_174" x1="117.05" y1="139.08" x2="117.05" y2="59.99" gradientUnits="userSpaceOnUse"><stop offset="0" stop-color="#e1e3e6"/><stop offset="1" stop-color="#f0f2f5"/></linearGradient><linearGradient id="未命名的渐变_392" x1="117.05" y1="123.56" x2="117.05" y2="114.18" gradientUnits="userSpaceOnUse"><stop offset="0" stop-color="#42a2db"/><stop offset="1" stop-color="#c7dee6"/></linearGradient><linearGradient id="未命名的渐变_395" x1="117.05" y1="134.49" x2="117.05" y2="121.75" gradientUnits="userSpaceOnUse"><stop offset="0" stop-color="#42b2db"/><stop offset="1" stop-color="#c7dee6"/></linearGradient></defs><title>Ice（寒冷）</title><g id="图层_2" data-name="图层 2"><g id="图层_21" data-name="图层 21"><g id="Ice_寒冷_" data-name="Ice（寒冷）"><path class="cls-1" d="M124.59,85.48l21-11.7a8.51,8.51,0,0,0,.08-14.84l-21.08-12a4.24,4.24,0,0,0-4.17,0l-11.76,6.51a4.25,4.25,0,0,1-5.75-1.59l-1.56-2.7a4.26,4.26,0,0,1,1.45-5.76l11.55-7.09a4.25,4.25,0,0,0,2-3.56l.39-24.07A8.52,8.52,0,0,0,104,1.18L83.05,13.43A4.26,4.26,0,0,0,80.94,17L80.7,30.49a4.25,4.25,0,0,1-4.25,4.18H73.33a4.26,4.26,0,0,1-4.26-4.14l-.36-13.31a4.26,4.26,0,0,0-2.07-3.53L46,1.32A8.51,8.51,0,0,0,33.1,8.67l.15,24.24a4.24,4.24,0,0,0,2.06,3.62l11.41,6.88a4.25,4.25,0,0,1,1.49,5.78l-1.37,2.38A4.26,4.26,0,0,1,41,53.14l-10.86-6.2a4.27,4.27,0,0,0-4.17,0l-21.62,12a8.52,8.52,0,0,0,.07,14.94L26.05,85.51a4.25,4.25,0,0,0,4.09,0l11-6.12A4.25,4.25,0,0,1,46.9,81l1.25,2.15a4.26,4.26,0,0,1-1.54,5.81L35.84,95.22a4.25,4.25,0,0,0-2.11,3.6l-.44,24.7a8.51,8.51,0,0,0,13,7.41l20.9-12.85a4.24,4.24,0,0,0,2-3.56l.2-12.58a4.26,4.26,0,0,1,4.26-4.19h2.49A4.27,4.27,0,0,1,80.4,102l.06,12.71a4.26,4.26,0,0,0,2.07,3.63l21.17,12.73a8.51,8.51,0,0,0,12.9-7.53L115.92,99a4.26,4.26,0,0,0-2.07-3.53L103,88.94a4.25,4.25,0,0,1-1.5-5.78l1.42-2.47a4.26,4.26,0,0,1,5.72-1.62l11.9,6.44A4.26,4.26,0,0,0,124.59,85.48ZM85,77.41c-11.9,8.59-24.82.25-24.82-11.1A14.65,14.65,0,0,1,74.81,51.66c11.31,0,19.62,12.83,11.19,24.73A4.4,4.4,0,0,1,85,77.41Z"/><path class="cls-2" d="M114.65,138.82a10.94,10.94,0,0,1-5.49-18.27V68.24a8.13,8.13,0,0,1,7.1-8.21A7.91,7.91,0,0,1,125,67.89v52.67a10.95,10.95,0,0,1-10.3,18.26Z"/><path class="cls-3" d="M117.05,123.56a.71.71,0,0,1-.71-.71v-8a.71.71,0,1,1,1.42,0v8A.71.71,0,0,1,117.05,123.56Z"/><circle class="cls-4" cx="117.05" cy="128.12" r="6.37"/></g></g></g></svg>