<svg xmlns="http://www.w3.org/2000/svg" xmlns:xlink="http://www.w3.org/1999/xlink" viewBox="0 0 150 116.47"><defs><style>.cls-1{fill:url(#未命名的渐变_148);}.cls-2{fill:url(#未命名的渐变_147);}.cls-3{fill:url(#未命名的渐变_152);}.cls-4{fill:url(#未命名的渐变_151);}</style><linearGradient id="未命名的渐变_148" x1="57.63" y1="125.98" x2="112.79" y2="30.45" gradientUnits="userSpaceOnUse"><stop offset="0.4" stop-color="#788e99"/><stop offset="1" stop-color="#f5f9ff"/></linearGradient><linearGradient id="未命名的渐变_147" x1="37.43" y1="112.88" x2="98.46" y2="7.18" gradientUnits="userSpaceOnUse"><stop offset="0.34" stop-color="#788e99"/><stop offset="1" stop-color="#ebf2f5"/></linearGradient><linearGradient id="未命名的渐变_152" x1="81.66" y1="81.83" x2="34.47" y2="34.64" gradientUnits="userSpaceOnUse"><stop offset="0.5" stop-color="#bddcff" stop-opacity="0"/><stop offset="0.57" stop-color="#bfdbf8" stop-opacity="0.02"/><stop offset="0.66" stop-color="#c5d7e2" stop-opacity="0.07"/><stop offset="0.74" stop-color="#ced0be" stop-opacity="0.16"/><stop offset="0.83" stop-color="#dcc78b" stop-opacity="0.28"/><stop offset="0.92" stop-color="#edbb4a" stop-opacity="0.43"/><stop offset="1" stop-color="#ffaf06" stop-opacity="0.6"/></linearGradient><linearGradient id="未命名的渐变_151" x1="61.71" y1="110.96" x2="20.56" y2="39.7" gradientUnits="userSpaceOnUse"><stop offset="0" stop-color="#788e99"/><stop offset="1" stop-color="#f5f9ff"/></linearGradient></defs><title>Overcast（阴天）</title><g id="图层_2" data-name="图层 2"><g id="图层_21" data-name="图层 21"><g id="Overcast_阴天_" data-name="Overcast（阴天）"><path class="cls-1" d="M107.79,34.19H41.18a.1.1,0,0,0-.09.1v82.08a.1.1,0,0,0,.09.1h67.68A41.15,41.15,0,0,0,150,73.92C149.23,51.58,130.14,34.19,107.79,34.19Z"/><path class="cls-2" d="M116.14,41.14a41.14,41.14,0,0,0-81.79-6.38,41.93,41.93,0,0,0-.49,6.38A41.14,41.14,0,0,0,81.77,81.72,41.15,41.15,0,0,1,43.52,116.4c1,0,2,.06,3,.06a69.62,69.62,0,0,0,69.64-69.62c0-1.06,0-2.13-.08-3.18C116.11,42.83,116.14,42,116.14,41.14Z"/><path class="cls-3" d="M82.27,75.32a40.85,40.85,0,0,1-.5,6.4A41.14,41.14,0,0,1,33.86,41.14a41.93,41.93,0,0,1,.49-6.38,39.94,39.94,0,0,1,6.78-.56A41.13,41.13,0,0,1,82.27,75.32Z"/><circle class="cls-4" cx="41.14" cy="75.33" r="41.14"/></g></g></g></svg>