<svg xmlns="http://www.w3.org/2000/svg" xmlns:xlink="http://www.w3.org/1999/xlink" viewBox="0 0 143.06 150"><defs><style>.cls-1{fill:url(#未命名的渐变_45);}.cls-2{fill:#f4f0ec;}</style><linearGradient id="未命名的渐变_45" x1="62.94" y1="150" x2="62.94" gradientUnits="userSpaceOnUse"><stop offset="0" stop-color="#f4b87a"/><stop offset="1" stop-color="#b5bdc1"/></linearGradient></defs><title>Sand(沙尘暴)</title><g id="图层_2" data-name="图层 2"><g id="图层_21" data-name="图层 21"><g id="Sand_沙尘暴_" data-name="Sand(沙尘暴)"><path class="cls-1" d="M45.54,40A11.29,11.29,0,0,0,49,48.21a35.19,35.19,0,0,0,8.61,6.18,71.8,71.8,0,0,0,10.72,4.53q5.61,1.84,10.1,3.5a190,190,0,0,1,19.45,8.24,62.64,62.64,0,0,1,13.59,8.85,28,28,0,0,1,7.73,10.71,33.67,33.67,0,0,1,2.13,13.59q-.51,20.39-15.47,32.85T60.25,149.94a72.16,72.16,0,0,1-21.07-2.16,123.24,123.24,0,0,1-17.08-5.66A37.1,37.1,0,0,1,11.75,136a23,23,0,0,1-5.61-6.9,13.81,13.81,0,0,1-1.62-6.79,8.61,8.61,0,0,1,2.12-5.56A12,12,0,0,1,15,111.74a15.45,15.45,0,0,1,9.1,1.75q3.75,2.07,7.86,4.43a78.78,78.78,0,0,0,8.73,4.32,62,62,0,0,0,9.73,3.2,47.27,47.27,0,0,0,11.09,1.23,34.48,34.48,0,0,0,9.85-1.44A28.5,28.5,0,0,0,80,121.11a20.31,20.31,0,0,0,6-6.69,18.43,18.43,0,0,0,2.25-9.17,14.15,14.15,0,0,0-2.75-8.65,29.86,29.86,0,0,0-6.6-6.48,40.12,40.12,0,0,0-8.48-4.64A80.78,80.78,0,0,0,62,82.6q-10.47-3.09-19.58-6.69a70.12,70.12,0,0,1-15.83-8.55A39.07,39.07,0,0,1,15.86,55.62a31.14,31.14,0,0,1-4-16.06,31.39,31.39,0,0,1,4.87-17.41A40.37,40.37,0,0,1,29.58,9.69,62.36,62.36,0,0,1,47.66,2.28,79.38,79.38,0,0,1,68.24,0,82.53,82.53,0,0,1,89.93,3.11a61.55,61.55,0,0,1,16.59,7.2q6.6,4.33,9,9.37a8.92,8.92,0,0,1-.87,9.58,12.73,12.73,0,0,1-4.36,3.6,19.36,19.36,0,0,1-5.49,1.86,17.08,17.08,0,0,1-5.61.1,10.18,10.18,0,0,1-4.49-1.65c-1.66-1-3.58-2-5.73-3.19a65.47,65.47,0,0,0-6.86-3.19,61.58,61.58,0,0,0-7.74-2.47,34,34,0,0,0-8.35-1,21.71,21.71,0,0,0-14.84,5.46A18.29,18.29,0,0,0,47,34.1,13,13,0,0,0,45.54,40Z"/><polygon class="cls-2" points="112.85 97.2 143.06 75 112.85 52.8 112.85 65.59 0 65.59 0 84.41 112.85 84.41 112.85 97.2"/></g></g></g></svg>