<svg xmlns="http://www.w3.org/2000/svg" xmlns:xlink="http://www.w3.org/1999/xlink" viewBox="0 0 150 150"><defs><style>.cls-1{fill:url(#未命名的渐变_24);}.cls-2{fill:url(#未命名的渐变_13);}</style><linearGradient id="未命名的渐变_24" x1="128.03" y1="128.03" x2="21.97" y2="21.97" gradientUnits="userSpaceOnUse"><stop offset="0" stop-color="#ffa620"/><stop offset="1" stop-color="#ffb100"/></linearGradient><linearGradient id="未命名的渐变_13" x1="114.15" y1="114.2" x2="35.85" y2="35.9" gradientUnits="userSpaceOnUse"><stop offset="0" stop-color="#ffb820"/><stop offset="1" stop-color="#ffe600"/></linearGradient></defs><title>Sunny（晴（白天））</title><g id="图层_2" data-name="图层 2"><g id="图层_21" data-name="图层 21"><g id="Sunny_晴_白天_" data-name="Sunny（晴（白天））"><path class="cls-1" d="M78.52,8.78l-6.3-6.3A8.46,8.46,0,0,0,58.91,4.23L54.46,12a8.46,8.46,0,0,1-9.52,3.94l-8.61-2.31a8.46,8.46,0,0,0-10.65,8.17v8.92a8.46,8.46,0,0,1-6.26,8.17L10.8,41.15a8.46,8.46,0,0,0-5.13,12.4l4.46,7.72A8.46,8.46,0,0,1,8.78,71.48l-6.3,6.3A8.46,8.46,0,0,0,4.23,91.09L12,95.54a8.46,8.46,0,0,1,3.94,9.52l-2.31,8.61a8.46,8.46,0,0,0,8.17,10.65h8.92a8.46,8.46,0,0,1,8.17,6.26l2.31,8.62a8.46,8.46,0,0,0,12.4,5.13l7.72-4.46a8.46,8.46,0,0,1,10.21,1.35l6.3,6.3a8.46,8.46,0,0,0,13.31-1.75l4.45-7.72a8.46,8.46,0,0,1,9.52-3.94l8.61,2.31a8.46,8.46,0,0,0,10.65-8.17v-8.92a8.46,8.46,0,0,1,6.26-8.17l8.62-2.31a8.46,8.46,0,0,0,5.13-12.4l-4.46-7.72a8.46,8.46,0,0,1,1.35-10.21l6.3-6.3a8.46,8.46,0,0,0-1.75-13.31l-7.72-4.45a8.46,8.46,0,0,1-3.94-9.52l2.31-8.61a8.46,8.46,0,0,0-8.17-10.65h-8.92a8.46,8.46,0,0,1-8.17-6.26l-2.31-8.62a8.46,8.46,0,0,0-12.4-5.13l-7.72,4.46A8.46,8.46,0,0,1,78.52,8.78Z"/><circle class="cls-2" cx="75" cy="75.05" r="55.37"/></g></g></g></svg>