<svg xmlns="http://www.w3.org/2000/svg" xmlns:xlink="http://www.w3.org/1999/xlink" viewBox="0 0 94.23 150"><defs><style>.cls-1{fill:url(#雨);}</style><linearGradient id="雨" y1="75" x2="94.23" y2="75" gradientUnits="userSpaceOnUse"><stop offset="0" stop-color="#e6f0f7"/><stop offset="1" stop-color="#90bdcf"/></linearGradient></defs><title>Tornado（龙卷风）</title><g id="图层_2" data-name="图层 2"><g id="图层_21" data-name="图层 21"><g id="Tornado_龙卷风_" data-name="Tornado（龙卷风）"><path class="cls-1" d="M62.37,52.28c0,33.07,17,50.14,17,67.52S37.8,150,37.8,150H33.62a2.77,2.77,0,0,1-2.07-4.63c4.69-5.16,11.1-14.28,11.1-25.57C42.65,102,0,88.09,0,53.39,0,24.92,14,7.23,19.06,1.8A5.54,5.54,0,0,1,23.15,0H91.44A2.78,2.78,0,0,1,93,5.08C81.49,12.82,62.37,29.16,62.37,52.28Z"/></g></g></g></svg>