<svg xmlns="http://www.w3.org/2000/svg" xmlns:xlink="http://www.w3.org/1999/xlink" viewBox="0 0 97.21 150"><defs><style>.cls-1{fill:url(#雨);}</style><linearGradient id="雨" y1="75" x2="97.21" y2="75" gradientUnits="userSpaceOnUse"><stop offset="0" stop-color="#e6f0f7"/><stop offset="1" stop-color="#90bdcf"/></linearGradient></defs><title>Typhoon（台风）</title><g id="图层_2" data-name="图层 2"><g id="图层_21" data-name="图层 21"><g id="Typhoon_台风_" data-name="Typhoon（台风）"><path class="cls-1" d="M97.16,74c0-.36,0-.74,0-1.1a34.79,34.79,0,0,0-.6-4.8c-.2-1-.44-2-.73-3.07-.19-.67-.4-1.33-.63-2h0a35.58,35.58,0,0,0-3.07-6.63h0a44,44,0,0,0-15-15.2c-.07-.06-.14-.08-.22-.14-.41-.24-.83-.48-1.23-.76a23.12,23.12,0,0,1-9.5-12,18.74,18.74,0,0,1-.57-2.11,19.13,19.13,0,0,1-.42-4,11,11,0,0,1,.16-1.8,12.85,12.85,0,0,1,1.58-4.19c2.33-4.05,6.61-7.67,10.74-10.51a.74.74,0,0,0,.21-.13L78,5.41l.1-.07a.68.68,0,0,0,.12-.12,2.91,2.91,0,0,0,1-2.2,3,3,0,0,0-3-3H76l-.47.06h0c-23,2.84-43.05,13.26-56.74,28.2,0,0,0,0,0,0-1.26,1.35-2.43,2.74-3.56,4.18A72.25,72.25,0,0,0,7.86,43.74c-.19.36-.38.73-.56,1.1-.34.63-.65,1.26-.92,1.9S5.79,48,5.51,48.6a.15.15,0,0,0,0,.06c-.37.82-.71,1.66-1,2.49-.19.53-.4,1.06-.59,1.59C3.3,54.33,2.8,56,2.36,57.57c-.15.55-.29,1.09-.43,1.64s-.26,1.1-.38,1.66-.19.84-.26,1.26c-.23,1.13-.43,2.26-.59,3.4-.06.34-.1.68-.13,1s-.1.71-.13,1.06q-.11.86-.18,1.71c-.1,1.15-.16,2.3-.2,3.46C0,73.49,0,74.19,0,74.93v.19c0,.31,0,.61,0,.95s0,.75,0,1.1a35.58,35.58,0,0,0,.6,4.76c.21,1,.44,2,.74,3.07.19.67.39,1.33.63,2H2A35.54,35.54,0,0,0,5.1,93.63s0,0,0,0a44.19,44.19,0,0,0,15.05,15.2c.08.06.15.08.22.14.41.24.84.48,1.23.76a23.07,23.07,0,0,1,9.5,12,15.28,15.28,0,0,1,.57,2.11,19.59,19.59,0,0,1,.43,4.07,10.38,10.38,0,0,1-.16,1.76,12.87,12.87,0,0,1-1.59,4.19c-2.33,4-6.61,7.67-10.74,10.51a.69.69,0,0,0-.2.13l-.18.12-.1.07a.46.46,0,0,0-.12.12,2.87,2.87,0,0,0-1,2.2,3,3,0,0,0,3,3h.13l.47-.06h0c33.41-4.15,60.73-24.31,71.07-51.09.2-.53.4-1.06.59-1.59.59-1.59,1.09-3.21,1.53-4.83.14-.55.29-1.09.42-1.64s.26-1.1.38-1.66c.1-.41.19-.84.27-1.26.23-1.12.42-2.26.58-3.4.06-.34.1-.68.13-1s.11-.71.14-1.06c.07-.57.13-1.14.17-1.71.1-1.13.16-2.27.21-3.42,0-.72.06-1.43.06-2.15v-.19C97.21,74.62,97.19,74.28,97.16,74ZM64.89,79.21A16.61,16.61,0,0,1,64,81.83a16.83,16.83,0,0,1-30.72,0,15.63,15.63,0,0,1-.92-2.62,17,17,0,0,1-.53-4.2,17.3,17.3,0,0,1,.53-4.22,17.65,17.65,0,0,1,.92-2.62,16.83,16.83,0,0,1,30.72,0A16.13,16.13,0,0,1,65.41,75,17.5,17.5,0,0,1,64.89,79.21Z"/></g></g></g></svg>