<svg xmlns="http://www.w3.org/2000/svg" xmlns:xlink="http://www.w3.org/1999/xlink" viewBox="0 0 150 85.82"><defs><style>.cls-1{fill:url(#未命名的渐变_9);}.cls-2{fill:url(#未命名的渐变_14);}.cls-3{fill:url(#未命名的渐变_295);}.cls-4{fill:url(#未命名的渐变_239);}</style><linearGradient id="未命名的渐变_9" x1="75.42" y1="19.83" x2="75.42" gradientUnits="userSpaceOnUse"><stop offset="0" stop-color="#ea3c2f"/><stop offset="0.12" stop-color="#ea3e30" stop-opacity="0.98"/><stop offset="0.25" stop-color="#ea4231" stop-opacity="0.92"/><stop offset="0.38" stop-color="#ea4a33" stop-opacity="0.83"/><stop offset="0.52" stop-color="#ea5537" stop-opacity="0.69"/><stop offset="0.67" stop-color="#ea643b" stop-opacity="0.52"/><stop offset="0.82" stop-color="#ea7541" stop-opacity="0.31"/><stop offset="0.96" stop-color="#ea8947" stop-opacity="0.07"/><stop offset="1" stop-color="#ea8f49" stop-opacity="0"/></linearGradient><radialGradient id="未命名的渐变_14" cx="217.13" cy="98" r="15.81" gradientTransform="translate(-209.36 -359.26) scale(1.31 3.87)" gradientUnits="userSpaceOnUse"><stop offset="0" stop-color="#fff699"/><stop offset="0.08" stop-color="#fef1a8" stop-opacity="0.75"/><stop offset="0.15" stop-color="#fdecb5" stop-opacity="0.53"/><stop offset="0.23" stop-color="#fce8c1" stop-opacity="0.34"/><stop offset="0.3" stop-color="#fce5ca" stop-opacity="0.19"/><stop offset="0.37" stop-color="#fbe3d0" stop-opacity="0.09"/><stop offset="0.43" stop-color="#fbe1d4" stop-opacity="0.02"/><stop offset="0.47" stop-color="#fbe1d5" stop-opacity="0"/></radialGradient><linearGradient id="未命名的渐变_295" x1="75" y1="85.82" x2="75" y2="19.84" gradientUnits="userSpaceOnUse"><stop offset="0" stop-color="#a86f54"/><stop offset="1" stop-color="#ffd9cc"/></linearGradient><linearGradient id="未命名的渐变_239" x1="75.14" y1="25.88" x2="75.14" y2="19.84" gradientUnits="userSpaceOnUse"><stop offset="0" stop-color="#ea5449"/><stop offset="1" stop-color="#ea8f49" stop-opacity="0"/></linearGradient></defs><title>Volcano（火山喷发）</title><g id="图层_2" data-name="图层 2"><g id="图层_21" data-name="图层 21"><g id="Volcano_火山喷发_" data-name="Volcano（火山喷发）"><polygon class="cls-1" points="60.57 0 90.28 0 84.4 19.83 66.45 19.83 60.57 0"/><ellipse class="cls-2" cx="75.14" cy="19.7" rx="13.2" ry="17.62"/><path class="cls-3" d="M147.83,85.82H2.17a2.17,2.17,0,0,1-1.1-4,171.85,171.85,0,0,0,56.8-55.91c1.35-2.2,2.3-3.88,2.85-4.9a2.15,2.15,0,0,1,1.91-1.14H88.09a2.15,2.15,0,0,1,2,1.27c.47,1,1.24,2.67,2.34,4.77,6.16,11.61,22.84,37.58,56.44,55.85A2.17,2.17,0,0,1,147.83,85.82Z"/><path class="cls-4" d="M92.41,25.88H57.87c2.33-3.78,3.45-6,3.45-6h28.2S90.42,22.1,92.41,25.88Z"/></g></g></g></svg>