<svg xmlns="http://www.w3.org/2000/svg" viewBox="0 0 53.17 150"><defs><style>.cls-1,.cls-4,.cls-6{fill:none;stroke-linecap:round;stroke-linejoin:round;stroke-width:3px;}.cls-1{stroke:#b2b2b2;}.cls-2,.cls-5{fill:#eaeaea;}.cls-2{opacity:0.81;}.cls-3{fill:#d6d6d6;}.cls-4{stroke:#fff;}.cls-6{stroke:#d6d6d6;}</style></defs><title>bottle(瓶子) (0)</title><g id="图层_2" data-name="图层 2"><g id="图层_17" data-name="图层 17"><g id="bottle_瓶子_" data-name="bottle(瓶子)"><path class="cls-1" d="M14.62,12.37c0-1.32,5.36-2.39,12-2.39s12,1.07,12,2.39"/><path class="cls-2" d="M36.71,28V2H16.46V28a20.56,20.56,0,0,1-3.87,12L9,44.92a47.77,47.77,0,0,0-9,27.9v70.52H53.17V72.82a47.77,47.77,0,0,0-9-27.9l-3.59-5A20.49,20.49,0,0,1,36.71,28Z"/><path class="cls-3" d="M31.54,121.47S12.31,120.55,7,125V81.93c4.34-4.35,24.56-3.56,24.56-3.56Z"/><path class="cls-4" d="M39.94,54a9.71,9.71,0,0,1,4.92,9.23"/><line class="cls-4" x1="45.71" y1="86.72" x2="45.71" y2="120.71"/><ellipse class="cls-5" cx="26.58" cy="2.03" rx="10.13" ry="2.03"/><path class="cls-6" d="M38.55,12.37c0,1.32-5.36,2.39-12,2.39s-12-1.07-12-2.39"/><ellipse class="cls-3" cx="26.58" cy="2.03" rx="7.47" ry="1.49"/><ellipse class="cls-3" cx="26.58" cy="143.34" rx="26.58" ry="6.66"/></g></g></g></svg>