<svg xmlns="http://www.w3.org/2000/svg" xmlns:xlink="http://www.w3.org/1999/xlink" viewBox="0 0 70.01 149.5"><defs><style>.cls-1{fill:url(#未命名的渐变_105);}.cls-2,.cls-3,.cls-4{stroke:#7a7a7a;stroke-miterlimit:10;}.cls-2{fill:url(#未命名的渐变_105-2);}.cls-3{fill:url(#未命名的渐变_105-3);}.cls-4{fill:url(#未命名的渐变_105-4);}</style><linearGradient id="未命名的渐变_105" x1="0.01" y1="77.19" x2="70.01" y2="77.19" gradientUnits="userSpaceOnUse"><stop offset="0" stop-color="#e2e2e2"/><stop offset="0.03" stop-color="#d0d0d0"/><stop offset="0.06" stop-color="#bcbcbc"/><stop offset="0.09" stop-color="#b5b5b5"/><stop offset="0.49" stop-color="#f6f6f6"/><stop offset="0.63" stop-color="#f3f3f3"/><stop offset="0.73" stop-color="#eaeaea"/><stop offset="0.82" stop-color="#dbdbdb"/><stop offset="0.9" stop-color="#c6c6c6"/><stop offset="0.97" stop-color="#aaa"/><stop offset="1" stop-color="#9b9b9b"/></linearGradient><linearGradient id="未命名的渐变_105-2" x1="0.5" y1="18.71" x2="69.4" y2="18.71" xlink:href="#未命名的渐变_105"/><linearGradient id="未命名的渐变_105-3" x1="0.5" y1="136.82" x2="69.4" y2="136.82" xlink:href="#未命名的渐变_105"/><linearGradient id="未命名的渐变_105-4" x1="7.88" y1="4.87" x2="63.25" y2="4.87" xlink:href="#未命名的渐变_105"/></defs><title>can(罐子) (0)</title><g id="图层_2" data-name="图层 2"><g id="图层_17" data-name="图层 17"><g id="can_罐子_" data-name="can(罐子)"><path class="cls-1" d="M63.86,4.87H7.27L0,15.94V135.29l7.26,9.84a99.36,99.36,0,0,0,28.29,4.37,99.39,99.39,0,0,0,28.3-4.37L70,135.29V15.94Z"/><path class="cls-2" d="M69.4,15.94C69.4,19,54,21.48,35,21.48S.5,19,.5,15.94"/><path class="cls-3" d="M69.4,134.06c0,3.05-15.42,5.53-34.45,5.53S.5,137.11.5,134.06"/><ellipse class="cls-4" cx="35.56" cy="4.87" rx="27.68" ry="4.37"/></g></g></g></svg>