<svg xmlns="http://www.w3.org/2000/svg" viewBox="0 0 150 144.63"><defs><style>.cls-1{fill:#ba987d;}.cls-2{fill:#ad845b;}.cls-3{fill:#c2a385;}.cls-4{fill:#dbc5b2;}</style></defs><title>Cardboard box （纸板箱） (2)</title><g id="图层_2" data-name="图层 2"><g id="图层_17" data-name="图层 17"><g id="Cardboard_box_纸板箱_" data-name="Cardboard box （纸板箱）"><polygon class="cls-1" points="68.87 144.63 0 119.92 0 25.07 68.87 49.78 68.87 144.63"/><polygon class="cls-2" points="150 119.92 68.87 144.63 68.87 49.78 150 25.07 150 119.92"/><polygon class="cls-3" points="68.87 50.15 0 25.07 81.13 0 150 25.07 68.87 50.15"/><polygon class="cls-4" points="34.56 84.86 33.49 82.07 31.93 83.9 30.63 80.89 28.22 82.55 26.71 79.56 24.09 81.04 22.62 78.74 20.89 79.87 20.89 32.68 34.56 37.67 34.56 84.86"/><polygon class="cls-4" points="34.56 37.67 20.89 32.68 99.76 6.82 113.43 11.81 34.56 37.67"/></g></g></g></svg>