<?xml version="1.0" encoding="utf-8"?>
<!-- Generator: Adobe Illustrator 24.0.0, SVG Export Plug-In . SVG Version: 6.00 Build 0)  -->
<svg version="1.1" id="图层_1" xmlns="http://www.w3.org/2000/svg" xmlns:xlink="http://www.w3.org/1999/xlink" x="0px" y="0px"
	 viewBox="0 0 150 150" style="enable-background:new 0 0 150 150;" xml:space="preserve">
<style type="text/css">
	.st0{fill:url(#SVGID_1_);}
	.st1{fill:#B79144;}
	.st2{clip-path:url(#SVGID_3_);}
	.st3{fill:#232220;}
	.st4{fill:#595651;}
	.st5{fill:url(#SVGID_4_);}
	.st6{clip-path:url(#SVGID_6_);}
</style>
<title>IoT-CONTAINERS(容器)</title>
<g id="Spill_deck_溢油甲板_">
	
		<linearGradient id="SVGID_1_" gradientUnits="userSpaceOnUse" x1="49.565" y1="40.94" x2="49.565" y2="68.55" gradientTransform="matrix(1 0 0 -1 0 152)">
		<stop  offset="0" style="stop-color:#DCB558"/>
		<stop  offset="8.000000e-02" style="stop-color:#E7C062"/>
		<stop  offset="0.15" style="stop-color:#F5CD6E"/>
		<stop  offset="0.87" style="stop-color:#F5CD6E"/>
		<stop  offset="0.93" style="stop-color:#ECC466"/>
		<stop  offset="0.99" style="stop-color:#DCB558"/>
	</linearGradient>
	<polygon class="st0" points="99.1,111.1 0,93.3 0,83.4 99.1,101.2 	"/>
	<polygon class="st1" points="99.1,101.2 0,83.4 50.9,65.4 150,83.4 	"/>
	<g>
		<defs>
			<polygon id="SVGID_2_" points="97.7,100.2 4.4,83.4 52.3,66.4 145.6,83.4 			"/>
		</defs>
		<clipPath id="SVGID_3_">
			<use xlink:href="#SVGID_2_"  style="overflow:visible;"/>
		</clipPath>
		<g class="st2">
			<polygon class="st3" points="97.7,100.2 4.4,83.4 52.3,66.4 145.6,83.4 			"/>
			<rect x="74.3" y="53.7" transform="matrix(0.6 -0.8 0.8 0.6 -36.7184 93.6112)" class="st4" width="2" height="59.7"/>
			<rect x="69.3" y="55.9" transform="matrix(0.6 -0.8 0.8 0.6 -40.48 90.54)" class="st4" width="2" height="59.7"/>
			<rect x="63.6" y="56.6" transform="matrix(0.5986 -0.801 0.801 0.5986 -43.9675 86.8156)" class="st4" width="2" height="61.4"/>
			<rect x="58.8" y="59.1" transform="matrix(0.5986 -0.801 0.801 0.5986 -47.7784 83.8939)" class="st4" width="2" height="61.1"/>
			<rect x="53.4" y="60.3" transform="matrix(0.5986 -0.801 0.801 0.5986 -51.457 80.2669)" class="st4" width="2" height="62.4"/>
			<rect x="48.4" y="62.5" transform="matrix(0.5986 -0.801 0.801 0.5986 -55.2338 77.1858)" class="st4" width="2" height="62.4"/>
			<rect x="42.5" y="62.9" transform="matrix(0.5986 -0.801 0.801 0.5986 -58.8325 73.1241)" class="st4" width="2" height="64.7"/>
			<rect x="36.4" y="62.7" transform="matrix(0.5986 -0.801 0.801 0.5986 -62.3718 68.7021)" class="st4" width="2" height="67.8"/>
			<rect x="32.4" y="67" transform="matrix(0.5986 -0.801 0.801 0.5986 -66.3561 66.7547)" class="st4" width="2" height="65.2"/>
			<rect x="80.6" y="52" transform="matrix(0.6 -0.8 0.8 0.6 -32.7944 97.9792)" class="st4" width="2" height="59.7"/>
			<rect x="86.9" y="50" transform="matrix(0.5986 -0.801 0.801 0.5986 -28.6842 102.4378)" class="st4" width="2" height="59.7"/>
			<rect x="93.2" y="48.5" transform="matrix(0.6 -0.8 0.8 0.6 -24.9536 106.7048)" class="st4" width="2" height="59.7"/>
			<rect x="99.5" y="46.5" transform="matrix(0.5986 -0.801 0.801 0.5986 -20.824 111.1514)" class="st4" width="2" height="59.7"/>
			<rect x="105.9" y="45" transform="matrix(0.6 -0.8 0.8 0.6 -17.1144 115.4392)" class="st4" width="2" height="59.7"/>
			<rect x="112.1" y="43" transform="matrix(0.5986 -0.801 0.801 0.5986 -12.9654 119.8737)" class="st4" width="2" height="59.7"/>
			
				<rect x="118.4" y="41.3" transform="matrix(0.5986 -0.801 0.801 0.5986 -9.0357 124.2277)" class="st4" width="2" height="59.7"/>
			
				<rect x="124.8" y="39.6" transform="matrix(0.5986 -0.801 0.801 0.5986 -5.1108 128.5881)" class="st4" width="2" height="59.7"/>
		</g>
	</g>
	
		<linearGradient id="SVGID_4_" gradientUnits="userSpaceOnUse" x1="112.2345" y1="33.3777" x2="136.8955" y2="76.1123" gradientTransform="matrix(1 0 0 -1 0 152)">
		<stop  offset="0" style="stop-color:#DCB558"/>
		<stop  offset="8.000000e-02" style="stop-color:#E7C062"/>
		<stop  offset="0.15" style="stop-color:#F5CD6E"/>
		<stop  offset="0.87" style="stop-color:#F5CD6E"/>
		<stop  offset="0.93" style="stop-color:#ECC466"/>
		<stop  offset="0.99" style="stop-color:#DCB558"/>
	</linearGradient>
	<polygon class="st5" points="150,93.3 99.1,111.1 99.1,101.2 150,83.4 	"/>
	<g>
		<defs>
			<polygon id="SVGID_5_" points="97.8,100.2 4.5,83.4 52.4,66.4 145.8,83.4 			"/>
		</defs>
		<clipPath id="SVGID_6_">
			<use xlink:href="#SVGID_5_"  style="overflow:visible;"/>
		</clipPath>
		<g class="st6">
			<rect x="4.4" y="82.4" class="st4" width="141.3" height="2"/>
			<rect x="4.9" y="86.3" class="st4" width="141.3" height="2"/>
			<rect x="5.4" y="90.1" class="st4" width="141.3" height="2"/>
			<rect x="5.9" y="94" class="st4" width="141.3" height="2"/>
			<rect x="6.4" y="97.8" class="st4" width="141.3" height="2"/>
			<rect x="4.4" y="78.6" class="st4" width="141.3" height="2"/>
			<rect x="4.4" y="74.8" class="st4" width="141.3" height="2"/>
			<rect x="4.4" y="70.9" class="st4" width="141.3" height="2"/>
			<rect x="4.4" y="67.1" class="st4" width="141.3" height="2"/>
		</g>
	</g>
</g>
</svg>
