<svg xmlns="http://www.w3.org/2000/svg" xmlns:xlink="http://www.w3.org/1999/xlink" viewBox="0 0 43.07 150"><defs><style>.cls-1{fill:url(#未命名的渐变_143);}.cls-2{fill:url(#未命名的渐变_143-2);}.cls-3{fill:url(#未命名的渐变_143-3);}.cls-4{fill:url(#未命名的渐变_143-4);}.cls-5{fill:url(#未命名的渐变_143-5);}.cls-6{fill:url(#未命名的渐变_143-6);}.cls-7{fill:url(#未命名的渐变_79);}.cls-8{fill:url(#未命名的渐变_143-7);}.cls-9{fill:url(#未命名的渐变_143-8);}.cls-10{fill:url(#未命名的渐变_143-9);}.cls-11{fill:url(#未命名的渐变_143-10);}.cls-12{fill:url(#未命名的渐变_143-11);}.cls-13{fill:url(#未命名的渐变_143-12);}.cls-14{fill:url(#未命名的渐变_143-13);}.cls-15{fill:url(#未命名的渐变_143-14);}.cls-16{fill:url(#未命名的渐变_143-15);}.cls-17{fill:url(#未命名的渐变_143-16);}</style><linearGradient id="未命名的渐变_143" x1="9.96" y1="1.68" x2="32.94" y2="1.68" gradientUnits="userSpaceOnUse"><stop offset="0" stop-color="#b7b7b7"/><stop offset="0.03" stop-color="#9b9d9d"/><stop offset="0.07" stop-color="#878b8b"/><stop offset="0.09" stop-color="#808484"/><stop offset="0.2" stop-color="#a3a6a6"/><stop offset="0.49" stop-color="#f6f6f6"/><stop offset="0.61" stop-color="#f3f3f3"/><stop offset="0.7" stop-color="#eaeaea"/><stop offset="0.77" stop-color="#dbdbdb"/><stop offset="0.83" stop-color="#c5c5c5"/><stop offset="0.9" stop-color="#aaa"/><stop offset="0.95" stop-color="#888"/><stop offset="1" stop-color="#666"/></linearGradient><linearGradient id="未命名的渐变_143-2" x1="4.96" y1="21.49" x2="37.55" y2="21.49" xlink:href="#未命名的渐变_143"/><linearGradient id="未命名的渐变_143-3" x1="16" y1="57.66" x2="26.83" y2="57.66" xlink:href="#未命名的渐变_143"/><linearGradient id="未命名的渐变_143-4" x1="15.41" y1="144.81" x2="24.8" y2="144.81" xlink:href="#未命名的渐变_143"/><linearGradient id="未命名的渐变_143-5" x1="17.58" y1="108.34" x2="25.38" y2="108.34" xlink:href="#未命名的渐变_143"/><linearGradient id="未命名的渐变_143-6" x1="2.25" y1="45.91" x2="40.25" y2="45.91" xlink:href="#未命名的渐变_143"/><linearGradient id="未命名的渐变_79" x1="5.07" y1="41.29" x2="37.79" y2="41.29" gradientUnits="userSpaceOnUse"><stop offset="0" stop-color="#ccc"/><stop offset="0.03" stop-color="#bbb"/><stop offset="0.06" stop-color="#a7a7a7"/><stop offset="0.09" stop-color="#a0a0a0"/><stop offset="0.1" stop-color="#a3a3a3"/><stop offset="0.49" stop-color="#f6f6f6"/><stop offset="0.62" stop-color="#f3f3f3"/><stop offset="0.72" stop-color="#eaeaea"/><stop offset="0.8" stop-color="#dbdbdb"/><stop offset="0.87" stop-color="#c5c5c5"/><stop offset="0.94" stop-color="#aaa"/><stop offset="1" stop-color="#898989"/></linearGradient><linearGradient id="未命名的渐变_143-7" x1="-794.12" y1="144.59" x2="-775.92" y2="144.59" gradientTransform="matrix(-1, 0, 0, 1, -775.92, 0)" xlink:href="#未命名的渐变_143"/><linearGradient id="未命名的渐变_143-8" x1="23.75" y1="144.81" x2="43.07" y2="144.81" xlink:href="#未命名的渐变_143"/><linearGradient id="未命名的渐变_143-9" x1="7.68" y1="22.99" x2="8.54" y2="22.99" gradientTransform="translate(-14.89 31.1) rotate(-90)" xlink:href="#未命名的渐变_143"/><linearGradient id="未命名的渐变_143-10" x1="11.61" y1="22.99" x2="12.47" y2="22.99" gradientTransform="translate(-10.96 35.03) rotate(-90)" xlink:href="#未命名的渐变_143"/><linearGradient id="未命名的渐变_143-11" x1="15.53" y1="22.99" x2="16.39" y2="22.99" gradientTransform="translate(-7.03 38.96) rotate(-90)" xlink:href="#未命名的渐变_143"/><linearGradient id="未命名的渐变_143-12" x1="18.82" y1="22.99" x2="19.68" y2="22.99" gradientTransform="translate(-3.74 42.24) rotate(-90)" xlink:href="#未命名的渐变_143"/><linearGradient id="未命名的渐变_143-13" x1="22.51" y1="22.99" x2="23.37" y2="22.99" gradientTransform="translate(-0.05 45.93) rotate(-90)" xlink:href="#未命名的渐变_143"/><linearGradient id="未命名的渐变_143-14" x1="26.63" y1="22.99" x2="27.49" y2="22.99" gradientTransform="translate(4.07 50.05) rotate(-90)" xlink:href="#未命名的渐变_143"/><linearGradient id="未命名的渐变_143-15" x1="30.37" y1="22.99" x2="31.23" y2="22.99" gradientTransform="translate(7.81 53.79) rotate(-90)" xlink:href="#未命名的渐变_143"/><linearGradient id="未命名的渐变_143-16" x1="33.97" y1="22.99" x2="34.83" y2="22.99" gradientTransform="translate(11.4 57.39) rotate(-90)" xlink:href="#未命名的渐变_143"/></defs><title>ISA Agitator（isa搅拌器）</title><g id="图层_2" data-name="图层 2"><g id="图层_22" data-name="图层 22"><g id="ISA_Agitator_isa搅拌器_" data-name="ISA Agitator（isa搅拌器）"><rect class="cls-1" x="9.96" width="22.97" height="3.36"/><rect class="cls-2" x="4.96" y="3.36" width="32.59" height="36.27"/><rect class="cls-3" x="16" y="48.64" width="10.83" height="18.04"/><rect class="cls-4" x="15.41" y="139.66" width="9.38" height="10.3"/><rect class="cls-5" x="17.58" y="66.68" width="7.81" height="83.32"/><rect class="cls-6" x="2.25" y="43.18" width="37.99" height="5.47" rx="0.51"/><rect class="cls-7" x="5.07" y="39.41" width="32.71" height="3.77"/><path class="cls-8" d="M18.2,141.46v5.08h0c-4.51,2.49-10.78,3-14.21,1.88C2.05,147.8-.43,145.8.06,143.3a3.94,3.94,0,0,1,3.51-3.07,22.81,22.81,0,0,1,4.66.34c2.46.46,5.85,1.41,10,.89Z"/><path class="cls-9" d="M23.75,141.49v5.4h0c4.79,2.63,11.45,3.16,15.09,2,2.06-.66,4.69-2.78,4.16-5.43a4.17,4.17,0,0,0-3.72-3.26,24.22,24.22,0,0,0-5,.36c-2.61.48-6.2,1.5-10.58.94Z"/><rect class="cls-10" x="-8.31" y="22.56" width="32.83" height="0.86" transform="translate(31.1 14.89) rotate(90)"/><rect class="cls-11" x="-4.38" y="22.56" width="32.83" height="0.86" transform="translate(35.03 10.96) rotate(90)"/><rect class="cls-12" x="-0.45" y="22.56" width="32.83" height="0.86" transform="translate(38.96 7.03) rotate(90)"/><rect class="cls-13" x="2.84" y="22.56" width="32.83" height="0.86" transform="translate(42.24 3.74) rotate(90)"/><rect class="cls-14" x="6.53" y="22.56" width="32.83" height="0.86" transform="translate(45.93 0.05) rotate(90)"/><rect class="cls-15" x="10.65" y="22.56" width="32.83" height="0.86" transform="translate(50.05 -4.07) rotate(90)"/><rect class="cls-16" x="14.38" y="22.56" width="32.83" height="0.86" transform="translate(53.79 -7.81) rotate(90)"/><rect class="cls-17" x="17.98" y="22.56" width="32.83" height="0.86" transform="translate(57.39 -11.4) rotate(90)"/></g></g></g></svg>