<svg xmlns="http://www.w3.org/2000/svg" xmlns:xlink="http://www.w3.org/1999/xlink" viewBox="0 0 74.18 100.36"><defs><style>.cls-1{fill:url(#未命名的渐变_143);}.cls-2{fill:#a2a7a9;}.cls-3{fill:url(#未命名的渐变_143-2);}.cls-4{fill:url(#未命名的渐变_143-3);}.cls-5{fill:url(#未命名的渐变_143-4);}.cls-6{fill:url(#未命名的渐变_143-5);}.cls-7{fill:url(#未命名的渐变_143-6);}</style><linearGradient id="未命名的渐变_143" x1="59.2" y1="94.49" x2="67.74" y2="94.49" gradientUnits="userSpaceOnUse"><stop offset="0" stop-color="#b7b7b7"/><stop offset="0.03" stop-color="#9b9d9d"/><stop offset="0.07" stop-color="#878b8b"/><stop offset="0.09" stop-color="#808484"/><stop offset="0.2" stop-color="#a3a6a6"/><stop offset="0.49" stop-color="#f6f6f6"/><stop offset="0.61" stop-color="#f3f3f3"/><stop offset="0.7" stop-color="#eaeaea"/><stop offset="0.77" stop-color="#dbdbdb"/><stop offset="0.83" stop-color="#c5c5c5"/><stop offset="0.9" stop-color="#aaa"/><stop offset="0.95" stop-color="#888"/><stop offset="1" stop-color="#666"/></linearGradient><linearGradient id="未命名的渐变_143-2" x1="1.19" y1="60.77" x2="72.94" y2="60.77" xlink:href="#未命名的渐变_143"/><linearGradient id="未命名的渐变_143-3" x1="3.63" y1="7.22" x2="71.17" y2="7.22" xlink:href="#未命名的渐变_143"/><linearGradient id="未命名的渐变_143-4" x1="57.26" y1="17.96" x2="60.41" y2="17.96" xlink:href="#未命名的渐变_143"/><linearGradient id="未命名的渐变_143-5" x1="65.78" y1="17.96" x2="68.93" y2="17.96" xlink:href="#未命名的渐变_143"/><linearGradient id="未命名的渐变_143-6" x1="0" y1="18.03" x2="74.18" y2="18.03" xlink:href="#未命名的渐变_143"/></defs><title>Tank with agitator（带搅拌机的罐）</title><g id="图层_2" data-name="图层 2"><g id="图层_22" data-name="图层 22"><g id="Tank_with_agitator_带搅拌机的罐_" data-name="Tank with agitator（带搅拌机的罐）"><rect class="cls-1" x="59.2" y="88.61" width="8.54" height="11.75"/><rect class="cls-2" x="3.79" y="14.02" width="67.38" height="11.53"/><path class="cls-3" d="M72.94,80.46S70.12,96,37.06,96C1.75,96,1.19,80.46,1.19,80.46V25.55H72.94Z"/><path class="cls-4" d="M71.17,14.43H3.63S6.36,0,37.4,0C64,0,71.17,14.43,71.17,14.43Z"/><rect class="cls-5" x="57.26" y="13.6" width="3.15" height="8.71"/><rect class="cls-6" x="65.78" y="13.6" width="3.15" height="8.71"/><rect class="cls-7" y="15.81" width="74.18" height="4.42" rx="0.4"/><rect class="cls-2" x="0.22" y="17.15" width="73.76" height="1.51"/><rect class="cls-2" x="1.09" y="80.05" width="72.01" height="0.76"/></g></g></g></svg>