<svg xmlns="http://www.w3.org/2000/svg" xmlns:xlink="http://www.w3.org/1999/xlink" viewBox="0 0 41.48 150"><defs><style>.cls-1{fill:url(#未命名的渐变_67);}.cls-2{fill:url(#未命名的渐变_143);}.cls-3{fill:url(#未命名的渐变_67-2);}.cls-4{fill:url(#未命名的渐变_143-2);}</style><linearGradient id="未命名的渐变_67" x1="8.96" y1="5.42" x2="32.39" y2="5.42" gradientUnits="userSpaceOnUse"><stop offset="0" stop-color="#6b6b6b"/><stop offset="0.11" stop-color="#767676"/><stop offset="0.3" stop-color="#959595"/><stop offset="0.41" stop-color="#aaa"/><stop offset="0.56" stop-color="#ccc"/><stop offset="0.71" stop-color="#eaeaea"/><stop offset="0.8" stop-color="#f6f6f6"/><stop offset="0.83" stop-color="#ededed"/><stop offset="0.87" stop-color="#d4d4d4"/><stop offset="0.92" stop-color="#ababab"/><stop offset="0.98" stop-color="#737373"/><stop offset="0.99" stop-color="#666"/></linearGradient><linearGradient id="未命名的渐变_143" x1="9.53" y1="25.57" x2="31.62" y2="25.57" gradientUnits="userSpaceOnUse"><stop offset="0" stop-color="#b7b7b7"/><stop offset="0.03" stop-color="#9b9d9d"/><stop offset="0.07" stop-color="#878b8b"/><stop offset="0.09" stop-color="#808484"/><stop offset="0.2" stop-color="#a3a6a6"/><stop offset="0.49" stop-color="#f6f6f6"/><stop offset="0.61" stop-color="#f3f3f3"/><stop offset="0.7" stop-color="#eaeaea"/><stop offset="0.77" stop-color="#dbdbdb"/><stop offset="0.83" stop-color="#c5c5c5"/><stop offset="0.9" stop-color="#aaa"/><stop offset="0.95" stop-color="#888"/><stop offset="1" stop-color="#666"/></linearGradient><linearGradient id="未命名的渐变_67-2" x1="16.87" y1="26.19" x2="25.55" y2="26.19" xlink:href="#未命名的渐变_67"/><linearGradient id="未命名的渐变_143-2" x1="0" y1="95.15" x2="41.48" y2="95.15" xlink:href="#未命名的渐变_143"/></defs><title>cylinder（圆柱体）</title><g id="图层_2" data-name="图层 2"><g id="图层_104" data-name="图层 104"><g id="cylinder_圆柱体_" data-name="cylinder（圆柱体）"><rect class="cls-1" x="8.96" width="23.43" height="10.84"/><rect class="cls-2" x="9.53" y="10.84" width="22.08" height="29.46"/><path class="cls-3" d="M25.5,19.88c-.13-1.61-2-2.9-4.29-2.9s-4.17,1.29-4.29,2.9h-.05V35.41h8.68V19.88Z"/><path class="cls-4" d="M31.7,40.3H9.59S2.75,51.5,1.64,53.83A18.51,18.51,0,0,0,0,60.91V137s-.58,8.15,3.31,10.41c5.7,3.32,27.4,3.36,33.78.54,4.68-2.07,4.35-11,4.35-11V60.91s-.35-4.48-1.27-6.29S31.7,40.3,31.7,40.3Z"/></g></g></g></svg>