<svg xmlns="http://www.w3.org/2000/svg" xmlns:xlink="http://www.w3.org/1999/xlink" viewBox="0 0 33.46 150"><defs><style>.cls-1{fill:url(#未命名的渐变_143);}.cls-2{fill:url(#未命名的渐变_143-2);}.cls-3{fill:url(#未命名的渐变_143-3);}.cls-4{fill:url(#未命名的渐变_143-4);}.cls-5{fill:url(#未命名的渐变_143-5);}.cls-6{fill:url(#未命名的渐变_143-6);}.cls-7{fill:url(#未命名的渐变_143-7);}.cls-8{fill:url(#未命名的渐变_143-8);}.cls-9{fill:url(#未命名的渐变_143-9);}.cls-10{fill:url(#未命名的渐变_143-10);}.cls-11{fill:url(#未命名的渐变_143-11);}.cls-12{fill:url(#未命名的渐变_143-12);}.cls-13{fill:#e5e5e5;}.cls-14{fill:#a2a7a9;}.cls-15{fill:url(#未命名的渐变_143-13);}.cls-16{fill:url(#未命名的渐变_143-14);}.cls-17{fill:url(#未命名的渐变_143-15);}.cls-18{fill:url(#未命名的渐变_143-16);}.cls-19{fill:url(#未命名的渐变_143-17);}.cls-20{fill:url(#未命名的渐变_143-18);}.cls-21{fill:url(#未命名的渐变_143-19);}.cls-22{fill:url(#未命名的渐变_143-20);}.cls-23{fill:url(#未命名的渐变_143-21);}.cls-24{fill:url(#未命名的渐变_143-22);}.cls-25{fill:url(#未命名的渐变_143-23);}.cls-26{fill:url(#未命名的渐变_143-24);}.cls-27{fill:url(#未命名的渐变_143-25);}</style><linearGradient id="未命名的渐变_143" x1="3.67" y1="143.41" x2="16.1" y2="143.41" gradientUnits="userSpaceOnUse"><stop offset="0" stop-color="#b7b7b7"/><stop offset="0.03" stop-color="#9b9d9d"/><stop offset="0.07" stop-color="#878b8b"/><stop offset="0.09" stop-color="#808484"/><stop offset="0.2" stop-color="#a3a6a6"/><stop offset="0.49" stop-color="#f6f6f6"/><stop offset="0.61" stop-color="#f3f3f3"/><stop offset="0.7" stop-color="#eaeaea"/><stop offset="0.77" stop-color="#dbdbdb"/><stop offset="0.83" stop-color="#c5c5c5"/><stop offset="0.9" stop-color="#aaa"/><stop offset="0.95" stop-color="#888"/><stop offset="1" stop-color="#666"/></linearGradient><linearGradient id="未命名的渐变_143-2" x1="6.67" y1="16.61" x2="26.71" y2="16.61" xlink:href="#未命名的渐变_143"/><linearGradient id="未命名的渐变_143-3" x1="1.58" y1="35.76" x2="31.87" y2="35.76" xlink:href="#未命名的渐变_143"/><linearGradient id="未命名的渐变_143-4" x1="5.51" y1="50.91" x2="27.95" y2="50.91" xlink:href="#未命名的渐变_143"/><linearGradient id="未命名的渐变_143-5" x1="0" y1="63.42" x2="33.46" y2="63.42" xlink:href="#未命名的渐变_143"/><linearGradient id="未命名的渐变_143-6" x1="12.72" y1="70.09" x2="20.74" y2="70.09" xlink:href="#未命名的渐变_143"/><linearGradient id="未命名的渐变_143-7" x1="10.94" y1="69.41" x2="10.94" y2="67.77" xlink:href="#未命名的渐变_143"/><linearGradient id="未命名的渐变_143-8" x1="10.94" y1="72.61" x2="10.94" y2="70.97" xlink:href="#未命名的渐变_143"/><linearGradient id="未命名的渐变_143-9" x1="12.72" y1="143.26" x2="20.74" y2="143.26" xlink:href="#未命名的渐变_143"/><linearGradient id="未命名的渐变_143-10" x1="13.7" y1="106.99" x2="19.75" y2="106.99" xlink:href="#未命名的渐变_143"/><linearGradient id="未命名的渐变_143-11" x1="19.52" y1="145.43" x2="33.28" y2="145.43" xlink:href="#未命名的渐变_143"/><linearGradient id="未命名的渐变_143-12" x1="3.67" y1="146.78" x2="18.23" y2="146.78" xlink:href="#未命名的渐变_143"/><linearGradient id="未命名的渐变_143-13" x1="8.14" y1="17.34" x2="8.48" y2="17.34" gradientTransform="translate(-9.03 25.65) rotate(-90)" xlink:href="#未命名的渐变_143"/><linearGradient id="未命名的渐变_143-14" x1="9.53" y1="17.34" x2="9.86" y2="17.34" gradientTransform="translate(-7.65 27.04) rotate(-90)" xlink:href="#未命名的渐变_143"/><linearGradient id="未命名的渐变_143-15" x1="10.91" y1="17.34" x2="11.25" y2="17.34" gradientTransform="translate(-6.26 28.42) rotate(-90)" xlink:href="#未命名的渐变_143"/><linearGradient id="未命名的渐变_143-16" x1="12.3" y1="17.34" x2="12.63" y2="17.34" gradientTransform="translate(-4.88 29.8) rotate(-90)" xlink:href="#未命名的渐变_143"/><linearGradient id="未命名的渐变_143-17" x1="13.68" y1="17.34" x2="14.01" y2="17.34" gradientTransform="translate(-3.49 31.19) rotate(-90)" xlink:href="#未命名的渐变_143"/><linearGradient id="未命名的渐变_143-18" x1="15.06" y1="17.34" x2="15.4" y2="17.34" gradientTransform="translate(-2.11 32.57) rotate(-90)" xlink:href="#未命名的渐变_143"/><linearGradient id="未命名的渐变_143-19" x1="16.45" y1="17.34" x2="16.78" y2="17.34" gradientTransform="translate(-0.72 33.96) rotate(-90)" xlink:href="#未命名的渐变_143"/><linearGradient id="未命名的渐变_143-20" x1="18" y1="17.34" x2="18.33" y2="17.34" gradientTransform="translate(0.83 35.51) rotate(-90)" xlink:href="#未命名的渐变_143"/><linearGradient id="未命名的渐变_143-21" x1="19.34" y1="17.34" x2="19.67" y2="17.34" gradientTransform="translate(2.16 36.84) rotate(-90)" xlink:href="#未命名的渐变_143"/><linearGradient id="未命名的渐变_143-22" x1="20.64" y1="17.34" x2="20.98" y2="17.34" gradientTransform="translate(3.47 38.15) rotate(-90)" xlink:href="#未命名的渐变_143"/><linearGradient id="未命名的渐变_143-23" x1="22.01" y1="17.34" x2="22.34" y2="17.34" gradientTransform="translate(4.83 39.51) rotate(-90)" xlink:href="#未命名的渐变_143"/><linearGradient id="未命名的渐变_143-24" x1="23.66" y1="17.47" x2="24" y2="17.47" gradientTransform="translate(6.36 41.3) rotate(-90)" xlink:href="#未命名的渐变_143"/><linearGradient id="未命名的渐变_143-25" x1="24.99" y1="17.34" x2="25.32" y2="17.34" gradientTransform="translate(7.82 42.5) rotate(-90)" xlink:href="#未命名的渐变_143"/></defs><title>ISA Agitator（isa搅拌器） (2)</title><g id="图层_2" data-name="图层 2"><g id="图层_22" data-name="图层 22"><g id="ISA_Agitator_isa搅拌器_" data-name="ISA Agitator（isa搅拌器）"><path class="cls-1" d="M13,142.6l3.11,1.56s-5.58,3.19-9.56,1.21C3,143.6,3.37,141.8,4.29,141.05s3.37.46,4.89.91A15,15,0,0,0,13,142.6Z"/><path class="cls-2" d="M26.71,28.08l-1.77,1.76a11.73,11.73,0,0,1-16.5,0L6.67,28.08V1.88h0a27.61,27.61,0,0,1,20,0h0Z"/><rect class="cls-3" x="1.58" y="30.82" width="30.29" height="9.89"/><polygon class="cls-4" points="27.95 61.11 5.51 61.11 9.47 40.7 23.99 40.7 27.95 61.11"/><rect class="cls-5" y="61.11" width="33.46" height="4.63"/><rect class="cls-6" x="12.72" y="65.74" width="8.02" height="8.7"/><rect class="cls-7" x="9.16" y="67.77" width="3.56" height="1.64"/><rect class="cls-8" x="9.16" y="70.97" width="3.56" height="1.64"/><rect class="cls-9" x="12.72" y="139.49" width="8.02" height="7.53"/><rect class="cls-10" x="13.7" y="74.49" width="6.05" height="64.99"/><path class="cls-11" d="M19.52,143.07v3.84h0c3.41,1.88,8.15,2.26,10.74,1.42,1.47-.47,3.34-2,3-3.87a3,3,0,0,0-2.65-2.32,16.75,16.75,0,0,0-3.53.26,22.58,22.58,0,0,1-7.53.67Z"/><path class="cls-12" d="M14.05,143.56h4.18S13.94,150,8.59,150c-4.75,0-5.32-2.14-4.73-3.44s3.87-1.31,5.75-1.65A18,18,0,0,0,14.05,143.56Z"/><rect class="cls-13" x="6.03" y="28.07" width="21.44" height="0.91"/><rect class="cls-14" x="6.25" y="27.42" width="20.79" height="0.65"/><rect class="cls-15" x="-0.69" y="17.17" width="18.01" height="0.33" transform="translate(25.65 9.03) rotate(90)"/><rect class="cls-16" x="0.69" y="17.17" width="18.01" height="0.33" transform="translate(27.04 7.65) rotate(90)"/><rect class="cls-17" x="2.07" y="17.17" width="18.01" height="0.33" transform="translate(28.42 6.26) rotate(90)"/><rect class="cls-18" x="3.46" y="17.17" width="18.01" height="0.33" transform="translate(29.8 4.88) rotate(90)"/><rect class="cls-19" x="4.84" y="17.17" width="18.01" height="0.33" transform="translate(31.19 3.49) rotate(90)"/><rect class="cls-20" x="6.23" y="17.17" width="18.01" height="0.33" transform="translate(32.57 2.11) rotate(90)"/><rect class="cls-21" x="7.61" y="17.17" width="18.01" height="0.33" transform="translate(33.96 0.72) rotate(90)"/><rect class="cls-22" x="9.16" y="17.17" width="18.01" height="0.33" transform="translate(35.51 -0.83) rotate(90)"/><rect class="cls-23" x="10.5" y="17.17" width="18.01" height="0.33" transform="translate(36.84 -2.16) rotate(90)"/><rect class="cls-24" x="11.81" y="17.17" width="18.01" height="0.33" transform="translate(38.15 -3.47) rotate(90)"/><rect class="cls-25" x="13.17" y="17.17" width="18.01" height="0.33" transform="translate(39.51 -4.83) rotate(90)"/><rect class="cls-26" x="14.82" y="17.31" width="18.01" height="0.33" transform="translate(41.3 -6.36) rotate(90)"/><rect class="cls-27" x="16.15" y="17.17" width="18.01" height="0.33" transform="translate(42.5 -7.82) rotate(90)"/><rect class="cls-14" x="6.58" y="7.82" width="20.19" height="0.65"/></g></g></g></svg>