<svg xmlns="http://www.w3.org/2000/svg" xmlns:xlink="http://www.w3.org/1999/xlink" viewBox="0 0 44.6 150"><defs><style>.cls-1{fill:url(#未命名的渐变_143);}.cls-2{fill:url(#未命名的渐变_143-2);}.cls-3{fill:url(#未命名的渐变_143-3);}.cls-4{fill:url(#未命名的渐变_143-4);}.cls-5{fill:url(#未命名的渐变_143-5);}.cls-6{fill:url(#未命名的渐变_143-6);}.cls-7{fill:url(#未命名的渐变_143-7);}.cls-8{fill:url(#未命名的渐变_143-8);}.cls-9{fill:url(#未命名的渐变_143-9);}.cls-10{fill:url(#未命名的渐变_143-10);}.cls-11{fill:url(#未命名的渐变_143-11);}.cls-12{fill:url(#未命名的渐变_143-12);}.cls-13{fill:url(#未命名的渐变_143-13);}</style><linearGradient id="未命名的渐变_143" x1="31.25" y1="12.4" x2="4.43" y2="12.4" gradientUnits="userSpaceOnUse"><stop offset="0" stop-color="#b7b7b7"/><stop offset="0.03" stop-color="#9b9d9d"/><stop offset="0.07" stop-color="#878b8b"/><stop offset="0.09" stop-color="#808484"/><stop offset="0.2" stop-color="#a3a6a6"/><stop offset="0.49" stop-color="#f6f6f6"/><stop offset="0.61" stop-color="#f3f3f3"/><stop offset="0.7" stop-color="#eaeaea"/><stop offset="0.77" stop-color="#dbdbdb"/><stop offset="0.83" stop-color="#c5c5c5"/><stop offset="0.9" stop-color="#aaa"/><stop offset="0.95" stop-color="#888"/><stop offset="1" stop-color="#666"/></linearGradient><linearGradient id="未命名的渐变_143-2" x1="26.82" y1="12.4" x2="8.86" y2="12.4" xlink:href="#未命名的渐变_143"/><linearGradient id="未命名的渐变_143-3" x1="8.6" y1="32.28" x2="27.08" y2="32.28" xlink:href="#未命名的渐变_143"/><linearGradient id="未命名的渐变_143-4" x1="9.5" y1="25.86" x2="25.71" y2="25.86" xlink:href="#未命名的渐变_143"/><linearGradient id="未命名的渐变_143-5" x1="14.64" y1="40.09" x2="20.52" y2="40.09" xlink:href="#未命名的渐变_143"/><linearGradient id="未命名的渐变_143-6" x1="16.03" y1="146.78" x2="36.11" y2="146.78" xlink:href="#未命名的渐变_143"/><linearGradient id="未命名的渐变_143-7" x1="0" y1="146.78" x2="20.08" y2="146.78" xlink:href="#未命名的渐变_143"/><linearGradient id="未命名的渐变_143-8" x1="16.19" y1="96.16" x2="19.49" y2="96.16" xlink:href="#未命名的渐变_143"/><linearGradient id="未命名的渐变_143-9" x1="15.58" y1="146.64" x2="20.41" y2="146.64" xlink:href="#未命名的渐变_143"/><linearGradient id="未命名的渐变_143-10" x1="14.64" y1="48.7" x2="20.64" y2="48.7" xlink:href="#未命名的渐变_143"/><linearGradient id="未命名的渐变_143-11" x1="7.97" y1="28.38" x2="7.97" y2="22.93" xlink:href="#未命名的渐变_143"/><linearGradient id="未命名的渐变_143-12" x1="37.93" y1="14.23" x2="37.93" y2="9.25" xlink:href="#未命名的渐变_143"/><linearGradient id="未命名的渐变_143-13" x1="26.86" y1="1.69" x2="8.82" y2="1.69" xlink:href="#未命名的渐变_143"/></defs><title>Pneumatic mixer（气动混合器）</title><g id="图层_2" data-name="图层 2"><g id="图层_22" data-name="图层 22"><g id="Pneumatic_mixer_气动混合器_" data-name="Pneumatic mixer（气动混合器）"><rect class="cls-1" x="4.43" y="3.38" width="26.82" height="18.04"/><rect class="cls-2" x="8.86" y="6.36" width="17.96" height="12.08"/><rect class="cls-3" x="8.6" y="30.3" width="18.48" height="3.96"/><rect class="cls-4" x="9.5" y="21.42" width="16.21" height="8.88"/><rect class="cls-5" x="14.64" y="34.26" width="5.88" height="11.66"/><polygon class="cls-6" points="34.17 148.91 16.03 148.91 17.97 144.66 36.11 144.66 34.17 148.91"/><polygon class="cls-7" points="18.14 148.91 0 148.91 1.94 144.66 20.08 144.66 18.14 148.91"/><rect class="cls-8" x="16.19" y="45.93" width="3.3" height="100.46"/><rect class="cls-9" x="15.58" y="143.28" width="4.83" height="6.72"/><rect class="cls-10" x="14.64" y="47.58" width="6" height="2.25"/><rect class="cls-11" x="6.22" y="22.93" width="3.5" height="5.44"/><rect class="cls-12" x="31.25" y="9.25" width="13.35" height="4.98"/><rect class="cls-13" x="8.82" width="18.04" height="3.38"/></g></g></g></svg>