<svg xmlns="http://www.w3.org/2000/svg" xmlns:xlink="http://www.w3.org/1999/xlink" viewBox="0 0 31.83 150"><defs><style>.cls-1{fill:url(#未命名的渐变_143);}.cls-2{fill:url(#未命名的渐变_143-2);}.cls-3{fill:url(#未命名的渐变_143-3);}.cls-4{fill:url(#未命名的渐变_143-4);}.cls-5{fill:url(#未命名的渐变_143-5);}.cls-6{fill:url(#未命名的渐变_143-6);}.cls-7{fill:url(#未命名的渐变_143-7);}.cls-8{fill:url(#未命名的渐变_143-8);}.cls-9{fill:url(#未命名的渐变_143-9);}</style><linearGradient id="未命名的渐变_143" x1="11.89" y1="146.97" x2="31.83" y2="146.97" gradientUnits="userSpaceOnUse"><stop offset="0" stop-color="#b7b7b7"/><stop offset="0.03" stop-color="#9b9d9d"/><stop offset="0.07" stop-color="#878b8b"/><stop offset="0.09" stop-color="#808484"/><stop offset="0.2" stop-color="#a3a6a6"/><stop offset="0.49" stop-color="#f6f6f6"/><stop offset="0.61" stop-color="#f3f3f3"/><stop offset="0.7" stop-color="#eaeaea"/><stop offset="0.77" stop-color="#dbdbdb"/><stop offset="0.83" stop-color="#c5c5c5"/><stop offset="0.9" stop-color="#aaa"/><stop offset="0.95" stop-color="#888"/><stop offset="1" stop-color="#666"/></linearGradient><linearGradient id="未命名的渐变_143-2" x1="0" y1="146.97" x2="17.09" y2="146.97" xlink:href="#未命名的渐变_143"/><linearGradient id="未命名的渐变_143-3" x1="14.79" y1="99.93" x2="17.65" y2="99.93" xlink:href="#未命名的渐变_143"/><linearGradient id="未命名的渐变_143-4" x1="14.29" y1="146.8" x2="17.86" y2="146.8" xlink:href="#未命名的渐变_143"/><linearGradient id="未命名的渐变_143-5" x1="3.67" y1="20.28" x2="28.42" y2="20.28" xlink:href="#未命名的渐变_143"/><linearGradient id="未命名的渐变_143-6" x1="6.44" y1="2.4" x2="25.81" y2="2.4" xlink:href="#未命名的渐变_143"/><linearGradient id="未命名的渐变_143-7" x1="8.6" y1="37.84" x2="23.76" y2="37.84" xlink:href="#未命名的渐变_143"/><linearGradient id="未命名的渐变_143-8" x1="7.88" y1="42.17" x2="24.42" y2="42.17" xlink:href="#未命名的渐变_143"/><linearGradient id="未命名的渐变_143-9" x1="14.02" y1="53.39" x2="18.84" y2="53.39" xlink:href="#未命名的渐变_143"/></defs><title>Portable mixer（便携式搅拌机）</title><g id="图层_2" data-name="图层 2"><g id="图层_22" data-name="图层 22"><g id="Portable_mixer_便携式搅拌机_" data-name="Portable mixer（便携式搅拌机）"><polygon class="cls-1" points="29.9 149.08 11.89 149.08 13.81 144.85 31.83 144.85 29.9 149.08"/><polygon class="cls-2" points="15.44 149.08 0 149.08 1.65 144.85 17.09 144.85 15.44 149.08"/><rect class="cls-3" x="14.79" y="55.68" width="2.86" height="88.49"/><rect class="cls-4" x="14.29" y="143.6" width="3.57" height="6.4"/><path class="cls-5" d="M23.79,35.76,8.67,35.7,3.69,7A1.9,1.9,0,0,1,5.56,4.81h21A1.9,1.9,0,0,1,28.4,7Z"/><rect class="cls-6" x="6.44" width="19.37" height="4.81" rx="0.23"/><rect class="cls-7" x="8.6" y="35.44" width="15.16" height="4.81"/><rect class="cls-8" x="7.88" y="40.24" width="16.54" height="3.86"/><rect class="cls-9" x="14.02" y="44.1" width="4.82" height="18.58"/></g></g></g></svg>