<svg xmlns="http://www.w3.org/2000/svg" xmlns:xlink="http://www.w3.org/1999/xlink" viewBox="0 0 35.65 150"><defs><style>.cls-1{fill:url(#未命名的渐变_143);}.cls-2{fill:url(#未命名的渐变_79);}.cls-3{fill:url(#未命名的渐变_143-2);}.cls-4{fill:url(#未命名的渐变_79-2);}.cls-5{fill:url(#未命名的渐变_79-3);}.cls-6{fill:url(#未命名的渐变_79-4);}.cls-7{fill:url(#未命名的渐变_79-5);}.cls-8{fill:url(#未命名的渐变_143-3);}.cls-9{fill:url(#未命名的渐变_79-6);}.cls-10{fill:url(#未命名的渐变_143-4);}.cls-11{fill:url(#未命名的渐变_79-7);}.cls-12{fill:url(#未命名的渐变_79-8);}.cls-13{fill:#b0b0b1;}.cls-14{fill:#ddd;}.cls-15{fill:#878787;}.cls-16{fill:url(#未命名的渐变_143-5);}.cls-17{fill:url(#未命名的渐变_143-6);}.cls-18{fill:url(#未命名的渐变_143-7);}.cls-19{fill:url(#未命名的渐变_79-9);}.cls-20{fill:url(#未命名的渐变_79-10);}.cls-21{fill:url(#未命名的渐变_143-8);}.cls-22{fill:url(#未命名的渐变_143-9);}.cls-23{fill:url(#未命名的渐变_143-10);}</style><linearGradient id="未命名的渐变_143" x1="2.92" y1="15.24" x2="18.65" y2="15.24" gradientUnits="userSpaceOnUse"><stop offset="0" stop-color="#b7b7b7"/><stop offset="0.03" stop-color="#9b9d9d"/><stop offset="0.07" stop-color="#878b8b"/><stop offset="0.09" stop-color="#808484"/><stop offset="0.2" stop-color="#a3a6a6"/><stop offset="0.49" stop-color="#f6f6f6"/><stop offset="0.61" stop-color="#f3f3f3"/><stop offset="0.7" stop-color="#eaeaea"/><stop offset="0.77" stop-color="#dbdbdb"/><stop offset="0.83" stop-color="#c5c5c5"/><stop offset="0.9" stop-color="#aaa"/><stop offset="0.95" stop-color="#888"/><stop offset="1" stop-color="#666"/></linearGradient><linearGradient id="未命名的渐变_79" x1="35.65" y1="95.84" x2="17.61" y2="98.17" gradientUnits="userSpaceOnUse"><stop offset="0" stop-color="#ccc"/><stop offset="0.03" stop-color="#bbb"/><stop offset="0.06" stop-color="#a7a7a7"/><stop offset="0.09" stop-color="#a0a0a0"/><stop offset="0.1" stop-color="#a3a3a3"/><stop offset="0.49" stop-color="#f6f6f6"/><stop offset="0.62" stop-color="#f3f3f3"/><stop offset="0.72" stop-color="#eaeaea"/><stop offset="0.8" stop-color="#dbdbdb"/><stop offset="0.87" stop-color="#c5c5c5"/><stop offset="0.94" stop-color="#aaa"/><stop offset="1" stop-color="#898989"/></linearGradient><linearGradient id="未命名的渐变_143-2" x1="18.36" y1="146.46" x2="28.66" y2="146.46" xlink:href="#未命名的渐变_143"/><linearGradient id="未命名的渐变_79-2" x1="16.94" y1="100.53" x2="27.49" y2="100.53" xlink:href="#未命名的渐变_79"/><linearGradient id="未命名的渐变_79-3" x1="18.73" y1="140.92" x2="34.27" y2="140.92" xlink:href="#未命名的渐变_79"/><linearGradient id="未命名的渐变_79-4" x1="8.48" y1="139.94" x2="18.18" y2="139.94" xlink:href="#未命名的渐变_79"/><linearGradient id="未命名的渐变_79-5" x1="9.93" y1="97.44" x2="17.21" y2="97.44" xlink:href="#未命名的渐变_79"/><linearGradient id="未命名的渐变_143-3" x1="17.15" y1="97.75" x2="19.22" y2="97.75" xlink:href="#未命名的渐变_143"/><linearGradient id="未命名的渐变_79-6" x1="1.37" y1="33.79" x2="28.4" y2="33.79" xlink:href="#未命名的渐变_79"/><linearGradient id="未命名的渐变_143-4" x1="8.37" y1="38.77" x2="28" y2="38.77" xlink:href="#未命名的渐变_143"/><linearGradient id="未命名的渐变_79-7" x1="8.37" y1="40.68" x2="28" y2="40.68" xlink:href="#未命名的渐变_79"/><linearGradient id="未命名的渐变_79-8" x1="2.84" y1="4.93" x2="18.72" y2="4.93" xlink:href="#未命名的渐变_79"/><linearGradient id="未命名的渐变_143-5" x1="13.72" y1="53.05" x2="22.65" y2="53.05" xlink:href="#未命名的渐变_143"/><linearGradient id="未命名的渐变_143-6" x1="16.77" y1="143.56" x2="19.6" y2="143.56" xlink:href="#未命名的渐变_143"/><linearGradient id="未命名的渐变_143-7" x1="8.37" y1="45.73" x2="28" y2="45.73" xlink:href="#未命名的渐变_143"/><linearGradient id="未命名的渐变_79-9" x1="1.4" y1="144.81" x2="19.58" y2="144.81" xlink:href="#未命名的渐变_79"/><linearGradient id="未命名的渐变_79-10" x1="0" y1="99.77" x2="17.21" y2="99.77" xlink:href="#未命名的渐变_79"/><linearGradient id="未命名的渐变_143-8" x1="1.99" y1="27.85" x2="3.84" y2="27.85" xlink:href="#未命名的渐变_143"/><linearGradient id="未命名的渐变_143-9" x1="17.73" y1="27.85" x2="19.57" y2="27.85" xlink:href="#未命名的渐变_143"/><linearGradient id="未命名的渐变_143-10" x1="9.86" y1="27.85" x2="11.71" y2="27.85" xlink:href="#未命名的渐变_143"/></defs><title>Turbine agitator（涡轮搅拌器）</title><g id="图层_2" data-name="图层 2"><g id="图层_22" data-name="图层 22"><g id="Turbine_agitator_涡轮搅拌器_" data-name="Turbine agitator（涡轮搅拌器）"><path class="cls-1" d="M18.65,30.48H2.92V1.66h0A19.34,19.34,0,0,1,17.8,1.33l.85.33Z"/><polygon class="cls-2" points="35.65 95.87 35.65 96.7 19.22 99.11 17.46 97.03 35.65 95.87"/><path class="cls-3" d="M19,144.94,24.93,150c1.09-1.56,2.9-.25,3-.33l.75-.81s-6.73-5.78-9.08-5.93S19,144.94,19,144.94Z"/><path class="cls-4" d="M18,98.41l5.57,4.47c1.14-1.47,3.16.67,3.24.6s.69-.76.69-.76-7-5-9.46-5.12S18,98.41,18,98.41Z"/><path class="cls-5" d="M19.22,140.58s.41,1,.84,1c2.15.18,9.8-3.58,12.89-3.22.63.07,1.35.47,1.32.9-.1,1.26-8.48,4.18-12.55,4.2a3.51,3.51,0,0,1-3-1.31Z"/><polygon class="cls-6" points="11.36 135.04 8.48 137.06 13.96 144.84 18.18 143.98 16.92 139.43 11.36 135.04"/><polygon class="cls-7" points="13.49 93.56 9.93 94.35 14.48 101.31 17.21 101.17 17.15 95.34 15.8 95.21 13.49 93.56"/><rect class="cls-8" x="17.15" y="55.57" width="2.07" height="84.36"/><rect class="cls-9" x="1.37" y="30.48" width="27.02" height="6.64"/><rect class="cls-10" x="8.37" y="37.11" width="19.62" height="3.32"/><rect class="cls-11" x="8.37" y="40.43" width="19.62" height="0.5"/><rect class="cls-12" x="2.84" y="4.4" width="15.87" height="1.06"/><rect class="cls-13" x="18.72" y="8.38" width="3.18" height="10.21"/><rect class="cls-14" x="17.15" y="8.38" width="1.57" height="10.21"/><rect class="cls-15" x="16.69" y="8.38" width="0.46" height="10.21"/><rect class="cls-16" x="13.72" y="50.53" width="8.92" height="5.04"/><rect class="cls-17" x="16.77" y="139.94" width="2.83" height="7.26"/><polygon class="cls-18" points="22.65 50.53 13.72 50.53 8.37 40.93 28 40.93 22.65 50.53"/><path class="cls-19" d="M1.4,144.78l1.65,2.66,14.48-.26,2-3.57-.32-.16a12.61,12.61,0,0,0-8.5-.93Z"/><polygon class="cls-20" points="0 98.77 1.4 101.07 17.15 102.05 17.21 97.49 0 98.77"/><rect class="cls-21" x="1.99" y="25.22" width="1.85" height="5.25"/><rect class="cls-22" x="17.73" y="25.22" width="1.85" height="5.25"/><rect class="cls-23" x="9.86" y="25.22" width="1.85" height="5.25"/></g></g></g></svg>