<svg xmlns="http://www.w3.org/2000/svg" xmlns:xlink="http://www.w3.org/1999/xlink" viewBox="0 0 150 81.03"><defs><style>.cls-1,.cls-9{fill:none;}.cls-2{fill:url(#未命名的渐变_74);}.cls-3{fill:url(#未命名的渐变_74-2);}.cls-4{fill:url(#未命名的渐变_105);}.cls-5{fill:#b9b8bc;}.cls-6{clip-path:url(#clip-path);}.cls-7{fill:url(#未命名的渐变_74-3);}.cls-8{fill:url(#未命名的渐变_74-4);}.cls-9{stroke:#565656;stroke-miterlimit:10;stroke-width:3px;}.cls-10{fill:url(#未命名的渐变_74-5);}.cls-11{fill:url(#未命名的渐变_74-6);}.cls-12{fill:url(#未命名的渐变_74-7);}.cls-13{fill:url(#未命名的渐变_74-8);}.cls-14{fill:url(#未命名的渐变_74-9);}.cls-15{fill:url(#未命名的渐变_74-10);}.cls-16{fill:url(#未命名的渐变_74-11);}.cls-17{fill:url(#未命名的渐变_74-12);}</style><linearGradient id="未命名的渐变_74" x1="135.85" y1="55.45" x2="148.47" y2="55.45" gradientUnits="userSpaceOnUse"><stop offset="0" stop-color="#6b6b6b"/><stop offset="0.01" stop-color="#767676"/><stop offset="0.03" stop-color="#959595"/><stop offset="0.04" stop-color="#aaa"/><stop offset="0.37" stop-color="#ccc"/><stop offset="0.74" stop-color="#eaeaea"/><stop offset="0.94" stop-color="#f6f6f6"/><stop offset="0.95" stop-color="#ededed"/><stop offset="0.96" stop-color="#d4d4d4"/><stop offset="0.97" stop-color="#ababab"/><stop offset="0.99" stop-color="#737373"/><stop offset="0.99" stop-color="#666"/></linearGradient><linearGradient id="未命名的渐变_74-2" x1="15.81" y1="36.75" x2="148.47" y2="36.75" xlink:href="#未命名的渐变_74"/><linearGradient id="未命名的渐变_105" x1="23.12" y1="72.95" x2="23.12" y2="39.48" gradientUnits="userSpaceOnUse"><stop offset="0" stop-color="#e2e2e2"/><stop offset="0.03" stop-color="#d0d0d0"/><stop offset="0.06" stop-color="#bcbcbc"/><stop offset="0.09" stop-color="#b5b5b5"/><stop offset="0.49" stop-color="#f6f6f6"/><stop offset="0.63" stop-color="#f3f3f3"/><stop offset="0.73" stop-color="#eaeaea"/><stop offset="0.82" stop-color="#dbdbdb"/><stop offset="0.9" stop-color="#c6c6c6"/><stop offset="0.97" stop-color="#aaa"/><stop offset="1" stop-color="#9b9b9b"/></linearGradient><clipPath id="clip-path"><circle class="cls-1" cx="23.12" cy="56.21" r="13.82"/></clipPath><linearGradient id="未命名的渐变_74-3" x1="68.86" y1="81.03" x2="68.86" y2="72.95" xlink:href="#未命名的渐变_74"/><linearGradient id="未命名的渐变_74-4" x1="39.86" y1="51.86" x2="62.08" y2="51.86" xlink:href="#未命名的渐变_74"/><linearGradient id="未命名的渐变_74-5" x1="121.8" y1="72.95" x2="121.8" y2="36.69" xlink:href="#未命名的渐变_74"/><linearGradient id="未命名的渐变_74-6" x1="44.63" y1="40.32" x2="57.98" y2="40.32" xlink:href="#未命名的渐变_74"/><linearGradient id="未命名的渐变_74-7" x1="44.63" y1="51.86" x2="57.98" y2="51.86" xlink:href="#未命名的渐变_74"/><linearGradient id="未命名的渐变_74-8" x1="44.63" y1="63.4" x2="57.98" y2="63.4" xlink:href="#未命名的渐变_74"/><linearGradient id="未命名的渐变_74-9" x1="108.77" y1="57.64" x2="111.11" y2="57.64" xlink:href="#未命名的渐变_74"/><linearGradient id="未命名的渐变_74-10" x1="107.39" y1="53.37" x2="112.52" y2="53.37" xlink:href="#未命名的渐变_74"/><linearGradient id="未命名的渐变_74-11" x1="107.39" y1="62.01" x2="112.52" y2="62.01" xlink:href="#未命名的渐变_74"/><linearGradient id="未命名的渐变_74-12" x1="125.06" y1="60.94" x2="125.06" y2="54.5" xlink:href="#未命名的渐变_74"/></defs><title>IoT-Material Handling（物料运输）</title><g id="Disc_pulverizer_盘式粉碎机_" data-name="Disc pulverizer (盘式粉碎机)"><rect class="cls-2" x="135.85" y="50.25" width="12.62" height="10.4"/><path class="cls-3" d="M148.47,28.63A26.65,26.65,0,0,0,116.94,2.42L116.29.56,15.81,41.16,23.12,73h99.37c2.63-.08,5.25-18.2,7.64-19l4.5-.78-.34-1A26.67,26.67,0,0,0,148.47,28.63Z"/><circle class="cls-4" cx="23.12" cy="56.21" r="16.73"/><rect class="cls-5" x="22.34" y="42.41" width="1.56" height="27.61"/><circle class="cls-5" cx="23.12" cy="56.21" r="2.75"/><g class="cls-6"><rect class="cls-5" x="9.32" y="55.47" width="27.59" height="1.05"/><rect class="cls-5" x="9.33" y="53.7" width="27.59" height="1.05"/><rect class="cls-5" x="9.33" y="51.93" width="27.59" height="1.05"/><rect class="cls-5" x="9.33" y="50.16" width="27.59" height="1.05"/><rect class="cls-5" x="9.34" y="48.38" width="27.59" height="1.05"/><rect class="cls-5" x="9.34" y="46.61" width="27.59" height="1.05"/><rect class="cls-5" x="9.34" y="44.84" width="27.59" height="1.05"/><rect class="cls-5" x="9.35" y="43.07" width="27.59" height="1.05"/><rect class="cls-5" x="9.31" y="67.88" width="27.59" height="1.05"/><rect class="cls-5" x="9.32" y="66.11" width="27.59" height="1.05"/><rect class="cls-5" x="9.32" y="64.33" width="27.59" height="1.05"/><rect class="cls-5" x="9.32" y="62.56" width="27.59" height="1.05"/><rect class="cls-5" x="9.33" y="60.79" width="27.59" height="1.05"/><rect class="cls-5" x="9.33" y="59.02" width="27.59" height="1.05"/><rect class="cls-5" x="9.33" y="57.24" width="27.59" height="1.05"/></g><rect class="cls-7" y="72.95" width="137.71" height="8.08"/><rect class="cls-8" x="39.86" y="30.77" width="22.23" height="42.18" rx="3.14"/><circle class="cls-9" cx="121.8" cy="28.63" r="26.67"/><path class="cls-5" d="M121.8,3.48A25.16,25.16,0,1,0,147,28.63,25.15,25.15,0,0,0,121.8,3.48Zm15.28,12A5.52,5.52,0,1,1,131.57,21,5.51,5.51,0,0,1,137.08,15.45Zm-30.5,26.36a5.51,5.51,0,1,1,5.51-5.51A5.51,5.51,0,0,1,106.58,41.81Zm0-15.33A5.52,5.52,0,1,1,112.09,21,5.51,5.51,0,0,1,106.58,26.48ZM121.8,50.25a5.51,5.51,0,1,1,5.51-5.51A5.51,5.51,0,0,1,121.8,50.25Zm0-32.15a5.51,5.51,0,1,1,5.51-5.51A5.51,5.51,0,0,1,121.8,18.1Zm15,23.71a5.51,5.51,0,1,1,5.51-5.51A5.5,5.5,0,0,1,136.76,41.81Z"/><path class="cls-10" d="M138.07,53a16.27,16.27,0,0,0-32.54,0c0,1.88.36,5.36.36,5.36V73h31.82V58.32S138.07,54.84,138.07,53Z"/><rect class="cls-11" x="44.63" y="36.69" width="13.35" height="7.25"/><rect class="cls-12" x="44.63" y="48.23" width="13.35" height="7.25"/><rect class="cls-13" x="44.63" y="59.77" width="13.35" height="7.25"/><rect class="cls-14" x="108.77" y="53.25" width="2.34" height="8.77"/><rect class="cls-15" x="107.39" y="52.25" width="5.13" height="2.25"/><rect class="cls-16" x="107.39" y="60.94" width="5.13" height="2.15"/><rect class="cls-17" x="115.3" y="54.5" width="19.53" height="6.44" rx="3.2"/></g></svg>