<svg xmlns="http://www.w3.org/2000/svg" xmlns:xlink="http://www.w3.org/1999/xlink" viewBox="0 0 150 112.38"><defs><style>.cls-1{fill:none;}.cls-2{fill:#b9b8bc;stroke:#565656;}.cls-2,.cls-22{stroke-miterlimit:10;}.cls-3{fill:url(#未命名的渐变_74);}.cls-4{fill:url(#未命名的渐变_105);}.cls-5{fill:url(#未命名的渐变_74-2);}.cls-6{fill:url(#未命名的渐变_74-3);}.cls-7{fill:url(#未命名的渐变_74-4);}.cls-8{fill:url(#未命名的渐变_74-5);}.cls-9{fill:url(#未命名的渐变_74-6);}.cls-10{clip-path:url(#clip-path);}.cls-11{fill:url(#未命名的渐变_74-7);}.cls-12{fill:url(#未命名的渐变_74-8);}.cls-13{fill:url(#未命名的渐变_74-9);}.cls-14{fill:url(#未命名的渐变_74-10);}.cls-15{fill:url(#未命名的渐变_74-11);}.cls-16{fill:url(#未命名的渐变_74-12);}.cls-17{fill:url(#未命名的渐变_74-13);}.cls-18{fill:url(#未命名的渐变_74-14);}.cls-19{fill:url(#未命名的渐变_74-15);}.cls-20{fill:url(#未命名的渐变_74-16);}.cls-21{fill:url(#未命名的渐变_74-17);}.cls-22{fill:#565656;stroke:#b9b8bc;}.cls-23{fill:url(#未命名的渐变_74-18);}.cls-24{fill:url(#未命名的渐变_74-19);}.cls-25{fill:url(#未命名的渐变_74-20);}.cls-26{fill:url(#未命名的渐变_74-21);}.cls-27{fill:url(#未命名的渐变_74-22);}.cls-28{fill:url(#未命名的渐变_74-23);}</style><linearGradient id="未命名的渐变_74" x1="75.17" y1="44.46" x2="75.17" y2="31.71" gradientUnits="userSpaceOnUse"><stop offset="0" stop-color="#6b6b6b"/><stop offset="0.01" stop-color="#767676"/><stop offset="0.03" stop-color="#959595"/><stop offset="0.04" stop-color="#aaa"/><stop offset="0.37" stop-color="#ccc"/><stop offset="0.74" stop-color="#eaeaea"/><stop offset="0.94" stop-color="#f6f6f6"/><stop offset="0.95" stop-color="#ededed"/><stop offset="0.96" stop-color="#d4d4d4"/><stop offset="0.97" stop-color="#ababab"/><stop offset="0.99" stop-color="#737373"/><stop offset="0.99" stop-color="#666"/></linearGradient><linearGradient id="未命名的渐变_105" x1="76.05" y1="31.71" x2="76.05" y2="2.46" gradientUnits="userSpaceOnUse"><stop offset="0" stop-color="#e2e2e2"/><stop offset="0.03" stop-color="#d0d0d0"/><stop offset="0.06" stop-color="#bcbcbc"/><stop offset="0.09" stop-color="#b5b5b5"/><stop offset="0.49" stop-color="#f6f6f6"/><stop offset="0.63" stop-color="#f3f3f3"/><stop offset="0.73" stop-color="#eaeaea"/><stop offset="0.82" stop-color="#dbdbdb"/><stop offset="0.9" stop-color="#c6c6c6"/><stop offset="0.97" stop-color="#aaa"/><stop offset="1" stop-color="#9b9b9b"/></linearGradient><linearGradient id="未命名的渐变_74-2" x1="74.69" y1="128.59" x2="74.69" y2="93.46" gradientTransform="matrix(1, 0, 0, -1, 0, 173.05)" xlink:href="#未命名的渐变_74"/><linearGradient id="未命名的渐变_74-3" x1="74.69" y1="101.93" x2="74.69" y2="78.67" xlink:href="#未命名的渐变_74"/><linearGradient id="未命名的渐变_74-4" x1="74.05" y1="61.93" x2="75.33" y2="61.93" xlink:href="#未命名的渐变_74"/><linearGradient id="未命名的渐变_74-5" x1="120.48" y1="62.03" x2="121.76" y2="62.03" xlink:href="#未命名的渐变_74"/><linearGradient id="未命名的渐变_74-6" x1="23.72" y1="61.93" x2="25.01" y2="61.93" xlink:href="#未命名的渐变_74"/><clipPath id="clip-path"><polygon class="cls-1" points="134.77 31.71 17.33 31.71 30.12 2.46 118.88 2.46 134.77 31.71"/></clipPath><linearGradient id="未命名的渐变_74-7" x1="74.9" y1="6.43" x2="74.9" y2="5.27" xlink:href="#未命名的渐变_74"/><linearGradient id="未命名的渐变_74-8" x1="74.13" y1="4.17" x2="74.13" y2="3" xlink:href="#未命名的渐变_74"/><linearGradient id="未命名的渐变_74-9" x1="75.68" y1="29.98" x2="75.68" y2="28.82" xlink:href="#未命名的渐变_74"/><linearGradient id="未命名的渐变_74-10" x1="75.17" y1="27.36" x2="75.17" y2="26.2" xlink:href="#未命名的渐变_74"/><linearGradient id="未命名的渐变_74-11" x1="74.65" y1="24.75" x2="74.65" y2="23.58" xlink:href="#未命名的渐变_74"/><linearGradient id="未命名的渐变_74-12" x1="74.13" y1="22.13" x2="74.13" y2="20.97" xlink:href="#未命名的渐变_74"/><linearGradient id="未命名的渐变_74-13" x1="73.61" y1="19.51" x2="73.61" y2="18.35" xlink:href="#未命名的渐变_74"/><linearGradient id="未命名的渐变_74-14" x1="73.1" y1="16.9" x2="73.1" y2="15.73" xlink:href="#未命名的渐变_74"/><linearGradient id="未命名的渐变_74-15" x1="72.58" y1="14.28" x2="72.58" y2="13.12" xlink:href="#未命名的渐变_74"/><linearGradient id="未命名的渐变_74-16" x1="72.06" y1="11.67" x2="72.06" y2="10.5" xlink:href="#未命名的渐变_74"/><linearGradient id="未命名的渐变_74-17" x1="71.54" y1="9.05" x2="71.54" y2="7.89" xlink:href="#未命名的渐变_74"/><linearGradient id="未命名的渐变_74-18" x1="28.4" y1="95.53" x2="37.87" y2="95.53" xlink:href="#未命名的渐变_74"/><linearGradient id="未命名的渐变_74-19" x1="111.73" y1="95.53" x2="121.2" y2="95.53" xlink:href="#未命名的渐变_74"/><linearGradient id="未命名的渐变_74-20" x1="23.64" y1="106.43" x2="42.62" y2="106.43" xlink:href="#未命名的渐变_74"/><linearGradient id="未命名的渐变_74-21" x1="106.98" y1="106.43" x2="125.96" y2="106.43" xlink:href="#未命名的渐变_74"/><linearGradient id="未命名的渐变_74-22" x1="25.78" y1="87.9" x2="40.1" y2="87.9" xlink:href="#未命名的渐变_74"/><linearGradient id="未命名的渐变_74-23" x1="108.87" y1="88.84" x2="123.18" y2="88.84" xlink:href="#未命名的渐变_74"/></defs><title>IoT-Material Handling（物料运输）</title><g id="图层_8" data-name="图层 8"><rect class="cls-2" x="35.63" width="8.36" height="3"/><rect class="cls-2" x="71.87" width="8.36" height="3"/><rect class="cls-2" x="108.11" width="8.36" height="3"/><rect class="cls-3" x="0.17" y="31.71" width="150" height="12.75"/><polygon class="cls-4" points="134.77 31.71 17.33 31.71 30.12 2.46 118.88 2.46 134.77 31.71"/><polygon class="cls-5" points="139.42 44.47 9.96 44.47 24.06 79.59 121.9 79.59 139.42 44.47"/><rect class="cls-6" x="47.56" y="78.67" width="54.26" height="23.26"/><rect class="cls-7" x="74.05" y="44.46" width="1.28" height="34.93"/><rect class="cls-8" x="120.48" y="44.56" width="1.28" height="34.93"/><rect class="cls-9" x="23.72" y="44.46" width="1.28" height="34.93"/><g class="cls-10"><rect class="cls-11" x="28.23" y="5.27" width="93.34" height="1.16"/><rect class="cls-12" x="28.23" y="3" width="91.81" height="1.16"/><rect class="cls-13" x="17.33" y="28.82" width="116.72" height="1.16"/><rect class="cls-14" x="16.81" y="26.2" width="116.72" height="1.16"/><rect class="cls-15" x="16.29" y="23.58" width="116.72" height="1.16"/><rect class="cls-16" x="15.77" y="20.97" width="116.72" height="1.16"/><rect class="cls-17" x="15.26" y="18.35" width="116.72" height="1.16"/><rect class="cls-18" x="14.74" y="15.73" width="116.72" height="1.16"/><rect class="cls-19" x="14.22" y="13.12" width="116.72" height="1.16"/><rect class="cls-20" x="13.7" y="10.5" width="116.72" height="1.16"/><rect class="cls-21" x="13.19" y="7.89" width="116.72" height="1.16"/></g><rect class="cls-2" x="32.1" y="21.4" width="7.41" height="7.41"/><rect class="cls-22" x="28.4" y="47.36" width="7.41" height="7.41"/><rect class="cls-22" x="64.64" y="47.36" width="7.41" height="7.41"/><rect class="cls-22" x="76.08" y="47.36" width="7.41" height="7.41"/><rect class="cls-22" x="112.32" y="47.36" width="7.41" height="7.41"/><rect class="cls-2" x="73.77" y="21.4" width="7.41" height="7.41"/><rect class="cls-2" x="115.44" y="21.4" width="7.41" height="7.41"/><rect class="cls-23" x="28.4" y="78.67" width="9.47" height="33.71"/><rect class="cls-24" x="111.73" y="78.67" width="9.47" height="33.71"/><rect class="cls-25" x="23.64" y="100.47" width="18.98" height="11.91"/><rect class="cls-26" x="106.98" y="100.47" width="18.98" height="11.91"/><rect class="cls-27" x="25.78" y="86.95" width="14.32" height="1.89"/><rect class="cls-28" x="108.87" y="87.9" width="14.32" height="1.89"/></g></svg>