<svg width="14" height="14" viewBox="0 0 14 14" fill="none" xmlns="http://www.w3.org/2000/svg">
<path fill-rule="evenodd" clip-rule="evenodd" d="M0.720082 0.0506819C0.671863 0.0270644 0.620552 0.011632 0.568268 0.00445797C0.542644 0.000929244 0.516868 -0.00059169 0.491175 -0.000134382C0.375224 0.00187591 0.259582 0.0439943 0.166794 0.126999C0.158302 0.134586 0.150109 0.142427 0.142219 0.150504C0.0398363 0.255215 -0.00766417 0.394698 0.00100384 0.531659C0.00291657 0.561882 0.00756429 0.591982 0.0149609 0.621559L3.00924 13.5968C3.0223 13.663 3.04906 13.7277 3.09026 13.7866C3.24862 14.0128 3.56039 14.0678 3.78661 13.9094L7.12872 11.57L9.76967 12.9439C9.92467 13.0245 10.1105 13.0184 10.2599 12.9278C10.4092 12.8371 10.5004 12.6751 10.5004 12.5003V9.25748L13.7912 6.90693C13.9362 6.80338 14.0151 6.63053 13.9984 6.45317C13.9817 6.27581 13.8719 6.12074 13.7101 6.04608L0.720082 0.0506819ZM1.40635 2.20367L7.13479 8.34129C7.32321 8.54316 7.6396 8.55407 7.84148 8.36566C8.04335 8.17724 8.05426 7.86085 7.86585 7.65897L2.60445 2.02176L12.5097 6.5934L9.70981 8.59331C9.57841 8.68716 9.50043 8.8387 9.50043 9.00017V11.6766L8.0525 10.9233L8.3873 10.689C8.61352 10.5306 8.66854 10.2188 8.51018 9.99261C8.35182 9.76639 8.04006 9.71137 7.81384 9.86973L3.82051 12.6651L1.40635 2.20367Z" fill="white"/>
</svg>
