<svg xmlns="http://www.w3.org/2000/svg" xmlns:xlink="http://www.w3.org/1999/xlink" viewBox="0 0 150 143.86"><defs><style>.cls-1{fill:url(#未命名的渐变_13);}.cls-2{fill:url(#未命名的渐变_208);}.cls-3{fill:url(#未命名的渐变_198);}.cls-4{fill:url(#未命名的渐变_152);}.cls-5{fill:url(#未命名的渐变_518);}.cls-6{fill:url(#未命名的渐变_192);}.cls-7{fill:url(#未命名的渐变_518-2);}</style><linearGradient id="未命名的渐变_13" x1="60.91" y1="60.91" x2="17.5" y2="17.51" gradientUnits="userSpaceOnUse"><stop offset="0" stop-color="#ffb820"/><stop offset="1" stop-color="#ffe600"/></linearGradient><linearGradient id="未命名的渐变_208" x1="57.63" y1="153.37" x2="112.79" y2="57.84" gradientUnits="userSpaceOnUse"><stop offset="0.4" stop-color="#8aafe6"/><stop offset="1" stop-color="#ebeff5"/></linearGradient><linearGradient id="未命名的渐变_198" x1="37.43" y1="140.28" x2="98.46" y2="34.57" gradientUnits="userSpaceOnUse"><stop offset="0.34" stop-color="#8aafe6"/><stop offset="1" stop-color="#c4d7f5"/></linearGradient><linearGradient id="未命名的渐变_152" x1="81.66" y1="109.22" x2="34.47" y2="62.03" gradientUnits="userSpaceOnUse"><stop offset="0.5" stop-color="#bddcff" stop-opacity="0"/><stop offset="0.57" stop-color="#bfdbf8" stop-opacity="0.02"/><stop offset="0.66" stop-color="#c5d7e2" stop-opacity="0.07"/><stop offset="0.74" stop-color="#ced0be" stop-opacity="0.16"/><stop offset="0.83" stop-color="#dcc78b" stop-opacity="0.28"/><stop offset="0.92" stop-color="#edbb4a" stop-opacity="0.43"/><stop offset="1" stop-color="#ffaf06" stop-opacity="0.6"/></linearGradient><linearGradient id="未命名的渐变_518" x1="104.09" y1="97.62" x2="45.91" y2="39.44" gradientUnits="userSpaceOnUse"><stop offset="0.5" stop-color="#bddcff" stop-opacity="0"/><stop offset="1" stop-color="#ffde99" stop-opacity="0.6"/></linearGradient><linearGradient id="未命名的渐变_192" x1="61.71" y1="138.35" x2="20.56" y2="67.09" gradientUnits="userSpaceOnUse"><stop offset="0" stop-color="#8aafe6"/><stop offset="1" stop-color="#ebeff5"/></linearGradient><linearGradient id="未命名的渐变_518-2" x1="70.22" y1="131.81" x2="12.05" y2="73.64" xlink:href="#未命名的渐变_518"/></defs><title>Cloudy at night（多云(夜晚)）</title><g id="图层_2" data-name="图层 2"><g id="图层_21" data-name="图层 21"><g id="Cloudy_at_night_多云_夜晚_" data-name="Cloudy at night（多云(夜晚)）"><path class="cls-1" d="M71.35,35.68A35.68,35.68,0,1,1,0,35.68c0-.23,0-.45,0-.67a29.73,29.73,0,0,0,6.3.67A29.36,29.36,0,0,0,35.68,6.32,29.12,29.12,0,0,0,35,0h.68A35.68,35.68,0,0,1,71.35,35.68Z"/><path class="cls-2" d="M107.79,61.59H41.18a.09.09,0,0,0-.09.1v82.07a.09.09,0,0,0,.09.1h67.68A41.14,41.14,0,0,0,150,101.31C149.23,79,130.14,61.59,107.79,61.59Z"/><path class="cls-3" d="M116.14,68.53a41.14,41.14,0,0,0-81.79-6.38,41.93,41.93,0,0,0-.49,6.38A41.15,41.15,0,0,0,75,109.67a39.82,39.82,0,0,0,6.77-.56,41.15,41.15,0,0,1-38.25,34.68c1,0,2,.07,3,.07a69.63,69.63,0,0,0,69.64-69.63c0-1.06,0-2.13-.08-3.18C116.11,70.22,116.14,69.37,116.14,68.53Z"/><path class="cls-4" d="M82.27,102.72a40.81,40.81,0,0,1-.5,6.39,39.82,39.82,0,0,1-6.77.56A41.15,41.15,0,0,1,33.86,68.53a41.93,41.93,0,0,1,.49-6.38,41.15,41.15,0,0,1,47.92,40.57Z"/><circle class="cls-5" cx="75" cy="68.53" r="41.14"/><circle class="cls-6" cx="41.14" cy="102.72" r="41.14"/><circle class="cls-7" cx="41.14" cy="102.72" r="41.14"/></g></g></g></svg>