<svg xmlns="http://www.w3.org/2000/svg" xmlns:xlink="http://www.w3.org/1999/xlink" viewBox="0 0 150 67.48"><defs><style>.cls-1{fill:url(#雾);}.cls-2{fill:url(#雾-2);}.cls-3{fill:url(#雾-3);}.cls-4{fill:url(#雾-4);}.cls-5{fill:url(#雾-5);}.cls-6{fill:url(#雾-6);}</style><linearGradient id="雾" y1="7.12" x2="71.15" y2="7.12" gradientUnits="userSpaceOnUse"><stop offset="0" stop-color="#e3f0f6"/><stop offset="1" stop-color="#93a7b1"/></linearGradient><linearGradient id="雾-2" x1="78.85" y1="7.12" x2="150" y2="7.12" xlink:href="#雾"/><linearGradient id="雾-3" y1="33.74" x2="71.15" y2="33.74" xlink:href="#雾"/><linearGradient id="雾-4" x1="78.85" y1="33.74" x2="150" y2="33.74" xlink:href="#雾"/><linearGradient id="雾-5" y1="60.35" x2="71.15" y2="60.35" xlink:href="#雾"/><linearGradient id="雾-6" x1="78.85" y1="60.35" x2="150" y2="60.35" xlink:href="#雾"/></defs><title>Fog（雾）</title><g id="图层_2" data-name="图层 2"><g id="图层_21" data-name="图层 21"><g id="Fog_雾_" data-name="Fog（雾）"><path class="cls-1" d="M64,14.25H7.12A7.13,7.13,0,0,1,7.12,0H64a7.13,7.13,0,1,1,0,14.25Z"/><path class="cls-2" d="M142.88,14.25H86A7.13,7.13,0,1,1,86,0h56.9a7.13,7.13,0,0,1,0,14.25Z"/><path class="cls-3" d="M64,40.87H7.12a7.13,7.13,0,0,1,0-14.25H64a7.13,7.13,0,1,1,0,14.25Z"/><path class="cls-4" d="M142.88,40.87H86a7.13,7.13,0,1,1,0-14.25h56.9a7.13,7.13,0,0,1,0,14.25Z"/><path class="cls-5" d="M64,67.48H7.12a7.13,7.13,0,0,1,0-14.25H64a7.13,7.13,0,1,1,0,14.25Z"/><path class="cls-6" d="M142.88,67.48H86a7.13,7.13,0,1,1,0-14.25h56.9a7.13,7.13,0,0,1,0,14.25Z"/></g></g></g></svg>