<svg xmlns="http://www.w3.org/2000/svg" xmlns:xlink="http://www.w3.org/1999/xlink" viewBox="0 0 150 82.47"><defs><style>.cls-1{fill:none;}.cls-2{fill:url(#未命名的渐变_214);}.cls-3{clip-path:url(#clip-path);}.cls-4{fill:#87acb2;}.cls-5{fill:#88adb3;}.cls-6{fill:#89aeb3;}.cls-7{fill:#8aaeb4;}.cls-8{fill:#8bafb5;}.cls-9{fill:#8cb0b6;}.cls-10{fill:#8db1b6;}.cls-11{fill:#8eb1b7;}.cls-12{fill:#8fb2b8;}.cls-13{fill:#90b3b9;}.cls-14{fill:#91b4b9;}.cls-15{fill:#92b4ba;}.cls-16{fill:#93b5bb;}.cls-17{fill:#94b6bb;}.cls-18{fill:#95b7bc;}.cls-19{fill:#96b8bd;}.cls-20{fill:#97b8be;}.cls-21{fill:#98b9be;}.cls-22{fill:#99babf;}.cls-23{fill:#9abbc0;}.cls-24{fill:#9bbbc1;}.cls-25{fill:#9cbcc1;}.cls-26{fill:#9dbdc2;}.cls-27{fill:#9ebec3;}.cls-28{fill:#9fbfc3;}.cls-29{fill:#a0bfc4;}.cls-30{fill:#a1c0c5;}.cls-31{fill:#a2c1c6;}.cls-32{fill:#a3c2c6;}.cls-33{fill:#a4c2c7;}.cls-34{fill:#a5c3c8;}.cls-35{fill:#a6c4c9;}.cls-36{fill:#a7c5c9;}.cls-37{fill:#a8c5ca;}.cls-38{fill:#a9c6cb;}.cls-39{fill:#aac7cb;}.cls-40{fill:#abc8cc;}.cls-41{fill:#acc9cd;}.cls-42{fill:#adc9ce;}.cls-43{fill:#aecace;}.cls-44{fill:#afcbcf;}.cls-45{fill:#b0ccd0;}.cls-46{fill:#b1ccd1;}.cls-47{fill:#b2cdd1;}.cls-48{fill:#b3ced2;}.cls-49{fill:#b4cfd3;}.cls-50{fill:#b6d0d4;}.cls-51{fill:#b7d0d4;}.cls-52{fill:#b8d1d5;}.cls-53{fill:#b9d2d6;}.cls-54{fill:#bad3d6;}.cls-55{fill:#bbd3d7;}.cls-56{fill:#bcd4d8;}.cls-57{fill:#bdd5d9;}.cls-58{fill:#bed6d9;}.cls-59{fill:#bfd6da;}.cls-60{fill:#c0d7db;}.cls-61{fill:#c1d8dc;}.cls-62{fill:#c2d9dc;}.cls-63{fill:#c3dadd;}.cls-64{fill:#c4dade;}.cls-65{fill:#c5dbde;}.cls-66{fill:#c6dcdf;}.cls-67{fill:#c7dde0;}.cls-68{fill:#c8dde1;}.cls-69{fill:#c9dee1;}.cls-70{fill:#cadfe2;}.cls-71{fill:#cbe0e3;}.cls-72{fill:#cce0e4;}.cls-73{fill:#cde1e4;}.cls-74{fill:#cee2e5;}.cls-75{fill:#cfe3e6;}.cls-76{fill:#d0e4e6;}.cls-77{fill:#d1e4e7;}.cls-78{fill:#d2e5e8;}.cls-79{fill:#d3e6e9;}.cls-80{fill:#d4e7e9;}.cls-81{fill:#d5e7ea;}.cls-82{fill:#d6e8eb;}.cls-83{fill:#d7e9ec;}.cls-84{fill:#d8eaec;}.cls-85{fill:#d9ebed;}.cls-86{fill:#daebee;}.cls-87{fill:#dbecee;}.cls-88{fill:#dcedef;}.cls-89{fill:#ddeef0;}.cls-90{fill:#deeef1;}.cls-91{fill:#dfeff1;}.cls-92{fill:#e0f0f2;}.cls-93{fill:#e1f1f3;}.cls-94{fill:#e2f1f4;}.cls-95{fill:#e3f2f4;}.cls-96{fill:#e4f3f5;}.cls-97{clip-path:url(#clip-path-2);}</style><linearGradient id="未命名的渐变_214" y1="41.24" x2="150" y2="41.24" gradientUnits="userSpaceOnUse"><stop offset="0" stop-color="#87acb2"/><stop offset="1" stop-color="#e4f3f5"/></linearGradient><clipPath id="clip-path"><circle class="cls-1" cx="41.33" cy="42.69" r="13.91"/></clipPath><clipPath id="clip-path-2"><circle class="cls-1" cx="108.86" cy="42.69" r="13.91"/></clipPath></defs><title>Freezing rain（冻雨）</title><g id="图层_2" data-name="图层 2"><g id="图层_21" data-name="图层 21"><g id="Freezing_rain_冻雨_" data-name="Freezing rain（冻雨）"><path class="cls-2" d="M108.76,82.47A41.27,41.27,0,0,1,67.53,41.24a26.29,26.29,0,1,0-52.58,0A7.48,7.48,0,0,1,0,41.24a41.24,41.24,0,1,1,82.47,0,26.29,26.29,0,0,0,52.58,0,7.48,7.48,0,1,1,14.95,0A41.28,41.28,0,0,1,108.76,82.47Z"/><g class="cls-3"><polygon class="cls-4" points="45.06 56.61 55.24 50.73 55.24 56.61 45.06 56.61"/><polygon class="cls-4" points="44.46 56.61 55.24 50.38 55.24 50.73 45.06 56.61 44.46 56.61"/><polygon class="cls-5" points="43.86 56.61 55.24 50.04 55.24 50.38 44.46 56.61 43.86 56.61"/><polygon class="cls-6" points="43.27 56.61 55.24 49.69 55.24 50.04 43.86 56.61 43.27 56.61"/><polygon class="cls-7" points="42.67 56.61 55.24 49.35 55.24 49.69 43.27 56.61 42.67 56.61"/><polygon class="cls-8" points="42.07 56.61 55.24 49 55.24 49.35 42.67 56.61 42.07 56.61"/><polygon class="cls-9" points="41.47 56.61 55.24 48.66 55.24 49 42.07 56.61 41.47 56.61"/><polygon class="cls-10" points="40.87 56.61 55.24 48.31 55.24 48.66 41.47 56.61 40.87 56.61"/><polygon class="cls-11" points="40.27 56.61 55.24 47.97 55.24 48.31 40.87 56.61 40.27 56.61"/><polygon class="cls-12" points="39.67 56.61 55.24 47.62 55.24 47.97 40.27 56.61 39.67 56.61"/><polygon class="cls-13" points="39.08 56.61 55.24 47.27 55.24 47.62 39.67 56.61 39.08 56.61"/><polygon class="cls-14" points="38.48 56.61 55.24 46.93 55.24 47.27 39.08 56.61 38.48 56.61"/><polygon class="cls-15" points="37.88 56.61 55.24 46.58 55.24 46.93 38.48 56.61 37.88 56.61"/><polygon class="cls-16" points="37.28 56.61 55.24 46.24 55.24 46.58 37.88 56.61 37.28 56.61"/><polygon class="cls-17" points="36.68 56.61 55.24 45.89 55.24 46.24 37.28 56.61 36.68 56.61"/><polygon class="cls-18" points="36.08 56.61 55.24 45.55 55.24 45.89 36.68 56.61 36.08 56.61"/><polygon class="cls-19" points="35.48 56.61 55.24 45.2 55.24 45.55 36.08 56.61 35.48 56.61"/><polygon class="cls-20" points="34.89 56.61 55.24 44.85 55.24 45.2 35.48 56.61 34.89 56.61"/><polygon class="cls-21" points="34.29 56.61 55.24 44.51 55.24 44.85 34.89 56.61 34.29 56.61"/><polygon class="cls-22" points="33.69 56.61 55.24 44.16 55.24 44.51 34.29 56.61 33.69 56.61"/><polygon class="cls-23" points="33.09 56.61 55.24 43.82 55.24 44.16 33.69 56.61 33.09 56.61"/><polygon class="cls-24" points="32.49 56.61 55.24 43.47 55.24 43.82 33.09 56.61 32.49 56.61"/><polygon class="cls-25" points="31.89 56.61 55.24 43.13 55.24 43.47 32.49 56.61 31.89 56.61"/><polygon class="cls-26" points="31.3 56.61 55.24 42.78 55.24 43.13 31.89 56.61 31.3 56.61"/><polygon class="cls-27" points="30.7 56.61 55.24 42.44 55.24 42.78 31.3 56.61 30.7 56.61"/><polygon class="cls-28" points="30.1 56.61 55.24 42.09 55.24 42.44 30.7 56.61 30.1 56.61"/><polygon class="cls-29" points="29.5 56.61 55.24 41.74 55.24 42.09 30.1 56.61 29.5 56.61"/><polygon class="cls-30" points="28.9 56.61 55.24 41.4 55.24 41.74 29.5 56.61 28.9 56.61"/><polygon class="cls-31" points="28.3 56.61 55.24 41.05 55.24 41.4 28.9 56.61 28.3 56.61"/><polygon class="cls-32" points="28.14 56.61 28.03 56.42 55.24 40.71 55.24 41.05 28.3 56.61 28.14 56.61"/><polygon class="cls-33" points="28.03 56.42 27.88 56.16 55.24 40.36 55.24 40.71 28.03 56.42"/><polygon class="cls-34" points="27.88 56.16 27.73 55.9 55.24 40.02 55.24 40.36 27.88 56.16"/><polygon class="cls-35" points="27.73 55.9 27.58 55.64 55.24 39.67 55.24 40.02 27.73 55.9"/><polygon class="cls-36" points="27.58 55.64 27.43 55.38 55.24 39.33 55.24 39.67 27.58 55.64"/><polygon class="cls-37" points="27.43 55.38 27.41 55.36 27.41 55.05 55.24 38.98 55.24 39.33 27.43 55.38"/><polygon class="cls-38" points="27.41 54.7 55.24 38.63 55.24 38.98 27.41 55.05 27.41 54.7"/><polygon class="cls-39" points="27.41 54.35 55.24 38.29 55.24 38.63 27.41 54.7 27.41 54.35"/><polygon class="cls-40" points="27.41 54.01 55.24 37.94 55.24 38.29 27.41 54.35 27.41 54.01"/><polygon class="cls-41" points="27.41 53.66 55.24 37.6 55.24 37.94 27.41 54.01 27.41 53.66"/><polygon class="cls-42" points="27.41 53.32 55.24 37.25 55.24 37.6 27.41 53.66 27.41 53.32"/><polygon class="cls-43" points="27.41 52.97 55.24 36.91 55.24 37.25 27.41 53.32 27.41 52.97"/><polygon class="cls-44" points="27.41 52.63 55.24 36.56 55.24 36.91 27.41 52.97 27.41 52.63"/><polygon class="cls-45" points="27.41 52.28 55.24 36.22 55.24 36.56 27.41 52.63 27.41 52.28"/><polygon class="cls-46" points="27.41 51.94 55.24 35.87 55.24 36.22 27.41 52.28 27.41 51.94"/><polygon class="cls-47" points="27.41 51.59 55.24 35.52 55.24 35.87 27.41 51.94 27.41 51.59"/><polygon class="cls-48" points="27.41 51.24 55.24 35.18 55.24 35.52 27.41 51.59 27.41 51.24"/><polygon class="cls-49" points="27.41 50.9 55.24 34.83 55.24 35.18 27.41 51.24 27.41 50.9"/><polygon class="cls-50" points="27.41 50.55 55.24 34.49 55.24 34.83 27.41 50.9 27.41 50.55"/><polygon class="cls-51" points="27.41 50.21 55.24 34.14 55.24 34.49 27.41 50.55 27.41 50.21"/><polygon class="cls-52" points="27.41 49.86 55.24 33.8 55.24 34.14 27.41 50.21 27.41 49.86"/><polygon class="cls-53" points="27.41 49.52 55.24 33.45 55.24 33.8 27.41 49.86 27.41 49.52"/><polygon class="cls-54" points="27.41 49.17 55.24 33.11 55.24 33.45 27.41 49.52 27.41 49.17"/><polygon class="cls-55" points="27.41 48.83 55.24 32.76 55.24 33.11 27.41 49.17 27.41 48.83"/><polygon class="cls-56" points="27.41 48.48 55.24 32.41 55.24 32.76 27.41 48.83 27.41 48.48"/><polygon class="cls-57" points="27.41 48.13 55.24 32.07 55.24 32.41 27.41 48.48 27.41 48.13"/><polygon class="cls-58" points="27.41 47.79 55.24 31.72 55.24 32.07 27.41 48.13 27.41 47.79"/><polygon class="cls-59" points="27.41 47.44 55.24 31.38 55.24 31.72 27.41 47.79 27.41 47.44"/><polygon class="cls-60" points="27.41 47.1 55.24 31.03 55.24 31.38 27.41 47.44 27.41 47.1"/><polygon class="cls-61" points="27.41 46.75 55.24 30.69 55.24 31.03 27.41 47.1 27.41 46.75"/><polygon class="cls-62" points="27.41 46.41 55.24 30.34 55.24 30.69 27.41 46.75 27.41 46.41"/><polygon class="cls-63" points="27.41 46.06 55.23 30 55.24 30.03 55.24 30.34 27.41 46.41 27.41 46.06"/><polygon class="cls-64" points="27.41 45.72 55.08 29.75 55.23 30 27.41 46.06 27.41 45.72"/><polygon class="cls-65" points="27.41 45.37 54.93 29.49 55.08 29.75 27.41 45.72 27.41 45.37"/><polygon class="cls-66" points="27.41 45.02 54.78 29.23 54.93 29.49 27.41 45.37 27.41 45.02"/><polygon class="cls-67" points="27.41 44.68 54.63 28.97 54.78 29.23 27.41 45.02 27.41 44.68"/><polygon class="cls-68" points="27.41 44.33 54.35 28.78 54.52 28.78 54.63 28.97 27.41 44.68 27.41 44.33"/><polygon class="cls-69" points="27.41 43.99 53.76 28.78 54.35 28.78 27.41 44.33 27.41 43.99"/><polygon class="cls-70" points="27.41 43.64 53.16 28.78 53.76 28.78 27.41 43.99 27.41 43.64"/><polygon class="cls-71" points="27.41 43.3 52.56 28.78 53.16 28.78 27.41 43.64 27.41 43.3"/><polygon class="cls-72" points="27.41 42.95 51.96 28.78 52.56 28.78 27.41 43.3 27.41 42.95"/><polygon class="cls-73" points="27.41 42.61 51.36 28.78 51.96 28.78 27.41 42.95 27.41 42.61"/><polygon class="cls-74" points="27.41 42.26 50.76 28.78 51.36 28.78 27.41 42.61 27.41 42.26"/><polygon class="cls-75" points="27.41 41.91 50.16 28.78 50.76 28.78 27.41 42.26 27.41 41.91"/><polygon class="cls-76" points="27.41 41.57 49.56 28.78 50.16 28.78 27.41 41.91 27.41 41.57"/><polygon class="cls-77" points="27.41 41.22 48.97 28.78 49.56 28.78 27.41 41.57 27.41 41.22"/><polygon class="cls-78" points="27.41 40.88 48.37 28.78 48.97 28.78 27.41 41.22 27.41 40.88"/><polygon class="cls-79" points="27.41 40.53 47.77 28.78 48.37 28.78 27.41 40.88 27.41 40.53"/><polygon class="cls-80" points="27.41 40.19 47.17 28.78 47.77 28.78 27.41 40.53 27.41 40.19"/><polygon class="cls-81" points="27.41 39.84 46.57 28.78 47.17 28.78 27.41 40.19 27.41 39.84"/><polygon class="cls-82" points="27.41 39.5 45.97 28.78 46.57 28.78 27.41 39.84 27.41 39.5"/><polygon class="cls-83" points="27.41 39.15 45.38 28.78 45.97 28.78 27.41 39.5 27.41 39.15"/><polygon class="cls-84" points="27.41 38.8 44.78 28.78 45.38 28.78 27.41 39.15 27.41 38.8"/><polygon class="cls-85" points="27.41 38.46 44.18 28.78 44.78 28.78 27.41 38.8 27.41 38.46"/><polygon class="cls-86" points="27.41 38.11 43.58 28.78 44.18 28.78 27.41 38.46 27.41 38.11"/><polygon class="cls-87" points="27.41 37.77 42.98 28.78 43.58 28.78 27.41 38.11 27.41 37.77"/><polygon class="cls-88" points="27.41 37.42 42.38 28.78 42.98 28.78 27.41 37.77 27.41 37.42"/><polygon class="cls-89" points="27.41 37.08 41.78 28.78 42.38 28.78 27.41 37.42 27.41 37.08"/><polygon class="cls-90" points="27.41 36.73 41.19 28.78 41.78 28.78 27.41 37.08 27.41 36.73"/><polygon class="cls-91" points="27.41 36.39 40.59 28.78 41.19 28.78 27.41 36.73 27.41 36.39"/><polygon class="cls-92" points="27.41 36.04 39.99 28.78 40.59 28.78 27.41 36.39 27.41 36.04"/><polygon class="cls-93" points="27.41 35.7 39.39 28.78 39.99 28.78 27.41 36.04 27.41 35.7"/><polygon class="cls-94" points="27.41 35.35 38.79 28.78 39.39 28.78 27.41 35.7 27.41 35.35"/><polygon class="cls-95" points="27.41 35 38.19 28.78 38.79 28.78 27.41 35.35 27.41 35"/><polygon class="cls-96" points="27.41 34.66 37.59 28.78 38.19 28.78 27.41 35 27.41 34.66"/><polygon class="cls-96" points="37.59 28.78 27.41 34.66 27.41 28.78 37.59 28.78"/></g><g class="cls-97"><polygon class="cls-4" points="112.59 56.61 122.77 50.73 122.77 56.61 112.59 56.61"/><polygon class="cls-4" points="111.99 56.61 122.77 50.38 122.77 50.73 112.59 56.61 111.99 56.61"/><polygon class="cls-5" points="111.39 56.61 122.77 50.04 122.77 50.38 111.99 56.61 111.39 56.61"/><polygon class="cls-6" points="110.79 56.61 122.77 49.69 122.77 50.04 111.39 56.61 110.79 56.61"/><polygon class="cls-7" points="110.19 56.61 122.77 49.35 122.77 49.69 110.79 56.61 110.19 56.61"/><polygon class="cls-8" points="109.59 56.61 122.77 49 122.77 49.35 110.19 56.61 109.59 56.61"/><polygon class="cls-9" points="109 56.61 122.77 48.66 122.77 49 109.59 56.61 109 56.61"/><polygon class="cls-10" points="108.4 56.61 122.77 48.31 122.77 48.66 109 56.61 108.4 56.61"/><polygon class="cls-11" points="107.8 56.61 122.77 47.97 122.77 48.31 108.4 56.61 107.8 56.61"/><polygon class="cls-12" points="107.2 56.61 122.77 47.62 122.77 47.97 107.8 56.61 107.2 56.61"/><polygon class="cls-13" points="106.6 56.61 122.77 47.27 122.77 47.62 107.2 56.61 106.6 56.61"/><polygon class="cls-14" points="106 56.61 122.77 46.93 122.77 47.27 106.6 56.61 106 56.61"/><polygon class="cls-15" points="105.41 56.61 122.77 46.58 122.77 46.93 106 56.61 105.41 56.61"/><polygon class="cls-16" points="104.81 56.61 122.77 46.24 122.77 46.58 105.41 56.61 104.81 56.61"/><polygon class="cls-17" points="104.21 56.61 122.77 45.89 122.77 46.24 104.81 56.61 104.21 56.61"/><polygon class="cls-18" points="103.61 56.61 122.77 45.55 122.77 45.89 104.21 56.61 103.61 56.61"/><polygon class="cls-19" points="103.01 56.61 122.77 45.2 122.77 45.55 103.61 56.61 103.01 56.61"/><polygon class="cls-20" points="102.41 56.61 122.77 44.85 122.77 45.2 103.01 56.61 102.41 56.61"/><polygon class="cls-21" points="101.81 56.61 122.77 44.51 122.77 44.85 102.41 56.61 101.81 56.61"/><polygon class="cls-22" points="101.22 56.61 122.77 44.16 122.77 44.51 101.81 56.61 101.22 56.61"/><polygon class="cls-23" points="100.62 56.61 122.77 43.82 122.77 44.16 101.22 56.61 100.62 56.61"/><polygon class="cls-24" points="100.02 56.61 122.77 43.47 122.77 43.82 100.62 56.61 100.02 56.61"/><polygon class="cls-25" points="99.42 56.61 122.77 43.13 122.77 43.47 100.02 56.61 99.42 56.61"/><polygon class="cls-26" points="98.82 56.61 122.77 42.78 122.77 43.13 99.42 56.61 98.82 56.61"/><polygon class="cls-27" points="98.22 56.61 122.77 42.44 122.77 42.78 98.82 56.61 98.22 56.61"/><polygon class="cls-28" points="97.63 56.61 122.77 42.09 122.77 42.44 98.22 56.61 97.63 56.61"/><polygon class="cls-29" points="97.03 56.61 122.77 41.74 122.77 42.09 97.63 56.61 97.03 56.61"/><polygon class="cls-30" points="96.43 56.61 122.77 41.4 122.77 41.74 97.03 56.61 96.43 56.61"/><polygon class="cls-31" points="95.83 56.61 122.77 41.05 122.77 41.4 96.43 56.61 95.83 56.61"/><polygon class="cls-32" points="95.66 56.61 95.56 56.42 122.77 40.71 122.77 41.05 95.83 56.61 95.66 56.61"/><polygon class="cls-33" points="95.56 56.42 95.41 56.16 122.77 40.36 122.77 40.71 95.56 56.42"/><polygon class="cls-34" points="95.41 56.16 95.25 55.9 122.77 40.02 122.77 40.36 95.41 56.16"/><polygon class="cls-35" points="95.25 55.9 95.11 55.64 122.77 39.67 122.77 40.02 95.25 55.9"/><polygon class="cls-36" points="95.11 55.64 94.96 55.38 122.77 39.33 122.77 39.67 95.11 55.64"/><polygon class="cls-37" points="94.96 55.38 94.94 55.36 94.94 55.05 122.77 38.98 122.77 39.33 94.96 55.38"/><polygon class="cls-38" points="94.94 54.7 122.77 38.63 122.77 38.98 94.94 55.05 94.94 54.7"/><polygon class="cls-39" points="94.94 54.35 122.77 38.29 122.77 38.63 94.94 54.7 94.94 54.35"/><polygon class="cls-40" points="94.94 54.01 122.77 37.94 122.77 38.29 94.94 54.35 94.94 54.01"/><polygon class="cls-41" points="94.94 53.66 122.77 37.6 122.77 37.94 94.94 54.01 94.94 53.66"/><polygon class="cls-42" points="94.94 53.32 122.77 37.25 122.77 37.6 94.94 53.66 94.94 53.32"/><polygon class="cls-43" points="94.94 52.97 122.77 36.91 122.77 37.25 94.94 53.32 94.94 52.97"/><polygon class="cls-44" points="94.94 52.63 122.77 36.56 122.77 36.91 94.94 52.97 94.94 52.63"/><polygon class="cls-45" points="94.94 52.28 122.77 36.22 122.77 36.56 94.94 52.63 94.94 52.28"/><polygon class="cls-46" points="94.94 51.94 122.77 35.87 122.77 36.22 94.94 52.28 94.94 51.94"/><polygon class="cls-47" points="94.94 51.59 122.77 35.52 122.77 35.87 94.94 51.94 94.94 51.59"/><polygon class="cls-48" points="94.94 51.24 122.77 35.18 122.77 35.52 94.94 51.59 94.94 51.24"/><polygon class="cls-49" points="94.94 50.9 122.77 34.83 122.77 35.18 94.94 51.24 94.94 50.9"/><polygon class="cls-50" points="94.94 50.55 122.77 34.49 122.77 34.83 94.94 50.9 94.94 50.55"/><polygon class="cls-51" points="94.94 50.21 122.77 34.14 122.77 34.49 94.94 50.55 94.94 50.21"/><polygon class="cls-52" points="94.94 49.86 122.77 33.8 122.77 34.14 94.94 50.21 94.94 49.86"/><polygon class="cls-53" points="94.94 49.52 122.77 33.45 122.77 33.8 94.94 49.86 94.94 49.52"/><polygon class="cls-54" points="94.94 49.17 122.77 33.11 122.77 33.45 94.94 49.52 94.94 49.17"/><polygon class="cls-55" points="94.94 48.83 122.77 32.76 122.77 33.11 94.94 49.17 94.94 48.83"/><polygon class="cls-56" points="94.94 48.48 122.77 32.41 122.77 32.76 94.94 48.83 94.94 48.48"/><polygon class="cls-57" points="94.94 48.13 122.77 32.07 122.77 32.41 94.94 48.48 94.94 48.13"/><polygon class="cls-58" points="94.94 47.79 122.77 31.72 122.77 32.07 94.94 48.13 94.94 47.79"/><polygon class="cls-59" points="94.94 47.44 122.77 31.38 122.77 31.72 94.94 47.79 94.94 47.44"/><polygon class="cls-60" points="94.94 47.1 122.77 31.03 122.77 31.38 94.94 47.44 94.94 47.1"/><polygon class="cls-61" points="94.94 46.75 122.77 30.69 122.77 31.03 94.94 47.1 94.94 46.75"/><polygon class="cls-62" points="94.94 46.41 122.77 30.34 122.77 30.69 94.94 46.75 94.94 46.41"/><polygon class="cls-63" points="94.94 46.06 122.75 30 122.77 30.03 122.77 30.34 94.94 46.41 94.94 46.06"/><polygon class="cls-64" points="94.94 45.72 122.61 29.75 122.75 30 94.94 46.06 94.94 45.72"/><polygon class="cls-65" points="94.94 45.37 122.45 29.49 122.61 29.75 94.94 45.72 94.94 45.37"/><polygon class="cls-66" points="94.94 45.02 122.31 29.23 122.45 29.49 94.94 45.37 94.94 45.02"/><polygon class="cls-67" points="94.94 44.68 122.16 28.97 122.31 29.23 94.94 45.02 94.94 44.68"/><polygon class="cls-68" points="94.94 44.33 121.88 28.78 122.05 28.78 122.16 28.97 94.94 44.68 94.94 44.33"/><polygon class="cls-69" points="94.94 43.99 121.28 28.78 121.88 28.78 94.94 44.33 94.94 43.99"/><polygon class="cls-70" points="94.94 43.64 120.68 28.78 121.28 28.78 94.94 43.99 94.94 43.64"/><polygon class="cls-71" points="94.94 43.3 120.08 28.78 120.68 28.78 94.94 43.64 94.94 43.3"/><polygon class="cls-72" points="94.94 42.95 119.49 28.78 120.08 28.78 94.94 43.3 94.94 42.95"/><polygon class="cls-73" points="94.94 42.61 118.89 28.78 119.49 28.78 94.94 42.95 94.94 42.61"/><polygon class="cls-74" points="94.94 42.26 118.29 28.78 118.89 28.78 94.94 42.61 94.94 42.26"/><polygon class="cls-75" points="94.94 41.91 117.69 28.78 118.29 28.78 94.94 42.26 94.94 41.91"/><polygon class="cls-76" points="94.94 41.57 117.09 28.78 117.69 28.78 94.94 41.91 94.94 41.57"/><polygon class="cls-77" points="94.94 41.22 116.49 28.78 117.09 28.78 94.94 41.57 94.94 41.22"/><polygon class="cls-78" points="94.94 40.88 115.89 28.78 116.49 28.78 94.94 41.22 94.94 40.88"/><polygon class="cls-79" points="94.94 40.53 115.3 28.78 115.89 28.78 94.94 40.88 94.94 40.53"/><polygon class="cls-80" points="94.94 40.19 114.7 28.78 115.3 28.78 94.94 40.53 94.94 40.19"/><polygon class="cls-81" points="94.94 39.84 114.1 28.78 114.7 28.78 94.94 40.19 94.94 39.84"/><polygon class="cls-82" points="94.94 39.5 113.5 28.78 114.1 28.78 94.94 39.84 94.94 39.5"/><polygon class="cls-83" points="94.94 39.15 112.9 28.78 113.5 28.78 94.94 39.5 94.94 39.15"/><polygon class="cls-84" points="94.94 38.8 112.3 28.78 112.9 28.78 94.94 39.15 94.94 38.8"/><polygon class="cls-85" points="94.94 38.46 111.71 28.78 112.3 28.78 94.94 38.8 94.94 38.46"/><polygon class="cls-86" points="94.94 38.11 111.11 28.78 111.71 28.78 94.94 38.46 94.94 38.11"/><polygon class="cls-87" points="94.94 37.77 110.51 28.78 111.11 28.78 94.94 38.11 94.94 37.77"/><polygon class="cls-88" points="94.94 37.42 109.91 28.78 110.51 28.78 94.94 37.77 94.94 37.42"/><polygon class="cls-89" points="94.94 37.08 109.31 28.78 109.91 28.78 94.94 37.42 94.94 37.08"/><polygon class="cls-90" points="94.94 36.73 108.71 28.78 109.31 28.78 94.94 37.08 94.94 36.73"/><polygon class="cls-91" points="94.94 36.39 108.11 28.78 108.71 28.78 94.94 36.73 94.94 36.39"/><polygon class="cls-92" points="94.94 36.04 107.52 28.78 108.11 28.78 94.94 36.39 94.94 36.04"/><polygon class="cls-93" points="94.94 35.7 106.92 28.78 107.52 28.78 94.94 36.04 94.94 35.7"/><polygon class="cls-94" points="94.94 35.35 106.32 28.78 106.92 28.78 94.94 35.7 94.94 35.35"/><polygon class="cls-95" points="94.94 35 105.72 28.78 106.32 28.78 94.94 35.35 94.94 35"/><polygon class="cls-96" points="94.94 34.66 105.12 28.78 105.72 28.78 94.94 35 94.94 34.66"/><polygon class="cls-96" points="105.12 28.78 94.94 34.66 94.94 28.78 105.12 28.78"/></g></g></g></g></svg>