<svg xmlns="http://www.w3.org/2000/svg" xmlns:xlink="http://www.w3.org/1999/xlink" viewBox="0 0 85.15 150"><defs><style>.cls-1{fill:#90bdcf;}.cls-2{fill:url(#未命名的渐变_322);}.cls-3{fill:url(#未命名的渐变_322-2);}.cls-4{fill:url(#未命名的渐变_323);}</style><linearGradient id="未命名的渐变_322" x1="-208.17" y1="-56.91" x2="-208.17" y2="-142.06" gradientTransform="translate(-56.91 218.32) rotate(90)" gradientUnits="userSpaceOnUse"><stop offset="0.2" stop-color="#90bdcf"/><stop offset="1" stop-color="#e6f0f7"/></linearGradient><linearGradient id="未命名的渐变_322-2" x1="-177.63" y1="-56.91" x2="-177.63" y2="-142.06" xlink:href="#未命名的渐变_322"/><linearGradient id="未命名的渐变_323" x1="-147.1" y1="-56.91" x2="-147.1" y2="-109.64" gradientTransform="translate(-56.91 218.32) rotate(90)" gradientUnits="userSpaceOnUse"><stop offset="0.3" stop-color="#90bdcf"/><stop offset="1" stop-color="#e6f0f7"/></linearGradient></defs><title>Fresh Breeze（5级风）</title><g id="图层_2" data-name="图层 2"><g id="图层_21" data-name="图层 21"><g id="Fresh_Breeze_5级风_" data-name="Fresh Breeze（5级风）"><path class="cls-1" d="M10.16,150A10.16,10.16,0,0,1,0,139.84V10.16a10.16,10.16,0,1,1,20.31,0V139.84A10.16,10.16,0,0,1,10.16,150Z"/><path class="cls-2" d="M75,20.31H10.16A10.16,10.16,0,1,1,10.16,0H75a10.16,10.16,0,0,1,0,20.31Z"/><path class="cls-3" d="M75,50.85H10.16a10.16,10.16,0,1,1,0-20.31H75a10.16,10.16,0,0,1,0,20.31Z"/><path class="cls-4" d="M42.58,81.38H10.16a10.16,10.16,0,1,1,0-20.31H42.58a10.16,10.16,0,0,1,0,20.31Z"/></g></g></g></svg>