<svg xmlns="http://www.w3.org/2000/svg" xmlns:xlink="http://www.w3.org/1999/xlink" viewBox="0 0 150 122.32"><defs><style>.cls-1{fill:url(#未命名的渐变_214);}.cls-2{fill:url(#未命名的渐变_376);}</style><linearGradient id="未命名的渐变_214" y1="75.29" x2="150" y2="75.29" gradientUnits="userSpaceOnUse"><stop offset="0" stop-color="#87acb2"/><stop offset="1" stop-color="#e4f3f5"/></linearGradient><linearGradient id="未命名的渐变_376" x1="98.86" y1="83.5" x2="51.09" y2="0.75" xlink:href="#未命名的渐变_214"/></defs><title>Frost(霜冻)</title><g id="图层_2" data-name="图层 2"><g id="图层_21" data-name="图层 21"><g id="Frost_霜冻_" data-name="Frost(霜冻)"><path class="cls-1" d="M140.9,122.32H9.1a9.1,9.1,0,0,1-9.1-9.1V37.37a9.1,9.1,0,0,1,18.2,0v66.75H131.8V37.37a9.1,9.1,0,1,1,18.2,0v75.85A9.1,9.1,0,0,1,140.9,122.32Z"/><path class="cls-2" d="M106.59,54.46,120,47a5.42,5.42,0,0,0,.05-9.45L106.61,29.9a2.69,2.69,0,0,0-2.65,0L96.46,34a2.71,2.71,0,0,1-3.66-1l-1-1.72a2.71,2.71,0,0,1,.93-3.66l7.35-4.52a2.74,2.74,0,0,0,1.3-2.27l.24-15.33A5.42,5.42,0,0,0,93.46.75L80.13,8.55a2.69,2.69,0,0,0-1.34,2.29l-.16,8.58a2.71,2.71,0,0,1-2.71,2.67h-2a2.72,2.72,0,0,1-2.72-2.64L71,11a2.72,2.72,0,0,0-1.32-2.25L56.52.84a5.42,5.42,0,0,0-8.21,4.69L48.4,21a2.7,2.7,0,0,0,1.31,2.3L57,27.66a2.72,2.72,0,0,1,.95,3.68l-.88,1.51a2.7,2.7,0,0,1-3.69,1l-6.92-4a2.74,2.74,0,0,0-2.66,0L30,37.52a5.42,5.42,0,0,0,0,9.51l13.76,7.44a2.72,2.72,0,0,0,2.61,0l7-3.9a2.71,2.71,0,0,1,3.67,1l.8,1.37a2.72,2.72,0,0,1-1,3.7l-6.87,4A2.7,2.7,0,0,0,48.71,63l-.28,15.74a5.42,5.42,0,0,0,8.26,4.72L70,75.22A2.72,2.72,0,0,0,71.3,73l.13-8a2.71,2.71,0,0,1,2.71-2.67h1.58A2.72,2.72,0,0,1,78.44,65l0,8.1a2.7,2.7,0,0,0,1.31,2.31l13.49,8.11a5.42,5.42,0,0,0,8.22-4.8l-.43-15.61a2.7,2.7,0,0,0-1.32-2.25l-7-4.17a2.71,2.71,0,0,1-1-3.68l.91-1.58a2.71,2.71,0,0,1,3.64-1l7.58,4.1A2.72,2.72,0,0,0,106.59,54.46ZM81.37,49.31c-7.58,5.47-15.81.16-15.81-7.07a9.33,9.33,0,0,1,9.32-9.33c7.2,0,12.5,8.17,7.13,15.75A2.82,2.82,0,0,1,81.37,49.31Z"/></g></g></g></svg>