<svg xmlns="http://www.w3.org/2000/svg" xmlns:xlink="http://www.w3.org/1999/xlink" viewBox="0 0 96.77 150"><defs><style>.cls-1{fill:url(#未命名的渐变_304);}.cls-2{fill:url(#未命名的渐变_401);}.cls-3{fill:url(#未命名的渐变_399);}.cls-4{fill:url(#未命名的渐变_402);}</style><linearGradient id="未命名的渐变_304" x1="46.48" y1="76.1" x2="13.41" y2="18.82" gradientUnits="userSpaceOnUse"><stop offset="0" stop-color="#d3e7eb"/><stop offset="1" stop-color="#e9f8fa"/></linearGradient><linearGradient id="未命名的渐变_401" x1="13.41" y1="131.18" x2="46.48" y2="73.9" gradientUnits="userSpaceOnUse"><stop offset="0" stop-color="#dae9eb"/><stop offset="0.8" stop-color="#9bc5cc"/></linearGradient><linearGradient id="未命名的渐变_399" x1="50.29" y1="76.1" x2="83.36" y2="18.82" gradientUnits="userSpaceOnUse"><stop offset="0" stop-color="#c5d8db"/><stop offset="1" stop-color="#e9f8fa"/></linearGradient><linearGradient id="未命名的渐变_402" x1="50.29" y1="73.9" x2="83.36" y2="131.18" gradientUnits="userSpaceOnUse"><stop offset="0.2" stop-color="#87acb2"/><stop offset="1" stop-color="#dae9eb"/></linearGradient></defs><title>Hail（冰雹）</title><g id="图层_2" data-name="图层 2"><g id="图层_21" data-name="图层 21"><g id="Hail_冰雹_" data-name="Hail（冰雹）"><path class="cls-1" d="M48.39,0V75H0L40.75,4.4A8.75,8.75,0,0,1,48.39,0Z"/><path class="cls-2" d="M48.39,75v75a8.75,8.75,0,0,1-7.64-4.4L0,75Z"/><path class="cls-3" d="M96.77,75H48.39V0A8.75,8.75,0,0,1,56,4.4Z"/><path class="cls-4" d="M96.77,75,56,145.6a8.75,8.75,0,0,1-7.63,4.4V75Z"/></g></g></g></svg>