<svg xmlns="http://www.w3.org/2000/svg" xmlns:xlink="http://www.w3.org/1999/xlink" viewBox="0 0 150 139.46"><defs><style>.cls-1{fill:url(#未命名的渐变_216);}.cls-2{fill:url(#未命名的渐变_215);}.cls-3{fill:url(#未命名的渐变_152);}.cls-4{fill:url(#未命名的渐变_214);}.cls-5{fill:url(#未命名的渐变_214-2);}.cls-6{fill:url(#未命名的渐变_214-3);}.cls-7{fill:url(#未命名的渐变_214-4);}</style><linearGradient id="未命名的渐变_216" x1="57.63" y1="125.98" x2="112.79" y2="30.45" gradientUnits="userSpaceOnUse"><stop offset="0.4" stop-color="#87acb2"/><stop offset="1" stop-color="#e4f3f5"/></linearGradient><linearGradient id="未命名的渐变_215" x1="37.43" y1="112.88" x2="98.46" y2="7.18" gradientUnits="userSpaceOnUse"><stop offset="0.3" stop-color="#87acb2"/><stop offset="1" stop-color="#e4f3f5"/></linearGradient><linearGradient id="未命名的渐变_152" x1="81.66" y1="81.83" x2="34.47" y2="34.64" gradientUnits="userSpaceOnUse"><stop offset="0.5" stop-color="#bddcff" stop-opacity="0"/><stop offset="0.57" stop-color="#bfdbf8" stop-opacity="0.02"/><stop offset="0.66" stop-color="#c5d7e2" stop-opacity="0.07"/><stop offset="0.74" stop-color="#ced0be" stop-opacity="0.16"/><stop offset="0.83" stop-color="#dcc78b" stop-opacity="0.28"/><stop offset="0.92" stop-color="#edbb4a" stop-opacity="0.43"/><stop offset="1" stop-color="#ffaf06" stop-opacity="0.6"/></linearGradient><linearGradient id="未命名的渐变_214" x1="61.71" y1="110.96" x2="20.56" y2="39.7" gradientUnits="userSpaceOnUse"><stop offset="0" stop-color="#87acb2"/><stop offset="1" stop-color="#e4f3f5"/></linearGradient><linearGradient id="未命名的渐变_214-2" x1="79.12" y1="139.27" x2="70.91" y2="125.05" xlink:href="#未命名的渐变_214"/><linearGradient id="未命名的渐变_214-3" x1="105.77" y1="139.27" x2="97.56" y2="125.05" xlink:href="#未命名的渐变_214"/><linearGradient id="未命名的渐变_214-4" x1="52.48" y1="139.27" x2="44.27" y2="125.05" xlink:href="#未命名的渐变_214"/></defs><title>Heavy snow（大雪）</title><g id="图层_2" data-name="图层 2"><g id="图层_21" data-name="图层 21"><g id="Heavy_snow_大雪_" data-name="Heavy snow（大雪）"><path class="cls-1" d="M107.79,34.19H41.18a.1.1,0,0,0-.09.1v82.08a.1.1,0,0,0,.09.1h67.68A41.15,41.15,0,0,0,150,73.92C149.23,51.58,130.14,34.19,107.79,34.19Z"/><path class="cls-2" d="M116.14,41.14a41.14,41.14,0,0,0-81.79-6.38,41.93,41.93,0,0,0-.49,6.38A41.14,41.14,0,0,0,81.77,81.72,41.15,41.15,0,0,1,43.52,116.4c1,0,2,.06,3,.06a69.62,69.62,0,0,0,69.64-69.62c0-1.06,0-2.13-.08-3.18C116.11,42.83,116.14,42,116.14,41.14Z"/><path class="cls-3" d="M82.27,75.32a40.85,40.85,0,0,1-.5,6.4A41.14,41.14,0,0,1,33.86,41.14a41.93,41.93,0,0,1,.49-6.38,39.94,39.94,0,0,1,6.78-.56A41.13,41.13,0,0,1,82.27,75.32Z"/><circle class="cls-4" cx="41.14" cy="75.33" r="41.14"/><path class="cls-5" d="M81.11,134.16l1.45-.81a1.33,1.33,0,0,0,0-2.32l-1.45-.82a1.33,1.33,0,0,0-1.31,0l-1.35.75-.65-1.14,1.33-.82a1.36,1.36,0,0,0,.63-1.11l0-1.66a1.34,1.34,0,0,0-2-1.17l-1.44.84a1.35,1.35,0,0,0-.66,1.13l0,1.55H74.36l0-1.54a1.34,1.34,0,0,0-.64-1.11l-1.43-.85a1.33,1.33,0,0,0-2,1.15v1.67a1.32,1.32,0,0,0,.64,1.13l1.31.79-.64,1.11-1.25-.71a1.33,1.33,0,0,0-1.31,0L67.5,131a1.33,1.33,0,0,0,0,2.34l1.49.81a1.35,1.35,0,0,0,1.28,0l1.27-.71.63,1.08-1.24.73a1.3,1.3,0,0,0-.66,1.13l0,1.7a1.33,1.33,0,0,0,2,1.16l1.44-.89a1.31,1.31,0,0,0,.63-1.11l0-1.46h1.25v1.47a1.35,1.35,0,0,0,.65,1.13l1.46.88a1.34,1.34,0,0,0,2-1.18l0-1.69a1.34,1.34,0,0,0-.65-1.11l-1.26-.76.64-1.1,1.37.74A1.37,1.37,0,0,0,81.11,134.16ZM75,133.87a1.68,1.68,0,1,1,1.68-1.68A1.68,1.68,0,0,1,75,133.87Z"/><path class="cls-6" d="M107.75,134.16l1.45-.81a1.33,1.33,0,0,0,0-2.32l-1.45-.82a1.31,1.31,0,0,0-1.3,0l-1.36.75-.65-1.14,1.33-.82a1.34,1.34,0,0,0,.64-1.11l0-1.66a1.33,1.33,0,0,0-2-1.17l-1.44.84a1.35,1.35,0,0,0-.66,1.13l0,1.55H101l0-1.54a1.35,1.35,0,0,0-.65-1.11l-1.42-.85a1.33,1.33,0,0,0-2,1.15v1.67a1.33,1.33,0,0,0,.65,1.13l1.31.79-.64,1.11L97,130.21a1.33,1.33,0,0,0-1.31,0l-1.49.82a1.33,1.33,0,0,0,0,2.34l1.49.81a1.35,1.35,0,0,0,1.28,0l1.28-.71.62,1.08-1.24.73a1.35,1.35,0,0,0-.66,1.13l0,1.7a1.33,1.33,0,0,0,2,1.16l1.44-.89a1.34,1.34,0,0,0,.64-1.11l0-1.46h1.25v1.47a1.34,1.34,0,0,0,.64,1.13l1.46.88a1.33,1.33,0,0,0,2-1.18l0-1.69a1.36,1.36,0,0,0-.65-1.11l-1.26-.76.64-1.1,1.37.74A1.35,1.35,0,0,0,107.75,134.16Zm-6.11-.29a1.68,1.68,0,1,1,1.68-1.68A1.68,1.68,0,0,1,101.64,133.87Z"/><path class="cls-7" d="M54.46,134.16l1.45-.81a1.33,1.33,0,0,0,0-2.32l-1.45-.82a1.31,1.31,0,0,0-1.3,0l-1.35.75-.66-1.14,1.33-.82a1.34,1.34,0,0,0,.64-1.11l0-1.66a1.33,1.33,0,0,0-2-1.17l-1.44.84a1.35,1.35,0,0,0-.66,1.13l0,1.55H47.71l0-1.54a1.35,1.35,0,0,0-.65-1.11l-1.42-.85a1.34,1.34,0,0,0-2,1.15v1.67a1.33,1.33,0,0,0,.65,1.13l1.31.79-.64,1.11-1.25-.71a1.33,1.33,0,0,0-1.31,0l-1.49.82a1.34,1.34,0,0,0,0,2.34l1.49.81a1.35,1.35,0,0,0,1.28,0l1.28-.71.62,1.08-1.24.73a1.35,1.35,0,0,0-.66,1.13l0,1.7a1.33,1.33,0,0,0,2,1.16l1.44-.89a1.34,1.34,0,0,0,.64-1.11l0-1.46H49v1.47a1.33,1.33,0,0,0,.65,1.13l1.45.88a1.33,1.33,0,0,0,2-1.18l0-1.69a1.36,1.36,0,0,0-.65-1.11l-1.26-.76.64-1.1,1.37.74A1.35,1.35,0,0,0,54.46,134.16Zm-6.11-.29A1.68,1.68,0,1,1,50,132.19,1.68,1.68,0,0,1,48.35,133.87Z"/></g></g></g></svg>