<svg xmlns="http://www.w3.org/2000/svg" xmlns:xlink="http://www.w3.org/1999/xlink" viewBox="0 0 136.98 150"><defs><style>.cls-1{fill:url(#未命名的渐变_24);}.cls-2{fill:url(#未命名的渐变_13);}.cls-3{fill:url(#未命名的渐变_174);}.cls-4{fill:url(#未命名的渐变_393);}.cls-5{fill:url(#未命名的渐变_393-2);}</style><linearGradient id="未命名的渐变_24" x1="116.92" y1="116.92" x2="20.06" y2="20.06" gradientUnits="userSpaceOnUse"><stop offset="0" stop-color="#ffa620"/><stop offset="1" stop-color="#ffb100"/></linearGradient><linearGradient id="未命名的渐变_13" x1="104.24" y1="104.29" x2="32.74" y2="32.78" gradientUnits="userSpaceOnUse"><stop offset="0" stop-color="#ffb820"/><stop offset="1" stop-color="#ffe600"/></linearGradient><linearGradient id="未命名的渐变_174" x1="112.02" y1="150" x2="112.02" y2="68.49" gradientUnits="userSpaceOnUse"><stop offset="0" stop-color="#e1e3e6"/><stop offset="1" stop-color="#f0f2f5"/></linearGradient><linearGradient id="未命名的渐变_393" x1="112.02" y1="134" x2="112.02" y2="75.32" gradientUnits="userSpaceOnUse"><stop offset="0" stop-color="#e64545"/><stop offset="1" stop-color="#e6b8b8"/></linearGradient><linearGradient id="未命名的渐变_393-2" x1="112.02" y1="145.27" x2="112.02" y2="132.15" xlink:href="#未命名的渐变_393"/></defs><title>Hot（高温）</title><g id="图层_2" data-name="图层 2"><g id="图层_21" data-name="图层 21"><g id="Hot_高温_" data-name="Hot（高温）"><path class="cls-1" d="M71.71,8,66,2.26A7.72,7.72,0,0,0,53.8,3.86l-4.07,7.05A7.72,7.72,0,0,1,41,14.51L33.18,12.4a7.73,7.73,0,0,0-9.72,7.47V28a7.73,7.73,0,0,1-5.73,7.46l-7.86,2.1A7.73,7.73,0,0,0,5.18,48.9L9.25,56A7.72,7.72,0,0,1,8,65.27L2.26,71a7.72,7.72,0,0,0,1.6,12.15l7.05,4.07a7.72,7.72,0,0,1,3.6,8.69L12.4,103.8a7.74,7.74,0,0,0,7.47,9.73H28a7.72,7.72,0,0,1,7.46,5.72l2.1,7.86A7.73,7.73,0,0,0,48.9,131.8L56,127.73A7.73,7.73,0,0,1,65.27,129L71,134.72a7.72,7.72,0,0,0,12.15-1.6l4.07-7.05a7.72,7.72,0,0,1,8.69-3.6l7.86,2.11a7.74,7.74,0,0,0,9.73-7.47V109a7.72,7.72,0,0,1,5.72-7.46l7.86-2.1a7.73,7.73,0,0,0,4.69-11.33l-4.07-7A7.73,7.73,0,0,1,129,71.71L134.72,66a7.72,7.72,0,0,0-1.6-12.15l-7.05-4.07a7.72,7.72,0,0,1-3.6-8.69l2.11-7.86a7.73,7.73,0,0,0-7.47-9.72H109a7.73,7.73,0,0,1-7.46-5.73l-2.1-7.86A7.73,7.73,0,0,0,88.08,5.18L81,9.25A7.72,7.72,0,0,1,71.71,8Z"/><circle class="cls-2" cx="68.49" cy="68.53" r="50.56"/><path class="cls-3" d="M112,150a11.28,11.28,0,0,1-8.14-19.1V76.63a8.14,8.14,0,0,1,16.28,0v54.28A11.27,11.27,0,0,1,112,150Z"/><path class="cls-4" d="M112,134a.73.73,0,0,1-.73-.73V76.05a.73.73,0,1,1,1.46,0v57.22A.73.73,0,0,1,112,134Z"/><circle class="cls-5" cx="112.02" cy="138.71" r="6.56"/></g></g></g></svg>