<svg xmlns="http://www.w3.org/2000/svg" xmlns:xlink="http://www.w3.org/1999/xlink" viewBox="0 0 109.63 150"><defs><style>.cls-1{fill:#90bdcf;}.cls-2{fill:url(#未命名的渐变_322);}.cls-3{fill:url(#未命名的渐变_322-2);}.cls-4{fill:url(#未命名的渐变_326);}.cls-5{fill:url(#未命名的渐变_326-2);}</style><linearGradient id="未命名的渐变_322" x1="7.34" y1="-247.94" x2="7.34" y2="-333.1" gradientTransform="translate(-247.94 2.82) rotate(90)" gradientUnits="userSpaceOnUse"><stop offset="0.2" stop-color="#90bdcf"/><stop offset="1" stop-color="#e6f0f7"/></linearGradient><linearGradient id="未命名的渐变_322-2" x1="39.76" y1="-247.94" x2="39.76" y2="-333.1" xlink:href="#未命名的渐变_322"/><linearGradient id="未命名的渐变_326" x1="27.91" y1="138.75" x2="60.29" y2="82.66" gradientUnits="userSpaceOnUse"><stop offset="0" stop-color="#90bdcf"/><stop offset="1" stop-color="#e6f0f7"/></linearGradient><linearGradient id="未命名的渐变_326-2" x1="70.09" y1="148.1" x2="108.01" y2="82.42" xlink:href="#未命名的渐变_326"/></defs><title>Hurricane（12级风）</title><g id="图层_2" data-name="图层 2"><g id="图层_21" data-name="图层 21"><g id="Hurricane_12级风_" data-name="Hurricane（12级风）"><path class="cls-1" d="M10.16,150A10.16,10.16,0,0,1,0,139.84V10.16a10.16,10.16,0,1,1,20.31,0V139.84A10.16,10.16,0,0,1,10.16,150Z"/><path class="cls-2" d="M75,20.31H10.16A10.16,10.16,0,1,1,10.16,0H75a10.16,10.16,0,1,1,0,20.31Z"/><path class="cls-3" d="M10.16,85.16A10.16,10.16,0,0,1,3,67.82L67.82,3A10.16,10.16,0,0,1,82.18,17.34L17.34,82.18A10.17,10.17,0,0,1,10.16,85.16Z"/><path class="cls-4" d="M53.67,144.18q0,4-6.4,4c-4.26,0-6.4-1.32-6.4-4V89.35h-5a2.79,2.79,0,0,1-2.64-1.22c-.48-.82-.71-2.51-.71-5.08s.32-4.13,1-5.08a3.36,3.36,0,0,1,3-1.42H46.66q7,0,7,5.28Z"/><path class="cls-5" d="M109.63,141.24c0,3.93-1.16,5.89-3.46,5.89H69c-1.08,0-2-.8-2.89-2.39A10.42,10.42,0,0,1,65,139.11a16.75,16.75,0,0,1,.56-3.3,9.66,9.66,0,0,1,1.58-3.2,19.28,19.28,0,0,1,3-3q2.39-2.09,5.54-4.87c2.09-1.87,4.31-4,6.65-6.3a72.79,72.79,0,0,0,6.4-7.31,46.81,46.81,0,0,0,4.82-7.77,18,18,0,0,0,1.93-7.92,8.66,8.66,0,0,0-2.13-6.09A7.32,7.32,0,0,0,87.69,87a7,7,0,0,0-5.94,2.64c-1.32,1.76-2,4.26-2,7.52,0,2.16-.46,3.7-1.37,4.62s-2.53,1.37-4.83,1.37q-4.16,0-5.58-1.22c-.95-.82-1.42-2.4-1.42-4.77q0-10.15,5.48-16t16.86-5.89q9.54,0,14.72,5.38t5.18,14.22a22,22,0,0,1-1.22,7.16,41.41,41.41,0,0,1-3.19,7.11,58.53,58.53,0,0,1-4.52,6.8c-1.7,2.2-3.42,4.28-5.18,6.25q-3.15,3.45-6.65,6.75t-7.37,6.45h25.49C108.47,135.35,109.63,137.31,109.63,141.24Z"/></g></g></g></svg>