<svg xmlns="http://www.w3.org/2000/svg" xmlns:xlink="http://www.w3.org/1999/xlink" viewBox="0 0 108.61 150"><defs><style>.cls-1{fill:#90bdcf;}.cls-2{fill:url(#未命名的渐变_322);}.cls-3{fill:url(#未命名的渐变_322-2);}.cls-4{fill:url(#未命名的渐变_328);}.cls-5{fill:url(#未命名的渐变_328-2);}</style><linearGradient id="未命名的渐变_322" x1="-593.17" y1="-848.45" x2="-593.17" y2="-933.61" gradientTransform="translate(-848.45 603.33) rotate(90)" gradientUnits="userSpaceOnUse"><stop offset="0.2" stop-color="#90bdcf"/><stop offset="1" stop-color="#e6f0f7"/></linearGradient><linearGradient id="未命名的渐变_322-2" x1="-560.75" y1="-848.45" x2="-560.75" y2="-933.61" xlink:href="#未命名的渐变_322"/><linearGradient id="未命名的渐变_328" x1="27.91" y1="138.75" x2="60.29" y2="82.66" gradientUnits="userSpaceOnUse"><stop offset="0" stop-color="#90bdcf"/><stop offset="1" stop-color="#e6f0f7"/></linearGradient><linearGradient id="未命名的渐变_328-2" x1="68.38" y1="142.98" x2="106.09" y2="77.66" xlink:href="#未命名的渐变_328"/></defs><title>Hurricane（15级风）</title><g id="图层_2" data-name="图层 2"><g id="图层_21" data-name="图层 21"><g id="Hurricane_15级风_" data-name="Hurricane（15级风）"><path class="cls-1" d="M10.16,150A10.16,10.16,0,0,1,0,139.84V10.16a10.16,10.16,0,1,1,20.31,0V139.84A10.16,10.16,0,0,1,10.16,150Z"/><path class="cls-2" d="M75,20.31H10.16A10.16,10.16,0,1,1,10.16,0H75a10.16,10.16,0,1,1,0,20.31Z"/><path class="cls-3" d="M10.16,85.16A10.16,10.16,0,0,1,3,67.82L67.82,3A10.16,10.16,0,0,1,82.18,17.34L17.34,82.18A10.15,10.15,0,0,1,10.16,85.16Z"/><path class="cls-4" d="M53.67,144.18q0,4-6.4,4t-6.4-4V89.35h-5a2.79,2.79,0,0,1-2.64-1.22c-.48-.82-.72-2.51-.72-5.08s.33-4.13,1-5.08a3.36,3.36,0,0,1,3-1.42H46.66q7,0,7,5.28Z"/><path class="cls-5" d="M80.17,101.43c.82-.14,1.58-.24,2.29-.31s1.91-.1,3.6-.1a25.62,25.62,0,0,1,9.35,1.63,19.79,19.79,0,0,1,7.11,4.67,20.88,20.88,0,0,1,4.52,7.31,27.68,27.68,0,0,1,1.57,9.55,23.93,23.93,0,0,1-1.78,9.14,24.41,24.41,0,0,1-5,7.72,23.66,23.66,0,0,1-7.57,5.28,22.3,22.3,0,0,1-9.55,1.82,26.28,26.28,0,0,1-10.36-1.82,22.14,22.14,0,0,1-8.12-6.5,5.85,5.85,0,0,1-2-3.91q-.15-2.19,2.18-5.44A4,4,0,0,1,68.9,129c1.08-.23,2.2.26,3.35,1.47a18.71,18.71,0,0,0,5.89,4.27,14.67,14.67,0,0,0,6.1,1.62,9.67,9.67,0,0,0,4.87-1.21,12.56,12.56,0,0,0,3.61-3.1A14.17,14.17,0,0,0,95,128a12.73,12.73,0,0,0,.76-4.22c0-3.45-.9-6.18-2.69-8.17s-4.55-3-8.28-3c-1.62,0-3,0-4.21.1a27.34,27.34,0,0,0-3.2.36,12.3,12.3,0,0,0-2.54.71A13.24,13.24,0,0,0,72.46,115a3.49,3.49,0,0,1-1.93.61,3.22,3.22,0,0,1-1.88-.61,3.76,3.76,0,0,1-1.32-1.83,5.91,5.91,0,0,1-.16-3L71.34,82a9.09,9.09,0,0,1,1.57-4.21c.71-.85,2-1.27,4-1.27h26.51q3.15,0,3.15,5.89t-3.15,5.89H82.1Z"/></g></g></g></svg>