<svg xmlns="http://www.w3.org/2000/svg" xmlns:xlink="http://www.w3.org/1999/xlink" viewBox="0 0 106.69 150"><defs><style>.cls-1{fill:#90bdcf;}.cls-2{fill:url(#未命名的渐变_322);}.cls-3{fill:url(#未命名的渐变_322-2);}.cls-4{fill:url(#未命名的渐变_328);}.cls-5{fill:url(#未命名的渐变_328-2);}</style><linearGradient id="未命名的渐变_322" x1="-994.13" y1="-1249.41" x2="-994.13" y2="-1334.57" gradientTransform="translate(-1249.41 1004.29) rotate(90)" gradientUnits="userSpaceOnUse"><stop offset="0.2" stop-color="#90bdcf"/><stop offset="1" stop-color="#e6f0f7"/></linearGradient><linearGradient id="未命名的渐变_322-2" x1="-961.71" y1="-1249.41" x2="-961.71" y2="-1334.57" xlink:href="#未命名的渐变_322"/><linearGradient id="未命名的渐变_328" x1="27.91" y1="138.75" x2="60.29" y2="82.66" gradientUnits="userSpaceOnUse"><stop offset="0" stop-color="#90bdcf"/><stop offset="1" stop-color="#e6f0f7"/></linearGradient><linearGradient id="未命名的渐变_328-2" x1="55.32" y1="139.84" x2="94.83" y2="71.39" xlink:href="#未命名的渐变_328"/></defs><title>Hurricane（17级风）</title><g id="图层_2" data-name="图层 2"><g id="图层_21" data-name="图层 21"><g id="Hurricane_17级风_" data-name="Hurricane（17级风）"><path class="cls-1" d="M10.16,150A10.16,10.16,0,0,1,0,139.84V10.16a10.16,10.16,0,1,1,20.31,0V139.84A10.16,10.16,0,0,1,10.16,150Z"/><path class="cls-2" d="M75,20.31H10.16A10.16,10.16,0,1,1,10.16,0H75a10.16,10.16,0,1,1,0,20.31Z"/><path class="cls-3" d="M10.16,85.16A10.16,10.16,0,0,1,3,67.82L67.82,3A10.16,10.16,0,0,1,82.18,17.34L17.34,82.18A10.15,10.15,0,0,1,10.16,85.16Z"/><path class="cls-4" d="M53.67,144.18q0,4-6.4,4c-4.26,0-6.4-1.32-6.4-4V89.35h-5a2.79,2.79,0,0,1-2.64-1.22c-.48-.82-.71-2.51-.71-5.08s.32-4.13,1-5.08a3.36,3.36,0,0,1,3-1.42H46.66q7,0,7,5.28Z"/><path class="cls-5" d="M79.57,143.88a5.64,5.64,0,0,1-3.1,3.05,16,16,0,0,1-5.64.81,4.77,4.77,0,0,1-3.15-.81,2.81,2.81,0,0,1-1-1.88,5.69,5.69,0,0,1,.25-2.24c.24-.77.46-1.4.66-1.88L92,88.33H66.36q-2.84,0-2.84-5.18A11,11,0,0,1,64.38,78a3.09,3.09,0,0,1,2.9-1.47h34.53c2,0,3.33.51,4.11,1.52a4.47,4.47,0,0,1,.56,4c-.14.48-.39,1.22-.76,2.24s-1,2.47-1.78,4.36-1.87,4.32-3.15,7.27-2.91,6.63-4.87,11.06-4.29,9.69-7,15.74S83.15,135.82,79.57,143.88Z"/></g></g></g></svg>