<svg xmlns="http://www.w3.org/2000/svg" xmlns:xlink="http://www.w3.org/1999/xlink" viewBox="0 0 108.41 150"><defs><style>.cls-1{fill:#90bdcf;}.cls-2{fill:url(#未命名的渐变_322);}.cls-3{fill:url(#未命名的渐变_322-2);}.cls-4{fill:url(#未命名的渐变_328);}.cls-5{fill:url(#未命名的渐变_328-2);}</style><linearGradient id="未命名的渐变_322" x1="-793.27" y1="-1048.55" x2="-793.27" y2="-1133.71" gradientTransform="translate(-1048.55 803.43) rotate(90)" gradientUnits="userSpaceOnUse"><stop offset="0.2" stop-color="#90bdcf"/><stop offset="1" stop-color="#e6f0f7"/></linearGradient><linearGradient id="未命名的渐变_322-2" x1="-760.85" y1="-1048.55" x2="-760.85" y2="-1133.71" xlink:href="#未命名的渐变_322"/><linearGradient id="未命名的渐变_328" x1="27.91" y1="138.75" x2="60.29" y2="82.66" gradientUnits="userSpaceOnUse"><stop offset="0" stop-color="#90bdcf"/><stop offset="1" stop-color="#e6f0f7"/></linearGradient><linearGradient id="未命名的渐变_328-2" x1="72.28" y1="143.88" x2="107.27" y2="83.28" xlink:href="#未命名的渐变_328"/></defs><title>Hurricane（16级风）</title><g id="图层_2" data-name="图层 2"><g id="图层_21" data-name="图层 21"><g id="Hurricane_16级风_" data-name="Hurricane（16级风）"><path class="cls-1" d="M10.16,150A10.16,10.16,0,0,1,0,139.84V10.16a10.16,10.16,0,1,1,20.31,0V139.84A10.16,10.16,0,0,1,10.16,150Z"/><path class="cls-2" d="M75,20.31H10.16A10.16,10.16,0,1,1,10.16,0H75a10.16,10.16,0,1,1,0,20.31Z"/><path class="cls-3" d="M10.16,85.16A10.16,10.16,0,0,1,3,67.82L67.82,3A10.16,10.16,0,0,1,82.18,17.34L17.34,82.18A10.15,10.15,0,0,1,10.16,85.16Z"/><path class="cls-4" d="M53.67,144.18q0,4-6.4,4c-4.26,0-6.4-1.32-6.4-4V89.35h-5a2.79,2.79,0,0,1-2.64-1.22c-.48-.82-.71-2.51-.71-5.08s.32-4.13,1-5.08a3.36,3.36,0,0,1,3-1.42H46.66q7,0,7,5.28Z"/><path class="cls-5" d="M82.71,100.52a6.91,6.91,0,0,1,1.83-.61A9.7,9.7,0,0,1,86,99.8a24,24,0,0,1,9.45,1.78,20.1,20.1,0,0,1,7.06,5,21.58,21.58,0,0,1,4.41,7.67,29.87,29.87,0,0,1,1.53,9.74,26.15,26.15,0,0,1-1.53,8.79,24.13,24.13,0,0,1-4.41,7.72A22.66,22.66,0,0,1,95.36,146a20.78,20.78,0,0,1-9.5,2.13,21.61,21.61,0,0,1-9.49-2,20.19,20.19,0,0,1-6.91-5.33,23.68,23.68,0,0,1-4.26-7.72A28.15,28.15,0,0,1,63.72,124a50.25,50.25,0,0,1,1.12-10.4A64.68,64.68,0,0,1,68,103.05a62.52,62.52,0,0,1,4.92-9.9,55.93,55.93,0,0,1,6.55-8.68,57,57,0,0,1,7.62-7.06q3-2.18,4.67-2.18a5.62,5.62,0,0,1,2.79.71,7.43,7.43,0,0,1,2.19,1.83,5.73,5.73,0,0,1,1.37,3.5,4,4,0,0,1-1.78,3.3A50,50,0,0,0,89,91,41.77,41.77,0,0,0,82.71,100.52Zm3.15,36.25a8.25,8.25,0,0,0,4.32-1.12,10.89,10.89,0,0,0,3.2-2.89,13.56,13.56,0,0,0,2-4.06,16,16,0,0,0,.71-4.73q0-6.18-2.64-9.49a9.08,9.08,0,0,0-7.52-3.3,8.77,8.77,0,0,0-7.41,3.3Q76,117.78,76,124a17,17,0,0,0,.66,4.73,13.14,13.14,0,0,0,1.93,4.06,10.54,10.54,0,0,0,3.1,2.89A7.76,7.76,0,0,0,85.86,136.77Z"/></g></g></g></svg>