<svg xmlns="http://www.w3.org/2000/svg" xmlns:xlink="http://www.w3.org/1999/xlink" viewBox="0 0 112.98 150"><defs><style>.cls-1{fill:#90bdcf;}.cls-2{fill:url(#未命名的渐变_322);}.cls-3{fill:url(#未命名的渐变_322-2);}.cls-4{fill:url(#未命名的渐变_326);}.cls-5{fill:url(#未命名的渐变_326-2);}</style><linearGradient id="未命名的渐变_322" x1="-390.99" y1="-646.27" x2="-390.99" y2="-731.42" gradientTransform="translate(-646.27 401.14) rotate(90)" gradientUnits="userSpaceOnUse"><stop offset="0.2" stop-color="#90bdcf"/><stop offset="1" stop-color="#e6f0f7"/></linearGradient><linearGradient id="未命名的渐变_322-2" x1="-358.56" y1="-646.27" x2="-358.56" y2="-731.42" xlink:href="#未命名的渐变_322"/><linearGradient id="未命名的渐变_326" x1="27.91" y1="138.75" x2="60.29" y2="82.66" gradientUnits="userSpaceOnUse"><stop offset="0" stop-color="#90bdcf"/><stop offset="1" stop-color="#e6f0f7"/></linearGradient><linearGradient id="未命名的渐变_326-2" x1="80.22" y1="141.72" x2="114.68" y2="82.04" xlink:href="#未命名的渐变_326"/></defs><title>Hurricane（14级风）</title><g id="图层_2" data-name="图层 2"><g id="图层_21" data-name="图层 21"><g id="Hurricane_14级风_" data-name="Hurricane（14级风）"><path class="cls-1" d="M10.16,150A10.16,10.16,0,0,1,0,139.84V10.16a10.16,10.16,0,1,1,20.31,0V139.84A10.16,10.16,0,0,1,10.16,150Z"/><path class="cls-2" d="M75,20.31H10.16A10.16,10.16,0,1,1,10.16,0H75a10.16,10.16,0,1,1,0,20.31Z"/><path class="cls-3" d="M10.16,85.16A10.16,10.16,0,0,1,3,67.82L67.82,3A10.16,10.16,0,0,1,82.18,17.34L17.34,82.18A10.15,10.15,0,0,1,10.16,85.16Z"/><path class="cls-4" d="M53.67,144.18q0,4-6.4,4c-4.26,0-6.4-1.32-6.4-4V89.35h-5a2.79,2.79,0,0,1-2.64-1.22c-.48-.82-.71-2.51-.71-5.08s.32-4.13,1-5.08a3.36,3.36,0,0,1,3-1.42H46.66q7,0,7,5.28Z"/><path class="cls-5" d="M100.28,147.84c-2.43,0-4.09-.3-5-.91A3.45,3.45,0,0,1,94,143.88V133.52H68q-3.15,0-4.42-1.83A8,8,0,0,1,62.3,127c0-.81,0-1.52.05-2.13a9.48,9.48,0,0,1,.26-1.73,6.68,6.68,0,0,1,.6-1.57,13,13,0,0,1,1.22-1.78L87.49,84.57q1.92-3,3.3-4.92a17.31,17.31,0,0,1,2.59-3,6.39,6.39,0,0,1,2.53-1.42,12.19,12.19,0,0,1,3.15-.36c2.85,0,4.84.58,6,1.73s1.72,3,1.72,5.59v39.7h3.35q2.85,0,2.85,5.69,0,5.9-2.85,5.89h-3.35v10.36q0,2.34-1.32,3.15C104.58,147.57,102.85,147.84,100.28,147.84ZM94,121.94v-28l-17.57,28Z"/></g></g></g></svg>