<svg xmlns="http://www.w3.org/2000/svg" xmlns:xlink="http://www.w3.org/1999/xlink" viewBox="0 0 150 76.93"><defs><style>.cls-1{fill:url(#未命名的渐变_301);}</style><linearGradient id="未命名的渐变_301" x1="75" y1="76.93" x2="75" gradientUnits="userSpaceOnUse"><stop offset="0" stop-color="#f4f0ec"/><stop offset="1" stop-color="#b5bdc1"/></linearGradient></defs><title>Hzae(霾)</title><g id="图层_2" data-name="图层 2"><g id="图层_21" data-name="图层 21"><g id="Hzae_霾_" data-name="Hzae(霾)"><path class="cls-1" d="M107.44,0A44.4,44.4,0,0,0,75,13.61,44.4,44.4,0,0,0,42.56,0C19.09,0,0,17.26,0,38.46S19.09,76.93,42.56,76.93A44.4,44.4,0,0,0,75,63.32a44.4,44.4,0,0,0,32.44,13.61c23.47,0,42.56-17.26,42.56-38.47S130.91,0,107.44,0ZM42.56,58.65c-12.32,0-22.33-9.06-22.33-20.19s10-20.18,22.33-20.18,22.33,9.06,22.33,20.18S54.87,58.65,42.56,58.65Zm64.88,0c-12.31,0-22.33-9.06-22.33-20.19s10-20.18,22.33-20.18,22.33,9.06,22.33,20.18S119.76,58.65,107.44,58.65Z"/></g></g></g></svg>