<svg xmlns="http://www.w3.org/2000/svg" xmlns:xlink="http://www.w3.org/1999/xlink" viewBox="0 0 85.15 150"><defs><style>.cls-1{fill:#90bdcf;}.cls-2{fill:url(#未命名的渐变_322);}.cls-3{fill:url(#未命名的渐变_322-2);}.cls-4{fill:url(#未命名的渐变_322-3);}</style><linearGradient id="未命名的渐变_322" x1="-8.17" y1="143.09" x2="-8.17" y2="57.94" gradientTransform="translate(143.09 18.32) rotate(90)" gradientUnits="userSpaceOnUse"><stop offset="0.2" stop-color="#90bdcf"/><stop offset="1" stop-color="#e6f0f7"/></linearGradient><linearGradient id="未命名的渐变_322-2" x1="56.68" y1="143.09" x2="56.68" y2="57.94" xlink:href="#未命名的渐变_322"/><linearGradient id="未命名的渐变_322-3" x1="121.52" y1="143.09" x2="121.52" y2="57.94" xlink:href="#未命名的渐变_322"/></defs><title>Moderate breeze（4级风）</title><g id="图层_2" data-name="图层 2"><g id="图层_21" data-name="图层 21"><g id="Moderate_breeze_4级风_" data-name="Moderate breeze（4级风）"><path class="cls-1" d="M10.16,150A10.16,10.16,0,0,1,0,139.84V10.16a10.16,10.16,0,1,1,20.31,0V139.84A10.16,10.16,0,0,1,10.16,150Z"/><path class="cls-2" d="M75,20.31H10.16A10.16,10.16,0,1,1,10.16,0H75a10.16,10.16,0,0,1,0,20.31Z"/><path class="cls-3" d="M75,85.16H10.16a10.16,10.16,0,1,1,0-20.31H75a10.16,10.16,0,0,1,0,20.31Z"/><path class="cls-4" d="M75,150H10.16a10.16,10.16,0,1,1,0-20.31H75A10.16,10.16,0,0,1,75,150Z"/></g></g></g></svg>