<svg xmlns="http://www.w3.org/2000/svg" xmlns:xlink="http://www.w3.org/1999/xlink" viewBox="0 0 103.68 150"><defs><style>.cls-1{fill:#90bdcf;}.cls-2{fill:url(#未命名的渐变_322);}.cls-3{fill:url(#未命名的渐变_322-2);}.cls-4{fill:url(#未命名的渐变_324);}.cls-5{fill:url(#未命名的渐变_324-2);}</style><linearGradient id="未命名的渐变_322" x1="-1198.91" y1="-1047.65" x2="-1198.91" y2="-1132.8" gradientTransform="translate(-1047.65 1209.06) rotate(90)" gradientUnits="userSpaceOnUse"><stop offset="0.2" stop-color="#90bdcf"/><stop offset="1" stop-color="#e6f0f7"/></linearGradient><linearGradient id="未命名的渐变_322-2" x1="-1166.48" y1="-1047.65" x2="-1166.48" y2="-1132.8" xlink:href="#未命名的渐变_322"/><linearGradient id="未命名的渐变_324" x1="22.77" y1="139.12" x2="53.53" y2="85.84" gradientUnits="userSpaceOnUse"><stop offset="0" stop-color="#90bdcf"/><stop offset="1" stop-color="#e6f0f7"/></linearGradient><linearGradient id="未命名的渐变_324-2" x1="63.71" y1="141.81" x2="96.62" y2="84.8" xlink:href="#未命名的渐变_324"/></defs><title>Storm（10级风）</title><g id="图层_2" data-name="图层 2"><g id="图层_21" data-name="图层 21"><g id="Storm_10级风_" data-name="Storm（10级风）"><path class="cls-1" d="M10.16,150A10.16,10.16,0,0,1,0,139.84V10.16a10.16,10.16,0,1,1,20.31,0V139.84A10.16,10.16,0,0,1,10.16,150Z"/><path class="cls-2" d="M75,20.31H10.16A10.16,10.16,0,1,1,10.16,0H75a10.16,10.16,0,1,1,0,20.31Z"/><path class="cls-3" d="M10.16,85.16A10.16,10.16,0,0,1,3,67.82L67.82,3A10.16,10.16,0,0,1,82.18,17.34L17.34,82.18A10.15,10.15,0,0,1,10.16,85.16Z"/><path class="cls-4" d="M47.24,144.28q0,3.76-6.08,3.76t-6.08-3.76V92.18H30.36A2.64,2.64,0,0,1,27.85,91c-.45-.77-.68-2.37-.68-4.82s.31-3.92.92-4.82A3.2,3.2,0,0,1,30.94,80h9.64q6.66,0,6.66,5Z"/><path class="cls-5" d="M80.24,78.77a19.82,19.82,0,0,1,10.85,2.85,22.08,22.08,0,0,1,7.28,7.62,35.42,35.42,0,0,1,4.06,11.05,67.69,67.69,0,0,1,1.25,13.21,58.29,58.29,0,0,1-1.45,13.22,36.59,36.59,0,0,1-4.34,11,22.87,22.87,0,0,1-7.33,7.53A19.16,19.16,0,0,1,80.14,148a19,19,0,0,1-10.37-2.75,22.63,22.63,0,0,1-7.29-7.43A35.07,35.07,0,0,1,58.19,127a60,60,0,0,1-1.4-13.17,66.92,66.92,0,0,1,1.3-13.31,37.16,37.16,0,0,1,4.1-11.19,22,22,0,0,1,7.29-7.67A19.63,19.63,0,0,1,80.24,78.77Zm0,57.12a7.51,7.51,0,0,0,5.25-2A14.06,14.06,0,0,0,89,128.75a30.53,30.53,0,0,0,1.88-7.14,56.15,56.15,0,0,0,.58-8,64.15,64.15,0,0,0-.58-8.44,34.25,34.25,0,0,0-1.93-7.77,16.64,16.64,0,0,0-3.47-5.64,7.34,7.34,0,0,0-10.42,0,16.5,16.5,0,0,0-3.48,5.64,35.31,35.31,0,0,0-2,7.77,59.35,59.35,0,0,0-.63,8.63,55.62,55.62,0,0,0,.58,8.06,26.87,26.87,0,0,0,1.93,7.09,14.48,14.48,0,0,0,3.47,5A7.56,7.56,0,0,0,80.24,135.89Z"/></g></g></g></svg>