<svg xmlns="http://www.w3.org/2000/svg" xmlns:xlink="http://www.w3.org/1999/xlink" viewBox="0 0 85.16 150"><defs><style>.cls-1{fill:#90bdcf;}.cls-2{fill:url(#未命名的渐变_322);}.cls-3{fill:url(#未命名的渐变_322-2);}.cls-4{fill:url(#未命名的渐变_325);}</style><linearGradient id="未命名的渐变_322" x1="-1008.17" y1="-856.91" x2="-1008.17" y2="-942.06" gradientTransform="translate(-856.91 1018.32) rotate(90)" gradientUnits="userSpaceOnUse"><stop offset="0.2" stop-color="#90bdcf"/><stop offset="1" stop-color="#e6f0f7"/></linearGradient><linearGradient id="未命名的渐变_322-2" x1="-975.74" y1="-856.91" x2="-975.74" y2="-942.06" xlink:href="#未命名的渐变_322"/><linearGradient id="未命名的渐变_325" x1="26.47" y1="140.41" x2="59.69" y2="82.87" gradientUnits="userSpaceOnUse"><stop offset="0" stop-color="#90bdcf"/><stop offset="1" stop-color="#e6f0f7"/></linearGradient></defs><title>Strong Gale（9级风）</title><g id="图层_2" data-name="图层 2"><g id="图层_21" data-name="图层 21"><g id="Strong_Gale_9级风_" data-name="Strong Gale（9级风）"><path class="cls-1" d="M10.16,150A10.16,10.16,0,0,1,0,139.84V10.16a10.16,10.16,0,1,1,20.31,0V139.84A10.16,10.16,0,0,1,10.16,150Z"/><path class="cls-2" d="M75,20.31H10.16A10.16,10.16,0,1,1,10.16,0H75a10.16,10.16,0,1,1,0,20.31Z"/><path class="cls-3" d="M10.16,85.16A10.16,10.16,0,0,1,3,67.82L67.82,3A10.16,10.16,0,0,1,82.18,17.34L17.34,82.18A10.15,10.15,0,0,1,10.16,85.16Z"/><path class="cls-4" d="M49.84,124a7,7,0,0,1-1.73.58,10.2,10.2,0,0,1-1.35.09,22.7,22.7,0,0,1-9-1.68,18.91,18.91,0,0,1-6.71-4.73,20.86,20.86,0,0,1-4.2-7.24,28.51,28.51,0,0,1-1.44-9.31,25.12,25.12,0,0,1,1.44-8.29,23,23,0,0,1,4.2-7.38,21.52,21.52,0,0,1,6.71-5.26,19.57,19.57,0,0,1,9.06-2,20.32,20.32,0,0,1,9,1.93,19.79,19.79,0,0,1,6.61,5.12,22.84,22.84,0,0,1,4,7.33,26.74,26.74,0,0,1,1.4,8.58,49.62,49.62,0,0,1-1.6,12.35,59.17,59.17,0,0,1-4.53,12.11,62.43,62.43,0,0,1-7,10.95,52.53,52.53,0,0,1-9,8.88A9.35,9.35,0,0,1,41,148a5.64,5.64,0,0,1-4.15-2,6.44,6.44,0,0,1-1.59-3.52,3.4,3.4,0,0,1,1.69-3.33A47.74,47.74,0,0,0,43.86,133,39.34,39.34,0,0,0,49.84,124Zm-3-34.44a7.85,7.85,0,0,0-4.1,1.06,10.2,10.2,0,0,0-3,2.75,12.71,12.71,0,0,0-1.93,3.86,15,15,0,0,0-.68,4.48c0,3.93.84,6.93,2.51,9a8.61,8.61,0,0,0,7.14,3.14,8.35,8.35,0,0,0,7-3.14c1.61-2.09,2.41-5.09,2.41-9a16.37,16.37,0,0,0-.62-4.48,12.53,12.53,0,0,0-1.84-3.86,9.88,9.88,0,0,0-2.94-2.75A7.43,7.43,0,0,0,46.85,89.58Z"/></g></g></g></svg>