<svg xmlns="http://www.w3.org/2000/svg" xmlns:xlink="http://www.w3.org/1999/xlink" viewBox="0 0 140.18 150"><defs><style>.cls-1{fill:url(#未命名的渐变_168);}.cls-2{fill:url(#未命名的渐变_166);}.cls-3{fill:url(#未命名的渐变_167);}.cls-4{fill:url(#未命名的渐变_166-2);}.cls-5{fill:url(#未命名的渐变_152);}.cls-6{fill:url(#未命名的渐变_164);}.cls-7{fill:url(#未命名的渐变_166-3);}.cls-8{fill:url(#未命名的渐变_151);}.cls-9{fill:url(#未命名的渐变_37);}</style><linearGradient id="未命名的渐变_168" x1="53.86" y1="117.73" x2="105.4" y2="28.46" gradientUnits="userSpaceOnUse"><stop offset="0.4" stop-color="#55616c"/><stop offset="1" stop-color="#c8d5e3"/></linearGradient><linearGradient id="未命名的渐变_166" x1="53.86" y1="117.73" x2="105.4" y2="28.46" gradientUnits="userSpaceOnUse"><stop offset="0" stop-color="#ffde99" stop-opacity="0.6"/><stop offset="0.08" stop-color="#eedaab" stop-opacity="0.43"/><stop offset="0.17" stop-color="#ded5bd" stop-opacity="0.28"/><stop offset="0.26" stop-color="#d1d2ca" stop-opacity="0.16"/><stop offset="0.34" stop-color="#c8d0d4" stop-opacity="0.07"/><stop offset="0.43" stop-color="#c3ceda" stop-opacity="0.02"/><stop offset="0.5" stop-color="#c1cedc" stop-opacity="0"/></linearGradient><linearGradient id="未命名的渐变_167" x1="34.98" y1="105.49" x2="92.01" y2="6.71" gradientUnits="userSpaceOnUse"><stop offset="0.34" stop-color="#55616c"/><stop offset="1" stop-color="#c8d5e3"/></linearGradient><linearGradient id="未命名的渐变_166-2" x1="70.09" y1="108.84" x2="70.09" y2="0" xlink:href="#未命名的渐变_166"/><linearGradient id="未命名的渐变_152" x1="76.31" y1="76.47" x2="32.22" y2="32.37" gradientUnits="userSpaceOnUse"><stop offset="0.5" stop-color="#bddcff" stop-opacity="0"/><stop offset="0.57" stop-color="#bfdbf8" stop-opacity="0.02"/><stop offset="0.66" stop-color="#c5d7e2" stop-opacity="0.07"/><stop offset="0.74" stop-color="#ced0be" stop-opacity="0.16"/><stop offset="0.83" stop-color="#dcc78b" stop-opacity="0.28"/><stop offset="0.92" stop-color="#edbb4a" stop-opacity="0.43"/><stop offset="1" stop-color="#ffaf06" stop-opacity="0.6"/></linearGradient><linearGradient id="未命名的渐变_164" x1="57.67" y1="103.7" x2="19.22" y2="37.1" gradientUnits="userSpaceOnUse"><stop offset="0" stop-color="#55616c"/><stop offset="1" stop-color="#c8d5e3"/></linearGradient><linearGradient id="未命名的渐变_166-3" x1="65.63" y1="97.58" x2="11.26" y2="43.21" xlink:href="#未命名的渐变_166"/><linearGradient id="未命名的渐变_151" x1="-236.26" y1="-256.79" x2="-236.26" y2="-276.33" gradientTransform="translate(69.01 483.66) rotate(45)" gradientUnits="userSpaceOnUse"><stop offset="0" stop-color="#788e99"/><stop offset="1" stop-color="#f5f9ff"/></linearGradient><linearGradient id="未命名的渐变_37" x1="50.74" y1="147.55" x2="80.82" y2="95.45" gradientUnits="userSpaceOnUse"><stop offset="0" stop-color="#ffd470"/><stop offset="1" stop-color="#ffa620"/></linearGradient></defs><title>Thunder  shower(雷阵雨)</title><g id="图层_2" data-name="图层 2"><g id="图层_21" data-name="图层 21"><g id="Thunder_shower_雷阵雨_" data-name="Thunder  shower(雷阵雨)"><path class="cls-1" d="M100.73,32H38.49a.1.1,0,0,0-.09.1v76.7a.09.09,0,0,0,.09.09h63.25a38.44,38.44,0,0,0,38.42-39.76C139.46,48.2,121.62,32,100.73,32Z"/><path class="cls-2" d="M100.73,32H38.49a.1.1,0,0,0-.09.1v76.7a.09.09,0,0,0,.09.09h63.25a38.44,38.44,0,0,0,38.42-39.76C139.46,48.2,121.62,32,100.73,32Z"/><path class="cls-3" d="M108.54,38.45a38.45,38.45,0,0,0-76.44-6,40.42,40.42,0,0,0-.46,6A38.45,38.45,0,0,0,70.09,76.89a37.61,37.61,0,0,0,6.32-.52,38.45,38.45,0,0,1-35.74,32.41c.92,0,1.86.06,2.79.06a65.07,65.07,0,0,0,65.08-65.07c0-1,0-2-.08-3C108.51,40,108.54,39.23,108.54,38.45Z"/><path class="cls-4" d="M108.54,38.45a38.45,38.45,0,0,0-76.44-6,40.42,40.42,0,0,0-.46,6A38.45,38.45,0,0,0,70.09,76.89a37.61,37.61,0,0,0,6.32-.52,38.45,38.45,0,0,1-35.74,32.41c.92,0,1.86.06,2.79.06a65.07,65.07,0,0,0,65.08-65.07c0-1,0-2-.08-3C108.51,40,108.54,39.23,108.54,38.45Z"/><path class="cls-5" d="M76.89,70.39a36.84,36.84,0,0,1-.48,6,37.61,37.61,0,0,1-6.32.52A38.45,38.45,0,0,1,31.64,38.45a40.42,40.42,0,0,1,.46-6A37.93,37.93,0,0,1,38.44,32,38.45,38.45,0,0,1,76.89,70.39Z"/><circle class="cls-6" cx="38.44" cy="70.4" r="38.44"/><circle class="cls-7" cx="38.44" cy="70.4" r="38.44"/><path class="cls-8" d="M99.14,125.94a6.23,6.23,0,0,0-6.56-6.56c-8.66,0-9.07,15.63-9.07,15.63S99.14,134.73,99.14,125.94Z"/><path class="cls-9" d="M79.61,122.74h-8.9l9.66-26.48A1.12,1.12,0,0,0,78.57,95L49.78,120.77a1.13,1.13,0,0,0,.75,2h13.1l-9.41,25.74a1.12,1.12,0,0,0,1.86,1.17l24.33-25A1.12,1.12,0,0,0,79.61,122.74Z"/></g></g></g></svg>