<svg xmlns="http://www.w3.org/2000/svg" xmlns:xlink="http://www.w3.org/1999/xlink" viewBox="0 0 139.95 150"><defs><style>.cls-1{fill:url(#未命名的渐变_216);}.cls-2{fill:url(#未命名的渐变_215);}.cls-3{fill:url(#未命名的渐变_152);}.cls-4{fill:url(#未命名的渐变_214);}.cls-5{fill:url(#未命名的渐变_214-2);}.cls-6{fill:url(#未命名的渐变_214-3);}.cls-7{fill:url(#未命名的渐变_214-4);}.cls-8{fill:url(#未命名的渐变_214-5);}</style><linearGradient id="未命名的渐变_216" x1="53.77" y1="117.53" x2="105.23" y2="28.41" gradientUnits="userSpaceOnUse"><stop offset="0.4" stop-color="#87acb2"/><stop offset="1" stop-color="#e4f3f5"/></linearGradient><linearGradient id="未命名的渐变_215" x1="34.92" y1="105.31" x2="91.86" y2="6.7" gradientUnits="userSpaceOnUse"><stop offset="0.3" stop-color="#87acb2"/><stop offset="1" stop-color="#e4f3f5"/></linearGradient><linearGradient id="未命名的渐变_152" x1="76.19" y1="76.34" x2="32.16" y2="32.32" gradientUnits="userSpaceOnUse"><stop offset="0.5" stop-color="#bddcff" stop-opacity="0"/><stop offset="0.57" stop-color="#bfdbf8" stop-opacity="0.02"/><stop offset="0.66" stop-color="#c5d7e2" stop-opacity="0.07"/><stop offset="0.74" stop-color="#ced0be" stop-opacity="0.16"/><stop offset="0.83" stop-color="#dcc78b" stop-opacity="0.28"/><stop offset="0.92" stop-color="#edbb4a" stop-opacity="0.43"/><stop offset="1" stop-color="#ffaf06" stop-opacity="0.6"/></linearGradient><linearGradient id="未命名的渐变_214" x1="57.57" y1="103.52" x2="19.19" y2="37.04" gradientUnits="userSpaceOnUse"><stop offset="0" stop-color="#87acb2"/><stop offset="1" stop-color="#e4f3f5"/></linearGradient><linearGradient id="未命名的渐变_214-2" x1="73.82" y1="129.93" x2="66.16" y2="116.67" xlink:href="#未命名的渐变_214"/><linearGradient id="未命名的渐变_214-3" x1="73.82" y1="149.82" x2="66.16" y2="136.55" xlink:href="#未命名的渐变_214"/><linearGradient id="未命名的渐变_214-4" x1="98.68" y1="129.93" x2="91.02" y2="116.67" xlink:href="#未命名的渐变_214"/><linearGradient id="未命名的渐变_214-5" x1="48.96" y1="129.93" x2="41.3" y2="116.67" xlink:href="#未命名的渐变_214"/></defs><title>Torrential Snow（暴雪）</title><g id="图层_2" data-name="图层 2"><g id="图层_21" data-name="图层 21"><g id="Torrential_Snow_暴雪_" data-name="Torrential Snow（暴雪）"><path class="cls-1" d="M100.56,31.9H38.42a.09.09,0,0,0-.09.09v76.58a.09.09,0,0,0,.09.09h63.15A38.37,38.37,0,0,0,139.92,69C139.23,48.12,121.42,31.9,100.56,31.9Z"/><path class="cls-2" d="M108.35,38.38a38.38,38.38,0,0,0-76.3-6,38.94,38.94,0,0,0-.46,6A38.39,38.39,0,0,0,70,76.76a37.61,37.61,0,0,0,6.32-.52A38.39,38.39,0,0,1,40.6,108.59c.92,0,1.85.07,2.79.07a65,65,0,0,0,65-65c0-1,0-2-.07-3C108.33,40,108.35,39.16,108.35,38.38Z"/><path class="cls-3" d="M76.76,70.27a37.87,37.87,0,0,1-.47,6,37.61,37.61,0,0,1-6.32.52A38.39,38.39,0,0,1,31.59,38.38a38.94,38.94,0,0,1,.46-6,37.73,37.73,0,0,1,6.33-.52A38.37,38.37,0,0,1,76.76,70.27Z"/><circle class="cls-4" cx="38.38" cy="70.28" r="38.38"/><path class="cls-5" d="M75.67,125.17l1.35-.76a1.24,1.24,0,0,0,0-2.16l-1.35-.77a1.23,1.23,0,0,0-1.22,0l-1.26.7-.61-1.06,1.24-.76a1.25,1.25,0,0,0,.59-1l0-1.55a1.24,1.24,0,0,0-1.87-1.09l-1.35.78a1.26,1.26,0,0,0-.61,1l0,1.45H69.37l0-1.44a1.25,1.25,0,0,0-.6-1l-1.33-.79a1.24,1.24,0,0,0-1.88,1.07v1.56a1.23,1.23,0,0,0,.6,1.05l1.22.74-.59,1-1.17-.67a1.23,1.23,0,0,0-1.22,0l-1.39.77a1.24,1.24,0,0,0,0,2.18l1.39.75a1.25,1.25,0,0,0,1.2,0l1.19-.67.58,1-1.16.68a1.27,1.27,0,0,0-.62,1l0,1.59a1.23,1.23,0,0,0,1.89,1.08l1.35-.82a1.27,1.27,0,0,0,.59-1l0-1.36h1.17v1.37a1.24,1.24,0,0,0,.61,1.05l1.36.82a1.24,1.24,0,0,0,1.88-1.1l0-1.58a1.24,1.24,0,0,0-.61-1l-1.17-.7.59-1,1.28.69A1.25,1.25,0,0,0,75.67,125.17Zm-5.7-.28a1.57,1.57,0,1,1,1.57-1.56A1.56,1.56,0,0,1,70,124.89Z"/><path class="cls-6" d="M75.67,145.05,77,144.3a1.25,1.25,0,0,0,0-2.17l-1.35-.77a1.26,1.26,0,0,0-1.22,0l-1.26.7L72.59,141l1.24-.77a1.22,1.22,0,0,0,.59-1l0-1.54a1.25,1.25,0,0,0-1.87-1.1l-1.35.79a1.26,1.26,0,0,0-.61,1l0,1.44H69.37l0-1.43a1.25,1.25,0,0,0-.6-1l-1.33-.8a1.25,1.25,0,0,0-1.88,1.08v1.55a1.23,1.23,0,0,0,.6,1.06l1.22.74-.59,1-1.17-.67a1.26,1.26,0,0,0-1.22,0l-1.39.77a1.24,1.24,0,0,0,0,2.18l1.39.75a1.25,1.25,0,0,0,1.2,0l1.19-.66.58,1-1.16.68a1.27,1.27,0,0,0-.62,1l0,1.59a1.24,1.24,0,0,0,1.89,1.08l1.35-.83a1.24,1.24,0,0,0,.59-1l0-1.36h1.17v1.37a1.24,1.24,0,0,0,.61,1.06l1.36.82a1.24,1.24,0,0,0,1.88-1.1l0-1.58a1.24,1.24,0,0,0-.61-1l-1.17-.71.59-1,1.28.69A1.25,1.25,0,0,0,75.67,145.05Zm-5.7-.27a1.57,1.57,0,1,1,1.57-1.57A1.56,1.56,0,0,1,70,144.78Z"/><path class="cls-7" d="M100.53,125.17l1.35-.76a1.24,1.24,0,0,0,0-2.16l-1.35-.77a1.23,1.23,0,0,0-1.22,0l-1.26.7-.61-1.06,1.24-.76a1.25,1.25,0,0,0,.59-1l0-1.55a1.24,1.24,0,0,0-1.87-1.09l-1.35.78a1.26,1.26,0,0,0-.61,1l0,1.45H94.23l0-1.44a1.25,1.25,0,0,0-.6-1l-1.33-.79a1.24,1.24,0,0,0-1.88,1.07v1.56a1.23,1.23,0,0,0,.6,1.05l1.22.74-.59,1-1.17-.67a1.23,1.23,0,0,0-1.22,0l-1.39.77a1.24,1.24,0,0,0,0,2.18l1.39.75a1.25,1.25,0,0,0,1.2,0l1.18-.67.59,1-1.16.68a1.24,1.24,0,0,0-.62,1l0,1.59a1.24,1.24,0,0,0,1.9,1.08l1.35-.82a1.27,1.27,0,0,0,.59-1l0-1.36h1.16v1.37a1.23,1.23,0,0,0,.6,1.05l1.37.82a1.24,1.24,0,0,0,1.88-1.1l0-1.58a1.26,1.26,0,0,0-.61-1l-1.18-.7.6-1,1.28.69A1.25,1.25,0,0,0,100.53,125.17Zm-5.7-.28a1.57,1.57,0,1,1,1.56-1.56A1.56,1.56,0,0,1,94.83,124.89Z"/><path class="cls-8" d="M50.81,125.17l1.35-.76a1.23,1.23,0,0,0,0-2.16l-1.35-.77a1.23,1.23,0,0,0-1.22,0l-1.26.7-.61-1.06,1.24-.76a1.26,1.26,0,0,0,.6-1l0-1.55a1.24,1.24,0,0,0-1.87-1.09l-1.34.78a1.24,1.24,0,0,0-.62,1l0,1.45H44.51l0-1.44a1.25,1.25,0,0,0-.6-1l-1.33-.79a1.24,1.24,0,0,0-1.88,1.07v1.56a1.23,1.23,0,0,0,.6,1.05l1.23.74-.6,1-1.17-.67a1.23,1.23,0,0,0-1.22,0l-1.39.77a1.24,1.24,0,0,0,0,2.18l1.39.75a1.25,1.25,0,0,0,1.2,0l1.19-.67.58,1-1.16.68a1.24,1.24,0,0,0-.61,1l0,1.59a1.23,1.23,0,0,0,1.89,1.08l1.35-.82a1.27,1.27,0,0,0,.59-1l0-1.36h1.17v1.37a1.23,1.23,0,0,0,.6,1.05l1.36.82a1.24,1.24,0,0,0,1.88-1.1l0-1.58a1.25,1.25,0,0,0-.6-1l-1.18-.7.59-1,1.28.69A1.25,1.25,0,0,0,50.81,125.17Zm-5.7-.28a1.57,1.57,0,1,1,1.57-1.56A1.56,1.56,0,0,1,45.11,124.89Z"/></g></g></g></svg>