<svg xmlns="http://www.w3.org/2000/svg" xmlns:xlink="http://www.w3.org/1999/xlink" viewBox="0 0 150 81.76"><defs><style>.cls-1{fill:url(#未命名的渐变_35);}</style><linearGradient id="未命名的渐变_35" x1="55.13" y1="112.62" x2="113.63" y2="11.3" gradientUnits="userSpaceOnUse"><stop offset="0" stop-color="#005c6b"/><stop offset="1" stop-color="#dbf6ff"/></linearGradient></defs><title>Tsunami（海啸）</title><g id="图层_2" data-name="图层 2"><g id="图层_21" data-name="图层 21"><g id="Tsunami_海啸_" data-name="Tsunami（海啸）"><path class="cls-1" d="M142.36,73.38c-2.4-5.19-.47-11,7.64-13.91a15.85,15.85,0,0,0-9.94-4.55h0q-.44,0-.87,0c-8.51,0-14,9.34-16.81,16.07-2.6-10.17-3-24.66,13.75-30.38-5.91-5.35-13-8.47-20.7-8.47-10.68,0-18.85,7.43-24.74,16.06C90.61,34.62,96,20.64,115.52,13.94A53.33,53.33,0,0,0,92.42,1.33c-.44-.11-.9-.21-1.34-.3s-.9-.19-1.35-.27L88.44.54,87,.34c-.4-.05-.79-.1-1.19-.13S85.24.15,85,.14,84.3.08,84,.07L82.83,0l-1.4,0c-27,0-44.23,28.78-53.12,49.3a60.69,60.69,0,0,1-6.49,11.54c-.74,1-1.51,2-2.3,3-1.06,1.28-2.17,2.49-3.32,3.65-.87.86-1.74,1.67-2.65,2.44s-1.83,1.52-2.77,2.2c-.32.24-.64.47-1,.68-1,.65-1.93,1.27-2.92,1.85a41.24,41.24,0,0,1-5.1,2.47l-.33.14h0A2.17,2.17,0,0,0,.14,78.61a2.32,2.32,0,0,0,2.19,3.15H146.5a1.93,1.93,0,0,0,1.83-2.57A13.14,13.14,0,0,1,142.36,73.38Z"/></g></g></g></svg>