<svg xmlns="http://www.w3.org/2000/svg" xmlns:xlink="http://www.w3.org/1999/xlink" viewBox="0 0 86.67 150"><defs><style>.cls-1{fill:#90bdcf;}.cls-2{fill:url(#未命名的渐变_322);}.cls-3{fill:url(#未命名的渐变_322-2);}.cls-4{fill:url(#未命名的渐变_326);}.cls-5{fill:url(#未命名的渐变_326-2);}</style><linearGradient id="未命名的渐变_322" x1="195.86" y1="-59.42" x2="195.86" y2="-144.57" gradientTransform="translate(-59.42 -185.71) rotate(90)" gradientUnits="userSpaceOnUse"><stop offset="0.2" stop-color="#90bdcf"/><stop offset="1" stop-color="#e6f0f7"/></linearGradient><linearGradient id="未命名的渐变_322-2" x1="228.28" y1="-59.42" x2="228.28" y2="-144.57" xlink:href="#未命名的渐变_322"/><linearGradient id="未命名的渐变_326" x1="27.91" y1="138.75" x2="60.29" y2="82.66" gradientUnits="userSpaceOnUse"><stop offset="0" stop-color="#90bdcf"/><stop offset="1" stop-color="#e6f0f7"/></linearGradient><linearGradient id="未命名的渐变_326-2" x1="60.92" y1="138.75" x2="93.3" y2="82.66" xlink:href="#未命名的渐变_326"/></defs><title>Violent storm（11级风）</title><g id="图层_2" data-name="图层 2"><g id="图层_21" data-name="图层 21"><g id="Violent_storm_11级风_" data-name="Violent storm（11级风）"><path class="cls-1" d="M10.16,150A10.16,10.16,0,0,1,0,139.84V10.16a10.16,10.16,0,1,1,20.31,0V139.84A10.16,10.16,0,0,1,10.16,150Z"/><path class="cls-2" d="M75,20.31H10.16A10.16,10.16,0,1,1,10.16,0H75a10.16,10.16,0,1,1,0,20.31Z"/><path class="cls-3" d="M10.16,85.16A10.16,10.16,0,0,1,3,67.82L67.82,3A10.16,10.16,0,0,1,82.18,17.34L17.34,82.18A10.17,10.17,0,0,1,10.16,85.16Z"/><path class="cls-4" d="M53.67,144.18q0,4-6.4,4c-4.26,0-6.4-1.32-6.4-4V89.35h-5a2.79,2.79,0,0,1-2.64-1.22c-.48-.82-.71-2.51-.71-5.08s.32-4.13,1-5.08a3.36,3.36,0,0,1,3-1.42H46.66q7,0,7,5.28Z"/><path class="cls-5" d="M86.67,144.18q0,4-6.39,4t-6.4-4V89.35h-5a2.8,2.8,0,0,1-2.64-1.22c-.47-.82-.71-2.51-.71-5.08s.32-4.13,1-5.08a3.35,3.35,0,0,1,3-1.42H79.67q7,0,7,5.28Z"/></g></g></g></svg>